<svg xmlns="http://www.w3.org/2000/svg" xmlns:xlink="http://www.w3.org/1999/xlink" width="600" height="400" viewBox="0 0 2400 1600">
<defs>
  <clipPath id="clip950">
    <rect x="0" y="0" width="2400" height="1600"></rect>
  </clipPath>
</defs>
<path clip-path="url(#clip950)" d="M0 1600 L2400 1600 L2400 0 L0 0  Z" fill="#ffffff" fill-rule="evenodd" fill-opacity="1"></path>
<defs>
  <clipPath id="clip951">
    <rect x="480" y="0" width="1681" height="1600"></rect>
  </clipPath>
</defs>
<path clip-path="url(#clip950)" d="M279.704 1423.18 L2352.76 1423.18 L2352.76 47.2441 L279.704 47.2441  Z" fill="#ffffff" fill-rule="evenodd" fill-opacity="1"></path>
<defs>
  <clipPath id="clip952">
    <rect x="279" y="47" width="2074" height="1377"></rect>
  </clipPath>
</defs>
<polyline clip-path="url(#clip952)" style="stroke:#000000; stroke-linecap:round; stroke-linejoin:round; stroke-width:2; stroke-opacity:0.1; fill:none" points="415.901,1423.18 415.901,47.2441 "></polyline>
<polyline clip-path="url(#clip952)" style="stroke:#000000; stroke-linecap:round; stroke-linejoin:round; stroke-width:2; stroke-opacity:0.1; fill:none" points="731.452,1423.18 731.452,47.2441 "></polyline>
<polyline clip-path="url(#clip952)" style="stroke:#000000; stroke-linecap:round; stroke-linejoin:round; stroke-width:2; stroke-opacity:0.1; fill:none" points="1047,1423.18 1047,47.2441 "></polyline>
<polyline clip-path="url(#clip952)" style="stroke:#000000; stroke-linecap:round; stroke-linejoin:round; stroke-width:2; stroke-opacity:0.1; fill:none" points="1362.55,1423.18 1362.55,47.2441 "></polyline>
<polyline clip-path="url(#clip952)" style="stroke:#000000; stroke-linecap:round; stroke-linejoin:round; stroke-width:2; stroke-opacity:0.1; fill:none" points="1678.1,1423.18 1678.1,47.2441 "></polyline>
<polyline clip-path="url(#clip952)" style="stroke:#000000; stroke-linecap:round; stroke-linejoin:round; stroke-width:2; stroke-opacity:0.1; fill:none" points="1993.65,1423.18 1993.65,47.2441 "></polyline>
<polyline clip-path="url(#clip952)" style="stroke:#000000; stroke-linecap:round; stroke-linejoin:round; stroke-width:2; stroke-opacity:0.1; fill:none" points="2309.2,1423.18 2309.2,47.2441 "></polyline>
<polyline clip-path="url(#clip950)" style="stroke:#000000; stroke-linecap:round; stroke-linejoin:round; stroke-width:4; stroke-opacity:1; fill:none" points="279.704,1423.18 2352.76,1423.18 "></polyline>
<polyline clip-path="url(#clip950)" style="stroke:#000000; stroke-linecap:round; stroke-linejoin:round; stroke-width:4; stroke-opacity:1; fill:none" points="415.901,1423.18 415.901,1404.28 "></polyline>
<polyline clip-path="url(#clip950)" style="stroke:#000000; stroke-linecap:round; stroke-linejoin:round; stroke-width:4; stroke-opacity:1; fill:none" points="731.452,1423.18 731.452,1404.28 "></polyline>
<polyline clip-path="url(#clip950)" style="stroke:#000000; stroke-linecap:round; stroke-linejoin:round; stroke-width:4; stroke-opacity:1; fill:none" points="1047,1423.18 1047,1404.28 "></polyline>
<polyline clip-path="url(#clip950)" style="stroke:#000000; stroke-linecap:round; stroke-linejoin:round; stroke-width:4; stroke-opacity:1; fill:none" points="1362.55,1423.18 1362.55,1404.28 "></polyline>
<polyline clip-path="url(#clip950)" style="stroke:#000000; stroke-linecap:round; stroke-linejoin:round; stroke-width:4; stroke-opacity:1; fill:none" points="1678.1,1423.18 1678.1,1404.28 "></polyline>
<polyline clip-path="url(#clip950)" style="stroke:#000000; stroke-linecap:round; stroke-linejoin:round; stroke-width:4; stroke-opacity:1; fill:none" points="1993.65,1423.18 1993.65,1404.28 "></polyline>
<polyline clip-path="url(#clip950)" style="stroke:#000000; stroke-linecap:round; stroke-linejoin:round; stroke-width:4; stroke-opacity:1; fill:none" points="2309.2,1423.18 2309.2,1404.28 "></polyline>
<path clip-path="url(#clip950)" d="M369.964 1468.75 L399.64 1468.75 L399.64 1472.69 L369.964 1472.69 L369.964 1468.75 Z" fill="#000000" fill-rule="nonzero" fill-opacity="1"></path><path clip-path="url(#clip950)" d="M409.778 1451.02 L428.135 1451.02 L428.135 1454.96 L414.061 1454.96 L414.061 1463.43 Q415.079 1463.08 416.098 1462.92 Q417.116 1462.73 418.135 1462.73 Q423.922 1462.73 427.301 1465.9 Q430.681 1469.08 430.681 1474.49 Q430.681 1480.07 427.209 1483.17 Q423.737 1486.25 417.417 1486.25 Q415.241 1486.25 412.973 1485.88 Q410.727 1485.51 408.32 1484.77 L408.32 1480.07 Q410.403 1481.2 412.626 1481.76 Q414.848 1482.32 417.325 1482.32 Q421.329 1482.32 423.667 1480.21 Q426.005 1478.1 426.005 1474.49 Q426.005 1470.88 423.667 1468.77 Q421.329 1466.67 417.325 1466.67 Q415.45 1466.67 413.575 1467.08 Q411.723 1467.5 409.778 1468.38 L409.778 1451.02 Z" fill="#000000" fill-rule="nonzero" fill-opacity="1"></path><path clip-path="url(#clip950)" d="M449.894 1454.1 Q446.283 1454.1 444.454 1457.66 Q442.649 1461.2 442.649 1468.33 Q442.649 1475.44 444.454 1479.01 Q446.283 1482.55 449.894 1482.55 Q453.528 1482.55 455.334 1479.01 Q457.162 1475.44 457.162 1468.33 Q457.162 1461.2 455.334 1457.66 Q453.528 1454.1 449.894 1454.1 M449.894 1450.39 Q455.704 1450.39 458.76 1455 Q461.838 1459.58 461.838 1468.33 Q461.838 1477.06 458.76 1481.67 Q455.704 1486.25 449.894 1486.25 Q444.084 1486.25 441.005 1481.67 Q437.95 1477.06 437.95 1468.33 Q437.95 1459.58 441.005 1455 Q444.084 1450.39 449.894 1450.39 Z" fill="#000000" fill-rule="nonzero" fill-opacity="1"></path><path clip-path="url(#clip950)" d="M731.452 1454.1 Q727.841 1454.1 726.012 1457.66 Q724.206 1461.2 724.206 1468.33 Q724.206 1475.44 726.012 1479.01 Q727.841 1482.55 731.452 1482.55 Q735.086 1482.55 736.891 1479.01 Q738.72 1475.44 738.72 1468.33 Q738.72 1461.2 736.891 1457.66 Q735.086 1454.1 731.452 1454.1 M731.452 1450.39 Q737.262 1450.39 740.317 1455 Q743.396 1459.58 743.396 1468.33 Q743.396 1477.06 740.317 1481.67 Q737.262 1486.25 731.452 1486.25 Q725.641 1486.25 722.563 1481.67 Q719.507 1477.06 719.507 1468.33 Q719.507 1459.58 722.563 1455 Q725.641 1450.39 731.452 1450.39 Z" fill="#000000" fill-rule="nonzero" fill-opacity="1"></path><path clip-path="url(#clip950)" d="M1021.7 1451.02 L1040.06 1451.02 L1040.06 1454.96 L1025.98 1454.96 L1025.98 1463.43 Q1027 1463.08 1028.02 1462.92 Q1029.04 1462.73 1030.06 1462.73 Q1035.84 1462.73 1039.22 1465.9 Q1042.6 1469.08 1042.6 1474.49 Q1042.6 1480.07 1039.13 1483.17 Q1035.66 1486.25 1029.34 1486.25 Q1027.16 1486.25 1024.9 1485.88 Q1022.65 1485.51 1020.24 1484.77 L1020.24 1480.07 Q1022.33 1481.2 1024.55 1481.76 Q1026.77 1482.32 1029.25 1482.32 Q1033.25 1482.32 1035.59 1480.21 Q1037.93 1478.1 1037.93 1474.49 Q1037.93 1470.88 1035.59 1468.77 Q1033.25 1466.67 1029.25 1466.67 Q1027.37 1466.67 1025.5 1467.08 Q1023.65 1467.5 1021.7 1468.38 L1021.7 1451.02 Z" fill="#000000" fill-rule="nonzero" fill-opacity="1"></path><path clip-path="url(#clip950)" d="M1061.82 1454.1 Q1058.21 1454.1 1056.38 1457.66 Q1054.57 1461.2 1054.57 1468.33 Q1054.57 1475.44 1056.38 1479.01 Q1058.21 1482.55 1061.82 1482.55 Q1065.45 1482.55 1067.26 1479.01 Q1069.09 1475.44 1069.09 1468.33 Q1069.09 1461.2 1067.26 1457.66 Q1065.45 1454.1 1061.82 1454.1 M1061.82 1450.39 Q1067.63 1450.39 1070.68 1455 Q1073.76 1459.58 1073.76 1468.33 Q1073.76 1477.06 1070.68 1481.67 Q1067.63 1486.25 1061.82 1486.25 Q1056.01 1486.25 1052.93 1481.67 Q1049.87 1477.06 1049.87 1468.33 Q1049.87 1459.58 1052.93 1455 Q1056.01 1450.39 1061.82 1450.39 Z" fill="#000000" fill-rule="nonzero" fill-opacity="1"></path><path clip-path="url(#clip950)" d="M1322.16 1481.64 L1329.8 1481.64 L1329.8 1455.28 L1321.49 1456.95 L1321.49 1452.69 L1329.75 1451.02 L1334.43 1451.02 L1334.43 1481.64 L1342.07 1481.64 L1342.07 1485.58 L1322.16 1485.58 L1322.16 1481.64 Z" fill="#000000" fill-rule="nonzero" fill-opacity="1"></path><path clip-path="url(#clip950)" d="M1361.51 1454.1 Q1357.9 1454.1 1356.07 1457.66 Q1354.27 1461.2 1354.27 1468.33 Q1354.27 1475.44 1356.07 1479.01 Q1357.9 1482.55 1361.51 1482.55 Q1365.15 1482.55 1366.95 1479.01 Q1368.78 1475.44 1368.78 1468.33 Q1368.78 1461.2 1366.95 1457.66 Q1365.15 1454.1 1361.51 1454.1 M1361.51 1450.39 Q1367.32 1450.39 1370.38 1455 Q1373.46 1459.58 1373.46 1468.33 Q1373.46 1477.06 1370.38 1481.67 Q1367.32 1486.25 1361.51 1486.25 Q1355.7 1486.25 1352.62 1481.67 Q1349.57 1477.06 1349.57 1468.33 Q1349.57 1459.58 1352.62 1455 Q1355.7 1450.39 1361.51 1450.39 Z" fill="#000000" fill-rule="nonzero" fill-opacity="1"></path><path clip-path="url(#clip950)" d="M1391.67 1454.1 Q1388.06 1454.1 1386.23 1457.66 Q1384.43 1461.2 1384.43 1468.33 Q1384.43 1475.44 1386.23 1479.01 Q1388.06 1482.55 1391.67 1482.55 Q1395.31 1482.55 1397.11 1479.01 Q1398.94 1475.44 1398.94 1468.33 Q1398.94 1461.2 1397.11 1457.66 Q1395.31 1454.1 1391.67 1454.1 M1391.67 1450.39 Q1397.48 1450.39 1400.54 1455 Q1403.62 1459.58 1403.62 1468.33 Q1403.62 1477.06 1400.54 1481.67 Q1397.48 1486.25 1391.67 1486.25 Q1385.86 1486.25 1382.78 1481.67 Q1379.73 1477.06 1379.73 1468.33 Q1379.73 1459.58 1382.78 1455 Q1385.86 1450.39 1391.67 1450.39 Z" fill="#000000" fill-rule="nonzero" fill-opacity="1"></path><path clip-path="url(#clip950)" d="M1637.71 1481.64 L1645.35 1481.64 L1645.35 1455.28 L1637.04 1456.95 L1637.04 1452.69 L1645.3 1451.02 L1649.98 1451.02 L1649.98 1481.64 L1657.62 1481.64 L1657.62 1485.58 L1637.71 1485.58 L1637.71 1481.64 Z" fill="#000000" fill-rule="nonzero" fill-opacity="1"></path><path clip-path="url(#clip950)" d="M1667.11 1451.02 L1685.46 1451.02 L1685.46 1454.96 L1671.39 1454.96 L1671.39 1463.43 Q1672.41 1463.08 1673.43 1462.92 Q1674.45 1462.73 1675.46 1462.73 Q1681.25 1462.73 1684.63 1465.9 Q1688.01 1469.08 1688.01 1474.49 Q1688.01 1480.07 1684.54 1483.17 Q1681.07 1486.25 1674.75 1486.25 Q1672.57 1486.25 1670.3 1485.88 Q1668.06 1485.51 1665.65 1484.77 L1665.65 1480.07 Q1667.73 1481.2 1669.96 1481.76 Q1672.18 1482.32 1674.65 1482.32 Q1678.66 1482.32 1681 1480.21 Q1683.33 1478.1 1683.33 1474.49 Q1683.33 1470.88 1681 1468.77 Q1678.66 1466.67 1674.65 1466.67 Q1672.78 1466.67 1670.9 1467.08 Q1669.05 1467.5 1667.11 1468.38 L1667.11 1451.02 Z" fill="#000000" fill-rule="nonzero" fill-opacity="1"></path><path clip-path="url(#clip950)" d="M1707.22 1454.1 Q1703.61 1454.1 1701.78 1457.66 Q1699.98 1461.2 1699.98 1468.33 Q1699.98 1475.44 1701.78 1479.01 Q1703.61 1482.55 1707.22 1482.55 Q1710.86 1482.55 1712.66 1479.01 Q1714.49 1475.44 1714.49 1468.33 Q1714.49 1461.2 1712.66 1457.66 Q1710.86 1454.1 1707.22 1454.1 M1707.22 1450.39 Q1713.03 1450.39 1716.09 1455 Q1719.17 1459.58 1719.17 1468.33 Q1719.17 1477.06 1716.09 1481.67 Q1713.03 1486.25 1707.22 1486.25 Q1701.41 1486.25 1698.33 1481.67 Q1695.28 1477.06 1695.28 1468.33 Q1695.28 1459.58 1698.33 1455 Q1701.41 1450.39 1707.22 1450.39 Z" fill="#000000" fill-rule="nonzero" fill-opacity="1"></path><path clip-path="url(#clip950)" d="M1957.35 1481.64 L1973.67 1481.64 L1973.67 1485.58 L1951.72 1485.58 L1951.72 1481.64 Q1954.38 1478.89 1958.97 1474.26 Q1963.57 1469.61 1964.75 1468.27 Q1967 1465.74 1967.88 1464.01 Q1968.78 1462.25 1968.78 1460.56 Q1968.78 1457.8 1966.84 1456.07 Q1964.92 1454.33 1961.81 1454.33 Q1959.61 1454.33 1957.16 1455.09 Q1954.73 1455.86 1951.95 1457.41 L1951.95 1452.69 Q1954.78 1451.55 1957.23 1450.97 Q1959.68 1450.39 1961.72 1450.39 Q1967.09 1450.39 1970.29 1453.08 Q1973.48 1455.77 1973.48 1460.26 Q1973.48 1462.39 1972.67 1464.31 Q1971.88 1466.2 1969.78 1468.8 Q1969.2 1469.47 1966.1 1472.69 Q1962.99 1475.88 1957.35 1481.64 Z" fill="#000000" fill-rule="nonzero" fill-opacity="1"></path><path clip-path="url(#clip950)" d="M1993.48 1454.1 Q1989.87 1454.1 1988.04 1457.66 Q1986.23 1461.2 1986.23 1468.33 Q1986.23 1475.44 1988.04 1479.01 Q1989.87 1482.55 1993.48 1482.55 Q1997.11 1482.55 1998.92 1479.01 Q2000.75 1475.44 2000.75 1468.33 Q2000.75 1461.2 1998.92 1457.66 Q1997.11 1454.1 1993.48 1454.1 M1993.48 1450.39 Q1999.29 1450.39 2002.35 1455 Q2005.42 1459.58 2005.42 1468.33 Q2005.42 1477.06 2002.35 1481.67 Q1999.29 1486.25 1993.48 1486.25 Q1987.67 1486.25 1984.59 1481.67 Q1981.54 1477.06 1981.54 1468.33 Q1981.54 1459.58 1984.59 1455 Q1987.67 1450.39 1993.48 1450.39 Z" fill="#000000" fill-rule="nonzero" fill-opacity="1"></path><path clip-path="url(#clip950)" d="M2023.64 1454.1 Q2020.03 1454.1 2018.2 1457.66 Q2016.4 1461.2 2016.4 1468.33 Q2016.4 1475.44 2018.2 1479.01 Q2020.03 1482.55 2023.64 1482.55 Q2027.28 1482.55 2029.08 1479.01 Q2030.91 1475.44 2030.91 1468.33 Q2030.91 1461.2 2029.08 1457.66 Q2027.28 1454.1 2023.64 1454.1 M2023.64 1450.39 Q2029.45 1450.39 2032.51 1455 Q2035.59 1459.58 2035.59 1468.33 Q2035.59 1477.06 2032.51 1481.67 Q2029.45 1486.25 2023.64 1486.25 Q2017.83 1486.25 2014.75 1481.67 Q2011.7 1477.06 2011.7 1468.33 Q2011.7 1459.58 2014.75 1455 Q2017.83 1450.39 2023.64 1450.39 Z" fill="#000000" fill-rule="nonzero" fill-opacity="1"></path><path clip-path="url(#clip950)" d="M2272.9 1481.64 L2289.22 1481.64 L2289.22 1485.58 L2267.27 1485.58 L2267.27 1481.64 Q2269.93 1478.89 2274.52 1474.26 Q2279.12 1469.61 2280.3 1468.27 Q2282.55 1465.74 2283.43 1464.01 Q2284.33 1462.25 2284.33 1460.56 Q2284.33 1457.8 2282.39 1456.07 Q2280.47 1454.33 2277.36 1454.33 Q2275.17 1454.33 2272.71 1455.09 Q2270.28 1455.86 2267.5 1457.41 L2267.5 1452.69 Q2270.33 1451.55 2272.78 1450.97 Q2275.23 1450.39 2277.27 1450.39 Q2282.64 1450.39 2285.84 1453.08 Q2289.03 1455.77 2289.03 1460.26 Q2289.03 1462.39 2288.22 1464.31 Q2287.43 1466.2 2285.33 1468.8 Q2284.75 1469.47 2281.65 1472.69 Q2278.54 1475.88 2272.9 1481.64 Z" fill="#000000" fill-rule="nonzero" fill-opacity="1"></path><path clip-path="url(#clip950)" d="M2299.08 1451.02 L2317.43 1451.02 L2317.43 1454.96 L2303.36 1454.96 L2303.36 1463.43 Q2304.38 1463.08 2305.4 1462.92 Q2306.42 1462.73 2307.43 1462.73 Q2313.22 1462.73 2316.6 1465.9 Q2319.98 1469.08 2319.98 1474.49 Q2319.98 1480.07 2316.51 1483.17 Q2313.04 1486.25 2306.72 1486.25 Q2304.54 1486.25 2302.27 1485.88 Q2300.03 1485.51 2297.62 1484.77 L2297.62 1480.07 Q2299.7 1481.2 2301.92 1481.76 Q2304.15 1482.32 2306.62 1482.32 Q2310.63 1482.32 2312.97 1480.21 Q2315.3 1478.1 2315.3 1474.49 Q2315.3 1470.88 2312.97 1468.77 Q2310.63 1466.67 2306.62 1466.67 Q2304.75 1466.67 2302.87 1467.08 Q2301.02 1467.5 2299.08 1468.38 L2299.08 1451.02 Z" fill="#000000" fill-rule="nonzero" fill-opacity="1"></path><path clip-path="url(#clip950)" d="M2339.19 1454.1 Q2335.58 1454.1 2333.75 1457.66 Q2331.95 1461.2 2331.95 1468.33 Q2331.95 1475.44 2333.75 1479.01 Q2335.58 1482.55 2339.19 1482.55 Q2342.83 1482.55 2344.63 1479.01 Q2346.46 1475.44 2346.46 1468.33 Q2346.46 1461.2 2344.63 1457.66 Q2342.83 1454.1 2339.19 1454.1 M2339.19 1450.39 Q2345 1450.39 2348.06 1455 Q2351.14 1459.58 2351.14 1468.33 Q2351.14 1477.06 2348.06 1481.67 Q2345 1486.25 2339.19 1486.25 Q2333.38 1486.25 2330.3 1481.67 Q2327.25 1477.06 2327.25 1468.33 Q2327.25 1459.58 2330.3 1455 Q2333.38 1450.39 2339.19 1450.39 Z" fill="#000000" fill-rule="nonzero" fill-opacity="1"></path><path clip-path="url(#clip950)" d="M975.537 1550.12 Q968.44 1550.12 965.702 1551.75 Q962.965 1553.37 962.965 1557.29 Q962.965 1560.4 965.002 1562.25 Q967.071 1564.07 970.604 1564.07 Q975.474 1564.07 978.402 1560.63 Q981.362 1557.16 981.362 1551.43 L981.362 1550.12 L975.537 1550.12 M987.218 1547.71 L987.218 1568.04 L981.362 1568.04 L981.362 1562.63 Q979.357 1565.88 976.365 1567.44 Q973.373 1568.97 969.044 1568.97 Q963.57 1568.97 960.323 1565.91 Q957.109 1562.82 957.109 1557.67 Q957.109 1551.65 961.119 1548.6 Q965.161 1545.54 973.15 1545.54 L981.362 1545.54 L981.362 1544.97 Q981.362 1540.93 978.688 1538.73 Q976.047 1536.5 971.24 1536.5 Q968.185 1536.5 965.289 1537.23 Q962.392 1537.97 959.719 1539.43 L959.719 1534.02 Q962.933 1532.78 965.957 1532.17 Q968.981 1531.54 971.845 1531.54 Q979.58 1531.54 983.399 1535.55 Q987.218 1539.56 987.218 1547.71 Z" fill="#000000" fill-rule="nonzero" fill-opacity="1"></path><path clip-path="url(#clip950)" d="M1022.74 1549.81 Q1022.74 1543.44 1020.1 1539.94 Q1017.49 1536.44 1012.74 1536.44 Q1008.03 1536.44 1005.39 1539.94 Q1002.78 1543.44 1002.78 1549.81 Q1002.78 1556.14 1005.39 1559.64 Q1008.03 1563.14 1012.74 1563.14 Q1017.49 1563.14 1020.1 1559.64 Q1022.74 1556.14 1022.74 1549.81 M1028.6 1563.62 Q1028.6 1572.72 1024.55 1577.15 Q1020.51 1581.6 1012.17 1581.6 Q1009.08 1581.6 1006.35 1581.13 Q1003.61 1580.68 1001.03 1579.72 L1001.03 1574.03 Q1003.61 1575.43 1006.12 1576.1 Q1008.64 1576.76 1011.25 1576.76 Q1017.01 1576.76 1019.87 1573.74 Q1022.74 1570.75 1022.74 1564.67 L1022.74 1561.77 Q1020.92 1564.92 1018.09 1566.48 Q1015.26 1568.04 1011.31 1568.04 Q1004.76 1568.04 1000.75 1563.05 Q996.735 1558.05 996.735 1549.81 Q996.735 1541.53 1000.75 1536.53 Q1004.76 1531.54 1011.31 1531.54 Q1015.26 1531.54 1018.09 1533.1 Q1020.92 1534.66 1022.74 1537.81 L1022.74 1532.4 L1028.6 1532.4 L1028.6 1563.62 Z" fill="#000000" fill-rule="nonzero" fill-opacity="1"></path><path clip-path="url(#clip950)" d="M1071.15 1548.76 L1071.15 1551.62 L1044.22 1551.62 Q1044.61 1557.67 1047.85 1560.85 Q1051.13 1564 1056.95 1564 Q1060.33 1564 1063.48 1563.17 Q1066.66 1562.35 1069.78 1560.69 L1069.78 1566.23 Q1066.63 1567.57 1063.32 1568.27 Q1060.01 1568.97 1056.6 1568.97 Q1048.07 1568.97 1043.08 1564 Q1038.11 1559.04 1038.11 1550.57 Q1038.11 1541.82 1042.82 1536.69 Q1047.57 1531.54 1055.59 1531.54 Q1062.78 1531.54 1066.95 1536.18 Q1071.15 1540.8 1071.15 1548.76 M1065.29 1547.04 Q1065.23 1542.23 1062.59 1539.37 Q1059.98 1536.5 1055.65 1536.5 Q1050.75 1536.5 1047.79 1539.27 Q1044.86 1542.04 1044.41 1547.07 L1065.29 1547.04 Z" fill="#000000" fill-rule="nonzero" fill-opacity="1"></path><path clip-path="url(#clip950)" d="M1115.55 1518.58 Q1111.29 1525.9 1109.22 1533.06 Q1107.15 1540.23 1107.15 1547.58 Q1107.15 1554.93 1109.22 1562.16 Q1111.32 1569.35 1115.55 1576.64 L1110.46 1576.64 Q1105.68 1569.16 1103.3 1561.93 Q1100.94 1554.71 1100.94 1547.58 Q1100.94 1540.48 1103.3 1533.29 Q1105.65 1526.09 1110.46 1518.58 L1115.55 1518.58 Z" fill="#000000" fill-rule="nonzero" fill-opacity="1"></path><path clip-path="url(#clip950)" d="M1154.67 1539.24 Q1156.86 1535.29 1159.92 1533.41 Q1162.98 1531.54 1167.11 1531.54 Q1172.68 1531.54 1175.71 1535.45 Q1178.73 1539.33 1178.73 1546.53 L1178.73 1568.04 L1172.84 1568.04 L1172.84 1546.72 Q1172.84 1541.59 1171.03 1539.11 Q1169.21 1536.63 1165.49 1536.63 Q1160.94 1536.63 1158.3 1539.65 Q1155.65 1542.68 1155.65 1547.9 L1155.65 1568.04 L1149.77 1568.04 L1149.77 1546.72 Q1149.77 1541.56 1147.95 1539.11 Q1146.14 1536.63 1142.35 1536.63 Q1137.86 1536.63 1135.22 1539.68 Q1132.58 1542.71 1132.58 1547.9 L1132.58 1568.04 L1126.69 1568.04 L1126.69 1532.4 L1132.58 1532.4 L1132.58 1537.93 Q1134.58 1534.66 1137.39 1533.1 Q1140.19 1531.54 1144.04 1531.54 Q1147.92 1531.54 1150.63 1533.51 Q1153.36 1535.48 1154.67 1539.24 Z" fill="#000000" fill-rule="nonzero" fill-opacity="1"></path><path clip-path="url(#clip950)" d="M1190.41 1532.4 L1196.27 1532.4 L1196.27 1568.04 L1190.41 1568.04 L1190.41 1532.4 M1190.41 1518.52 L1196.27 1518.52 L1196.27 1525.93 L1190.41 1525.93 L1190.41 1518.52 Z" fill="#000000" fill-rule="nonzero" fill-opacity="1"></path><path clip-path="url(#clip950)" d="M1208.52 1518.52 L1214.38 1518.52 L1214.38 1568.04 L1208.52 1568.04 L1208.52 1518.52 Z" fill="#000000" fill-rule="nonzero" fill-opacity="1"></path><path clip-path="url(#clip950)" d="M1226.63 1518.52 L1232.49 1518.52 L1232.49 1568.04 L1226.63 1568.04 L1226.63 1518.52 Z" fill="#000000" fill-rule="nonzero" fill-opacity="1"></path><path clip-path="url(#clip950)" d="M1244.74 1532.4 L1250.6 1532.4 L1250.6 1568.04 L1244.74 1568.04 L1244.74 1532.4 M1244.74 1518.52 L1250.6 1518.52 L1250.6 1525.93 L1244.74 1525.93 L1244.74 1518.52 Z" fill="#000000" fill-rule="nonzero" fill-opacity="1"></path><path clip-path="url(#clip950)" d="M1276.67 1536.5 Q1271.96 1536.5 1269.22 1540.19 Q1266.48 1543.85 1266.48 1550.25 Q1266.48 1556.65 1269.19 1560.34 Q1271.92 1564 1276.67 1564 Q1281.35 1564 1284.08 1560.31 Q1286.82 1556.62 1286.82 1550.25 Q1286.82 1543.92 1284.08 1540.23 Q1281.35 1536.5 1276.67 1536.5 M1276.67 1531.54 Q1284.31 1531.54 1288.67 1536.5 Q1293.03 1541.47 1293.03 1550.25 Q1293.03 1559 1288.67 1564 Q1284.31 1568.97 1276.67 1568.97 Q1269 1568.97 1264.64 1564 Q1260.31 1559 1260.31 1550.25 Q1260.31 1541.47 1264.64 1536.5 Q1269 1531.54 1276.67 1531.54 Z" fill="#000000" fill-rule="nonzero" fill-opacity="1"></path><path clip-path="url(#clip950)" d="M1332.37 1546.53 L1332.37 1568.04 L1326.51 1568.04 L1326.51 1546.72 Q1326.51 1541.66 1324.54 1539.14 Q1322.56 1536.63 1318.62 1536.63 Q1313.87 1536.63 1311.14 1539.65 Q1308.4 1542.68 1308.4 1547.9 L1308.4 1568.04 L1302.51 1568.04 L1302.51 1532.4 L1308.4 1532.4 L1308.4 1537.93 Q1310.5 1534.72 1313.33 1533.13 Q1316.2 1531.54 1319.92 1531.54 Q1326.06 1531.54 1329.22 1535.36 Q1332.37 1539.14 1332.37 1546.53 Z" fill="#000000" fill-rule="nonzero" fill-opacity="1"></path><path clip-path="url(#clip950)" d="M1366.77 1533.45 L1366.77 1538.98 Q1364.29 1537.71 1361.62 1537.07 Q1358.94 1536.44 1356.08 1536.44 Q1351.72 1536.44 1349.52 1537.77 Q1347.36 1539.11 1347.36 1541.79 Q1347.36 1543.82 1348.92 1545 Q1350.48 1546.15 1355.19 1547.2 L1357.19 1547.64 Q1363.43 1548.98 1366.04 1551.43 Q1368.68 1553.85 1368.68 1558.21 Q1368.68 1563.17 1364.74 1566.07 Q1360.82 1568.97 1353.95 1568.97 Q1351.08 1568.97 1347.96 1568.39 Q1344.88 1567.85 1341.44 1566.74 L1341.44 1560.69 Q1344.68 1562.38 1347.84 1563.24 Q1350.99 1564.07 1354.07 1564.07 Q1358.21 1564.07 1360.44 1562.66 Q1362.67 1561.23 1362.67 1558.65 Q1362.67 1556.27 1361.04 1554.99 Q1359.45 1553.72 1354.01 1552.54 L1351.97 1552.07 Q1346.53 1550.92 1344.11 1548.56 Q1341.69 1546.18 1341.69 1542.04 Q1341.69 1537.01 1345.26 1534.27 Q1348.82 1531.54 1355.38 1531.54 Q1358.63 1531.54 1361.49 1532.01 Q1364.35 1532.49 1366.77 1533.45 Z" fill="#000000" fill-rule="nonzero" fill-opacity="1"></path><path clip-path="url(#clip950)" d="M1412.54 1536.5 Q1407.83 1536.5 1405.1 1540.19 Q1402.36 1543.85 1402.36 1550.25 Q1402.36 1556.65 1405.06 1560.34 Q1407.8 1564 1412.54 1564 Q1417.22 1564 1419.96 1560.31 Q1422.7 1556.62 1422.7 1550.25 Q1422.7 1543.92 1419.96 1540.23 Q1417.22 1536.5 1412.54 1536.5 M1412.54 1531.54 Q1420.18 1531.54 1424.54 1536.5 Q1428.9 1541.47 1428.9 1550.25 Q1428.9 1559 1424.54 1564 Q1420.18 1568.97 1412.54 1568.97 Q1404.87 1568.97 1400.51 1564 Q1396.18 1559 1396.18 1550.25 Q1396.18 1541.47 1400.51 1536.5 Q1404.87 1531.54 1412.54 1531.54 Z" fill="#000000" fill-rule="nonzero" fill-opacity="1"></path><path clip-path="url(#clip950)" d="M1456.66 1518.52 L1456.66 1523.39 L1451.06 1523.39 Q1447.9 1523.39 1446.66 1524.66 Q1445.45 1525.93 1445.45 1529.24 L1445.45 1532.4 L1455.1 1532.4 L1455.1 1536.95 L1445.45 1536.95 L1445.45 1568.04 L1439.57 1568.04 L1439.57 1536.95 L1433.96 1536.95 L1433.96 1532.4 L1439.57 1532.4 L1439.57 1529.91 Q1439.57 1523.96 1442.33 1521.26 Q1445.1 1518.52 1451.12 1518.52 L1456.66 1518.52 Z" fill="#000000" fill-rule="nonzero" fill-opacity="1"></path><path clip-path="url(#clip950)" d="M1497.11 1571.35 Q1494.63 1577.72 1492.27 1579.66 Q1489.92 1581.6 1485.97 1581.6 L1481.29 1581.6 L1481.29 1576.7 L1484.73 1576.7 Q1487.15 1576.7 1488.49 1575.56 Q1489.82 1574.41 1491.45 1570.14 L1492.5 1567.47 L1478.08 1532.4 L1484.28 1532.4 L1495.42 1560.28 L1506.56 1532.4 L1512.77 1532.4 L1497.11 1571.35 Z" fill="#000000" fill-rule="nonzero" fill-opacity="1"></path><path clip-path="url(#clip950)" d="M1551.35 1548.76 L1551.35 1551.62 L1524.42 1551.62 Q1524.8 1557.67 1528.05 1560.85 Q1531.33 1564 1537.15 1564 Q1540.53 1564 1543.68 1563.17 Q1546.86 1562.35 1549.98 1560.69 L1549.98 1566.23 Q1546.83 1567.57 1543.52 1568.27 Q1540.21 1568.97 1536.8 1568.97 Q1528.27 1568.97 1523.27 1564 Q1518.31 1559.04 1518.31 1550.57 Q1518.31 1541.82 1523.02 1536.69 Q1527.76 1531.54 1535.78 1531.54 Q1542.98 1531.54 1547.15 1536.18 Q1551.35 1540.8 1551.35 1548.76 M1545.49 1547.04 Q1545.43 1542.23 1542.79 1539.37 Q1540.18 1536.5 1535.85 1536.5 Q1530.95 1536.5 1527.99 1539.27 Q1525.06 1542.04 1524.61 1547.07 L1545.49 1547.04 Z" fill="#000000" fill-rule="nonzero" fill-opacity="1"></path><path clip-path="url(#clip950)" d="M1577.16 1550.12 Q1570.06 1550.12 1567.33 1551.75 Q1564.59 1553.37 1564.59 1557.29 Q1564.59 1560.4 1566.62 1562.25 Q1568.69 1564.07 1572.23 1564.07 Q1577.1 1564.07 1580.02 1560.63 Q1582.98 1557.16 1582.98 1551.43 L1582.98 1550.12 L1577.16 1550.12 M1588.84 1547.71 L1588.84 1568.04 L1582.98 1568.04 L1582.98 1562.63 Q1580.98 1565.88 1577.99 1567.44 Q1575 1568.97 1570.67 1568.97 Q1565.19 1568.97 1561.95 1565.91 Q1558.73 1562.82 1558.73 1557.67 Q1558.73 1551.65 1562.74 1548.6 Q1566.78 1545.54 1574.77 1545.54 L1582.98 1545.54 L1582.98 1544.97 Q1582.98 1540.93 1580.31 1538.73 Q1577.67 1536.5 1572.86 1536.5 Q1569.81 1536.5 1566.91 1537.23 Q1564.02 1537.97 1561.34 1539.43 L1561.34 1534.02 Q1564.56 1532.78 1567.58 1532.17 Q1570.6 1531.54 1573.47 1531.54 Q1581.2 1531.54 1585.02 1535.55 Q1588.84 1539.56 1588.84 1547.71 Z" fill="#000000" fill-rule="nonzero" fill-opacity="1"></path><path clip-path="url(#clip950)" d="M1621.56 1537.87 Q1620.57 1537.3 1619.4 1537.04 Q1618.25 1536.76 1616.85 1536.76 Q1611.89 1536.76 1609.21 1540 Q1606.57 1543.22 1606.57 1549.27 L1606.57 1568.04 L1600.68 1568.04 L1600.68 1532.4 L1606.57 1532.4 L1606.57 1537.93 Q1608.42 1534.69 1611.38 1533.13 Q1614.34 1531.54 1618.57 1531.54 Q1619.17 1531.54 1619.91 1531.63 Q1620.64 1531.7 1621.53 1531.85 L1621.56 1537.87 Z" fill="#000000" fill-rule="nonzero" fill-opacity="1"></path><path clip-path="url(#clip950)" d="M1650.43 1533.45 L1650.43 1538.98 Q1647.95 1537.71 1645.27 1537.07 Q1642.6 1536.44 1639.74 1536.44 Q1635.37 1536.44 1633.18 1537.77 Q1631.01 1539.11 1631.01 1541.79 Q1631.01 1543.82 1632.57 1545 Q1634.13 1546.15 1638.84 1547.2 L1640.85 1547.64 Q1647.09 1548.98 1649.7 1551.43 Q1652.34 1553.85 1652.34 1558.21 Q1652.34 1563.17 1648.39 1566.07 Q1644.48 1568.97 1637.6 1568.97 Q1634.74 1568.97 1631.62 1568.39 Q1628.53 1567.85 1625.09 1566.74 L1625.09 1560.69 Q1628.34 1562.38 1631.49 1563.24 Q1634.64 1564.07 1637.73 1564.07 Q1641.87 1564.07 1644.1 1562.66 Q1646.32 1561.23 1646.32 1558.65 Q1646.32 1556.27 1644.7 1554.99 Q1643.11 1553.72 1637.67 1552.54 L1635.63 1552.07 Q1630.19 1550.92 1627.77 1548.56 Q1625.35 1546.18 1625.35 1542.04 Q1625.35 1537.01 1628.91 1534.27 Q1632.48 1531.54 1639.03 1531.54 Q1642.28 1531.54 1645.15 1532.01 Q1648.01 1532.49 1650.43 1533.45 Z" fill="#000000" fill-rule="nonzero" fill-opacity="1"></path><path clip-path="url(#clip950)" d="M1660.74 1518.58 L1665.83 1518.58 Q1670.61 1526.09 1672.96 1533.29 Q1675.35 1540.48 1675.35 1547.58 Q1675.35 1554.71 1672.96 1561.93 Q1670.61 1569.16 1665.83 1576.64 L1660.74 1576.64 Q1664.98 1569.35 1667.04 1562.16 Q1669.14 1554.93 1669.14 1547.58 Q1669.14 1540.23 1667.04 1533.06 Q1664.98 1525.9 1660.74 1518.58 Z" fill="#000000" fill-rule="nonzero" fill-opacity="1"></path><polyline clip-path="url(#clip952)" style="stroke:#000000; stroke-linecap:round; stroke-linejoin:round; stroke-width:2; stroke-opacity:0.1; fill:none" points="279.704,1384.24 2352.76,1384.24 "></polyline>
<polyline clip-path="url(#clip952)" style="stroke:#000000; stroke-linecap:round; stroke-linejoin:round; stroke-width:2; stroke-opacity:0.1; fill:none" points="279.704,1061.56 2352.76,1061.56 "></polyline>
<polyline clip-path="url(#clip952)" style="stroke:#000000; stroke-linecap:round; stroke-linejoin:round; stroke-width:2; stroke-opacity:0.1; fill:none" points="279.704,738.88 2352.76,738.88 "></polyline>
<polyline clip-path="url(#clip952)" style="stroke:#000000; stroke-linecap:round; stroke-linejoin:round; stroke-width:2; stroke-opacity:0.1; fill:none" points="279.704,416.201 2352.76,416.201 "></polyline>
<polyline clip-path="url(#clip952)" style="stroke:#000000; stroke-linecap:round; stroke-linejoin:round; stroke-width:2; stroke-opacity:0.1; fill:none" points="279.704,93.5223 2352.76,93.5223 "></polyline>
<polyline clip-path="url(#clip950)" style="stroke:#000000; stroke-linecap:round; stroke-linejoin:round; stroke-width:4; stroke-opacity:1; fill:none" points="279.704,1423.18 279.704,47.2441 "></polyline>
<polyline clip-path="url(#clip950)" style="stroke:#000000; stroke-linecap:round; stroke-linejoin:round; stroke-width:4; stroke-opacity:1; fill:none" points="279.704,1384.24 298.602,1384.24 "></polyline>
<polyline clip-path="url(#clip950)" style="stroke:#000000; stroke-linecap:round; stroke-linejoin:round; stroke-width:4; stroke-opacity:1; fill:none" points="279.704,1061.56 298.602,1061.56 "></polyline>
<polyline clip-path="url(#clip950)" style="stroke:#000000; stroke-linecap:round; stroke-linejoin:round; stroke-width:4; stroke-opacity:1; fill:none" points="279.704,738.88 298.602,738.88 "></polyline>
<polyline clip-path="url(#clip950)" style="stroke:#000000; stroke-linecap:round; stroke-linejoin:round; stroke-width:4; stroke-opacity:1; fill:none" points="279.704,416.201 298.602,416.201 "></polyline>
<polyline clip-path="url(#clip950)" style="stroke:#000000; stroke-linecap:round; stroke-linejoin:round; stroke-width:4; stroke-opacity:1; fill:none" points="279.704,93.5223 298.602,93.5223 "></polyline>
<path clip-path="url(#clip950)" d="M126.205 1370.04 Q122.593 1370.04 120.765 1373.6 Q118.959 1377.14 118.959 1384.27 Q118.959 1391.38 120.765 1394.94 Q122.593 1398.49 126.205 1398.49 Q129.839 1398.49 131.644 1394.94 Q133.473 1391.38 133.473 1384.27 Q133.473 1377.14 131.644 1373.6 Q129.839 1370.04 126.205 1370.04 M126.205 1366.33 Q132.015 1366.33 135.07 1370.94 Q138.149 1375.52 138.149 1384.27 Q138.149 1393 135.07 1397.61 Q132.015 1402.19 126.205 1402.19 Q120.394 1402.19 117.316 1397.61 Q114.26 1393 114.26 1384.27 Q114.26 1375.52 117.316 1370.94 Q120.394 1366.33 126.205 1366.33 Z" fill="#000000" fill-rule="nonzero" fill-opacity="1"></path><path clip-path="url(#clip950)" d="M146.366 1395.64 L151.251 1395.64 L151.251 1401.52 L146.366 1401.52 L146.366 1395.64 Z" fill="#000000" fill-rule="nonzero" fill-opacity="1"></path><path clip-path="url(#clip950)" d="M171.436 1370.04 Q167.825 1370.04 165.996 1373.6 Q164.19 1377.14 164.19 1384.27 Q164.19 1391.38 165.996 1394.94 Q167.825 1398.49 171.436 1398.49 Q175.07 1398.49 176.876 1394.94 Q178.704 1391.38 178.704 1384.27 Q178.704 1377.14 176.876 1373.6 Q175.07 1370.04 171.436 1370.04 M171.436 1366.33 Q177.246 1366.33 180.301 1370.94 Q183.38 1375.52 183.38 1384.27 Q183.38 1393 180.301 1397.61 Q177.246 1402.19 171.436 1402.19 Q165.626 1402.19 162.547 1397.61 Q159.491 1393 159.491 1384.27 Q159.491 1375.52 162.547 1370.94 Q165.626 1366.33 171.436 1366.33 Z" fill="#000000" fill-rule="nonzero" fill-opacity="1"></path><path clip-path="url(#clip950)" d="M201.598 1370.04 Q197.987 1370.04 196.158 1373.6 Q194.352 1377.14 194.352 1384.27 Q194.352 1391.38 196.158 1394.94 Q197.987 1398.49 201.598 1398.49 Q205.232 1398.49 207.037 1394.94 Q208.866 1391.38 208.866 1384.27 Q208.866 1377.14 207.037 1373.6 Q205.232 1370.04 201.598 1370.04 M201.598 1366.33 Q207.408 1366.33 210.463 1370.94 Q213.542 1375.52 213.542 1384.27 Q213.542 1393 210.463 1397.61 Q207.408 1402.19 201.598 1402.19 Q195.787 1402.19 192.709 1397.61 Q189.653 1393 189.653 1384.27 Q189.653 1375.52 192.709 1370.94 Q195.787 1366.33 201.598 1366.33 Z" fill="#000000" fill-rule="nonzero" fill-opacity="1"></path><path clip-path="url(#clip950)" d="M231.76 1370.04 Q228.148 1370.04 226.32 1373.6 Q224.514 1377.14 224.514 1384.27 Q224.514 1391.38 226.32 1394.94 Q228.148 1398.49 231.76 1398.49 Q235.394 1398.49 237.199 1394.94 Q239.028 1391.38 239.028 1384.27 Q239.028 1377.14 237.199 1373.6 Q235.394 1370.04 231.76 1370.04 M231.76 1366.33 Q237.57 1366.33 240.625 1370.94 Q243.704 1375.52 243.704 1384.27 Q243.704 1393 240.625 1397.61 Q237.57 1402.19 231.76 1402.19 Q225.949 1402.19 222.871 1397.61 Q219.815 1393 219.815 1384.27 Q219.815 1375.52 222.871 1370.94 Q225.949 1366.33 231.76 1366.33 Z" fill="#000000" fill-rule="nonzero" fill-opacity="1"></path><path clip-path="url(#clip950)" d="M127.2 1047.36 Q123.589 1047.36 121.76 1050.92 Q119.955 1054.46 119.955 1061.59 Q119.955 1068.7 121.76 1072.27 Q123.589 1075.81 127.2 1075.81 Q130.834 1075.81 132.64 1072.27 Q134.468 1068.7 134.468 1061.59 Q134.468 1054.46 132.64 1050.92 Q130.834 1047.36 127.2 1047.36 M127.2 1043.65 Q133.01 1043.65 136.066 1048.26 Q139.144 1052.84 139.144 1061.59 Q139.144 1070.32 136.066 1074.93 Q133.01 1079.51 127.2 1079.51 Q121.39 1079.51 118.311 1074.93 Q115.256 1070.32 115.256 1061.59 Q115.256 1052.84 118.311 1048.26 Q121.39 1043.65 127.2 1043.65 Z" fill="#000000" fill-rule="nonzero" fill-opacity="1"></path><path clip-path="url(#clip950)" d="M147.362 1072.96 L152.246 1072.96 L152.246 1078.84 L147.362 1078.84 L147.362 1072.96 Z" fill="#000000" fill-rule="nonzero" fill-opacity="1"></path><path clip-path="url(#clip950)" d="M172.431 1047.36 Q168.82 1047.36 166.991 1050.92 Q165.186 1054.46 165.186 1061.59 Q165.186 1068.7 166.991 1072.27 Q168.82 1075.81 172.431 1075.81 Q176.065 1075.81 177.871 1072.27 Q179.7 1068.7 179.7 1061.59 Q179.7 1054.46 177.871 1050.92 Q176.065 1047.36 172.431 1047.36 M172.431 1043.65 Q178.241 1043.65 181.297 1048.26 Q184.376 1052.84 184.376 1061.59 Q184.376 1070.32 181.297 1074.93 Q178.241 1079.51 172.431 1079.51 Q166.621 1079.51 163.542 1074.93 Q160.487 1070.32 160.487 1061.59 Q160.487 1052.84 163.542 1048.26 Q166.621 1043.65 172.431 1043.65 Z" fill="#000000" fill-rule="nonzero" fill-opacity="1"></path><path clip-path="url(#clip950)" d="M202.593 1047.36 Q198.982 1047.36 197.153 1050.92 Q195.348 1054.46 195.348 1061.59 Q195.348 1068.7 197.153 1072.27 Q198.982 1075.81 202.593 1075.81 Q206.227 1075.81 208.033 1072.27 Q209.861 1068.7 209.861 1061.59 Q209.861 1054.46 208.033 1050.92 Q206.227 1047.36 202.593 1047.36 M202.593 1043.65 Q208.403 1043.65 211.459 1048.26 Q214.537 1052.84 214.537 1061.59 Q214.537 1070.32 211.459 1074.93 Q208.403 1079.51 202.593 1079.51 Q196.783 1079.51 193.704 1074.93 Q190.649 1070.32 190.649 1061.59 Q190.649 1052.84 193.704 1048.26 Q196.783 1043.65 202.593 1043.65 Z" fill="#000000" fill-rule="nonzero" fill-opacity="1"></path><path clip-path="url(#clip950)" d="M222.801 1044.28 L241.158 1044.28 L241.158 1048.21 L227.084 1048.21 L227.084 1056.69 Q228.102 1056.34 229.121 1056.18 Q230.139 1055.99 231.158 1055.99 Q236.945 1055.99 240.324 1059.16 Q243.704 1062.33 243.704 1067.75 Q243.704 1073.33 240.232 1076.43 Q236.76 1079.51 230.44 1079.51 Q228.264 1079.51 225.996 1079.14 Q223.75 1078.77 221.343 1078.03 L221.343 1073.33 Q223.426 1074.46 225.648 1075.02 Q227.871 1075.58 230.347 1075.58 Q234.352 1075.58 236.69 1073.47 Q239.028 1071.36 239.028 1067.75 Q239.028 1064.14 236.69 1062.03 Q234.352 1059.93 230.347 1059.93 Q228.473 1059.93 226.598 1060.34 Q224.746 1060.76 222.801 1061.64 L222.801 1044.28 Z" fill="#000000" fill-rule="nonzero" fill-opacity="1"></path><path clip-path="url(#clip950)" d="M126.205 724.679 Q122.593 724.679 120.765 728.244 Q118.959 731.785 118.959 738.915 Q118.959 746.021 120.765 749.586 Q122.593 753.128 126.205 753.128 Q129.839 753.128 131.644 749.586 Q133.473 746.021 133.473 738.915 Q133.473 731.785 131.644 728.244 Q129.839 724.679 126.205 724.679 M126.205 720.975 Q132.015 720.975 135.07 725.582 Q138.149 730.165 138.149 738.915 Q138.149 747.642 135.07 752.248 Q132.015 756.832 126.205 756.832 Q120.394 756.832 117.316 752.248 Q114.26 747.642 114.26 738.915 Q114.26 730.165 117.316 725.582 Q120.394 720.975 126.205 720.975 Z" fill="#000000" fill-rule="nonzero" fill-opacity="1"></path><path clip-path="url(#clip950)" d="M146.366 750.281 L151.251 750.281 L151.251 756.16 L146.366 756.16 L146.366 750.281 Z" fill="#000000" fill-rule="nonzero" fill-opacity="1"></path><path clip-path="url(#clip950)" d="M171.436 724.679 Q167.825 724.679 165.996 728.244 Q164.19 731.785 164.19 738.915 Q164.19 746.021 165.996 749.586 Q167.825 753.128 171.436 753.128 Q175.07 753.128 176.876 749.586 Q178.704 746.021 178.704 738.915 Q178.704 731.785 176.876 728.244 Q175.07 724.679 171.436 724.679 M171.436 720.975 Q177.246 720.975 180.301 725.582 Q183.38 730.165 183.38 738.915 Q183.38 747.642 180.301 752.248 Q177.246 756.832 171.436 756.832 Q165.626 756.832 162.547 752.248 Q159.491 747.642 159.491 738.915 Q159.491 730.165 162.547 725.582 Q165.626 720.975 171.436 720.975 Z" fill="#000000" fill-rule="nonzero" fill-opacity="1"></path><path clip-path="url(#clip950)" d="M192.408 752.225 L200.047 752.225 L200.047 725.86 L191.737 727.526 L191.737 723.267 L200 721.6 L204.676 721.6 L204.676 752.225 L212.315 752.225 L212.315 756.16 L192.408 756.16 L192.408 752.225 Z" fill="#000000" fill-rule="nonzero" fill-opacity="1"></path><path clip-path="url(#clip950)" d="M231.76 724.679 Q228.148 724.679 226.32 728.244 Q224.514 731.785 224.514 738.915 Q224.514 746.021 226.32 749.586 Q228.148 753.128 231.76 753.128 Q235.394 753.128 237.199 749.586 Q239.028 746.021 239.028 738.915 Q239.028 731.785 237.199 728.244 Q235.394 724.679 231.76 724.679 M231.76 720.975 Q237.57 720.975 240.625 725.582 Q243.704 730.165 243.704 738.915 Q243.704 747.642 240.625 752.248 Q237.57 756.832 231.76 756.832 Q225.949 756.832 222.871 752.248 Q219.815 747.642 219.815 738.915 Q219.815 730.165 222.871 725.582 Q225.949 720.975 231.76 720.975 Z" fill="#000000" fill-rule="nonzero" fill-opacity="1"></path><path clip-path="url(#clip950)" d="M127.2 402 Q123.589 402 121.76 405.565 Q119.955 409.106 119.955 416.236 Q119.955 423.342 121.76 426.907 Q123.589 430.449 127.2 430.449 Q130.834 430.449 132.64 426.907 Q134.468 423.342 134.468 416.236 Q134.468 409.106 132.64 405.565 Q130.834 402 127.2 402 M127.2 398.296 Q133.01 398.296 136.066 402.903 Q139.144 407.486 139.144 416.236 Q139.144 424.963 136.066 429.569 Q133.01 434.153 127.2 434.153 Q121.39 434.153 118.311 429.569 Q115.256 424.963 115.256 416.236 Q115.256 407.486 118.311 402.903 Q121.39 398.296 127.2 398.296 Z" fill="#000000" fill-rule="nonzero" fill-opacity="1"></path><path clip-path="url(#clip950)" d="M147.362 427.602 L152.246 427.602 L152.246 433.481 L147.362 433.481 L147.362 427.602 Z" fill="#000000" fill-rule="nonzero" fill-opacity="1"></path><path clip-path="url(#clip950)" d="M172.431 402 Q168.82 402 166.991 405.565 Q165.186 409.106 165.186 416.236 Q165.186 423.342 166.991 426.907 Q168.82 430.449 172.431 430.449 Q176.065 430.449 177.871 426.907 Q179.7 423.342 179.7 416.236 Q179.7 409.106 177.871 405.565 Q176.065 402 172.431 402 M172.431 398.296 Q178.241 398.296 181.297 402.903 Q184.376 407.486 184.376 416.236 Q184.376 424.963 181.297 429.569 Q178.241 434.153 172.431 434.153 Q166.621 434.153 163.542 429.569 Q160.487 424.963 160.487 416.236 Q160.487 407.486 163.542 402.903 Q166.621 398.296 172.431 398.296 Z" fill="#000000" fill-rule="nonzero" fill-opacity="1"></path><path clip-path="url(#clip950)" d="M193.403 429.546 L201.042 429.546 L201.042 403.181 L192.732 404.847 L192.732 400.588 L200.996 398.921 L205.672 398.921 L205.672 429.546 L213.311 429.546 L213.311 433.481 L193.403 433.481 L193.403 429.546 Z" fill="#000000" fill-rule="nonzero" fill-opacity="1"></path><path clip-path="url(#clip950)" d="M222.801 398.921 L241.158 398.921 L241.158 402.856 L227.084 402.856 L227.084 411.329 Q228.102 410.981 229.121 410.819 Q230.139 410.634 231.158 410.634 Q236.945 410.634 240.324 413.805 Q243.704 416.977 243.704 422.393 Q243.704 427.972 240.232 431.074 Q236.76 434.153 230.44 434.153 Q228.264 434.153 225.996 433.782 Q223.75 433.412 221.343 432.671 L221.343 427.972 Q223.426 429.106 225.648 429.662 Q227.871 430.217 230.347 430.217 Q234.352 430.217 236.69 428.111 Q239.028 426.004 239.028 422.393 Q239.028 418.782 236.69 416.676 Q234.352 414.569 230.347 414.569 Q228.473 414.569 226.598 414.986 Q224.746 415.403 222.801 416.282 L222.801 398.921 Z" fill="#000000" fill-rule="nonzero" fill-opacity="1"></path><path clip-path="url(#clip950)" d="M126.205 79.321 Q122.593 79.321 120.765 82.8858 Q118.959 86.4274 118.959 93.557 Q118.959 100.663 120.765 104.228 Q122.593 107.77 126.205 107.77 Q129.839 107.77 131.644 104.228 Q133.473 100.663 133.473 93.557 Q133.473 86.4274 131.644 82.8858 Q129.839 79.321 126.205 79.321 M126.205 75.6173 Q132.015 75.6173 135.07 80.2238 Q138.149 84.8071 138.149 93.557 Q138.149 102.284 135.07 106.89 Q132.015 111.474 126.205 111.474 Q120.394 111.474 117.316 106.89 Q114.26 102.284 114.26 93.557 Q114.26 84.8071 117.316 80.2238 Q120.394 75.6173 126.205 75.6173 Z" fill="#000000" fill-rule="nonzero" fill-opacity="1"></path><path clip-path="url(#clip950)" d="M146.366 104.923 L151.251 104.923 L151.251 110.802 L146.366 110.802 L146.366 104.923 Z" fill="#000000" fill-rule="nonzero" fill-opacity="1"></path><path clip-path="url(#clip950)" d="M171.436 79.321 Q167.825 79.321 165.996 82.8858 Q164.19 86.4274 164.19 93.557 Q164.19 100.663 165.996 104.228 Q167.825 107.77 171.436 107.77 Q175.07 107.77 176.876 104.228 Q178.704 100.663 178.704 93.557 Q178.704 86.4274 176.876 82.8858 Q175.07 79.321 171.436 79.321 M171.436 75.6173 Q177.246 75.6173 180.301 80.2238 Q183.38 84.8071 183.38 93.557 Q183.38 102.284 180.301 106.89 Q177.246 111.474 171.436 111.474 Q165.626 111.474 162.547 106.89 Q159.491 102.284 159.491 93.557 Q159.491 84.8071 162.547 80.2238 Q165.626 75.6173 171.436 75.6173 Z" fill="#000000" fill-rule="nonzero" fill-opacity="1"></path><path clip-path="url(#clip950)" d="M195.625 106.867 L211.945 106.867 L211.945 110.802 L190 110.802 L190 106.867 Q192.663 104.113 197.246 99.4829 Q201.852 94.8302 203.033 93.4876 Q205.278 90.9644 206.158 89.2283 Q207.061 87.4691 207.061 85.7793 Q207.061 83.0247 205.116 81.2886 Q203.195 79.5525 200.093 79.5525 Q197.894 79.5525 195.44 80.3163 Q193.01 81.0802 190.232 82.6312 L190.232 77.909 Q193.056 76.7747 195.51 76.196 Q197.963 75.6173 200 75.6173 Q205.371 75.6173 208.565 78.3025 Q211.76 80.9876 211.76 85.4784 Q211.76 87.608 210.949 89.5293 Q210.162 91.4274 208.056 94.02 Q207.477 94.6913 204.375 97.9088 Q201.274 101.103 195.625 106.867 Z" fill="#000000" fill-rule="nonzero" fill-opacity="1"></path><path clip-path="url(#clip950)" d="M231.76 79.321 Q228.148 79.321 226.32 82.8858 Q224.514 86.4274 224.514 93.557 Q224.514 100.663 226.32 104.228 Q228.148 107.77 231.76 107.77 Q235.394 107.77 237.199 104.228 Q239.028 100.663 239.028 93.557 Q239.028 86.4274 237.199 82.8858 Q235.394 79.321 231.76 79.321 M231.76 75.6173 Q237.57 75.6173 240.625 80.2238 Q243.704 84.8071 243.704 93.557 Q243.704 102.284 240.625 106.89 Q237.57 111.474 231.76 111.474 Q225.949 111.474 222.871 106.89 Q219.815 102.284 219.815 93.557 Q219.815 84.8071 222.871 80.2238 Q225.949 75.6173 231.76 75.6173 Z" fill="#000000" fill-rule="nonzero" fill-opacity="1"></path><path clip-path="url(#clip950)" d="M58.657 1029.15 L77.5631 1029.15 L77.5631 1035.04 L28.3562 1035.04 L28.3562 1029.15 L33.7671 1029.15 Q30.5842 1027.3 29.0564 1024.5 Q27.4968 1021.67 27.4968 1017.75 Q27.4968 1011.26 32.6531 1007.22 Q37.8093 1003.14 46.212 1003.14 Q54.6147 1003.14 59.771 1007.22 Q64.9272 1011.26 64.9272 1017.75 Q64.9272 1021.67 63.3994 1024.5 Q61.8398 1027.3 58.657 1029.15 M46.212 1009.22 Q39.7508 1009.22 36.0905 1011.9 Q32.3984 1014.54 32.3984 1019.19 Q32.3984 1023.83 36.0905 1026.51 Q39.7508 1029.15 46.212 1029.15 Q52.6732 1029.15 56.3653 1026.51 Q60.0256 1023.83 60.0256 1019.19 Q60.0256 1014.54 56.3653 1011.9 Q52.6732 1009.22 46.212 1009.22 Z" fill="#000000" fill-rule="nonzero" fill-opacity="1"></path><path clip-path="url(#clip950)" d="M33.8307 972.78 Q33.2578 973.767 33.0032 974.944 Q32.7167 976.09 32.7167 977.491 Q32.7167 982.456 35.9632 985.13 Q39.1779 987.771 45.2253 987.771 L64.0042 987.771 L64.0042 993.66 L28.3562 993.66 L28.3562 987.771 L33.8944 987.771 Q30.6479 985.925 29.0883 982.965 Q27.4968 980.005 27.4968 975.772 Q27.4968 975.167 27.5923 974.435 Q27.656 973.703 27.8151 972.812 L33.8307 972.78 Z" fill="#000000" fill-rule="nonzero" fill-opacity="1"></path><path clip-path="url(#clip950)" d="M32.4621 954.256 Q32.4621 958.967 36.1542 961.704 Q39.8145 964.441 46.212 964.441 Q52.6095 964.441 56.3017 961.736 Q59.9619 958.998 59.9619 954.256 Q59.9619 949.577 56.2698 946.84 Q52.5777 944.103 46.212 944.103 Q39.8781 944.103 36.186 946.84 Q32.4621 949.577 32.4621 954.256 M27.4968 954.256 Q27.4968 946.617 32.4621 942.257 Q37.4273 937.896 46.212 937.896 Q54.9649 937.896 59.9619 942.257 Q64.9272 946.617 64.9272 954.256 Q64.9272 961.927 59.9619 966.287 Q54.9649 970.616 46.212 970.616 Q37.4273 970.616 32.4621 966.287 Q27.4968 961.927 27.4968 954.256 Z" fill="#000000" fill-rule="nonzero" fill-opacity="1"></path><path clip-path="url(#clip950)" d="M46.212 902.598 Q39.7508 902.598 36.0905 905.272 Q32.3984 907.914 32.3984 912.561 Q32.3984 917.208 36.0905 919.881 Q39.7508 922.523 46.212 922.523 Q52.6732 922.523 56.3653 919.881 Q60.0256 917.208 60.0256 912.561 Q60.0256 907.914 56.3653 905.272 Q52.6732 902.598 46.212 902.598 M33.7671 922.523 Q30.5842 920.677 29.0564 917.876 Q27.4968 915.043 27.4968 911.128 Q27.4968 904.635 32.6531 900.593 Q37.8093 896.519 46.212 896.519 Q54.6147 896.519 59.771 900.593 Q64.9272 904.635 64.9272 911.128 Q64.9272 915.043 63.3994 917.876 Q61.8398 920.677 58.657 922.523 L64.0042 922.523 L64.0042 928.411 L14.479 928.411 L14.479 922.523 L33.7671 922.523 Z" fill="#000000" fill-rule="nonzero" fill-opacity="1"></path><path clip-path="url(#clip950)" d="M46.0847 870.611 Q46.0847 877.708 47.7079 880.446 Q49.3312 883.183 53.2461 883.183 Q56.3653 883.183 58.2114 881.146 Q60.0256 879.077 60.0256 875.544 Q60.0256 870.674 56.5881 867.746 Q53.1188 864.786 47.3897 864.786 L46.0847 864.786 L46.0847 870.611 M43.6657 858.929 L64.0042 858.929 L64.0042 864.786 L58.5933 864.786 Q61.8398 866.791 63.3994 869.783 Q64.9272 872.775 64.9272 877.104 Q64.9272 882.578 61.8716 885.825 Q58.7843 889.039 53.6281 889.039 Q47.6125 889.039 44.5569 885.029 Q41.5014 880.987 41.5014 872.998 L41.5014 864.786 L40.9285 864.786 Q36.8862 864.786 34.6901 867.46 Q32.4621 870.101 32.4621 874.907 Q32.4621 877.963 33.1941 880.859 Q33.9262 883.756 35.3903 886.429 L29.9795 886.429 Q28.7381 883.215 28.1334 880.191 Q27.4968 877.167 27.4968 874.303 Q27.4968 866.568 31.5072 862.749 Q35.5176 858.929 43.6657 858.929 Z" fill="#000000" fill-rule="nonzero" fill-opacity="1"></path><path clip-path="url(#clip950)" d="M46.212 821.276 Q39.7508 821.276 36.0905 823.95 Q32.3984 826.592 32.3984 831.239 Q32.3984 835.886 36.0905 838.559 Q39.7508 841.201 46.212 841.201 Q52.6732 841.201 56.3653 838.559 Q60.0256 835.886 60.0256 831.239 Q60.0256 826.592 56.3653 823.95 Q52.6732 821.276 46.212 821.276 M33.7671 841.201 Q30.5842 839.355 29.0564 836.554 Q27.4968 833.721 27.4968 829.806 Q27.4968 823.313 32.6531 819.271 Q37.8093 815.197 46.212 815.197 Q54.6147 815.197 59.771 819.271 Q64.9272 823.313 64.9272 829.806 Q64.9272 833.721 63.3994 836.554 Q61.8398 839.355 58.657 841.201 L64.0042 841.201 L64.0042 847.089 L14.479 847.089 L14.479 841.201 L33.7671 841.201 Z" fill="#000000" fill-rule="nonzero" fill-opacity="1"></path><path clip-path="url(#clip950)" d="M28.3562 805.489 L28.3562 799.633 L64.0042 799.633 L64.0042 805.489 L28.3562 805.489 M14.479 805.489 L14.479 799.633 L21.895 799.633 L21.895 805.489 L14.479 805.489 Z" fill="#000000" fill-rule="nonzero" fill-opacity="1"></path><path clip-path="url(#clip950)" d="M14.479 787.379 L14.479 781.522 L64.0042 781.522 L64.0042 787.379 L14.479 787.379 Z" fill="#000000" fill-rule="nonzero" fill-opacity="1"></path><path clip-path="url(#clip950)" d="M28.3562 769.268 L28.3562 763.412 L64.0042 763.412 L64.0042 769.268 L28.3562 769.268 M14.479 769.268 L14.479 763.412 L21.895 763.412 L21.895 769.268 L14.479 769.268 Z" fill="#000000" fill-rule="nonzero" fill-opacity="1"></path><path clip-path="url(#clip950)" d="M18.2347 745.365 L28.3562 745.365 L28.3562 733.302 L32.9077 733.302 L32.9077 745.365 L52.2594 745.365 Q56.6199 745.365 57.8613 744.188 Q59.1026 742.978 59.1026 739.318 L59.1026 733.302 L64.0042 733.302 L64.0042 739.318 Q64.0042 746.097 61.4897 748.675 Q58.9434 751.254 52.2594 751.254 L32.9077 751.254 L32.9077 755.55 L28.3562 755.55 L28.3562 751.254 L18.2347 751.254 L18.2347 745.365 Z" fill="#000000" fill-rule="nonzero" fill-opacity="1"></path><path clip-path="url(#clip950)" d="M67.3143 710.768 Q73.68 713.25 75.6216 715.606 Q77.5631 717.961 77.5631 721.908 L77.5631 726.586 L72.6615 726.586 L72.6615 723.149 Q72.6615 720.73 71.5157 719.393 Q70.3699 718.056 66.1048 716.433 L63.4312 715.383 L28.3562 729.801 L28.3562 723.595 L56.238 712.455 L28.3562 701.315 L28.3562 695.108 L67.3143 710.768 Z" fill="#000000" fill-rule="nonzero" fill-opacity="1"></path><path clip-path="url(#clip950)" d="M33.7671 642.846 L14.479 642.846 L14.479 636.989 L64.0042 636.989 L64.0042 642.846 L58.657 642.846 Q61.8398 644.692 63.3994 647.524 Q64.9272 650.325 64.9272 654.272 Q64.9272 660.733 59.771 664.807 Q54.6147 668.849 46.212 668.849 Q37.8093 668.849 32.6531 664.807 Q27.4968 660.733 27.4968 654.272 Q27.4968 650.325 29.0564 647.524 Q30.5842 644.692 33.7671 642.846 M46.212 662.802 Q52.6732 662.802 56.3653 660.16 Q60.0256 657.487 60.0256 652.84 Q60.0256 648.193 56.3653 645.519 Q52.6732 642.846 46.212 642.846 Q39.7508 642.846 36.0905 645.519 Q32.3984 648.193 32.3984 652.84 Q32.3984 657.487 36.0905 660.16 Q39.7508 662.802 46.212 662.802 Z" fill="#000000" fill-rule="nonzero" fill-opacity="1"></path><path clip-path="url(#clip950)" d="M44.7161 594.434 L47.5806 594.434 L47.5806 621.361 Q53.6281 620.979 56.8109 617.733 Q59.9619 614.455 59.9619 608.63 Q59.9619 605.256 59.1344 602.105 Q58.3069 598.922 56.6518 595.803 L62.1899 595.803 Q63.5267 598.954 64.227 602.264 Q64.9272 605.574 64.9272 608.98 Q64.9272 617.51 59.9619 622.507 Q54.9967 627.472 46.5303 627.472 Q37.7774 627.472 32.6531 622.762 Q27.4968 618.019 27.4968 609.999 Q27.4968 602.805 32.1438 598.636 Q36.7589 594.434 44.7161 594.434 M42.9973 600.291 Q38.1912 600.354 35.3266 602.996 Q32.4621 605.606 32.4621 609.935 Q32.4621 614.836 35.2312 617.797 Q38.0002 620.725 43.0292 621.17 L42.9973 600.291 Z" fill="#000000" fill-rule="nonzero" fill-opacity="1"></path><path clip-path="url(#clip950)" d="M42.4881 555.19 L64.0042 555.19 L64.0042 561.046 L42.679 561.046 Q37.6183 561.046 35.1038 563.02 Q32.5894 564.993 32.5894 568.94 Q32.5894 573.682 35.6131 576.419 Q38.6368 579.157 43.8567 579.157 L64.0042 579.157 L64.0042 585.045 L28.3562 585.045 L28.3562 579.157 L33.8944 579.157 Q30.6797 577.056 29.0883 574.223 Q27.4968 571.359 27.4968 567.635 Q27.4968 561.492 31.3163 558.341 Q35.1038 555.19 42.4881 555.19 Z" fill="#000000" fill-rule="nonzero" fill-opacity="1"></path><path clip-path="url(#clip950)" d="M29.4065 520.783 L34.9447 520.783 Q33.6716 523.266 33.035 525.939 Q32.3984 528.613 32.3984 531.478 Q32.3984 535.838 33.7352 538.034 Q35.072 540.199 37.7456 540.199 Q39.7826 540.199 40.9603 538.639 Q42.1061 537.079 43.1565 532.369 L43.6021 530.364 Q44.9389 524.125 47.3897 521.515 Q49.8086 518.873 54.1691 518.873 Q59.1344 518.873 62.0308 522.82 Q64.9272 526.735 64.9272 533.61 Q64.9272 536.475 64.3543 539.594 Q63.8132 542.681 62.6992 546.119 L56.6518 546.119 Q58.3387 542.872 59.198 539.721 Q60.0256 536.57 60.0256 533.483 Q60.0256 529.345 58.6251 527.117 Q57.1929 524.889 54.6147 524.889 Q52.2276 524.889 50.9545 526.512 Q49.6813 528.104 48.5037 533.546 L48.0262 535.583 Q46.8804 541.026 44.5251 543.445 Q42.138 545.864 38.0002 545.864 Q32.9713 545.864 30.2341 542.299 Q27.4968 538.734 27.4968 532.178 Q27.4968 528.931 27.9743 526.067 Q28.4517 523.202 29.4065 520.783 Z" fill="#000000" fill-rule="nonzero" fill-opacity="1"></path><path clip-path="url(#clip950)" d="M28.3562 509.548 L28.3562 503.691 L64.0042 503.691 L64.0042 509.548 L28.3562 509.548 M14.479 509.548 L14.479 503.691 L21.895 503.691 L21.895 509.548 L14.479 509.548 Z" fill="#000000" fill-rule="nonzero" fill-opacity="1"></path><path clip-path="url(#clip950)" d="M18.2347 485.644 L28.3562 485.644 L28.3562 473.581 L32.9077 473.581 L32.9077 485.644 L52.2594 485.644 Q56.6199 485.644 57.8613 484.467 Q59.1026 483.257 59.1026 479.597 L59.1026 473.581 L64.0042 473.581 L64.0042 479.597 Q64.0042 486.376 61.4897 488.955 Q58.9434 491.533 52.2594 491.533 L32.9077 491.533 L32.9077 495.83 L28.3562 495.83 L28.3562 491.533 L18.2347 491.533 L18.2347 485.644 Z" fill="#000000" fill-rule="nonzero" fill-opacity="1"></path><path clip-path="url(#clip950)" d="M67.3143 451.047 Q73.68 453.529 75.6216 455.885 Q77.5631 458.24 77.5631 462.187 L77.5631 466.866 L72.6615 466.866 L72.6615 463.428 Q72.6615 461.009 71.5157 459.672 Q70.3699 458.336 66.1048 456.712 L63.4312 455.662 L28.3562 470.08 L28.3562 463.874 L56.238 452.734 L28.3562 441.594 L28.3562 435.387 L67.3143 451.047 Z" fill="#000000" fill-rule="nonzero" fill-opacity="1"></path><polyline clip-path="url(#clip952)" style="stroke:#009af9; stroke-linecap:round; stroke-linejoin:round; stroke-width:4; stroke-opacity:1; fill:none" points="338.375,1384.24 369.418,1384.15 400.461,1383.97 431.504,1383.4 462.547,1381.82 493.59,1377.9 524.633,1369.04 555.676,1350.96 586.719,1317.57 617.762,1261.98 648.805,1178.77 679.848,1067.37 710.891,935.081 741.934,797.871 772.977,677.432 804.02,594.987 835.063,564.215 866.106,586.563 897.149,651.052 928.192,738.444 959.235,827.655 990.278,901.799 1021.32,952.013 1052.36,978.375 1083.41,988.124 1114.45,991.998 1145.49,999.935 1176.54,1017.68 1207.58,1045.51 1238.62,1079.38 1269.67,1113.47 1300.71,1142.79 1331.75,1164.72 1362.79,1179.1 1393.84,1187.48 1424.88,1192 1455.92,1194.65 1486.97,1197.1 1518.01,1200.96 1549.05,1208.06 1580.1,1220.18 1611.14,1238.31 1642.18,1261.89 1673.22,1288.6 1704.27,1315.12 1735.31,1338.33 1766.35,1356.34 1797.4,1368.77 1828.44,1376.43 1859.48,1380.65 1890.53,1382.74 1921.57,1383.67 1952.61,1384.04 1983.65,1384.16 2014.7,1384.24 2045.74,1384.24 2076.78,1384.24 2107.83,1384.24 2138.87,1384.24 2169.91,1384.24 2200.96,1384.24 2232,1384.24 2263.04,1384.24 2294.08,1384.24 "></polyline>
<polyline clip-path="url(#clip952)" style="stroke:#e26f46; stroke-linecap:round; stroke-linejoin:round; stroke-width:4; stroke-opacity:1; fill:none" points="338.375,1384.24 369.418,1384.15 400.461,1383.93 431.504,1383.24 462.547,1381.26 493.59,1376.2 524.633,1364.5 555.676,1340.11 586.719,1294.4 617.762,1217.6 648.805,1102.32 679.848,948.738 710.891,769.095 741.934,588.303 772.977,438.654 804.02,349.676 835.063,337.589 866.106,399.702 897.149,516.478 928.192,659.705 959.235,802.236 990.278,924.86 1021.32,1018.44 1052.36,1082.21 1083.41,1120.5 1114.45,1139.75 1145.49,1146.59 1176.54,1146.81 1207.58,1144.89 1238.62,1143.89 1269.67,1145.64 1300.71,1151.14 1331.75,1160.99 1362.79,1175.47 1393.84,1194.45 1424.88,1217.13 1455.92,1242.02 1486.97,1267.12 1518.01,1290.48 1549.05,1310.73 1580.1,1327.43 1611.14,1340.88 1642.18,1351.78 1673.22,1360.72 1704.27,1368.01 1735.31,1373.74 1766.35,1377.94 1797.4,1380.76 1828.44,1382.48 1859.48,1383.43 1890.53,1383.9 1921.57,1384.11 1952.61,1384.18 1983.65,1384.18 2014.7,1384.24 2045.74,1384.24 2076.78,1384.24 2107.83,1384.24 2138.87,1384.24 2169.91,1384.24 2200.96,1384.24 2232,1384.24 2263.04,1384.24 2294.08,1384.24 "></polyline>
<polyline clip-path="url(#clip952)" style="stroke:#3da44d; stroke-linecap:round; stroke-linejoin:round; stroke-width:4; stroke-opacity:1; fill:none" points="338.375,1384.24 369.418,1384.14 400.461,1383.92 431.504,1383.23 462.547,1381.31 493.59,1376.5 524.633,1365.58 555.676,1343.21 586.719,1301.92 617.762,1233.28 648.805,1130.94 679.848,994.759 710.891,834.437 741.934,670.25 772.977,529.17 804.02,437.161 835.063,410.691 866.106,451.36 897.149,546.011 928.192,671.902 959.235,804.221 990.278,922.706 1021.32,1015.26 1052.36,1078.27 1083.41,1114.53 1114.45,1130.39 1145.49,1133.1 1176.54,1129.06 1207.58,1122.93 1238.62,1117.62 1269.67,1114.65 1300.71,1114.76 1331.75,1118.56 1362.79,1126.89 1393.84,1140.76 1424.88,1160.91 1455.92,1187.09 1486.97,1217.62 1518.01,1249.65 1549.05,1280.04 1580.1,1306.47 1611.14,1327.9 1642.18,1344.48 1673.22,1357 1704.27,1366.3 1735.31,1373.02 1766.35,1377.67 1797.4,1380.67 1828.44,1382.46 1859.48,1383.42 1890.53,1383.9 1921.57,1384.11 1952.61,1384.18 1983.65,1384.18 2014.7,1384.24 2045.74,1384.24 2076.78,1384.24 2107.83,1384.24 2138.87,1384.24 2169.91,1384.24 2200.96,1384.24 2232,1384.24 2263.04,1384.24 2294.08,1384.24 "></polyline>
<polyline clip-path="url(#clip952)" style="stroke:#c271d2; stroke-linecap:round; stroke-linejoin:round; stroke-width:4; stroke-opacity:1; fill:none" points="338.375,1384.24 369.418,1384.07 400.461,1383.7 431.504,1382.62 462.547,1379.81 493.59,1373.14 524.633,1358.75 555.676,1330.53 586.719,1280.27 617.762,1199.13 648.805,1080.62 679.848,924.863 710.891,742.267 741.934,554.624 772.977,391.808 804.02,284.166 835.063,252.985 866.106,302.955 897.149,420.162 928.192,576.765 959.235,740.325 990.278,883.719 1021.32,991.69 1052.36,1062.18 1083.41,1103.15 1114.45,1127.05 1145.49,1145.55 1176.54,1166.03 1207.58,1190.69 1238.62,1217.82 1269.67,1244.22 1300.71,1267.43 1331.75,1286.68 1362.79,1302.68 1393.84,1316.51 1424.88,1328.74 1455.92,1339.08 1486.97,1346.82 1518.01,1351.44 1549.05,1353.02 1580.1,1352.21 1611.14,1349.79 1642.18,1346.36 1673.22,1342.3 1704.27,1338.05 1735.31,1334.46 1766.35,1332.75 1797.4,1334.04 1828.44,1338.78 1859.48,1346.36 1890.53,1355.38 1921.57,1364.21 1952.61,1371.6 1983.65,1377 2014.7,1380.48 2045.74,1382.47 2076.78,1383.48 2107.83,1383.94 2138.87,1384.13 2169.91,1384.19 2200.96,1384.24 2232,1384.24 2263.04,1384.24 2294.08,1384.24 "></polyline>
<polyline clip-path="url(#clip952)" style="stroke:#ac8d18; stroke-linecap:round; stroke-linejoin:round; stroke-width:4; stroke-opacity:1; fill:none" points="338.375,1384.24 369.418,1384.15 400.461,1383.93 431.504,1383.27 462.547,1381.44 493.59,1376.86 524.633,1366.52 555.676,1345.37 586.719,1306.31 617.762,1241.27 648.805,1143.94 679.848,1013.64 710.891,858.86 741.934,698.186 772.977,556.962 804.02,460.1 835.063,423.797 866.106,449.944 897.149,525.903 928.192,629.621 959.235,737.485 990.278,831.407 1021.32,902.614 1052.36,951.551 1083.41,984.975 1114.45,1011.99 1145.49,1040.5 1176.54,1075.01 1207.58,1116.08 1238.62,1161.13 1269.67,1206.11 1300.71,1247.16 1331.75,1281.56 1362.79,1307.89 1393.84,1325.69 1424.88,1334.99 1455.92,1336.3 1486.97,1330.71 1518.01,1320.18 1549.05,1307.35 1580.1,1295.11 1611.14,1285.88 1642.18,1281.16 1673.22,1281.4 1704.27,1286.28 1735.31,1295 1766.35,1306.55 1797.4,1319.79 1828.44,1333.53 1859.48,1346.6 1890.53,1358.04 1921.57,1367.23 1952.61,1373.99 1983.65,1378.53 2014.7,1381.31 2045.74,1382.86 2076.78,1383.65 2107.83,1384.01 2138.87,1384.15 2169.91,1384.2 2200.96,1384.24 2232,1384.24 2263.04,1384.24 2294.08,1384.24 "></polyline>
<polyline clip-path="url(#clip952)" style="stroke:#00a9ad; stroke-linecap:round; stroke-linejoin:round; stroke-width:4; stroke-opacity:1; fill:none" points="338.375,1384.24 369.418,1384.09 400.461,1383.75 431.504,1382.76 462.547,1380.12 493.59,1373.76 524.633,1359.93 555.676,1332.69 586.719,1284.18 617.762,1206.3 648.805,1093.9 679.848,948.799 710.891,782.786 741.934,617.308 772.977,478.889 804.02,391.396 835.063,368.332 866.106,408.572 897.149,497.353 928.192,611.826 959.235,728.582 990.278,830.181 1021.32,908.591 1052.36,964.917 1083.41,1006.27 1114.45,1041.45 1145.49,1077.32 1176.54,1116.92 1207.58,1159.52 1238.62,1201.93 1269.67,1240.24 1300.71,1271.22 1331.75,1293.16 1362.79,1306.11 1393.84,1311.52 1424.88,1311.59 1455.92,1308.51 1486.97,1304.1 1518.01,1299.91 1549.05,1297.5 1580.1,1298.45 1611.14,1303.9 1642.18,1313.94 1673.22,1327.34 1704.27,1341.96 1735.31,1355.54 1766.35,1366.49 1797.4,1374.27 1828.44,1379.15 1859.48,1381.88 1890.53,1383.25 1921.57,1383.86 1952.61,1384.1 1983.65,1384.17 2014.7,1384.24 2045.74,1384.24 2076.78,1384.24 2107.83,1384.24 2138.87,1384.24 2169.91,1384.24 2200.96,1384.24 2232,1384.24 2263.04,1384.24 2294.08,1384.24 "></polyline>
<polyline clip-path="url(#clip952)" style="stroke:#ed5d92; stroke-linecap:round; stroke-linejoin:round; stroke-width:4; stroke-opacity:1; fill:none" points="338.375,1384.24 369.418,1384.03 400.461,1383.57 431.504,1382.21 462.547,1378.62 493.59,1370.02 524.633,1351.34 555.676,1314.59 586.719,1249.2 617.762,1144.28 648.805,993.041 679.848,798.512 710.891,577.9 741.934,362.4 772.977,190.671 804.02,97.4211 835.063,101.679 866.106,200.173 897.149,368.906 928.192,571.903 959.235,772.806 990.278,944.41 1021.32,1073.12 1052.36,1158.23 1083.41,1207.86 1114.45,1233.96 1145.49,1248.01 1176.54,1258.29 1207.58,1268.87 1238.62,1280.17 1269.67,1290.69 1300.71,1298.89 1331.75,1304.52 1362.79,1308.77 1393.84,1313.58 1424.88,1320.54 1455.92,1330.1 1486.97,1341.46 1518.01,1353.09 1549.05,1363.45 1580.1,1371.57 1611.14,1377.2 1642.18,1380.68 1673.22,1382.6 1704.27,1383.56 1735.31,1383.98 1766.35,1384.14 1797.4,1384.18 1828.44,1384.24 1859.48,1384.24 1890.53,1384.24 1921.57,1384.24 1952.61,1384.24 1983.65,1384.24 2014.7,1384.24 2045.74,1384.24 2076.78,1384.24 2107.83,1384.24 2138.87,1384.24 2169.91,1384.24 2200.96,1384.24 2232,1384.24 2263.04,1384.24 2294.08,1384.24 "></polyline>
<polyline clip-path="url(#clip952)" style="stroke:#c68125; stroke-linecap:round; stroke-linejoin:round; stroke-width:4; stroke-opacity:1; fill:none" points="338.375,1384.24 369.418,1384.03 400.461,1383.56 431.504,1382.2 462.547,1378.68 493.59,1370.39 524.633,1352.73 555.676,1318.69 586.719,1259.35 617.762,1165.91 648.805,1033.4 679.848,864.855 710.891,674.115 741.934,485.062 772.977,326.648 804.02,225.125 835.063,196.5 866.106,242.278 897.149,349.935 928.192,497.482 959.235,659.936 990.278,815.247 1021.32,948.071 1052.36,1050.99 1083.41,1123.78 1114.45,1171.42 1145.49,1201.66 1176.54,1222.43 1207.58,1239.82 1238.62,1257.06 1269.67,1274.68 1300.71,1291.69 1331.75,1306.87 1362.79,1319.68 1393.84,1330.38 1424.88,1339.72 1455.92,1348.34 1486.97,1356.5 1518.01,1364.01 1549.05,1370.49 1580.1,1375.6 1611.14,1379.26 1642.18,1381.61 1673.22,1382.97 1704.27,1383.68 1735.31,1384.02 1766.35,1384.15 1797.4,1384.2 1828.44,1384.24 1859.48,1384.24 1890.53,1384.24 1921.57,1384.24 1952.61,1384.24 1983.65,1384.24 2014.7,1384.24 2045.74,1384.24 2076.78,1384.24 2107.83,1384.24 2138.87,1384.24 2169.91,1384.24 2200.96,1384.24 2232,1384.24 2263.04,1384.24 2294.08,1384.24 "></polyline>
<polyline clip-path="url(#clip952)" style="stroke:#00a98d; stroke-linecap:round; stroke-linejoin:round; stroke-width:4; stroke-opacity:1; fill:none" points="338.375,1384.24 369.418,1384.16 400.461,1383.98 431.504,1383.41 462.547,1381.84 493.59,1377.89 524.633,1368.91 555.676,1350.41 586.719,1315.9 617.762,1257.75 648.805,1169.42 679.848,1048.97 710.891,902.549 741.934,745.867 772.977,602.029 804.02,495.502 835.063,444.358 866.106,454.147 897.149,516.271 928.192,611.561 959.235,717.241 990.278,814.117 1021.32,891.216 1052.36,946.694 1083.41,985.516 1114.45,1015.51 1145.49,1043.59 1176.54,1073.45 1207.58,1105.22 1238.62,1136.78 1269.67,1165.56 1300.71,1190.02 1331.75,1210.11 1362.79,1226.89 1393.84,1241.75 1424.88,1255.7 1455.92,1269.01 1486.97,1281.35 1518.01,1292.26 1549.05,1301.6 1580.1,1309.75 1611.14,1317.37 1642.18,1324.88 1673.22,1332.19 1704.27,1338.86 1735.31,1344.52 1766.35,1349.26 1797.4,1353.6 1828.44,1358.12 1859.48,1363.06 1890.53,1368.21 1921.57,1373.05 1952.61,1377.09 1983.65,1380.08 2014.7,1382.04 2045.74,1383.18 2076.78,1383.78 2107.83,1384.06 2138.87,1384.17 2169.91,1384.2 2200.96,1384.24 2232,1384.24 2263.04,1384.24 2294.08,1384.24 "></polyline>
<polyline clip-path="url(#clip952)" style="stroke:#8e971d; stroke-linecap:round; stroke-linejoin:round; stroke-width:4; stroke-opacity:1; fill:none" points="338.375,1384.24 369.418,1384.12 400.461,1383.85 431.504,1383.01 462.547,1380.72 493.59,1375.03 524.633,1362.27 555.676,1336.46 586.719,1289.38 617.762,1212.2 648.805,1098.88 679.848,950.748 710.891,780.107 741.934,610.198 772.977,470.099 804.02,385.813 835.063,371.352 866.106,424.067 897.149,526.235 928.192,651.71 959.235,774.273 990.278,874.361 1021.32,942.463 1052.36,979.187 1083.41,992.927 1114.45,996.209 1145.49,1001.63 1176.54,1018.27 1207.58,1049.54 1238.62,1093.05 1269.67,1142.5 1300.71,1190.62 1331.75,1232 1362.79,1264.45 1393.84,1288.81 1424.88,1307.56 1455.92,1323.23 1486.97,1337.31 1518.01,1350.09 1549.05,1361.09 1580.1,1369.77 1611.14,1375.96 1642.18,1379.91 1673.22,1382.18 1704.27,1383.35 1735.31,1383.89 1766.35,1384.11 1797.4,1384.18 1828.44,1384.24 1859.48,1384.24 1890.53,1384.24 1921.57,1384.24 1952.61,1384.24 1983.65,1384.24 2014.7,1384.24 2045.74,1384.24 2076.78,1384.24 2107.83,1384.24 2138.87,1384.24 2169.91,1384.24 2200.96,1384.24 2232,1384.24 2263.04,1384.24 2294.08,1384.24 "></polyline>
<polyline clip-path="url(#clip952)" style="stroke:#00a8cb; stroke-linecap:round; stroke-linejoin:round; stroke-width:4; stroke-opacity:1; fill:none" points="338.375,1384.24 369.418,1384.12 400.461,1383.87 431.504,1383.11 462.547,1381.12 493.59,1376.35 524.633,1365.94 555.676,1345.3 586.719,1308.11 617.762,1247.28 648.805,1157.16 679.848,1036.74 710.891,892.727 741.934,740.802 772.977,603.545 804.02,504.891 835.063,462.685 866.106,482.424 897.149,555.155 928.192,660.72 959.235,774.917 990.278,877.273 1021.32,956.125 1052.36,1009.47 1083.41,1042.29 1114.45,1062.42 1145.49,1077.04 1176.54,1090.87 1207.58,1106.1 1238.62,1123.39 1269.67,1142.94 1300.71,1165.08 1331.75,1189.97 1362.79,1217.03 1393.84,1244.5 1424.88,1269.62 1455.92,1289.51 1486.97,1302.26 1518.01,1307.7 1549.05,1307.54 1580.1,1304.63 1611.14,1301.75 1642.18,1300.45 1673.22,1300.69 1704.27,1301.44 1735.31,1301.88 1766.35,1302.27 1797.4,1304.02 1828.44,1308.78 1859.48,1317.4 1890.53,1329.29 1921.57,1342.68 1952.61,1355.47 1983.65,1366.08 2014.7,1373.79 2045.74,1378.77 2076.78,1381.64 2107.83,1383.11 2138.87,1383.79 2169.91,1384.08 2200.96,1384.18 2232,1384.2 2263.04,1384.24 2294.08,1384.24 "></polyline>
<polyline clip-path="url(#clip952)" style="stroke:#9b7fe8; stroke-linecap:round; stroke-linejoin:round; stroke-width:4; stroke-opacity:1; fill:none" points="338.375,1384.24 369.418,1384.24 400.461,1384.07 431.504,1383.69 462.547,1382.6 493.59,1379.79 524.633,1373.26 555.676,1359.58 586.719,1333.72 617.762,1289.69 648.805,1222.36 679.848,1130.13 710.891,1017.68 741.934,897.017 772.977,785.546 804.02,701.361 835.063,657.259 866.106,656.204 897.149,690.323 928.192,743.93 959.235,799.16 990.278,841.83 1021.32,865.408 1052.36,872.099 1083.41,871.158 1114.45,875.179 1145.49,895.479 1176.54,937.976 1207.58,1001.07 1238.62,1076.46 1269.67,1152.39 1300.71,1217.94 1331.75,1266.07 1362.79,1294.66 1393.84,1305.49 1424.88,1302.38 1455.92,1289.6 1486.97,1271.19 1518.01,1250.96 1549.05,1232.68 1580.1,1219.76 1611.14,1214.57 1642.18,1217.6 1673.22,1227.37 1704.27,1241.08 1735.31,1255.9 1766.35,1270.01 1797.4,1282.94 1828.44,1295.25 1859.48,1307.73 1890.53,1320.73 1921.57,1333.98 1952.61,1346.69 1983.65,1357.96 2014.7,1367.11 2045.74,1373.89 2076.78,1378.47 2107.83,1381.28 2138.87,1382.85 2169.91,1383.64 2200.96,1384 2232,1384.15 2263.04,1384.19 2294.08,1384.15 "></polyline>
<polyline clip-path="url(#clip952)" style="stroke:#608cf6; stroke-linecap:round; stroke-linejoin:round; stroke-width:4; stroke-opacity:1; fill:none" points="338.375,1384.24 369.418,1384.1 400.461,1383.77 431.504,1382.81 462.547,1380.22 493.59,1373.96 524.633,1360.23 555.676,1333.02 586.719,1284.36 617.762,1206 648.805,1092.77 679.848,946.824 710.891,780.758 741.934,617.246 772.977,484.136 804.02,406.221 835.063,397.034 866.106,454.284 897.149,560.868 928.192,690.78 959.235,817.281 990.278,920.185 1021.32,989.93 1052.36,1027.73 1083.41,1042.62 1114.45,1047.06 1145.49,1052.79 1176.54,1067.85 1207.58,1095.17 1238.62,1132.75 1269.67,1175.06 1300.71,1215.4 1331.75,1248.24 1362.79,1270.87 1393.84,1283.68 1424.88,1289.37 1455.92,1291.35 1486.97,1292.59 1518.01,1294.89 1549.05,1299.08 1580.1,1305.3 1611.14,1313.23 1642.18,1322.16 1673.22,1331.07 1704.27,1338.92 1735.31,1345.14 1766.35,1349.9 1797.4,1353.9 1828.44,1357.96 1859.48,1362.51 1890.53,1367.45 1921.57,1372.29 1952.61,1376.45 1983.65,1379.62 2014.7,1381.75 2045.74,1383.02 2076.78,1383.7 2107.83,1384.02 2138.87,1384.16 2169.91,1384.2 2200.96,1384.24 2232,1384.24 2263.04,1384.24 2294.08,1384.24 "></polyline>
<polyline clip-path="url(#clip952)" style="stroke:#f05f73; stroke-linecap:round; stroke-linejoin:round; stroke-width:4; stroke-opacity:1; fill:none" points="338.375,1384.24 369.418,1384.14 400.461,1383.9 431.504,1383.18 462.547,1381.18 493.59,1376.17 524.633,1364.89 555.676,1341.91 586.719,1299.74 617.762,1230.16 648.805,1127.22 679.848,991.341 710.891,832.735 741.934,671.696 772.977,534.51 804.02,445.867 835.063,420.891 866.106,460.436 897.149,551.606 928.192,672.824 959.235,800.816 990.278,916.568 1021.32,1008.48 1052.36,1072.6 1083.41,1110.94 1114.45,1129.1 1145.49,1134.18 1176.54,1133.08 1207.58,1131.55 1238.62,1133.55 1269.67,1141.18 1300.71,1154.89 1331.75,1173.92 1362.79,1196.67 1393.84,1221.08 1424.88,1244.89 1455.92,1265.92 1486.97,1282.34 1518.01,1293.03 1549.05,1297.87 1580.1,1297.87 1611.14,1295 1642.18,1291.72 1673.22,1290.3 1704.27,1292.32 1735.31,1298.39 1766.35,1308.12 1797.4,1320.39 1828.44,1333.75 1859.48,1346.73 1890.53,1358.15 1921.57,1367.33 1952.61,1374.07 1983.65,1378.59 2014.7,1381.35 2045.74,1382.88 2076.78,1383.65 2107.83,1384.01 2138.87,1384.15 2169.91,1384.19 2200.96,1384.24 2232,1384.24 2263.04,1384.24 2294.08,1384.24 "></polyline>
<polyline clip-path="url(#clip952)" style="stroke:#dd64b5; stroke-linecap:round; stroke-linejoin:round; stroke-width:4; stroke-opacity:1; fill:none" points="338.375,1384.24 369.418,1384.13 400.461,1383.88 431.504,1383.11 462.547,1380.97 493.59,1375.56 524.633,1363.21 555.676,1337.6 586.719,1289.55 617.762,1208.09 648.805,1083.59 679.848,912.93 710.891,704.864 741.934,482.695 772.977,281.557 804.02,139.648 835.063,86.1857 866.106,131.226 897.149,262.134 928.192,448.346 959.235,651.98 990.278,839.38 1021.32,989.074 1052.36,1094.1 1083.41,1159.46 1114.45,1196.88 1145.49,1219.37 1176.54,1237.03 1207.58,1255.14 1238.62,1274.32 1269.67,1292.49 1300.71,1307.19 1331.75,1317.4 1362.79,1324.04 1393.84,1329.24 1424.88,1335.07 1455.92,1342.55 1486.97,1351.39 1518.01,1360.46 1549.05,1368.52 1580.1,1374.78 1611.14,1379.06 1642.18,1381.67 1673.22,1383.08 1704.27,1383.76 1735.31,1384.06 1766.35,1384.17 1797.4,1384.2 1828.44,1384.24 1859.48,1384.24 1890.53,1384.24 1921.57,1384.24 1952.61,1384.24 1983.65,1384.24 2014.7,1384.24 2045.74,1384.24 2076.78,1384.24 2107.83,1384.24 2138.87,1384.24 2169.91,1384.24 2200.96,1384.24 2232,1384.24 2263.04,1384.24 2294.08,1384.24 "></polyline>
<polyline clip-path="url(#clip952)" style="stroke:#6b9e32; stroke-linecap:round; stroke-linejoin:round; stroke-width:4; stroke-opacity:1; fill:none" points="338.375,1384.24 369.418,1384.07 400.461,1383.7 431.504,1382.62 462.547,1379.83 493.59,1373.29 524.633,1359.35 555.676,1332.44 586.719,1285.42 617.762,1211.07 648.805,1104.93 679.848,968.7 710.891,812.694 741.934,655.833 772.977,522.158 804.02,434.575 835.063,407.85 866.106,443.568 897.149,529.224 928.192,642.097 959.235,756.557 990.278,851.973 1021.32,918.151 1052.36,956.463 1083.41,976.788 1114.45,992.106 1145.49,1013.23 1176.54,1045.64 1207.58,1089.12 1238.62,1139.53 1269.67,1191.3 1300.71,1239.36 1331.75,1280.1 1362.79,1311.27 1393.84,1331.76 1424.88,1341.34 1455.92,1340.76 1486.97,1332.02 1518.01,1318.51 1549.05,1304.66 1580.1,1295.04 1611.14,1292.98 1642.18,1299.42 1673.22,1312.74 1704.27,1329.62 1735.31,1346.42 1766.35,1360.51 1797.4,1370.75 1828.44,1377.29 1859.48,1381 1890.53,1382.87 1921.57,1383.71 1952.61,1384.05 1983.65,1384.16 2014.7,1384.24 2045.74,1384.24 2076.78,1384.24 2107.83,1384.24 2138.87,1384.24 2169.91,1384.24 2200.96,1384.24 2232,1384.24 2263.04,1384.24 2294.08,1384.24 "></polyline>
<polyline clip-path="url(#clip952)" style="stroke:#009af9; stroke-linecap:round; stroke-linejoin:round; stroke-width:4; stroke-opacity:1; fill:none" points="338.375,1384.24 369.418,1384.15 400.461,1383.94 431.504,1383.3 462.547,1381.53 493.59,1377.11 524.633,1367.15 555.676,1346.79 586.719,1309.14 617.762,1246.29 648.805,1151.76 679.848,1024.27 710.891,871.268 741.934,710.336 772.977,566.526 804.02,465.709 835.063,426.011 866.106,450.982 897.149,527.781 928.192,631.504 959.235,733.947 990.278,813.124 1021.32,859.72 1052.36,878.259 1083.41,883.121 1114.45,891.521 1145.49,916.517 1176.54,962.764 1207.58,1026.27 1238.62,1097.57 1269.67,1166.2 1300.71,1224.4 1331.75,1268.52 1362.79,1298.63 1393.84,1316.97 1424.88,1326.67 1455.92,1330.94 1486.97,1332.75 1518.01,1334.54 1549.05,1337.94 1580.1,1343.54 1611.14,1350.93 1642.18,1359.06 1673.22,1366.74 1704.27,1373.09 1735.31,1377.74 1766.35,1380.78 1797.4,1382.56 1828.44,1383.5 1859.48,1383.94 1890.53,1384.13 1921.57,1384.19 1952.61,1384.19 1983.65,1384.24 2014.7,1384.24 2045.74,1384.24 2076.78,1384.24 2107.83,1384.24 2138.87,1384.24 2169.91,1384.24 2200.96,1384.24 2232,1384.24 2263.04,1384.24 2294.08,1384.24 "></polyline>
<polyline clip-path="url(#clip952)" style="stroke:#e26f46; stroke-linecap:round; stroke-linejoin:round; stroke-width:4; stroke-opacity:1; fill:none" points="338.375,1384.24 369.418,1384.16 400.461,1383.96 431.504,1383.37 462.547,1381.72 493.59,1377.56 524.633,1368.09 555.676,1348.53 586.719,1312.09 617.762,1250.91 648.805,1158.7 679.848,1034.59 710.891,886.769 741.934,733.372 772.977,599.053 804.02,507.527 835.063,473.166 866.106,495.716 897.149,560.794 928.192,645.802 959.235,728.243 990.278,792.739 1021.32,834.327 1052.36,857.61 1083.41,872.958 1114.45,891.637 1145.49,921.667 1176.54,965.596 1207.58,1020.58 1238.62,1080.35 1269.67,1137.97 1300.71,1188.34 1331.75,1229.27 1362.79,1261.23 1393.84,1286.09 1424.88,1305.73 1455.92,1321.3 1486.97,1333.25 1518.01,1341.89 1549.05,1347.85 1580.1,1352.2 1611.14,1356.1 1642.18,1360.35 1673.22,1365.14 1704.27,1370.09 1735.31,1374.63 1766.35,1378.29 1797.4,1380.89 1828.44,1382.52 1859.48,1383.44 1890.53,1383.9 1921.57,1384.11 1952.61,1384.19 1983.65,1384.21 2014.7,1384.24 2045.74,1384.24 2076.78,1384.24 2107.83,1384.24 2138.87,1384.24 2169.91,1384.24 2200.96,1384.24 2232,1384.24 2263.04,1384.24 2294.08,1384.24 "></polyline>
<polyline clip-path="url(#clip952)" style="stroke:#3da44d; stroke-linecap:round; stroke-linejoin:round; stroke-width:4; stroke-opacity:1; fill:none" points="338.375,1384.18 369.418,1384.06 400.461,1383.67 431.504,1382.56 462.547,1379.67 493.59,1372.86 524.633,1358.36 555.676,1330.3 586.719,1281.12 617.762,1203.06 648.805,1091.12 679.848,946.608 710.891,779.755 741.934,609.801 772.977,461.581 804.02,359.425 835.063,320.392 866.106,349.323 897.149,437.489 928.192,565.269 959.235,707.881 990.278,842.13 1021.32,951.897 1052.36,1030.71 1083.41,1080.97 1114.45,1110.73 1145.49,1129.51 1176.54,1144.89 1207.58,1160.87 1238.62,1178.16 1269.67,1195.76 1300.71,1212.66 1331.75,1228.78 1362.79,1244.93 1393.84,1261.98 1424.88,1280.14 1455.92,1298.59 1486.97,1315.78 1518.01,1330.12 1549.05,1340.74 1580.1,1347.83 1611.14,1352.53 1642.18,1356.26 1673.22,1360.17 1704.27,1364.65 1735.31,1369.45 1766.35,1374.01 1797.4,1377.79 1828.44,1380.54 1859.48,1382.32 1890.53,1383.33 1921.57,1383.85 1952.61,1384.09 1983.65,1384.18 2014.7,1384.2 2045.74,1384.24 2076.78,1384.24 2107.83,1384.24 2138.87,1384.24 2169.91,1384.24 2200.96,1384.24 2232,1384.24 2263.04,1384.24 2294.08,1384.24 "></polyline>
<polyline clip-path="url(#clip952)" style="stroke:#c271d2; stroke-linecap:round; stroke-linejoin:round; stroke-width:4; stroke-opacity:1; fill:none" points="338.375,1384.24 369.418,1384.14 400.461,1383.9 431.504,1383.21 462.547,1381.36 493.59,1376.85 524.633,1366.81 555.676,1346.49 586.719,1309.08 617.762,1246.57 648.805,1152.03 679.848,1023.32 710.891,866.934 741.934,699.959 772.977,548.091 804.02,439.114 835.063,393.804 866.106,418.21 897.149,501.165 928.192,618.485 959.235,741.838 990.278,848.1 1021.32,925.267 1052.36,973.253 1083.41,1000.45 1114.45,1018.38 1145.49,1036.85 1176.54,1061.14 1207.58,1091.61 1238.62,1125.29 1269.67,1158.2 1300.71,1187.38 1331.75,1211.82 1362.79,1232.27 1393.84,1250.25 1424.88,1266.98 1455.92,1282.64 1486.97,1296.53 1518.01,1307.71 1549.05,1315.94 1580.1,1321.99 1611.14,1327.43 1642.18,1333.75 1673.22,1341.63 1704.27,1350.71 1735.31,1359.91 1766.35,1368.08 1797.4,1374.44 1828.44,1378.83 1859.48,1381.52 1890.53,1383 1921.57,1383.72 1952.61,1384.04 1983.65,1384.17 2014.7,1384.21 2045.74,1384.24 2076.78,1384.24 2107.83,1384.24 2138.87,1384.24 2169.91,1384.24 2200.96,1384.24 2232,1384.24 2263.04,1384.24 2294.08,1384.24 "></polyline>
<path clip-path="url(#clip950)" d="M2022.65 1181.75 L2283.65 1181.75 L2283.65 93.1086 L2022.65 93.1086  Z" fill="#ffffff" fill-rule="evenodd" fill-opacity="1"></path>
<polyline clip-path="url(#clip950)" style="stroke:#000000; stroke-linecap:round; stroke-linejoin:round; stroke-width:4; stroke-opacity:1; fill:none" points="2022.65,1181.75 2283.65,1181.75 2283.65,93.1086 2022.65,93.1086 2022.65,1181.75 "></polyline>
<polyline clip-path="url(#clip950)" style="stroke:#009af9; stroke-linecap:round; stroke-linejoin:round; stroke-width:4; stroke-opacity:1; fill:none" points="2045.68,144.949 2183.88,144.949 "></polyline>
<path clip-path="url(#clip950)" d="M2207.59 158.293 L2215.23 158.293 L2215.23 131.928 L2206.92 133.595 L2206.92 129.335 L2215.18 127.669 L2219.86 127.669 L2219.86 158.293 L2227.5 158.293 L2227.5 162.229 L2207.59 162.229 L2207.59 158.293 Z" fill="#000000" fill-rule="nonzero" fill-opacity="1"></path><polyline clip-path="url(#clip950)" style="stroke:#e26f46; stroke-linecap:round; stroke-linejoin:round; stroke-width:4; stroke-opacity:1; fill:none" points="2045.68,196.789 2183.88,196.789 "></polyline>
<path clip-path="url(#clip950)" d="M2212.54 210.133 L2228.86 210.133 L2228.86 214.069 L2206.92 214.069 L2206.92 210.133 Q2209.58 207.379 2214.16 202.749 Q2218.77 198.096 2219.95 196.754 Q2222.19 194.231 2223.07 192.495 Q2223.98 190.735 2223.98 189.046 Q2223.98 186.291 2222.03 184.555 Q2220.11 182.819 2217.01 182.819 Q2214.81 182.819 2212.36 183.583 Q2209.93 184.347 2207.15 185.897 L2207.15 181.175 Q2209.97 180.041 2212.43 179.462 Q2214.88 178.884 2216.92 178.884 Q2222.29 178.884 2225.48 181.569 Q2228.68 184.254 2228.68 188.745 Q2228.68 190.874 2227.87 192.796 Q2227.08 194.694 2224.97 197.286 Q2224.39 197.958 2221.29 201.175 Q2218.19 204.37 2212.54 210.133 Z" fill="#000000" fill-rule="nonzero" fill-opacity="1"></path><polyline clip-path="url(#clip950)" style="stroke:#3da44d; stroke-linecap:round; stroke-linejoin:round; stroke-width:4; stroke-opacity:1; fill:none" points="2045.68,248.629 2183.88,248.629 "></polyline>
<path clip-path="url(#clip950)" d="M2222.54 247.274 Q2225.9 247.992 2227.77 250.261 Q2229.67 252.529 2229.67 255.862 Q2229.67 260.978 2226.15 263.779 Q2222.63 266.58 2216.15 266.58 Q2213.98 266.58 2211.66 266.14 Q2209.37 265.723 2206.92 264.867 L2206.92 260.353 Q2208.86 261.487 2211.18 262.066 Q2213.49 262.645 2216.01 262.645 Q2220.41 262.645 2222.7 260.909 Q2225.02 259.173 2225.02 255.862 Q2225.02 252.807 2222.87 251.094 Q2220.74 249.358 2216.92 249.358 L2212.89 249.358 L2212.89 245.515 L2217.1 245.515 Q2220.55 245.515 2222.38 244.149 Q2224.21 242.761 2224.21 240.168 Q2224.21 237.506 2222.31 236.094 Q2220.44 234.659 2216.92 234.659 Q2215 234.659 2212.8 235.075 Q2210.6 235.492 2207.96 236.372 L2207.96 232.205 Q2210.62 231.464 2212.94 231.094 Q2215.27 230.724 2217.33 230.724 Q2222.66 230.724 2225.76 233.154 Q2228.86 235.562 2228.86 239.682 Q2228.86 242.552 2227.22 244.543 Q2225.57 246.511 2222.54 247.274 Z" fill="#000000" fill-rule="nonzero" fill-opacity="1"></path><polyline clip-path="url(#clip950)" style="stroke:#c271d2; stroke-linecap:round; stroke-linejoin:round; stroke-width:4; stroke-opacity:1; fill:none" points="2045.68,300.469 2183.88,300.469 "></polyline>
<path clip-path="url(#clip950)" d="M2222.52 287.263 L2210.71 305.712 L2222.52 305.712 L2222.52 287.263 M2221.29 283.189 L2227.17 283.189 L2227.17 305.712 L2232.1 305.712 L2232.1 309.601 L2227.17 309.601 L2227.17 317.749 L2222.52 317.749 L2222.52 309.601 L2206.92 309.601 L2206.92 305.087 L2221.29 283.189 Z" fill="#000000" fill-rule="nonzero" fill-opacity="1"></path><polyline clip-path="url(#clip950)" style="stroke:#ac8d18; stroke-linecap:round; stroke-linejoin:round; stroke-width:4; stroke-opacity:1; fill:none" points="2045.68,352.309 2183.88,352.309 "></polyline>
<path clip-path="url(#clip950)" d="M2208.38 335.029 L2226.73 335.029 L2226.73 338.964 L2212.66 338.964 L2212.66 347.436 Q2213.68 347.089 2214.69 346.927 Q2215.71 346.742 2216.73 346.742 Q2222.52 346.742 2225.9 349.913 Q2229.28 353.084 2229.28 358.501 Q2229.28 364.079 2225.81 367.181 Q2222.33 370.26 2216.01 370.26 Q2213.84 370.26 2211.57 369.89 Q2209.32 369.519 2206.92 368.778 L2206.92 364.079 Q2209 365.214 2211.22 365.769 Q2213.44 366.325 2215.92 366.325 Q2219.93 366.325 2222.26 364.218 Q2224.6 362.112 2224.6 358.501 Q2224.6 354.89 2222.26 352.783 Q2219.93 350.677 2215.92 350.677 Q2214.05 350.677 2212.17 351.093 Q2210.32 351.51 2208.38 352.39 L2208.38 335.029 Z" fill="#000000" fill-rule="nonzero" fill-opacity="1"></path><polyline clip-path="url(#clip950)" style="stroke:#00a9ad; stroke-linecap:round; stroke-linejoin:round; stroke-width:4; stroke-opacity:1; fill:none" points="2045.68,404.149 2183.88,404.149 "></polyline>
<path clip-path="url(#clip950)" d="M2219.25 402.285 Q2216.11 402.285 2214.25 404.438 Q2212.43 406.591 2212.43 410.341 Q2212.43 414.068 2214.25 416.243 Q2216.11 418.396 2219.25 418.396 Q2222.4 418.396 2224.23 416.243 Q2226.08 414.068 2226.08 410.341 Q2226.08 406.591 2224.23 404.438 Q2222.4 402.285 2219.25 402.285 M2228.54 387.633 L2228.54 391.892 Q2226.78 391.058 2224.97 390.619 Q2223.19 390.179 2221.43 390.179 Q2216.8 390.179 2214.35 393.304 Q2211.92 396.429 2211.57 402.748 Q2212.94 400.734 2215 399.669 Q2217.06 398.582 2219.53 398.582 Q2224.74 398.582 2227.75 401.753 Q2230.78 404.901 2230.78 410.341 Q2230.78 415.665 2227.63 418.882 Q2224.49 422.1 2219.25 422.1 Q2213.26 422.1 2210.09 417.517 Q2206.92 412.91 2206.92 404.183 Q2206.92 395.989 2210.81 391.128 Q2214.69 386.244 2221.25 386.244 Q2223 386.244 2224.79 386.591 Q2226.59 386.938 2228.54 387.633 Z" fill="#000000" fill-rule="nonzero" fill-opacity="1"></path><polyline clip-path="url(#clip950)" style="stroke:#ed5d92; stroke-linecap:round; stroke-linejoin:round; stroke-width:4; stroke-opacity:1; fill:none" points="2045.68,455.989 2183.88,455.989 "></polyline>
<path clip-path="url(#clip950)" d="M2206.92 438.709 L2229.14 438.709 L2229.14 440.699 L2216.59 473.269 L2211.71 473.269 L2223.51 442.644 L2206.92 442.644 L2206.92 438.709 Z" fill="#000000" fill-rule="nonzero" fill-opacity="1"></path><polyline clip-path="url(#clip950)" style="stroke:#c68125; stroke-linecap:round; stroke-linejoin:round; stroke-width:4; stroke-opacity:1; fill:none" points="2045.68,507.829 2183.88,507.829 "></polyline>
<path clip-path="url(#clip950)" d="M2218.77 508.697 Q2215.44 508.697 2213.51 510.479 Q2211.62 512.261 2211.62 515.386 Q2211.62 518.511 2213.51 520.294 Q2215.44 522.076 2218.77 522.076 Q2222.1 522.076 2224.02 520.294 Q2225.94 518.488 2225.94 515.386 Q2225.94 512.261 2224.02 510.479 Q2222.13 508.697 2218.77 508.697 M2214.09 506.706 Q2211.08 505.965 2209.39 503.905 Q2207.73 501.845 2207.73 498.882 Q2207.73 494.738 2210.67 492.331 Q2213.63 489.924 2218.77 489.924 Q2223.93 489.924 2226.87 492.331 Q2229.81 494.738 2229.81 498.882 Q2229.81 501.845 2228.12 503.905 Q2226.45 505.965 2223.47 506.706 Q2226.85 507.493 2228.72 509.785 Q2230.62 512.076 2230.62 515.386 Q2230.62 520.41 2227.54 523.095 Q2224.49 525.78 2218.77 525.78 Q2213.05 525.78 2209.97 523.095 Q2206.92 520.41 2206.92 515.386 Q2206.92 512.076 2208.81 509.785 Q2210.71 507.493 2214.09 506.706 M2212.38 499.322 Q2212.38 502.007 2214.05 503.512 Q2215.74 505.016 2218.77 505.016 Q2221.78 505.016 2223.47 503.512 Q2225.18 502.007 2225.18 499.322 Q2225.18 496.637 2223.47 495.132 Q2221.78 493.627 2218.77 493.627 Q2215.74 493.627 2214.05 495.132 Q2212.38 496.637 2212.38 499.322 Z" fill="#000000" fill-rule="nonzero" fill-opacity="1"></path><polyline clip-path="url(#clip950)" style="stroke:#00a98d; stroke-linecap:round; stroke-linejoin:round; stroke-width:4; stroke-opacity:1; fill:none" points="2045.68,559.669 2183.88,559.669 "></polyline>
<path clip-path="url(#clip950)" d="M2209.14 576.231 L2209.14 571.972 Q2210.9 572.805 2212.7 573.245 Q2214.51 573.685 2216.25 573.685 Q2220.88 573.685 2223.31 570.583 Q2225.76 567.458 2226.11 561.115 Q2224.76 563.106 2222.7 564.171 Q2220.64 565.236 2218.14 565.236 Q2212.96 565.236 2209.93 562.111 Q2206.92 558.963 2206.92 553.523 Q2206.92 548.199 2210.06 544.981 Q2213.21 541.764 2218.44 541.764 Q2224.44 541.764 2227.59 546.37 Q2230.76 550.953 2230.76 559.703 Q2230.76 567.875 2226.87 572.759 Q2223 577.62 2216.45 577.62 Q2214.69 577.62 2212.89 577.273 Q2211.08 576.925 2209.14 576.231 M2218.44 561.578 Q2221.59 561.578 2223.42 559.426 Q2225.27 557.273 2225.27 553.523 Q2225.27 549.796 2223.42 547.643 Q2221.59 545.467 2218.44 545.467 Q2215.3 545.467 2213.44 547.643 Q2211.62 549.796 2211.62 553.523 Q2211.62 557.273 2213.44 559.426 Q2215.3 561.578 2218.44 561.578 Z" fill="#000000" fill-rule="nonzero" fill-opacity="1"></path><polyline clip-path="url(#clip950)" style="stroke:#8e971d; stroke-linecap:round; stroke-linejoin:round; stroke-width:4; stroke-opacity:1; fill:none" points="2045.68,611.509 2183.88,611.509 "></polyline>
<path clip-path="url(#clip950)" d="M2207.59 624.853 L2215.23 624.853 L2215.23 598.488 L2206.92 600.155 L2206.92 595.895 L2215.18 594.229 L2219.86 594.229 L2219.86 624.853 L2227.5 624.853 L2227.5 628.789 L2207.59 628.789 L2207.59 624.853 Z" fill="#000000" fill-rule="nonzero" fill-opacity="1"></path><path clip-path="url(#clip950)" d="M2246.94 597.307 Q2243.33 597.307 2241.5 600.872 Q2239.69 604.414 2239.69 611.543 Q2239.69 618.65 2241.5 622.215 Q2243.33 625.756 2246.94 625.756 Q2250.57 625.756 2252.38 622.215 Q2254.21 618.65 2254.21 611.543 Q2254.21 604.414 2252.38 600.872 Q2250.57 597.307 2246.94 597.307 M2246.94 593.604 Q2252.75 593.604 2255.81 598.21 Q2258.88 602.793 2258.88 611.543 Q2258.88 620.27 2255.81 624.877 Q2252.75 629.46 2246.94 629.46 Q2241.13 629.46 2238.05 624.877 Q2235 620.27 2235 611.543 Q2235 602.793 2238.05 598.21 Q2241.13 593.604 2246.94 593.604 Z" fill="#000000" fill-rule="nonzero" fill-opacity="1"></path><polyline clip-path="url(#clip950)" style="stroke:#00a8cb; stroke-linecap:round; stroke-linejoin:round; stroke-width:4; stroke-opacity:1; fill:none" points="2045.68,663.349 2183.88,663.349 "></polyline>
<path clip-path="url(#clip950)" d="M2207.59 676.693 L2215.23 676.693 L2215.23 650.328 L2206.92 651.995 L2206.92 647.735 L2215.18 646.069 L2219.86 646.069 L2219.86 676.693 L2227.5 676.693 L2227.5 680.629 L2207.59 680.629 L2207.59 676.693 Z" fill="#000000" fill-rule="nonzero" fill-opacity="1"></path><path clip-path="url(#clip950)" d="M2237.75 676.693 L2245.39 676.693 L2245.39 650.328 L2237.08 651.995 L2237.08 647.735 L2245.34 646.069 L2250.02 646.069 L2250.02 676.693 L2257.66 676.693 L2257.66 680.629 L2237.75 680.629 L2237.75 676.693 Z" fill="#000000" fill-rule="nonzero" fill-opacity="1"></path><polyline clip-path="url(#clip950)" style="stroke:#9b7fe8; stroke-linecap:round; stroke-linejoin:round; stroke-width:4; stroke-opacity:1; fill:none" points="2045.68,715.189 2183.88,715.189 "></polyline>
<path clip-path="url(#clip950)" d="M2207.59 728.533 L2215.23 728.533 L2215.23 702.168 L2206.92 703.835 L2206.92 699.575 L2215.18 697.909 L2219.86 697.909 L2219.86 728.533 L2227.5 728.533 L2227.5 732.469 L2207.59 732.469 L2207.59 728.533 Z" fill="#000000" fill-rule="nonzero" fill-opacity="1"></path><path clip-path="url(#clip950)" d="M2240.97 728.533 L2257.29 728.533 L2257.29 732.469 L2235.34 732.469 L2235.34 728.533 Q2238 725.779 2242.59 721.149 Q2247.19 716.496 2248.37 715.154 Q2250.62 712.631 2251.5 710.895 Q2252.4 709.135 2252.4 707.446 Q2252.4 704.691 2250.46 702.955 Q2248.54 701.219 2245.44 701.219 Q2243.24 701.219 2240.78 701.983 Q2238.35 702.747 2235.57 704.297 L2235.57 699.575 Q2238.4 698.441 2240.85 697.862 Q2243.31 697.284 2245.34 697.284 Q2250.71 697.284 2253.91 699.969 Q2257.1 702.654 2257.1 707.145 Q2257.1 709.274 2256.29 711.196 Q2255.5 713.094 2253.4 715.686 Q2252.82 716.358 2249.72 719.575 Q2246.62 722.77 2240.97 728.533 Z" fill="#000000" fill-rule="nonzero" fill-opacity="1"></path><polyline clip-path="url(#clip950)" style="stroke:#608cf6; stroke-linecap:round; stroke-linejoin:round; stroke-width:4; stroke-opacity:1; fill:none" points="2045.68,767.029 2183.88,767.029 "></polyline>
<path clip-path="url(#clip950)" d="M2207.59 780.373 L2215.23 780.373 L2215.23 754.008 L2206.92 755.675 L2206.92 751.415 L2215.18 749.749 L2219.86 749.749 L2219.86 780.373 L2227.5 780.373 L2227.5 784.309 L2207.59 784.309 L2207.59 780.373 Z" fill="#000000" fill-rule="nonzero" fill-opacity="1"></path><path clip-path="url(#clip950)" d="M2251.11 765.674 Q2254.46 766.392 2256.34 768.661 Q2258.24 770.929 2258.24 774.262 Q2258.24 779.378 2254.72 782.179 Q2251.2 784.98 2244.72 784.98 Q2242.54 784.98 2240.23 784.54 Q2237.94 784.123 2235.48 783.267 L2235.48 778.753 Q2237.43 779.887 2239.74 780.466 Q2242.06 781.045 2244.58 781.045 Q2248.98 781.045 2251.27 779.309 Q2253.58 777.573 2253.58 774.262 Q2253.58 771.207 2251.43 769.494 Q2249.3 767.758 2245.48 767.758 L2241.45 767.758 L2241.45 763.915 L2245.67 763.915 Q2249.12 763.915 2250.94 762.549 Q2252.77 761.161 2252.77 758.568 Q2252.77 755.906 2250.87 754.494 Q2249 753.059 2245.48 753.059 Q2243.56 753.059 2241.36 753.475 Q2239.16 753.892 2236.52 754.772 L2236.52 750.605 Q2239.19 749.864 2241.5 749.494 Q2243.84 749.124 2245.9 749.124 Q2251.22 749.124 2254.32 751.554 Q2257.43 753.962 2257.43 758.082 Q2257.43 760.952 2255.78 762.943 Q2254.14 764.911 2251.11 765.674 Z" fill="#000000" fill-rule="nonzero" fill-opacity="1"></path><polyline clip-path="url(#clip950)" style="stroke:#f05f73; stroke-linecap:round; stroke-linejoin:round; stroke-width:4; stroke-opacity:1; fill:none" points="2045.68,818.869 2183.88,818.869 "></polyline>
<path clip-path="url(#clip950)" d="M2207.59 832.213 L2215.23 832.213 L2215.23 805.848 L2206.92 807.515 L2206.92 803.255 L2215.18 801.589 L2219.86 801.589 L2219.86 832.213 L2227.5 832.213 L2227.5 836.149 L2207.59 836.149 L2207.59 832.213 Z" fill="#000000" fill-rule="nonzero" fill-opacity="1"></path><path clip-path="url(#clip950)" d="M2249.79 805.663 L2237.98 824.112 L2249.79 824.112 L2249.79 805.663 M2248.56 801.589 L2254.44 801.589 L2254.44 824.112 L2259.37 824.112 L2259.37 828.001 L2254.44 828.001 L2254.44 836.149 L2249.79 836.149 L2249.79 828.001 L2234.19 828.001 L2234.19 823.487 L2248.56 801.589 Z" fill="#000000" fill-rule="nonzero" fill-opacity="1"></path><polyline clip-path="url(#clip950)" style="stroke:#dd64b5; stroke-linecap:round; stroke-linejoin:round; stroke-width:4; stroke-opacity:1; fill:none" points="2045.68,870.709 2183.88,870.709 "></polyline>
<path clip-path="url(#clip950)" d="M2207.59 884.053 L2215.23 884.053 L2215.23 857.688 L2206.92 859.355 L2206.92 855.095 L2215.18 853.429 L2219.86 853.429 L2219.86 884.053 L2227.5 884.053 L2227.5 887.989 L2207.59 887.989 L2207.59 884.053 Z" fill="#000000" fill-rule="nonzero" fill-opacity="1"></path><path clip-path="url(#clip950)" d="M2236.99 853.429 L2255.34 853.429 L2255.34 857.364 L2241.27 857.364 L2241.27 865.836 Q2242.29 865.489 2243.31 865.327 Q2244.32 865.142 2245.34 865.142 Q2251.13 865.142 2254.51 868.313 Q2257.89 871.484 2257.89 876.901 Q2257.89 882.479 2254.42 885.581 Q2250.94 888.66 2244.62 888.66 Q2242.45 888.66 2240.18 888.29 Q2237.94 887.919 2235.53 887.178 L2235.53 882.479 Q2237.61 883.614 2239.83 884.169 Q2242.06 884.725 2244.53 884.725 Q2248.54 884.725 2250.87 882.618 Q2253.21 880.512 2253.21 876.901 Q2253.21 873.29 2250.87 871.183 Q2248.54 869.077 2244.53 869.077 Q2242.66 869.077 2240.78 869.493 Q2238.93 869.91 2236.99 870.79 L2236.99 853.429 Z" fill="#000000" fill-rule="nonzero" fill-opacity="1"></path><polyline clip-path="url(#clip950)" style="stroke:#6b9e32; stroke-linecap:round; stroke-linejoin:round; stroke-width:4; stroke-opacity:1; fill:none" points="2045.68,922.549 2183.88,922.549 "></polyline>
<path clip-path="url(#clip950)" d="M2207.59 935.893 L2215.23 935.893 L2215.23 909.528 L2206.92 911.195 L2206.92 906.935 L2215.18 905.269 L2219.86 905.269 L2219.86 935.893 L2227.5 935.893 L2227.5 939.829 L2207.59 939.829 L2207.59 935.893 Z" fill="#000000" fill-rule="nonzero" fill-opacity="1"></path><path clip-path="url(#clip950)" d="M2247.52 920.685 Q2244.37 920.685 2242.52 922.838 Q2240.69 924.991 2240.69 928.741 Q2240.69 932.468 2242.52 934.643 Q2244.37 936.796 2247.52 936.796 Q2250.67 936.796 2252.5 934.643 Q2254.35 932.468 2254.35 928.741 Q2254.35 924.991 2252.5 922.838 Q2250.67 920.685 2247.52 920.685 M2256.8 906.033 L2256.8 910.292 Q2255.04 909.458 2253.24 909.019 Q2251.45 908.579 2249.69 908.579 Q2245.06 908.579 2242.61 911.704 Q2240.18 914.829 2239.83 921.148 Q2241.2 919.134 2243.26 918.069 Q2245.32 916.982 2247.8 916.982 Q2253 916.982 2256.01 920.153 Q2259.05 923.301 2259.05 928.741 Q2259.05 934.065 2255.9 937.282 Q2252.75 940.5 2247.52 940.5 Q2241.52 940.5 2238.35 935.917 Q2235.18 931.31 2235.18 922.583 Q2235.18 914.389 2239.07 909.528 Q2242.96 904.644 2249.51 904.644 Q2251.27 904.644 2253.05 904.991 Q2254.86 905.338 2256.8 906.033 Z" fill="#000000" fill-rule="nonzero" fill-opacity="1"></path><polyline clip-path="url(#clip950)" style="stroke:#009af9; stroke-linecap:round; stroke-linejoin:round; stroke-width:4; stroke-opacity:1; fill:none" points="2045.68,974.389 2183.88,974.389 "></polyline>
<path clip-path="url(#clip950)" d="M2207.59 987.733 L2215.23 987.733 L2215.23 961.368 L2206.92 963.035 L2206.92 958.775 L2215.18 957.109 L2219.86 957.109 L2219.86 987.733 L2227.5 987.733 L2227.5 991.669 L2207.59 991.669 L2207.59 987.733 Z" fill="#000000" fill-rule="nonzero" fill-opacity="1"></path><path clip-path="url(#clip950)" d="M2235.76 957.109 L2257.98 957.109 L2257.98 959.099 L2245.44 991.669 L2240.55 991.669 L2252.36 961.044 L2235.76 961.044 L2235.76 957.109 Z" fill="#000000" fill-rule="nonzero" fill-opacity="1"></path><polyline clip-path="url(#clip950)" style="stroke:#e26f46; stroke-linecap:round; stroke-linejoin:round; stroke-width:4; stroke-opacity:1; fill:none" points="2045.68,1026.23 2183.88,1026.23 "></polyline>
<path clip-path="url(#clip950)" d="M2207.59 1039.57 L2215.23 1039.57 L2215.23 1013.21 L2206.92 1014.87 L2206.92 1010.62 L2215.18 1008.95 L2219.86 1008.95 L2219.86 1039.57 L2227.5 1039.57 L2227.5 1043.51 L2207.59 1043.51 L2207.59 1039.57 Z" fill="#000000" fill-rule="nonzero" fill-opacity="1"></path><path clip-path="url(#clip950)" d="M2246.94 1027.1 Q2243.61 1027.1 2241.69 1028.88 Q2239.79 1030.66 2239.79 1033.79 Q2239.79 1036.91 2241.69 1038.69 Q2243.61 1040.48 2246.94 1040.48 Q2250.27 1040.48 2252.19 1038.69 Q2254.12 1036.89 2254.12 1033.79 Q2254.12 1030.66 2252.19 1028.88 Q2250.3 1027.1 2246.94 1027.1 M2242.26 1025.11 Q2239.25 1024.37 2237.56 1022.31 Q2235.9 1020.24 2235.9 1017.28 Q2235.9 1013.14 2238.84 1010.73 Q2241.8 1008.32 2246.94 1008.32 Q2252.1 1008.32 2255.04 1010.73 Q2257.98 1013.14 2257.98 1017.28 Q2257.98 1020.24 2256.29 1022.31 Q2254.62 1024.37 2251.64 1025.11 Q2255.02 1025.89 2256.89 1028.18 Q2258.79 1030.48 2258.79 1033.79 Q2258.79 1038.81 2255.71 1041.49 Q2252.66 1044.18 2246.94 1044.18 Q2241.22 1044.18 2238.14 1041.49 Q2235.09 1038.81 2235.09 1033.79 Q2235.09 1030.48 2236.99 1028.18 Q2238.88 1025.89 2242.26 1025.11 M2240.55 1017.72 Q2240.55 1020.41 2242.22 1021.91 Q2243.91 1023.42 2246.94 1023.42 Q2249.95 1023.42 2251.64 1021.91 Q2253.35 1020.41 2253.35 1017.72 Q2253.35 1015.04 2251.64 1013.53 Q2249.95 1012.03 2246.94 1012.03 Q2243.91 1012.03 2242.22 1013.53 Q2240.55 1015.04 2240.55 1017.72 Z" fill="#000000" fill-rule="nonzero" fill-opacity="1"></path><polyline clip-path="url(#clip950)" style="stroke:#3da44d; stroke-linecap:round; stroke-linejoin:round; stroke-width:4; stroke-opacity:1; fill:none" points="2045.68,1078.07 2183.88,1078.07 "></polyline>
<path clip-path="url(#clip950)" d="M2207.59 1091.41 L2215.23 1091.41 L2215.23 1065.05 L2206.92 1066.71 L2206.92 1062.46 L2215.18 1060.79 L2219.86 1060.79 L2219.86 1091.41 L2227.5 1091.41 L2227.5 1095.35 L2207.59 1095.35 L2207.59 1091.41 Z" fill="#000000" fill-rule="nonzero" fill-opacity="1"></path><path clip-path="url(#clip950)" d="M2237.08 1094.63 L2237.08 1090.37 Q2238.84 1091.21 2240.64 1091.64 Q2242.45 1092.08 2244.19 1092.08 Q2248.81 1092.08 2251.25 1088.98 Q2253.7 1085.86 2254.05 1079.52 Q2252.7 1081.51 2250.64 1082.57 Q2248.58 1083.64 2246.08 1083.64 Q2240.9 1083.64 2237.87 1080.51 Q2234.86 1077.36 2234.86 1071.92 Q2234.86 1066.6 2238 1063.38 Q2241.15 1060.16 2246.38 1060.16 Q2252.38 1060.16 2255.53 1064.77 Q2258.7 1069.35 2258.7 1078.1 Q2258.7 1086.27 2254.81 1091.16 Q2250.94 1096.02 2244.39 1096.02 Q2242.63 1096.02 2240.83 1095.67 Q2239.02 1095.33 2237.08 1094.63 M2246.38 1079.98 Q2249.53 1079.98 2251.36 1077.83 Q2253.21 1075.67 2253.21 1071.92 Q2253.21 1068.2 2251.36 1066.04 Q2249.53 1063.87 2246.38 1063.87 Q2243.24 1063.87 2241.38 1066.04 Q2239.56 1068.2 2239.56 1071.92 Q2239.56 1075.67 2241.38 1077.83 Q2243.24 1079.98 2246.38 1079.98 Z" fill="#000000" fill-rule="nonzero" fill-opacity="1"></path><polyline clip-path="url(#clip950)" style="stroke:#c271d2; stroke-linecap:round; stroke-linejoin:round; stroke-width:4; stroke-opacity:1; fill:none" points="2045.68,1129.91 2183.88,1129.91 "></polyline>
<path clip-path="url(#clip950)" d="M2212.54 1143.25 L2228.86 1143.25 L2228.86 1147.19 L2206.92 1147.19 L2206.92 1143.25 Q2209.58 1140.5 2214.16 1135.87 Q2218.77 1131.22 2219.95 1129.87 Q2222.19 1127.35 2223.07 1125.61 Q2223.98 1123.86 2223.98 1122.17 Q2223.98 1119.41 2222.03 1117.67 Q2220.11 1115.94 2217.01 1115.94 Q2214.81 1115.94 2212.36 1116.7 Q2209.93 1117.47 2207.15 1119.02 L2207.15 1114.3 Q2209.97 1113.16 2212.43 1112.58 Q2214.88 1112 2216.92 1112 Q2222.29 1112 2225.48 1114.69 Q2228.68 1117.37 2228.68 1121.86 Q2228.68 1123.99 2227.87 1125.92 Q2227.08 1127.81 2224.97 1130.41 Q2224.39 1131.08 2221.29 1134.3 Q2218.19 1137.49 2212.54 1143.25 Z" fill="#000000" fill-rule="nonzero" fill-opacity="1"></path><path clip-path="url(#clip950)" d="M2248.68 1115.71 Q2245.06 1115.71 2243.24 1119.27 Q2241.43 1122.81 2241.43 1129.94 Q2241.43 1137.05 2243.24 1140.61 Q2245.06 1144.16 2248.68 1144.16 Q2252.31 1144.16 2254.12 1140.61 Q2255.94 1137.05 2255.94 1129.94 Q2255.94 1122.81 2254.12 1119.27 Q2252.31 1115.71 2248.68 1115.71 M2248.68 1112 Q2254.49 1112 2257.54 1116.61 Q2260.62 1121.19 2260.62 1129.94 Q2260.62 1138.67 2257.54 1143.28 Q2254.49 1147.86 2248.68 1147.86 Q2242.87 1147.86 2239.79 1143.28 Q2236.73 1138.67 2236.73 1129.94 Q2236.73 1121.19 2239.79 1116.61 Q2242.87 1112 2248.68 1112 Z" fill="#000000" fill-rule="nonzero" fill-opacity="1"></path></svg>