<svg xmlns="http://www.w3.org/2000/svg" xmlns:xlink="http://www.w3.org/1999/xlink" width="600" height="400" viewBox="0 0 2400 1600">
<defs>
  <clipPath id="clip900">
    <rect x="0" y="0" width="2400" height="1600"></rect>
  </clipPath>
</defs>
<path clip-path="url(#clip900)" d="M0 1600 L2400 1600 L2400 0 L0 0  Z" fill="#ffffff" fill-rule="evenodd" fill-opacity="1"></path>
<defs>
  <clipPath id="clip901">
    <rect x="480" y="0" width="1681" height="1600"></rect>
  </clipPath>
</defs>
<path clip-path="url(#clip900)" d="M203.802 1384.3 L2352.76 1384.3 L2352.76 47.2441 L203.802 47.2441  Z" fill="#ffffff" fill-rule="evenodd" fill-opacity="1"></path>
<defs>
  <clipPath id="clip902">
    <rect x="203" y="47" width="2150" height="1338"></rect>
  </clipPath>
</defs>
<polyline clip-path="url(#clip902)" style="stroke:#000000; stroke-linecap:round; stroke-linejoin:round; stroke-width:2; stroke-opacity:0.1; fill:none" points="239.479,1384.3 239.479,47.2441 "></polyline>
<polyline clip-path="url(#clip902)" style="stroke:#000000; stroke-linecap:round; stroke-linejoin:round; stroke-width:2; stroke-opacity:0.1; fill:none" points="666.918,1384.3 666.918,47.2441 "></polyline>
<polyline clip-path="url(#clip902)" style="stroke:#000000; stroke-linecap:round; stroke-linejoin:round; stroke-width:2; stroke-opacity:0.1; fill:none" points="1094.36,1384.3 1094.36,47.2441 "></polyline>
<polyline clip-path="url(#clip902)" style="stroke:#000000; stroke-linecap:round; stroke-linejoin:round; stroke-width:2; stroke-opacity:0.1; fill:none" points="1521.8,1384.3 1521.8,47.2441 "></polyline>
<polyline clip-path="url(#clip902)" style="stroke:#000000; stroke-linecap:round; stroke-linejoin:round; stroke-width:2; stroke-opacity:0.1; fill:none" points="1949.24,1384.3 1949.24,47.2441 "></polyline>
<polyline clip-path="url(#clip900)" style="stroke:#000000; stroke-linecap:round; stroke-linejoin:round; stroke-width:4; stroke-opacity:1; fill:none" points="203.802,1384.3 2352.76,1384.3 "></polyline>
<polyline clip-path="url(#clip900)" style="stroke:#000000; stroke-linecap:round; stroke-linejoin:round; stroke-width:4; stroke-opacity:1; fill:none" points="239.479,1384.3 239.479,1365.4 "></polyline>
<polyline clip-path="url(#clip900)" style="stroke:#000000; stroke-linecap:round; stroke-linejoin:round; stroke-width:4; stroke-opacity:1; fill:none" points="666.918,1384.3 666.918,1365.4 "></polyline>
<polyline clip-path="url(#clip900)" style="stroke:#000000; stroke-linecap:round; stroke-linejoin:round; stroke-width:4; stroke-opacity:1; fill:none" points="1094.36,1384.3 1094.36,1365.4 "></polyline>
<polyline clip-path="url(#clip900)" style="stroke:#000000; stroke-linecap:round; stroke-linejoin:round; stroke-width:4; stroke-opacity:1; fill:none" points="1521.8,1384.3 1521.8,1365.4 "></polyline>
<polyline clip-path="url(#clip900)" style="stroke:#000000; stroke-linecap:round; stroke-linejoin:round; stroke-width:4; stroke-opacity:1; fill:none" points="1949.24,1384.3 1949.24,1365.4 "></polyline>
<path clip-path="url(#clip900)" d="M215.634 1448.25 Q216.079 1448.7 216.079 1449.33 Q216.079 1449.96 215.634 1450.4 Q215.189 1450.85 214.559 1450.85 L167.055 1450.85 Q166.425 1450.85 165.98 1450.4 Q165.536 1449.96 165.536 1449.33 Q165.536 1448.7 165.98 1448.25 Q166.425 1447.81 167.055 1447.81 L214.559 1447.81 Q215.189 1447.81 215.634 1448.25 Z" fill="#000000" fill-rule="nonzero" fill-opacity="1"></path><path clip-path="url(#clip900)" d="M223.267 1444.03 Q223.267 1432.88 226.084 1426.8 Q230.011 1417.76 239.275 1417.76 Q241.239 1417.76 243.277 1418.31 Q245.352 1418.83 247.946 1420.87 Q250.577 1422.91 252.17 1426.24 Q255.209 1432.69 255.209 1444.03 Q255.209 1455.11 252.393 1461.15 Q248.28 1469.97 239.201 1469.97 Q235.792 1469.97 232.309 1468.23 Q228.863 1466.48 226.676 1462.3 Q223.267 1456.03 223.267 1444.03 M229.567 1443.1 Q229.567 1454.55 230.382 1459.11 Q231.308 1464.04 233.828 1466.19 Q236.385 1468.3 239.201 1468.3 Q242.24 1468.3 244.759 1466.04 Q247.316 1463.74 248.094 1458.81 Q248.946 1453.96 248.909 1443.1 Q248.909 1432.54 248.168 1428.32 Q247.168 1423.39 244.5 1421.43 Q241.869 1419.42 239.201 1419.42 Q238.201 1419.42 237.126 1419.72 Q236.088 1420.02 234.569 1420.87 Q233.05 1421.72 231.864 1423.83 Q230.715 1425.95 230.16 1429.13 Q229.567 1433.25 229.567 1443.1 Z" fill="#000000" fill-rule="nonzero" fill-opacity="1"></path><path clip-path="url(#clip900)" d="M265.844 1467.08 Q264.695 1465.85 264.695 1464.26 Q264.695 1462.67 265.844 1461.52 Q266.992 1460.33 268.734 1460.33 Q270.401 1460.33 271.513 1461.44 Q272.662 1462.52 272.662 1464.3 Q272.662 1466.04 271.439 1467.19 Q270.253 1468.3 268.734 1468.3 Q266.992 1468.3 265.844 1467.08 Z" fill="#000000" fill-rule="nonzero" fill-opacity="1"></path><path clip-path="url(#clip900)" d="M283.111 1468.3 Q283.111 1466.93 283.222 1466.52 Q283.371 1466.11 283.964 1465.48 L298.526 1449.25 Q306.493 1440.29 306.493 1432.47 Q306.493 1427.39 303.825 1423.76 Q301.194 1420.13 296.34 1420.13 Q293.005 1420.13 290.189 1422.17 Q287.373 1424.2 286.076 1427.84 Q286.298 1427.76 287.076 1427.76 Q288.966 1427.76 290.003 1428.95 Q291.078 1430.13 291.078 1431.73 Q291.078 1433.76 289.744 1434.77 Q288.447 1435.73 287.15 1435.73 Q286.631 1435.73 285.927 1435.62 Q285.26 1435.51 284.186 1434.47 Q283.111 1433.39 283.111 1431.5 Q283.111 1426.21 287.113 1421.98 Q291.152 1417.76 297.303 1417.76 Q304.27 1417.76 308.827 1421.91 Q313.422 1426.02 313.422 1432.47 Q313.422 1434.73 312.718 1436.8 Q312.051 1438.84 311.125 1440.43 Q310.236 1442.03 307.79 1444.58 Q305.344 1447.14 303.38 1448.96 Q301.416 1450.77 297.007 1454.63 L288.966 1462.45 L302.639 1462.45 Q309.309 1462.45 309.828 1461.85 Q310.569 1460.78 311.495 1455.11 L313.422 1455.11 L311.273 1468.3 L283.111 1468.3 Z" fill="#000000" fill-rule="nonzero" fill-opacity="1"></path><path clip-path="url(#clip900)" d="M621.433 1444.03 Q621.433 1432.88 624.249 1426.8 Q628.177 1417.76 637.441 1417.76 Q639.405 1417.76 641.443 1418.31 Q643.518 1418.83 646.112 1420.87 Q648.743 1422.91 650.336 1426.24 Q653.375 1432.69 653.375 1444.03 Q653.375 1455.11 650.558 1461.15 Q646.445 1469.97 637.367 1469.97 Q633.958 1469.97 630.475 1468.23 Q627.028 1466.48 624.842 1462.3 Q621.433 1456.03 621.433 1444.03 M627.732 1443.1 Q627.732 1454.55 628.548 1459.11 Q629.474 1464.04 631.994 1466.19 Q634.551 1468.3 637.367 1468.3 Q640.405 1468.3 642.925 1466.04 Q645.482 1463.74 646.26 1458.81 Q647.112 1453.96 647.075 1443.1 Q647.075 1432.54 646.334 1428.32 Q645.334 1423.39 642.666 1421.43 Q640.035 1419.42 637.367 1419.42 Q636.366 1419.42 635.292 1419.72 Q634.254 1420.02 632.735 1420.87 Q631.216 1421.72 630.03 1423.83 Q628.881 1425.95 628.325 1429.13 Q627.732 1433.25 627.732 1443.1 Z" fill="#000000" fill-rule="nonzero" fill-opacity="1"></path><path clip-path="url(#clip900)" d="M664.009 1467.08 Q662.861 1465.85 662.861 1464.26 Q662.861 1462.67 664.009 1461.52 Q665.158 1460.33 666.9 1460.33 Q668.567 1460.33 669.679 1461.44 Q670.827 1462.52 670.827 1464.3 Q670.827 1466.04 669.605 1467.19 Q668.419 1468.3 666.9 1468.3 Q665.158 1468.3 664.009 1467.08 Z" fill="#000000" fill-rule="nonzero" fill-opacity="1"></path><path clip-path="url(#clip900)" d="M680.462 1444.03 Q680.462 1432.88 683.278 1426.8 Q687.206 1417.76 696.47 1417.76 Q698.433 1417.76 700.472 1418.31 Q702.547 1418.83 705.14 1420.87 Q707.771 1422.91 709.365 1426.24 Q712.403 1432.69 712.403 1444.03 Q712.403 1455.11 709.587 1461.15 Q705.474 1469.97 696.395 1469.97 Q692.986 1469.97 689.503 1468.23 Q686.057 1466.48 683.871 1462.3 Q680.462 1456.03 680.462 1444.03 M686.761 1443.1 Q686.761 1454.55 687.576 1459.11 Q688.503 1464.04 691.022 1466.19 Q693.579 1468.3 696.395 1468.3 Q699.434 1468.3 701.954 1466.04 Q704.511 1463.74 705.289 1458.81 Q706.141 1453.96 706.104 1443.1 Q706.104 1432.54 705.363 1428.32 Q704.362 1423.39 701.694 1421.43 Q699.063 1419.42 696.395 1419.42 Q695.395 1419.42 694.32 1419.72 Q693.283 1420.02 691.764 1420.87 Q690.244 1421.72 689.059 1423.83 Q687.91 1425.95 687.354 1429.13 Q686.761 1433.25 686.761 1443.1 Z" fill="#000000" fill-rule="nonzero" fill-opacity="1"></path><path clip-path="url(#clip900)" d="M1049.28 1444.03 Q1049.28 1432.88 1052.1 1426.8 Q1056.02 1417.76 1065.29 1417.76 Q1067.25 1417.76 1069.29 1418.31 Q1071.36 1418.83 1073.96 1420.87 Q1076.59 1422.91 1078.18 1426.24 Q1081.22 1432.69 1081.22 1444.03 Q1081.22 1455.11 1078.41 1461.15 Q1074.29 1469.97 1065.21 1469.97 Q1061.8 1469.97 1058.32 1468.23 Q1054.88 1466.48 1052.69 1462.3 Q1049.28 1456.03 1049.28 1444.03 M1055.58 1443.1 Q1055.58 1454.55 1056.39 1459.11 Q1057.32 1464.04 1059.84 1466.19 Q1062.4 1468.3 1065.21 1468.3 Q1068.25 1468.3 1070.77 1466.04 Q1073.33 1463.74 1074.11 1458.81 Q1074.96 1453.96 1074.92 1443.1 Q1074.92 1432.54 1074.18 1428.32 Q1073.18 1423.39 1070.51 1421.43 Q1067.88 1419.42 1065.21 1419.42 Q1064.21 1419.42 1063.14 1419.72 Q1062.1 1420.02 1060.58 1420.87 Q1059.06 1421.72 1057.88 1423.83 Q1056.73 1425.95 1056.17 1429.13 Q1055.58 1433.25 1055.58 1443.1 Z" fill="#000000" fill-rule="nonzero" fill-opacity="1"></path><path clip-path="url(#clip900)" d="M1091.86 1467.08 Q1090.71 1465.85 1090.71 1464.26 Q1090.71 1462.67 1091.86 1461.52 Q1093 1460.33 1094.75 1460.33 Q1096.41 1460.33 1097.53 1461.44 Q1098.67 1462.52 1098.67 1464.3 Q1098.67 1466.04 1097.45 1467.19 Q1096.27 1468.3 1094.75 1468.3 Q1093 1468.3 1091.86 1467.08 Z" fill="#000000" fill-rule="nonzero" fill-opacity="1"></path><path clip-path="url(#clip900)" d="M1109.12 1468.3 Q1109.12 1466.93 1109.24 1466.52 Q1109.38 1466.11 1109.98 1465.48 L1124.54 1449.25 Q1132.51 1440.29 1132.51 1432.47 Q1132.51 1427.39 1129.84 1423.76 Q1127.21 1420.13 1122.35 1420.13 Q1119.02 1420.13 1116.2 1422.17 Q1113.39 1424.2 1112.09 1427.84 Q1112.31 1427.76 1113.09 1427.76 Q1114.98 1427.76 1116.02 1428.95 Q1117.09 1430.13 1117.09 1431.73 Q1117.09 1433.76 1115.76 1434.77 Q1114.46 1435.73 1113.16 1435.73 Q1112.64 1435.73 1111.94 1435.62 Q1111.27 1435.51 1110.2 1434.47 Q1109.12 1433.39 1109.12 1431.5 Q1109.12 1426.21 1113.13 1421.98 Q1117.16 1417.76 1123.32 1417.76 Q1130.28 1417.76 1134.84 1421.91 Q1139.43 1426.02 1139.43 1432.47 Q1139.43 1434.73 1138.73 1436.8 Q1138.06 1438.84 1137.14 1440.43 Q1136.25 1442.03 1133.8 1444.58 Q1131.36 1447.14 1129.39 1448.96 Q1127.43 1450.77 1123.02 1454.63 L1114.98 1462.45 L1128.65 1462.45 Q1135.32 1462.45 1135.84 1461.85 Q1136.58 1460.78 1137.51 1455.11 L1139.43 1455.11 L1137.29 1468.3 L1109.12 1468.3 Z" fill="#000000" fill-rule="nonzero" fill-opacity="1"></path><path clip-path="url(#clip900)" d="M1475.89 1444.03 Q1475.89 1432.88 1478.7 1426.8 Q1482.63 1417.76 1491.89 1417.76 Q1493.86 1417.76 1495.9 1418.31 Q1497.97 1418.83 1500.56 1420.87 Q1503.2 1422.91 1504.79 1426.24 Q1507.83 1432.69 1507.83 1444.03 Q1507.83 1455.11 1505.01 1461.15 Q1500.9 1469.97 1491.82 1469.97 Q1488.41 1469.97 1484.93 1468.23 Q1481.48 1466.48 1479.29 1462.3 Q1475.89 1456.03 1475.89 1444.03 M1482.18 1443.1 Q1482.18 1454.55 1483 1459.11 Q1483.93 1464.04 1486.45 1466.19 Q1489 1468.3 1491.82 1468.3 Q1494.86 1468.3 1497.38 1466.04 Q1499.93 1463.74 1500.71 1458.81 Q1501.56 1453.96 1501.53 1443.1 Q1501.53 1432.54 1500.79 1428.32 Q1499.79 1423.39 1497.12 1421.43 Q1494.49 1419.42 1491.82 1419.42 Q1490.82 1419.42 1489.74 1419.72 Q1488.71 1420.02 1487.19 1420.87 Q1485.67 1421.72 1484.48 1423.83 Q1483.33 1425.95 1482.78 1429.13 Q1482.18 1433.25 1482.18 1443.1 Z" fill="#000000" fill-rule="nonzero" fill-opacity="1"></path><path clip-path="url(#clip900)" d="M1518.46 1467.08 Q1517.31 1465.85 1517.31 1464.26 Q1517.31 1462.67 1518.46 1461.52 Q1519.61 1460.33 1521.35 1460.33 Q1523.02 1460.33 1524.13 1461.44 Q1525.28 1462.52 1525.28 1464.3 Q1525.28 1466.04 1524.06 1467.19 Q1522.87 1468.3 1521.35 1468.3 Q1519.61 1468.3 1518.46 1467.08 Z" fill="#000000" fill-rule="nonzero" fill-opacity="1"></path><path clip-path="url(#clip900)" d="M1534.06 1455.78 L1534.06 1453.44 L1557.37 1417.83 Q1557.96 1416.9 1558.89 1416.94 Q1559.74 1416.94 1559.93 1417.28 Q1560.11 1417.61 1560.11 1418.91 L1560.11 1453.44 L1567.71 1453.44 L1567.71 1455.78 L1560.11 1455.78 L1560.11 1462.37 Q1560.11 1464.56 1561 1465.26 Q1561.93 1465.97 1565.86 1465.97 L1567.45 1465.97 L1567.45 1468.3 Q1564.34 1468.08 1557.15 1468.08 Q1550 1468.08 1546.88 1468.3 L1546.88 1465.97 L1548.48 1465.97 Q1552.4 1465.97 1553.33 1465.3 Q1554.26 1464.59 1554.26 1462.37 L1554.26 1455.78 L1534.06 1455.78 M1536.21 1453.44 L1554.7 1453.44 L1554.7 1425.13 L1536.21 1453.44 Z" fill="#000000" fill-rule="nonzero" fill-opacity="1"></path><path clip-path="url(#clip900)" d="M1903.86 1444.03 Q1903.86 1432.88 1906.68 1426.8 Q1910.61 1417.76 1919.87 1417.76 Q1921.83 1417.76 1923.87 1418.31 Q1925.95 1418.83 1928.54 1420.87 Q1931.17 1422.91 1932.76 1426.24 Q1935.8 1432.69 1935.8 1444.03 Q1935.8 1455.11 1932.99 1461.15 Q1928.87 1469.97 1919.8 1469.97 Q1916.39 1469.97 1912.9 1468.23 Q1909.46 1466.48 1907.27 1462.3 Q1903.86 1456.03 1903.86 1444.03 M1910.16 1443.1 Q1910.16 1454.55 1910.98 1459.11 Q1911.9 1464.04 1914.42 1466.19 Q1916.98 1468.3 1919.8 1468.3 Q1922.83 1468.3 1925.35 1466.04 Q1927.91 1463.74 1928.69 1458.81 Q1929.54 1453.96 1929.5 1443.1 Q1929.5 1432.54 1928.76 1428.32 Q1927.76 1423.39 1925.09 1421.43 Q1922.46 1419.42 1919.8 1419.42 Q1918.8 1419.42 1917.72 1419.72 Q1916.68 1420.02 1915.16 1420.87 Q1913.64 1421.72 1912.46 1423.83 Q1911.31 1425.95 1910.75 1429.13 Q1910.16 1433.25 1910.16 1443.1 Z" fill="#000000" fill-rule="nonzero" fill-opacity="1"></path><path clip-path="url(#clip900)" d="M1946.44 1467.08 Q1945.29 1465.85 1945.29 1464.26 Q1945.29 1462.67 1946.44 1461.52 Q1947.59 1460.33 1949.33 1460.33 Q1951 1460.33 1952.11 1461.44 Q1953.26 1462.52 1953.26 1464.3 Q1953.26 1466.04 1952.03 1467.19 Q1950.85 1468.3 1949.33 1468.3 Q1947.59 1468.3 1946.44 1467.08 Z" fill="#000000" fill-rule="nonzero" fill-opacity="1"></path><path clip-path="url(#clip900)" d="M1963.11 1444.33 Q1963.11 1432.39 1969.19 1425.09 Q1975.27 1417.76 1983.09 1417.76 Q1987.64 1417.76 1990.16 1420.09 Q1992.72 1422.39 1992.72 1425.95 Q1992.72 1427.91 1991.57 1428.76 Q1990.42 1429.61 1989.24 1429.61 Q1987.87 1429.61 1986.79 1428.69 Q1985.72 1427.76 1985.72 1426.09 Q1985.72 1422.69 1989.9 1422.69 Q1987.94 1419.65 1983.23 1419.65 Q1981.79 1419.65 1980.31 1420.09 Q1978.82 1420.5 1976.9 1421.91 Q1974.97 1423.32 1973.49 1425.54 Q1972.01 1427.76 1970.97 1431.95 Q1969.93 1436.14 1969.93 1441.58 L1969.93 1443.4 Q1973.04 1435.88 1979.42 1435.91 Q1985.79 1435.91 1990.2 1440.77 Q1994.61 1445.62 1994.61 1452.81 Q1994.61 1460.18 1990.01 1465.08 Q1985.42 1469.97 1978.97 1469.97 Q1976.08 1469.97 1973.45 1468.74 Q1970.86 1467.56 1968.41 1464.82 Q1966 1462.07 1964.56 1456.81 Q1963.11 1451.55 1963.11 1444.33 M1970.08 1451.14 Q1970.08 1458.59 1971.45 1462.15 Q1971.67 1462.74 1972.15 1463.56 Q1972.67 1464.37 1973.53 1465.45 Q1974.41 1466.48 1975.86 1467.19 Q1977.31 1467.86 1978.97 1467.86 Q1984.05 1467.86 1986.49 1462.93 Q1987.79 1460.18 1987.79 1452.74 Q1987.79 1445.14 1986.42 1442.36 Q1984.09 1437.66 1979.34 1437.66 Q1976.16 1437.66 1973.93 1439.84 Q1971.75 1442.03 1970.89 1444.96 Q1970.08 1447.88 1970.08 1451.14 Z" fill="#000000" fill-rule="nonzero" fill-opacity="1"></path><path clip-path="url(#clip900)" d="M1002.27 1581 L1002.27 1577.89 L1004.69 1577.89 Q1010.17 1577.89 1011.41 1577 Q1012.69 1576.06 1012.69 1573.1 L1012.69 1520.09 Q1012.69 1517.17 1011.41 1516.28 Q1010.12 1515.34 1004.69 1515.34 L1002.27 1515.34 L1002.27 1512.18 L1059.23 1512.18 L1062.05 1534.96 L1059.53 1534.96 Q1058.84 1529.18 1057.9 1525.87 Q1057.01 1522.51 1054.79 1519.94 Q1052.61 1517.37 1049.01 1516.38 Q1045.45 1515.34 1039.67 1515.34 L1026.63 1515.34 Q1023.17 1515.34 1022.43 1516.08 Q1021.68 1516.78 1021.68 1519.39 L1021.68 1543.65 L1030.78 1543.65 Q1037.74 1543.65 1039.72 1541.23 Q1041.69 1538.81 1041.69 1531.84 L1044.26 1531.84 L1044.26 1558.62 L1041.69 1558.62 Q1041.69 1551.76 1039.72 1549.28 Q1037.74 1546.81 1030.78 1546.81 L1021.68 1546.81 L1021.68 1573.84 Q1021.68 1576.46 1022.43 1577.2 Q1023.22 1577.89 1026.63 1577.89 L1040.11 1577.89 Q1044.46 1577.89 1047.62 1577.35 Q1050.83 1576.75 1053.06 1575.37 Q1055.28 1573.94 1056.76 1572.31 Q1058.3 1570.68 1059.33 1567.76 Q1060.42 1564.8 1061.01 1562.08 Q1061.65 1559.36 1062.35 1554.92 L1064.87 1554.92 L1060.62 1581 L1002.27 1581 Z" fill="#000000" fill-rule="nonzero" fill-opacity="1"></path><path clip-path="url(#clip900)" d="M1070.94 1540.54 L1070.94 1537.38 L1085.81 1536.29 L1085.81 1569.89 Q1085.81 1572.31 1086.01 1573.74 Q1086.21 1575.12 1087 1576.75 Q1087.84 1578.39 1089.72 1579.13 Q1091.64 1579.87 1094.71 1579.87 Q1100.19 1579.87 1103.55 1575.37 Q1106.96 1570.88 1106.96 1564.21 L1106.96 1546.17 Q1106.96 1542.42 1105.63 1541.48 Q1104.29 1540.54 1099.06 1540.54 L1099.06 1537.38 L1113.93 1536.29 L1113.93 1572.21 Q1113.93 1575.96 1115.21 1576.95 Q1116.55 1577.89 1121.83 1577.89 L1121.83 1581 L1107.26 1582.14 L1107.26 1573 Q1103.01 1582.09 1094.21 1582.14 Q1089.77 1582.14 1086.7 1581 Q1083.69 1579.87 1082.16 1578.48 Q1080.63 1577.05 1079.79 1574.33 Q1079 1571.62 1078.9 1569.94 Q1078.8 1568.26 1078.8 1565 L1078.8 1549.83 Q1078.8 1542.96 1077.81 1541.77 Q1076.82 1540.54 1070.94 1540.54 Z" fill="#000000" fill-rule="nonzero" fill-opacity="1"></path><path clip-path="url(#clip900)" d="M1160.72 1581 L1160.72 1577.89 Q1169.71 1577.69 1172.03 1571.07 L1192.98 1510.6 Q1193.37 1509.36 1193.82 1508.97 Q1194.26 1508.57 1195.4 1508.57 Q1195.99 1508.57 1196.34 1508.67 Q1196.73 1508.77 1196.98 1509.12 Q1197.23 1509.46 1197.33 1509.66 Q1197.42 1509.86 1197.72 1510.6 L1219.56 1573.84 Q1220.35 1576.36 1221.98 1577.15 Q1223.61 1577.89 1228.21 1577.89 L1229.98 1577.89 L1229.98 1581 Q1223.61 1580.71 1216.74 1580.71 Q1205.82 1580.71 1202.17 1581 L1202.17 1577.89 Q1210.57 1577.89 1210.57 1574.83 Q1210.57 1574.63 1210.27 1573.4 L1204.93 1557.93 L1179.93 1557.93 L1175.24 1571.17 Q1175.04 1571.57 1175.04 1572.7 Q1175.04 1574.83 1177.02 1576.36 Q1179 1577.89 1182.65 1577.89 L1182.65 1581 Q1172.92 1580.71 1170.99 1580.71 Q1167.68 1580.71 1160.72 1581 M1181.02 1554.82 L1203.8 1554.82 L1192.39 1521.91 L1181.02 1554.82 Z" fill="#000000" fill-rule="nonzero" fill-opacity="1"></path><path clip-path="url(#clip900)" d="M1236.6 1581 L1236.6 1577.89 Q1241.99 1577.89 1243.22 1577.25 Q1244.46 1576.56 1244.46 1573.3 L1244.46 1546.17 Q1244.46 1542.42 1243.13 1541.48 Q1241.84 1540.54 1236.6 1540.54 L1236.6 1537.38 L1250.83 1536.29 L1250.83 1546.91 Q1255.58 1536.29 1265.8 1536.29 Q1273.41 1536.29 1276.43 1540.05 Q1278.65 1542.57 1279.09 1545.38 Q1279.59 1548.2 1279.59 1555.51 L1279.59 1574.83 Q1279.69 1576.95 1281.32 1577.45 Q1282.95 1577.89 1287.49 1577.89 L1287.49 1581 Q1277.17 1580.71 1276.13 1580.71 Q1275.34 1580.71 1264.72 1581 L1264.72 1577.89 Q1270.1 1577.89 1271.34 1577.25 Q1272.62 1576.56 1272.62 1573.3 L1272.62 1549.73 Q1272.62 1544.59 1271.04 1541.58 Q1269.46 1538.51 1265.11 1538.51 Q1259.87 1538.51 1255.68 1542.91 Q1251.48 1547.31 1251.48 1554.72 L1251.48 1573.3 Q1251.48 1576.56 1252.71 1577.25 Q1254 1577.89 1259.33 1577.89 L1259.33 1581 Q1249.01 1580.71 1248.02 1580.71 Q1247.23 1580.71 1236.6 1581 Z" fill="#000000" fill-rule="nonzero" fill-opacity="1"></path><path clip-path="url(#clip900)" d="M1298.96 1575.57 Q1292.29 1568.95 1292.29 1559.36 Q1292.29 1549.73 1298.81 1542.71 Q1305.38 1535.65 1314.77 1535.65 Q1323.96 1535.65 1330.53 1542.66 Q1337.15 1549.63 1337.15 1559.36 Q1337.15 1568.9 1330.48 1575.52 Q1323.86 1582.14 1314.67 1582.14 Q1305.67 1582.14 1298.96 1575.57 M1300.68 1558.52 Q1300.68 1568.36 1303.25 1572.8 Q1307.21 1579.57 1314.77 1579.57 Q1318.52 1579.57 1321.63 1577.55 Q1324.8 1575.52 1326.52 1572.11 Q1328.75 1567.66 1328.75 1558.52 Q1328.75 1548.79 1326.08 1544.49 Q1322.13 1537.92 1314.67 1537.92 Q1311.41 1537.92 1308.19 1539.65 Q1305.03 1541.33 1303.11 1544.69 Q1300.68 1549.14 1300.68 1558.52 Z" fill="#000000" fill-rule="nonzero" fill-opacity="1"></path><path clip-path="url(#clip900)" d="M1343.32 1581 L1343.32 1577.89 Q1348.71 1577.89 1349.94 1577.25 Q1351.18 1576.56 1351.18 1573.3 L1351.18 1546.17 Q1351.18 1542.42 1349.84 1541.48 Q1348.56 1540.54 1343.32 1540.54 L1343.32 1537.38 L1357.55 1536.29 L1357.55 1546.91 Q1362.29 1536.29 1372.52 1536.29 Q1384.38 1536.29 1386.01 1546.17 Q1387.74 1542.32 1391.35 1539.3 Q1395 1536.29 1400.68 1536.29 Q1408.29 1536.29 1411.31 1540.05 Q1413.53 1542.57 1413.97 1545.38 Q1414.42 1548.2 1414.42 1555.51 L1414.42 1574.83 Q1414.52 1576.95 1416.15 1577.45 Q1417.78 1577.89 1422.32 1577.89 L1422.32 1581 Q1412 1580.71 1411.01 1580.71 Q1410.22 1580.71 1399.55 1581 L1399.55 1577.89 Q1404.93 1577.89 1406.17 1577.25 Q1407.45 1576.56 1407.45 1573.3 L1407.45 1549.73 Q1407.45 1544.59 1405.87 1541.58 Q1404.29 1538.51 1399.94 1538.51 Q1394.71 1538.51 1390.51 1542.91 Q1386.31 1547.31 1386.31 1554.72 L1386.31 1573.3 Q1386.31 1576.56 1387.54 1577.25 Q1388.83 1577.89 1394.21 1577.89 L1394.21 1581 Q1383.89 1580.71 1382.85 1580.71 Q1382.06 1580.71 1371.44 1581 L1371.44 1577.89 Q1376.82 1577.89 1378.06 1577.25 Q1379.34 1576.56 1379.34 1573.3 L1379.34 1549.73 Q1379.34 1544.59 1377.76 1541.58 Q1376.18 1538.51 1371.83 1538.51 Q1366.59 1538.51 1362.39 1542.91 Q1358.19 1547.31 1358.19 1554.72 L1358.19 1573.3 Q1358.19 1576.56 1359.43 1577.25 Q1360.71 1577.89 1366.05 1577.89 L1366.05 1581 Q1355.72 1580.71 1354.74 1580.71 Q1353.95 1580.71 1343.32 1581 Z" fill="#000000" fill-rule="nonzero" fill-opacity="1"></path><path clip-path="url(#clip900)" d="M1428.55 1571.37 Q1428.55 1562.77 1438.68 1558.23 Q1444.75 1555.31 1457.3 1554.57 L1457.3 1550.87 Q1457.3 1544.59 1453.99 1541.28 Q1450.73 1537.92 1446.58 1537.92 Q1439.17 1537.92 1435.61 1542.57 Q1438.63 1542.66 1439.72 1544.2 Q1440.8 1545.68 1440.8 1547.21 Q1440.8 1549.24 1439.52 1550.57 Q1438.28 1551.85 1436.16 1551.85 Q1434.13 1551.85 1432.8 1550.62 Q1431.46 1549.33 1431.46 1547.11 Q1431.46 1542.17 1435.91 1538.91 Q1440.41 1535.65 1446.78 1535.65 Q1455.08 1535.65 1460.61 1541.23 Q1462.34 1542.96 1463.18 1545.18 Q1464.07 1547.41 1464.17 1548.89 Q1464.27 1550.32 1464.27 1553.19 L1464.27 1573.4 Q1464.27 1573.99 1464.47 1574.98 Q1464.67 1575.96 1465.55 1577.25 Q1466.49 1578.48 1468.03 1578.48 Q1471.68 1578.48 1471.63 1572.01 L1471.63 1566.33 L1474.2 1566.33 L1474.2 1572.01 Q1474.2 1577.4 1471.34 1579.52 Q1468.52 1581.6 1465.9 1581.6 Q1462.54 1581.6 1460.42 1579.13 Q1458.29 1576.66 1458 1573.3 Q1456.46 1577.15 1452.96 1579.67 Q1449.5 1582.14 1444.75 1582.14 Q1441.1 1582.14 1437.64 1581.2 Q1434.23 1580.31 1431.37 1577.79 Q1428.55 1575.22 1428.55 1571.37 M1436.36 1571.27 Q1436.36 1575.03 1439.02 1577.45 Q1441.69 1579.87 1445.45 1579.87 Q1449.7 1579.87 1453.5 1576.61 Q1457.3 1573.3 1457.3 1566.82 L1457.3 1556.7 Q1446.09 1557.09 1441.2 1561.59 Q1436.36 1566.03 1436.36 1571.27 Z" fill="#000000" fill-rule="nonzero" fill-opacity="1"></path><path clip-path="url(#clip900)" d="M1478.25 1581 L1478.25 1577.89 Q1483.64 1577.89 1484.87 1577.25 Q1486.11 1576.56 1486.11 1573.3 L1486.11 1520.68 Q1486.11 1516.92 1484.77 1515.98 Q1483.49 1515.05 1478.25 1515.05 L1478.25 1511.88 L1492.78 1510.8 L1492.78 1573.3 Q1492.78 1576.56 1494.06 1577.25 Q1495.35 1577.89 1500.68 1577.89 L1500.68 1581 Q1499.45 1581 1496.88 1580.91 Q1494.31 1580.81 1492.43 1580.76 Q1490.55 1580.71 1489.47 1580.71 Q1488.28 1580.71 1478.25 1581 Z" fill="#000000" fill-rule="nonzero" fill-opacity="1"></path><path clip-path="url(#clip900)" d="M1504.83 1593.55 Q1504.83 1591.43 1506.07 1590.29 Q1507.35 1589.21 1509.08 1589.21 Q1510.91 1589.21 1512.1 1590.34 Q1513.33 1591.53 1513.33 1593.45 Q1513.33 1597.21 1509.38 1597.7 Q1511.31 1599.53 1514.12 1599.53 Q1517.14 1599.53 1519.56 1597.31 Q1522.03 1595.08 1523.06 1592.96 Q1524.15 1590.84 1525.68 1586.98 Q1527.12 1583.97 1528.2 1581 L1513.03 1544.05 Q1512.05 1541.63 1510.52 1541.08 Q1508.98 1540.54 1504.83 1540.54 L1504.83 1537.38 Q1509.38 1537.67 1514.67 1537.67 Q1517.78 1537.67 1525.68 1537.38 L1525.68 1540.54 Q1520 1540.54 1520 1543.16 Q1520 1543.45 1520.59 1544.99 L1531.86 1572.21 L1542.09 1547.31 Q1542.68 1545.88 1542.68 1544.89 Q1542.68 1540.74 1537.94 1540.54 L1537.94 1537.38 Q1544.61 1537.67 1546.73 1537.67 Q1550.88 1537.67 1554.29 1537.38 L1554.29 1540.54 Q1547.52 1540.54 1544.9 1547.01 L1527.07 1590.19 Q1522.22 1601.71 1514.12 1601.75 Q1510.27 1601.75 1507.55 1599.38 Q1504.83 1597.01 1504.83 1593.55 Z" fill="#000000" fill-rule="nonzero" fill-opacity="1"></path><polyline clip-path="url(#clip902)" style="stroke:#000000; stroke-linecap:round; stroke-linejoin:round; stroke-width:2; stroke-opacity:0.1; fill:none" points="203.802,1384.3 2352.76,1384.3 "></polyline>
<polyline clip-path="url(#clip902)" style="stroke:#000000; stroke-linecap:round; stroke-linejoin:round; stroke-width:2; stroke-opacity:0.1; fill:none" points="203.802,985.571 2352.76,985.571 "></polyline>
<polyline clip-path="url(#clip902)" style="stroke:#000000; stroke-linecap:round; stroke-linejoin:round; stroke-width:2; stroke-opacity:0.1; fill:none" points="203.802,586.842 2352.76,586.842 "></polyline>
<polyline clip-path="url(#clip902)" style="stroke:#000000; stroke-linecap:round; stroke-linejoin:round; stroke-width:2; stroke-opacity:0.1; fill:none" points="203.802,188.113 2352.76,188.113 "></polyline>
<polyline clip-path="url(#clip900)" style="stroke:#000000; stroke-linecap:round; stroke-linejoin:round; stroke-width:4; stroke-opacity:1; fill:none" points="203.802,1384.3 203.802,47.2441 "></polyline>
<polyline clip-path="url(#clip900)" style="stroke:#000000; stroke-linecap:round; stroke-linejoin:round; stroke-width:4; stroke-opacity:1; fill:none" points="203.802,1384.3 222.699,1384.3 "></polyline>
<polyline clip-path="url(#clip900)" style="stroke:#000000; stroke-linecap:round; stroke-linejoin:round; stroke-width:4; stroke-opacity:1; fill:none" points="203.802,985.571 222.699,985.571 "></polyline>
<polyline clip-path="url(#clip900)" style="stroke:#000000; stroke-linecap:round; stroke-linejoin:round; stroke-width:4; stroke-opacity:1; fill:none" points="203.802,586.842 222.699,586.842 "></polyline>
<polyline clip-path="url(#clip900)" style="stroke:#000000; stroke-linecap:round; stroke-linejoin:round; stroke-width:4; stroke-opacity:1; fill:none" points="203.802,188.113 222.699,188.113 "></polyline>
<path clip-path="url(#clip900)" d="M135.86 1385.95 Q135.86 1374.8 138.676 1368.72 Q142.604 1359.68 151.868 1359.68 Q153.832 1359.68 155.87 1360.23 Q157.945 1360.75 160.539 1362.79 Q163.17 1364.83 164.763 1368.16 Q167.802 1374.61 167.802 1385.95 Q167.802 1397.03 164.985 1403.07 Q160.872 1411.89 151.794 1411.89 Q148.385 1411.89 144.902 1410.15 Q141.455 1408.4 139.269 1404.22 Q135.86 1397.95 135.86 1385.95 M142.16 1385.02 Q142.16 1396.47 142.975 1401.03 Q143.901 1405.96 146.421 1408.11 Q148.978 1410.22 151.794 1410.22 Q154.832 1410.22 157.352 1407.96 Q159.909 1405.66 160.687 1400.73 Q161.539 1395.88 161.502 1385.02 Q161.502 1374.46 160.761 1370.24 Q159.761 1365.31 157.093 1363.35 Q154.462 1361.34 151.794 1361.34 Q150.793 1361.34 149.719 1361.64 Q148.681 1361.94 147.162 1362.79 Q145.643 1363.64 144.457 1365.75 Q143.308 1367.87 142.752 1371.05 Q142.16 1375.17 142.16 1385.02 Z" fill="#000000" fill-rule="nonzero" fill-opacity="1"></path><path clip-path="url(#clip900)" d="M142.752 968.174 L142.752 965.802 Q151.868 965.802 156.574 960.948 Q157.871 960.948 158.093 961.244 Q158.316 961.541 158.316 962.912 L158.316 1005.49 Q158.316 1007.75 159.427 1008.45 Q160.539 1009.16 165.393 1009.16 L167.802 1009.16 L167.802 1011.49 Q165.134 1011.27 155.499 1011.27 Q145.865 1011.27 143.234 1011.49 L143.234 1009.16 L145.643 1009.16 Q150.423 1009.16 151.571 1008.49 Q152.72 1007.79 152.72 1005.49 L152.72 966.173 Q148.755 968.174 142.752 968.174 Z" fill="#000000" fill-rule="nonzero" fill-opacity="1"></path><path clip-path="url(#clip900)" d="M137.491 612.762 Q137.491 611.391 137.602 610.983 Q137.75 610.576 138.343 609.946 L152.905 593.716 Q160.872 584.748 160.872 576.93 Q160.872 571.853 158.204 568.222 Q155.573 564.591 150.719 564.591 Q147.384 564.591 144.568 566.629 Q141.752 568.667 140.455 572.298 Q140.677 572.224 141.455 572.224 Q143.345 572.224 144.383 573.41 Q145.457 574.595 145.457 576.189 Q145.457 578.227 144.123 579.227 Q142.827 580.191 141.53 580.191 Q141.011 580.191 140.307 580.08 Q139.64 579.968 138.565 578.931 Q137.491 577.856 137.491 575.966 Q137.491 570.668 141.493 566.443 Q145.532 562.219 151.683 562.219 Q158.649 562.219 163.207 566.369 Q167.802 570.482 167.802 576.93 Q167.802 579.19 167.098 581.265 Q166.431 583.303 165.504 584.897 Q164.615 586.49 162.169 589.047 Q159.724 591.604 157.76 593.419 Q155.796 595.235 151.386 599.089 L143.345 606.907 L157.019 606.907 Q163.688 606.907 164.207 606.314 Q164.948 605.24 165.875 599.57 L167.802 599.57 L165.652 612.762 L137.491 612.762 Z" fill="#000000" fill-rule="nonzero" fill-opacity="1"></path><path clip-path="url(#clip900)" d="M136.305 203.806 Q136.305 201.546 137.602 200.471 Q138.899 199.396 140.566 199.396 Q142.308 199.396 143.531 200.545 Q144.79 201.657 144.79 203.621 Q144.79 205.733 143.308 206.919 Q141.863 208.104 139.788 207.808 Q141.604 210.846 144.939 212.217 Q148.311 213.589 151.423 213.589 Q154.684 213.589 157.315 210.772 Q159.983 207.956 159.983 201.064 Q159.983 195.209 157.686 191.837 Q155.425 188.465 150.942 188.465 L147.607 188.465 Q146.458 188.465 146.124 188.354 Q145.791 188.243 145.791 187.613 Q145.791 186.872 146.94 186.724 Q148.088 186.724 149.904 186.501 Q154.314 186.353 156.648 182.536 Q158.76 178.979 158.76 173.903 Q158.76 169.271 156.537 167.344 Q154.351 165.38 151.497 165.38 Q148.829 165.38 145.902 166.492 Q142.975 167.603 141.381 170.086 Q146.087 170.086 146.087 173.903 Q146.087 175.57 145.013 176.682 Q143.975 177.756 142.234 177.756 Q140.566 177.756 139.454 176.719 Q138.343 175.644 138.343 173.828 Q138.343 169.493 142.197 166.492 Q146.087 163.49 151.794 163.49 Q157.426 163.49 161.576 166.454 Q165.764 169.419 165.764 173.977 Q165.764 178.46 162.799 182.129 Q159.835 185.797 155.129 187.316 Q160.909 188.465 164.355 192.393 Q167.802 196.284 167.802 201.064 Q167.802 206.993 163.133 211.365 Q158.464 215.701 151.646 215.701 Q145.346 215.701 140.826 212.292 Q136.305 208.883 136.305 203.806 Z" fill="#000000" fill-rule="nonzero" fill-opacity="1"></path><path clip-path="url(#clip900)" d="M95.626 1129.01 Q95.626 1123.62 94.9343 1122.39 Q94.292 1121.1 91.0806 1121.1 L43.6995 1121.1 Q40.3399 1121.1 39.5 1122.39 Q38.6601 1123.62 38.6601 1129.01 L35.498 1129.01 L34.4111 1114.43 L41.081 1114.43 Q34.4111 1108.36 34.4111 1100.26 Q34.4111 1091.66 41.081 1085.38 Q47.7509 1079.11 57.2864 1079.11 Q66.9207 1079.11 73.5906 1085.78 Q80.2605 1092.45 80.2605 1101.69 Q80.2605 1106.73 77.6914 1110.14 Q75.0728 1113.5 73.1459 1114.14 L74.0847 1114.14 L91.0806 1114.14 Q94.3414 1114.14 94.9837 1112.85 Q95.626 1111.57 95.626 1106.23 L98.7386 1106.23 Q98.4422 1116.86 98.4422 1117.65 Q98.4422 1118.63 98.7386 1129.01 L95.626 1129.01 M67.6124 1114.14 Q69.144 1114.14 69.6875 1113.94 Q70.2309 1113.69 71.8614 1112.71 Q77.9878 1108.7 77.9878 1102.18 Q77.9878 1102.13 77.9878 1102.08 Q77.9878 1096.3 72.1084 1091.91 Q66.1796 1087.51 57.2864 1087.51 Q48.7884 1087.51 42.8596 1091.51 Q36.9308 1095.51 36.9308 1101.05 Q36.9308 1105 39.0553 1108.46 Q41.1798 1111.92 45.0335 1114.14 L67.6124 1114.14 Z" fill="#000000" fill-rule="nonzero" fill-opacity="1"></path><path clip-path="url(#clip900)" d="M79.1242 1072.88 L76.0115 1072.88 Q76.0115 1067.5 75.3692 1066.26 Q74.6776 1064.98 71.4167 1064.98 L44.2924 1064.98 Q40.5375 1064.98 39.5988 1066.31 Q38.6601 1067.6 38.6601 1072.88 L35.498 1072.88 L34.4111 1058.8 L45.5276 1058.8 Q41.1798 1057.37 37.8201 1054.36 Q34.4111 1051.29 34.4111 1046.35 Q34.4111 1043.09 36.2391 1041.02 Q38.0672 1038.89 40.5869 1038.89 Q42.8102 1038.89 43.9466 1040.28 Q45.0335 1041.61 45.0335 1043.24 Q45.0335 1045.07 43.8972 1046.35 Q42.7114 1047.59 40.6857 1047.59 Q39.4506 1047.59 38.5118 1047.04 Q37.5237 1046.45 37.1779 1046.01 Q36.832 1045.56 36.7332 1045.27 Q36.6344 1045.46 36.6344 1046.35 Q36.6344 1051.94 42.2173 1055.15 Q47.7509 1058.31 55.656 1058.31 L71.2191 1058.31 Q74.1341 1058.31 75.0728 1057.12 Q76.0115 1055.89 76.0115 1050.6 L76.0115 1048.48 L79.1242 1048.48 Q78.8277 1052.53 78.8277 1061.32 Q78.8277 1062.56 78.8771 1064.48 Q78.9265 1066.41 79.0253 1068.93 Q79.1242 1071.45 79.1242 1072.88 Z" fill="#000000" fill-rule="nonzero" fill-opacity="1"></path><path clip-path="url(#clip900)" d="M73.6894 1026.69 Q67.0689 1033.36 57.484 1033.36 Q47.8497 1033.36 40.834 1026.84 Q33.7688 1020.27 33.7688 1010.88 Q33.7688 1001.69 40.7845 995.118 Q47.7509 988.497 57.484 988.497 Q67.0195 988.497 73.64 995.167 Q80.2605 1001.79 80.2605 1010.98 Q80.2605 1019.97 73.6894 1026.69 M56.6441 1024.96 Q66.476 1024.96 70.9226 1022.39 Q77.6914 1018.44 77.6914 1010.88 Q77.6914 1007.12 75.6657 1004.01 Q73.64 1000.85 70.2309 999.12 Q65.7843 996.896 56.6441 996.896 Q46.911 996.896 42.6126 999.564 Q36.0415 1003.52 36.0415 1010.98 Q36.0415 1014.24 37.7707 1017.45 Q39.4506 1020.61 42.8102 1022.54 Q47.2568 1024.96 56.6441 1024.96 Z" fill="#000000" fill-rule="nonzero" fill-opacity="1"></path><path clip-path="url(#clip900)" d="M13.1662 982.766 L10.0042 982.766 L8.91721 968.191 L40.9822 968.191 Q34.4111 962.311 34.4111 954.308 Q34.4111 945.612 41.081 939.239 Q47.7509 932.865 57.2864 932.865 Q66.9207 932.865 73.5906 939.535 Q80.2605 946.205 80.2605 955.444 Q80.2605 963.843 72.8495 968.685 Q79.0253 972.242 79.1242 972.341 L79.1242 974.861 L18.7986 974.861 Q15.0436 974.861 14.1049 976.195 Q13.1662 977.529 13.1662 982.766 M67.6124 967.894 Q69.7369 967.894 71.8614 966.462 Q77.9878 962.46 77.9878 955.938 Q77.9878 955.889 77.9878 955.839 Q77.9878 948.774 71.5155 944.377 Q66.6737 941.264 57.1876 941.264 Q47.8003 941.264 43.1067 944.179 Q36.6344 948.231 36.6344 954.802 Q36.6344 962.213 43.1067 966.758 Q44.7371 967.894 46.7628 967.894 L67.6124 967.894 Z" fill="#000000" fill-rule="nonzero" fill-opacity="1"></path><path clip-path="url(#clip900)" d="M69.4898 925.207 Q60.8931 925.207 56.3477 915.079 Q53.4327 909.002 52.6916 896.452 L48.9861 896.452 Q42.7114 896.452 39.4012 899.763 Q36.0415 903.023 36.0415 907.174 Q36.0415 914.585 40.6857 918.142 Q40.7845 915.128 42.3162 914.041 Q43.7984 912.954 45.33 912.954 Q47.3556 912.954 48.6896 914.239 Q49.9742 915.474 49.9742 917.598 Q49.9742 919.624 48.739 920.958 Q47.4545 922.292 45.2311 922.292 Q40.2905 922.292 37.0296 917.845 Q33.7688 913.349 33.7688 906.976 Q33.7688 898.676 39.3517 893.142 Q41.081 891.413 43.3043 890.573 Q45.5276 889.684 47.0098 889.585 Q48.4426 889.486 51.3082 889.486 L71.5155 889.486 Q72.1084 889.486 73.0965 889.288 Q74.0847 889.091 75.3692 888.201 Q76.6044 887.263 76.6044 885.731 Q76.6044 882.075 70.1321 882.124 L64.4504 882.124 L64.4504 879.555 L70.1321 879.555 Q75.5175 879.555 77.642 882.421 Q79.717 885.237 79.717 887.856 Q79.717 891.215 77.2467 893.34 Q74.7764 895.464 71.4167 895.761 Q75.2704 897.292 77.7902 900.8 Q80.2605 904.259 80.2605 909.002 Q80.2605 912.658 79.3218 916.116 Q78.4325 919.525 75.9127 922.391 Q73.3436 925.207 69.4898 925.207 M69.391 917.401 Q73.1459 917.401 75.5669 914.733 Q77.9878 912.065 77.9878 908.31 Q77.9878 904.061 74.727 900.257 Q71.4167 896.452 64.9444 896.452 L54.8161 896.452 Q55.2113 907.668 59.7073 912.559 Q64.1539 917.401 69.391 917.401 Z" fill="#000000" fill-rule="nonzero" fill-opacity="1"></path><path clip-path="url(#clip900)" d="M13.1662 876.047 L10.0042 876.047 L8.91721 861.472 L40.9822 861.472 Q34.4111 855.593 34.4111 847.589 Q34.4111 838.894 41.081 832.52 Q47.7509 826.147 57.2864 826.147 Q66.9207 826.147 73.5906 832.816 Q80.2605 839.486 80.2605 848.725 Q80.2605 857.125 72.8495 861.966 Q79.0253 865.524 79.1242 865.623 L79.1242 868.142 L18.7986 868.142 Q15.0436 868.142 14.1049 869.476 Q13.1662 870.81 13.1662 876.047 M67.6124 861.176 Q69.7369 861.176 71.8614 859.743 Q77.9878 855.741 77.9878 849.22 Q77.9878 849.17 77.9878 849.121 Q77.9878 842.056 71.5155 837.658 Q66.6737 834.546 57.1876 834.546 Q47.8003 834.546 43.1067 837.461 Q36.6344 841.512 36.6344 848.083 Q36.6344 855.494 43.1067 860.04 Q44.7371 861.176 46.7628 861.176 L67.6124 861.176 Z" fill="#000000" fill-rule="nonzero" fill-opacity="1"></path><path clip-path="url(#clip900)" d="M79.1242 819.378 L76.0115 819.378 Q76.0115 813.993 75.3692 812.757 Q74.6776 811.522 71.4167 811.522 L44.1936 811.522 Q40.4387 811.522 39.5494 812.807 Q38.6601 814.042 38.6601 818.983 L35.498 818.983 L34.4111 804.852 L71.5155 804.852 Q74.5293 804.852 75.2704 803.765 Q76.0115 802.678 76.0115 797.738 L79.1242 797.738 Q78.8277 808.064 78.8277 808.261 Q78.8277 809.645 79.1242 819.378 M16.7729 815.129 Q14.7472 815.129 13.1168 813.597 Q11.437 812.016 11.437 809.793 Q11.437 807.57 12.9686 805.989 Q14.4508 804.408 16.8223 804.408 Q19.1444 804.408 20.676 805.989 Q22.1582 807.57 22.1582 809.793 Q22.1582 812.115 20.5278 813.647 Q18.8974 815.129 16.7729 815.129 Z" fill="#000000" fill-rule="nonzero" fill-opacity="1"></path><path clip-path="url(#clip900)" d="M79.1242 791.364 L76.0115 791.364 Q76.0115 785.979 75.3692 784.744 Q74.6776 783.509 71.4167 783.509 L18.7986 783.509 Q15.0436 783.509 14.1049 784.843 Q13.1662 786.127 13.1662 791.364 L10.0042 791.364 L8.91721 776.839 L71.4167 776.839 Q74.6776 776.839 75.3692 775.554 Q76.0115 774.27 76.0115 768.934 L79.1242 768.934 Q79.1242 770.169 79.0253 772.738 Q78.9265 775.307 78.8771 777.185 Q78.8277 779.062 78.8277 780.149 Q78.8277 781.335 79.1242 791.364 Z" fill="#000000" fill-rule="nonzero" fill-opacity="1"></path><path clip-path="url(#clip900)" d="M79.1242 763.351 L76.0115 763.351 Q76.0115 757.965 75.3692 756.73 Q74.6776 755.495 71.4167 755.495 L44.1936 755.495 Q40.4387 755.495 39.5494 756.78 Q38.6601 758.015 38.6601 762.955 L35.498 762.955 L34.4111 748.825 L71.5155 748.825 Q74.5293 748.825 75.2704 747.738 Q76.0115 746.651 76.0115 741.71 L79.1242 741.71 Q78.8277 752.037 78.8277 752.234 Q78.8277 753.618 79.1242 763.351 M16.7729 759.102 Q14.7472 759.102 13.1168 757.57 Q11.437 755.989 11.437 753.766 Q11.437 751.542 12.9686 749.961 Q14.4508 748.38 16.8223 748.38 Q19.1444 748.38 20.676 749.961 Q22.1582 751.542 22.1582 753.766 Q22.1582 756.088 20.5278 757.619 Q18.8974 759.102 16.7729 759.102 Z" fill="#000000" fill-rule="nonzero" fill-opacity="1"></path><path clip-path="url(#clip900)" d="M38.6601 736.77 L36.4368 736.77 Q36.2391 732.126 32.9783 729.062 Q29.668 725.95 25.6167 724.912 Q21.5653 723.825 16.8717 723.726 L16.8717 721.207 L35.498 721.207 L35.498 706.731 L38.6601 706.731 L38.6601 721.207 L66.7725 721.207 Q77.6914 721.207 77.6914 714.389 Q77.6914 711.474 74.727 709.547 Q71.7131 707.62 66.3772 707.62 L60.7943 707.62 L60.7943 705.1 L66.5749 705.1 Q72.059 705.1 76.1598 707.62 Q80.2605 710.14 80.2605 715.13 Q80.2605 716.958 79.7664 718.786 Q79.3218 720.564 78.136 722.936 Q76.9009 725.258 73.9365 726.74 Q70.9226 728.173 66.5749 728.173 L38.6601 728.173 L38.6601 736.77 Z" fill="#000000" fill-rule="nonzero" fill-opacity="1"></path><path clip-path="url(#clip900)" d="M91.6735 700.357 Q89.549 700.357 88.4126 699.122 Q87.3257 697.837 87.3257 696.108 Q87.3257 694.28 88.462 693.094 Q89.6478 691.859 91.5747 691.859 Q95.3296 691.859 95.8236 695.812 Q97.6517 693.885 97.6517 691.069 Q97.6517 688.055 95.4284 685.634 Q93.2051 683.164 91.0806 682.126 Q88.9561 681.039 85.1024 679.507 Q82.0886 678.075 79.1242 676.988 L42.1679 692.156 Q39.747 693.144 39.2035 694.675 Q38.6601 696.207 38.6601 700.357 L35.498 700.357 Q35.7945 695.812 35.7945 690.525 Q35.7945 687.413 35.498 679.507 L38.6601 679.507 Q38.6601 685.189 41.2786 685.189 Q41.5751 685.189 43.1067 684.596 L70.3298 673.332 L45.4288 663.104 Q43.996 662.512 43.0078 662.512 Q38.8577 662.512 38.6601 667.255 L35.498 667.255 Q35.7945 660.585 35.7945 658.46 Q35.7945 654.31 35.498 650.901 L38.6601 650.901 Q38.6601 657.67 45.1323 660.288 L88.3138 678.124 Q99.8256 682.966 99.875 691.069 Q99.875 694.922 97.5035 697.64 Q95.1319 700.357 91.6735 700.357 Z" fill="#000000" fill-rule="nonzero" fill-opacity="1"></path><path clip-path="url(#clip900)" d="M57.3852 611.87 Q47.7509 611.87 41.081 605.15 Q34.4111 598.431 34.4111 589.34 Q34.4111 581.633 40.6857 576.593 L18.7986 576.593 Q15.0436 576.593 14.1049 577.927 Q13.1662 579.212 13.1662 584.449 L10.0042 584.449 L8.91721 569.874 L70.3298 569.874 Q74.0847 569.874 75.0728 568.589 Q76.0115 567.255 76.0115 562.018 L79.1242 562.018 L80.2605 576.89 L73.5412 576.89 Q80.2111 582.127 80.2605 590.427 Q80.2605 599.123 73.5906 605.496 Q66.9207 611.87 57.3852 611.87 M57.484 603.47 Q66.8713 603.47 71.5155 600.555 Q77.9878 596.504 77.9878 589.933 Q77.9878 582.423 70.9226 577.977 Q69.1934 576.84 67.1677 576.89 L46.4169 576.89 Q44.3912 576.89 42.7114 577.977 Q36.6344 582.127 36.6344 588.896 Q36.6344 595.961 43.1067 600.358 Q47.9485 603.47 57.484 603.47 Z" fill="#000000" fill-rule="nonzero" fill-opacity="1"></path><path clip-path="url(#clip900)" d="M56.8417 556.386 Q47.3062 556.386 40.5375 550.259 Q33.7688 544.133 33.7688 535.339 Q33.7688 526.445 39.5494 521.851 Q45.33 517.206 53.6303 517.206 Q55.1619 517.206 55.4583 517.602 Q55.7548 517.997 55.7548 519.726 L55.7548 547.987 Q66.0808 547.987 70.9226 544.924 Q77.6914 540.675 77.6914 533.511 Q77.6914 532.522 77.4937 531.337 Q77.2961 530.151 76.4562 527.73 Q75.5669 525.309 73.2448 523.185 Q70.9226 521.06 67.2665 519.825 Q65.8338 519.528 65.8832 518.54 Q65.8832 517.206 67.0689 517.206 Q67.9582 517.206 69.9839 518.194 Q71.9602 519.133 74.3317 520.961 Q76.7032 522.789 78.4819 526.347 Q80.2605 529.854 80.2605 534.103 Q80.2605 542.997 73.5412 549.716 Q66.7725 556.386 56.8417 556.386 M53.6303 547.888 L53.6303 523.876 Q51.5058 523.876 49.1343 524.272 Q46.7628 524.617 43.5019 525.704 Q40.1917 526.742 38.1166 529.212 Q36.0415 531.683 36.0415 535.339 Q36.0415 536.969 36.7332 538.748 Q37.4249 540.477 39.1047 542.601 Q40.7845 544.726 44.5889 546.208 Q48.3932 547.69 53.6303 547.888 Z" fill="#000000" fill-rule="nonzero" fill-opacity="1"></path><path clip-path="url(#clip900)" d="M79.1242 511.031 L76.0115 511.031 Q76.0115 505.645 75.3692 504.41 Q74.6776 503.175 71.4167 503.175 L44.2924 503.175 Q40.5375 503.175 39.5988 504.509 Q38.6601 505.793 38.6601 511.031 L35.498 511.031 L34.4111 496.801 L45.0335 496.801 Q34.4111 492.058 34.4111 481.831 Q34.4111 474.223 38.166 471.209 Q40.6857 468.985 43.5019 468.541 Q46.3181 468.047 53.6303 468.047 L72.9483 468.047 Q75.0728 467.948 75.5669 466.317 Q76.0115 464.687 76.0115 460.142 L79.1242 460.142 Q78.8277 470.468 78.8277 471.505 Q78.8277 472.296 79.1242 482.918 L76.0115 482.918 Q76.0115 477.533 75.3692 476.298 Q74.6776 475.013 71.4167 475.013 L47.8497 475.013 Q42.7114 475.013 39.6976 476.594 Q36.6344 478.175 36.6344 482.523 Q36.6344 487.76 41.0316 491.96 Q45.4288 496.159 52.8398 496.159 L71.4167 496.159 Q74.6776 496.159 75.3692 494.924 Q76.0115 493.639 76.0115 488.303 L79.1242 488.303 Q78.8277 498.629 78.8277 499.618 Q78.8277 500.408 79.1242 511.031 Z" fill="#000000" fill-rule="nonzero" fill-opacity="1"></path><path clip-path="url(#clip900)" d="M77.7902 454.806 L64.4504 454.806 Q63.314 454.806 62.9188 454.756 Q62.5235 454.707 62.2271 454.41 Q61.9306 454.114 61.9306 453.521 Q61.9306 452.829 62.2271 452.582 Q62.5235 452.286 63.6599 452.088 Q70.6262 450.557 74.3317 447.296 Q77.9878 443.986 77.9878 438.007 Q77.9878 432.326 75.4681 429.46 Q72.9483 426.594 68.7982 426.594 Q61.3871 426.594 59.5097 437.118 Q58.2745 443.195 57.484 445.715 Q56.6441 448.235 54.8161 450.458 Q51.2588 454.806 46.2193 454.806 Q41.1798 454.806 37.4743 451.001 Q33.7688 447.148 33.7688 438.65 Q33.7688 432.968 36.6344 429.114 Q35.7451 427.978 35.004 427.385 Q33.7688 426.051 33.7688 425.359 Q33.7688 424.569 34.3123 424.421 Q34.8063 424.272 36.2391 424.272 L46.4169 424.272 Q47.5533 424.272 47.9485 424.322 Q48.3438 424.371 48.6402 424.668 Q48.8872 424.964 48.8872 425.606 Q48.8872 426.743 47.9485 426.792 Q35.6957 427.583 35.6957 438.65 Q35.6957 444.628 38.0178 447.296 Q40.2905 449.964 43.4031 449.964 Q45.1323 449.964 46.4663 449.173 Q47.7509 448.333 48.5414 447.296 Q49.2825 446.209 50.0236 444.233 Q50.7153 442.256 50.9623 441.071 Q51.2094 439.835 51.7034 437.513 Q53.235 429.411 56.5453 426.002 Q60.7943 421.753 66.1796 421.753 Q72.1578 421.753 76.2092 425.804 Q80.2605 429.855 80.2605 438.007 Q80.2605 444.578 75.8633 449.173 Q76.4562 449.766 76.9997 450.211 Q77.4937 450.656 77.6914 450.853 Q77.889 451.001 78.0372 451.051 Q78.136 451.1 78.2348 451.199 Q80.2605 453.225 80.2605 453.719 Q80.2605 454.509 79.717 454.657 Q79.223 454.806 77.7902 454.806 Z" fill="#000000" fill-rule="nonzero" fill-opacity="1"></path><path clip-path="url(#clip900)" d="M79.1242 414.984 L76.0115 414.984 Q76.0115 409.599 75.3692 408.363 Q74.6776 407.128 71.4167 407.128 L44.1936 407.128 Q40.4387 407.128 39.5494 408.413 Q38.6601 409.648 38.6601 414.589 L35.498 414.589 L34.4111 400.458 L71.5155 400.458 Q74.5293 400.458 75.2704 399.371 Q76.0115 398.284 76.0115 393.344 L79.1242 393.344 Q78.8277 403.67 78.8277 403.867 Q78.8277 405.251 79.1242 414.984 M16.7729 410.735 Q14.7472 410.735 13.1168 409.203 Q11.437 407.622 11.437 405.399 Q11.437 403.176 12.9686 401.595 Q14.4508 400.014 16.8223 400.014 Q19.1444 400.014 20.676 401.595 Q22.1582 403.176 22.1582 405.399 Q22.1582 407.721 20.5278 409.253 Q18.8974 410.735 16.7729 410.735 Z" fill="#000000" fill-rule="nonzero" fill-opacity="1"></path><path clip-path="url(#clip900)" d="M38.6601 388.403 L36.4368 388.403 Q36.2391 383.759 32.9783 380.696 Q29.668 377.583 25.6167 376.545 Q21.5653 375.458 16.8717 375.36 L16.8717 372.84 L35.498 372.84 L35.498 358.364 L38.6601 358.364 L38.6601 372.84 L66.7725 372.84 Q77.6914 372.84 77.6914 366.022 Q77.6914 363.107 74.727 361.18 Q71.7131 359.253 66.3772 359.253 L60.7943 359.253 L60.7943 356.733 L66.5749 356.733 Q72.059 356.733 76.1598 359.253 Q80.2605 361.773 80.2605 366.763 Q80.2605 368.591 79.7664 370.419 Q79.3218 372.198 78.136 374.569 Q76.9009 376.891 73.9365 378.373 Q70.9226 379.806 66.5749 379.806 L38.6601 379.806 L38.6601 388.403 Z" fill="#000000" fill-rule="nonzero" fill-opacity="1"></path><path clip-path="url(#clip900)" d="M91.6735 351.99 Q89.549 351.99 88.4126 350.755 Q87.3257 349.471 87.3257 347.741 Q87.3257 345.913 88.462 344.728 Q89.6478 343.492 91.5747 343.492 Q95.3296 343.492 95.8236 347.445 Q97.6517 345.518 97.6517 342.702 Q97.6517 339.688 95.4284 337.267 Q93.2051 334.797 91.0806 333.759 Q88.9561 332.672 85.1024 331.141 Q82.0886 329.708 79.1242 328.621 L42.1679 343.789 Q39.747 344.777 39.2035 346.309 Q38.6601 347.84 38.6601 351.99 L35.498 351.99 Q35.7945 347.445 35.7945 342.158 Q35.7945 339.046 35.498 331.141 L38.6601 331.141 Q38.6601 336.822 41.2786 336.822 Q41.5751 336.822 43.1067 336.23 L70.3298 324.965 L45.4288 314.738 Q43.996 314.145 43.0078 314.145 Q38.8577 314.145 38.6601 318.888 L35.498 318.888 Q35.7945 312.218 35.7945 310.093 Q35.7945 305.943 35.498 302.534 L38.6601 302.534 Q38.6601 309.303 45.1323 311.921 L88.3138 329.757 Q99.8256 334.599 99.875 342.702 Q99.875 346.556 97.5035 349.273 Q95.1319 351.99 91.6735 351.99 Z" fill="#000000" fill-rule="nonzero" fill-opacity="1"></path><path clip-path="url(#clip902)" d="M666.918 321.023 L666.918 1384.3 L880.638 1384.3 L880.638 321.023 L666.918 321.023 L666.918 321.023  Z" fill="#000000" fill-rule="evenodd" fill-opacity="0.25"></path>
<polyline clip-path="url(#clip902)" style="stroke:#000000; stroke-linecap:round; stroke-linejoin:round; stroke-width:4; stroke-opacity:0.25; fill:none" points="666.918,321.023 666.918,1384.3 880.638,1384.3 880.638,321.023 666.918,321.023 "></polyline>
<path clip-path="url(#clip902)" d="M880.638 55.2035 L880.638 1384.3 L1094.36 1384.3 L1094.36 55.2035 L880.638 55.2035 L880.638 55.2035  Z" fill="#000000" fill-rule="evenodd" fill-opacity="0.25"></path>
<polyline clip-path="url(#clip902)" style="stroke:#000000; stroke-linecap:round; stroke-linejoin:round; stroke-width:4; stroke-opacity:0.25; fill:none" points="880.638,55.2035 880.638,1384.3 1094.36,1384.3 1094.36,55.2035 880.638,55.2035 "></polyline>
<path clip-path="url(#clip902)" d="M1094.36 693.17 L1094.36 1384.3 L1308.08 1384.3 L1308.08 693.17 L1094.36 693.17 L1094.36 693.17  Z" fill="#000000" fill-rule="evenodd" fill-opacity="0.25"></path>
<polyline clip-path="url(#clip902)" style="stroke:#000000; stroke-linecap:round; stroke-linejoin:round; stroke-width:4; stroke-opacity:0.25; fill:none" points="1094.36,693.17 1094.36,1384.3 1308.08,1384.3 1308.08,693.17 1094.36,693.17 "></polyline>
<path clip-path="url(#clip902)" d="M1308.08 1171.64 L1308.08 1384.3 L1521.8 1384.3 L1521.8 1171.64 L1308.08 1171.64 L1308.08 1171.64  Z" fill="#000000" fill-rule="evenodd" fill-opacity="0.25"></path>
<polyline clip-path="url(#clip902)" style="stroke:#000000; stroke-linecap:round; stroke-linejoin:round; stroke-width:4; stroke-opacity:0.25; fill:none" points="1308.08,1171.64 1308.08,1384.3 1521.8,1384.3 1521.8,1171.64 1308.08,1171.64 "></polyline>
<path clip-path="url(#clip902)" d="M1521.8 746.334 L1521.8 1384.3 L1735.52 1384.3 L1735.52 746.334 L1521.8 746.334 L1521.8 746.334  Z" fill="#000000" fill-rule="evenodd" fill-opacity="0.25"></path>
<polyline clip-path="url(#clip902)" style="stroke:#000000; stroke-linecap:round; stroke-linejoin:round; stroke-width:4; stroke-opacity:0.25; fill:none" points="1521.8,746.334 1521.8,1384.3 1735.52,1384.3 1735.52,746.334 1521.8,746.334 "></polyline>
<path clip-path="url(#clip902)" d="M1735.52 1331.14 L1735.52 1384.3 L1949.24 1384.3 L1949.24 1331.14 L1735.52 1331.14 L1735.52 1331.14  Z" fill="#000000" fill-rule="evenodd" fill-opacity="0.25"></path>
<polyline clip-path="url(#clip902)" style="stroke:#000000; stroke-linecap:round; stroke-linejoin:round; stroke-width:4; stroke-opacity:0.25; fill:none" points="1735.52,1331.14 1735.52,1384.3 1949.24,1384.3 1949.24,1331.14 1735.52,1331.14 "></polyline>
<circle clip-path="url(#clip902)" style="fill:#000000; stroke:none; fill-opacity:0" cx="773.778" cy="321.023" r="2"></circle>
<circle clip-path="url(#clip902)" style="fill:#000000; stroke:none; fill-opacity:0" cx="987.498" cy="55.2035" r="2"></circle>
<circle clip-path="url(#clip902)" style="fill:#000000; stroke:none; fill-opacity:0" cx="1201.22" cy="693.17" r="2"></circle>
<circle clip-path="url(#clip902)" style="fill:#000000; stroke:none; fill-opacity:0" cx="1414.94" cy="1171.64" r="2"></circle>
<circle clip-path="url(#clip902)" style="fill:#000000; stroke:none; fill-opacity:0" cx="1628.66" cy="746.334" r="2"></circle>
<circle clip-path="url(#clip902)" style="fill:#000000; stroke:none; fill-opacity:0" cx="1842.38" cy="1331.14" r="2"></circle>
<polyline clip-path="url(#clip902)" style="stroke:#0000ff; stroke-linecap:round; stroke-linejoin:round; stroke-width:20; stroke-opacity:1; fill:none" points="264.621,1384.3 296.801,1384.3 328.98,1384.09 361.16,1383.72 393.339,1382.64 425.519,1379.91 457.699,1373.67 489.878,1360.67 522.058,1336 554.238,1293.4 586.417,1226.56 618.597,1131.28 650.776,1008.07 682.956,863.772 715.136,711.039 747.315,565.245 779.495,439.782 811.674,341.746 843.854,270.019 876.034,216.733 908.213,171.634 940.393,127.625 972.572,85.1609 1004.75,53.4204 1036.93,47.2441 1069.11,80.7522 1101.29,160.404 1133.47,280.986 1165.65,426.741 1197.83,577.139 1230.01,714.232 1262.19,827.867 1294.37,916.541 1326.55,984.282 1358.73,1035.94 1390.91,1073.63 1423.09,1095.85 1455.27,1099.38 1487.45,1082.39 1519.63,1047.36 1551.81,1002.15 1583.99,958.919 1616.16,930.901 1648.34,928.435 1680.52,955.638 1712.7,1009.22 1744.88,1079.87 1777.06,1155.63 1809.24,1225.61 1841.42,1282.72 1873.6,1324.39 1905.78,1351.79 1937.96,1368.08 1970.14,1376.87 2002.32,1381.18 2034.5,1383.09 2066.68,1383.87 2098.86,1384.13 2131.04,1384.3 2163.22,1384.3 2195.4,1384.3 2227.58,1384.3 2259.76,1384.3 2291.94,1384.3 "></polyline>
<line clip-path="url(#clip902)" x1="1185.72" y1="1444.3" x2="1185.72" y2="1324.3" style="stroke:#000000; stroke-width:3.2; stroke-opacity:1"></line>
<line clip-path="url(#clip902)" x1="1303.99" y1="1444.3" x2="1303.99" y2="1324.3" style="stroke:#000000; stroke-width:3.2; stroke-opacity:1"></line>
<line clip-path="url(#clip902)" x1="686.154" y1="1444.3" x2="686.154" y2="1324.3" style="stroke:#000000; stroke-width:3.2; stroke-opacity:1"></line>
<line clip-path="url(#clip902)" x1="1336.99" y1="1444.3" x2="1336.99" y2="1324.3" style="stroke:#000000; stroke-width:3.2; stroke-opacity:1"></line>
<line clip-path="url(#clip902)" x1="1220.03" y1="1444.3" x2="1220.03" y2="1324.3" style="stroke:#000000; stroke-width:3.2; stroke-opacity:1"></line>
<line clip-path="url(#clip902)" x1="765.559" y1="1444.3" x2="765.559" y2="1324.3" style="stroke:#000000; stroke-width:3.2; stroke-opacity:1"></line>
<line clip-path="url(#clip902)" x1="737.31" y1="1444.3" x2="737.31" y2="1324.3" style="stroke:#000000; stroke-width:3.2; stroke-opacity:1"></line>
<line clip-path="url(#clip902)" x1="1312.63" y1="1444.3" x2="1312.63" y2="1324.3" style="stroke:#000000; stroke-width:3.2; stroke-opacity:1"></line>
<line clip-path="url(#clip902)" x1="744.193" y1="1444.3" x2="744.193" y2="1324.3" style="stroke:#000000; stroke-width:3.2; stroke-opacity:1"></line>
<line clip-path="url(#clip902)" x1="957.285" y1="1444.3" x2="957.285" y2="1324.3" style="stroke:#000000; stroke-width:3.2; stroke-opacity:1"></line>
<line clip-path="url(#clip902)" x1="1762.45" y1="1444.3" x2="1762.45" y2="1324.3" style="stroke:#000000; stroke-width:3.2; stroke-opacity:1"></line>
<line clip-path="url(#clip902)" x1="738.788" y1="1444.3" x2="738.788" y2="1324.3" style="stroke:#000000; stroke-width:3.2; stroke-opacity:1"></line>
<line clip-path="url(#clip902)" x1="1631.26" y1="1444.3" x2="1631.26" y2="1324.3" style="stroke:#000000; stroke-width:3.2; stroke-opacity:1"></line>
<line clip-path="url(#clip902)" x1="1675.21" y1="1444.3" x2="1675.21" y2="1324.3" style="stroke:#000000; stroke-width:3.2; stroke-opacity:1"></line>
<line clip-path="url(#clip902)" x1="1019.84" y1="1444.3" x2="1019.84" y2="1324.3" style="stroke:#000000; stroke-width:3.2; stroke-opacity:1"></line>
<line clip-path="url(#clip902)" x1="1590.38" y1="1444.3" x2="1590.38" y2="1324.3" style="stroke:#000000; stroke-width:3.2; stroke-opacity:1"></line>
<line clip-path="url(#clip902)" x1="1617.94" y1="1444.3" x2="1617.94" y2="1324.3" style="stroke:#000000; stroke-width:3.2; stroke-opacity:1"></line>
<line clip-path="url(#clip902)" x1="1617" y1="1444.3" x2="1617" y2="1324.3" style="stroke:#000000; stroke-width:3.2; stroke-opacity:1"></line>
<line clip-path="url(#clip902)" x1="766.377" y1="1444.3" x2="766.377" y2="1324.3" style="stroke:#000000; stroke-width:3.2; stroke-opacity:1"></line>
<line clip-path="url(#clip902)" x1="928.156" y1="1444.3" x2="928.156" y2="1324.3" style="stroke:#000000; stroke-width:3.2; stroke-opacity:1"></line>
<line clip-path="url(#clip902)" x1="1607.87" y1="1444.3" x2="1607.87" y2="1324.3" style="stroke:#000000; stroke-width:3.2; stroke-opacity:1"></line>
<line clip-path="url(#clip902)" x1="746.374" y1="1444.3" x2="746.374" y2="1324.3" style="stroke:#000000; stroke-width:3.2; stroke-opacity:1"></line>
<line clip-path="url(#clip902)" x1="1681.47" y1="1444.3" x2="1681.47" y2="1324.3" style="stroke:#000000; stroke-width:3.2; stroke-opacity:1"></line>
<line clip-path="url(#clip902)" x1="1692.25" y1="1444.3" x2="1692.25" y2="1324.3" style="stroke:#000000; stroke-width:3.2; stroke-opacity:1"></line>
<line clip-path="url(#clip902)" x1="890.466" y1="1444.3" x2="890.466" y2="1324.3" style="stroke:#000000; stroke-width:3.2; stroke-opacity:1"></line>
<line clip-path="url(#clip902)" x1="740.372" y1="1444.3" x2="740.372" y2="1324.3" style="stroke:#000000; stroke-width:3.2; stroke-opacity:1"></line>
<line clip-path="url(#clip902)" x1="1106.7" y1="1444.3" x2="1106.7" y2="1324.3" style="stroke:#000000; stroke-width:3.2; stroke-opacity:1"></line>
<line clip-path="url(#clip902)" x1="1038.74" y1="1444.3" x2="1038.74" y2="1324.3" style="stroke:#000000; stroke-width:3.2; stroke-opacity:1"></line>
<line clip-path="url(#clip902)" x1="1093.3" y1="1444.3" x2="1093.3" y2="1324.3" style="stroke:#000000; stroke-width:3.2; stroke-opacity:1"></line>
<line clip-path="url(#clip902)" x1="1061.53" y1="1444.3" x2="1061.53" y2="1324.3" style="stroke:#000000; stroke-width:3.2; stroke-opacity:1"></line>
<line clip-path="url(#clip902)" x1="1090.88" y1="1444.3" x2="1090.88" y2="1324.3" style="stroke:#000000; stroke-width:3.2; stroke-opacity:1"></line>
<line clip-path="url(#clip902)" x1="843.335" y1="1444.3" x2="843.335" y2="1324.3" style="stroke:#000000; stroke-width:3.2; stroke-opacity:1"></line>
<line clip-path="url(#clip902)" x1="840.93" y1="1444.3" x2="840.93" y2="1324.3" style="stroke:#000000; stroke-width:3.2; stroke-opacity:1"></line>
<line clip-path="url(#clip902)" x1="1065.46" y1="1444.3" x2="1065.46" y2="1324.3" style="stroke:#000000; stroke-width:3.2; stroke-opacity:1"></line>
<line clip-path="url(#clip902)" x1="962.405" y1="1444.3" x2="962.405" y2="1324.3" style="stroke:#000000; stroke-width:3.2; stroke-opacity:1"></line>
<line clip-path="url(#clip902)" x1="1095.31" y1="1444.3" x2="1095.31" y2="1324.3" style="stroke:#000000; stroke-width:3.2; stroke-opacity:1"></line>
<line clip-path="url(#clip902)" x1="1100.72" y1="1444.3" x2="1100.72" y2="1324.3" style="stroke:#000000; stroke-width:3.2; stroke-opacity:1"></line>
<line clip-path="url(#clip902)" x1="817.986" y1="1444.3" x2="817.986" y2="1324.3" style="stroke:#000000; stroke-width:3.2; stroke-opacity:1"></line>
<line clip-path="url(#clip902)" x1="835.329" y1="1444.3" x2="835.329" y2="1324.3" style="stroke:#000000; stroke-width:3.2; stroke-opacity:1"></line>
<line clip-path="url(#clip902)" x1="1074.68" y1="1444.3" x2="1074.68" y2="1324.3" style="stroke:#000000; stroke-width:3.2; stroke-opacity:1"></line>
<line clip-path="url(#clip902)" x1="1099.11" y1="1444.3" x2="1099.11" y2="1324.3" style="stroke:#000000; stroke-width:3.2; stroke-opacity:1"></line>
<line clip-path="url(#clip902)" x1="897.821" y1="1444.3" x2="897.821" y2="1324.3" style="stroke:#000000; stroke-width:3.2; stroke-opacity:1"></line>
<line clip-path="url(#clip902)" x1="1003.46" y1="1444.3" x2="1003.46" y2="1324.3" style="stroke:#000000; stroke-width:3.2; stroke-opacity:1"></line>
<line clip-path="url(#clip902)" x1="788.046" y1="1444.3" x2="788.046" y2="1324.3" style="stroke:#000000; stroke-width:3.2; stroke-opacity:1"></line>
<line clip-path="url(#clip902)" x1="815.755" y1="1444.3" x2="815.755" y2="1324.3" style="stroke:#000000; stroke-width:3.2; stroke-opacity:1"></line>
<line clip-path="url(#clip902)" x1="964.734" y1="1444.3" x2="964.734" y2="1324.3" style="stroke:#000000; stroke-width:3.2; stroke-opacity:1"></line>
<line clip-path="url(#clip902)" x1="1060.09" y1="1444.3" x2="1060.09" y2="1324.3" style="stroke:#000000; stroke-width:3.2; stroke-opacity:1"></line>
<line clip-path="url(#clip902)" x1="765.071" y1="1444.3" x2="765.071" y2="1324.3" style="stroke:#000000; stroke-width:3.2; stroke-opacity:1"></line>
<line clip-path="url(#clip902)" x1="1125.37" y1="1444.3" x2="1125.37" y2="1324.3" style="stroke:#000000; stroke-width:3.2; stroke-opacity:1"></line>
<line clip-path="url(#clip902)" x1="914.658" y1="1444.3" x2="914.658" y2="1324.3" style="stroke:#000000; stroke-width:3.2; stroke-opacity:1"></line>
<line clip-path="url(#clip902)" x1="841.992" y1="1444.3" x2="841.992" y2="1324.3" style="stroke:#000000; stroke-width:3.2; stroke-opacity:1"></line>
<line clip-path="url(#clip902)" x1="1102.91" y1="1444.3" x2="1102.91" y2="1324.3" style="stroke:#000000; stroke-width:3.2; stroke-opacity:1"></line>
<line clip-path="url(#clip902)" x1="693.247" y1="1444.3" x2="693.247" y2="1324.3" style="stroke:#000000; stroke-width:3.2; stroke-opacity:1"></line>
<line clip-path="url(#clip902)" x1="839.59" y1="1444.3" x2="839.59" y2="1324.3" style="stroke:#000000; stroke-width:3.2; stroke-opacity:1"></line>
<line clip-path="url(#clip902)" x1="1103.34" y1="1444.3" x2="1103.34" y2="1324.3" style="stroke:#000000; stroke-width:3.2; stroke-opacity:1"></line>
<line clip-path="url(#clip902)" x1="1077.04" y1="1444.3" x2="1077.04" y2="1324.3" style="stroke:#000000; stroke-width:3.2; stroke-opacity:1"></line>
<line clip-path="url(#clip902)" x1="1038.41" y1="1444.3" x2="1038.41" y2="1324.3" style="stroke:#000000; stroke-width:3.2; stroke-opacity:1"></line>
<line clip-path="url(#clip902)" x1="760.945" y1="1444.3" x2="760.945" y2="1324.3" style="stroke:#000000; stroke-width:3.2; stroke-opacity:1"></line>
<line clip-path="url(#clip902)" x1="1010.22" y1="1444.3" x2="1010.22" y2="1324.3" style="stroke:#000000; stroke-width:3.2; stroke-opacity:1"></line>
<line clip-path="url(#clip902)" x1="1038.89" y1="1444.3" x2="1038.89" y2="1324.3" style="stroke:#000000; stroke-width:3.2; stroke-opacity:1"></line>
<line clip-path="url(#clip902)" x1="936.06" y1="1444.3" x2="936.06" y2="1324.3" style="stroke:#000000; stroke-width:3.2; stroke-opacity:1"></line>
<line clip-path="url(#clip902)" x1="898.236" y1="1444.3" x2="898.236" y2="1324.3" style="stroke:#000000; stroke-width:3.2; stroke-opacity:1"></line>
<line clip-path="url(#clip902)" x1="1049.19" y1="1444.3" x2="1049.19" y2="1324.3" style="stroke:#000000; stroke-width:3.2; stroke-opacity:1"></line>
<line clip-path="url(#clip902)" x1="962.476" y1="1444.3" x2="962.476" y2="1324.3" style="stroke:#000000; stroke-width:3.2; stroke-opacity:1"></line>
<line clip-path="url(#clip902)" x1="1134.91" y1="1444.3" x2="1134.91" y2="1324.3" style="stroke:#000000; stroke-width:3.2; stroke-opacity:1"></line>
<line clip-path="url(#clip902)" x1="855.616" y1="1444.3" x2="855.616" y2="1324.3" style="stroke:#000000; stroke-width:3.2; stroke-opacity:1"></line>
<line clip-path="url(#clip902)" x1="1076.74" y1="1444.3" x2="1076.74" y2="1324.3" style="stroke:#000000; stroke-width:3.2; stroke-opacity:1"></line>
<line clip-path="url(#clip902)" x1="1347.2" y1="1444.3" x2="1347.2" y2="1324.3" style="stroke:#000000; stroke-width:3.2; stroke-opacity:1"></line>
<line clip-path="url(#clip902)" x1="1718.49" y1="1444.3" x2="1718.49" y2="1324.3" style="stroke:#000000; stroke-width:3.2; stroke-opacity:1"></line>
<line clip-path="url(#clip902)" x1="1681.07" y1="1444.3" x2="1681.07" y2="1324.3" style="stroke:#000000; stroke-width:3.2; stroke-opacity:1"></line>
<line clip-path="url(#clip902)" x1="1426.38" y1="1444.3" x2="1426.38" y2="1324.3" style="stroke:#000000; stroke-width:3.2; stroke-opacity:1"></line>
<line clip-path="url(#clip902)" x1="1170.19" y1="1444.3" x2="1170.19" y2="1324.3" style="stroke:#000000; stroke-width:3.2; stroke-opacity:1"></line>
<line clip-path="url(#clip902)" x1="1297.85" y1="1444.3" x2="1297.85" y2="1324.3" style="stroke:#000000; stroke-width:3.2; stroke-opacity:1"></line>
<line clip-path="url(#clip902)" x1="1697.1" y1="1444.3" x2="1697.1" y2="1324.3" style="stroke:#000000; stroke-width:3.2; stroke-opacity:1"></line>
<line clip-path="url(#clip902)" x1="1541.25" y1="1444.3" x2="1541.25" y2="1324.3" style="stroke:#000000; stroke-width:3.2; stroke-opacity:1"></line>
<path clip-path="url(#clip900)" d="M1614.1 428.773 L2281.12 428.773 L2281.12 91.8126 L1614.1 91.8126  Z" fill="#ffffff" fill-rule="evenodd" fill-opacity="1"></path>
<polyline clip-path="url(#clip900)" style="stroke:#000000; stroke-linecap:round; stroke-linejoin:round; stroke-width:4; stroke-opacity:1; fill:none" points="1614.1,428.773 2281.12,428.773 2281.12,91.8126 1614.1,91.8126 1614.1,428.773 "></polyline>
<path clip-path="url(#clip900)" d="M1637.98 209.749 L1781.24 209.749 L1781.24 142.357 L1637.98 142.357 L1637.98 209.749  Z" fill="#000000" fill-rule="evenodd" fill-opacity="0.25"></path>
<polyline clip-path="url(#clip900)" style="stroke:#000000; stroke-linecap:round; stroke-linejoin:round; stroke-width:6.5; stroke-opacity:1; fill:none" points="1637.98,209.749 1781.24,209.749 1781.24,142.357 1637.98,142.357 1637.98,209.749 "></polyline>
<path clip-path="url(#clip900)" d="M1805.12 204.133 L1805.12 201.604 Q1809.49 201.604 1810.5 201.082 Q1811.5 200.52 1811.5 197.87 L1811.5 155.118 Q1811.5 152.067 1810.42 151.304 Q1809.37 150.542 1805.12 150.542 L1805.12 147.973 L1816.92 147.089 L1816.92 175.671 L1817 175.671 Q1818.32 172.701 1821.29 170.252 Q1824.26 167.803 1828.84 167.803 Q1835.02 167.803 1837.47 170.854 Q1839.28 172.901 1839.64 175.19 Q1840.04 177.478 1840.04 183.419 L1840.04 199.115 Q1840.12 200.841 1841.45 201.242 Q1842.77 201.604 1846.46 201.604 L1846.46 204.133 Q1838.07 203.892 1837.23 203.892 Q1836.59 203.892 1827.96 204.133 L1827.96 201.604 Q1832.33 201.604 1833.34 201.082 Q1834.38 200.52 1834.38 197.87 L1834.38 178.722 Q1834.38 174.547 1833.1 172.099 Q1831.81 169.61 1828.28 169.61 Q1824.02 169.61 1820.61 173.182 Q1817.2 176.755 1817.2 182.777 L1817.2 197.87 Q1817.2 200.52 1818.2 201.082 Q1819.25 201.604 1823.58 201.604 L1823.58 204.133 Q1815.19 203.892 1814.39 203.892 Q1813.75 203.892 1805.12 204.133 Z" fill="#000000" fill-rule="nonzero" fill-opacity="1"></path><path clip-path="url(#clip900)" d="M1850.8 204.133 L1850.8 201.604 Q1855.17 201.604 1856.18 201.082 Q1857.18 200.52 1857.18 197.87 L1857.18 175.752 Q1857.18 172.701 1856.14 171.978 Q1855.13 171.256 1851.12 171.256 L1851.12 168.686 L1862.6 167.803 L1862.6 197.951 Q1862.6 200.399 1863.48 201.001 Q1864.37 201.604 1868.38 201.604 L1868.38 204.133 Q1859.99 203.892 1859.83 203.892 Q1858.71 203.892 1850.8 204.133 M1854.25 153.472 Q1854.25 151.826 1855.5 150.502 Q1856.78 149.137 1858.59 149.137 Q1860.39 149.137 1861.68 150.381 Q1862.96 151.585 1862.96 153.512 Q1862.96 155.399 1861.68 156.643 Q1860.39 157.848 1858.59 157.848 Q1856.7 157.848 1855.46 156.523 Q1854.25 155.198 1854.25 153.472 Z" fill="#000000" fill-rule="nonzero" fill-opacity="1"></path><path clip-path="url(#clip900)" d="M1873.56 203.049 L1873.56 192.21 Q1873.56 191.287 1873.6 190.966 Q1873.64 190.645 1873.88 190.404 Q1874.12 190.163 1874.6 190.163 Q1875.17 190.163 1875.37 190.404 Q1875.61 190.645 1875.77 191.568 Q1877.01 197.228 1879.66 200.239 Q1882.35 203.209 1887.21 203.209 Q1891.83 203.209 1894.15 201.162 Q1896.48 199.115 1896.48 195.743 Q1896.48 189.721 1887.93 188.196 Q1882.99 187.192 1880.95 186.55 Q1878.9 185.868 1877.09 184.382 Q1873.56 181.492 1873.56 177.397 Q1873.56 173.303 1876.65 170.292 Q1879.78 167.281 1886.69 167.281 Q1891.3 167.281 1894.43 169.61 Q1895.36 168.887 1895.84 168.285 Q1896.92 167.281 1897.49 167.281 Q1898.13 167.281 1898.25 167.723 Q1898.37 168.124 1898.37 169.289 L1898.37 177.558 Q1898.37 178.481 1898.33 178.802 Q1898.29 179.124 1898.05 179.364 Q1897.81 179.565 1897.28 179.565 Q1896.36 179.565 1896.32 178.802 Q1895.68 168.847 1886.69 168.847 Q1881.83 168.847 1879.66 170.734 Q1877.49 172.58 1877.49 175.109 Q1877.49 176.514 1878.14 177.598 Q1878.82 178.642 1879.66 179.284 Q1880.55 179.886 1882.15 180.488 Q1883.76 181.05 1884.72 181.251 Q1885.72 181.452 1887.61 181.853 Q1894.19 183.098 1896.96 185.787 Q1900.42 189.24 1900.42 193.615 Q1900.42 198.472 1897.12 201.764 Q1893.83 205.056 1887.21 205.056 Q1881.87 205.056 1878.14 201.483 Q1877.66 201.965 1877.29 202.406 Q1876.93 202.808 1876.77 202.968 Q1876.65 203.129 1876.61 203.249 Q1876.57 203.33 1876.49 203.41 Q1874.84 205.056 1874.44 205.056 Q1873.8 205.056 1873.68 204.614 Q1873.56 204.213 1873.56 203.049 Z" fill="#000000" fill-rule="nonzero" fill-opacity="1"></path><path clip-path="url(#clip900)" d="M1904.75 171.256 L1904.75 169.449 Q1908.52 169.289 1911.01 166.639 Q1913.54 163.95 1914.39 160.658 Q1915.27 157.366 1915.35 153.552 L1917.4 153.552 L1917.4 168.686 L1929.16 168.686 L1929.16 171.256 L1917.4 171.256 L1917.4 194.097 Q1917.4 202.968 1922.94 202.968 Q1925.3 202.968 1926.87 200.56 Q1928.44 198.111 1928.44 193.776 L1928.44 189.24 L1930.48 189.24 L1930.48 193.936 Q1930.48 198.392 1928.44 201.724 Q1926.39 205.056 1922.33 205.056 Q1920.85 205.056 1919.36 204.654 Q1917.92 204.293 1915.99 203.33 Q1914.1 202.326 1912.9 199.918 Q1911.74 197.469 1911.74 193.936 L1911.74 171.256 L1904.75 171.256 Z" fill="#000000" fill-rule="nonzero" fill-opacity="1"></path><path clip-path="url(#clip900)" d="M1942.77 199.717 Q1937.35 194.338 1937.35 186.55 Q1937.35 178.722 1942.65 173.022 Q1947.99 167.281 1955.61 167.281 Q1963.08 167.281 1968.42 172.982 Q1973.8 178.642 1973.8 186.55 Q1973.8 194.298 1968.38 199.677 Q1963 205.056 1955.53 205.056 Q1948.23 205.056 1942.77 199.717 M1944.17 185.868 Q1944.17 193.856 1946.26 197.469 Q1949.47 202.968 1955.61 202.968 Q1958.66 202.968 1961.19 201.323 Q1963.76 199.677 1965.17 196.907 Q1966.97 193.294 1966.97 185.868 Q1966.97 177.959 1964.81 174.467 Q1961.59 169.128 1955.53 169.128 Q1952.88 169.128 1950.27 170.533 Q1947.7 171.898 1946.14 174.628 Q1944.17 178.24 1944.17 185.868 Z" fill="#000000" fill-rule="nonzero" fill-opacity="1"></path><path clip-path="url(#clip900)" d="M1978.45 210.636 Q1978.45 207.986 1980.46 205.698 Q1982.51 203.41 1986.04 202.406 Q1982.43 200.118 1982.43 195.1 Q1982.43 191.247 1984.96 188.276 Q1981.1 185.065 1981.1 179.806 Q1981.1 174.949 1984.96 171.376 Q1988.81 167.803 1994.43 167.803 Q1999.37 167.803 2003.14 170.774 Q2007.08 166.92 2011.85 166.88 Q2013.98 166.88 2014.98 168.205 Q2016.03 169.529 2016.03 170.934 Q2016.03 172.179 2015.22 172.781 Q2014.46 173.383 2013.66 173.383 Q2012.66 173.383 2011.93 172.741 Q2011.25 172.058 2011.25 171.015 Q2011.25 169.289 2012.58 168.767 Q2012.33 168.686 2011.77 168.686 Q2007.76 168.686 2004.35 171.898 Q2007.72 175.029 2007.72 179.886 Q2007.72 184.744 2003.86 188.316 Q2000.01 191.889 1994.43 191.889 Q1989.81 191.889 1986.28 189.32 Q1984.88 190.966 1984.88 193.214 Q1984.88 195.261 1986.12 196.867 Q1987.37 198.472 1989.25 198.713 Q1989.81 198.794 1995.39 198.794 Q1998.69 198.794 2000.49 198.874 Q2002.3 198.954 2004.87 199.516 Q2007.48 200.038 2009.52 201.082 Q2014.86 204.052 2014.9 210.475 Q2014.9 215.172 2009.48 218.102 Q2004.11 221.073 1996.64 221.073 Q1989.09 221.073 1983.75 218.062 Q1978.45 215.092 1978.45 210.636 M1982.75 210.636 Q1982.75 214.008 1986.72 216.577 Q1990.7 219.186 1996.72 219.186 Q2002.62 219.186 2006.59 216.617 Q2010.61 214.088 2010.61 210.636 Q2010.61 208.187 2009.2 206.621 Q2007.8 205.056 2004.91 204.414 Q2002.06 203.811 2000.05 203.691 Q1998.04 203.571 1994.35 203.571 L1989.49 203.571 Q1986.68 203.731 1984.72 205.778 Q1982.75 207.826 1982.75 210.636 M1987.25 179.886 Q1987.25 190.002 1994.43 190.002 Q1998.04 190.002 2000.25 186.711 Q2001.58 184.503 2001.58 179.806 Q2001.58 169.69 1994.43 169.69 Q1990.82 169.69 1988.57 172.982 Q1987.25 175.19 1987.25 179.886 Z" fill="#000000" fill-rule="nonzero" fill-opacity="1"></path><path clip-path="url(#clip900)" d="M2019.56 204.133 L2019.56 201.604 Q2023.94 201.604 2024.94 201.082 Q2025.98 200.52 2025.98 197.87 L2025.98 175.832 Q2025.98 172.781 2024.9 172.018 Q2023.86 171.256 2019.56 171.256 L2019.56 168.686 L2031 167.803 L2031 176.835 Q2032.17 173.303 2034.61 170.573 Q2037.1 167.803 2041.12 167.803 Q2043.77 167.803 2045.45 169.289 Q2047.18 170.774 2047.18 172.821 Q2047.18 174.628 2046.05 175.551 Q2044.97 176.434 2043.65 176.434 Q2042.16 176.434 2041.12 175.511 Q2040.11 174.547 2040.11 172.901 Q2040.11 171.898 2040.56 171.135 Q2041.04 170.332 2041.4 170.051 Q2041.76 169.77 2042 169.69 Q2041.84 169.61 2041.12 169.61 Q2036.58 169.61 2033.97 174.146 Q2031.4 178.642 2031.4 185.065 L2031.4 197.71 Q2031.4 200.078 2032.37 200.841 Q2033.37 201.604 2037.66 201.604 L2039.39 201.604 L2039.39 204.133 Q2036.1 203.892 2028.95 203.892 Q2027.95 203.892 2026.38 203.932 Q2024.82 203.972 2022.77 204.052 Q2020.72 204.133 2019.56 204.133 Z" fill="#000000" fill-rule="nonzero" fill-opacity="1"></path><path clip-path="url(#clip900)" d="M2052.84 196.305 Q2052.84 189.32 2061.07 185.627 Q2066.01 183.258 2076.2 182.656 L2076.2 179.645 Q2076.2 174.547 2073.51 171.858 Q2070.86 169.128 2067.49 169.128 Q2061.47 169.128 2058.58 172.901 Q2061.03 172.982 2061.91 174.226 Q2062.79 175.43 2062.79 176.675 Q2062.79 178.321 2061.75 179.405 Q2060.75 180.448 2059.02 180.448 Q2057.38 180.448 2056.29 179.445 Q2055.21 178.401 2055.21 176.595 Q2055.21 172.58 2058.82 169.931 Q2062.47 167.281 2067.65 167.281 Q2074.4 167.281 2078.89 171.818 Q2080.3 173.223 2080.98 175.029 Q2081.7 176.835 2081.78 178.04 Q2081.86 179.204 2081.86 181.532 L2081.86 197.951 Q2081.86 198.432 2082.02 199.235 Q2082.18 200.038 2082.91 201.082 Q2083.67 202.085 2084.91 202.085 Q2087.88 202.085 2087.84 196.827 L2087.84 192.21 L2089.93 192.21 L2089.93 196.827 Q2089.93 201.202 2087.6 202.928 Q2085.31 204.614 2083.19 204.614 Q2080.46 204.614 2078.73 202.607 Q2077 200.6 2076.76 197.87 Q2075.52 201.001 2072.67 203.049 Q2069.86 205.056 2066.01 205.056 Q2063.04 205.056 2060.23 204.293 Q2057.46 203.571 2055.13 201.523 Q2052.84 199.436 2052.84 196.305 M2059.18 196.224 Q2059.18 199.275 2061.35 201.242 Q2063.52 203.209 2066.57 203.209 Q2070.02 203.209 2073.11 200.56 Q2076.2 197.87 2076.2 192.612 L2076.2 184.382 Q2067.09 184.703 2063.12 188.356 Q2059.18 191.969 2059.18 196.224 Z" fill="#000000" fill-rule="nonzero" fill-opacity="1"></path><path clip-path="url(#clip900)" d="M2093.14 204.133 L2093.14 201.604 Q2097.52 201.604 2098.52 201.082 Q2099.53 200.52 2099.53 197.87 L2099.53 175.832 Q2099.53 172.781 2098.44 172.018 Q2097.4 171.256 2093.14 171.256 L2093.14 168.686 L2104.7 167.803 L2104.7 176.434 Q2108.56 167.803 2116.87 167.803 Q2126.5 167.803 2127.83 175.832 Q2129.23 172.701 2132.16 170.252 Q2135.13 167.803 2139.75 167.803 Q2145.93 167.803 2148.38 170.854 Q2150.19 172.901 2150.55 175.19 Q2150.91 177.478 2150.91 183.419 L2150.91 199.115 Q2150.99 200.841 2152.31 201.242 Q2153.64 201.604 2157.33 201.604 L2157.33 204.133 Q2148.94 203.892 2148.14 203.892 Q2147.5 203.892 2138.83 204.133 L2138.83 201.604 Q2143.2 201.604 2144.2 201.082 Q2145.25 200.52 2145.25 197.87 L2145.25 178.722 Q2145.25 174.547 2143.96 172.099 Q2142.68 169.61 2139.15 169.61 Q2134.89 169.61 2131.48 173.182 Q2128.07 176.755 2128.07 182.777 L2128.07 197.87 Q2128.07 200.52 2129.07 201.082 Q2130.11 201.604 2134.49 201.604 L2134.49 204.133 Q2126.1 203.892 2125.26 203.892 Q2124.61 203.892 2115.98 204.133 L2115.98 201.604 Q2120.36 201.604 2121.36 201.082 Q2122.41 200.52 2122.41 197.87 L2122.41 178.722 Q2122.41 174.547 2121.12 172.099 Q2119.84 169.61 2116.3 169.61 Q2112.05 169.61 2108.64 173.182 Q2105.23 176.755 2105.23 182.777 L2105.23 197.87 Q2105.23 200.52 2106.23 201.082 Q2107.27 201.604 2111.61 201.604 L2111.61 204.133 Q2103.22 203.892 2102.42 203.892 Q2101.77 203.892 2093.14 204.133 Z" fill="#000000" fill-rule="nonzero" fill-opacity="1"></path><polyline clip-path="url(#clip900)" style="stroke:#0000ff; stroke-linecap:round; stroke-linejoin:round; stroke-width:32.5; stroke-opacity:1; fill:none" points="1637.98,260.293 1781.24,260.293 "></polyline>
<path clip-path="url(#clip900)" d="M1805.12 288.373 L1805.12 285.844 L1807.08 285.844 Q1811.54 285.844 1812.54 285.121 Q1813.59 284.358 1813.59 281.95 L1813.59 238.635 Q1813.59 236.267 1812.54 235.544 Q1811.5 234.782 1807.08 234.782 L1805.12 234.782 L1805.12 232.213 Q1808.01 232.453 1817.28 232.453 Q1826.47 232.453 1829.36 232.213 L1829.36 234.782 L1827.4 234.782 Q1822.94 234.782 1821.9 235.544 Q1820.89 236.267 1820.89 238.635 L1820.89 264.769 L1846.62 240.201 Q1848.11 238.876 1848.11 237.471 Q1848.11 236.99 1847.87 236.468 Q1847.67 235.906 1846.7 235.344 Q1845.78 234.782 1844.3 234.782 L1844.3 232.213 Q1847.11 232.453 1854.77 232.453 Q1859.63 232.453 1861.76 232.213 L1861.76 234.782 Q1854.93 234.862 1850.08 239.719 L1835.26 253.93 L1854.25 281.869 Q1855.98 284.398 1857.66 285.121 Q1859.35 285.844 1862.88 285.844 L1862.88 288.373 Q1857.7 288.132 1853.45 288.132 Q1844.58 288.132 1841.69 288.373 L1841.69 285.844 Q1846.54 285.844 1846.54 283.355 Q1846.54 282.431 1845.3 280.545 L1830.41 258.546 L1820.89 267.579 L1820.89 281.95 Q1820.89 284.318 1821.9 285.081 Q1822.94 285.844 1827.4 285.844 L1829.36 285.844 L1829.36 288.373 Q1826.47 288.132 1817.2 288.132 Q1808.01 288.132 1805.12 288.373 Z" fill="#000000" fill-rule="nonzero" fill-opacity="1"></path><path clip-path="url(#clip900)" d="M1869.14 288.373 L1869.14 285.844 L1871.11 285.844 Q1875.57 285.844 1876.57 285.121 Q1877.61 284.358 1877.61 281.95 L1877.61 238.635 Q1877.61 236.267 1876.57 235.544 Q1875.53 234.782 1871.11 234.782 L1869.14 234.782 L1869.14 232.213 L1899.21 232.213 Q1909.73 232.213 1917.04 240.602 Q1924.38 248.992 1924.38 260.754 Q1924.38 272.275 1917 280.344 Q1909.65 288.373 1899.21 288.373 L1869.14 288.373 M1884.68 282.552 Q1884.68 284.679 1885.28 285.282 Q1885.88 285.844 1888.69 285.844 L1897 285.844 Q1902.42 285.844 1906.08 283.636 Q1909.73 281.388 1911.62 278.819 Q1916.15 272.637 1916.15 260.754 Q1916.15 248.27 1911.9 242.409 Q1906.4 234.782 1896.92 234.782 L1888.69 234.782 Q1885.88 234.782 1885.28 235.344 Q1884.68 235.906 1884.68 238.073 L1884.68 282.552 Z" fill="#000000" fill-rule="nonzero" fill-opacity="1"></path><path clip-path="url(#clip900)" d="M1931.69 288.373 L1931.69 285.844 L1933.65 285.844 Q1938.11 285.844 1939.11 285.121 Q1940.16 284.358 1940.16 281.95 L1940.16 238.876 Q1940.16 236.508 1939.11 235.785 Q1938.07 235.023 1933.65 235.023 L1931.69 235.023 L1931.69 232.453 L1977.97 232.453 L1980.26 250.959 L1978.21 250.959 Q1977.65 246.263 1976.89 243.573 Q1976.17 240.843 1974.36 238.756 Q1972.59 236.668 1969.66 235.866 Q1966.77 235.023 1962.08 235.023 L1951.48 235.023 Q1948.67 235.023 1948.07 235.625 Q1947.46 236.187 1947.46 238.314 L1947.46 258.025 L1954.85 258.025 Q1960.51 258.025 1962.12 256.058 Q1963.72 254.091 1963.72 248.43 L1965.81 248.43 L1965.81 270.188 L1963.72 270.188 Q1963.72 264.608 1962.12 262.601 Q1960.51 260.594 1954.85 260.594 L1947.46 260.594 L1947.46 282.552 Q1947.46 284.679 1948.07 285.282 Q1948.71 285.844 1951.48 285.844 L1962.44 285.844 Q1965.97 285.844 1968.54 285.402 Q1971.15 284.92 1972.95 283.796 Q1974.76 282.632 1975.97 281.307 Q1977.21 279.983 1978.05 277.614 Q1978.94 275.206 1979.42 272.998 Q1979.94 270.79 1980.5 267.177 L1982.55 267.177 L1979.1 288.373 L1931.69 288.373 Z" fill="#000000" fill-rule="nonzero" fill-opacity="1"></path><line clip-path="url(#clip900)" x1="1709.61" y1="384.791" x2="1709.61" y2="304.275" style="stroke:#000000; stroke-width:2.1471; stroke-opacity:1"></line>
<path clip-path="url(#clip900)" d="M1805.12 379.116 Q1805.12 376.466 1807.12 374.178 Q1809.17 371.89 1812.7 370.886 Q1809.09 368.598 1809.09 363.58 Q1809.09 359.727 1811.62 356.756 Q1807.77 353.545 1807.77 348.286 Q1807.77 343.429 1811.62 339.856 Q1815.47 336.283 1821.09 336.283 Q1826.03 336.283 1829.8 339.254 Q1833.74 335.4 1838.52 335.36 Q1840.64 335.36 1841.65 336.685 Q1842.69 338.009 1842.69 339.414 Q1842.69 340.659 1841.89 341.261 Q1841.12 341.863 1840.32 341.863 Q1839.32 341.863 1838.6 341.221 Q1837.91 340.538 1837.91 339.495 Q1837.91 337.769 1839.24 337.247 Q1839 337.166 1838.44 337.166 Q1834.42 337.166 1831.01 340.378 Q1834.38 343.509 1834.38 348.366 Q1834.38 353.224 1830.53 356.796 Q1826.67 360.369 1821.09 360.369 Q1816.48 360.369 1812.94 357.8 Q1811.54 359.446 1811.54 361.694 Q1811.54 363.741 1812.78 365.347 Q1814.03 366.952 1815.92 367.193 Q1816.48 367.274 1822.06 367.274 Q1825.35 367.274 1827.16 367.354 Q1828.96 367.434 1831.53 367.996 Q1834.14 368.518 1836.19 369.562 Q1841.53 372.532 1841.57 378.955 Q1841.57 383.652 1836.15 386.582 Q1830.77 389.553 1823.3 389.553 Q1815.75 389.553 1810.42 386.542 Q1805.12 383.572 1805.12 379.116 M1809.41 379.116 Q1809.41 382.488 1813.39 385.057 Q1817.36 387.666 1823.38 387.666 Q1829.28 387.666 1833.26 385.097 Q1837.27 382.568 1837.27 379.116 Q1837.27 376.667 1835.87 375.101 Q1834.46 373.536 1831.57 372.894 Q1828.72 372.291 1826.71 372.171 Q1824.71 372.051 1821.01 372.051 L1816.16 372.051 Q1813.35 372.211 1811.38 374.258 Q1809.41 376.306 1809.41 379.116 M1813.91 348.366 Q1813.91 358.482 1821.09 358.482 Q1824.71 358.482 1826.91 355.191 Q1828.24 352.983 1828.24 348.286 Q1828.24 338.17 1821.09 338.17 Q1817.48 338.17 1815.23 341.462 Q1813.91 343.67 1813.91 348.366 Z" fill="#000000" fill-rule="nonzero" fill-opacity="1"></path><path clip-path="url(#clip900)" d="M1846.22 372.613 L1846.22 370.084 Q1850.6 370.084 1851.6 369.562 Q1852.65 369 1852.65 366.35 L1852.65 344.312 Q1852.65 341.261 1851.56 340.498 Q1850.52 339.736 1846.22 339.736 L1846.22 337.166 L1857.66 336.283 L1857.66 345.315 Q1858.83 341.783 1861.28 339.053 Q1863.77 336.283 1867.78 336.283 Q1870.43 336.283 1872.12 337.769 Q1873.84 339.254 1873.84 341.301 Q1873.84 343.108 1872.72 344.031 Q1871.63 344.914 1870.31 344.914 Q1868.82 344.914 1867.78 343.991 Q1866.78 343.027 1866.78 341.381 Q1866.78 340.378 1867.22 339.615 Q1867.7 338.812 1868.06 338.531 Q1868.42 338.25 1868.66 338.17 Q1868.5 338.09 1867.78 338.09 Q1863.24 338.09 1860.63 342.626 Q1858.07 347.122 1858.07 353.545 L1858.07 366.19 Q1858.07 368.558 1859.03 369.321 Q1860.03 370.084 1864.33 370.084 L1866.05 370.084 L1866.05 372.613 Q1862.76 372.372 1855.62 372.372 Q1854.61 372.372 1853.05 372.412 Q1851.48 372.452 1849.43 372.532 Q1847.39 372.613 1846.22 372.613 Z" fill="#000000" fill-rule="nonzero" fill-opacity="1"></path><path clip-path="url(#clip900)" d="M1879.5 364.785 Q1879.5 357.8 1887.73 354.107 Q1892.67 351.738 1902.86 351.136 L1902.86 348.125 Q1902.86 343.027 1900.18 340.338 Q1897.53 337.608 1894.15 337.608 Q1888.13 337.608 1885.24 341.381 Q1887.69 341.462 1888.57 342.706 Q1889.46 343.91 1889.46 345.155 Q1889.46 346.801 1888.41 347.885 Q1887.41 348.928 1885.68 348.928 Q1884.04 348.928 1882.95 347.925 Q1881.87 346.881 1881.87 345.075 Q1881.87 341.06 1885.48 338.411 Q1889.14 335.761 1894.31 335.761 Q1901.06 335.761 1905.55 340.298 Q1906.96 341.703 1907.64 343.509 Q1908.36 345.315 1908.44 346.52 Q1908.52 347.684 1908.52 350.012 L1908.52 366.431 Q1908.52 366.912 1908.69 367.715 Q1908.85 368.518 1909.57 369.562 Q1910.33 370.565 1911.58 370.565 Q1914.55 370.565 1914.51 365.307 L1914.51 360.69 L1916.59 360.69 L1916.59 365.307 Q1916.59 369.682 1914.27 371.408 Q1911.98 373.094 1909.85 373.094 Q1907.12 373.094 1905.39 371.087 Q1903.67 369.08 1903.43 366.35 Q1902.18 369.481 1899.33 371.529 Q1896.52 373.536 1892.67 373.536 Q1889.7 373.536 1886.89 372.773 Q1884.12 372.051 1881.79 370.003 Q1879.5 367.916 1879.5 364.785 M1885.84 364.704 Q1885.84 367.755 1888.01 369.722 Q1890.18 371.689 1893.23 371.689 Q1896.68 371.689 1899.77 369.04 Q1902.86 366.35 1902.86 361.092 L1902.86 352.862 Q1893.75 353.183 1889.78 356.836 Q1885.84 360.449 1885.84 364.704 Z" fill="#000000" fill-rule="nonzero" fill-opacity="1"></path><path clip-path="url(#clip900)" d="M1919.89 372.613 L1919.89 370.084 Q1924.26 370.084 1925.26 369.562 Q1926.27 369 1926.27 366.35 L1926.27 344.232 Q1926.27 341.181 1925.22 340.458 Q1924.22 339.736 1920.21 339.736 L1920.21 337.166 L1931.69 336.283 L1931.69 366.431 Q1931.69 368.879 1932.57 369.481 Q1933.45 370.084 1937.47 370.084 L1937.47 372.613 Q1929.08 372.372 1928.92 372.372 Q1927.79 372.372 1919.89 372.613 M1923.34 321.952 Q1923.34 320.306 1924.58 318.982 Q1925.87 317.617 1927.67 317.617 Q1929.48 317.617 1930.76 318.861 Q1932.05 320.065 1932.05 321.992 Q1932.05 323.879 1930.76 325.123 Q1929.48 326.328 1927.67 326.328 Q1925.79 326.328 1924.54 325.003 Q1923.34 323.678 1923.34 321.952 Z" fill="#000000" fill-rule="nonzero" fill-opacity="1"></path><path clip-path="url(#clip900)" d="M1942.57 372.613 L1942.57 370.084 Q1946.94 370.084 1947.95 369.562 Q1948.95 369 1948.95 366.35 L1948.95 344.312 Q1948.95 341.261 1947.87 340.498 Q1946.82 339.736 1942.57 339.736 L1942.57 337.166 L1954.13 336.283 L1954.13 344.914 Q1957.98 336.283 1966.29 336.283 Q1972.47 336.283 1974.92 339.334 Q1976.73 341.381 1977.09 343.67 Q1977.49 345.958 1977.49 351.899 L1977.49 367.595 Q1977.57 369.321 1978.9 369.722 Q1980.22 370.084 1983.91 370.084 L1983.91 372.613 Q1975.52 372.372 1974.68 372.372 Q1974.04 372.372 1965.41 372.613 L1965.41 370.084 Q1969.78 370.084 1970.79 369.562 Q1971.83 369 1971.83 366.35 L1971.83 347.202 Q1971.83 343.027 1970.55 340.579 Q1969.26 338.09 1965.73 338.09 Q1961.47 338.09 1958.06 341.662 Q1954.65 345.235 1954.65 351.257 L1954.65 366.35 Q1954.65 369 1955.65 369.562 Q1956.7 370.084 1961.03 370.084 L1961.03 372.613 Q1952.64 372.372 1951.84 372.372 Q1951.2 372.372 1942.57 372.613 Z" fill="#000000" fill-rule="nonzero" fill-opacity="1"></path><path clip-path="url(#clip900)" d="M2015.59 371.529 L2015.59 360.69 Q2015.59 359.767 2015.63 359.446 Q2015.67 359.125 2015.91 358.884 Q2016.15 358.643 2016.63 358.643 Q2017.19 358.643 2017.39 358.884 Q2017.63 359.125 2017.79 360.048 Q2019.04 365.708 2021.69 368.719 Q2024.38 371.689 2029.23 371.689 Q2033.85 371.689 2036.18 369.642 Q2038.51 367.595 2038.51 364.223 Q2038.51 358.201 2029.96 356.676 Q2025.02 355.672 2022.97 355.03 Q2020.93 354.348 2019.12 352.862 Q2015.59 349.972 2015.59 345.877 Q2015.59 341.783 2018.68 338.772 Q2021.81 335.761 2028.71 335.761 Q2033.33 335.761 2036.46 338.09 Q2037.38 337.367 2037.87 336.765 Q2038.95 335.761 2039.51 335.761 Q2040.15 335.761 2040.27 336.203 Q2040.39 336.604 2040.39 337.769 L2040.39 346.038 Q2040.39 346.961 2040.35 347.282 Q2040.31 347.604 2040.07 347.844 Q2039.83 348.045 2039.31 348.045 Q2038.39 348.045 2038.35 347.282 Q2037.7 337.327 2028.71 337.327 Q2023.86 337.327 2021.69 339.214 Q2019.52 341.06 2019.52 343.589 Q2019.52 344.994 2020.16 346.078 Q2020.84 347.122 2021.69 347.764 Q2022.57 348.366 2024.18 348.968 Q2025.78 349.53 2026.75 349.731 Q2027.75 349.932 2029.64 350.333 Q2036.22 351.578 2038.99 354.267 Q2042.44 357.72 2042.44 362.095 Q2042.44 366.952 2039.15 370.244 Q2035.86 373.536 2029.23 373.536 Q2023.9 373.536 2020.16 369.963 Q2019.68 370.445 2019.32 370.886 Q2018.96 371.288 2018.8 371.448 Q2018.68 371.609 2018.64 371.729 Q2018.6 371.81 2018.52 371.89 Q2016.87 373.536 2016.47 373.536 Q2015.83 373.536 2015.71 373.094 Q2015.59 372.693 2015.59 371.529 Z" fill="#000000" fill-rule="nonzero" fill-opacity="1"></path><path clip-path="url(#clip900)" d="M2048.66 364.785 Q2048.66 357.8 2056.89 354.107 Q2061.83 351.738 2072.03 351.136 L2072.03 348.125 Q2072.03 343.027 2069.34 340.338 Q2066.69 337.608 2063.32 337.608 Q2057.29 337.608 2054.4 341.381 Q2056.85 341.462 2057.74 342.706 Q2058.62 343.91 2058.62 345.155 Q2058.62 346.801 2057.58 347.885 Q2056.57 348.928 2054.85 348.928 Q2053.2 348.928 2052.12 347.925 Q2051.03 346.881 2051.03 345.075 Q2051.03 341.06 2054.65 338.411 Q2058.3 335.761 2063.48 335.761 Q2070.22 335.761 2074.72 340.298 Q2076.12 341.703 2076.8 343.509 Q2077.53 345.315 2077.61 346.52 Q2077.69 347.684 2077.69 350.012 L2077.69 366.431 Q2077.69 366.912 2077.85 367.715 Q2078.01 368.518 2078.73 369.562 Q2079.49 370.565 2080.74 370.565 Q2083.71 370.565 2083.67 365.307 L2083.67 360.69 L2085.76 360.69 L2085.76 365.307 Q2085.76 369.682 2083.43 371.408 Q2081.14 373.094 2079.01 373.094 Q2076.28 373.094 2074.56 371.087 Q2072.83 369.08 2072.59 366.35 Q2071.34 369.481 2068.49 371.529 Q2065.68 373.536 2061.83 373.536 Q2058.86 373.536 2056.05 372.773 Q2053.28 372.051 2050.95 370.003 Q2048.66 367.916 2048.66 364.785 M2055.01 364.704 Q2055.01 367.755 2057.17 369.722 Q2059.34 371.689 2062.39 371.689 Q2065.85 371.689 2068.94 369.04 Q2072.03 366.35 2072.03 361.092 L2072.03 352.862 Q2062.91 353.183 2058.94 356.836 Q2055.01 360.449 2055.01 364.704 Z" fill="#000000" fill-rule="nonzero" fill-opacity="1"></path><path clip-path="url(#clip900)" d="M2088.97 372.613 L2088.97 370.084 Q2093.34 370.084 2094.35 369.562 Q2095.35 369 2095.35 366.35 L2095.35 344.312 Q2095.35 341.261 2094.27 340.498 Q2093.22 339.736 2088.97 339.736 L2088.97 337.166 L2100.53 336.283 L2100.53 344.914 Q2104.38 336.283 2112.69 336.283 Q2122.33 336.283 2123.65 344.312 Q2125.06 341.181 2127.99 338.732 Q2130.96 336.283 2135.57 336.283 Q2141.76 336.283 2144.2 339.334 Q2146.01 341.381 2146.37 343.67 Q2146.73 345.958 2146.73 351.899 L2146.73 367.595 Q2146.81 369.321 2148.14 369.722 Q2149.46 370.084 2153.16 370.084 L2153.16 372.613 Q2144.77 372.372 2143.96 372.372 Q2143.32 372.372 2134.65 372.613 L2134.65 370.084 Q2139.03 370.084 2140.03 369.562 Q2141.07 369 2141.07 366.35 L2141.07 347.202 Q2141.07 343.027 2139.79 340.579 Q2138.5 338.09 2134.97 338.09 Q2130.72 338.09 2127.3 341.662 Q2123.89 345.235 2123.89 351.257 L2123.89 366.35 Q2123.89 369 2124.9 369.562 Q2125.94 370.084 2130.31 370.084 L2130.31 372.613 Q2121.92 372.372 2121.08 372.372 Q2120.44 372.372 2111.81 372.613 L2111.81 370.084 Q2116.18 370.084 2117.19 369.562 Q2118.23 369 2118.23 366.35 L2118.23 347.202 Q2118.23 343.027 2116.95 340.579 Q2115.66 338.09 2112.13 338.09 Q2107.87 338.09 2104.46 341.662 Q2101.05 345.235 2101.05 351.257 L2101.05 366.35 Q2101.05 369 2102.05 369.562 Q2103.1 370.084 2107.43 370.084 L2107.43 372.613 Q2099.04 372.372 2098.24 372.372 Q2097.6 372.372 2088.97 372.613 Z" fill="#000000" fill-rule="nonzero" fill-opacity="1"></path><path clip-path="url(#clip900)" d="M2157.05 386.02 Q2161.43 386.02 2162.43 385.458 Q2163.47 384.937 2163.47 382.327 L2163.47 343.83 Q2163.47 341.1 2162.43 340.418 Q2161.43 339.736 2157.05 339.736 L2157.05 337.166 L2168.89 336.283 L2168.89 341.703 Q2173.83 336.283 2180.41 336.283 Q2187.4 336.283 2192.5 341.703 Q2197.59 347.122 2197.59 354.869 Q2197.59 362.697 2192.18 368.117 Q2186.76 373.536 2179.25 373.536 Q2175.15 373.536 2172.38 371.448 Q2169.65 369.321 2169.13 367.755 L2169.13 368.518 L2169.13 382.327 Q2169.13 384.977 2170.18 385.499 Q2171.22 386.02 2175.56 386.02 L2175.56 388.549 Q2166.93 388.309 2166.28 388.309 Q2165.48 388.309 2157.05 388.549 L2157.05 386.02 M2169.13 363.259 Q2169.13 364.504 2169.29 364.945 Q2169.49 365.387 2170.3 366.712 Q2173.55 371.689 2178.85 371.689 Q2178.89 371.689 2178.93 371.689 Q2183.62 371.689 2187.2 366.912 Q2190.77 362.095 2190.77 354.869 Q2190.77 347.965 2187.52 343.148 Q2184.27 338.331 2179.77 338.331 Q2176.56 338.331 2173.75 340.057 Q2170.94 341.783 2169.13 344.914 L2169.13 363.259 Z" fill="#000000" fill-rule="nonzero" fill-opacity="1"></path><path clip-path="url(#clip900)" d="M2203.09 372.613 L2203.09 370.084 Q2207.47 370.084 2208.47 369.562 Q2209.48 369 2209.48 366.35 L2209.48 323.598 Q2209.48 320.547 2208.39 319.784 Q2207.35 319.022 2203.09 319.022 L2203.09 316.453 L2214.9 315.569 L2214.9 366.35 Q2214.9 369 2215.94 369.562 Q2216.98 370.084 2221.32 370.084 L2221.32 372.613 Q2220.32 372.613 2218.23 372.532 Q2216.14 372.452 2214.62 372.412 Q2213.09 372.372 2212.21 372.372 Q2211.24 372.372 2203.09 372.613 Z" fill="#000000" fill-rule="nonzero" fill-opacity="1"></path><path clip-path="url(#clip900)" d="M2225.41 354.508 Q2225.41 346.761 2230.39 341.261 Q2235.37 335.761 2242.51 335.761 Q2249.74 335.761 2253.47 340.458 Q2257.25 345.155 2257.25 351.899 Q2257.25 353.143 2256.93 353.384 Q2256.6 353.625 2255.2 353.625 L2232.24 353.625 Q2232.24 362.015 2234.73 365.949 Q2238.18 371.448 2244 371.448 Q2244.8 371.448 2245.77 371.288 Q2246.73 371.127 2248.7 370.445 Q2250.66 369.722 2252.39 367.836 Q2254.12 365.949 2255.12 362.978 Q2255.36 361.814 2256.16 361.854 Q2257.25 361.854 2257.25 362.818 Q2257.25 363.54 2256.44 365.186 Q2255.68 366.792 2254.2 368.719 Q2252.71 370.646 2249.82 372.091 Q2246.97 373.536 2243.52 373.536 Q2236.29 373.536 2230.83 368.076 Q2225.41 362.577 2225.41 354.508 M2232.32 351.899 L2251.83 351.899 Q2251.83 350.173 2251.51 348.246 Q2251.23 346.319 2250.34 343.67 Q2249.5 340.98 2247.49 339.294 Q2245.48 337.608 2242.51 337.608 Q2241.19 337.608 2239.74 338.17 Q2238.34 338.732 2236.61 340.097 Q2234.89 341.462 2233.68 344.553 Q2232.48 347.644 2232.32 351.899 Z" fill="#000000" fill-rule="nonzero" fill-opacity="1"></path></svg>