<svg xmlns="http://www.w3.org/2000/svg" xmlns:xlink="http://www.w3.org/1999/xlink" width="600" height="400" viewBox="0 0 2400 1600">
<defs>
  <clipPath id="clip510">
    <rect x="0" y="0" width="2400" height="1600"></rect>
  </clipPath>
</defs>
<path clip-path="url(#clip510)" d="M0 1600 L2400 1600 L2400 0 L0 0  Z" fill="#ffffff" fill-rule="evenodd" fill-opacity="1"></path>
<defs>
  <clipPath id="clip511">
    <rect x="480" y="0" width="1681" height="1600"></rect>
  </clipPath>
</defs>
<path clip-path="url(#clip510)" d="M274.626 1384.3 L2352.76 1384.3 L2352.76 47.2441 L274.626 47.2441  Z" fill="#ffffff" fill-rule="evenodd" fill-opacity="1"></path>
<defs>
  <clipPath id="clip512">
    <rect x="274" y="47" width="2079" height="1338"></rect>
  </clipPath>
</defs>
<polyline clip-path="url(#clip512)" style="stroke:#000000; stroke-linecap:round; stroke-linejoin:round; stroke-width:2; stroke-opacity:0.1; fill:none" points="333.441,1384.3 333.441,47.2441 "></polyline>
<polyline clip-path="url(#clip512)" style="stroke:#000000; stroke-linecap:round; stroke-linejoin:round; stroke-width:2; stroke-opacity:0.1; fill:none" points="660.191,1384.3 660.191,47.2441 "></polyline>
<polyline clip-path="url(#clip512)" style="stroke:#000000; stroke-linecap:round; stroke-linejoin:round; stroke-width:2; stroke-opacity:0.1; fill:none" points="986.941,1384.3 986.941,47.2441 "></polyline>
<polyline clip-path="url(#clip512)" style="stroke:#000000; stroke-linecap:round; stroke-linejoin:round; stroke-width:2; stroke-opacity:0.1; fill:none" points="1313.69,1384.3 1313.69,47.2441 "></polyline>
<polyline clip-path="url(#clip512)" style="stroke:#000000; stroke-linecap:round; stroke-linejoin:round; stroke-width:2; stroke-opacity:0.1; fill:none" points="1640.44,1384.3 1640.44,47.2441 "></polyline>
<polyline clip-path="url(#clip512)" style="stroke:#000000; stroke-linecap:round; stroke-linejoin:round; stroke-width:2; stroke-opacity:0.1; fill:none" points="1967.19,1384.3 1967.19,47.2441 "></polyline>
<polyline clip-path="url(#clip512)" style="stroke:#000000; stroke-linecap:round; stroke-linejoin:round; stroke-width:2; stroke-opacity:0.1; fill:none" points="2293.94,1384.3 2293.94,47.2441 "></polyline>
<polyline clip-path="url(#clip510)" style="stroke:#000000; stroke-linecap:round; stroke-linejoin:round; stroke-width:4; stroke-opacity:1; fill:none" points="274.626,1384.3 2352.76,1384.3 "></polyline>
<polyline clip-path="url(#clip510)" style="stroke:#000000; stroke-linecap:round; stroke-linejoin:round; stroke-width:4; stroke-opacity:1; fill:none" points="333.441,1384.3 333.441,1365.4 "></polyline>
<polyline clip-path="url(#clip510)" style="stroke:#000000; stroke-linecap:round; stroke-linejoin:round; stroke-width:4; stroke-opacity:1; fill:none" points="660.191,1384.3 660.191,1365.4 "></polyline>
<polyline clip-path="url(#clip510)" style="stroke:#000000; stroke-linecap:round; stroke-linejoin:round; stroke-width:4; stroke-opacity:1; fill:none" points="986.941,1384.3 986.941,1365.4 "></polyline>
<polyline clip-path="url(#clip510)" style="stroke:#000000; stroke-linecap:round; stroke-linejoin:round; stroke-width:4; stroke-opacity:1; fill:none" points="1313.69,1384.3 1313.69,1365.4 "></polyline>
<polyline clip-path="url(#clip510)" style="stroke:#000000; stroke-linecap:round; stroke-linejoin:round; stroke-width:4; stroke-opacity:1; fill:none" points="1640.44,1384.3 1640.44,1365.4 "></polyline>
<polyline clip-path="url(#clip510)" style="stroke:#000000; stroke-linecap:round; stroke-linejoin:round; stroke-width:4; stroke-opacity:1; fill:none" points="1967.19,1384.3 1967.19,1365.4 "></polyline>
<polyline clip-path="url(#clip510)" style="stroke:#000000; stroke-linecap:round; stroke-linejoin:round; stroke-width:4; stroke-opacity:1; fill:none" points="2293.94,1384.3 2293.94,1365.4 "></polyline>
<path clip-path="url(#clip510)" d="M320.917 1424.98 L320.917 1422.61 Q330.032 1422.61 334.738 1417.76 Q336.035 1417.76 336.257 1418.05 Q336.48 1418.35 336.48 1419.72 L336.48 1462.3 Q336.48 1464.56 337.591 1465.26 Q338.703 1465.97 343.557 1465.97 L345.966 1465.97 L345.966 1468.3 Q343.298 1468.08 333.663 1468.08 Q324.029 1468.08 321.398 1468.3 L321.398 1465.97 L323.807 1465.97 Q328.587 1465.97 329.736 1465.3 Q330.884 1464.59 330.884 1462.3 L330.884 1422.98 Q326.919 1424.98 320.917 1424.98 Z" fill="#000000" fill-rule="nonzero" fill-opacity="1"></path><path clip-path="url(#clip510)" d="M645.036 1468.3 Q645.036 1466.93 645.147 1466.52 Q645.295 1466.11 645.888 1465.48 L660.45 1449.25 Q668.417 1440.29 668.417 1432.47 Q668.417 1427.39 665.749 1423.76 Q663.118 1420.13 658.264 1420.13 Q654.929 1420.13 652.113 1422.17 Q649.297 1424.2 648 1427.84 Q648.222 1427.76 649 1427.76 Q650.89 1427.76 651.928 1428.95 Q653.002 1430.13 653.002 1431.73 Q653.002 1433.76 651.668 1434.77 Q650.372 1435.73 649.075 1435.73 Q648.556 1435.73 647.852 1435.62 Q647.185 1435.51 646.11 1434.47 Q645.036 1433.39 645.036 1431.5 Q645.036 1426.21 649.038 1421.98 Q653.077 1417.76 659.228 1417.76 Q666.194 1417.76 670.752 1421.91 Q675.347 1426.02 675.347 1432.47 Q675.347 1434.73 674.643 1436.8 Q673.976 1438.84 673.049 1440.43 Q672.16 1442.03 669.714 1444.58 Q667.269 1447.14 665.305 1448.96 Q663.341 1450.77 658.931 1454.63 L650.89 1462.45 L664.564 1462.45 Q671.233 1462.45 671.752 1461.85 Q672.493 1460.78 673.42 1455.11 L675.347 1455.11 L673.197 1468.3 L645.036 1468.3 Z" fill="#000000" fill-rule="nonzero" fill-opacity="1"></path><path clip-path="url(#clip510)" d="M971.193 1458.07 Q971.193 1455.81 972.49 1454.74 Q973.787 1453.66 975.454 1453.66 Q977.196 1453.66 978.418 1454.81 Q979.678 1455.92 979.678 1457.89 Q979.678 1460 978.196 1461.19 Q976.751 1462.37 974.676 1462.07 Q976.492 1465.11 979.826 1466.48 Q983.198 1467.86 986.311 1467.86 Q989.572 1467.86 992.203 1465.04 Q994.871 1462.22 994.871 1455.33 Q994.871 1449.48 992.573 1446.1 Q990.313 1442.73 985.829 1442.73 L982.494 1442.73 Q981.346 1442.73 981.012 1442.62 Q980.679 1442.51 980.679 1441.88 Q980.679 1441.14 981.827 1440.99 Q982.976 1440.99 984.792 1440.77 Q989.201 1440.62 991.536 1436.8 Q993.648 1433.25 993.648 1428.17 Q993.648 1423.54 991.425 1421.61 Q989.238 1419.65 986.385 1419.65 Q983.717 1419.65 980.79 1420.76 Q977.863 1421.87 976.269 1424.35 Q980.975 1424.35 980.975 1428.17 Q980.975 1429.84 979.901 1430.95 Q978.863 1432.02 977.121 1432.02 Q975.454 1432.02 974.342 1430.99 Q973.231 1429.91 973.231 1428.1 Q973.231 1423.76 977.084 1420.76 Q980.975 1417.76 986.682 1417.76 Q992.314 1417.76 996.464 1420.72 Q1000.65 1423.69 1000.65 1428.24 Q1000.65 1432.73 997.687 1436.4 Q994.723 1440.06 990.017 1441.58 Q995.797 1442.73 999.243 1446.66 Q1002.69 1450.55 1002.69 1455.33 Q1002.69 1461.26 998.021 1465.63 Q993.352 1469.97 986.533 1469.97 Q980.234 1469.97 975.713 1466.56 Q971.193 1463.15 971.193 1458.07 Z" fill="#000000" fill-rule="nonzero" fill-opacity="1"></path><path clip-path="url(#clip510)" d="M1296.87 1455.78 L1296.87 1453.44 L1320.18 1417.83 Q1320.77 1416.9 1321.69 1416.94 Q1322.55 1416.94 1322.73 1417.28 Q1322.92 1417.61 1322.92 1418.91 L1322.92 1453.44 L1330.51 1453.44 L1330.51 1455.78 L1322.92 1455.78 L1322.92 1462.37 Q1322.92 1464.56 1323.81 1465.26 Q1324.73 1465.97 1328.66 1465.97 L1330.25 1465.97 L1330.25 1468.3 Q1327.14 1468.08 1319.95 1468.08 Q1312.8 1468.08 1309.69 1468.3 L1309.69 1465.97 L1311.28 1465.97 Q1315.21 1465.97 1316.14 1465.3 Q1317.06 1464.59 1317.06 1462.37 L1317.06 1455.78 L1296.87 1455.78 M1299.02 1453.44 L1317.51 1453.44 L1317.51 1425.13 L1299.02 1453.44 Z" fill="#000000" fill-rule="nonzero" fill-opacity="1"></path><path clip-path="url(#clip510)" d="M1625.29 1456.07 Q1625.29 1453.81 1626.51 1452.96 Q1627.73 1452.07 1629.03 1452.07 Q1630.77 1452.07 1631.77 1453.18 Q1632.81 1454.26 1632.81 1455.78 Q1632.81 1457.29 1631.77 1458.41 Q1630.77 1459.48 1629.03 1459.48 Q1628.18 1459.48 1627.73 1459.33 Q1628.73 1462.82 1631.77 1465.34 Q1634.85 1467.86 1638.88 1467.86 Q1643.96 1467.86 1647 1462.93 Q1648.82 1459.74 1648.82 1452.51 Q1648.82 1446.14 1647.44 1442.95 Q1645.33 1438.1 1641 1438.1 Q1634.85 1438.1 1631.21 1443.4 Q1630.77 1444.07 1630.25 1444.1 Q1629.51 1444.1 1629.32 1443.7 Q1629.18 1443.25 1629.18 1442.1 L1629.18 1419.65 Q1629.18 1417.83 1629.92 1417.83 Q1630.21 1417.83 1630.84 1418.05 Q1635.62 1420.17 1640.92 1420.2 Q1646.37 1420.2 1651.26 1417.98 Q1651.63 1417.76 1651.85 1417.76 Q1652.6 1417.76 1652.63 1418.61 Q1652.63 1418.91 1652 1419.79 Q1651.41 1420.65 1650.11 1421.8 Q1648.82 1422.91 1647.15 1423.98 Q1645.48 1425.06 1643.03 1425.8 Q1640.63 1426.5 1637.96 1426.5 Q1634.77 1426.5 1631.51 1425.5 L1631.51 1440.29 Q1635.44 1436.43 1641.15 1436.43 Q1647.22 1436.43 1651.41 1441.32 Q1655.6 1446.22 1655.6 1453.03 Q1655.6 1460.18 1650.63 1465.08 Q1645.7 1469.97 1639.03 1469.97 Q1632.96 1469.97 1629.1 1465.63 Q1625.29 1461.3 1625.29 1456.07 Z" fill="#000000" fill-rule="nonzero" fill-opacity="1"></path><path clip-path="url(#clip510)" d="M1951.44 1444.33 Q1951.44 1432.39 1957.52 1425.09 Q1963.6 1417.76 1971.42 1417.76 Q1975.97 1417.76 1978.49 1420.09 Q1981.05 1422.39 1981.05 1425.95 Q1981.05 1427.91 1979.9 1428.76 Q1978.75 1429.61 1977.57 1429.61 Q1976.2 1429.61 1975.12 1428.69 Q1974.05 1427.76 1974.05 1426.09 Q1974.05 1422.69 1978.23 1422.69 Q1976.27 1419.65 1971.56 1419.65 Q1970.12 1419.65 1968.64 1420.09 Q1967.15 1420.5 1965.23 1421.91 Q1963.3 1423.32 1961.82 1425.54 Q1960.34 1427.76 1959.3 1431.95 Q1958.26 1436.14 1958.26 1441.58 L1958.26 1443.4 Q1961.37 1435.88 1967.75 1435.91 Q1974.12 1435.91 1978.53 1440.77 Q1982.94 1445.62 1982.94 1452.81 Q1982.94 1460.18 1978.34 1465.08 Q1973.75 1469.97 1967.3 1469.97 Q1964.41 1469.97 1961.78 1468.74 Q1959.19 1467.56 1956.74 1464.82 Q1954.33 1462.07 1952.89 1456.81 Q1951.44 1451.55 1951.44 1444.33 M1958.41 1451.14 Q1958.41 1458.59 1959.78 1462.15 Q1960 1462.74 1960.48 1463.56 Q1961 1464.37 1961.86 1465.45 Q1962.74 1466.48 1964.19 1467.19 Q1965.63 1467.86 1967.3 1467.86 Q1972.38 1467.86 1974.82 1462.93 Q1976.12 1460.18 1976.12 1452.74 Q1976.12 1445.14 1974.75 1442.36 Q1972.42 1437.66 1967.67 1437.66 Q1964.49 1437.66 1962.26 1439.84 Q1960.08 1442.03 1959.22 1444.96 Q1958.41 1447.88 1958.41 1451.14 Z" fill="#000000" fill-rule="nonzero" fill-opacity="1"></path><path clip-path="url(#clip510)" d="M2277.67 1432.62 L2280.16 1417.02 L2282.05 1417.02 Q2282.27 1417.94 2282.64 1418.35 Q2283.05 1418.76 2285.2 1419.09 Q2287.38 1419.42 2291.79 1419.42 L2310.21 1419.42 Q2310.21 1421.17 2309.54 1422.09 L2299.28 1436.51 Q2296.02 1441.06 2294.57 1449.48 Q2293.72 1455.11 2293.76 1461.93 L2293.76 1465.78 Q2293.76 1469.97 2290.24 1469.97 Q2286.75 1469.97 2286.75 1465.78 Q2286.75 1451.29 2296.09 1437.25 Q2297.09 1435.8 2300.76 1430.65 Q2304.46 1425.5 2304.61 1425.28 L2288.9 1425.28 Q2282.01 1425.28 2281.45 1425.72 Q2280.71 1426.39 2279.56 1432.62 L2277.67 1432.62 Z" fill="#000000" fill-rule="nonzero" fill-opacity="1"></path><path clip-path="url(#clip510)" d="M1216.11 1581 L1216.11 1577.89 Q1221.5 1577.89 1222.73 1577.25 Q1224.02 1576.56 1224.02 1573.3 L1224.02 1546.17 Q1224.02 1542.42 1222.68 1541.48 Q1221.4 1540.54 1216.11 1540.54 L1216.11 1537.38 L1230.19 1536.29 L1230.19 1547.41 Q1231.63 1543.06 1234.64 1539.7 Q1237.7 1536.29 1242.64 1536.29 Q1245.91 1536.29 1247.98 1538.12 Q1250.1 1539.95 1250.1 1542.47 Q1250.1 1544.69 1248.72 1545.83 Q1247.39 1546.91 1245.76 1546.91 Q1243.93 1546.91 1242.64 1545.78 Q1241.41 1544.59 1241.41 1542.57 Q1241.41 1541.33 1241.95 1540.39 Q1242.55 1539.4 1242.99 1539.06 Q1243.43 1538.71 1243.73 1538.61 Q1243.53 1538.51 1242.64 1538.51 Q1237.06 1538.51 1233.85 1544.1 Q1230.69 1549.63 1230.69 1557.54 L1230.69 1573.1 Q1230.69 1576.01 1231.87 1576.95 Q1233.11 1577.89 1238.4 1577.89 L1240.52 1577.89 L1240.52 1581 Q1236.47 1580.71 1227.67 1580.71 Q1226.44 1580.71 1224.51 1580.76 Q1222.59 1580.81 1220.07 1580.91 Q1217.55 1581 1216.11 1581 Z" fill="#000000" fill-rule="nonzero" fill-opacity="1"></path><path clip-path="url(#clip510)" d="M1257.07 1571.37 Q1257.07 1562.77 1267.2 1558.23 Q1273.28 1555.31 1285.83 1554.57 L1285.83 1550.87 Q1285.83 1544.59 1282.52 1541.28 Q1279.25 1537.92 1275.1 1537.92 Q1267.69 1537.92 1264.14 1542.57 Q1267.15 1542.66 1268.24 1544.2 Q1269.32 1545.68 1269.32 1547.21 Q1269.32 1549.24 1268.04 1550.57 Q1266.8 1551.85 1264.68 1551.85 Q1262.65 1551.85 1261.32 1550.62 Q1259.99 1549.33 1259.99 1547.11 Q1259.99 1542.17 1264.43 1538.91 Q1268.93 1535.65 1275.3 1535.65 Q1283.6 1535.65 1289.14 1541.23 Q1290.87 1542.96 1291.71 1545.18 Q1292.59 1547.41 1292.69 1548.89 Q1292.79 1550.32 1292.79 1553.19 L1292.79 1573.4 Q1292.79 1573.99 1292.99 1574.98 Q1293.19 1575.96 1294.08 1577.25 Q1295.02 1578.48 1296.55 1578.48 Q1300.2 1578.48 1300.15 1572.01 L1300.15 1566.33 L1302.72 1566.33 L1302.72 1572.01 Q1302.72 1577.4 1299.86 1579.52 Q1297.04 1581.6 1294.42 1581.6 Q1291.06 1581.6 1288.94 1579.13 Q1286.81 1576.66 1286.52 1573.3 Q1284.99 1577.15 1281.48 1579.67 Q1278.02 1582.14 1273.28 1582.14 Q1269.62 1582.14 1266.16 1581.2 Q1262.75 1580.31 1259.89 1577.79 Q1257.07 1575.22 1257.07 1571.37 M1264.88 1571.27 Q1264.88 1575.03 1267.55 1577.45 Q1270.21 1579.87 1273.97 1579.87 Q1278.22 1579.87 1282.02 1576.61 Q1285.83 1573.3 1285.83 1566.82 L1285.83 1556.7 Q1274.61 1557.09 1269.72 1561.59 Q1264.88 1566.03 1264.88 1571.27 Z" fill="#000000" fill-rule="nonzero" fill-opacity="1"></path><path clip-path="url(#clip510)" d="M1306.68 1581 L1306.68 1577.89 Q1312.06 1577.89 1313.3 1577.25 Q1314.53 1576.56 1314.53 1573.3 L1314.53 1546.17 Q1314.53 1542.42 1313.2 1541.48 Q1311.91 1540.54 1306.68 1540.54 L1306.68 1537.38 L1320.9 1536.29 L1320.9 1546.91 Q1325.65 1536.29 1335.87 1536.29 Q1343.48 1536.29 1346.5 1540.05 Q1348.72 1542.57 1349.17 1545.38 Q1349.66 1548.2 1349.66 1555.51 L1349.66 1574.83 Q1349.76 1576.95 1351.39 1577.45 Q1353.02 1577.89 1357.56 1577.89 L1357.56 1581 Q1347.24 1580.71 1346.2 1580.71 Q1345.41 1580.71 1334.79 1581 L1334.79 1577.89 Q1340.17 1577.89 1341.41 1577.25 Q1342.69 1576.56 1342.69 1573.3 L1342.69 1549.73 Q1342.69 1544.59 1341.11 1541.58 Q1339.53 1538.51 1335.18 1538.51 Q1329.95 1538.51 1325.75 1542.91 Q1321.55 1547.31 1321.55 1554.72 L1321.55 1573.3 Q1321.55 1576.56 1322.78 1577.25 Q1324.07 1577.89 1329.4 1577.89 L1329.4 1581 Q1319.08 1580.71 1318.09 1580.71 Q1317.3 1580.71 1306.68 1581 Z" fill="#000000" fill-rule="nonzero" fill-opacity="1"></path><path clip-path="url(#clip510)" d="M1362.36 1581 L1362.36 1577.89 Q1367.74 1577.89 1368.98 1577.25 Q1370.26 1576.56 1370.26 1573.3 L1370.26 1520.68 Q1370.26 1516.92 1368.93 1515.98 Q1367.64 1515.05 1362.36 1515.05 L1362.36 1511.88 L1376.93 1510.8 L1376.93 1559.36 L1391.21 1547.01 Q1393.43 1545.09 1393.43 1543.06 Q1393.43 1540.74 1390.52 1540.54 L1390.52 1537.38 Q1394.77 1537.67 1401.83 1537.67 Q1405.98 1537.67 1408.9 1537.38 L1408.9 1540.54 Q1402.52 1540.84 1396.15 1545.97 Q1394.72 1547.11 1391.31 1550.08 Q1387.95 1552.99 1387.95 1553.29 Q1387.95 1553.39 1388.05 1553.63 Q1388.2 1553.88 1388.39 1554.08 Q1388.59 1554.27 1388.59 1554.37 L1401.44 1572.51 Q1404.06 1576.16 1405.98 1577.05 Q1407.91 1577.89 1411.27 1577.89 L1411.27 1581 Q1406.92 1580.71 1402.43 1580.71 Q1400 1580.71 1391.51 1581 L1391.51 1577.89 Q1395.16 1577.89 1395.16 1575.52 Q1395.16 1573.89 1386.96 1562.58 Q1386.37 1561.78 1385.03 1560.06 Q1383.8 1558.23 1383.11 1557.34 L1376.64 1562.87 L1376.64 1573.3 Q1376.64 1576.56 1377.87 1577.25 Q1379.15 1577.89 1384.54 1577.89 L1384.54 1581 Q1378.46 1580.71 1373.42 1580.71 Q1372.39 1580.71 1362.36 1581 Z" fill="#000000" fill-rule="nonzero" fill-opacity="1"></path><polyline clip-path="url(#clip512)" style="stroke:#000000; stroke-linecap:round; stroke-linejoin:round; stroke-width:2; stroke-opacity:0.1; fill:none" points="274.626,1335.61 2352.76,1335.61 "></polyline>
<polyline clip-path="url(#clip512)" style="stroke:#000000; stroke-linecap:round; stroke-linejoin:round; stroke-width:2; stroke-opacity:0.1; fill:none" points="274.626,1072.62 2352.76,1072.62 "></polyline>
<polyline clip-path="url(#clip512)" style="stroke:#000000; stroke-linecap:round; stroke-linejoin:round; stroke-width:2; stroke-opacity:0.1; fill:none" points="274.626,809.621 2352.76,809.621 "></polyline>
<polyline clip-path="url(#clip512)" style="stroke:#000000; stroke-linecap:round; stroke-linejoin:round; stroke-width:2; stroke-opacity:0.1; fill:none" points="274.626,546.624 2352.76,546.624 "></polyline>
<polyline clip-path="url(#clip512)" style="stroke:#000000; stroke-linecap:round; stroke-linejoin:round; stroke-width:2; stroke-opacity:0.1; fill:none" points="274.626,283.628 2352.76,283.628 "></polyline>
<polyline clip-path="url(#clip510)" style="stroke:#000000; stroke-linecap:round; stroke-linejoin:round; stroke-width:4; stroke-opacity:1; fill:none" points="274.626,1384.3 274.626,47.2441 "></polyline>
<polyline clip-path="url(#clip510)" style="stroke:#000000; stroke-linecap:round; stroke-linejoin:round; stroke-width:4; stroke-opacity:1; fill:none" points="274.626,1335.61 293.524,1335.61 "></polyline>
<polyline clip-path="url(#clip510)" style="stroke:#000000; stroke-linecap:round; stroke-linejoin:round; stroke-width:4; stroke-opacity:1; fill:none" points="274.626,1072.62 293.524,1072.62 "></polyline>
<polyline clip-path="url(#clip510)" style="stroke:#000000; stroke-linecap:round; stroke-linejoin:round; stroke-width:4; stroke-opacity:1; fill:none" points="274.626,809.621 293.524,809.621 "></polyline>
<polyline clip-path="url(#clip510)" style="stroke:#000000; stroke-linecap:round; stroke-linejoin:round; stroke-width:4; stroke-opacity:1; fill:none" points="274.626,546.624 293.524,546.624 "></polyline>
<polyline clip-path="url(#clip510)" style="stroke:#000000; stroke-linecap:round; stroke-linejoin:round; stroke-width:4; stroke-opacity:1; fill:none" points="274.626,283.628 293.524,283.628 "></polyline>
<path clip-path="url(#clip510)" d="M206.685 1337.26 Q206.685 1326.11 209.501 1320.03 Q213.429 1310.99 222.692 1310.99 Q224.656 1310.99 226.694 1311.55 Q228.769 1312.07 231.363 1314.1 Q233.994 1316.14 235.588 1319.48 Q238.626 1325.92 238.626 1337.26 Q238.626 1348.34 235.81 1354.38 Q231.697 1363.2 222.618 1363.2 Q219.209 1363.2 215.726 1361.46 Q212.28 1359.72 210.094 1355.53 Q206.685 1349.27 206.685 1337.26 M212.984 1336.34 Q212.984 1347.79 213.799 1352.34 Q214.726 1357.27 217.245 1359.42 Q219.802 1361.53 222.618 1361.53 Q225.657 1361.53 228.177 1359.27 Q230.733 1356.98 231.512 1352.05 Q232.364 1347.19 232.327 1336.34 Q232.327 1325.78 231.586 1321.55 Q230.585 1316.62 227.917 1314.66 Q225.286 1312.66 222.618 1312.66 Q221.618 1312.66 220.543 1312.96 Q219.506 1313.25 217.986 1314.1 Q216.467 1314.96 215.281 1317.07 Q214.133 1319.18 213.577 1322.37 Q212.984 1326.48 212.984 1336.34 Z" fill="#000000" fill-rule="nonzero" fill-opacity="1"></path><path clip-path="url(#clip510)" d="M213.577 1055.22 L213.577 1052.85 Q222.692 1052.85 227.398 1047.99 Q228.695 1047.99 228.918 1048.29 Q229.14 1048.59 229.14 1049.96 L229.14 1092.53 Q229.14 1094.79 230.252 1095.5 Q231.363 1096.2 236.218 1096.2 L238.626 1096.2 L238.626 1098.54 Q235.958 1098.32 226.324 1098.32 Q216.69 1098.32 214.059 1098.54 L214.059 1096.2 L216.467 1096.2 Q221.247 1096.2 222.396 1095.54 Q223.545 1094.83 223.545 1092.53 L223.545 1053.22 Q219.58 1055.22 213.577 1055.22 Z" fill="#000000" fill-rule="nonzero" fill-opacity="1"></path><path clip-path="url(#clip510)" d="M208.315 835.541 Q208.315 834.17 208.426 833.762 Q208.574 833.355 209.167 832.725 L223.73 816.495 Q231.697 807.527 231.697 799.709 Q231.697 794.632 229.029 791.001 Q226.398 787.369 221.544 787.369 Q218.209 787.369 215.393 789.407 Q212.576 791.445 211.28 795.077 Q211.502 795.003 212.28 795.003 Q214.17 795.003 215.207 796.188 Q216.282 797.374 216.282 798.968 Q216.282 801.006 214.948 802.006 Q213.651 802.97 212.354 802.97 Q211.835 802.97 211.131 802.858 Q210.464 802.747 209.39 801.71 Q208.315 800.635 208.315 798.745 Q208.315 793.446 212.317 789.222 Q216.356 784.998 222.507 784.998 Q229.474 784.998 234.031 789.148 Q238.626 793.261 238.626 799.709 Q238.626 801.969 237.922 804.044 Q237.255 806.082 236.329 807.676 Q235.439 809.269 232.994 811.826 Q230.548 814.382 228.584 816.198 Q226.62 818.014 222.211 821.868 L214.17 829.686 L227.843 829.686 Q234.513 829.686 235.032 829.093 Q235.773 828.019 236.699 822.349 L238.626 822.349 L236.477 835.541 L208.315 835.541 Z" fill="#000000" fill-rule="nonzero" fill-opacity="1"></path><path clip-path="url(#clip510)" d="M207.129 562.317 Q207.129 560.057 208.426 558.982 Q209.723 557.908 211.391 557.908 Q213.132 557.908 214.355 559.056 Q215.615 560.168 215.615 562.132 Q215.615 564.244 214.133 565.43 Q212.688 566.615 210.613 566.319 Q212.428 569.358 215.763 570.729 Q219.135 572.1 222.248 572.1 Q225.509 572.1 228.14 569.283 Q230.808 566.467 230.808 559.575 Q230.808 553.72 228.51 550.348 Q226.25 546.976 221.766 546.976 L218.431 546.976 Q217.282 546.976 216.949 546.865 Q216.615 546.754 216.615 546.124 Q216.615 545.383 217.764 545.235 Q218.913 545.235 220.729 545.012 Q225.138 544.864 227.473 541.048 Q229.585 537.49 229.585 532.414 Q229.585 527.782 227.361 525.855 Q225.175 523.891 222.322 523.891 Q219.654 523.891 216.727 525.003 Q213.799 526.114 212.206 528.597 Q216.912 528.597 216.912 532.414 Q216.912 534.081 215.837 535.193 Q214.8 536.267 213.058 536.267 Q211.391 536.267 210.279 535.23 Q209.167 534.155 209.167 532.34 Q209.167 528.004 213.021 525.003 Q216.912 522.001 222.618 522.001 Q228.251 522.001 232.401 524.966 Q236.588 527.93 236.588 532.488 Q236.588 536.971 233.624 540.64 Q230.659 544.308 225.953 545.828 Q231.734 546.976 235.18 550.904 Q238.626 554.795 238.626 559.575 Q238.626 565.504 233.957 569.876 Q229.288 574.212 222.47 574.212 Q216.171 574.212 211.65 570.803 Q207.129 567.394 207.129 562.317 Z" fill="#000000" fill-rule="nonzero" fill-opacity="1"></path><path clip-path="url(#clip510)" d="M204.98 297.023 L204.98 294.689 L228.288 259.079 Q228.881 258.152 229.807 258.189 Q230.659 258.189 230.845 258.523 Q231.03 258.856 231.03 260.153 L231.03 294.689 L238.626 294.689 L238.626 297.023 L231.03 297.023 L231.03 303.619 Q231.03 305.805 231.919 306.509 Q232.846 307.213 236.773 307.213 L238.367 307.213 L238.367 309.548 Q235.254 309.325 228.065 309.325 Q220.914 309.325 217.801 309.548 L217.801 307.213 L219.395 307.213 Q223.322 307.213 224.249 306.546 Q225.175 305.842 225.175 303.619 L225.175 297.023 L204.98 297.023 M207.129 294.689 L225.62 294.689 L225.62 266.379 L207.129 294.689 Z" fill="#000000" fill-rule="nonzero" fill-opacity="1"></path><path clip-path="url(#clip510)" d="M67.4222 1134.25 L54.0824 1134.25 Q52.946 1134.25 52.5508 1134.2 Q52.1555 1134.15 51.8591 1133.85 Q51.5626 1133.56 51.5626 1132.96 Q51.5626 1132.27 51.8591 1132.02 Q52.1555 1131.73 53.2919 1131.53 Q60.2582 1130 63.9637 1126.74 Q67.6198 1123.43 67.6198 1117.45 Q67.6198 1111.77 65.1001 1108.9 Q62.5803 1106.04 58.4302 1106.04 Q51.0191 1106.04 49.1417 1116.56 Q47.9065 1122.64 47.116 1125.16 Q46.2761 1127.68 44.4481 1129.9 Q40.8908 1134.25 35.8513 1134.25 Q30.8118 1134.25 27.1063 1130.44 Q23.4008 1126.59 23.4008 1118.09 Q23.4008 1112.41 26.2664 1108.56 Q25.3771 1107.42 24.636 1106.83 Q23.4008 1105.49 23.4008 1104.8 Q23.4008 1104.01 23.9443 1103.86 Q24.4383 1103.71 25.8711 1103.71 L36.0489 1103.71 Q37.1853 1103.71 37.5805 1103.76 Q37.9758 1103.81 38.2722 1104.11 Q38.5192 1104.41 38.5192 1105.05 Q38.5192 1106.18 37.5805 1106.23 Q25.3277 1107.02 25.3277 1118.09 Q25.3277 1124.07 27.6498 1126.74 Q29.9225 1129.41 33.0351 1129.41 Q34.7643 1129.41 36.0983 1128.61 Q37.3829 1127.77 38.1734 1126.74 Q38.9145 1125.65 39.6556 1123.67 Q40.3473 1121.7 40.5943 1120.51 Q40.8414 1119.28 41.3354 1116.95 Q42.867 1108.85 46.1773 1105.44 Q50.4263 1101.19 55.8116 1101.19 Q61.7898 1101.19 65.8412 1105.25 Q69.8925 1109.3 69.8925 1117.45 Q69.8925 1124.02 65.4953 1128.61 Q66.0882 1129.21 66.6317 1129.65 Q67.1257 1130.1 67.3234 1130.29 Q67.521 1130.44 67.6692 1130.49 Q67.768 1130.54 67.8668 1130.64 Q69.8925 1132.67 69.8925 1133.16 Q69.8925 1133.95 69.349 1134.1 Q68.855 1134.25 67.4222 1134.25 Z" fill="#000000" fill-rule="nonzero" fill-opacity="1"></path><path clip-path="url(#clip510)" d="M28.2921 1095.86 L26.0688 1095.86 Q25.8711 1091.21 22.6103 1088.15 Q19.3 1085.04 15.2487 1084 Q11.1973 1082.91 6.50369 1082.81 L6.50369 1080.29 L25.13 1080.29 L25.13 1065.82 L28.2921 1065.82 L28.2921 1080.29 L56.4045 1080.29 Q67.3234 1080.29 67.3234 1073.48 Q67.3234 1070.56 64.359 1068.63 Q61.3451 1066.71 56.0092 1066.71 L50.4263 1066.71 L50.4263 1064.19 L56.2069 1064.19 Q61.691 1064.19 65.7918 1066.71 Q69.8925 1069.23 69.8925 1074.22 Q69.8925 1076.05 69.3984 1077.87 Q68.9538 1079.65 67.768 1082.02 Q66.5329 1084.35 63.5685 1085.83 Q60.5546 1087.26 56.2069 1087.26 L28.2921 1087.26 L28.2921 1095.86 Z" fill="#000000" fill-rule="nonzero" fill-opacity="1"></path><path clip-path="url(#clip510)" d="M59.1218 1054.31 Q50.5251 1054.31 45.9797 1044.18 Q43.0647 1038.1 42.3236 1025.55 L38.6181 1025.55 Q32.3434 1025.55 29.0332 1028.86 Q25.6735 1032.12 25.6735 1036.27 Q25.6735 1043.68 30.3177 1047.24 Q30.4165 1044.23 31.9482 1043.14 Q33.4304 1042.05 34.962 1042.05 Q36.9876 1042.05 38.3216 1043.34 Q39.6062 1044.57 39.6062 1046.7 Q39.6062 1048.72 38.371 1050.06 Q37.0865 1051.39 34.8631 1051.39 Q29.9225 1051.39 26.6616 1046.95 Q23.4008 1042.45 23.4008 1036.08 Q23.4008 1027.78 28.9837 1022.24 Q30.713 1020.51 32.9363 1019.67 Q35.1596 1018.78 36.6418 1018.68 Q38.0746 1018.59 40.9402 1018.59 L61.1475 1018.59 Q61.7404 1018.59 62.7285 1018.39 Q63.7167 1018.19 65.0012 1017.3 Q66.2364 1016.36 66.2364 1014.83 Q66.2364 1011.17 59.7641 1011.22 L54.0824 1011.22 L54.0824 1008.65 L59.7641 1008.65 Q65.1495 1008.65 67.274 1011.52 Q69.349 1014.34 69.349 1016.96 Q69.349 1020.31 66.8787 1022.44 Q64.4084 1024.56 61.0487 1024.86 Q64.9024 1026.39 67.4222 1029.9 Q69.8925 1033.36 69.8925 1038.1 Q69.8925 1041.76 68.9538 1045.22 Q68.0645 1048.63 65.5447 1051.49 Q62.9756 1054.31 59.1218 1054.31 M59.023 1046.5 Q62.7779 1046.5 65.1989 1043.83 Q67.6198 1041.16 67.6198 1037.41 Q67.6198 1033.16 64.359 1029.36 Q61.0487 1025.55 54.5764 1025.55 L44.4481 1025.55 Q44.8433 1036.77 49.3393 1041.66 Q53.7859 1046.5 59.023 1046.5 Z" fill="#000000" fill-rule="nonzero" fill-opacity="1"></path><path clip-path="url(#clip510)" d="M68.7562 1004.7 L65.6435 1004.7 Q65.6435 999.317 65.0012 998.082 Q64.3096 996.847 61.0487 996.847 L33.9244 996.847 Q30.1695 996.847 29.2308 998.181 Q28.2921 999.465 28.2921 1004.7 L25.13 1004.7 L24.0431 990.473 L34.6655 990.473 Q24.0431 985.73 24.0431 975.503 Q24.0431 967.894 27.798 964.881 Q30.3177 962.657 33.1339 962.213 Q35.9501 961.719 43.2623 961.719 L62.5803 961.719 Q64.7048 961.62 65.1989 959.989 Q65.6435 958.359 65.6435 953.814 L68.7562 953.814 Q68.4597 964.14 68.4597 965.177 Q68.4597 965.968 68.7562 976.59 L65.6435 976.59 Q65.6435 971.205 65.0012 969.97 Q64.3096 968.685 61.0487 968.685 L37.4817 968.685 Q32.3434 968.685 29.3296 970.266 Q26.2664 971.847 26.2664 976.195 Q26.2664 981.432 30.6636 985.631 Q35.0608 989.831 42.4718 989.831 L61.0487 989.831 Q64.3096 989.831 65.0012 988.596 Q65.6435 987.311 65.6435 981.975 L68.7562 981.975 Q68.4597 992.301 68.4597 993.29 Q68.4597 994.08 68.7562 1004.7 Z" fill="#000000" fill-rule="nonzero" fill-opacity="1"></path><path clip-path="url(#clip510)" d="M47.0172 948.379 Q37.3829 948.379 30.713 941.659 Q24.0431 934.94 24.0431 925.849 Q24.0431 918.142 30.3177 913.102 L8.43055 913.102 Q4.67564 913.102 3.73692 914.436 Q2.79819 915.721 2.79819 920.958 L-0.363843 920.958 L-1.45079 906.383 L59.9618 906.383 Q63.7167 906.383 64.7048 905.099 Q65.6435 903.765 65.6435 898.527 L68.7562 898.527 L69.8925 913.399 L63.1732 913.399 Q69.8431 918.636 69.8925 926.936 Q69.8925 935.632 63.2226 942.005 Q56.5527 948.379 47.0172 948.379 M47.116 939.98 Q56.5033 939.98 61.1475 937.065 Q67.6198 933.013 67.6198 926.442 Q67.6198 918.932 60.5546 914.486 Q58.8254 913.349 56.7997 913.399 L36.0489 913.399 Q34.0232 913.399 32.3434 914.486 Q26.2664 918.636 26.2664 925.405 Q26.2664 932.47 32.7387 936.867 Q37.5805 939.98 47.116 939.98 Z" fill="#000000" fill-rule="nonzero" fill-opacity="1"></path><path clip-path="url(#clip510)" d="M59.1218 891.462 Q50.5251 891.462 45.9797 881.334 Q43.0647 875.257 42.3236 862.708 L38.6181 862.708 Q32.3434 862.708 29.0332 866.018 Q25.6735 869.279 25.6735 873.429 Q25.6735 880.84 30.3177 884.397 Q30.4165 881.383 31.9482 880.296 Q33.4304 879.209 34.962 879.209 Q36.9876 879.209 38.3216 880.494 Q39.6062 881.729 39.6062 883.854 Q39.6062 885.879 38.371 887.213 Q37.0865 888.547 34.8631 888.547 Q29.9225 888.547 26.6616 884.101 Q23.4008 879.605 23.4008 873.231 Q23.4008 864.931 28.9837 859.397 Q30.713 857.668 32.9363 856.828 Q35.1596 855.939 36.6418 855.84 Q38.0746 855.741 40.9402 855.741 L61.1475 855.741 Q61.7404 855.741 62.7285 855.544 Q63.7167 855.346 65.0012 854.457 Q66.2364 853.518 66.2364 851.986 Q66.2364 848.33 59.7641 848.38 L54.0824 848.38 L54.0824 845.81 L59.7641 845.81 Q65.1495 845.81 67.274 848.676 Q69.349 851.492 69.349 854.111 Q69.349 857.47 66.8787 859.595 Q64.4084 861.719 61.0487 862.016 Q64.9024 863.547 67.4222 867.055 Q69.8925 870.514 69.8925 875.257 Q69.8925 878.913 68.9538 882.371 Q68.0645 885.78 65.5447 888.646 Q62.9756 891.462 59.1218 891.462 M59.023 883.656 Q62.7779 883.656 65.1989 880.988 Q67.6198 878.32 67.6198 874.565 Q67.6198 870.316 64.359 866.512 Q61.0487 862.708 54.5764 862.708 L44.4481 862.708 Q44.8433 873.923 49.3393 878.814 Q53.7859 883.656 59.023 883.656 Z" fill="#000000" fill-rule="nonzero" fill-opacity="1"></path><path clip-path="url(#clip510)" d="M68.7562 842.303 L65.6435 842.303 Q65.6435 836.917 65.0012 835.682 Q64.3096 834.398 61.0487 834.398 L33.9244 834.398 Q30.1695 834.398 29.2308 835.731 Q28.2921 837.016 28.2921 842.303 L25.13 842.303 L24.0431 828.222 L35.1596 828.222 Q30.8118 826.789 27.4521 823.775 Q24.0431 820.712 24.0431 815.771 Q24.0431 812.51 25.8711 810.435 Q27.6992 808.311 30.2189 808.311 Q32.4422 808.311 33.5786 809.694 Q34.6655 811.028 34.6655 812.659 Q34.6655 814.487 33.5292 815.771 Q32.3434 817.006 30.3177 817.006 Q29.0826 817.006 28.1438 816.463 Q27.1557 815.87 26.8099 815.425 Q26.464 814.981 26.3652 814.684 Q26.2664 814.882 26.2664 815.771 Q26.2664 821.354 31.8493 824.566 Q37.3829 827.728 45.288 827.728 L60.8511 827.728 Q63.7661 827.728 64.7048 826.542 Q65.6435 825.307 65.6435 820.02 L65.6435 817.896 L68.7562 817.896 Q68.4597 821.947 68.4597 830.741 Q68.4597 831.977 68.5091 833.903 Q68.5585 835.83 68.6573 838.35 Q68.7562 840.87 68.7562 842.303 Z" fill="#000000" fill-rule="nonzero" fill-opacity="1"></path><path clip-path="url(#clip510)" d="M47.0172 802.135 Q37.3829 802.135 30.713 795.416 Q24.0431 788.696 24.0431 779.605 Q24.0431 771.898 30.3177 766.859 L8.43055 766.859 Q4.67564 766.859 3.73692 768.192 Q2.79819 769.477 2.79819 774.714 L-0.363843 774.714 L-1.45079 760.139 L59.9618 760.139 Q63.7167 760.139 64.7048 758.855 Q65.6435 757.521 65.6435 752.284 L68.7562 752.284 L69.8925 767.155 L63.1732 767.155 Q69.8431 772.392 69.8925 780.692 Q69.8925 789.388 63.2226 795.761 Q56.5527 802.135 47.0172 802.135 M47.116 793.736 Q56.5033 793.736 61.1475 790.821 Q67.6198 786.769 67.6198 780.198 Q67.6198 772.689 60.5546 768.242 Q58.8254 767.106 56.7997 767.155 L36.0489 767.155 Q34.0232 767.155 32.3434 768.242 Q26.2664 772.392 26.2664 779.161 Q26.2664 786.226 32.7387 790.623 Q37.5805 793.736 47.116 793.736 Z" fill="#000000" fill-rule="nonzero" fill-opacity="1"></path><path clip-path="url(#clip510)" d="M63.2226 705.94 Q56.5033 712.363 46.9184 712.363 Q37.2841 712.363 30.3671 706.039 Q23.4008 699.715 23.4008 690.426 Q23.4008 684.25 26.3652 679.606 Q29.2802 674.962 34.2703 674.962 Q36.4936 674.962 37.7781 676.296 Q39.0133 677.581 39.0133 679.606 Q39.0133 681.731 37.7287 683.015 Q36.3948 684.25 34.3691 684.25 Q33.4798 684.25 32.5904 683.954 Q31.7011 683.658 30.7624 682.571 Q29.8237 681.434 29.6754 679.507 Q25.9699 683.114 25.9699 690.13 Q25.9699 690.229 25.9699 690.328 Q25.9699 695.466 30.8118 699.715 Q35.6537 703.964 46.7208 703.964 Q52.5013 703.964 56.7503 702.58 Q60.9499 701.148 63.1238 698.825 Q65.2977 696.503 66.3352 694.231 Q67.3234 691.958 67.3234 689.735 Q67.3234 679.804 56.7009 676.444 Q55.7128 676.148 55.7128 675.16 Q55.7128 673.826 56.7009 673.826 Q57.195 673.826 58.4796 674.221 Q59.7641 674.616 61.7898 675.851 Q63.8155 677.087 65.5941 678.865 Q67.3234 680.594 68.6079 683.707 Q69.8925 686.77 69.8925 690.624 Q69.8925 699.517 63.2226 705.94 Z" fill="#000000" fill-rule="nonzero" fill-opacity="1"></path><path clip-path="url(#clip510)" d="M28.2921 667.65 L25.13 667.65 L24.0431 652.778 L57.6396 652.778 Q60.0606 652.778 61.4934 652.581 Q62.8768 652.383 64.5072 651.593 Q66.1376 650.753 66.8787 648.875 Q67.6198 646.948 67.6198 643.885 Q67.6198 638.401 63.1238 635.041 Q58.6278 631.632 51.9579 631.632 L33.9244 631.632 Q30.1695 631.632 29.2308 632.966 Q28.2921 634.3 28.2921 639.537 L25.13 639.537 L24.0431 624.666 L59.9618 624.666 Q63.7167 624.666 64.7048 623.381 Q65.6435 622.047 65.6435 616.761 L68.7562 616.761 L69.8925 631.336 L60.7523 631.336 Q69.8431 635.585 69.8925 644.379 Q69.8925 648.826 68.7562 651.889 Q67.6198 654.903 66.2364 656.434 Q64.8036 657.966 62.0863 658.806 Q59.3689 659.597 57.6891 659.695 Q56.0092 659.794 52.7484 659.794 L37.5805 659.794 Q30.713 659.794 29.5272 660.782 Q28.2921 661.77 28.2921 667.65 Z" fill="#000000" fill-rule="nonzero" fill-opacity="1"></path><path clip-path="url(#clip510)" d="M68.7562 611.968 L65.6435 611.968 Q65.6435 606.583 65.0012 605.348 Q64.3096 604.063 61.0487 604.063 L33.9244 604.063 Q30.1695 604.063 29.2308 605.397 Q28.2921 606.682 28.2921 611.968 L25.13 611.968 L24.0431 597.888 L35.1596 597.888 Q30.8118 596.455 27.4521 593.441 Q24.0431 590.378 24.0431 585.437 Q24.0431 582.176 25.8711 580.101 Q27.6992 577.977 30.2189 577.977 Q32.4422 577.977 33.5786 579.36 Q34.6655 580.694 34.6655 582.324 Q34.6655 584.152 33.5292 585.437 Q32.3434 586.672 30.3177 586.672 Q29.0826 586.672 28.1438 586.129 Q27.1557 585.536 26.8099 585.091 Q26.464 584.647 26.3652 584.35 Q26.2664 584.548 26.2664 585.437 Q26.2664 591.02 31.8493 594.231 Q37.3829 597.393 45.288 597.393 L60.8511 597.393 Q63.7661 597.393 64.7048 596.208 Q65.6435 594.973 65.6435 589.686 L65.6435 587.562 L68.7562 587.562 Q68.4597 591.613 68.4597 600.407 Q68.4597 601.642 68.5091 603.569 Q68.5585 605.496 68.6573 608.016 Q68.7562 610.536 68.7562 611.968 Z" fill="#000000" fill-rule="nonzero" fill-opacity="1"></path><path clip-path="url(#clip510)" d="M28.2921 573.332 L25.13 573.332 Q25.4265 568.787 25.4265 563.5 Q25.4265 561.574 25.13 552.483 L28.2921 552.483 Q28.2921 558.263 30.9106 558.263 Q31.3059 558.263 32.6398 557.67 L60.8511 546.307 L35.0608 535.981 Q33.3315 535.388 32.6398 535.388 Q30.9106 535.388 29.6754 536.574 Q28.3909 537.71 28.2921 540.23 L25.13 540.23 Q25.4265 535.092 25.4265 531.435 Q25.4265 527.285 25.13 523.876 L28.2921 523.876 Q28.2921 526.89 29.6754 529.015 Q31.0094 531.139 32.1952 531.831 Q33.3315 532.473 35.0608 533.165 L67.9656 546.406 Q69.8925 547.196 69.8925 548.53 Q69.8925 549.42 69.4973 549.815 Q69.1514 550.161 67.9656 550.655 L32.047 565.23 Q29.5272 566.218 28.9343 567.502 Q28.2921 568.787 28.2921 573.332 Z" fill="#000000" fill-rule="nonzero" fill-opacity="1"></path><path clip-path="url(#clip510)" d="M59.1218 520.517 Q50.5251 520.517 45.9797 510.388 Q43.0647 504.311 42.3236 491.762 L38.6181 491.762 Q32.3434 491.762 29.0332 495.072 Q25.6735 498.333 25.6735 502.483 Q25.6735 509.894 30.3177 513.451 Q30.4165 510.438 31.9482 509.351 Q33.4304 508.264 34.962 508.264 Q36.9876 508.264 38.3216 509.548 Q39.6062 510.783 39.6062 512.908 Q39.6062 514.934 38.371 516.268 Q37.0865 517.602 34.8631 517.602 Q29.9225 517.602 26.6616 513.155 Q23.4008 508.659 23.4008 502.286 Q23.4008 493.985 28.9837 488.452 Q30.713 486.722 32.9363 485.883 Q35.1596 484.993 36.6418 484.894 Q38.0746 484.796 40.9402 484.796 L61.1475 484.796 Q61.7404 484.796 62.7285 484.598 Q63.7167 484.4 65.0012 483.511 Q66.2364 482.572 66.2364 481.041 Q66.2364 477.385 59.7641 477.434 L54.0824 477.434 L54.0824 474.865 L59.7641 474.865 Q65.1495 474.865 67.274 477.73 Q69.349 480.547 69.349 483.165 Q69.349 486.525 66.8787 488.649 Q64.4084 490.774 61.0487 491.07 Q64.9024 492.602 67.4222 496.11 Q69.8925 499.568 69.8925 504.311 Q69.8925 507.967 68.9538 511.426 Q68.0645 514.835 65.5447 517.7 Q62.9756 520.517 59.1218 520.517 M59.023 512.71 Q62.7779 512.71 65.1989 510.042 Q67.6198 507.374 67.6198 503.62 Q67.6198 499.371 64.359 495.566 Q61.0487 491.762 54.5764 491.762 L44.4481 491.762 Q44.8433 502.977 49.3393 507.868 Q53.7859 512.71 59.023 512.71 Z" fill="#000000" fill-rule="nonzero" fill-opacity="1"></path><path clip-path="url(#clip510)" d="M28.2921 472.246 L26.0688 472.246 Q25.8711 467.602 22.6103 464.539 Q19.3 461.426 15.2487 460.389 Q11.1973 459.302 6.50369 459.203 L6.50369 456.683 L25.13 456.683 L25.13 442.207 L28.2921 442.207 L28.2921 456.683 L56.4045 456.683 Q67.3234 456.683 67.3234 449.865 Q67.3234 446.95 64.359 445.023 Q61.3451 443.096 56.0092 443.096 L50.4263 443.096 L50.4263 440.577 L56.2069 440.577 Q61.691 440.577 65.7918 443.096 Q69.8925 445.616 69.8925 450.606 Q69.8925 452.434 69.3984 454.262 Q68.9538 456.041 67.768 458.412 Q66.5329 460.734 63.5685 462.217 Q60.5546 463.649 56.2069 463.649 L28.2921 463.649 L28.2921 472.246 Z" fill="#000000" fill-rule="nonzero" fill-opacity="1"></path><path clip-path="url(#clip510)" d="M28.2921 431.683 L25.13 431.683 L24.0431 416.812 L57.6396 416.812 Q60.0606 416.812 61.4934 416.614 Q62.8768 416.417 64.5072 415.626 Q66.1376 414.786 66.8787 412.909 Q67.6198 410.982 67.6198 407.919 Q67.6198 402.435 63.1238 399.075 Q58.6278 395.666 51.9579 395.666 L33.9244 395.666 Q30.1695 395.666 29.2308 397 Q28.2921 398.334 28.2921 403.571 L25.13 403.571 L24.0431 388.699 L59.9618 388.699 Q63.7167 388.699 64.7048 387.415 Q65.6435 386.081 65.6435 380.794 L68.7562 380.794 L69.8925 395.369 L60.7523 395.369 Q69.8431 399.618 69.8925 408.413 Q69.8925 412.859 68.7562 415.923 Q67.6198 418.936 66.2364 420.468 Q64.8036 422 62.0863 422.84 Q59.3689 423.63 57.6891 423.729 Q56.0092 423.828 52.7484 423.828 L37.5805 423.828 Q30.713 423.828 29.5272 424.816 Q28.2921 425.804 28.2921 431.683 Z" fill="#000000" fill-rule="nonzero" fill-opacity="1"></path><path clip-path="url(#clip510)" d="M68.7562 376.002 L65.6435 376.002 Q65.6435 370.617 65.0012 369.381 Q64.3096 368.097 61.0487 368.097 L33.9244 368.097 Q30.1695 368.097 29.2308 369.431 Q28.2921 370.715 28.2921 376.002 L25.13 376.002 L24.0431 361.921 L35.1596 361.921 Q30.8118 360.488 27.4521 357.474 Q24.0431 354.411 24.0431 349.471 Q24.0431 346.21 25.8711 344.135 Q27.6992 342.01 30.2189 342.01 Q32.4422 342.01 33.5786 343.394 Q34.6655 344.728 34.6655 346.358 Q34.6655 348.186 33.5292 349.471 Q32.3434 350.706 30.3177 350.706 Q29.0826 350.706 28.1438 350.162 Q27.1557 349.569 26.8099 349.125 Q26.464 348.68 26.3652 348.384 Q26.2664 348.581 26.2664 349.471 Q26.2664 355.054 31.8493 358.265 Q37.3829 361.427 45.288 361.427 L60.8511 361.427 Q63.7661 361.427 64.7048 360.241 Q65.6435 359.006 65.6435 353.72 L65.6435 351.595 L68.7562 351.595 Q68.4597 355.646 68.4597 364.441 Q68.4597 365.676 68.5091 367.603 Q68.5585 369.53 68.6573 372.049 Q68.7562 374.569 68.7562 376.002 Z" fill="#000000" fill-rule="nonzero" fill-opacity="1"></path><path clip-path="url(#clip510)" d="M46.4737 336.477 Q36.9382 336.477 30.1695 330.35 Q23.4008 324.224 23.4008 315.429 Q23.4008 306.536 29.1814 301.941 Q34.962 297.297 43.2623 297.297 Q44.7939 297.297 45.0903 297.692 Q45.3868 298.088 45.3868 299.817 L45.3868 328.077 Q55.7128 328.077 60.5546 325.014 Q67.3234 320.765 67.3234 313.601 Q67.3234 312.613 67.1257 311.427 Q66.9281 310.242 66.0882 307.821 Q65.1989 305.4 62.8768 303.275 Q60.5546 301.151 56.8985 299.916 Q55.4658 299.619 55.5152 298.631 Q55.5152 297.297 56.7009 297.297 Q57.5902 297.297 59.6159 298.285 Q61.5922 299.224 63.9637 301.052 Q66.3352 302.88 68.1139 306.437 Q69.8925 309.945 69.8925 314.194 Q69.8925 323.087 63.1732 329.807 Q56.4045 336.477 46.4737 336.477 M43.2623 327.979 L43.2623 303.967 Q41.1378 303.967 38.7663 304.362 Q36.3948 304.708 33.1339 305.795 Q29.8237 306.833 27.7486 309.303 Q25.6735 311.773 25.6735 315.429 Q25.6735 317.06 26.3652 318.838 Q27.0569 320.568 28.7367 322.692 Q30.4165 324.817 34.2209 326.299 Q38.0252 327.781 43.2623 327.979 Z" fill="#000000" fill-rule="nonzero" fill-opacity="1"></path><path clip-path="url(#clip510)" d="M167.001 956.259 Q160.381 962.929 150.796 962.929 Q141.162 962.929 134.146 956.407 Q127.081 949.836 127.081 940.449 Q127.081 931.259 134.097 924.688 Q141.063 918.068 150.796 918.068 Q160.332 918.068 166.952 924.738 Q173.573 931.358 173.573 940.548 Q173.573 949.54 167.001 956.259 M149.956 954.53 Q159.788 954.53 164.235 951.961 Q171.003 948.008 171.003 940.449 Q171.003 936.694 168.978 933.581 Q166.952 930.419 163.543 928.69 Q159.096 926.467 149.956 926.467 Q140.223 926.467 135.925 929.135 Q129.353 933.087 129.353 940.548 Q129.353 943.809 131.083 947.02 Q132.763 950.182 136.122 952.109 Q140.569 954.53 149.956 954.53 Z" fill="#000000" fill-rule="nonzero" fill-opacity="1"></path><path clip-path="url(#clip510)" d="M131.972 911.793 L128.81 911.793 L128.81 903.839 L117.199 903.839 Q109.69 903.839 105.391 898.997 Q101.093 894.106 101.093 888.127 Q101.093 884.175 103.217 881.606 Q105.342 879.036 108.207 879.036 Q110.134 879.036 111.419 880.222 Q112.654 881.359 112.654 883.483 Q112.654 885.509 111.369 886.695 Q110.085 887.831 108.306 887.831 Q105.045 887.831 104.057 884.817 Q103.366 886.349 103.316 888.127 Q103.316 891.783 107.071 894.649 Q110.826 897.465 117.101 897.465 L128.81 897.465 L128.81 885.608 L131.972 885.608 L131.972 897.119 L164.531 897.119 Q167.446 897.119 168.385 895.934 Q169.324 894.698 169.324 889.461 L169.324 887.337 L172.436 887.337 Q172.14 891.388 172.14 900.183 Q172.14 901.418 172.189 903.345 Q172.239 905.222 172.337 907.791 Q172.436 910.311 172.436 911.694 L169.324 911.694 Q169.324 906.309 168.681 905.074 Q167.99 903.839 164.729 903.839 L131.972 903.839 L131.972 911.793 Z" fill="#000000" fill-rule="nonzero" fill-opacity="1"></path><path clip-path="url(#clip510)" d="M131.972 847.317 L128.81 847.317 L128.81 839.363 L117.199 839.363 Q109.69 839.363 105.391 834.521 Q101.093 829.63 101.093 823.652 Q101.093 819.699 103.217 817.13 Q105.342 814.561 108.207 814.561 Q110.134 814.561 111.419 815.746 Q112.654 816.883 112.654 819.007 Q112.654 821.033 111.369 822.219 Q110.085 823.355 108.306 823.355 Q105.045 823.355 104.057 820.341 Q103.366 821.873 103.316 823.652 Q103.316 827.308 107.071 830.173 Q110.826 832.989 117.101 832.989 L128.81 832.989 L128.81 821.132 L131.972 821.132 L131.972 832.644 L164.531 832.644 Q167.446 832.644 168.385 831.458 Q169.324 830.223 169.324 824.986 L169.324 822.861 L172.436 822.861 Q172.14 826.912 172.14 835.707 Q172.14 836.942 172.189 838.869 Q172.239 840.746 172.337 843.315 Q172.436 845.835 172.436 847.219 L169.324 847.219 Q169.324 841.833 168.681 840.598 Q167.99 839.363 164.729 839.363 L131.972 839.363 L131.972 847.317 Z" fill="#000000" fill-rule="nonzero" fill-opacity="1"></path><path clip-path="url(#clip510)" d="M172.436 816.488 L169.324 816.488 Q169.324 811.102 168.681 809.867 Q167.99 808.632 164.729 808.632 L137.506 808.632 Q133.751 808.632 132.861 809.916 Q131.972 811.152 131.972 816.092 L128.81 816.092 L127.723 801.962 L164.828 801.962 Q167.841 801.962 168.582 800.875 Q169.324 799.788 169.324 794.847 L172.436 794.847 Q172.14 805.173 172.14 805.371 Q172.14 806.754 172.436 816.488 M110.085 812.239 Q108.059 812.239 106.429 810.707 Q104.749 809.126 104.749 806.903 Q104.749 804.679 106.281 803.098 Q107.763 801.517 110.134 801.517 Q112.456 801.517 113.988 803.098 Q115.47 804.679 115.47 806.903 Q115.47 809.225 113.84 810.756 Q112.209 812.239 110.085 812.239 Z" fill="#000000" fill-rule="nonzero" fill-opacity="1"></path><path clip-path="url(#clip510)" d="M172.436 788.573 L169.324 788.573 Q169.324 783.187 168.681 781.952 Q167.99 780.717 164.729 780.717 L137.604 780.717 Q133.85 780.717 132.911 782.051 Q131.972 783.336 131.972 788.573 L128.81 788.573 L127.723 774.344 L138.346 774.344 Q127.723 769.601 127.723 759.373 Q127.723 751.765 131.478 748.751 Q133.998 746.528 136.814 746.083 Q139.63 745.589 146.942 745.589 L166.26 745.589 Q168.385 745.49 168.879 743.86 Q169.324 742.229 169.324 737.684 L172.436 737.684 Q172.14 748.01 172.14 749.047 Q172.14 749.838 172.436 760.46 L169.324 760.46 Q169.324 755.075 168.681 753.84 Q167.99 752.555 164.729 752.555 L141.162 752.555 Q136.023 752.555 133.01 754.136 Q129.946 755.717 129.946 760.065 Q129.946 765.302 134.344 769.502 Q138.741 773.701 146.152 773.701 L164.729 773.701 Q167.99 773.701 168.681 772.466 Q169.324 771.182 169.324 765.846 L172.436 765.846 Q172.14 776.172 172.14 777.16 Q172.14 777.95 172.436 788.573 Z" fill="#000000" fill-rule="nonzero" fill-opacity="1"></path><path clip-path="url(#clip510)" d="M162.802 731.459 Q154.205 731.459 149.66 721.33 Q146.745 715.253 146.004 702.704 L142.298 702.704 Q136.023 702.704 132.713 706.014 Q129.353 709.275 129.353 713.425 Q129.353 720.836 133.998 724.393 Q134.097 721.38 135.628 720.293 Q137.11 719.206 138.642 719.206 Q140.668 719.206 142.002 720.49 Q143.286 721.725 143.286 723.85 Q143.286 725.876 142.051 727.21 Q140.766 728.544 138.543 728.544 Q133.602 728.544 130.342 724.097 Q127.081 719.601 127.081 713.228 Q127.081 704.927 132.664 699.394 Q134.393 697.664 136.616 696.824 Q138.84 695.935 140.322 695.836 Q141.755 695.738 144.62 695.738 L164.828 695.738 Q165.42 695.738 166.409 695.54 Q167.397 695.342 168.681 694.453 Q169.916 693.514 169.916 691.983 Q169.916 688.327 163.444 688.376 L157.762 688.376 L157.762 685.807 L163.444 685.807 Q168.829 685.807 170.954 688.672 Q173.029 691.489 173.029 694.107 Q173.029 697.467 170.559 699.591 Q168.088 701.716 164.729 702.012 Q168.582 703.544 171.102 707.052 Q173.573 710.51 173.573 715.253 Q173.573 718.909 172.634 722.368 Q171.744 725.777 169.225 728.642 Q166.656 731.459 162.802 731.459 M162.703 723.652 Q166.458 723.652 168.879 720.984 Q171.3 718.316 171.3 714.562 Q171.3 710.313 168.039 706.508 Q164.729 702.704 158.256 702.704 L148.128 702.704 Q148.523 713.919 153.019 718.81 Q157.466 723.652 162.703 723.652 Z" fill="#000000" fill-rule="nonzero" fill-opacity="1"></path><path clip-path="url(#clip510)" d="M172.436 681.755 L169.324 681.755 Q169.324 676.37 168.681 675.135 Q167.99 673.9 164.729 673.9 L112.111 673.9 Q108.356 673.9 107.417 675.234 Q106.478 676.518 106.478 681.755 L103.316 681.755 L102.229 667.23 L164.729 667.23 Q167.99 667.23 168.681 665.945 Q169.324 664.661 169.324 659.325 L172.436 659.325 Q172.436 660.56 172.337 663.129 Q172.239 665.698 172.189 667.576 Q172.14 669.453 172.14 670.54 Q172.14 671.726 172.436 681.755 Z" fill="#000000" fill-rule="nonzero" fill-opacity="1"></path><path clip-path="url(#clip510)" d="M172.436 620.096 L169.324 620.096 Q169.324 614.711 168.681 613.475 Q167.99 612.24 164.729 612.24 L112.111 612.24 Q108.356 612.24 107.417 613.574 Q106.478 614.859 106.478 620.096 L103.316 620.096 L102.229 605.57 L164.729 605.57 Q167.99 605.57 168.681 604.286 Q169.324 603.001 169.324 597.665 L172.436 597.665 Q172.436 598.9 172.337 601.47 Q172.239 604.039 172.189 605.916 Q172.14 607.794 172.14 608.881 Q172.14 610.066 172.436 620.096 Z" fill="#000000" fill-rule="nonzero" fill-opacity="1"></path><path clip-path="url(#clip510)" d="M167.001 585.956 Q160.381 592.626 150.796 592.626 Q141.162 592.626 134.146 586.104 Q127.081 579.533 127.081 570.146 Q127.081 560.956 134.097 554.385 Q141.063 547.764 150.796 547.764 Q160.332 547.764 166.952 554.434 Q173.573 561.055 173.573 570.244 Q173.573 579.237 167.001 585.956 M149.956 584.227 Q159.788 584.227 164.235 581.657 Q171.003 577.705 171.003 570.146 Q171.003 566.391 168.978 563.278 Q166.952 560.116 163.543 558.387 Q159.096 556.164 149.956 556.164 Q140.223 556.164 135.925 558.832 Q129.353 562.784 129.353 570.244 Q129.353 573.505 131.083 576.717 Q132.763 579.879 136.122 581.806 Q140.569 584.227 149.956 584.227 Z" fill="#000000" fill-rule="nonzero" fill-opacity="1"></path><path clip-path="url(#clip510)" d="M171.102 541.49 L157.762 541.49 Q156.626 541.49 156.231 541.44 Q155.835 541.391 155.539 541.095 Q155.243 540.798 155.243 540.205 Q155.243 539.513 155.539 539.266 Q155.835 538.97 156.972 538.772 Q163.938 537.241 167.644 533.98 Q171.3 530.67 171.3 524.691 Q171.3 519.01 168.78 516.144 Q166.26 513.279 162.11 513.279 Q154.699 513.279 152.822 523.802 Q151.587 529.879 150.796 532.399 Q149.956 534.919 148.128 537.142 Q144.571 541.49 139.531 541.49 Q134.492 541.49 130.786 537.685 Q127.081 533.832 127.081 525.334 Q127.081 519.652 129.946 515.798 Q129.057 514.662 128.316 514.069 Q127.081 512.735 127.081 512.043 Q127.081 511.253 127.624 511.105 Q128.118 510.956 129.551 510.956 L139.729 510.956 Q140.865 510.956 141.261 511.006 Q141.656 511.055 141.952 511.352 Q142.199 511.648 142.199 512.29 Q142.199 513.427 141.261 513.476 Q129.008 514.267 129.008 525.334 Q129.008 531.312 131.33 533.98 Q133.602 536.648 136.715 536.648 Q138.444 536.648 139.778 535.857 Q141.063 535.017 141.853 533.98 Q142.594 532.893 143.336 530.917 Q144.027 528.94 144.274 527.755 Q144.521 526.52 145.015 524.197 Q146.547 516.095 149.857 512.686 Q154.106 508.437 159.492 508.437 Q165.47 508.437 169.521 512.488 Q173.573 516.539 173.573 524.691 Q173.573 531.263 169.175 535.857 Q169.768 536.45 170.312 536.895 Q170.806 537.34 171.003 537.537 Q171.201 537.685 171.349 537.735 Q171.448 537.784 171.547 537.883 Q173.573 539.909 173.573 540.403 Q173.573 541.193 173.029 541.342 Q172.535 541.49 171.102 541.49 Z" fill="#000000" fill-rule="nonzero" fill-opacity="1"></path><path clip-path="url(#clip510)" d="M171.102 501.668 L157.762 501.668 Q156.626 501.668 156.231 501.619 Q155.835 501.569 155.539 501.273 Q155.243 500.976 155.243 500.383 Q155.243 499.692 155.539 499.445 Q155.835 499.148 156.972 498.951 Q163.938 497.419 167.644 494.158 Q171.3 490.848 171.3 484.87 Q171.3 479.188 168.78 476.322 Q166.26 473.457 162.11 473.457 Q154.699 473.457 152.822 483.98 Q151.587 490.057 150.796 492.577 Q149.956 495.097 148.128 497.32 Q144.571 501.668 139.531 501.668 Q134.492 501.668 130.786 497.864 Q127.081 494.01 127.081 485.512 Q127.081 479.83 129.946 475.976 Q129.057 474.84 128.316 474.247 Q127.081 472.913 127.081 472.222 Q127.081 471.431 127.624 471.283 Q128.118 471.135 129.551 471.135 L139.729 471.135 Q140.865 471.135 141.261 471.184 Q141.656 471.233 141.952 471.53 Q142.199 471.826 142.199 472.469 Q142.199 473.605 141.261 473.654 Q129.008 474.445 129.008 485.512 Q129.008 491.49 131.33 494.158 Q133.602 496.826 136.715 496.826 Q138.444 496.826 139.778 496.036 Q141.063 495.196 141.853 494.158 Q142.594 493.071 143.336 491.095 Q144.027 489.119 144.274 487.933 Q144.521 486.698 145.015 484.376 Q146.547 476.273 149.857 472.864 Q154.106 468.615 159.492 468.615 Q165.47 468.615 169.521 472.666 Q173.573 476.718 173.573 484.87 Q173.573 491.441 169.175 496.036 Q169.768 496.628 170.312 497.073 Q170.806 497.518 171.003 497.715 Q171.201 497.864 171.349 497.913 Q171.448 497.962 171.547 498.061 Q173.573 500.087 173.573 500.581 Q173.573 501.372 173.029 501.52 Q172.535 501.668 171.102 501.668 Z" fill="#000000" fill-rule="nonzero" fill-opacity="1"></path><polyline clip-path="url(#clip512)" style="stroke:#009af9; stroke-linecap:round; stroke-linejoin:round; stroke-width:4; stroke-opacity:1; fill:none" points="333.441,1305.3 660.191,1173.03 986.941,85.0853 1313.69,1346.46 1640.44,1281.43 1967.19,1303 2293.94,1226.31 "></polyline>
</svg>