<svg xmlns="http://www.w3.org/2000/svg" xmlns:xlink="http://www.w3.org/1999/xlink" width="600" height="400" viewBox="0 0 2400 1600">
<defs>
  <clipPath id="clip430">
    <rect x="0" y="0" width="2400" height="1600"></rect>
  </clipPath>
</defs>
<path clip-path="url(#clip430)" d="M0 1600 L2400 1600 L2400 0 L0 0  Z" fill="#ffffff" fill-rule="evenodd" fill-opacity="1"></path>
<defs>
  <clipPath id="clip431">
    <rect x="480" y="0" width="1681" height="1600"></rect>
  </clipPath>
</defs>
<path clip-path="url(#clip430)" d="M300.775 1384.3 L2352.76 1384.3 L2352.76 47.2441 L300.775 47.2441  Z" fill="#ffffff" fill-rule="evenodd" fill-opacity="1"></path>
<defs>
  <clipPath id="clip432">
    <rect x="300" y="47" width="2053" height="1338"></rect>
  </clipPath>
</defs>
<polyline clip-path="url(#clip432)" style="stroke:#000000; stroke-linecap:round; stroke-linejoin:round; stroke-width:2; stroke-opacity:0.1; fill:none" points="358.85,1384.3 358.85,47.2441 "></polyline>
<polyline clip-path="url(#clip432)" style="stroke:#000000; stroke-linecap:round; stroke-linejoin:round; stroke-width:2; stroke-opacity:0.1; fill:none" points="681.488,1384.3 681.488,47.2441 "></polyline>
<polyline clip-path="url(#clip432)" style="stroke:#000000; stroke-linecap:round; stroke-linejoin:round; stroke-width:2; stroke-opacity:0.1; fill:none" points="1004.13,1384.3 1004.13,47.2441 "></polyline>
<polyline clip-path="url(#clip432)" style="stroke:#000000; stroke-linecap:round; stroke-linejoin:round; stroke-width:2; stroke-opacity:0.1; fill:none" points="1326.77,1384.3 1326.77,47.2441 "></polyline>
<polyline clip-path="url(#clip432)" style="stroke:#000000; stroke-linecap:round; stroke-linejoin:round; stroke-width:2; stroke-opacity:0.1; fill:none" points="1649.4,1384.3 1649.4,47.2441 "></polyline>
<polyline clip-path="url(#clip432)" style="stroke:#000000; stroke-linecap:round; stroke-linejoin:round; stroke-width:2; stroke-opacity:0.1; fill:none" points="1972.04,1384.3 1972.04,47.2441 "></polyline>
<polyline clip-path="url(#clip432)" style="stroke:#000000; stroke-linecap:round; stroke-linejoin:round; stroke-width:2; stroke-opacity:0.1; fill:none" points="2294.68,1384.3 2294.68,47.2441 "></polyline>
<polyline clip-path="url(#clip430)" style="stroke:#000000; stroke-linecap:round; stroke-linejoin:round; stroke-width:4; stroke-opacity:1; fill:none" points="300.775,1384.3 2352.76,1384.3 "></polyline>
<polyline clip-path="url(#clip430)" style="stroke:#000000; stroke-linecap:round; stroke-linejoin:round; stroke-width:4; stroke-opacity:1; fill:none" points="358.85,1384.3 358.85,1365.4 "></polyline>
<polyline clip-path="url(#clip430)" style="stroke:#000000; stroke-linecap:round; stroke-linejoin:round; stroke-width:4; stroke-opacity:1; fill:none" points="681.488,1384.3 681.488,1365.4 "></polyline>
<polyline clip-path="url(#clip430)" style="stroke:#000000; stroke-linecap:round; stroke-linejoin:round; stroke-width:4; stroke-opacity:1; fill:none" points="1004.13,1384.3 1004.13,1365.4 "></polyline>
<polyline clip-path="url(#clip430)" style="stroke:#000000; stroke-linecap:round; stroke-linejoin:round; stroke-width:4; stroke-opacity:1; fill:none" points="1326.77,1384.3 1326.77,1365.4 "></polyline>
<polyline clip-path="url(#clip430)" style="stroke:#000000; stroke-linecap:round; stroke-linejoin:round; stroke-width:4; stroke-opacity:1; fill:none" points="1649.4,1384.3 1649.4,1365.4 "></polyline>
<polyline clip-path="url(#clip430)" style="stroke:#000000; stroke-linecap:round; stroke-linejoin:round; stroke-width:4; stroke-opacity:1; fill:none" points="1972.04,1384.3 1972.04,1365.4 "></polyline>
<polyline clip-path="url(#clip430)" style="stroke:#000000; stroke-linecap:round; stroke-linejoin:round; stroke-width:4; stroke-opacity:1; fill:none" points="2294.68,1384.3 2294.68,1365.4 "></polyline>
<path clip-path="url(#clip430)" d="M346.325 1424.98 L346.325 1422.61 Q355.441 1422.61 360.147 1417.76 Q361.443 1417.76 361.666 1418.05 Q361.888 1418.35 361.888 1419.72 L361.888 1462.3 Q361.888 1464.56 363 1465.26 Q364.111 1465.97 368.966 1465.97 L371.374 1465.97 L371.374 1468.3 Q368.706 1468.08 359.072 1468.08 Q349.438 1468.08 346.807 1468.3 L346.807 1465.97 L349.215 1465.97 Q353.995 1465.97 355.144 1465.3 Q356.293 1464.59 356.293 1462.3 L356.293 1422.98 Q352.328 1424.98 346.325 1424.98 Z" fill="#000000" fill-rule="nonzero" fill-opacity="1"></path><path clip-path="url(#clip430)" d="M666.333 1468.3 Q666.333 1466.93 666.444 1466.52 Q666.592 1466.11 667.185 1465.48 L681.748 1449.25 Q689.714 1440.29 689.714 1432.47 Q689.714 1427.39 687.046 1423.76 Q684.415 1420.13 679.561 1420.13 Q676.226 1420.13 673.41 1422.17 Q670.594 1424.2 669.297 1427.84 Q669.519 1427.76 670.298 1427.76 Q672.187 1427.76 673.225 1428.95 Q674.299 1430.13 674.299 1431.73 Q674.299 1433.76 672.965 1434.77 Q671.669 1435.73 670.372 1435.73 Q669.853 1435.73 669.149 1435.62 Q668.482 1435.51 667.407 1434.47 Q666.333 1433.39 666.333 1431.5 Q666.333 1426.21 670.335 1421.98 Q674.374 1417.76 680.525 1417.76 Q687.491 1417.76 692.049 1421.91 Q696.644 1426.02 696.644 1432.47 Q696.644 1434.73 695.94 1436.8 Q695.273 1438.84 694.346 1440.43 Q693.457 1442.03 691.011 1444.58 Q688.566 1447.14 686.602 1448.96 Q684.638 1450.77 680.228 1454.63 L672.187 1462.45 L685.861 1462.45 Q692.531 1462.45 693.049 1461.85 Q693.79 1460.78 694.717 1455.11 L696.644 1455.11 L694.494 1468.3 L666.333 1468.3 Z" fill="#000000" fill-rule="nonzero" fill-opacity="1"></path><path clip-path="url(#clip430)" d="M988.378 1458.07 Q988.378 1455.81 989.675 1454.74 Q990.972 1453.66 992.64 1453.66 Q994.381 1453.66 995.604 1454.81 Q996.864 1455.92 996.864 1457.89 Q996.864 1460 995.382 1461.19 Q993.937 1462.37 991.861 1462.07 Q993.677 1465.11 997.012 1466.48 Q1000.38 1467.86 1003.5 1467.86 Q1006.76 1467.86 1009.39 1465.04 Q1012.06 1462.22 1012.06 1455.33 Q1012.06 1449.48 1009.76 1446.1 Q1007.5 1442.73 1003.02 1442.73 L999.68 1442.73 Q998.531 1442.73 998.198 1442.62 Q997.864 1442.51 997.864 1441.88 Q997.864 1441.14 999.013 1440.99 Q1000.16 1440.99 1001.98 1440.77 Q1006.39 1440.62 1008.72 1436.8 Q1010.83 1433.25 1010.83 1428.17 Q1010.83 1423.54 1008.61 1421.61 Q1006.42 1419.65 1003.57 1419.65 Q1000.9 1419.65 997.976 1420.76 Q995.048 1421.87 993.455 1424.35 Q998.161 1424.35 998.161 1428.17 Q998.161 1429.84 997.086 1430.95 Q996.049 1432.02 994.307 1432.02 Q992.64 1432.02 991.528 1430.99 Q990.416 1429.91 990.416 1428.1 Q990.416 1423.76 994.27 1420.76 Q998.161 1417.76 1003.87 1417.76 Q1009.5 1417.76 1013.65 1420.72 Q1017.84 1423.69 1017.84 1428.24 Q1017.84 1432.73 1014.87 1436.4 Q1011.91 1440.06 1007.2 1441.58 Q1012.98 1442.73 1016.43 1446.66 Q1019.88 1450.55 1019.88 1455.33 Q1019.88 1461.26 1015.21 1465.63 Q1010.54 1469.97 1003.72 1469.97 Q997.42 1469.97 992.899 1466.56 Q988.378 1463.15 988.378 1458.07 Z" fill="#000000" fill-rule="nonzero" fill-opacity="1"></path><path clip-path="url(#clip430)" d="M1309.94 1455.78 L1309.94 1453.44 L1333.25 1417.83 Q1333.84 1416.9 1334.77 1416.94 Q1335.62 1416.94 1335.81 1417.28 Q1335.99 1417.61 1335.99 1418.91 L1335.99 1453.44 L1343.59 1453.44 L1343.59 1455.78 L1335.99 1455.78 L1335.99 1462.37 Q1335.99 1464.56 1336.88 1465.26 Q1337.81 1465.97 1341.74 1465.97 L1343.33 1465.97 L1343.33 1468.3 Q1340.22 1468.08 1333.03 1468.08 Q1325.88 1468.08 1322.76 1468.3 L1322.76 1465.97 L1324.36 1465.97 Q1328.28 1465.97 1329.21 1465.3 Q1330.14 1464.59 1330.14 1462.37 L1330.14 1455.78 L1309.94 1455.78 M1312.09 1453.44 L1330.58 1453.44 L1330.58 1425.13 L1312.09 1453.44 Z" fill="#000000" fill-rule="nonzero" fill-opacity="1"></path><path clip-path="url(#clip430)" d="M1634.25 1456.07 Q1634.25 1453.81 1635.47 1452.96 Q1636.69 1452.07 1637.99 1452.07 Q1639.73 1452.07 1640.73 1453.18 Q1641.77 1454.26 1641.77 1455.78 Q1641.77 1457.29 1640.73 1458.41 Q1639.73 1459.48 1637.99 1459.48 Q1637.14 1459.48 1636.69 1459.33 Q1637.69 1462.82 1640.73 1465.34 Q1643.81 1467.86 1647.85 1467.86 Q1652.92 1467.86 1655.96 1462.93 Q1657.78 1459.74 1657.78 1452.51 Q1657.78 1446.14 1656.41 1442.95 Q1654.3 1438.1 1649.96 1438.1 Q1643.81 1438.1 1640.18 1443.4 Q1639.73 1444.07 1639.21 1444.1 Q1638.47 1444.1 1638.29 1443.7 Q1638.14 1443.25 1638.14 1442.1 L1638.14 1419.65 Q1638.14 1417.83 1638.88 1417.83 Q1639.18 1417.83 1639.81 1418.05 Q1644.59 1420.17 1649.89 1420.2 Q1655.33 1420.2 1660.22 1417.98 Q1660.59 1417.76 1660.82 1417.76 Q1661.56 1417.76 1661.59 1418.61 Q1661.59 1418.91 1660.97 1419.79 Q1660.37 1420.65 1659.08 1421.8 Q1657.78 1422.91 1656.11 1423.98 Q1654.44 1425.06 1652 1425.8 Q1649.59 1426.5 1646.92 1426.5 Q1643.73 1426.5 1640.47 1425.5 L1640.47 1440.29 Q1644.4 1436.43 1650.11 1436.43 Q1656.18 1436.43 1660.37 1441.32 Q1664.56 1446.22 1664.56 1453.03 Q1664.56 1460.18 1659.59 1465.08 Q1654.67 1469.97 1648 1469.97 Q1641.92 1469.97 1638.06 1465.63 Q1634.25 1461.3 1634.25 1456.07 Z" fill="#000000" fill-rule="nonzero" fill-opacity="1"></path><path clip-path="url(#clip430)" d="M1956.29 1444.33 Q1956.29 1432.39 1962.37 1425.09 Q1968.45 1417.76 1976.27 1417.76 Q1980.82 1417.76 1983.34 1420.09 Q1985.9 1422.39 1985.9 1425.95 Q1985.9 1427.91 1984.75 1428.76 Q1983.6 1429.61 1982.42 1429.61 Q1981.05 1429.61 1979.97 1428.69 Q1978.9 1427.76 1978.9 1426.09 Q1978.9 1422.69 1983.08 1422.69 Q1981.12 1419.65 1976.41 1419.65 Q1974.97 1419.65 1973.49 1420.09 Q1972.01 1420.5 1970.08 1421.91 Q1968.15 1423.32 1966.67 1425.54 Q1965.19 1427.76 1964.15 1431.95 Q1963.11 1436.14 1963.11 1441.58 L1963.11 1443.4 Q1966.22 1435.88 1972.6 1435.91 Q1978.97 1435.91 1983.38 1440.77 Q1987.79 1445.62 1987.79 1452.81 Q1987.79 1460.18 1983.2 1465.08 Q1978.6 1469.97 1972.15 1469.97 Q1969.26 1469.97 1966.63 1468.74 Q1964.04 1467.56 1961.59 1464.82 Q1959.18 1462.07 1957.74 1456.81 Q1956.29 1451.55 1956.29 1444.33 M1963.26 1451.14 Q1963.26 1458.59 1964.63 1462.15 Q1964.85 1462.74 1965.34 1463.56 Q1965.85 1464.37 1966.71 1465.45 Q1967.6 1466.48 1969.04 1467.19 Q1970.49 1467.86 1972.15 1467.86 Q1977.23 1467.86 1979.68 1462.93 Q1980.97 1460.18 1980.97 1452.74 Q1980.97 1445.14 1979.6 1442.36 Q1977.27 1437.66 1972.52 1437.66 Q1969.34 1437.66 1967.11 1439.84 Q1964.93 1442.03 1964.08 1444.96 Q1963.26 1447.88 1963.26 1451.14 Z" fill="#000000" fill-rule="nonzero" fill-opacity="1"></path><path clip-path="url(#clip430)" d="M2278.41 1432.62 L2280.9 1417.02 L2282.79 1417.02 Q2283.01 1417.94 2283.38 1418.35 Q2283.79 1418.76 2285.94 1419.09 Q2288.12 1419.42 2292.53 1419.42 L2310.95 1419.42 Q2310.95 1421.17 2310.28 1422.09 L2300.02 1436.51 Q2296.76 1441.06 2295.31 1449.48 Q2294.46 1455.11 2294.5 1461.93 L2294.5 1465.78 Q2294.5 1469.97 2290.98 1469.97 Q2287.49 1469.97 2287.49 1465.78 Q2287.49 1451.29 2296.83 1437.25 Q2297.83 1435.8 2301.5 1430.65 Q2305.2 1425.5 2305.35 1425.28 L2289.64 1425.28 Q2282.75 1425.28 2282.19 1425.72 Q2281.45 1426.39 2280.3 1432.62 L2278.41 1432.62 Z" fill="#000000" fill-rule="nonzero" fill-opacity="1"></path><path clip-path="url(#clip430)" d="M1229.19 1581 L1229.19 1577.89 Q1234.57 1577.89 1235.81 1577.25 Q1237.09 1576.56 1237.09 1573.3 L1237.09 1546.17 Q1237.09 1542.42 1235.76 1541.48 Q1234.47 1540.54 1229.19 1540.54 L1229.19 1537.38 L1243.27 1536.29 L1243.27 1547.41 Q1244.7 1543.06 1247.71 1539.7 Q1250.78 1536.29 1255.72 1536.29 Q1258.98 1536.29 1261.05 1538.12 Q1263.18 1539.95 1263.18 1542.47 Q1263.18 1544.69 1261.8 1545.83 Q1260.46 1546.91 1258.83 1546.91 Q1257 1546.91 1255.72 1545.78 Q1254.48 1544.59 1254.48 1542.57 Q1254.48 1541.33 1255.03 1540.39 Q1255.62 1539.4 1256.06 1539.06 Q1256.51 1538.71 1256.81 1538.61 Q1256.61 1538.51 1255.72 1538.51 Q1250.14 1538.51 1246.92 1544.1 Q1243.76 1549.63 1243.76 1557.54 L1243.76 1573.1 Q1243.76 1576.01 1244.95 1576.95 Q1246.18 1577.89 1251.47 1577.89 L1253.59 1577.89 L1253.59 1581 Q1249.54 1580.71 1240.75 1580.71 Q1239.51 1580.71 1237.59 1580.76 Q1235.66 1580.81 1233.14 1580.91 Q1230.62 1581 1229.19 1581 Z" fill="#000000" fill-rule="nonzero" fill-opacity="1"></path><path clip-path="url(#clip430)" d="M1270.15 1571.37 Q1270.15 1562.77 1280.27 1558.23 Q1286.35 1555.31 1298.9 1554.57 L1298.9 1550.87 Q1298.9 1544.59 1295.59 1541.28 Q1292.33 1537.92 1288.18 1537.92 Q1280.77 1537.92 1277.21 1542.57 Q1280.22 1542.66 1281.31 1544.2 Q1282.4 1545.68 1282.4 1547.21 Q1282.4 1549.24 1281.11 1550.57 Q1279.88 1551.85 1277.75 1551.85 Q1275.73 1551.85 1274.39 1550.62 Q1273.06 1549.33 1273.06 1547.11 Q1273.06 1542.17 1277.51 1538.91 Q1282 1535.65 1288.38 1535.65 Q1296.68 1535.65 1302.21 1541.23 Q1303.94 1542.96 1304.78 1545.18 Q1305.67 1547.41 1305.77 1548.89 Q1305.87 1550.32 1305.87 1553.19 L1305.87 1573.4 Q1305.87 1573.99 1306.06 1574.98 Q1306.26 1575.96 1307.15 1577.25 Q1308.09 1578.48 1309.62 1578.48 Q1313.28 1578.48 1313.23 1572.01 L1313.23 1566.33 L1315.8 1566.33 L1315.8 1572.01 Q1315.8 1577.4 1312.93 1579.52 Q1310.12 1581.6 1307.5 1581.6 Q1304.14 1581.6 1302.01 1579.13 Q1299.89 1576.66 1299.59 1573.3 Q1298.06 1577.15 1294.55 1579.67 Q1291.09 1582.14 1286.35 1582.14 Q1282.69 1582.14 1279.24 1581.2 Q1275.83 1580.31 1272.96 1577.79 Q1270.15 1575.22 1270.15 1571.37 M1277.95 1571.27 Q1277.95 1575.03 1280.62 1577.45 Q1283.29 1579.87 1287.04 1579.87 Q1291.29 1579.87 1295.1 1576.61 Q1298.9 1573.3 1298.9 1566.82 L1298.9 1556.7 Q1287.68 1557.09 1282.79 1561.59 Q1277.95 1566.03 1277.95 1571.27 Z" fill="#000000" fill-rule="nonzero" fill-opacity="1"></path><path clip-path="url(#clip430)" d="M1319.75 1581 L1319.75 1577.89 Q1325.13 1577.89 1326.37 1577.25 Q1327.61 1576.56 1327.61 1573.3 L1327.61 1546.17 Q1327.61 1542.42 1326.27 1541.48 Q1324.99 1540.54 1319.75 1540.54 L1319.75 1537.38 L1333.98 1536.29 L1333.98 1546.91 Q1338.72 1536.29 1348.95 1536.29 Q1356.56 1536.29 1359.57 1540.05 Q1361.79 1542.57 1362.24 1545.38 Q1362.73 1548.2 1362.73 1555.51 L1362.73 1574.83 Q1362.83 1576.95 1364.46 1577.45 Q1366.09 1577.89 1370.64 1577.89 L1370.64 1581 Q1360.31 1580.71 1359.27 1580.71 Q1358.48 1580.71 1347.86 1581 L1347.86 1577.89 Q1353.25 1577.89 1354.48 1577.25 Q1355.77 1576.56 1355.77 1573.3 L1355.77 1549.73 Q1355.77 1544.59 1354.19 1541.58 Q1352.6 1538.51 1348.26 1538.51 Q1343.02 1538.51 1338.82 1542.91 Q1334.62 1547.31 1334.62 1554.72 L1334.62 1573.3 Q1334.62 1576.56 1335.86 1577.25 Q1337.14 1577.89 1342.48 1577.89 L1342.48 1581 Q1332.15 1580.71 1331.16 1580.71 Q1330.37 1580.71 1319.75 1581 Z" fill="#000000" fill-rule="nonzero" fill-opacity="1"></path><path clip-path="url(#clip430)" d="M1375.43 1581 L1375.43 1577.89 Q1380.82 1577.89 1382.05 1577.25 Q1383.34 1576.56 1383.34 1573.3 L1383.34 1520.68 Q1383.34 1516.92 1382 1515.98 Q1380.72 1515.05 1375.43 1515.05 L1375.43 1511.88 L1390.01 1510.8 L1390.01 1559.36 L1404.28 1547.01 Q1406.51 1545.09 1406.51 1543.06 Q1406.51 1540.74 1403.59 1540.54 L1403.59 1537.38 Q1407.84 1537.67 1414.91 1537.67 Q1419.06 1537.67 1421.97 1537.38 L1421.97 1540.54 Q1415.6 1540.84 1409.23 1545.97 Q1407.79 1547.11 1404.38 1550.08 Q1401.02 1552.99 1401.02 1553.29 Q1401.02 1553.39 1401.12 1553.63 Q1401.27 1553.88 1401.47 1554.08 Q1401.67 1554.27 1401.67 1554.37 L1414.51 1572.51 Q1417.13 1576.16 1419.06 1577.05 Q1420.98 1577.89 1424.34 1577.89 L1424.34 1581 Q1420 1580.71 1415.5 1580.71 Q1413.08 1580.71 1404.58 1581 L1404.58 1577.89 Q1408.24 1577.89 1408.24 1575.52 Q1408.24 1573.89 1400.04 1562.58 Q1399.44 1561.78 1398.11 1560.06 Q1396.87 1558.23 1396.18 1557.34 L1389.71 1562.87 L1389.71 1573.3 Q1389.71 1576.56 1390.94 1577.25 Q1392.23 1577.89 1397.61 1577.89 L1397.61 1581 Q1391.54 1580.71 1386.5 1580.71 Q1385.46 1580.71 1375.43 1581 Z" fill="#000000" fill-rule="nonzero" fill-opacity="1"></path><polyline clip-path="url(#clip432)" style="stroke:#000000; stroke-linecap:round; stroke-linejoin:round; stroke-width:2; stroke-opacity:0.1; fill:none" points="300.775,1211.89 2352.76,1211.89 "></polyline>
<polyline clip-path="url(#clip432)" style="stroke:#000000; stroke-linecap:round; stroke-linejoin:round; stroke-width:2; stroke-opacity:0.1; fill:none" points="300.775,988.091 2352.76,988.091 "></polyline>
<polyline clip-path="url(#clip432)" style="stroke:#000000; stroke-linecap:round; stroke-linejoin:round; stroke-width:2; stroke-opacity:0.1; fill:none" points="300.775,764.295 2352.76,764.295 "></polyline>
<polyline clip-path="url(#clip432)" style="stroke:#000000; stroke-linecap:round; stroke-linejoin:round; stroke-width:2; stroke-opacity:0.1; fill:none" points="300.775,540.5 2352.76,540.5 "></polyline>
<polyline clip-path="url(#clip432)" style="stroke:#000000; stroke-linecap:round; stroke-linejoin:round; stroke-width:2; stroke-opacity:0.1; fill:none" points="300.775,316.704 2352.76,316.704 "></polyline>
<polyline clip-path="url(#clip432)" style="stroke:#000000; stroke-linecap:round; stroke-linejoin:round; stroke-width:2; stroke-opacity:0.1; fill:none" points="300.775,92.9082 2352.76,92.9082 "></polyline>
<polyline clip-path="url(#clip430)" style="stroke:#000000; stroke-linecap:round; stroke-linejoin:round; stroke-width:4; stroke-opacity:1; fill:none" points="300.775,1384.3 300.775,47.2441 "></polyline>
<polyline clip-path="url(#clip430)" style="stroke:#000000; stroke-linecap:round; stroke-linejoin:round; stroke-width:4; stroke-opacity:1; fill:none" points="300.775,1211.89 319.672,1211.89 "></polyline>
<polyline clip-path="url(#clip430)" style="stroke:#000000; stroke-linecap:round; stroke-linejoin:round; stroke-width:4; stroke-opacity:1; fill:none" points="300.775,988.091 319.672,988.091 "></polyline>
<polyline clip-path="url(#clip430)" style="stroke:#000000; stroke-linecap:round; stroke-linejoin:round; stroke-width:4; stroke-opacity:1; fill:none" points="300.775,764.295 319.672,764.295 "></polyline>
<polyline clip-path="url(#clip430)" style="stroke:#000000; stroke-linecap:round; stroke-linejoin:round; stroke-width:4; stroke-opacity:1; fill:none" points="300.775,540.5 319.672,540.5 "></polyline>
<polyline clip-path="url(#clip430)" style="stroke:#000000; stroke-linecap:round; stroke-linejoin:round; stroke-width:4; stroke-opacity:1; fill:none" points="300.775,316.704 319.672,316.704 "></polyline>
<polyline clip-path="url(#clip430)" style="stroke:#000000; stroke-linecap:round; stroke-linejoin:round; stroke-width:4; stroke-opacity:1; fill:none" points="300.775,92.9082 319.672,92.9082 "></polyline>
<path clip-path="url(#clip430)" d="M136.675 1213.54 Q136.675 1202.38 139.492 1196.31 Q143.419 1187.26 152.683 1187.26 Q154.647 1187.26 156.685 1187.82 Q158.76 1188.34 161.354 1190.38 Q163.985 1192.41 165.578 1195.75 Q168.617 1202.2 168.617 1213.54 Q168.617 1224.62 165.801 1230.66 Q161.688 1239.47 152.609 1239.47 Q149.2 1239.47 145.717 1237.73 Q142.271 1235.99 140.084 1231.8 Q136.675 1225.54 136.675 1213.54 M142.975 1212.61 Q142.975 1224.06 143.79 1228.62 Q144.716 1233.55 147.236 1235.69 Q149.793 1237.81 152.609 1237.81 Q155.648 1237.81 158.167 1235.55 Q160.724 1233.25 161.502 1228.32 Q162.355 1223.47 162.317 1212.61 Q162.317 1202.05 161.576 1197.82 Q160.576 1192.9 157.908 1190.93 Q155.277 1188.93 152.609 1188.93 Q151.609 1188.93 150.534 1189.23 Q149.496 1189.52 147.977 1190.38 Q146.458 1191.23 145.272 1193.34 Q144.123 1195.45 143.568 1198.64 Q142.975 1202.75 142.975 1212.61 Z" fill="#000000" fill-rule="nonzero" fill-opacity="1"></path><path clip-path="url(#clip430)" d="M179.252 1236.58 Q178.103 1235.36 178.103 1233.77 Q178.103 1232.17 179.252 1231.03 Q180.4 1229.84 182.142 1229.84 Q183.809 1229.84 184.921 1230.95 Q186.07 1232.03 186.07 1233.8 Q186.07 1235.55 184.847 1236.7 Q183.661 1237.81 182.142 1237.81 Q180.4 1237.81 179.252 1236.58 Z" fill="#000000" fill-rule="nonzero" fill-opacity="1"></path><path clip-path="url(#clip430)" d="M195.704 1213.54 Q195.704 1202.38 198.52 1196.31 Q202.448 1187.26 211.712 1187.26 Q213.676 1187.26 215.714 1187.82 Q217.789 1188.34 220.383 1190.38 Q223.014 1192.41 224.607 1195.75 Q227.645 1202.2 227.645 1213.54 Q227.645 1224.62 224.829 1230.66 Q220.716 1239.47 211.638 1239.47 Q208.229 1239.47 204.745 1237.73 Q201.299 1235.99 199.113 1231.8 Q195.704 1225.54 195.704 1213.54 M202.003 1212.61 Q202.003 1224.06 202.819 1228.62 Q203.745 1233.55 206.265 1235.69 Q208.822 1237.81 211.638 1237.81 Q214.676 1237.81 217.196 1235.55 Q219.753 1233.25 220.531 1228.32 Q221.383 1223.47 221.346 1212.61 Q221.346 1202.05 220.605 1197.82 Q219.605 1192.9 216.937 1190.93 Q214.306 1188.93 211.638 1188.93 Q210.637 1188.93 209.563 1189.23 Q208.525 1189.52 207.006 1190.38 Q205.487 1191.23 204.301 1193.34 Q203.152 1195.45 202.596 1198.64 Q202.003 1202.75 202.003 1212.61 Z" fill="#000000" fill-rule="nonzero" fill-opacity="1"></path><path clip-path="url(#clip430)" d="M234.464 1225.58 Q234.464 1223.32 235.686 1222.47 Q236.909 1221.58 238.206 1221.58 Q239.948 1221.58 240.948 1222.69 Q241.986 1223.76 241.986 1225.28 Q241.986 1226.8 240.948 1227.91 Q239.948 1228.99 238.206 1228.99 Q237.354 1228.99 236.909 1228.84 Q237.91 1232.32 240.948 1234.84 Q244.024 1237.36 248.063 1237.36 Q253.139 1237.36 256.178 1232.43 Q257.994 1229.25 257.994 1222.02 Q257.994 1215.65 256.623 1212.46 Q254.51 1207.61 250.175 1207.61 Q244.024 1207.61 240.392 1212.91 Q239.948 1213.57 239.429 1213.61 Q238.688 1213.61 238.503 1213.2 Q238.354 1212.76 238.354 1211.61 L238.354 1189.15 Q238.354 1187.34 239.095 1187.34 Q239.392 1187.34 240.022 1187.56 Q244.802 1189.67 250.101 1189.71 Q255.548 1189.71 260.439 1187.49 Q260.81 1187.26 261.032 1187.26 Q261.773 1187.26 261.81 1188.12 Q261.81 1188.41 261.18 1189.3 Q260.587 1190.15 259.29 1191.3 Q257.994 1192.41 256.326 1193.49 Q254.659 1194.56 252.213 1195.3 Q249.804 1196.01 247.136 1196.01 Q243.95 1196.01 240.689 1195.01 L240.689 1209.79 Q244.617 1205.94 250.323 1205.94 Q256.4 1205.94 260.587 1210.83 Q264.775 1215.72 264.775 1222.54 Q264.775 1229.69 259.809 1234.58 Q254.881 1239.47 248.211 1239.47 Q242.134 1239.47 238.28 1235.14 Q234.464 1230.8 234.464 1225.58 Z" fill="#000000" fill-rule="nonzero" fill-opacity="1"></path><path clip-path="url(#clip430)" d="M135.86 989.74 Q135.86 978.586 138.676 972.509 Q142.604 963.468 151.868 963.468 Q153.832 963.468 155.87 964.024 Q157.945 964.543 160.539 966.581 Q163.17 968.619 164.763 971.954 Q167.802 978.401 167.802 989.74 Q167.802 1000.82 164.985 1006.86 Q160.872 1015.68 151.794 1015.68 Q148.385 1015.68 144.902 1013.94 Q141.455 1012.2 139.269 1008.01 Q135.86 1001.75 135.86 989.74 M142.16 988.814 Q142.16 1000.26 142.975 1004.82 Q143.901 1009.75 146.421 1011.9 Q148.978 1014.01 151.794 1014.01 Q154.832 1014.01 157.352 1011.75 Q159.909 1009.45 160.687 1004.52 Q161.539 999.671 161.502 988.814 Q161.502 978.253 160.761 974.029 Q159.761 969.1 157.093 967.136 Q154.462 965.135 151.794 965.135 Q150.793 965.135 149.719 965.432 Q148.681 965.728 147.162 966.581 Q145.643 967.433 144.457 969.545 Q143.308 971.657 142.752 974.844 Q142.16 978.957 142.16 988.814 Z" fill="#000000" fill-rule="nonzero" fill-opacity="1"></path><path clip-path="url(#clip430)" d="M178.436 1012.79 Q177.288 1011.57 177.288 1009.97 Q177.288 1008.38 178.436 1007.23 Q179.585 1006.04 181.327 1006.04 Q182.994 1006.04 184.106 1007.16 Q185.255 1008.23 185.255 1010.01 Q185.255 1011.75 184.032 1012.9 Q182.846 1014.01 181.327 1014.01 Q179.585 1014.01 178.436 1012.79 Z" fill="#000000" fill-rule="nonzero" fill-opacity="1"></path><path clip-path="url(#clip430)" d="M198.668 970.694 L198.668 968.322 Q207.784 968.322 212.49 963.468 Q213.787 963.468 214.009 963.764 Q214.232 964.061 214.232 965.432 L214.232 1008.01 Q214.232 1010.27 215.343 1010.97 Q216.455 1011.68 221.309 1011.68 L223.718 1011.68 L223.718 1014.01 Q221.05 1013.79 211.415 1013.79 Q201.781 1013.79 199.15 1014.01 L199.15 1011.68 L201.559 1011.68 Q206.339 1011.68 207.488 1011.01 Q208.636 1010.31 208.636 1008.01 L208.636 968.693 Q204.671 970.694 198.668 970.694 Z" fill="#000000" fill-rule="nonzero" fill-opacity="1"></path><path clip-path="url(#clip430)" d="M232.833 989.74 Q232.833 978.586 235.649 972.509 Q239.577 963.468 248.841 963.468 Q250.805 963.468 252.843 964.024 Q254.918 964.543 257.512 966.581 Q260.143 968.619 261.736 971.954 Q264.775 978.401 264.775 989.74 Q264.775 1000.82 261.958 1006.86 Q257.845 1015.68 248.767 1015.68 Q245.358 1015.68 241.875 1013.94 Q238.429 1012.2 236.242 1008.01 Q232.833 1001.75 232.833 989.74 M239.133 988.814 Q239.133 1000.26 239.948 1004.82 Q240.874 1009.75 243.394 1011.9 Q245.951 1014.01 248.767 1014.01 Q251.805 1014.01 254.325 1011.75 Q256.882 1009.45 257.66 1004.52 Q258.512 999.671 258.475 988.814 Q258.475 978.253 257.734 974.029 Q256.734 969.1 254.066 967.136 Q251.435 965.135 248.767 965.135 Q247.766 965.135 246.692 965.432 Q245.654 965.728 244.135 966.581 Q242.616 967.433 241.43 969.545 Q240.281 971.657 239.725 974.844 Q239.133 978.957 239.133 988.814 Z" fill="#000000" fill-rule="nonzero" fill-opacity="1"></path><path clip-path="url(#clip430)" d="M136.675 765.944 Q136.675 754.791 139.492 748.714 Q143.419 739.672 152.683 739.672 Q154.647 739.672 156.685 740.228 Q158.76 740.747 161.354 742.785 Q163.985 744.823 165.578 748.158 Q168.617 754.605 168.617 765.944 Q168.617 777.024 165.801 783.064 Q161.688 791.883 152.609 791.883 Q149.2 791.883 145.717 790.141 Q142.271 788.4 140.084 784.212 Q136.675 777.95 136.675 765.944 M142.975 765.018 Q142.975 776.468 143.79 781.026 Q144.716 785.954 147.236 788.103 Q149.793 790.215 152.609 790.215 Q155.648 790.215 158.167 787.955 Q160.724 785.658 161.502 780.729 Q162.355 775.875 162.317 765.018 Q162.317 754.457 161.576 750.233 Q160.576 745.305 157.908 743.341 Q155.277 741.34 152.609 741.34 Q151.609 741.34 150.534 741.636 Q149.496 741.933 147.977 742.785 Q146.458 743.637 145.272 745.749 Q144.123 747.861 143.568 751.048 Q142.975 755.161 142.975 765.018 Z" fill="#000000" fill-rule="nonzero" fill-opacity="1"></path><path clip-path="url(#clip430)" d="M179.252 788.992 Q178.103 787.77 178.103 786.176 Q178.103 784.583 179.252 783.434 Q180.4 782.248 182.142 782.248 Q183.809 782.248 184.921 783.36 Q186.07 784.435 186.07 786.213 Q186.07 787.955 184.847 789.104 Q183.661 790.215 182.142 790.215 Q180.4 790.215 179.252 788.992 Z" fill="#000000" fill-rule="nonzero" fill-opacity="1"></path><path clip-path="url(#clip430)" d="M199.484 746.898 L199.484 744.526 Q208.599 744.526 213.305 739.672 Q214.602 739.672 214.824 739.969 Q215.047 740.265 215.047 741.636 L215.047 784.212 Q215.047 786.473 216.158 787.177 Q217.27 787.881 222.124 787.881 L224.533 787.881 L224.533 790.215 Q221.865 789.993 212.231 789.993 Q202.596 789.993 199.965 790.215 L199.965 787.881 L202.374 787.881 Q207.154 787.881 208.303 787.214 Q209.451 786.51 209.451 784.212 L209.451 744.897 Q205.487 746.898 199.484 746.898 Z" fill="#000000" fill-rule="nonzero" fill-opacity="1"></path><path clip-path="url(#clip430)" d="M234.464 777.987 Q234.464 775.727 235.686 774.874 Q236.909 773.985 238.206 773.985 Q239.948 773.985 240.948 775.097 Q241.986 776.171 241.986 777.691 Q241.986 779.21 240.948 780.322 Q239.948 781.396 238.206 781.396 Q237.354 781.396 236.909 781.248 Q237.91 784.731 240.948 787.251 Q244.024 789.771 248.063 789.771 Q253.139 789.771 256.178 784.842 Q257.994 781.656 257.994 774.43 Q257.994 768.056 256.623 764.87 Q254.51 760.015 250.175 760.015 Q244.024 760.015 240.392 765.314 Q239.948 765.981 239.429 766.018 Q238.688 766.018 238.503 765.611 Q238.354 765.166 238.354 764.017 L238.354 741.562 Q238.354 739.746 239.095 739.746 Q239.392 739.746 240.022 739.969 Q244.802 742.081 250.101 742.118 Q255.548 742.118 260.439 739.895 Q260.81 739.672 261.032 739.672 Q261.773 739.672 261.81 740.524 Q261.81 740.821 261.18 741.71 Q260.587 742.563 259.29 743.711 Q257.994 744.823 256.326 745.897 Q254.659 746.972 252.213 747.713 Q249.804 748.417 247.136 748.417 Q243.95 748.417 240.689 747.417 L240.689 762.202 Q244.617 758.348 250.323 758.348 Q256.4 758.348 260.587 763.239 Q264.775 768.13 264.775 774.949 Q264.775 782.1 259.809 786.991 Q254.881 791.883 248.211 791.883 Q242.134 791.883 238.28 787.547 Q234.464 783.212 234.464 777.987 Z" fill="#000000" fill-rule="nonzero" fill-opacity="1"></path><path clip-path="url(#clip430)" d="M135.86 542.149 Q135.86 530.995 138.676 524.918 Q142.604 515.877 151.868 515.877 Q153.832 515.877 155.87 516.432 Q157.945 516.951 160.539 518.989 Q163.17 521.027 164.763 524.362 Q167.802 530.81 167.802 542.149 Q167.802 553.228 164.985 559.268 Q160.872 568.087 151.794 568.087 Q148.385 568.087 144.902 566.345 Q141.455 564.604 139.269 560.417 Q135.86 554.154 135.86 542.149 M142.16 541.222 Q142.16 552.672 142.975 557.23 Q143.901 562.158 146.421 564.307 Q148.978 566.42 151.794 566.42 Q154.832 566.42 157.352 564.159 Q159.909 561.862 160.687 556.933 Q161.539 552.079 161.502 541.222 Q161.502 530.661 160.761 526.437 Q159.761 521.509 157.093 519.545 Q154.462 517.544 151.794 517.544 Q150.793 517.544 149.719 517.84 Q148.681 518.137 147.162 518.989 Q145.643 519.841 144.457 521.954 Q143.308 524.066 142.752 527.252 Q142.16 531.366 142.16 541.222 Z" fill="#000000" fill-rule="nonzero" fill-opacity="1"></path><path clip-path="url(#clip430)" d="M178.436 565.197 Q177.288 563.974 177.288 562.381 Q177.288 560.787 178.436 559.639 Q179.585 558.453 181.327 558.453 Q182.994 558.453 184.106 559.564 Q185.255 560.639 185.255 562.418 Q185.255 564.159 184.032 565.308 Q182.846 566.42 181.327 566.42 Q179.585 566.42 178.436 565.197 Z" fill="#000000" fill-rule="nonzero" fill-opacity="1"></path><path clip-path="url(#clip430)" d="M195.704 566.42 Q195.704 565.049 195.815 564.641 Q195.963 564.233 196.556 563.603 L211.119 547.373 Q219.086 538.406 219.086 530.587 Q219.086 525.511 216.418 521.879 Q213.787 518.248 208.933 518.248 Q205.598 518.248 202.782 520.286 Q199.965 522.324 198.668 525.955 Q198.891 525.881 199.669 525.881 Q201.559 525.881 202.596 527.067 Q203.671 528.253 203.671 529.846 Q203.671 531.884 202.337 532.885 Q201.04 533.848 199.743 533.848 Q199.224 533.848 198.52 533.737 Q197.853 533.626 196.779 532.588 Q195.704 531.514 195.704 529.624 Q195.704 524.325 199.706 520.101 Q203.745 515.877 209.896 515.877 Q216.862 515.877 221.42 520.027 Q226.015 524.14 226.015 530.587 Q226.015 532.848 225.311 534.923 Q224.644 536.961 223.718 538.554 Q222.828 540.148 220.383 542.704 Q217.937 545.261 215.973 547.077 Q214.009 548.893 209.6 552.746 L201.559 560.565 L215.232 560.565 Q221.902 560.565 222.421 559.972 Q223.162 558.897 224.088 553.228 L226.015 553.228 L223.866 566.42 L195.704 566.42 Z" fill="#000000" fill-rule="nonzero" fill-opacity="1"></path><path clip-path="url(#clip430)" d="M232.833 542.149 Q232.833 530.995 235.649 524.918 Q239.577 515.877 248.841 515.877 Q250.805 515.877 252.843 516.432 Q254.918 516.951 257.512 518.989 Q260.143 521.027 261.736 524.362 Q264.775 530.81 264.775 542.149 Q264.775 553.228 261.958 559.268 Q257.845 568.087 248.767 568.087 Q245.358 568.087 241.875 566.345 Q238.429 564.604 236.242 560.417 Q232.833 554.154 232.833 542.149 M239.133 541.222 Q239.133 552.672 239.948 557.23 Q240.874 562.158 243.394 564.307 Q245.951 566.42 248.767 566.42 Q251.805 566.42 254.325 564.159 Q256.882 561.862 257.66 556.933 Q258.512 552.079 258.475 541.222 Q258.475 530.661 257.734 526.437 Q256.734 521.509 254.066 519.545 Q251.435 517.544 248.767 517.544 Q247.766 517.544 246.692 517.84 Q245.654 518.137 244.135 518.989 Q242.616 519.841 241.43 521.954 Q240.281 524.066 239.725 527.252 Q239.133 531.366 239.133 541.222 Z" fill="#000000" fill-rule="nonzero" fill-opacity="1"></path><path clip-path="url(#clip430)" d="M136.675 318.353 Q136.675 307.199 139.492 301.122 Q143.419 292.081 152.683 292.081 Q154.647 292.081 156.685 292.637 Q158.76 293.155 161.354 295.193 Q163.985 297.231 165.578 300.566 Q168.617 307.014 168.617 318.353 Q168.617 329.432 165.801 335.472 Q161.688 344.291 152.609 344.291 Q149.2 344.291 145.717 342.55 Q142.271 340.808 140.084 336.621 Q136.675 330.359 136.675 318.353 M142.975 317.426 Q142.975 328.876 143.79 333.434 Q144.716 338.363 147.236 340.512 Q149.793 342.624 152.609 342.624 Q155.648 342.624 158.167 340.364 Q160.724 338.066 161.502 333.138 Q162.355 328.284 162.317 317.426 Q162.317 306.866 161.576 302.641 Q160.576 297.713 157.908 295.749 Q155.277 293.748 152.609 293.748 Q151.609 293.748 150.534 294.045 Q149.496 294.341 147.977 295.193 Q146.458 296.046 145.272 298.158 Q144.123 300.27 143.568 303.457 Q142.975 307.57 142.975 317.426 Z" fill="#000000" fill-rule="nonzero" fill-opacity="1"></path><path clip-path="url(#clip430)" d="M179.252 341.401 Q178.103 340.178 178.103 338.585 Q178.103 336.992 179.252 335.843 Q180.4 334.657 182.142 334.657 Q183.809 334.657 184.921 335.769 Q186.07 336.843 186.07 338.622 Q186.07 340.364 184.847 341.512 Q183.661 342.624 182.142 342.624 Q180.4 342.624 179.252 341.401 Z" fill="#000000" fill-rule="nonzero" fill-opacity="1"></path><path clip-path="url(#clip430)" d="M196.519 342.624 Q196.519 341.253 196.63 340.845 Q196.779 340.438 197.372 339.808 L211.934 323.578 Q219.901 314.61 219.901 306.792 Q219.901 301.715 217.233 298.084 Q214.602 294.452 209.748 294.452 Q206.413 294.452 203.597 296.49 Q200.781 298.528 199.484 302.16 Q199.706 302.086 200.484 302.086 Q202.374 302.086 203.411 303.271 Q204.486 304.457 204.486 306.051 Q204.486 308.089 203.152 309.089 Q201.855 310.053 200.558 310.053 Q200.039 310.053 199.335 309.941 Q198.668 309.83 197.594 308.793 Q196.519 307.718 196.519 305.828 Q196.519 300.529 200.521 296.305 Q204.56 292.081 210.711 292.081 Q217.678 292.081 222.235 296.231 Q226.83 300.344 226.83 306.792 Q226.83 309.052 226.126 311.127 Q225.459 313.165 224.533 314.758 Q223.644 316.352 221.198 318.909 Q218.752 321.465 216.788 323.281 Q214.824 325.097 210.415 328.951 L202.374 336.769 L216.047 336.769 Q222.717 336.769 223.236 336.176 Q223.977 335.102 224.903 329.432 L226.83 329.432 L224.681 342.624 L196.519 342.624 Z" fill="#000000" fill-rule="nonzero" fill-opacity="1"></path><path clip-path="url(#clip430)" d="M234.464 330.396 Q234.464 328.135 235.686 327.283 Q236.909 326.394 238.206 326.394 Q239.948 326.394 240.948 327.505 Q241.986 328.58 241.986 330.099 Q241.986 331.619 240.948 332.73 Q239.948 333.805 238.206 333.805 Q237.354 333.805 236.909 333.657 Q237.91 337.14 240.948 339.659 Q244.024 342.179 248.063 342.179 Q253.139 342.179 256.178 337.251 Q257.994 334.064 257.994 326.838 Q257.994 320.465 256.623 317.278 Q254.51 312.424 250.175 312.424 Q244.024 312.424 240.392 317.723 Q239.948 318.39 239.429 318.427 Q238.688 318.427 238.503 318.019 Q238.354 317.575 238.354 316.426 L238.354 293.971 Q238.354 292.155 239.095 292.155 Q239.392 292.155 240.022 292.377 Q244.802 294.489 250.101 294.526 Q255.548 294.526 260.439 292.303 Q260.81 292.081 261.032 292.081 Q261.773 292.081 261.81 292.933 Q261.81 293.23 261.18 294.119 Q260.587 294.971 259.29 296.12 Q257.994 297.231 256.326 298.306 Q254.659 299.381 252.213 300.122 Q249.804 300.826 247.136 300.826 Q243.95 300.826 240.689 299.825 L240.689 314.61 Q244.617 310.757 250.323 310.757 Q256.4 310.757 260.587 315.648 Q264.775 320.539 264.775 327.357 Q264.775 334.509 259.809 339.4 Q254.881 344.291 248.211 344.291 Q242.134 344.291 238.28 339.956 Q234.464 335.62 234.464 330.396 Z" fill="#000000" fill-rule="nonzero" fill-opacity="1"></path><path clip-path="url(#clip430)" d="M135.86 94.5571 Q135.86 83.4036 138.676 77.3265 Q142.604 68.2851 151.868 68.2851 Q153.832 68.2851 155.87 68.8409 Q157.945 69.3597 160.539 71.3977 Q163.17 73.4358 164.763 76.7707 Q167.802 83.2183 167.802 94.5571 Q167.802 105.637 164.985 111.677 Q160.872 120.496 151.794 120.496 Q148.385 120.496 144.902 118.754 Q141.455 117.012 139.269 112.825 Q135.86 106.563 135.86 94.5571 M142.16 93.6308 Q142.16 105.081 142.975 109.639 Q143.901 114.567 146.421 116.716 Q148.978 118.828 151.794 118.828 Q154.832 118.828 157.352 116.568 Q159.909 114.27 160.687 109.342 Q161.539 104.488 161.502 93.6308 Q161.502 83.0701 160.761 78.8458 Q159.761 73.9175 157.093 71.9536 Q154.462 69.9526 151.794 69.9526 Q150.793 69.9526 149.719 70.249 Q148.681 70.5455 147.162 71.3977 Q145.643 72.25 144.457 74.3621 Q143.308 76.4743 142.752 79.661 Q142.16 83.7741 142.16 93.6308 Z" fill="#000000" fill-rule="nonzero" fill-opacity="1"></path><path clip-path="url(#clip430)" d="M178.436 117.605 Q177.288 116.383 177.288 114.789 Q177.288 113.196 178.436 112.047 Q179.585 110.861 181.327 110.861 Q182.994 110.861 184.106 111.973 Q185.255 113.048 185.255 114.826 Q185.255 116.568 184.032 117.717 Q182.846 118.828 181.327 118.828 Q179.585 118.828 178.436 117.605 Z" fill="#000000" fill-rule="nonzero" fill-opacity="1"></path><path clip-path="url(#clip430)" d="M195.111 108.601 Q195.111 106.341 196.408 105.266 Q197.705 104.191 199.372 104.191 Q201.114 104.191 202.337 105.34 Q203.597 106.452 203.597 108.416 Q203.597 110.528 202.115 111.714 Q200.669 112.899 198.594 112.603 Q200.41 115.641 203.745 117.012 Q207.117 118.384 210.23 118.384 Q213.49 118.384 216.121 115.567 Q218.789 112.751 218.789 105.859 Q218.789 100.004 216.492 96.6322 Q214.232 93.2602 209.748 93.2602 L206.413 93.2602 Q205.264 93.2602 204.931 93.149 Q204.597 93.0379 204.597 92.4079 Q204.597 91.6668 205.746 91.5186 Q206.895 91.5186 208.71 91.2963 Q213.12 91.1481 215.454 87.3314 Q217.567 83.7741 217.567 78.6976 Q217.567 74.0657 215.343 72.1388 Q213.157 70.1749 210.304 70.1749 Q207.636 70.1749 204.708 71.2866 Q201.781 72.3982 200.188 74.8809 Q204.894 74.8809 204.894 78.6976 Q204.894 80.3651 203.819 81.4767 Q202.782 82.5513 201.04 82.5513 Q199.372 82.5513 198.261 81.5138 Q197.149 80.4392 197.149 78.6235 Q197.149 74.288 201.003 71.2866 Q204.894 68.2851 210.6 68.2851 Q216.233 68.2851 220.383 71.2495 Q224.57 74.2139 224.57 78.7717 Q224.57 83.2553 221.606 86.9238 Q218.641 90.5922 213.935 92.1115 Q219.716 93.2602 223.162 97.188 Q226.608 101.079 226.608 105.859 Q226.608 111.788 221.939 116.16 Q217.27 120.496 210.452 120.496 Q204.153 120.496 199.632 117.087 Q195.111 113.678 195.111 108.601 Z" fill="#000000" fill-rule="nonzero" fill-opacity="1"></path><path clip-path="url(#clip430)" d="M232.833 94.5571 Q232.833 83.4036 235.649 77.3265 Q239.577 68.2851 248.841 68.2851 Q250.805 68.2851 252.843 68.8409 Q254.918 69.3597 257.512 71.3977 Q260.143 73.4358 261.736 76.7707 Q264.775 83.2183 264.775 94.5571 Q264.775 105.637 261.958 111.677 Q257.845 120.496 248.767 120.496 Q245.358 120.496 241.875 118.754 Q238.429 117.012 236.242 112.825 Q232.833 106.563 232.833 94.5571 M239.133 93.6308 Q239.133 105.081 239.948 109.639 Q240.874 114.567 243.394 116.716 Q245.951 118.828 248.767 118.828 Q251.805 118.828 254.325 116.568 Q256.882 114.27 257.66 109.342 Q258.512 104.488 258.475 93.6308 Q258.475 83.0701 257.734 78.8458 Q256.734 73.9175 254.066 71.9536 Q251.435 69.9526 248.767 69.9526 Q247.766 69.9526 246.692 70.249 Q245.654 70.5455 244.135 71.3977 Q242.616 72.25 241.43 74.3621 Q240.281 76.4743 239.725 79.661 Q239.133 83.7741 239.133 93.6308 Z" fill="#000000" fill-rule="nonzero" fill-opacity="1"></path><path clip-path="url(#clip430)" d="M38.6601 905.123 L35.498 905.123 L35.498 897.169 L23.8874 897.169 Q16.3776 897.169 12.0792 892.327 Q7.78086 887.436 7.78086 881.457 Q7.78086 877.505 9.90534 874.936 Q12.0298 872.367 14.8954 872.367 Q16.8223 872.367 18.1069 873.552 Q19.342 874.689 19.342 876.813 Q19.342 878.839 18.0575 880.025 Q16.7729 881.161 14.9942 881.161 Q11.7334 881.161 10.7453 878.147 Q10.0536 879.679 10.0042 881.457 Q10.0042 885.113 13.7591 887.979 Q17.514 890.795 23.7886 890.795 L35.498 890.795 L35.498 878.938 L38.6601 878.938 L38.6601 890.449 L71.2191 890.449 Q74.1341 890.449 75.0728 889.264 Q76.0115 888.028 76.0115 882.791 L76.0115 880.667 L79.1242 880.667 Q78.8277 884.718 78.8277 893.513 Q78.8277 894.748 78.8771 896.675 Q78.9265 898.552 79.0253 901.121 Q79.1242 903.641 79.1242 905.024 L76.0115 905.024 Q76.0115 899.639 75.3692 898.404 Q74.6776 897.169 71.4167 897.169 L38.6601 897.169 L38.6601 905.123 Z" fill="#000000" fill-rule="nonzero" fill-opacity="1"></path><path clip-path="url(#clip430)" d="M79.1242 874.293 L76.0115 874.293 Q76.0115 868.908 75.3692 867.673 Q74.6776 866.438 71.4167 866.438 L44.1936 866.438 Q40.4387 866.438 39.5494 867.722 Q38.6601 868.958 38.6601 873.898 L35.498 873.898 L34.4111 859.768 L71.5155 859.768 Q74.5293 859.768 75.2704 858.681 Q76.0115 857.594 76.0115 852.653 L79.1242 852.653 Q78.8277 862.979 78.8277 863.177 Q78.8277 864.56 79.1242 874.293 M16.7729 870.044 Q14.7472 870.044 13.1168 868.513 Q11.437 866.932 11.437 864.709 Q11.437 862.485 12.9686 860.904 Q14.4508 859.323 16.8223 859.323 Q19.1444 859.323 20.676 860.904 Q22.1582 862.485 22.1582 864.709 Q22.1582 867.031 20.5278 868.562 Q18.8974 870.044 16.7729 870.044 Z" fill="#000000" fill-rule="nonzero" fill-opacity="1"></path><path clip-path="url(#clip430)" d="M79.1242 846.379 L76.0115 846.379 Q76.0115 840.993 75.3692 839.758 Q74.6776 838.523 71.4167 838.523 L44.2924 838.523 Q40.5375 838.523 39.5988 839.857 Q38.6601 841.142 38.6601 846.379 L35.498 846.379 L34.4111 832.149 L45.0335 832.149 Q34.4111 827.406 34.4111 817.179 Q34.4111 809.571 38.166 806.557 Q40.6857 804.334 43.5019 803.889 Q46.3181 803.395 53.6303 803.395 L72.9483 803.395 Q75.0728 803.296 75.5669 801.666 Q76.0115 800.035 76.0115 795.49 L79.1242 795.49 Q78.8277 805.816 78.8277 806.853 Q78.8277 807.644 79.1242 818.266 L76.0115 818.266 Q76.0115 812.881 75.3692 811.646 Q74.6776 810.361 71.4167 810.361 L47.8497 810.361 Q42.7114 810.361 39.6976 811.942 Q36.6344 813.523 36.6344 817.871 Q36.6344 823.108 41.0316 827.308 Q45.4288 831.507 52.8398 831.507 L71.4167 831.507 Q74.6776 831.507 75.3692 830.272 Q76.0115 828.987 76.0115 823.652 L79.1242 823.652 Q78.8277 833.978 78.8277 834.966 Q78.8277 835.756 79.1242 846.379 Z" fill="#000000" fill-rule="nonzero" fill-opacity="1"></path><path clip-path="url(#clip430)" d="M69.4898 789.264 Q60.8931 789.264 56.3477 779.136 Q53.4327 773.059 52.6916 760.51 L48.9861 760.51 Q42.7114 760.51 39.4012 763.82 Q36.0415 767.081 36.0415 771.231 Q36.0415 778.642 40.6857 782.199 Q40.7845 779.185 42.3162 778.099 Q43.7984 777.012 45.33 777.012 Q47.3556 777.012 48.6896 778.296 Q49.9742 779.531 49.9742 781.656 Q49.9742 783.682 48.739 785.015 Q47.4545 786.349 45.2311 786.349 Q40.2905 786.349 37.0296 781.903 Q33.7688 777.407 33.7688 771.033 Q33.7688 762.733 39.3517 757.2 Q41.081 755.47 43.3043 754.63 Q45.5276 753.741 47.0098 753.642 Q48.4426 753.543 51.3082 753.543 L71.5155 753.543 Q72.1084 753.543 73.0965 753.346 Q74.0847 753.148 75.3692 752.259 Q76.6044 751.32 76.6044 749.788 Q76.6044 746.132 70.1321 746.182 L64.4504 746.182 L64.4504 743.613 L70.1321 743.613 Q75.5175 743.613 77.642 746.478 Q79.717 749.294 79.717 751.913 Q79.717 755.273 77.2467 757.397 Q74.7764 759.522 71.4167 759.818 Q75.2704 761.35 77.7902 764.858 Q80.2605 768.316 80.2605 773.059 Q80.2605 776.715 79.3218 780.174 Q78.4325 783.583 75.9127 786.448 Q73.3436 789.264 69.4898 789.264 M69.391 781.458 Q73.1459 781.458 75.5669 778.79 Q77.9878 776.122 77.9878 772.367 Q77.9878 768.118 74.727 764.314 Q71.4167 760.51 64.9444 760.51 L54.8161 760.51 Q55.2113 771.725 59.7073 776.616 Q64.1539 781.458 69.391 781.458 Z" fill="#000000" fill-rule="nonzero" fill-opacity="1"></path><path clip-path="url(#clip430)" d="M79.1242 739.561 L76.0115 739.561 Q76.0115 734.176 75.3692 732.941 Q74.6776 731.706 71.4167 731.706 L18.7986 731.706 Q15.0436 731.706 14.1049 733.04 Q13.1662 734.324 13.1662 739.561 L10.0042 739.561 L8.91721 725.036 L71.4167 725.036 Q74.6776 725.036 75.3692 723.751 Q76.0115 722.467 76.0115 717.131 L79.1242 717.131 Q79.1242 718.366 79.0253 720.935 Q78.9265 723.504 78.8771 725.382 Q78.8277 727.259 78.8277 728.346 Q78.8277 729.532 79.1242 739.561 Z" fill="#000000" fill-rule="nonzero" fill-opacity="1"></path><path clip-path="url(#clip430)" d="M79.1242 677.902 L76.0115 677.902 Q76.0115 672.516 75.3692 671.281 Q74.6776 670.046 71.4167 670.046 L18.7986 670.046 Q15.0436 670.046 14.1049 671.38 Q13.1662 672.665 13.1662 677.902 L10.0042 677.902 L8.91721 663.376 L71.4167 663.376 Q74.6776 663.376 75.3692 662.092 Q76.0115 660.807 76.0115 655.471 L79.1242 655.471 Q79.1242 656.706 79.0253 659.275 Q78.9265 661.845 78.8771 663.722 Q78.8277 665.599 78.8277 666.686 Q78.8277 667.872 79.1242 677.902 Z" fill="#000000" fill-rule="nonzero" fill-opacity="1"></path><path clip-path="url(#clip430)" d="M73.6894 643.762 Q67.0689 650.432 57.484 650.432 Q47.8497 650.432 40.834 643.91 Q33.7688 637.339 33.7688 627.952 Q33.7688 618.762 40.7845 612.191 Q47.7509 605.57 57.484 605.57 Q67.0195 605.57 73.64 612.24 Q80.2605 618.861 80.2605 628.05 Q80.2605 637.042 73.6894 643.762 M56.6441 642.032 Q66.476 642.032 70.9226 639.463 Q77.6914 635.511 77.6914 627.952 Q77.6914 624.197 75.6657 621.084 Q73.64 617.922 70.2309 616.193 Q65.7843 613.969 56.6441 613.969 Q46.911 613.969 42.6126 616.637 Q36.0415 620.59 36.0415 628.05 Q36.0415 631.311 37.7707 634.523 Q39.4506 637.685 42.8102 639.612 Q47.2568 642.032 56.6441 642.032 Z" fill="#000000" fill-rule="nonzero" fill-opacity="1"></path><path clip-path="url(#clip430)" d="M77.7902 599.296 L64.4504 599.296 Q63.314 599.296 62.9188 599.246 Q62.5235 599.197 62.2271 598.9 Q61.9306 598.604 61.9306 598.011 Q61.9306 597.319 62.2271 597.072 Q62.5235 596.776 63.6599 596.578 Q70.6262 595.047 74.3317 591.786 Q77.9878 588.476 77.9878 582.497 Q77.9878 576.816 75.4681 573.95 Q72.9483 571.084 68.7982 571.084 Q61.3871 571.084 59.5097 581.608 Q58.2745 587.685 57.484 590.205 Q56.6441 592.725 54.8161 594.948 Q51.2588 599.296 46.2193 599.296 Q41.1798 599.296 37.4743 595.491 Q33.7688 591.638 33.7688 583.14 Q33.7688 577.458 36.6344 573.604 Q35.7451 572.468 35.004 571.875 Q33.7688 570.541 33.7688 569.849 Q33.7688 569.059 34.3123 568.91 Q34.8063 568.762 36.2391 568.762 L46.4169 568.762 Q47.5533 568.762 47.9485 568.812 Q48.3438 568.861 48.6402 569.158 Q48.8872 569.454 48.8872 570.096 Q48.8872 571.233 47.9485 571.282 Q35.6957 572.073 35.6957 583.14 Q35.6957 589.118 38.0178 591.786 Q40.2905 594.454 43.4031 594.454 Q45.1323 594.454 46.4663 593.663 Q47.7509 592.823 48.5414 591.786 Q49.2825 590.699 50.0236 588.723 Q50.7153 586.746 50.9623 585.561 Q51.2094 584.325 51.7034 582.003 Q53.235 573.901 56.5453 570.492 Q60.7943 566.243 66.1796 566.243 Q72.1578 566.243 76.2092 570.294 Q80.2605 574.345 80.2605 582.497 Q80.2605 589.068 75.8633 593.663 Q76.4562 594.256 76.9997 594.701 Q77.4937 595.145 77.6914 595.343 Q77.889 595.491 78.0372 595.541 Q78.136 595.59 78.2348 595.689 Q80.2605 597.715 80.2605 598.209 Q80.2605 598.999 79.717 599.147 Q79.223 599.296 77.7902 599.296 Z" fill="#000000" fill-rule="nonzero" fill-opacity="1"></path><path clip-path="url(#clip430)" d="M77.7902 559.474 L64.4504 559.474 Q63.314 559.474 62.9188 559.424 Q62.5235 559.375 62.2271 559.079 Q61.9306 558.782 61.9306 558.189 Q61.9306 557.498 62.2271 557.251 Q62.5235 556.954 63.6599 556.756 Q70.6262 555.225 74.3317 551.964 Q77.9878 548.654 77.9878 542.676 Q77.9878 536.994 75.4681 534.128 Q72.9483 531.263 68.7982 531.263 Q61.3871 531.263 59.5097 541.786 Q58.2745 547.863 57.484 550.383 Q56.6441 552.903 54.8161 555.126 Q51.2588 559.474 46.2193 559.474 Q41.1798 559.474 37.4743 555.669 Q33.7688 551.816 33.7688 543.318 Q33.7688 537.636 36.6344 533.782 Q35.7451 532.646 35.004 532.053 Q33.7688 530.719 33.7688 530.027 Q33.7688 529.237 34.3123 529.089 Q34.8063 528.94 36.2391 528.94 L46.4169 528.94 Q47.5533 528.94 47.9485 528.99 Q48.3438 529.039 48.6402 529.336 Q48.8872 529.632 48.8872 530.274 Q48.8872 531.411 47.9485 531.46 Q35.6957 532.251 35.6957 543.318 Q35.6957 549.296 38.0178 551.964 Q40.2905 554.632 43.4031 554.632 Q45.1323 554.632 46.4663 553.841 Q47.7509 553.002 48.5414 551.964 Q49.2825 550.877 50.0236 548.901 Q50.7153 546.925 50.9623 545.739 Q51.2094 544.504 51.7034 542.181 Q53.235 534.079 56.5453 530.67 Q60.7943 526.421 66.1796 526.421 Q72.1578 526.421 76.2092 530.472 Q80.2605 534.523 80.2605 542.676 Q80.2605 549.247 75.8633 553.841 Q76.4562 554.434 76.9997 554.879 Q77.4937 555.324 77.6914 555.521 Q77.889 555.669 78.0372 555.719 Q78.136 555.768 78.2348 555.867 Q80.2605 557.893 80.2605 558.387 Q80.2605 559.177 79.717 559.326 Q79.223 559.474 77.7902 559.474 Z" fill="#000000" fill-rule="nonzero" fill-opacity="1"></path><polyline clip-path="url(#clip432)" style="stroke:#009af9; stroke-linecap:round; stroke-linejoin:round; stroke-width:4; stroke-opacity:1; fill:none" points="358.85,85.0853 681.488,863.119 1004.13,1201.23 1326.77,1256.78 1649.4,1292.66 1972.04,1321.76 2294.68,1346.46 "></polyline>
</svg>