<?xml version="1.0" encoding="utf-8"?>
<svg xmlns="http://www.w3.org/2000/svg" xmlns:xlink="http://www.w3.org/1999/xlink" width="600" height="400" viewBox="0 0 2400 1600">
<defs>
  <clipPath id="clip820">
    <rect x="0" y="0" width="2400" height="1600"/>
  </clipPath>
</defs>
<path clip-path="url(#clip820)" d="M0 1600 L2400 1600 L2400 0 L0 0  Z" fill="#ffffff" fill-rule="evenodd" fill-opacity="1"/>
<defs>
  <clipPath id="clip821">
    <rect x="480" y="0" width="1681" height="1600"/>
  </clipPath>
</defs>
<path clip-path="url(#clip820)" d="M47.2441 1552.76 L2352.76 1552.76 L2352.76 47.2441 L47.2441 47.2441  Z" fill="#ffffff" fill-rule="evenodd" fill-opacity="1"/>
<defs>
  <clipPath id="clip822">
    <rect x="47" y="47" width="2307" height="1507"/>
  </clipPath>
</defs>
<polyline clip-path="url(#clip820)" style="stroke:#000000; stroke-linecap:round; stroke-linejoin:round; stroke-width:4; stroke-opacity:1; fill:none" points="47.2441,1552.76 2352.76,1552.76 "/>
<polyline clip-path="url(#clip820)" style="stroke:#000000; stroke-linecap:round; stroke-linejoin:round; stroke-width:4; stroke-opacity:1; fill:none" points="47.2441,1552.76 47.2441,47.2441 "/>
<path clip-path="url(#clip822)" d="M174.051 1552.76 L174.051 1552.76 L206.112 1552.76 L206.112 1552.76 L174.051 1552.76 L174.051 1552.76  Z" fill="#f7fbf5" fill-rule="evenodd" fill-opacity="1"/>
<polyline clip-path="url(#clip822)" style="stroke:#000000; stroke-linecap:round; stroke-linejoin:round; stroke-width:4; stroke-opacity:1; fill:none" points="174.051,1552.76 174.051,1552.76 206.112,1552.76 174.051,1552.76 "/>
<path clip-path="url(#clip822)" d="M206.112 1552.76 L206.112 1552.76 L238.173 1552.76 L238.173 1552.76 L206.112 1552.76 L206.112 1552.76  Z" fill="#f7fbf5" fill-rule="evenodd" fill-opacity="1"/>
<polyline clip-path="url(#clip822)" style="stroke:#000000; stroke-linecap:round; stroke-linejoin:round; stroke-width:4; stroke-opacity:1; fill:none" points="206.112,1552.76 206.112,1552.76 238.173,1552.76 206.112,1552.76 "/>
<path clip-path="url(#clip822)" d="M238.173 1552.52 L238.173 1552.76 L270.234 1552.76 L270.234 1552.52 L238.173 1552.52 L238.173 1552.52  Z" fill="#f7fbf5" fill-rule="evenodd" fill-opacity="1"/>
<polyline clip-path="url(#clip822)" style="stroke:#000000; stroke-linecap:round; stroke-linejoin:round; stroke-width:4; stroke-opacity:1; fill:none" points="238.173,1552.52 238.173,1552.76 270.234,1552.76 270.234,1552.52 238.173,1552.52 "/>
<path clip-path="url(#clip822)" d="M270.234 1552.1 L270.234 1552.76 L302.295 1552.76 L302.295 1552.1 L270.234 1552.1 L270.234 1552.1  Z" fill="#f7fbf4" fill-rule="evenodd" fill-opacity="1"/>
<polyline clip-path="url(#clip822)" style="stroke:#000000; stroke-linecap:round; stroke-linejoin:round; stroke-width:4; stroke-opacity:1; fill:none" points="270.234,1552.1 270.234,1552.76 302.295,1552.76 302.295,1552.1 270.234,1552.1 "/>
<path clip-path="url(#clip822)" d="M302.295 1550.88 L302.295 1552.76 L334.356 1552.76 L334.356 1550.88 L302.295 1550.88 L302.295 1550.88  Z" fill="#f6fbf4" fill-rule="evenodd" fill-opacity="1"/>
<polyline clip-path="url(#clip822)" style="stroke:#000000; stroke-linecap:round; stroke-linejoin:round; stroke-width:4; stroke-opacity:1; fill:none" points="302.295,1550.88 302.295,1552.76 334.356,1552.76 334.356,1550.88 302.295,1550.88 "/>
<path clip-path="url(#clip822)" d="M334.356 1547.81 L334.356 1552.76 L366.417 1552.76 L366.417 1547.81 L334.356 1547.81 L334.356 1547.81  Z" fill="#f6fbf4" fill-rule="evenodd" fill-opacity="1"/>
<polyline clip-path="url(#clip822)" style="stroke:#000000; stroke-linecap:round; stroke-linejoin:round; stroke-width:4; stroke-opacity:1; fill:none" points="334.356,1547.81 334.356,1552.76 366.417,1552.76 366.417,1547.81 334.356,1547.81 "/>
<path clip-path="url(#clip822)" d="M366.417 1540.79 L366.417 1552.76 L398.478 1552.76 L398.478 1540.79 L366.417 1540.79 L366.417 1540.79  Z" fill="#f5fbf3" fill-rule="evenodd" fill-opacity="1"/>
<polyline clip-path="url(#clip822)" style="stroke:#000000; stroke-linecap:round; stroke-linejoin:round; stroke-width:4; stroke-opacity:1; fill:none" points="366.417,1540.79 366.417,1552.76 398.478,1552.76 398.478,1540.79 366.417,1540.79 "/>
<path clip-path="url(#clip822)" d="M398.478 1526.15 L398.478 1552.76 L430.539 1552.76 L430.539 1526.15 L398.478 1526.15 L398.478 1526.15  Z" fill="#f4faf2" fill-rule="evenodd" fill-opacity="1"/>
<polyline clip-path="url(#clip822)" style="stroke:#000000; stroke-linecap:round; stroke-linejoin:round; stroke-width:4; stroke-opacity:1; fill:none" points="398.478,1526.15 398.478,1552.76 430.539,1552.76 430.539,1526.15 398.478,1526.15 "/>
<path clip-path="url(#clip822)" d="M430.539 1498.37 L430.539 1552.76 L462.599 1552.76 L462.599 1498.37 L430.539 1498.37 L430.539 1498.37  Z" fill="#f1f9ee" fill-rule="evenodd" fill-opacity="1"/>
<polyline clip-path="url(#clip822)" style="stroke:#000000; stroke-linecap:round; stroke-linejoin:round; stroke-width:4; stroke-opacity:1; fill:none" points="430.539,1498.37 430.539,1552.76 462.599,1552.76 462.599,1498.37 430.539,1498.37 "/>
<path clip-path="url(#clip822)" d="M462.599 1450.41 L462.599 1552.76 L494.66 1552.76 L494.66 1450.41 L462.599 1450.41 L462.599 1450.41  Z" fill="#edf8e9" fill-rule="evenodd" fill-opacity="1"/>
<polyline clip-path="url(#clip822)" style="stroke:#000000; stroke-linecap:round; stroke-linejoin:round; stroke-width:4; stroke-opacity:1; fill:none" points="462.599,1450.41 462.599,1552.76 494.66,1552.76 494.66,1450.41 462.599,1450.41 "/>
<path clip-path="url(#clip822)" d="M494.66 1375.15 L494.66 1552.76 L526.721 1552.76 L526.721 1375.15 L494.66 1375.15 L494.66 1375.15  Z" fill="#e6f5e1" fill-rule="evenodd" fill-opacity="1"/>
<polyline clip-path="url(#clip822)" style="stroke:#000000; stroke-linecap:round; stroke-linejoin:round; stroke-width:4; stroke-opacity:1; fill:none" points="494.66,1375.15 494.66,1552.76 526.721,1552.76 526.721,1375.15 494.66,1375.15 "/>
<path clip-path="url(#clip822)" d="M526.721 1267.86 L526.721 1552.76 L558.782 1552.76 L558.782 1267.86 L526.721 1267.86 L526.721 1267.86  Z" fill="#d5eecf" fill-rule="evenodd" fill-opacity="1"/>
<polyline clip-path="url(#clip822)" style="stroke:#000000; stroke-linecap:round; stroke-linejoin:round; stroke-width:4; stroke-opacity:1; fill:none" points="526.721,1267.86 526.721,1552.76 558.782,1552.76 558.782,1267.86 526.721,1267.86 "/>
<path clip-path="url(#clip822)" d="M558.782 1129.13 L558.782 1552.76 L590.843 1552.76 L590.843 1129.13 L558.782 1129.13 L558.782 1129.13  Z" fill="#bde5b6" fill-rule="evenodd" fill-opacity="1"/>
<polyline clip-path="url(#clip822)" style="stroke:#000000; stroke-linecap:round; stroke-linejoin:round; stroke-width:4; stroke-opacity:1; fill:none" points="558.782,1129.13 558.782,1552.76 590.843,1552.76 590.843,1129.13 558.782,1129.13 "/>
<path clip-path="url(#clip822)" d="M590.843 966.647 L590.843 1552.76 L622.904 1552.76 L622.904 966.647 L590.843 966.647 L590.843 966.647  Z" fill="#9bd696" fill-rule="evenodd" fill-opacity="1"/>
<polyline clip-path="url(#clip822)" style="stroke:#000000; stroke-linecap:round; stroke-linejoin:round; stroke-width:4; stroke-opacity:1; fill:none" points="590.843,966.647 590.843,1552.76 622.904,1552.76 622.904,966.647 590.843,966.647 "/>
<path clip-path="url(#clip822)" d="M622.904 794.671 L622.904 1552.76 L654.965 1552.76 L654.965 794.671 L622.904 794.671 L622.904 794.671  Z" fill="#72c375" fill-rule="evenodd" fill-opacity="1"/>
<polyline clip-path="url(#clip822)" style="stroke:#000000; stroke-linecap:round; stroke-linejoin:round; stroke-width:4; stroke-opacity:1; fill:none" points="622.904,794.671 622.904,1552.76 654.965,1552.76 654.965,794.671 622.904,794.671 "/>
<path clip-path="url(#clip822)" d="M654.965 630.508 L654.965 1552.76 L687.026 1552.76 L687.026 630.508 L654.965 630.508 L654.965 630.508  Z" fill="#46ad5f" fill-rule="evenodd" fill-opacity="1"/>
<polyline clip-path="url(#clip822)" style="stroke:#000000; stroke-linecap:round; stroke-linejoin:round; stroke-width:4; stroke-opacity:1; fill:none" points="654.965,630.508 654.965,1552.76 687.026,1552.76 687.026,630.508 654.965,630.508 "/>
<path clip-path="url(#clip822)" d="M687.026 489.238 L687.026 1552.76 L719.087 1552.76 L719.087 489.238 L687.026 489.238 L687.026 489.238  Z" fill="#2d964d" fill-rule="evenodd" fill-opacity="1"/>
<polyline clip-path="url(#clip822)" style="stroke:#000000; stroke-linecap:round; stroke-linejoin:round; stroke-width:4; stroke-opacity:1; fill:none" points="687.026,489.238 687.026,1552.76 719.087,1552.76 719.087,489.238 687.026,489.238 "/>
<path clip-path="url(#clip822)" d="M719.087 378.851 L719.087 1552.76 L751.147 1552.76 L751.147 378.851 L719.087 378.851 L719.087 378.851  Z" fill="#1a833f" fill-rule="evenodd" fill-opacity="1"/>
<polyline clip-path="url(#clip822)" style="stroke:#000000; stroke-linecap:round; stroke-linejoin:round; stroke-width:4; stroke-opacity:1; fill:none" points="719.087,378.851 719.087,1552.76 751.147,1552.76 751.147,378.851 719.087,378.851 "/>
<path clip-path="url(#clip822)" d="M751.147 298.087 L751.147 1552.76 L783.208 1552.76 L783.208 298.087 L751.147 298.087 L751.147 298.087  Z" fill="#0b7634" fill-rule="evenodd" fill-opacity="1"/>
<polyline clip-path="url(#clip822)" style="stroke:#000000; stroke-linecap:round; stroke-linejoin:round; stroke-width:4; stroke-opacity:1; fill:none" points="751.147,298.087 751.147,1552.76 783.208,1552.76 783.208,298.087 751.147,298.087 "/>
<path clip-path="url(#clip822)" d="M783.208 238.087 L783.208 1552.76 L815.269 1552.76 L815.269 238.087 L783.208 238.087 L783.208 238.087  Z" fill="#006d2c" fill-rule="evenodd" fill-opacity="1"/>
<polyline clip-path="url(#clip822)" style="stroke:#000000; stroke-linecap:round; stroke-linejoin:round; stroke-width:4; stroke-opacity:1; fill:none" points="783.208,238.087 783.208,1552.76 815.269,1552.76 815.269,238.087 783.208,238.087 "/>
<path clip-path="url(#clip822)" d="M815.269 187.306 L815.269 1552.76 L847.33 1552.76 L847.33 187.306 L815.269 187.306 L815.269 187.306  Z" fill="#006227" fill-rule="evenodd" fill-opacity="1"/>
<polyline clip-path="url(#clip822)" style="stroke:#000000; stroke-linecap:round; stroke-linejoin:round; stroke-width:4; stroke-opacity:1; fill:none" points="815.269,187.306 815.269,1552.76 847.33,1552.76 847.33,187.306 815.269,187.306 "/>
<path clip-path="url(#clip822)" d="M847.33 137.752 L847.33 1552.76 L879.391 1552.76 L879.391 137.752 L847.33 137.752 L847.33 137.752  Z" fill="#005723" fill-rule="evenodd" fill-opacity="1"/>
<polyline clip-path="url(#clip822)" style="stroke:#000000; stroke-linecap:round; stroke-linejoin:round; stroke-width:4; stroke-opacity:1; fill:none" points="847.33,137.752 847.33,1552.76 879.391,1552.76 879.391,137.752 847.33,137.752 "/>
<path clip-path="url(#clip822)" d="M879.391 89.938 L879.391 1552.76 L911.452 1552.76 L911.452 89.938 L879.391 89.938 L879.391 89.938  Z" fill="#004d1e" fill-rule="evenodd" fill-opacity="1"/>
<polyline clip-path="url(#clip822)" style="stroke:#000000; stroke-linecap:round; stroke-linejoin:round; stroke-width:4; stroke-opacity:1; fill:none" points="879.391,89.938 879.391,1552.76 911.452,1552.76 911.452,89.938 879.391,89.938 "/>
<path clip-path="url(#clip822)" d="M911.452 54.1986 L911.452 1552.76 L943.513 1552.76 L943.513 54.1986 L911.452 54.1986 L911.452 54.1986  Z" fill="#00451b" fill-rule="evenodd" fill-opacity="1"/>
<polyline clip-path="url(#clip822)" style="stroke:#000000; stroke-linecap:round; stroke-linejoin:round; stroke-width:4; stroke-opacity:1; fill:none" points="911.452,54.1986 911.452,1552.76 943.513,1552.76 943.513,54.1986 911.452,54.1986 "/>
<path clip-path="url(#clip822)" d="M943.513 47.2441 L943.513 1552.76 L975.574 1552.76 L975.574 47.2441 L943.513 47.2441 L943.513 47.2441  Z" fill="#00441b" fill-rule="evenodd" fill-opacity="1"/>
<polyline clip-path="url(#clip822)" style="stroke:#000000; stroke-linecap:round; stroke-linejoin:round; stroke-width:4; stroke-opacity:1; fill:none" points="943.513,47.2441 943.513,1552.76 975.574,1552.76 975.574,47.2441 943.513,47.2441 "/>
<path clip-path="url(#clip822)" d="M975.574 84.9739 L975.574 1552.76 L1007.63 1552.76 L1007.63 84.9739 L975.574 84.9739 L975.574 84.9739  Z" fill="#004c1e" fill-rule="evenodd" fill-opacity="1"/>
<polyline clip-path="url(#clip822)" style="stroke:#000000; stroke-linecap:round; stroke-linejoin:round; stroke-width:4; stroke-opacity:1; fill:none" points="975.574,84.9739 975.574,1552.76 1007.63,1552.76 1007.63,84.9739 975.574,84.9739 "/>
<path clip-path="url(#clip822)" d="M1007.63 174.661 L1007.63 1552.76 L1039.7 1552.76 L1039.7 174.661 L1007.63 174.661 L1007.63 174.661  Z" fill="#005f26" fill-rule="evenodd" fill-opacity="1"/>
<polyline clip-path="url(#clip822)" style="stroke:#000000; stroke-linecap:round; stroke-linejoin:round; stroke-width:4; stroke-opacity:1; fill:none" points="1007.63,174.661 1007.63,1552.76 1039.7,1552.76 1039.7,174.661 1007.63,174.661 "/>
<path clip-path="url(#clip822)" d="M1039.7 310.435 L1039.7 1552.76 L1071.76 1552.76 L1071.76 310.435 L1039.7 310.435 L1039.7 310.435  Z" fill="#0d7836" fill-rule="evenodd" fill-opacity="1"/>
<polyline clip-path="url(#clip822)" style="stroke:#000000; stroke-linecap:round; stroke-linejoin:round; stroke-width:4; stroke-opacity:1; fill:none" points="1039.7,310.435 1039.7,1552.76 1071.76,1552.76 1071.76,310.435 1039.7,310.435 "/>
<path clip-path="url(#clip822)" d="M1071.76 474.554 L1071.76 1552.76 L1103.82 1552.76 L1103.82 474.554 L1071.76 474.554 L1071.76 474.554  Z" fill="#2b934b" fill-rule="evenodd" fill-opacity="1"/>
<polyline clip-path="url(#clip822)" style="stroke:#000000; stroke-linecap:round; stroke-linejoin:round; stroke-width:4; stroke-opacity:1; fill:none" points="1071.76,474.554 1071.76,1552.76 1103.82,1552.76 1103.82,474.554 1071.76,474.554 "/>
<path clip-path="url(#clip822)" d="M1103.82 643.901 L1103.82 1552.76 L1135.88 1552.76 L1135.88 643.901 L1103.82 643.901 L1103.82 643.901  Z" fill="#49af61" fill-rule="evenodd" fill-opacity="1"/>
<polyline clip-path="url(#clip822)" style="stroke:#000000; stroke-linecap:round; stroke-linejoin:round; stroke-width:4; stroke-opacity:1; fill:none" points="1103.82,643.901 1103.82,1552.76 1135.88,1552.76 1135.88,643.901 1103.82,643.901 "/>
<path clip-path="url(#clip822)" d="M1135.88 798.266 L1135.88 1552.76 L1167.94 1552.76 L1167.94 798.266 L1135.88 798.266 L1135.88 798.266  Z" fill="#73c375" fill-rule="evenodd" fill-opacity="1"/>
<polyline clip-path="url(#clip822)" style="stroke:#000000; stroke-linecap:round; stroke-linejoin:round; stroke-width:4; stroke-opacity:1; fill:none" points="1135.88,798.266 1135.88,1552.76 1167.94,1552.76 1167.94,798.266 1135.88,798.266 "/>
<path clip-path="url(#clip822)" d="M1167.94 926.218 L1167.94 1552.76 L1200 1552.76 L1200 926.218 L1167.94 926.218 L1167.94 926.218  Z" fill="#92d28e" fill-rule="evenodd" fill-opacity="1"/>
<polyline clip-path="url(#clip822)" style="stroke:#000000; stroke-linecap:round; stroke-linejoin:round; stroke-width:4; stroke-opacity:1; fill:none" points="1167.94,926.218 1167.94,1552.76 1200,1552.76 1200,926.218 1167.94,926.218 "/>
<path clip-path="url(#clip822)" d="M1200 1026.06 L1200 1552.76 L1232.06 1552.76 L1232.06 1026.06 L1200 1026.06 L1200 1026.06  Z" fill="#a8dca2" fill-rule="evenodd" fill-opacity="1"/>
<polyline clip-path="url(#clip822)" style="stroke:#000000; stroke-linecap:round; stroke-linejoin:round; stroke-width:4; stroke-opacity:1; fill:none" points="1200,1026.06 1200,1552.76 1232.06,1552.76 1232.06,1026.06 1200,1026.06 "/>
<path clip-path="url(#clip822)" d="M1232.06 1102.34 L1232.06 1552.76 L1264.12 1552.76 L1264.12 1102.34 L1232.06 1102.34 L1232.06 1102.34  Z" fill="#b7e2b1" fill-rule="evenodd" fill-opacity="1"/>
<polyline clip-path="url(#clip822)" style="stroke:#000000; stroke-linecap:round; stroke-linejoin:round; stroke-width:4; stroke-opacity:1; fill:none" points="1232.06,1102.34 1232.06,1552.76 1264.12,1552.76 1264.12,1102.34 1232.06,1102.34 "/>
<path clip-path="url(#clip822)" d="M1264.12 1160.51 L1264.12 1552.76 L1296.18 1552.76 L1296.18 1160.51 L1264.12 1160.51 L1264.12 1160.51  Z" fill="#c3e7bc" fill-rule="evenodd" fill-opacity="1"/>
<polyline clip-path="url(#clip822)" style="stroke:#000000; stroke-linecap:round; stroke-linejoin:round; stroke-width:4; stroke-opacity:1; fill:none" points="1264.12,1160.51 1264.12,1552.76 1296.18,1552.76 1296.18,1160.51 1264.12,1160.51 "/>
<path clip-path="url(#clip822)" d="M1296.18 1202.94 L1296.18 1552.76 L1328.24 1552.76 L1328.24 1202.94 L1296.18 1202.94 L1296.18 1202.94  Z" fill="#cbeac4" fill-rule="evenodd" fill-opacity="1"/>
<polyline clip-path="url(#clip822)" style="stroke:#000000; stroke-linecap:round; stroke-linejoin:round; stroke-width:4; stroke-opacity:1; fill:none" points="1296.18,1202.94 1296.18,1552.76 1328.24,1552.76 1328.24,1202.94 1296.18,1202.94 "/>
<path clip-path="url(#clip822)" d="M1328.24 1227.97 L1328.24 1552.76 L1360.3 1552.76 L1360.3 1227.97 L1328.24 1227.97 L1328.24 1227.97  Z" fill="#cfecc8" fill-rule="evenodd" fill-opacity="1"/>
<polyline clip-path="url(#clip822)" style="stroke:#000000; stroke-linecap:round; stroke-linejoin:round; stroke-width:4; stroke-opacity:1; fill:none" points="1328.24,1227.97 1328.24,1552.76 1360.3,1552.76 1360.3,1227.97 1328.24,1227.97 "/>
<path clip-path="url(#clip822)" d="M1360.3 1231.94 L1360.3 1552.76 L1392.37 1552.76 L1392.37 1231.94 L1360.3 1231.94 L1360.3 1231.94  Z" fill="#cfecc9" fill-rule="evenodd" fill-opacity="1"/>
<polyline clip-path="url(#clip822)" style="stroke:#000000; stroke-linecap:round; stroke-linejoin:round; stroke-width:4; stroke-opacity:1; fill:none" points="1360.3,1231.94 1360.3,1552.76 1392.37,1552.76 1392.37,1231.94 1360.3,1231.94 "/>
<path clip-path="url(#clip822)" d="M1392.37 1212.81 L1392.37 1552.76 L1424.43 1552.76 L1424.43 1212.81 L1392.37 1212.81 L1392.37 1212.81  Z" fill="#ccebc6" fill-rule="evenodd" fill-opacity="1"/>
<polyline clip-path="url(#clip822)" style="stroke:#000000; stroke-linecap:round; stroke-linejoin:round; stroke-width:4; stroke-opacity:1; fill:none" points="1392.37,1212.81 1392.37,1552.76 1424.43,1552.76 1424.43,1212.81 1392.37,1212.81 "/>
<path clip-path="url(#clip822)" d="M1424.43 1173.36 L1424.43 1552.76 L1456.49 1552.76 L1456.49 1173.36 L1424.43 1173.36 L1424.43 1173.36  Z" fill="#c6e8bf" fill-rule="evenodd" fill-opacity="1"/>
<polyline clip-path="url(#clip822)" style="stroke:#000000; stroke-linecap:round; stroke-linejoin:round; stroke-width:4; stroke-opacity:1; fill:none" points="1424.43,1173.36 1424.43,1552.76 1456.49,1552.76 1456.49,1173.36 1424.43,1173.36 "/>
<path clip-path="url(#clip822)" d="M1456.49 1122.46 L1456.49 1552.76 L1488.55 1552.76 L1488.55 1122.46 L1456.49 1122.46 L1456.49 1122.46  Z" fill="#bce4b5" fill-rule="evenodd" fill-opacity="1"/>
<polyline clip-path="url(#clip822)" style="stroke:#000000; stroke-linecap:round; stroke-linejoin:round; stroke-width:4; stroke-opacity:1; fill:none" points="1456.49,1122.46 1456.49,1552.76 1488.55,1552.76 1488.55,1122.46 1456.49,1122.46 "/>
<path clip-path="url(#clip822)" d="M1488.55 1073.78 L1488.55 1552.76 L1520.61 1552.76 L1520.61 1073.78 L1488.55 1073.78 L1488.55 1073.78  Z" fill="#b2e0ab" fill-rule="evenodd" fill-opacity="1"/>
<polyline clip-path="url(#clip822)" style="stroke:#000000; stroke-linecap:round; stroke-linejoin:round; stroke-width:4; stroke-opacity:1; fill:none" points="1488.55,1073.78 1488.55,1552.76 1520.61,1552.76 1520.61,1073.78 1488.55,1073.78 "/>
<path clip-path="url(#clip822)" d="M1520.61 1042.23 L1520.61 1552.76 L1552.67 1552.76 L1552.67 1042.23 L1520.61 1042.23 L1520.61 1042.23  Z" fill="#abdda5" fill-rule="evenodd" fill-opacity="1"/>
<polyline clip-path="url(#clip822)" style="stroke:#000000; stroke-linecap:round; stroke-linejoin:round; stroke-width:4; stroke-opacity:1; fill:none" points="1520.61,1042.23 1520.61,1552.76 1552.67,1552.76 1552.67,1042.23 1520.61,1042.23 "/>
<path clip-path="url(#clip822)" d="M1552.67 1039.46 L1552.67 1552.76 L1584.73 1552.76 L1584.73 1039.46 L1552.67 1039.46 L1552.67 1039.46  Z" fill="#abdda5" fill-rule="evenodd" fill-opacity="1"/>
<polyline clip-path="url(#clip822)" style="stroke:#000000; stroke-linecap:round; stroke-linejoin:round; stroke-width:4; stroke-opacity:1; fill:none" points="1552.67,1039.46 1552.67,1552.76 1584.73,1552.76 1584.73,1039.46 1552.67,1039.46 "/>
<path clip-path="url(#clip822)" d="M1584.73 1070.09 L1584.73 1552.76 L1616.79 1552.76 L1616.79 1070.09 L1584.73 1070.09 L1584.73 1070.09  Z" fill="#b1dfab" fill-rule="evenodd" fill-opacity="1"/>
<polyline clip-path="url(#clip822)" style="stroke:#000000; stroke-linecap:round; stroke-linejoin:round; stroke-width:4; stroke-opacity:1; fill:none" points="1584.73,1070.09 1584.73,1552.76 1616.79,1552.76 1616.79,1070.09 1584.73,1070.09 "/>
<path clip-path="url(#clip822)" d="M1616.79 1130.42 L1616.79 1552.76 L1648.85 1552.76 L1648.85 1130.42 L1616.79 1130.42 L1616.79 1130.42  Z" fill="#bde5b6" fill-rule="evenodd" fill-opacity="1"/>
<polyline clip-path="url(#clip822)" style="stroke:#000000; stroke-linecap:round; stroke-linejoin:round; stroke-width:4; stroke-opacity:1; fill:none" points="1616.79,1130.42 1616.79,1552.76 1648.85,1552.76 1648.85,1130.42 1616.79,1130.42 "/>
<path clip-path="url(#clip822)" d="M1648.85 1209.97 L1648.85 1552.76 L1680.91 1552.76 L1680.91 1209.97 L1648.85 1209.97 L1648.85 1209.97  Z" fill="#ccebc5" fill-rule="evenodd" fill-opacity="1"/>
<polyline clip-path="url(#clip822)" style="stroke:#000000; stroke-linecap:round; stroke-linejoin:round; stroke-width:4; stroke-opacity:1; fill:none" points="1648.85,1209.97 1648.85,1552.76 1680.91,1552.76 1680.91,1209.97 1648.85,1209.97 "/>
<path clip-path="url(#clip822)" d="M1680.91 1295.27 L1680.91 1552.76 L1712.97 1552.76 L1712.97 1295.27 L1680.91 1295.27 L1680.91 1295.27  Z" fill="#d9f0d4" fill-rule="evenodd" fill-opacity="1"/>
<polyline clip-path="url(#clip822)" style="stroke:#000000; stroke-linecap:round; stroke-linejoin:round; stroke-width:4; stroke-opacity:1; fill:none" points="1680.91,1295.27 1680.91,1552.76 1712.97,1552.76 1712.97,1295.27 1680.91,1295.27 "/>
<path clip-path="url(#clip822)" d="M1712.97 1374.08 L1712.97 1552.76 L1745.04 1552.76 L1745.04 1374.08 L1712.97 1374.08 L1712.97 1374.08  Z" fill="#e5f5e0" fill-rule="evenodd" fill-opacity="1"/>
<polyline clip-path="url(#clip822)" style="stroke:#000000; stroke-linecap:round; stroke-linejoin:round; stroke-width:4; stroke-opacity:1; fill:none" points="1712.97,1374.08 1712.97,1552.76 1745.04,1552.76 1745.04,1374.08 1712.97,1374.08 "/>
<path clip-path="url(#clip822)" d="M1745.04 1438.38 L1745.04 1552.76 L1777.1 1552.76 L1777.1 1438.38 L1745.04 1438.38 L1745.04 1438.38  Z" fill="#ecf7e8" fill-rule="evenodd" fill-opacity="1"/>
<polyline clip-path="url(#clip822)" style="stroke:#000000; stroke-linecap:round; stroke-linejoin:round; stroke-width:4; stroke-opacity:1; fill:none" points="1745.04,1438.38 1745.04,1552.76 1777.1,1552.76 1777.1,1438.38 1745.04,1438.38 "/>
<path clip-path="url(#clip822)" d="M1777.1 1485.3 L1777.1 1552.76 L1809.16 1552.76 L1809.16 1485.3 L1777.1 1485.3 L1777.1 1485.3  Z" fill="#f0f9ed" fill-rule="evenodd" fill-opacity="1"/>
<polyline clip-path="url(#clip822)" style="stroke:#000000; stroke-linecap:round; stroke-linejoin:round; stroke-width:4; stroke-opacity:1; fill:none" points="1777.1,1485.3 1777.1,1552.76 1809.16,1552.76 1809.16,1485.3 1777.1,1485.3 "/>
<path clip-path="url(#clip822)" d="M1809.16 1516.15 L1809.16 1552.76 L1841.22 1552.76 L1841.22 1516.15 L1809.16 1516.15 L1809.16 1516.15  Z" fill="#f3faf0" fill-rule="evenodd" fill-opacity="1"/>
<polyline clip-path="url(#clip822)" style="stroke:#000000; stroke-linecap:round; stroke-linejoin:round; stroke-width:4; stroke-opacity:1; fill:none" points="1809.16,1516.15 1809.16,1552.76 1841.22,1552.76 1841.22,1516.15 1809.16,1516.15 "/>
<path clip-path="url(#clip822)" d="M1841.22 1534.49 L1841.22 1552.76 L1873.28 1552.76 L1873.28 1534.49 L1841.22 1534.49 L1841.22 1534.49  Z" fill="#f5fbf3" fill-rule="evenodd" fill-opacity="1"/>
<polyline clip-path="url(#clip822)" style="stroke:#000000; stroke-linecap:round; stroke-linejoin:round; stroke-width:4; stroke-opacity:1; fill:none" points="1841.22,1534.49 1841.22,1552.76 1873.28,1552.76 1873.28,1534.49 1841.22,1534.49 "/>
<path clip-path="url(#clip822)" d="M1873.28 1544.39 L1873.28 1552.76 L1905.34 1552.76 L1905.34 1544.39 L1873.28 1544.39 L1873.28 1544.39  Z" fill="#f6fbf4" fill-rule="evenodd" fill-opacity="1"/>
<polyline clip-path="url(#clip822)" style="stroke:#000000; stroke-linecap:round; stroke-linejoin:round; stroke-width:4; stroke-opacity:1; fill:none" points="1873.28,1544.39 1873.28,1552.76 1905.34,1552.76 1905.34,1544.39 1873.28,1544.39 "/>
<path clip-path="url(#clip822)" d="M1905.34 1549.24 L1905.34 1552.76 L1937.4 1552.76 L1937.4 1549.24 L1905.34 1549.24 L1905.34 1549.24  Z" fill="#f6fbf4" fill-rule="evenodd" fill-opacity="1"/>
<polyline clip-path="url(#clip822)" style="stroke:#000000; stroke-linecap:round; stroke-linejoin:round; stroke-width:4; stroke-opacity:1; fill:none" points="1905.34,1549.24 1905.34,1552.76 1937.4,1552.76 1937.4,1549.24 1905.34,1549.24 "/>
<path clip-path="url(#clip822)" d="M1937.4 1551.4 L1937.4 1552.76 L1969.46 1552.76 L1969.46 1551.4 L1937.4 1551.4 L1937.4 1551.4  Z" fill="#f6fbf4" fill-rule="evenodd" fill-opacity="1"/>
<polyline clip-path="url(#clip822)" style="stroke:#000000; stroke-linecap:round; stroke-linejoin:round; stroke-width:4; stroke-opacity:1; fill:none" points="1937.4,1551.4 1937.4,1552.76 1969.46,1552.76 1969.46,1551.4 1937.4,1551.4 "/>
<path clip-path="url(#clip822)" d="M1969.46 1552.27 L1969.46 1552.76 L2001.52 1552.76 L2001.52 1552.27 L1969.46 1552.27 L1969.46 1552.27  Z" fill="#f7fbf5" fill-rule="evenodd" fill-opacity="1"/>
<polyline clip-path="url(#clip822)" style="stroke:#000000; stroke-linecap:round; stroke-linejoin:round; stroke-width:4; stroke-opacity:1; fill:none" points="1969.46,1552.27 1969.46,1552.76 2001.52,1552.76 2001.52,1552.27 1969.46,1552.27 "/>
<path clip-path="url(#clip822)" d="M2001.52 1552.56 L2001.52 1552.76 L2033.58 1552.76 L2033.58 1552.56 L2001.52 1552.56 L2001.52 1552.56  Z" fill="#f7fbf5" fill-rule="evenodd" fill-opacity="1"/>
<polyline clip-path="url(#clip822)" style="stroke:#000000; stroke-linecap:round; stroke-linejoin:round; stroke-width:4; stroke-opacity:1; fill:none" points="2001.52,1552.56 2001.52,1552.76 2033.58,1552.76 2033.58,1552.56 2001.52,1552.56 "/>
<path clip-path="url(#clip822)" d="M2033.58 1552.76 L2033.58 1552.76 L2065.64 1552.76 L2065.64 1552.76 L2033.58 1552.76 L2033.58 1552.76  Z" fill="#f7fbf5" fill-rule="evenodd" fill-opacity="1"/>
<polyline clip-path="url(#clip822)" style="stroke:#000000; stroke-linecap:round; stroke-linejoin:round; stroke-width:4; stroke-opacity:1; fill:none" points="2033.58,1552.76 2033.58,1552.76 2065.64,1552.76 2033.58,1552.76 "/>
<path clip-path="url(#clip822)" d="M2065.64 1552.76 L2065.64 1552.76 L2097.71 1552.76 L2097.71 1552.76 L2065.64 1552.76 L2065.64 1552.76  Z" fill="#f7fbf5" fill-rule="evenodd" fill-opacity="1"/>
<polyline clip-path="url(#clip822)" style="stroke:#000000; stroke-linecap:round; stroke-linejoin:round; stroke-width:4; stroke-opacity:1; fill:none" points="2065.64,1552.76 2065.64,1552.76 2097.71,1552.76 2065.64,1552.76 "/>
<path clip-path="url(#clip822)" d="M2097.71 1552.76 L2097.71 1552.76 L2129.77 1552.76 L2129.77 1552.76 L2097.71 1552.76 L2097.71 1552.76  Z" fill="#f7fbf5" fill-rule="evenodd" fill-opacity="1"/>
<polyline clip-path="url(#clip822)" style="stroke:#000000; stroke-linecap:round; stroke-linejoin:round; stroke-width:4; stroke-opacity:1; fill:none" points="2097.71,1552.76 2097.71,1552.76 2129.77,1552.76 2097.71,1552.76 "/>
<path clip-path="url(#clip822)" d="M2129.77 1552.76 L2129.77 1552.76 L2161.83 1552.76 L2161.83 1552.76 L2129.77 1552.76 L2129.77 1552.76  Z" fill="#f7fbf5" fill-rule="evenodd" fill-opacity="1"/>
<polyline clip-path="url(#clip822)" style="stroke:#000000; stroke-linecap:round; stroke-linejoin:round; stroke-width:4; stroke-opacity:1; fill:none" points="2129.77,1552.76 2129.77,1552.76 2161.83,1552.76 2129.77,1552.76 "/>
<path clip-path="url(#clip822)" d="M2161.83 1552.76 L2161.83 1552.76 L2193.89 1552.76 L2193.89 1552.76 L2161.83 1552.76 L2161.83 1552.76  Z" fill="#f7fbf5" fill-rule="evenodd" fill-opacity="1"/>
<polyline clip-path="url(#clip822)" style="stroke:#000000; stroke-linecap:round; stroke-linejoin:round; stroke-width:4; stroke-opacity:1; fill:none" points="2161.83,1552.76 2161.83,1552.76 2193.89,1552.76 2161.83,1552.76 "/>
<path clip-path="url(#clip822)" d="M2193.89 1552.76 L2193.89 1552.76 L2225.95 1552.76 L2225.95 1552.76 L2193.89 1552.76 L2193.89 1552.76  Z" fill="#f7fbf5" fill-rule="evenodd" fill-opacity="1"/>
<polyline clip-path="url(#clip822)" style="stroke:#000000; stroke-linecap:round; stroke-linejoin:round; stroke-width:4; stroke-opacity:1; fill:none" points="2193.89,1552.76 2193.89,1552.76 2225.95,1552.76 2193.89,1552.76 "/>
<circle clip-path="url(#clip822)" style="fill:#f7fbf5; stroke:none; fill-opacity:0" cx="190.082" cy="1552.76" r="2"/>
<circle clip-path="url(#clip822)" style="fill:#f7fbf5; stroke:none; fill-opacity:0" cx="222.143" cy="1552.76" r="2"/>
<circle clip-path="url(#clip822)" style="fill:#f7fbf5; stroke:none; fill-opacity:0" cx="254.204" cy="1552.52" r="2"/>
<circle clip-path="url(#clip822)" style="fill:#f7fbf5; stroke:none; fill-opacity:0" cx="286.264" cy="1552.1" r="2"/>
<circle clip-path="url(#clip822)" style="fill:#f7fbf5; stroke:none; fill-opacity:0" cx="318.325" cy="1550.88" r="2"/>
<circle clip-path="url(#clip822)" style="fill:#f7fbf5; stroke:none; fill-opacity:0" cx="350.386" cy="1547.81" r="2"/>
<circle clip-path="url(#clip822)" style="fill:#f7fbf5; stroke:none; fill-opacity:0" cx="382.447" cy="1540.79" r="2"/>
<circle clip-path="url(#clip822)" style="fill:#f7fbf5; stroke:none; fill-opacity:0" cx="414.508" cy="1526.15" r="2"/>
<circle clip-path="url(#clip822)" style="fill:#f7fbf5; stroke:none; fill-opacity:0" cx="446.569" cy="1498.37" r="2"/>
<circle clip-path="url(#clip822)" style="fill:#f7fbf5; stroke:none; fill-opacity:0" cx="478.63" cy="1450.41" r="2"/>
<circle clip-path="url(#clip822)" style="fill:#f7fbf5; stroke:none; fill-opacity:0" cx="510.691" cy="1375.15" r="2"/>
<circle clip-path="url(#clip822)" style="fill:#f7fbf5; stroke:none; fill-opacity:0" cx="542.752" cy="1267.86" r="2"/>
<circle clip-path="url(#clip822)" style="fill:#f7fbf5; stroke:none; fill-opacity:0" cx="574.813" cy="1129.13" r="2"/>
<circle clip-path="url(#clip822)" style="fill:#f7fbf5; stroke:none; fill-opacity:0" cx="606.873" cy="966.647" r="2"/>
<circle clip-path="url(#clip822)" style="fill:#f7fbf5; stroke:none; fill-opacity:0" cx="638.934" cy="794.671" r="2"/>
<circle clip-path="url(#clip822)" style="fill:#f7fbf5; stroke:none; fill-opacity:0" cx="670.995" cy="630.508" r="2"/>
<circle clip-path="url(#clip822)" style="fill:#f7fbf5; stroke:none; fill-opacity:0" cx="703.056" cy="489.238" r="2"/>
<circle clip-path="url(#clip822)" style="fill:#f7fbf5; stroke:none; fill-opacity:0" cx="735.117" cy="378.851" r="2"/>
<circle clip-path="url(#clip822)" style="fill:#f7fbf5; stroke:none; fill-opacity:0" cx="767.178" cy="298.087" r="2"/>
<circle clip-path="url(#clip822)" style="fill:#f7fbf5; stroke:none; fill-opacity:0" cx="799.239" cy="238.087" r="2"/>
<circle clip-path="url(#clip822)" style="fill:#f7fbf5; stroke:none; fill-opacity:0" cx="831.3" cy="187.306" r="2"/>
<circle clip-path="url(#clip822)" style="fill:#f7fbf5; stroke:none; fill-opacity:0" cx="863.361" cy="137.752" r="2"/>
<circle clip-path="url(#clip822)" style="fill:#f7fbf5; stroke:none; fill-opacity:0" cx="895.421" cy="89.938" r="2"/>
<circle clip-path="url(#clip822)" style="fill:#f7fbf5; stroke:none; fill-opacity:0" cx="927.482" cy="54.1986" r="2"/>
<circle clip-path="url(#clip822)" style="fill:#f7fbf5; stroke:none; fill-opacity:0" cx="959.543" cy="47.2441" r="2"/>
<circle clip-path="url(#clip822)" style="fill:#f7fbf5; stroke:none; fill-opacity:0" cx="991.604" cy="84.9739" r="2"/>
<circle clip-path="url(#clip822)" style="fill:#f7fbf5; stroke:none; fill-opacity:0" cx="1023.67" cy="174.661" r="2"/>
<circle clip-path="url(#clip822)" style="fill:#f7fbf5; stroke:none; fill-opacity:0" cx="1055.73" cy="310.435" r="2"/>
<circle clip-path="url(#clip822)" style="fill:#f7fbf5; stroke:none; fill-opacity:0" cx="1087.79" cy="474.554" r="2"/>
<circle clip-path="url(#clip822)" style="fill:#f7fbf5; stroke:none; fill-opacity:0" cx="1119.85" cy="643.901" r="2"/>
<circle clip-path="url(#clip822)" style="fill:#f7fbf5; stroke:none; fill-opacity:0" cx="1151.91" cy="798.266" r="2"/>
<circle clip-path="url(#clip822)" style="fill:#f7fbf5; stroke:none; fill-opacity:0" cx="1183.97" cy="926.218" r="2"/>
<circle clip-path="url(#clip822)" style="fill:#f7fbf5; stroke:none; fill-opacity:0" cx="1216.03" cy="1026.06" r="2"/>
<circle clip-path="url(#clip822)" style="fill:#f7fbf5; stroke:none; fill-opacity:0" cx="1248.09" cy="1102.34" r="2"/>
<circle clip-path="url(#clip822)" style="fill:#f7fbf5; stroke:none; fill-opacity:0" cx="1280.15" cy="1160.51" r="2"/>
<circle clip-path="url(#clip822)" style="fill:#f7fbf5; stroke:none; fill-opacity:0" cx="1312.21" cy="1202.94" r="2"/>
<circle clip-path="url(#clip822)" style="fill:#f7fbf5; stroke:none; fill-opacity:0" cx="1344.27" cy="1227.97" r="2"/>
<circle clip-path="url(#clip822)" style="fill:#f7fbf5; stroke:none; fill-opacity:0" cx="1376.33" cy="1231.94" r="2"/>
<circle clip-path="url(#clip822)" style="fill:#f7fbf5; stroke:none; fill-opacity:0" cx="1408.4" cy="1212.81" r="2"/>
<circle clip-path="url(#clip822)" style="fill:#f7fbf5; stroke:none; fill-opacity:0" cx="1440.46" cy="1173.36" r="2"/>
<circle clip-path="url(#clip822)" style="fill:#f7fbf5; stroke:none; fill-opacity:0" cx="1472.52" cy="1122.46" r="2"/>
<circle clip-path="url(#clip822)" style="fill:#f7fbf5; stroke:none; fill-opacity:0" cx="1504.58" cy="1073.78" r="2"/>
<circle clip-path="url(#clip822)" style="fill:#f7fbf5; stroke:none; fill-opacity:0" cx="1536.64" cy="1042.23" r="2"/>
<circle clip-path="url(#clip822)" style="fill:#f7fbf5; stroke:none; fill-opacity:0" cx="1568.7" cy="1039.46" r="2"/>
<circle clip-path="url(#clip822)" style="fill:#f7fbf5; stroke:none; fill-opacity:0" cx="1600.76" cy="1070.09" r="2"/>
<circle clip-path="url(#clip822)" style="fill:#f7fbf5; stroke:none; fill-opacity:0" cx="1632.82" cy="1130.42" r="2"/>
<circle clip-path="url(#clip822)" style="fill:#f7fbf5; stroke:none; fill-opacity:0" cx="1664.88" cy="1209.97" r="2"/>
<circle clip-path="url(#clip822)" style="fill:#f7fbf5; stroke:none; fill-opacity:0" cx="1696.94" cy="1295.27" r="2"/>
<circle clip-path="url(#clip822)" style="fill:#f7fbf5; stroke:none; fill-opacity:0" cx="1729" cy="1374.08" r="2"/>
<circle clip-path="url(#clip822)" style="fill:#f7fbf5; stroke:none; fill-opacity:0" cx="1761.07" cy="1438.38" r="2"/>
<circle clip-path="url(#clip822)" style="fill:#f7fbf5; stroke:none; fill-opacity:0" cx="1793.13" cy="1485.3" r="2"/>
<circle clip-path="url(#clip822)" style="fill:#f7fbf5; stroke:none; fill-opacity:0" cx="1825.19" cy="1516.15" r="2"/>
<circle clip-path="url(#clip822)" style="fill:#f7fbf5; stroke:none; fill-opacity:0" cx="1857.25" cy="1534.49" r="2"/>
<circle clip-path="url(#clip822)" style="fill:#f7fbf5; stroke:none; fill-opacity:0" cx="1889.31" cy="1544.39" r="2"/>
<circle clip-path="url(#clip822)" style="fill:#f7fbf5; stroke:none; fill-opacity:0" cx="1921.37" cy="1549.24" r="2"/>
<circle clip-path="url(#clip822)" style="fill:#f7fbf5; stroke:none; fill-opacity:0" cx="1953.43" cy="1551.4" r="2"/>
<circle clip-path="url(#clip822)" style="fill:#f7fbf5; stroke:none; fill-opacity:0" cx="1985.49" cy="1552.27" r="2"/>
<circle clip-path="url(#clip822)" style="fill:#f7fbf5; stroke:none; fill-opacity:0" cx="2017.55" cy="1552.56" r="2"/>
<circle clip-path="url(#clip822)" style="fill:#f7fbf5; stroke:none; fill-opacity:0" cx="2049.61" cy="1552.76" r="2"/>
<circle clip-path="url(#clip822)" style="fill:#f7fbf5; stroke:none; fill-opacity:0" cx="2081.67" cy="1552.76" r="2"/>
<circle clip-path="url(#clip822)" style="fill:#f7fbf5; stroke:none; fill-opacity:0" cx="2113.74" cy="1552.76" r="2"/>
<circle clip-path="url(#clip822)" style="fill:#f7fbf5; stroke:none; fill-opacity:0" cx="2145.8" cy="1552.76" r="2"/>
<circle clip-path="url(#clip822)" style="fill:#f7fbf5; stroke:none; fill-opacity:0" cx="2177.86" cy="1552.76" r="2"/>
<circle clip-path="url(#clip822)" style="fill:#f7fbf5; stroke:none; fill-opacity:0" cx="2209.92" cy="1552.76" r="2"/>
</svg>
