<svg xmlns="http://www.w3.org/2000/svg" xmlns:xlink="http://www.w3.org/1999/xlink" width="600" height="400" viewBox="0 0 2400 1600">
<defs>
  <clipPath id="clip310">
    <rect x="0" y="0" width="2400" height="1600"></rect>
  </clipPath>
</defs>
<path clip-path="url(#clip310)" d="M0 1600 L2400 1600 L2400 0 L0 0  Z" fill="#ffffff" fill-rule="evenodd" fill-opacity="1"></path>
<defs>
  <clipPath id="clip311">
    <rect x="480" y="0" width="1681" height="1600"></rect>
  </clipPath>
</defs>
<path clip-path="url(#clip310)" d="M308.297 1384.3 L2352.76 1384.3 L2352.76 47.2441 L308.297 47.2441  Z" fill="#ffffff" fill-rule="evenodd" fill-opacity="1"></path>
<defs>
  <clipPath id="clip312">
    <rect x="308" y="47" width="2045" height="1338"></rect>
  </clipPath>
</defs>
<polyline clip-path="url(#clip312)" style="stroke:#000000; stroke-linecap:round; stroke-linejoin:round; stroke-width:2; stroke-opacity:0.1; fill:none" points="358.413,1384.3 358.413,47.2441 "></polyline>
<polyline clip-path="url(#clip312)" style="stroke:#000000; stroke-linecap:round; stroke-linejoin:round; stroke-width:2; stroke-opacity:0.1; fill:none" points="745.709,1384.3 745.709,47.2441 "></polyline>
<polyline clip-path="url(#clip312)" style="stroke:#000000; stroke-linecap:round; stroke-linejoin:round; stroke-width:2; stroke-opacity:0.1; fill:none" points="1133.01,1384.3 1133.01,47.2441 "></polyline>
<polyline clip-path="url(#clip312)" style="stroke:#000000; stroke-linecap:round; stroke-linejoin:round; stroke-width:2; stroke-opacity:0.1; fill:none" points="1520.3,1384.3 1520.3,47.2441 "></polyline>
<polyline clip-path="url(#clip312)" style="stroke:#000000; stroke-linecap:round; stroke-linejoin:round; stroke-width:2; stroke-opacity:0.1; fill:none" points="1907.6,1384.3 1907.6,47.2441 "></polyline>
<polyline clip-path="url(#clip312)" style="stroke:#000000; stroke-linecap:round; stroke-linejoin:round; stroke-width:2; stroke-opacity:0.1; fill:none" points="2294.89,1384.3 2294.89,47.2441 "></polyline>
<polyline clip-path="url(#clip310)" style="stroke:#000000; stroke-linecap:round; stroke-linejoin:round; stroke-width:4; stroke-opacity:1; fill:none" points="308.297,1384.3 2352.76,1384.3 "></polyline>
<polyline clip-path="url(#clip310)" style="stroke:#000000; stroke-linecap:round; stroke-linejoin:round; stroke-width:4; stroke-opacity:1; fill:none" points="358.413,1384.3 358.413,1365.4 "></polyline>
<polyline clip-path="url(#clip310)" style="stroke:#000000; stroke-linecap:round; stroke-linejoin:round; stroke-width:4; stroke-opacity:1; fill:none" points="745.709,1384.3 745.709,1365.4 "></polyline>
<polyline clip-path="url(#clip310)" style="stroke:#000000; stroke-linecap:round; stroke-linejoin:round; stroke-width:4; stroke-opacity:1; fill:none" points="1133.01,1384.3 1133.01,1365.4 "></polyline>
<polyline clip-path="url(#clip310)" style="stroke:#000000; stroke-linecap:round; stroke-linejoin:round; stroke-width:4; stroke-opacity:1; fill:none" points="1520.3,1384.3 1520.3,1365.4 "></polyline>
<polyline clip-path="url(#clip310)" style="stroke:#000000; stroke-linecap:round; stroke-linejoin:round; stroke-width:4; stroke-opacity:1; fill:none" points="1907.6,1384.3 1907.6,1365.4 "></polyline>
<polyline clip-path="url(#clip310)" style="stroke:#000000; stroke-linecap:round; stroke-linejoin:round; stroke-width:4; stroke-opacity:1; fill:none" points="2294.89,1384.3 2294.89,1365.4 "></polyline>
<path clip-path="url(#clip310)" d="M342.442 1444.03 Q342.442 1432.88 345.258 1426.8 Q349.186 1417.76 358.45 1417.76 Q360.414 1417.76 362.452 1418.31 Q364.527 1418.83 367.121 1420.87 Q369.752 1422.91 371.345 1426.24 Q374.384 1432.69 374.384 1444.03 Q374.384 1455.11 371.567 1461.15 Q367.454 1469.97 358.376 1469.97 Q354.967 1469.97 351.484 1468.23 Q348.038 1466.48 345.851 1462.3 Q342.442 1456.03 342.442 1444.03 M348.742 1443.1 Q348.742 1454.55 349.557 1459.11 Q350.483 1464.04 353.003 1466.19 Q355.56 1468.3 358.376 1468.3 Q361.414 1468.3 363.934 1466.04 Q366.491 1463.74 367.269 1458.81 Q368.121 1453.96 368.084 1443.1 Q368.084 1432.54 367.343 1428.32 Q366.343 1423.39 363.675 1421.43 Q361.044 1419.42 358.376 1419.42 Q357.375 1419.42 356.301 1419.72 Q355.263 1420.02 353.744 1420.87 Q352.225 1421.72 351.039 1423.83 Q349.89 1425.95 349.334 1429.13 Q348.742 1433.25 348.742 1443.1 Z" fill="#000000" fill-rule="nonzero" fill-opacity="1"></path><path clip-path="url(#clip310)" d="M711.174 1456.07 Q711.174 1453.81 712.397 1452.96 Q713.619 1452.07 714.916 1452.07 Q716.658 1452.07 717.658 1453.18 Q718.696 1454.26 718.696 1455.78 Q718.696 1457.29 717.658 1458.41 Q716.658 1459.48 714.916 1459.48 Q714.064 1459.48 713.619 1459.33 Q714.62 1462.82 717.658 1465.34 Q720.734 1467.86 724.773 1467.86 Q729.85 1467.86 732.888 1462.93 Q734.704 1459.74 734.704 1452.51 Q734.704 1446.14 733.333 1442.95 Q731.221 1438.1 726.885 1438.1 Q720.734 1438.1 717.103 1443.4 Q716.658 1444.07 716.139 1444.1 Q715.398 1444.1 715.213 1443.7 Q715.065 1443.25 715.065 1442.1 L715.065 1419.65 Q715.065 1417.83 715.806 1417.83 Q716.102 1417.83 716.732 1418.05 Q721.512 1420.17 726.811 1420.2 Q732.258 1420.2 737.149 1417.98 Q737.52 1417.76 737.742 1417.76 Q738.483 1417.76 738.52 1418.61 Q738.52 1418.91 737.891 1419.79 Q737.298 1420.65 736.001 1421.8 Q734.704 1422.91 733.036 1423.98 Q731.369 1425.06 728.923 1425.8 Q726.515 1426.5 723.847 1426.5 Q720.66 1426.5 717.399 1425.5 L717.399 1440.29 Q721.327 1436.43 727.033 1436.43 Q733.11 1436.43 737.298 1441.32 Q741.485 1446.22 741.485 1453.03 Q741.485 1460.18 736.519 1465.08 Q731.591 1469.97 724.921 1469.97 Q718.844 1469.97 714.99 1465.63 Q711.174 1461.3 711.174 1456.07 Z" fill="#000000" fill-rule="nonzero" fill-opacity="1"></path><path clip-path="url(#clip310)" d="M748.303 1444.03 Q748.303 1432.88 751.119 1426.8 Q755.047 1417.76 764.311 1417.76 Q766.275 1417.76 768.313 1418.31 Q770.388 1418.83 772.982 1420.87 Q775.613 1422.91 777.206 1426.24 Q780.244 1432.69 780.244 1444.03 Q780.244 1455.11 777.428 1461.15 Q773.315 1469.97 764.237 1469.97 Q760.828 1469.97 757.344 1468.23 Q753.898 1466.48 751.712 1462.3 Q748.303 1456.03 748.303 1444.03 M754.602 1443.1 Q754.602 1454.55 755.418 1459.11 Q756.344 1464.04 758.864 1466.19 Q761.42 1468.3 764.237 1468.3 Q767.275 1468.3 769.795 1466.04 Q772.352 1463.74 773.13 1458.81 Q773.982 1453.96 773.945 1443.1 Q773.945 1432.54 773.204 1428.32 Q772.203 1423.39 769.536 1421.43 Q766.905 1419.42 764.237 1419.42 Q763.236 1419.42 762.162 1419.72 Q761.124 1420.02 759.605 1420.87 Q758.086 1421.72 756.9 1423.83 Q755.751 1425.95 755.195 1429.13 Q754.602 1433.25 754.602 1443.1 Z" fill="#000000" fill-rule="nonzero" fill-opacity="1"></path><path clip-path="url(#clip310)" d="M1080.98 1424.98 L1080.98 1422.61 Q1090.1 1422.61 1094.8 1417.76 Q1096.1 1417.76 1096.32 1418.05 Q1096.54 1418.35 1096.54 1419.72 L1096.54 1462.3 Q1096.54 1464.56 1097.65 1465.26 Q1098.77 1465.97 1103.62 1465.97 L1106.03 1465.97 L1106.03 1468.3 Q1103.36 1468.08 1093.73 1468.08 Q1084.09 1468.08 1081.46 1468.3 L1081.46 1465.97 L1083.87 1465.97 Q1088.65 1465.97 1089.8 1465.3 Q1090.95 1464.59 1090.95 1462.3 L1090.95 1422.98 Q1086.98 1424.98 1080.98 1424.98 Z" fill="#000000" fill-rule="nonzero" fill-opacity="1"></path><path clip-path="url(#clip310)" d="M1115.14 1444.03 Q1115.14 1432.88 1117.96 1426.8 Q1121.89 1417.76 1131.15 1417.76 Q1133.12 1417.76 1135.15 1418.31 Q1137.23 1418.83 1139.82 1420.87 Q1142.45 1422.91 1144.05 1426.24 Q1147.09 1432.69 1147.09 1444.03 Q1147.09 1455.11 1144.27 1461.15 Q1140.16 1469.97 1131.08 1469.97 Q1127.67 1469.97 1124.19 1468.23 Q1120.74 1466.48 1118.55 1462.3 Q1115.14 1456.03 1115.14 1444.03 M1121.44 1443.1 Q1121.44 1454.55 1122.26 1459.11 Q1123.19 1464.04 1125.71 1466.19 Q1128.26 1468.3 1131.08 1468.3 Q1134.12 1468.3 1136.64 1466.04 Q1139.19 1463.74 1139.97 1458.81 Q1140.82 1453.96 1140.79 1443.1 Q1140.79 1432.54 1140.05 1428.32 Q1139.05 1423.39 1136.38 1421.43 Q1133.75 1419.42 1131.08 1419.42 Q1130.08 1419.42 1129 1419.72 Q1127.97 1420.02 1126.45 1420.87 Q1124.93 1421.72 1123.74 1423.83 Q1122.59 1425.95 1122.04 1429.13 Q1121.44 1433.25 1121.44 1443.1 Z" fill="#000000" fill-rule="nonzero" fill-opacity="1"></path><path clip-path="url(#clip310)" d="M1153.09 1444.03 Q1153.09 1432.88 1155.91 1426.8 Q1159.83 1417.76 1169.1 1417.76 Q1171.06 1417.76 1173.1 1418.31 Q1175.17 1418.83 1177.77 1420.87 Q1180.4 1422.91 1181.99 1426.24 Q1185.03 1432.69 1185.03 1444.03 Q1185.03 1455.11 1182.21 1461.15 Q1178.1 1469.97 1169.02 1469.97 Q1165.61 1469.97 1162.13 1468.23 Q1158.68 1466.48 1156.5 1462.3 Q1153.09 1456.03 1153.09 1444.03 M1159.39 1443.1 Q1159.39 1454.55 1160.2 1459.11 Q1161.13 1464.04 1163.65 1466.19 Q1166.21 1468.3 1169.02 1468.3 Q1172.06 1468.3 1174.58 1466.04 Q1177.14 1463.74 1177.92 1458.81 Q1178.77 1453.96 1178.73 1443.1 Q1178.73 1432.54 1177.99 1428.32 Q1176.99 1423.39 1174.32 1421.43 Q1171.69 1419.42 1169.02 1419.42 Q1168.02 1419.42 1166.95 1419.72 Q1165.91 1420.02 1164.39 1420.87 Q1162.87 1421.72 1161.69 1423.83 Q1160.54 1425.95 1159.98 1429.13 Q1159.39 1433.25 1159.39 1443.1 Z" fill="#000000" fill-rule="nonzero" fill-opacity="1"></path><path clip-path="url(#clip310)" d="M1468.28 1424.98 L1468.28 1422.61 Q1477.39 1422.61 1482.1 1417.76 Q1483.39 1417.76 1483.62 1418.05 Q1483.84 1418.35 1483.84 1419.72 L1483.84 1462.3 Q1483.84 1464.56 1484.95 1465.26 Q1486.06 1465.97 1490.92 1465.97 L1493.33 1465.97 L1493.33 1468.3 Q1490.66 1468.08 1481.02 1468.08 Q1471.39 1468.08 1468.76 1468.3 L1468.76 1465.97 L1471.17 1465.97 Q1475.95 1465.97 1477.1 1465.3 Q1478.24 1464.59 1478.24 1462.3 L1478.24 1422.98 Q1474.28 1424.98 1468.28 1424.98 Z" fill="#000000" fill-rule="nonzero" fill-opacity="1"></path><path clip-path="url(#clip310)" d="M1503.26 1456.07 Q1503.26 1453.81 1504.48 1452.96 Q1505.7 1452.07 1507 1452.07 Q1508.74 1452.07 1509.74 1453.18 Q1510.78 1454.26 1510.78 1455.78 Q1510.78 1457.29 1509.74 1458.41 Q1508.74 1459.48 1507 1459.48 Q1506.15 1459.48 1505.7 1459.33 Q1506.7 1462.82 1509.74 1465.34 Q1512.82 1467.86 1516.86 1467.86 Q1521.93 1467.86 1524.97 1462.93 Q1526.79 1459.74 1526.79 1452.51 Q1526.79 1446.14 1525.42 1442.95 Q1523.3 1438.1 1518.97 1438.1 Q1512.82 1438.1 1509.18 1443.4 Q1508.74 1444.07 1508.22 1444.1 Q1507.48 1444.1 1507.3 1443.7 Q1507.15 1443.25 1507.15 1442.1 L1507.15 1419.65 Q1507.15 1417.83 1507.89 1417.83 Q1508.18 1417.83 1508.81 1418.05 Q1513.59 1420.17 1518.89 1420.2 Q1524.34 1420.2 1529.23 1417.98 Q1529.6 1417.76 1529.82 1417.76 Q1530.57 1417.76 1530.6 1418.61 Q1530.6 1418.91 1529.97 1419.79 Q1529.38 1420.65 1528.08 1421.8 Q1526.79 1422.91 1525.12 1423.98 Q1523.45 1425.06 1521.01 1425.8 Q1518.6 1426.5 1515.93 1426.5 Q1512.74 1426.5 1509.48 1425.5 L1509.48 1440.29 Q1513.41 1436.43 1519.12 1436.43 Q1525.19 1436.43 1529.38 1441.32 Q1533.57 1446.22 1533.57 1453.03 Q1533.57 1460.18 1528.6 1465.08 Q1523.67 1469.97 1517 1469.97 Q1510.93 1469.97 1507.07 1465.63 Q1503.26 1461.3 1503.26 1456.07 Z" fill="#000000" fill-rule="nonzero" fill-opacity="1"></path><path clip-path="url(#clip310)" d="M1540.39 1444.03 Q1540.39 1432.88 1543.2 1426.8 Q1547.13 1417.76 1556.39 1417.76 Q1558.36 1417.76 1560.4 1418.31 Q1562.47 1418.83 1565.06 1420.87 Q1567.69 1422.91 1569.29 1426.24 Q1572.33 1432.69 1572.33 1444.03 Q1572.33 1455.11 1569.51 1461.15 Q1565.4 1469.97 1556.32 1469.97 Q1552.91 1469.97 1549.43 1468.23 Q1545.98 1466.48 1543.79 1462.3 Q1540.39 1456.03 1540.39 1444.03 M1546.68 1443.1 Q1546.68 1454.55 1547.5 1459.11 Q1548.43 1464.04 1550.95 1466.19 Q1553.5 1468.3 1556.32 1468.3 Q1559.36 1468.3 1561.88 1466.04 Q1564.43 1463.74 1565.21 1458.81 Q1566.06 1453.96 1566.03 1443.1 Q1566.03 1432.54 1565.29 1428.32 Q1564.29 1423.39 1561.62 1421.43 Q1558.99 1419.42 1556.32 1419.42 Q1555.32 1419.42 1554.24 1419.72 Q1553.21 1420.02 1551.69 1420.87 Q1550.17 1421.72 1548.98 1423.83 Q1547.83 1425.95 1547.28 1429.13 Q1546.68 1433.25 1546.68 1443.1 Z" fill="#000000" fill-rule="nonzero" fill-opacity="1"></path><path clip-path="url(#clip310)" d="M1854.09 1468.3 Q1854.09 1466.93 1854.2 1466.52 Q1854.35 1466.11 1854.94 1465.48 L1869.51 1449.25 Q1877.47 1440.29 1877.47 1432.47 Q1877.47 1427.39 1874.8 1423.76 Q1872.17 1420.13 1867.32 1420.13 Q1863.98 1420.13 1861.17 1422.17 Q1858.35 1424.2 1857.05 1427.84 Q1857.28 1427.76 1858.06 1427.76 Q1859.94 1427.76 1860.98 1428.95 Q1862.06 1430.13 1862.06 1431.73 Q1862.06 1433.76 1860.72 1434.77 Q1859.43 1435.73 1858.13 1435.73 Q1857.61 1435.73 1856.91 1435.62 Q1856.24 1435.51 1855.16 1434.47 Q1854.09 1433.39 1854.09 1431.5 Q1854.09 1426.21 1858.09 1421.98 Q1862.13 1417.76 1868.28 1417.76 Q1875.25 1417.76 1879.81 1421.91 Q1884.4 1426.02 1884.4 1432.47 Q1884.4 1434.73 1883.7 1436.8 Q1883.03 1438.84 1882.1 1440.43 Q1881.21 1442.03 1878.77 1444.58 Q1876.32 1447.14 1874.36 1448.96 Q1872.4 1450.77 1867.99 1454.63 L1859.94 1462.45 L1873.62 1462.45 Q1880.29 1462.45 1880.81 1461.85 Q1881.55 1460.78 1882.47 1455.11 L1884.4 1455.11 L1882.25 1468.3 L1854.09 1468.3 Z" fill="#000000" fill-rule="nonzero" fill-opacity="1"></path><path clip-path="url(#clip310)" d="M1891.22 1444.03 Q1891.22 1432.88 1894.04 1426.8 Q1897.96 1417.76 1907.23 1417.76 Q1909.19 1417.76 1911.23 1418.31 Q1913.3 1418.83 1915.9 1420.87 Q1918.53 1422.91 1920.12 1426.24 Q1923.16 1432.69 1923.16 1444.03 Q1923.16 1455.11 1920.34 1461.15 Q1916.23 1469.97 1907.15 1469.97 Q1903.74 1469.97 1900.26 1468.23 Q1896.81 1466.48 1894.63 1462.3 Q1891.22 1456.03 1891.22 1444.03 M1897.52 1443.1 Q1897.52 1454.55 1898.33 1459.11 Q1899.26 1464.04 1901.78 1466.19 Q1904.34 1468.3 1907.15 1468.3 Q1910.19 1468.3 1912.71 1466.04 Q1915.27 1463.74 1916.05 1458.81 Q1916.9 1453.96 1916.86 1443.1 Q1916.86 1432.54 1916.12 1428.32 Q1915.12 1423.39 1912.45 1421.43 Q1909.82 1419.42 1907.15 1419.42 Q1906.15 1419.42 1905.08 1419.72 Q1904.04 1420.02 1902.52 1420.87 Q1901 1421.72 1899.82 1423.83 Q1898.67 1425.95 1898.11 1429.13 Q1897.52 1433.25 1897.52 1443.1 Z" fill="#000000" fill-rule="nonzero" fill-opacity="1"></path><path clip-path="url(#clip310)" d="M1929.16 1444.03 Q1929.16 1432.88 1931.98 1426.8 Q1935.91 1417.76 1945.17 1417.76 Q1947.14 1417.76 1949.17 1418.31 Q1951.25 1418.83 1953.84 1420.87 Q1956.47 1422.91 1958.07 1426.24 Q1961.11 1432.69 1961.11 1444.03 Q1961.11 1455.11 1958.29 1461.15 Q1954.18 1469.97 1945.1 1469.97 Q1941.69 1469.97 1938.21 1468.23 Q1934.76 1466.48 1932.57 1462.3 Q1929.16 1456.03 1929.16 1444.03 M1935.46 1443.1 Q1935.46 1454.55 1936.28 1459.11 Q1937.2 1464.04 1939.72 1466.19 Q1942.28 1468.3 1945.1 1468.3 Q1948.14 1468.3 1950.66 1466.04 Q1953.21 1463.74 1953.99 1458.81 Q1954.84 1453.96 1954.81 1443.1 Q1954.81 1432.54 1954.06 1428.32 Q1953.06 1423.39 1950.4 1421.43 Q1947.77 1419.42 1945.1 1419.42 Q1944.1 1419.42 1943.02 1419.72 Q1941.98 1420.02 1940.47 1420.87 Q1938.95 1421.72 1937.76 1423.83 Q1936.61 1425.95 1936.06 1429.13 Q1935.46 1433.25 1935.46 1443.1 Z" fill="#000000" fill-rule="nonzero" fill-opacity="1"></path><path clip-path="url(#clip310)" d="M2241.39 1468.3 Q2241.39 1466.93 2241.5 1466.52 Q2241.65 1466.11 2242.24 1465.48 L2256.8 1449.25 Q2264.77 1440.29 2264.77 1432.47 Q2264.77 1427.39 2262.1 1423.76 Q2259.47 1420.13 2254.62 1420.13 Q2251.28 1420.13 2248.46 1422.17 Q2245.65 1424.2 2244.35 1427.84 Q2244.57 1427.76 2245.35 1427.76 Q2247.24 1427.76 2248.28 1428.95 Q2249.35 1430.13 2249.35 1431.73 Q2249.35 1433.76 2248.02 1434.77 Q2246.72 1435.73 2245.43 1435.73 Q2244.91 1435.73 2244.2 1435.62 Q2243.54 1435.51 2242.46 1434.47 Q2241.39 1433.39 2241.39 1431.5 Q2241.39 1426.21 2245.39 1421.98 Q2249.43 1417.76 2255.58 1417.76 Q2262.54 1417.76 2267.1 1421.91 Q2271.7 1426.02 2271.7 1432.47 Q2271.7 1434.73 2270.99 1436.8 Q2270.33 1438.84 2269.4 1440.43 Q2268.51 1442.03 2266.07 1444.58 Q2263.62 1447.14 2261.66 1448.96 Q2259.69 1450.77 2255.28 1454.63 L2247.24 1462.45 L2260.91 1462.45 Q2267.58 1462.45 2268.1 1461.85 Q2268.84 1460.78 2269.77 1455.11 L2271.7 1455.11 L2269.55 1468.3 L2241.39 1468.3 Z" fill="#000000" fill-rule="nonzero" fill-opacity="1"></path><path clip-path="url(#clip310)" d="M2279.33 1456.07 Q2279.33 1453.81 2280.55 1452.96 Q2281.78 1452.07 2283.07 1452.07 Q2284.81 1452.07 2285.82 1453.18 Q2286.85 1454.26 2286.85 1455.78 Q2286.85 1457.29 2285.82 1458.41 Q2284.81 1459.48 2283.07 1459.48 Q2282.22 1459.48 2281.78 1459.33 Q2282.78 1462.82 2285.82 1465.34 Q2288.89 1467.86 2292.93 1467.86 Q2298.01 1467.86 2301.04 1462.93 Q2302.86 1459.74 2302.86 1452.51 Q2302.86 1446.14 2301.49 1442.95 Q2299.38 1438.1 2295.04 1438.1 Q2288.89 1438.1 2285.26 1443.4 Q2284.81 1444.07 2284.3 1444.1 Q2283.56 1444.1 2283.37 1443.7 Q2283.22 1443.25 2283.22 1442.1 L2283.22 1419.65 Q2283.22 1417.83 2283.96 1417.83 Q2284.26 1417.83 2284.89 1418.05 Q2289.67 1420.17 2294.97 1420.2 Q2300.42 1420.2 2305.31 1417.98 Q2305.68 1417.76 2305.9 1417.76 Q2306.64 1417.76 2306.68 1418.61 Q2306.68 1418.91 2306.05 1419.79 Q2305.45 1420.65 2304.16 1421.8 Q2302.86 1422.91 2301.19 1423.98 Q2299.53 1425.06 2297.08 1425.8 Q2294.67 1426.5 2292 1426.5 Q2288.82 1426.5 2285.56 1425.5 L2285.56 1440.29 Q2289.48 1436.43 2295.19 1436.43 Q2301.27 1436.43 2305.45 1441.32 Q2309.64 1446.22 2309.64 1453.03 Q2309.64 1460.18 2304.68 1465.08 Q2299.75 1469.97 2293.08 1469.97 Q2287 1469.97 2283.15 1465.63 Q2279.33 1461.3 2279.33 1456.07 Z" fill="#000000" fill-rule="nonzero" fill-opacity="1"></path><path clip-path="url(#clip310)" d="M2316.46 1444.03 Q2316.46 1432.88 2319.28 1426.8 Q2323.2 1417.76 2332.47 1417.76 Q2334.43 1417.76 2336.47 1418.31 Q2338.54 1418.83 2341.14 1420.87 Q2343.77 1422.91 2345.36 1426.24 Q2348.4 1432.69 2348.4 1444.03 Q2348.4 1455.11 2345.59 1461.15 Q2341.47 1469.97 2332.39 1469.97 Q2328.98 1469.97 2325.5 1468.23 Q2322.06 1466.48 2319.87 1462.3 Q2316.46 1456.03 2316.46 1444.03 M2322.76 1443.1 Q2322.76 1454.55 2323.57 1459.11 Q2324.5 1464.04 2327.02 1466.19 Q2329.58 1468.3 2332.39 1468.3 Q2335.43 1468.3 2337.95 1466.04 Q2340.51 1463.74 2341.29 1458.81 Q2342.14 1453.96 2342.1 1443.1 Q2342.1 1432.54 2341.36 1428.32 Q2340.36 1423.39 2337.69 1421.43 Q2335.06 1419.42 2332.39 1419.42 Q2331.39 1419.42 2330.32 1419.72 Q2329.28 1420.02 2327.76 1420.87 Q2326.24 1421.72 2325.06 1423.83 Q2323.91 1425.95 2323.35 1429.13 Q2322.76 1433.25 2322.76 1443.1 Z" fill="#000000" fill-rule="nonzero" fill-opacity="1"></path><path clip-path="url(#clip310)" d="M961.508 1581 L961.508 1577.89 Q966.893 1577.89 968.128 1577.25 Q969.363 1576.56 969.363 1573.3 L969.363 1546.07 Q969.363 1542.32 968.079 1541.43 Q966.843 1540.54 961.903 1540.54 L961.903 1537.38 L976.033 1536.29 L976.033 1573.4 Q976.033 1576.41 977.12 1577.15 Q978.207 1577.89 983.148 1577.89 L983.148 1581 Q972.822 1580.71 972.624 1580.71 Q971.241 1580.71 961.508 1581 M965.757 1518.65 Q965.757 1516.63 967.288 1515 Q968.869 1513.32 971.092 1513.32 Q973.316 1513.32 974.897 1514.85 Q976.478 1516.33 976.478 1518.7 Q976.478 1521.02 974.897 1522.56 Q973.316 1524.04 971.092 1524.04 Q968.77 1524.04 967.239 1522.41 Q965.757 1520.78 965.757 1518.65 Z" fill="#000000" fill-rule="nonzero" fill-opacity="1"></path><path clip-path="url(#clip310)" d="M988.088 1540.54 L988.088 1538.32 Q992.733 1538.12 995.796 1534.86 Q998.908 1531.55 999.946 1527.5 Q1001.03 1523.45 1001.13 1518.75 L1003.65 1518.75 L1003.65 1537.38 L1018.13 1537.38 L1018.13 1540.54 L1003.65 1540.54 L1003.65 1568.65 Q1003.65 1579.57 1010.47 1579.57 Q1013.38 1579.57 1015.31 1576.61 Q1017.24 1573.59 1017.24 1568.26 L1017.24 1562.67 L1019.76 1562.67 L1019.76 1568.45 Q1019.76 1573.94 1017.24 1578.04 Q1014.72 1582.14 1009.73 1582.14 Q1007.9 1582.14 1006.07 1581.65 Q1004.29 1581.2 1001.92 1580.02 Q999.6 1578.78 998.118 1575.82 Q996.685 1572.8 996.685 1568.45 L996.685 1540.54 L988.088 1540.54 Z" fill="#000000" fill-rule="nonzero" fill-opacity="1"></path><path clip-path="url(#clip310)" d="M1028.21 1558.72 Q1028.21 1549.19 1034.33 1542.42 Q1040.46 1535.65 1049.25 1535.65 Q1058.15 1535.65 1062.74 1541.43 Q1067.39 1547.21 1067.39 1555.51 Q1067.39 1557.04 1066.99 1557.34 Q1066.6 1557.63 1064.87 1557.63 L1036.61 1557.63 Q1036.61 1567.96 1039.67 1572.8 Q1043.92 1579.57 1051.08 1579.57 Q1052.07 1579.57 1053.26 1579.37 Q1054.44 1579.18 1056.86 1578.34 Q1059.28 1577.45 1061.41 1575.12 Q1063.53 1572.8 1064.77 1569.15 Q1065.06 1567.71 1066.05 1567.76 Q1067.39 1567.76 1067.39 1568.95 Q1067.39 1569.84 1066.4 1571.86 Q1065.46 1573.84 1063.63 1576.21 Q1061.8 1578.58 1058.25 1580.36 Q1054.74 1582.14 1050.49 1582.14 Q1041.6 1582.14 1034.88 1575.42 Q1028.21 1568.65 1028.21 1558.72 M1036.7 1555.51 L1060.72 1555.51 Q1060.72 1553.39 1060.32 1551.01 Q1059.98 1548.64 1058.89 1545.38 Q1057.85 1542.07 1055.38 1540 Q1052.91 1537.92 1049.25 1537.92 Q1047.62 1537.92 1045.84 1538.61 Q1044.12 1539.3 1041.99 1540.98 Q1039.87 1542.66 1038.38 1546.47 Q1036.9 1550.27 1036.7 1555.51 Z" fill="#000000" fill-rule="nonzero" fill-opacity="1"></path><path clip-path="url(#clip310)" d="M1073.12 1581 L1073.12 1577.89 Q1078.5 1577.89 1079.74 1577.25 Q1081.02 1576.56 1081.02 1573.3 L1081.02 1546.17 Q1081.02 1542.42 1079.69 1541.48 Q1078.4 1540.54 1073.12 1540.54 L1073.12 1537.38 L1087.2 1536.29 L1087.2 1547.41 Q1088.63 1543.06 1091.64 1539.7 Q1094.71 1536.29 1099.65 1536.29 Q1102.91 1536.29 1104.98 1538.12 Q1107.11 1539.95 1107.11 1542.47 Q1107.11 1544.69 1105.73 1545.83 Q1104.39 1546.91 1102.76 1546.91 Q1100.93 1546.91 1099.65 1545.78 Q1098.41 1544.59 1098.41 1542.57 Q1098.41 1541.33 1098.96 1540.39 Q1099.55 1539.4 1099.99 1539.06 Q1100.44 1538.71 1100.74 1538.61 Q1100.54 1538.51 1099.65 1538.51 Q1094.07 1538.51 1090.85 1544.1 Q1087.69 1549.63 1087.69 1557.54 L1087.69 1573.1 Q1087.69 1576.01 1088.88 1576.95 Q1090.11 1577.89 1095.4 1577.89 L1097.52 1577.89 L1097.52 1581 Q1093.47 1580.71 1084.68 1580.71 Q1083.44 1580.71 1081.52 1580.76 Q1079.59 1580.81 1077.07 1580.91 Q1074.55 1581 1073.12 1581 Z" fill="#000000" fill-rule="nonzero" fill-opacity="1"></path><path clip-path="url(#clip310)" d="M1114.08 1571.37 Q1114.08 1562.77 1124.2 1558.23 Q1130.28 1555.31 1142.83 1554.57 L1142.83 1550.87 Q1142.83 1544.59 1139.52 1541.28 Q1136.26 1537.92 1132.11 1537.92 Q1124.7 1537.92 1121.14 1542.57 Q1124.15 1542.66 1125.24 1544.2 Q1126.33 1545.68 1126.33 1547.21 Q1126.33 1549.24 1125.04 1550.57 Q1123.81 1551.85 1121.68 1551.85 Q1119.66 1551.85 1118.32 1550.62 Q1116.99 1549.33 1116.99 1547.11 Q1116.99 1542.17 1121.44 1538.91 Q1125.93 1535.65 1132.31 1535.65 Q1140.61 1535.65 1146.14 1541.23 Q1147.87 1542.96 1148.71 1545.18 Q1149.6 1547.41 1149.7 1548.89 Q1149.8 1550.32 1149.8 1553.19 L1149.8 1573.4 Q1149.8 1573.99 1149.99 1574.98 Q1150.19 1575.96 1151.08 1577.25 Q1152.02 1578.48 1153.55 1578.48 Q1157.21 1578.48 1157.16 1572.01 L1157.16 1566.33 L1159.73 1566.33 L1159.73 1572.01 Q1159.73 1577.4 1156.86 1579.52 Q1154.05 1581.6 1151.43 1581.6 Q1148.07 1581.6 1145.94 1579.13 Q1143.82 1576.66 1143.52 1573.3 Q1141.99 1577.15 1138.48 1579.67 Q1135.02 1582.14 1130.28 1582.14 Q1126.62 1582.14 1123.17 1581.2 Q1119.76 1580.31 1116.89 1577.79 Q1114.08 1575.22 1114.08 1571.37 M1121.88 1571.27 Q1121.88 1575.03 1124.55 1577.45 Q1127.22 1579.87 1130.97 1579.87 Q1135.22 1579.87 1139.03 1576.61 Q1142.83 1573.3 1142.83 1566.82 L1142.83 1556.7 Q1131.61 1557.09 1126.72 1561.59 Q1121.88 1566.03 1121.88 1571.27 Z" fill="#000000" fill-rule="nonzero" fill-opacity="1"></path><path clip-path="url(#clip310)" d="M1162.35 1540.54 L1162.35 1538.32 Q1166.99 1538.12 1170.05 1534.86 Q1173.17 1531.55 1174.2 1527.5 Q1175.29 1523.45 1175.39 1518.75 L1177.91 1518.75 L1177.91 1537.38 L1192.39 1537.38 L1192.39 1540.54 L1177.91 1540.54 L1177.91 1568.65 Q1177.91 1579.57 1184.73 1579.57 Q1187.64 1579.57 1189.57 1576.61 Q1191.5 1573.59 1191.5 1568.26 L1191.5 1562.67 L1194.02 1562.67 L1194.02 1568.45 Q1194.02 1573.94 1191.5 1578.04 Q1188.98 1582.14 1183.99 1582.14 Q1182.16 1582.14 1180.33 1581.65 Q1178.55 1581.2 1176.18 1580.02 Q1173.86 1578.78 1172.38 1575.82 Q1170.94 1572.8 1170.94 1568.45 L1170.94 1540.54 L1162.35 1540.54 Z" fill="#000000" fill-rule="nonzero" fill-opacity="1"></path><path clip-path="url(#clip310)" d="M1203.01 1581 L1203.01 1577.89 Q1208.39 1577.89 1209.63 1577.25 Q1210.86 1576.56 1210.86 1573.3 L1210.86 1546.07 Q1210.86 1542.32 1209.58 1541.43 Q1208.34 1540.54 1203.4 1540.54 L1203.4 1537.38 L1217.53 1536.29 L1217.53 1573.4 Q1217.53 1576.41 1218.62 1577.15 Q1219.71 1577.89 1224.65 1577.89 L1224.65 1581 Q1214.32 1580.71 1214.12 1580.71 Q1212.74 1580.71 1203.01 1581 M1207.26 1518.65 Q1207.26 1516.63 1208.79 1515 Q1210.37 1513.32 1212.59 1513.32 Q1214.82 1513.32 1216.4 1514.85 Q1217.98 1516.33 1217.98 1518.7 Q1217.98 1521.02 1216.4 1522.56 Q1214.82 1524.04 1212.59 1524.04 Q1210.27 1524.04 1208.74 1522.41 Q1207.26 1520.78 1207.26 1518.65 Z" fill="#000000" fill-rule="nonzero" fill-opacity="1"></path><path clip-path="url(#clip310)" d="M1237.15 1575.57 Q1230.48 1568.95 1230.48 1559.36 Q1230.48 1549.73 1237 1542.71 Q1243.57 1535.65 1252.96 1535.65 Q1262.15 1535.65 1268.72 1542.66 Q1275.34 1549.63 1275.34 1559.36 Q1275.34 1568.9 1268.67 1575.52 Q1262.05 1582.14 1252.86 1582.14 Q1243.87 1582.14 1237.15 1575.57 M1238.88 1558.52 Q1238.88 1568.36 1241.45 1572.8 Q1245.4 1579.57 1252.96 1579.57 Q1256.71 1579.57 1259.83 1577.55 Q1262.99 1575.52 1264.72 1572.11 Q1266.94 1567.66 1266.94 1558.52 Q1266.94 1548.79 1264.27 1544.49 Q1260.32 1537.92 1252.86 1537.92 Q1249.6 1537.92 1246.39 1539.65 Q1243.22 1541.33 1241.3 1544.69 Q1238.88 1549.14 1238.88 1558.52 Z" fill="#000000" fill-rule="nonzero" fill-opacity="1"></path><path clip-path="url(#clip310)" d="M1281.51 1581 L1281.51 1577.89 Q1286.9 1577.89 1288.14 1577.25 Q1289.37 1576.56 1289.37 1573.3 L1289.37 1546.17 Q1289.37 1542.42 1288.04 1541.48 Q1286.75 1540.54 1281.51 1540.54 L1281.51 1537.38 L1295.74 1536.29 L1295.74 1546.91 Q1300.49 1536.29 1310.71 1536.29 Q1318.32 1536.29 1321.34 1540.05 Q1323.56 1542.57 1324 1545.38 Q1324.5 1548.2 1324.5 1555.51 L1324.5 1574.83 Q1324.6 1576.95 1326.23 1577.45 Q1327.86 1577.89 1332.4 1577.89 L1332.4 1581 Q1322.08 1580.71 1321.04 1580.71 Q1320.25 1580.71 1309.63 1581 L1309.63 1577.89 Q1315.01 1577.89 1316.25 1577.25 Q1317.53 1576.56 1317.53 1573.3 L1317.53 1549.73 Q1317.53 1544.59 1315.95 1541.58 Q1314.37 1538.51 1310.02 1538.51 Q1304.79 1538.51 1300.59 1542.91 Q1296.39 1547.31 1296.39 1554.72 L1296.39 1573.3 Q1296.39 1576.56 1297.62 1577.25 Q1298.91 1577.89 1304.24 1577.89 L1304.24 1581 Q1293.92 1580.71 1292.93 1580.71 Q1292.14 1580.71 1281.51 1581 Z" fill="#000000" fill-rule="nonzero" fill-opacity="1"></path><path clip-path="url(#clip310)" d="M1371.29 1581 L1371.29 1577.89 Q1376.67 1577.89 1377.91 1577.25 Q1379.14 1576.56 1379.14 1573.3 L1379.14 1546.17 Q1379.14 1542.42 1377.81 1541.48 Q1376.52 1540.54 1371.29 1540.54 L1371.29 1537.38 L1385.52 1536.29 L1385.52 1546.91 Q1390.26 1536.29 1400.49 1536.29 Q1408.09 1536.29 1411.11 1540.05 Q1413.33 1542.57 1413.78 1545.38 Q1414.27 1548.2 1414.27 1555.51 L1414.27 1574.83 Q1414.37 1576.95 1416 1577.45 Q1417.63 1577.89 1422.18 1577.89 L1422.18 1581 Q1411.85 1580.71 1410.81 1580.71 Q1410.02 1580.71 1399.4 1581 L1399.4 1577.89 Q1404.78 1577.89 1406.02 1577.25 Q1407.3 1576.56 1407.3 1573.3 L1407.3 1549.73 Q1407.3 1544.59 1405.72 1541.58 Q1404.14 1538.51 1399.79 1538.51 Q1394.56 1538.51 1390.36 1542.91 Q1386.16 1547.31 1386.16 1554.72 L1386.16 1573.3 Q1386.16 1576.56 1387.39 1577.25 Q1388.68 1577.89 1394.01 1577.89 L1394.01 1581 Q1383.69 1580.71 1382.7 1580.71 Q1381.91 1580.71 1371.29 1581 Z" fill="#000000" fill-rule="nonzero" fill-opacity="1"></path><path clip-path="url(#clip310)" d="M1424.6 1540.54 L1424.6 1537.38 L1439.47 1536.29 L1439.47 1569.89 Q1439.47 1572.31 1439.67 1573.74 Q1439.86 1575.12 1440.65 1576.75 Q1441.49 1578.39 1443.37 1579.13 Q1445.3 1579.87 1448.36 1579.87 Q1453.85 1579.87 1457.21 1575.37 Q1460.61 1570.88 1460.61 1564.21 L1460.61 1546.17 Q1460.61 1542.42 1459.28 1541.48 Q1457.95 1540.54 1452.71 1540.54 L1452.71 1537.38 L1467.58 1536.29 L1467.58 1572.21 Q1467.58 1575.96 1468.87 1576.95 Q1470.2 1577.89 1475.49 1577.89 L1475.49 1581 L1460.91 1582.14 L1460.91 1573 Q1456.66 1582.09 1447.87 1582.14 Q1443.42 1582.14 1440.36 1581 Q1437.34 1579.87 1435.81 1578.48 Q1434.28 1577.05 1433.44 1574.33 Q1432.65 1571.62 1432.55 1569.94 Q1432.45 1568.26 1432.45 1565 L1432.45 1549.83 Q1432.45 1542.96 1431.46 1541.77 Q1430.48 1540.54 1424.6 1540.54 Z" fill="#000000" fill-rule="nonzero" fill-opacity="1"></path><path clip-path="url(#clip310)" d="M1480.72 1581 L1480.72 1577.89 Q1486.11 1577.89 1487.34 1577.25 Q1488.58 1576.56 1488.58 1573.3 L1488.58 1546.17 Q1488.58 1542.42 1487.24 1541.48 Q1485.96 1540.54 1480.72 1540.54 L1480.72 1537.38 L1494.95 1536.29 L1494.95 1546.91 Q1499.69 1536.29 1509.92 1536.29 Q1521.78 1536.29 1523.41 1546.17 Q1525.14 1542.32 1528.75 1539.3 Q1532.4 1536.29 1538.08 1536.29 Q1545.69 1536.29 1548.71 1540.05 Q1550.93 1542.57 1551.37 1545.38 Q1551.82 1548.2 1551.82 1555.51 L1551.82 1574.83 Q1551.92 1576.95 1553.55 1577.45 Q1555.18 1577.89 1559.72 1577.89 L1559.72 1581 Q1549.4 1580.71 1548.41 1580.71 Q1547.62 1580.71 1536.95 1581 L1536.95 1577.89 Q1542.33 1577.89 1543.57 1577.25 Q1544.85 1576.56 1544.85 1573.3 L1544.85 1549.73 Q1544.85 1544.59 1543.27 1541.58 Q1541.69 1538.51 1537.34 1538.51 Q1532.11 1538.51 1527.91 1542.91 Q1523.71 1547.31 1523.71 1554.72 L1523.71 1573.3 Q1523.71 1576.56 1524.94 1577.25 Q1526.23 1577.89 1531.61 1577.89 L1531.61 1581 Q1521.29 1580.71 1520.25 1580.71 Q1519.46 1580.71 1508.84 1581 L1508.84 1577.89 Q1514.22 1577.89 1515.46 1577.25 Q1516.74 1576.56 1516.74 1573.3 L1516.74 1549.73 Q1516.74 1544.59 1515.16 1541.58 Q1513.58 1538.51 1509.23 1538.51 Q1503.99 1538.51 1499.79 1542.91 Q1495.59 1547.31 1495.59 1554.72 L1495.59 1573.3 Q1495.59 1576.56 1496.83 1577.25 Q1498.11 1577.89 1503.45 1577.89 L1503.45 1581 Q1493.12 1580.71 1492.14 1580.71 Q1491.35 1580.71 1480.72 1581 Z" fill="#000000" fill-rule="nonzero" fill-opacity="1"></path><path clip-path="url(#clip310)" d="M1561.7 1515.05 L1561.7 1511.88 L1576.28 1510.8 L1576.28 1542.86 Q1582.15 1536.29 1590.16 1536.29 Q1598.85 1536.29 1605.23 1542.96 Q1611.6 1549.63 1611.6 1559.17 Q1611.6 1568.8 1604.93 1575.47 Q1598.26 1582.14 1589.02 1582.14 Q1580.62 1582.14 1575.78 1574.73 Q1572.22 1580.91 1572.13 1581 L1569.61 1581 L1569.61 1520.68 Q1569.61 1516.92 1568.27 1515.98 Q1566.94 1515.05 1561.7 1515.05 M1576.57 1569.49 Q1576.57 1571.62 1578 1573.74 Q1582.01 1579.87 1588.53 1579.87 Q1588.58 1579.87 1588.63 1579.87 Q1595.69 1579.87 1600.09 1573.4 Q1603.2 1568.55 1603.2 1559.07 Q1603.2 1549.68 1600.29 1544.99 Q1596.24 1538.51 1589.66 1538.51 Q1582.25 1538.51 1577.71 1544.99 Q1576.57 1546.62 1576.57 1548.64 L1576.57 1569.49 Z" fill="#000000" fill-rule="nonzero" fill-opacity="1"></path><path clip-path="url(#clip310)" d="M1620.64 1558.72 Q1620.64 1549.19 1626.77 1542.42 Q1632.9 1535.65 1641.69 1535.65 Q1650.58 1535.65 1655.18 1541.43 Q1659.82 1547.21 1659.82 1555.51 Q1659.82 1557.04 1659.43 1557.34 Q1659.03 1557.63 1657.3 1557.63 L1629.04 1557.63 Q1629.04 1567.96 1632.1 1572.8 Q1636.35 1579.57 1643.52 1579.57 Q1644.51 1579.57 1645.69 1579.37 Q1646.88 1579.18 1649.3 1578.34 Q1651.72 1577.45 1653.84 1575.12 Q1655.97 1572.8 1657.2 1569.15 Q1657.5 1567.71 1658.49 1567.76 Q1659.82 1567.76 1659.82 1568.95 Q1659.82 1569.84 1658.83 1571.86 Q1657.9 1573.84 1656.07 1576.21 Q1654.24 1578.58 1650.68 1580.36 Q1647.17 1582.14 1642.93 1582.14 Q1634.03 1582.14 1627.31 1575.42 Q1620.64 1568.65 1620.64 1558.72 M1629.14 1555.51 L1653.15 1555.51 Q1653.15 1553.39 1652.76 1551.01 Q1652.41 1548.64 1651.32 1545.38 Q1650.29 1542.07 1647.82 1540 Q1645.35 1537.92 1641.69 1537.92 Q1640.06 1537.92 1638.28 1538.61 Q1636.55 1539.3 1634.43 1540.98 Q1632.3 1542.66 1630.82 1546.47 Q1629.34 1550.27 1629.14 1555.51 Z" fill="#000000" fill-rule="nonzero" fill-opacity="1"></path><path clip-path="url(#clip310)" d="M1665.55 1581 L1665.55 1577.89 Q1670.94 1577.89 1672.17 1577.25 Q1673.46 1576.56 1673.46 1573.3 L1673.46 1546.17 Q1673.46 1542.42 1672.12 1541.48 Q1670.84 1540.54 1665.55 1540.54 L1665.55 1537.38 L1679.63 1536.29 L1679.63 1547.41 Q1681.07 1543.06 1684.08 1539.7 Q1687.14 1536.29 1692.08 1536.29 Q1695.35 1536.29 1697.42 1538.12 Q1699.55 1539.95 1699.55 1542.47 Q1699.55 1544.69 1698.16 1545.83 Q1696.83 1546.91 1695.2 1546.91 Q1693.37 1546.91 1692.08 1545.78 Q1690.85 1544.59 1690.85 1542.57 Q1690.85 1541.33 1691.39 1540.39 Q1691.99 1539.4 1692.43 1539.06 Q1692.88 1538.71 1693.17 1538.61 Q1692.97 1538.51 1692.08 1538.51 Q1686.5 1538.51 1683.29 1544.1 Q1680.13 1549.63 1680.13 1557.54 L1680.13 1573.1 Q1680.13 1576.01 1681.31 1576.95 Q1682.55 1577.89 1687.84 1577.89 L1689.96 1577.89 L1689.96 1581 Q1685.91 1580.71 1677.11 1580.71 Q1675.88 1580.71 1673.95 1580.76 Q1672.03 1580.81 1669.51 1580.91 Q1666.99 1581 1665.55 1581 Z" fill="#000000" fill-rule="nonzero" fill-opacity="1"></path><polyline clip-path="url(#clip312)" style="stroke:#000000; stroke-linecap:round; stroke-linejoin:round; stroke-width:2; stroke-opacity:0.1; fill:none" points="308.297,1384.17 2352.76,1384.17 "></polyline>
<polyline clip-path="url(#clip312)" style="stroke:#000000; stroke-linecap:round; stroke-linejoin:round; stroke-width:2; stroke-opacity:0.1; fill:none" points="308.297,593.506 2352.76,593.506 "></polyline>
<polyline clip-path="url(#clip310)" style="stroke:#000000; stroke-linecap:round; stroke-linejoin:round; stroke-width:4; stroke-opacity:1; fill:none" points="308.297,1384.3 308.297,47.2441 "></polyline>
<polyline clip-path="url(#clip310)" style="stroke:#000000; stroke-linecap:round; stroke-linejoin:round; stroke-width:4; stroke-opacity:1; fill:none" points="308.297,1384.17 327.194,1384.17 "></polyline>
<polyline clip-path="url(#clip310)" style="stroke:#000000; stroke-linecap:round; stroke-linejoin:round; stroke-width:4; stroke-opacity:1; fill:none" points="308.297,593.506 327.194,593.506 "></polyline>
<path clip-path="url(#clip310)" d="M135.86 1376.44 L135.86 1374.07 Q144.976 1374.07 149.682 1369.22 Q150.979 1369.22 151.201 1369.51 Q151.423 1369.81 151.423 1371.18 L151.423 1413.76 Q151.423 1416.02 152.535 1416.72 Q153.647 1417.43 158.501 1417.43 L160.909 1417.43 L160.909 1419.76 Q158.241 1419.54 148.607 1419.54 Q138.973 1419.54 136.342 1419.76 L136.342 1417.43 L138.75 1417.43 Q143.531 1417.43 144.679 1416.76 Q145.828 1416.05 145.828 1413.76 L145.828 1374.44 Q141.863 1376.44 135.86 1376.44 Z" fill="#000000" fill-rule="nonzero" fill-opacity="1"></path><path clip-path="url(#clip310)" d="M170.025 1395.49 Q170.025 1384.34 172.841 1378.26 Q176.769 1369.22 186.033 1369.22 Q187.997 1369.22 190.035 1369.77 Q192.11 1370.29 194.704 1372.33 Q197.334 1374.37 198.928 1377.7 Q201.966 1384.15 201.966 1395.49 Q201.966 1406.57 199.15 1412.61 Q195.037 1421.43 185.959 1421.43 Q182.55 1421.43 179.066 1419.69 Q175.62 1417.94 173.434 1413.76 Q170.025 1407.49 170.025 1395.49 M176.324 1394.56 Q176.324 1406.01 177.139 1410.57 Q178.066 1415.5 180.586 1417.65 Q183.142 1419.76 185.959 1419.76 Q188.997 1419.76 191.517 1417.5 Q194.074 1415.2 194.852 1410.27 Q195.704 1405.42 195.667 1394.56 Q195.667 1384 194.926 1379.78 Q193.925 1374.85 191.257 1372.89 Q188.627 1370.88 185.959 1370.88 Q184.958 1370.88 183.883 1371.18 Q182.846 1371.48 181.327 1372.33 Q179.807 1373.18 178.622 1375.29 Q177.473 1377.41 176.917 1380.59 Q176.324 1384.71 176.324 1394.56 Z" fill="#000000" fill-rule="nonzero" fill-opacity="1"></path><path clip-path="url(#clip310)" d="M242.671 1362.36 Q243.033 1362.72 243.033 1363.23 Q243.033 1363.74 242.671 1364.1 Q242.31 1364.46 241.798 1364.46 L203.201 1364.46 Q202.689 1364.46 202.328 1364.1 Q201.966 1363.74 201.966 1363.23 Q201.966 1362.72 202.328 1362.36 Q202.689 1361.99 203.201 1361.99 L241.798 1361.99 Q242.31 1361.99 242.671 1362.36 Z" fill="#000000" fill-rule="nonzero" fill-opacity="1"></path><path clip-path="url(#clip310)" d="M251.944 1343.45 L251.944 1341.52 Q259.351 1341.52 263.174 1337.58 Q264.228 1337.58 264.409 1337.82 Q264.589 1338.06 264.589 1339.17 L264.589 1373.77 Q264.589 1375.6 265.493 1376.18 Q266.396 1376.75 270.34 1376.75 L272.297 1376.75 L272.297 1378.64 Q270.129 1378.46 262.301 1378.46 Q254.473 1378.46 252.336 1378.64 L252.336 1376.75 L254.293 1376.75 Q258.177 1376.75 259.11 1376.21 Q260.043 1375.63 260.043 1373.77 L260.043 1341.82 Q256.822 1343.45 251.944 1343.45 Z" fill="#000000" fill-rule="nonzero" fill-opacity="1"></path><path clip-path="url(#clip310)" d="M180.238 585.78 L180.238 583.408 Q189.354 583.408 194.06 578.554 Q195.357 578.554 195.579 578.851 Q195.801 579.147 195.801 580.518 L195.801 623.094 Q195.801 625.355 196.913 626.059 Q198.025 626.763 202.879 626.763 L205.287 626.763 L205.287 629.097 Q202.619 628.875 192.985 628.875 Q183.351 628.875 180.72 629.097 L180.72 626.763 L183.128 626.763 Q187.909 626.763 189.057 626.096 Q190.206 625.392 190.206 623.094 L190.206 583.779 Q186.241 585.78 180.238 585.78 Z" fill="#000000" fill-rule="nonzero" fill-opacity="1"></path><path clip-path="url(#clip310)" d="M214.403 604.826 Q214.403 593.673 217.219 587.596 Q221.147 578.554 230.411 578.554 Q232.375 578.554 234.413 579.11 Q236.488 579.629 239.082 581.667 Q241.713 583.705 243.306 587.04 Q246.344 593.487 246.344 604.826 Q246.344 615.906 243.528 621.946 Q239.415 630.765 230.337 630.765 Q226.928 630.765 223.444 629.023 Q219.998 627.282 217.812 623.094 Q214.403 616.832 214.403 604.826 M220.702 603.9 Q220.702 615.35 221.518 619.908 Q222.444 624.836 224.964 626.985 Q227.52 629.097 230.337 629.097 Q233.375 629.097 235.895 626.837 Q238.452 624.539 239.23 619.611 Q240.082 614.757 240.045 603.9 Q240.045 593.339 239.304 589.115 Q238.303 584.186 235.635 582.223 Q233.005 580.222 230.337 580.222 Q229.336 580.222 228.262 580.518 Q227.224 580.814 225.705 581.667 Q224.185 582.519 223 584.631 Q221.851 586.743 221.295 589.93 Q220.702 594.043 220.702 603.9 Z" fill="#000000" fill-rule="nonzero" fill-opacity="1"></path><path clip-path="url(#clip310)" d="M246.344 568.261 Q246.344 559.199 248.633 554.262 Q251.824 546.915 259.351 546.915 Q260.946 546.915 262.602 547.367 Q264.288 547.788 266.396 549.444 Q268.533 551.1 269.828 553.81 Q272.297 559.049 272.297 568.261 Q272.297 577.263 270.009 582.171 Q266.667 589.336 259.29 589.336 Q256.521 589.336 253.691 587.921 Q250.891 586.506 249.114 583.104 Q246.344 578.016 246.344 568.261 M251.463 567.509 Q251.463 576.812 252.125 580.515 Q252.878 584.519 254.925 586.265 Q257.002 587.982 259.29 587.982 Q261.759 587.982 263.807 586.145 Q265.884 584.278 266.516 580.274 Q267.209 576.33 267.179 567.509 Q267.179 558.928 266.576 555.496 Q265.764 551.492 263.596 549.896 Q261.458 548.27 259.29 548.27 Q258.478 548.27 257.604 548.511 Q256.761 548.752 255.527 549.444 Q254.293 550.137 253.329 551.853 Q252.396 553.569 251.944 556.158 Q251.463 559.5 251.463 567.509 Z" fill="#000000" fill-rule="nonzero" fill-opacity="1"></path><path clip-path="url(#clip310)" d="M79.1242 1134.25 L76.0115 1134.25 Q76.0115 1128.86 75.3692 1127.63 Q74.6776 1126.39 71.4167 1126.39 L44.2924 1126.39 Q40.5375 1126.39 39.5988 1127.73 Q38.6601 1129.01 38.6601 1134.25 L35.498 1134.25 L34.4111 1120.02 L45.0335 1120.02 Q34.4111 1115.27 34.4111 1105.05 Q34.4111 1093.19 44.2924 1091.56 Q40.4387 1089.83 37.4249 1086.22 Q34.4111 1082.57 34.4111 1076.89 Q34.4111 1069.28 38.166 1066.26 Q40.6857 1064.04 43.5019 1063.6 Q46.3181 1063.15 53.6303 1063.15 L72.9483 1063.15 Q75.0728 1063.05 75.5669 1061.42 Q76.0115 1059.79 76.0115 1055.25 L79.1242 1055.25 Q78.8277 1065.57 78.8277 1066.56 Q78.8277 1067.35 79.1242 1078.02 L76.0115 1078.02 Q76.0115 1072.64 75.3692 1071.4 Q74.6776 1070.12 71.4167 1070.12 L47.8497 1070.12 Q42.7114 1070.12 39.6976 1071.7 Q36.6344 1073.28 36.6344 1077.63 Q36.6344 1082.86 41.0316 1087.06 Q45.4288 1091.26 52.8398 1091.26 L71.4167 1091.26 Q74.6776 1091.26 75.3692 1090.03 Q76.0115 1088.74 76.0115 1083.36 L79.1242 1083.36 Q78.8277 1093.68 78.8277 1094.72 Q78.8277 1095.51 79.1242 1106.13 L76.0115 1106.13 Q76.0115 1100.75 75.3692 1099.51 Q74.6776 1098.23 71.4167 1098.23 L47.8497 1098.23 Q42.7114 1098.23 39.6976 1099.81 Q36.6344 1101.39 36.6344 1105.74 Q36.6344 1110.98 41.0316 1115.18 Q45.4288 1119.38 52.8398 1119.38 L71.4167 1119.38 Q74.6776 1119.38 75.3692 1118.14 Q76.0115 1116.86 76.0115 1111.52 L79.1242 1111.52 Q78.8277 1121.85 78.8277 1122.83 Q78.8277 1123.62 79.1242 1134.25 Z" fill="#000000" fill-rule="nonzero" fill-opacity="1"></path><path clip-path="url(#clip310)" d="M56.8417 1050.45 Q47.3062 1050.45 40.5375 1044.33 Q33.7688 1038.2 33.7688 1029.41 Q33.7688 1020.51 39.5494 1015.92 Q45.33 1011.27 53.6303 1011.27 Q55.1619 1011.27 55.4583 1011.67 Q55.7548 1012.06 55.7548 1013.79 L55.7548 1042.05 Q66.0808 1042.05 70.9226 1038.99 Q77.6914 1034.74 77.6914 1027.58 Q77.6914 1026.59 77.4937 1025.4 Q77.2961 1024.22 76.4562 1021.8 Q75.5669 1019.38 73.2448 1017.25 Q70.9226 1015.13 67.2665 1013.89 Q65.8338 1013.6 65.8832 1012.61 Q65.8832 1011.27 67.0689 1011.27 Q67.9582 1011.27 69.9839 1012.26 Q71.9602 1013.2 74.3317 1015.03 Q76.7032 1016.86 78.4819 1020.41 Q80.2605 1023.92 80.2605 1028.17 Q80.2605 1037.06 73.5412 1043.78 Q66.7725 1050.45 56.8417 1050.45 M53.6303 1041.96 L53.6303 1017.94 Q51.5058 1017.94 49.1343 1018.34 Q46.7628 1018.68 43.5019 1019.77 Q40.1917 1020.81 38.1166 1023.28 Q36.0415 1025.75 36.0415 1029.41 Q36.0415 1031.04 36.7332 1032.81 Q37.4249 1034.54 39.1047 1036.67 Q40.7845 1038.79 44.5889 1040.28 Q48.3932 1041.76 53.6303 1041.96 Z" fill="#000000" fill-rule="nonzero" fill-opacity="1"></path><path clip-path="url(#clip310)" d="M69.4898 1004.11 Q60.8931 1004.11 56.3477 993.981 Q53.4327 987.904 52.6916 975.355 L48.9861 975.355 Q42.7114 975.355 39.4012 978.665 Q36.0415 981.926 36.0415 986.076 Q36.0415 993.487 40.6857 997.044 Q40.7845 994.031 42.3162 992.944 Q43.7984 991.857 45.33 991.857 Q47.3556 991.857 48.6896 993.141 Q49.9742 994.376 49.9742 996.501 Q49.9742 998.527 48.739 999.861 Q47.4545 1001.19 45.2311 1001.19 Q40.2905 1001.19 37.0296 996.748 Q33.7688 992.252 33.7688 985.879 Q33.7688 977.578 39.3517 972.045 Q41.081 970.315 43.3043 969.475 Q45.5276 968.586 47.0098 968.487 Q48.4426 968.389 51.3082 968.389 L71.5155 968.389 Q72.1084 968.389 73.0965 968.191 Q74.0847 967.993 75.3692 967.104 Q76.6044 966.165 76.6044 964.634 Q76.6044 960.978 70.1321 961.027 L64.4504 961.027 L64.4504 958.458 L70.1321 958.458 Q75.5175 958.458 77.642 961.323 Q79.717 964.14 79.717 966.758 Q79.717 970.118 77.2467 972.242 Q74.7764 974.367 71.4167 974.663 Q75.2704 976.195 77.7902 979.703 Q80.2605 983.161 80.2605 987.904 Q80.2605 991.56 79.3218 995.019 Q78.4325 998.428 75.9127 1001.29 Q73.3436 1004.11 69.4898 1004.11 M69.391 996.303 Q73.1459 996.303 75.5669 993.635 Q77.9878 990.967 77.9878 987.212 Q77.9878 982.964 74.727 979.159 Q71.4167 975.355 64.9444 975.355 L54.8161 975.355 Q55.2113 986.57 59.7073 991.461 Q64.1539 996.303 69.391 996.303 Z" fill="#000000" fill-rule="nonzero" fill-opacity="1"></path><path clip-path="url(#clip310)" d="M79.1242 954.505 L76.0115 954.505 Q76.0115 949.12 75.3692 947.885 Q74.6776 946.65 71.4167 946.65 L44.2924 946.65 Q40.5375 946.65 39.5988 947.984 Q38.6601 949.268 38.6601 954.505 L35.498 954.505 L34.4111 940.276 L45.0335 940.276 Q34.4111 935.533 34.4111 925.306 Q34.4111 917.697 38.166 914.683 Q40.6857 912.46 43.5019 912.015 Q46.3181 911.521 53.6303 911.521 L72.9483 911.521 Q75.0728 911.423 75.5669 909.792 Q76.0115 908.162 76.0115 903.616 L79.1242 903.616 Q78.8277 913.942 78.8277 914.98 Q78.8277 915.77 79.1242 926.393 L76.0115 926.393 Q76.0115 921.007 75.3692 919.772 Q74.6776 918.488 71.4167 918.488 L47.8497 918.488 Q42.7114 918.488 39.6976 920.069 Q36.6344 921.65 36.6344 925.998 Q36.6344 931.235 41.0316 935.434 Q45.4288 939.634 52.8398 939.634 L71.4167 939.634 Q74.6776 939.634 75.3692 938.399 Q76.0115 937.114 76.0115 931.778 L79.1242 931.778 Q78.8277 942.104 78.8277 943.092 Q78.8277 943.883 79.1242 954.505 Z" fill="#000000" fill-rule="nonzero" fill-opacity="1"></path><path clip-path="url(#clip310)" d="M79.1242 865.178 L76.0115 865.178 Q76.0115 859.793 75.3692 858.557 Q74.6776 857.273 71.4167 857.273 L44.2924 857.273 Q40.5375 857.273 39.5988 858.607 Q38.6601 859.891 38.6601 865.178 L35.498 865.178 L34.4111 851.097 L45.5276 851.097 Q41.1798 849.664 37.8201 846.65 Q34.4111 843.587 34.4111 838.646 Q34.4111 835.386 36.2391 833.311 Q38.0672 831.186 40.5869 831.186 Q42.8102 831.186 43.9466 832.569 Q45.0335 833.903 45.0335 835.534 Q45.0335 837.362 43.8972 838.646 Q42.7114 839.882 40.6857 839.882 Q39.4506 839.882 38.5118 839.338 Q37.5237 838.745 37.1779 838.301 Q36.832 837.856 36.7332 837.56 Q36.6344 837.757 36.6344 838.646 Q36.6344 844.229 42.2173 847.441 Q47.7509 850.603 55.656 850.603 L71.2191 850.603 Q74.1341 850.603 75.0728 849.417 Q76.0115 848.182 76.0115 842.895 L76.0115 840.771 L79.1242 840.771 Q78.8277 844.822 78.8277 853.617 Q78.8277 854.852 78.8771 856.779 Q78.9265 858.706 79.0253 861.225 Q79.1242 863.745 79.1242 865.178 Z" fill="#000000" fill-rule="nonzero" fill-opacity="1"></path><path clip-path="url(#clip310)" d="M56.8417 825.653 Q47.3062 825.653 40.5375 819.526 Q33.7688 813.4 33.7688 804.605 Q33.7688 795.712 39.5494 791.117 Q45.33 786.473 53.6303 786.473 Q55.1619 786.473 55.4583 786.868 Q55.7548 787.263 55.7548 788.993 L55.7548 817.253 Q66.0808 817.253 70.9226 814.19 Q77.6914 809.941 77.6914 802.777 Q77.6914 801.789 77.4937 800.603 Q77.2961 799.418 76.4562 796.997 Q75.5669 794.576 73.2448 792.451 Q70.9226 790.327 67.2665 789.092 Q65.8338 788.795 65.8832 787.807 Q65.8832 786.473 67.0689 786.473 Q67.9582 786.473 69.9839 787.461 Q71.9602 788.4 74.3317 790.228 Q76.7032 792.056 78.4819 795.613 Q80.2605 799.121 80.2605 803.37 Q80.2605 812.263 73.5412 818.983 Q66.7725 825.653 56.8417 825.653 M53.6303 817.155 L53.6303 793.143 Q51.5058 793.143 49.1343 793.538 Q46.7628 793.884 43.5019 794.971 Q40.1917 796.008 38.1166 798.479 Q36.0415 800.949 36.0415 804.605 Q36.0415 806.236 36.7332 808.014 Q37.4249 809.744 39.1047 811.868 Q40.7845 813.993 44.5889 815.475 Q48.3932 816.957 53.6303 817.155 Z" fill="#000000" fill-rule="nonzero" fill-opacity="1"></path><path clip-path="url(#clip310)" d="M79.1242 780.198 L76.0115 780.198 Q76.0115 774.813 75.3692 773.578 Q74.6776 772.343 71.4167 772.343 L18.7986 772.343 Q15.0436 772.343 14.1049 773.677 Q13.1662 774.961 13.1662 780.198 L10.0042 780.198 L8.91721 765.673 L71.4167 765.673 Q74.6776 765.673 75.3692 764.388 Q76.0115 763.104 76.0115 757.768 L79.1242 757.768 Q79.1242 759.003 79.0253 761.572 Q78.9265 764.141 78.8771 766.019 Q78.8277 767.896 78.8277 768.983 Q78.8277 770.169 79.1242 780.198 Z" fill="#000000" fill-rule="nonzero" fill-opacity="1"></path><path clip-path="url(#clip310)" d="M69.4898 751.295 Q60.8931 751.295 56.3477 741.167 Q53.4327 735.09 52.6916 722.541 L48.9861 722.541 Q42.7114 722.541 39.4012 725.851 Q36.0415 729.112 36.0415 733.262 Q36.0415 740.673 40.6857 744.23 Q40.7845 741.216 42.3162 740.129 Q43.7984 739.043 45.33 739.043 Q47.3556 739.043 48.6896 740.327 Q49.9742 741.562 49.9742 743.687 Q49.9742 745.712 48.739 747.046 Q47.4545 748.38 45.2311 748.38 Q40.2905 748.38 37.0296 743.934 Q33.7688 739.438 33.7688 733.064 Q33.7688 724.764 39.3517 719.23 Q41.081 717.501 43.3043 716.661 Q45.5276 715.772 47.0098 715.673 Q48.4426 715.574 51.3082 715.574 L71.5155 715.574 Q72.1084 715.574 73.0965 715.377 Q74.0847 715.179 75.3692 714.29 Q76.6044 713.351 76.6044 711.819 Q76.6044 708.163 70.1321 708.213 L64.4504 708.213 L64.4504 705.644 L70.1321 705.644 Q75.5175 705.644 77.642 708.509 Q79.717 711.325 79.717 713.944 Q79.717 717.304 77.2467 719.428 Q74.7764 721.553 71.4167 721.849 Q75.2704 723.381 77.7902 726.888 Q80.2605 730.347 80.2605 735.09 Q80.2605 738.746 79.3218 742.205 Q78.4325 745.614 75.9127 748.479 Q73.3436 751.295 69.4898 751.295 M69.391 743.489 Q73.1459 743.489 75.5669 740.821 Q77.9878 738.153 77.9878 734.398 Q77.9878 730.149 74.727 726.345 Q71.4167 722.541 64.9444 722.541 L54.8161 722.541 Q55.2113 733.756 59.7073 738.647 Q64.1539 743.489 69.391 743.489 Z" fill="#000000" fill-rule="nonzero" fill-opacity="1"></path><path clip-path="url(#clip310)" d="M38.6601 703.025 L36.4368 703.025 Q36.2391 698.381 32.9783 695.318 Q29.668 692.205 25.6167 691.167 Q21.5653 690.08 16.8717 689.982 L16.8717 687.462 L35.498 687.462 L35.498 672.986 L38.6601 672.986 L38.6601 687.462 L66.7725 687.462 Q77.6914 687.462 77.6914 680.644 Q77.6914 677.729 74.727 675.802 Q71.7131 673.875 66.3772 673.875 L60.7943 673.875 L60.7943 671.355 L66.5749 671.355 Q72.059 671.355 76.1598 673.875 Q80.2605 676.395 80.2605 681.385 Q80.2605 683.213 79.7664 685.041 Q79.3218 686.82 78.136 689.191 Q76.9009 691.513 73.9365 692.995 Q70.9226 694.428 66.5749 694.428 L38.6601 694.428 L38.6601 703.025 Z" fill="#000000" fill-rule="nonzero" fill-opacity="1"></path><path clip-path="url(#clip310)" d="M79.1242 662.363 L76.0115 662.363 Q76.0115 656.978 75.3692 655.743 Q74.6776 654.508 71.4167 654.508 L44.1936 654.508 Q40.4387 654.508 39.5494 655.792 Q38.6601 657.027 38.6601 661.968 L35.498 661.968 L34.4111 647.838 L71.5155 647.838 Q74.5293 647.838 75.2704 646.751 Q76.0115 645.664 76.0115 640.723 L79.1242 640.723 Q78.8277 651.049 78.8277 651.247 Q78.8277 652.63 79.1242 662.363 M16.7729 658.114 Q14.7472 658.114 13.1168 656.583 Q11.437 655.002 11.437 652.778 Q11.437 650.555 12.9686 648.974 Q14.4508 647.393 16.8223 647.393 Q19.1444 647.393 20.676 648.974 Q22.1582 650.555 22.1582 652.778 Q22.1582 655.101 20.5278 656.632 Q18.8974 658.114 16.7729 658.114 Z" fill="#000000" fill-rule="nonzero" fill-opacity="1"></path><path clip-path="url(#clip310)" d="M38.6601 635.782 L35.498 635.782 Q35.7945 631.237 35.7945 625.951 Q35.7945 624.024 35.498 614.933 L38.6601 614.933 Q38.6601 620.713 41.2786 620.713 Q41.6739 620.713 43.0078 620.121 L71.2191 608.757 L45.4288 598.431 Q43.6995 597.838 43.0078 597.838 Q41.2786 597.838 40.0434 599.024 Q38.7589 600.16 38.6601 602.68 L35.498 602.68 Q35.7945 597.542 35.7945 593.886 Q35.7945 589.735 35.498 586.326 L38.6601 586.326 Q38.6601 589.34 40.0434 591.465 Q41.3774 593.589 42.5632 594.281 Q43.6995 594.923 45.4288 595.615 L78.3336 608.856 Q80.2605 609.646 80.2605 610.98 Q80.2605 611.87 79.8653 612.265 Q79.5194 612.611 78.3336 613.105 L42.415 627.68 Q39.8952 628.668 39.3023 629.952 Q38.6601 631.237 38.6601 635.782 Z" fill="#000000" fill-rule="nonzero" fill-opacity="1"></path><path clip-path="url(#clip310)" d="M56.8417 584.4 Q47.3062 584.4 40.5375 578.273 Q33.7688 572.147 33.7688 563.352 Q33.7688 554.459 39.5494 549.864 Q45.33 545.22 53.6303 545.22 Q55.1619 545.22 55.4583 545.615 Q55.7548 546.01 55.7548 547.74 L55.7548 576 Q66.0808 576 70.9226 572.937 Q77.6914 568.688 77.6914 561.524 Q77.6914 560.536 77.4937 559.35 Q77.2961 558.165 76.4562 555.744 Q75.5669 553.323 73.2448 551.198 Q70.9226 549.074 67.2665 547.839 Q65.8338 547.542 65.8832 546.554 Q65.8832 545.22 67.0689 545.22 Q67.9582 545.22 69.9839 546.208 Q71.9602 547.147 74.3317 548.975 Q76.7032 550.803 78.4819 554.36 Q80.2605 557.868 80.2605 562.117 Q80.2605 571.01 73.5412 577.73 Q66.7725 584.4 56.8417 584.4 M53.6303 575.902 L53.6303 551.89 Q51.5058 551.89 49.1343 552.285 Q46.7628 552.631 43.5019 553.718 Q40.1917 554.755 38.1166 557.226 Q36.0415 559.696 36.0415 563.352 Q36.0415 564.983 36.7332 566.761 Q37.4249 568.491 39.1047 570.615 Q40.7845 572.74 44.5889 574.222 Q48.3932 575.704 53.6303 575.902 Z" fill="#000000" fill-rule="nonzero" fill-opacity="1"></path><path clip-path="url(#clip310)" d="M56.8417 505.843 Q47.3062 505.843 40.5375 499.716 Q33.7688 493.59 33.7688 484.796 Q33.7688 475.902 39.5494 471.308 Q45.33 466.663 53.6303 466.663 Q55.1619 466.663 55.4583 467.059 Q55.7548 467.454 55.7548 469.183 L55.7548 497.444 Q66.0808 497.444 70.9226 494.38 Q77.6914 490.131 77.6914 482.968 Q77.6914 481.979 77.4937 480.794 Q77.2961 479.608 76.4562 477.187 Q75.5669 474.766 73.2448 472.642 Q70.9226 470.517 67.2665 469.282 Q65.8338 468.985 65.8832 467.997 Q65.8832 466.663 67.0689 466.663 Q67.9582 466.663 69.9839 467.651 Q71.9602 468.59 74.3317 470.418 Q76.7032 472.246 78.4819 475.804 Q80.2605 479.311 80.2605 483.56 Q80.2605 492.454 73.5412 499.173 Q66.7725 505.843 56.8417 505.843 M53.6303 497.345 L53.6303 473.333 Q51.5058 473.333 49.1343 473.728 Q46.7628 474.074 43.5019 475.161 Q40.1917 476.199 38.1166 478.669 Q36.0415 481.139 36.0415 484.796 Q36.0415 486.426 36.7332 488.205 Q37.4249 489.934 39.1047 492.058 Q40.7845 494.183 44.5889 495.665 Q48.3932 497.147 53.6303 497.345 Z" fill="#000000" fill-rule="nonzero" fill-opacity="1"></path><path clip-path="url(#clip310)" d="M79.1242 460.932 L76.0115 460.932 Q76.0115 455.547 75.3692 454.312 Q74.6776 453.027 71.4167 453.027 L44.2924 453.027 Q40.5375 453.027 39.5988 454.361 Q38.6601 455.646 38.6601 460.932 L35.498 460.932 L34.4111 446.851 L45.5276 446.851 Q41.1798 445.418 37.8201 442.405 Q34.4111 439.341 34.4111 434.401 Q34.4111 431.14 36.2391 429.065 Q38.0672 426.94 40.5869 426.94 Q42.8102 426.94 43.9466 428.324 Q45.0335 429.658 45.0335 431.288 Q45.0335 433.116 43.8972 434.401 Q42.7114 435.636 40.6857 435.636 Q39.4506 435.636 38.5118 435.092 Q37.5237 434.5 37.1779 434.055 Q36.832 433.61 36.7332 433.314 Q36.6344 433.511 36.6344 434.401 Q36.6344 439.984 42.2173 443.195 Q47.7509 446.357 55.656 446.357 L71.2191 446.357 Q74.1341 446.357 75.0728 445.171 Q76.0115 443.936 76.0115 438.65 L76.0115 436.525 L79.1242 436.525 Q78.8277 440.577 78.8277 449.371 Q78.8277 450.606 78.8771 452.533 Q78.9265 454.46 79.0253 456.98 Q79.1242 459.499 79.1242 460.932 Z" fill="#000000" fill-rule="nonzero" fill-opacity="1"></path><path clip-path="url(#clip310)" d="M79.1242 421.407 L76.0115 421.407 Q76.0115 416.021 75.3692 414.786 Q74.6776 413.502 71.4167 413.502 L44.2924 413.502 Q40.5375 413.502 39.5988 414.836 Q38.6601 416.12 38.6601 421.407 L35.498 421.407 L34.4111 407.326 L45.5276 407.326 Q41.1798 405.893 37.8201 402.879 Q34.4111 399.816 34.4111 394.875 Q34.4111 391.614 36.2391 389.539 Q38.0672 387.415 40.5869 387.415 Q42.8102 387.415 43.9466 388.798 Q45.0335 390.132 45.0335 391.763 Q45.0335 393.591 43.8972 394.875 Q42.7114 396.11 40.6857 396.11 Q39.4506 396.11 38.5118 395.567 Q37.5237 394.974 37.1779 394.529 Q36.832 394.085 36.7332 393.788 Q36.6344 393.986 36.6344 394.875 Q36.6344 400.458 42.2173 403.67 Q47.7509 406.832 55.656 406.832 L71.2191 406.832 Q74.1341 406.832 75.0728 405.646 Q76.0115 404.411 76.0115 399.124 L76.0115 397 L79.1242 397 Q78.8277 401.051 78.8277 409.846 Q78.8277 411.081 78.8771 413.008 Q78.9265 414.934 79.0253 417.454 Q79.1242 419.974 79.1242 421.407 Z" fill="#000000" fill-rule="nonzero" fill-opacity="1"></path><path clip-path="url(#clip310)" d="M73.6894 375.211 Q67.0689 381.881 57.484 381.881 Q47.8497 381.881 40.834 375.36 Q33.7688 368.789 33.7688 359.401 Q33.7688 350.212 40.7845 343.641 Q47.7509 337.02 57.484 337.02 Q67.0195 337.02 73.64 343.69 Q80.2605 350.31 80.2605 359.5 Q80.2605 368.492 73.6894 375.211 M56.6441 373.482 Q66.476 373.482 70.9226 370.913 Q77.6914 366.961 77.6914 359.401 Q77.6914 355.646 75.6657 352.534 Q73.64 349.372 70.2309 347.643 Q65.7843 345.419 56.6441 345.419 Q46.911 345.419 42.6126 348.087 Q36.0415 352.04 36.0415 359.5 Q36.0415 362.761 37.7707 365.972 Q39.4506 369.134 42.8102 371.061 Q47.2568 373.482 56.6441 373.482 Z" fill="#000000" fill-rule="nonzero" fill-opacity="1"></path><path clip-path="url(#clip310)" d="M79.1242 331.289 L76.0115 331.289 Q76.0115 325.904 75.3692 324.668 Q74.6776 323.384 71.4167 323.384 L44.2924 323.384 Q40.5375 323.384 39.5988 324.718 Q38.6601 326.002 38.6601 331.289 L35.498 331.289 L34.4111 317.208 L45.5276 317.208 Q41.1798 315.775 37.8201 312.761 Q34.4111 309.698 34.4111 304.757 Q34.4111 301.497 36.2391 299.422 Q38.0672 297.297 40.5869 297.297 Q42.8102 297.297 43.9466 298.68 Q45.0335 300.014 45.0335 301.645 Q45.0335 303.473 43.8972 304.757 Q42.7114 305.993 40.6857 305.993 Q39.4506 305.993 38.5118 305.449 Q37.5237 304.856 37.1779 304.412 Q36.832 303.967 36.7332 303.671 Q36.6344 303.868 36.6344 304.757 Q36.6344 310.34 42.2173 313.552 Q47.7509 316.714 55.656 316.714 L71.2191 316.714 Q74.1341 316.714 75.0728 315.528 Q76.0115 314.293 76.0115 309.006 L76.0115 306.882 L79.1242 306.882 Q78.8277 310.933 78.8277 319.728 Q78.8277 320.963 78.8771 322.89 Q78.9265 324.817 79.0253 327.336 Q79.1242 329.856 79.1242 331.289 Z" fill="#000000" fill-rule="nonzero" fill-opacity="1"></path><polyline clip-path="url(#clip312)" style="stroke:#009af9; stroke-linecap:round; stroke-linejoin:round; stroke-width:4; stroke-opacity:1; fill:none" points="366.159,1008.42 373.905,1078.86 381.651,1086.32 389.397,1087.15 397.143,1087.47 404.888,1087.75 412.634,1088.03 420.38,1088.32 428.126,1088.62 435.872,1088.93 443.618,1089.26 451.364,1089.61 459.11,1089.97 466.856,1090.35 474.602,1090.75 482.348,1091.18 490.094,1091.62 497.84,1092.09 505.585,1092.58 513.331,1093.1 521.077,1093.65 528.823,1094.23 536.569,1094.85 544.315,1095.5 552.061,1096.2 559.807,1096.93 567.553,1097.71 575.299,1098.54 583.045,1099.43 590.791,1100.37 598.537,1101.38 606.282,1102.45 614.028,1103.6 621.774,1104.83 629.52,1106.15 637.266,1107.55 645.012,1109.06 652.758,1110.67 660.504,1112.4 668.25,1114.26 675.996,1116.26 683.742,1118.4 691.488,1120.7 699.234,1123.17 706.98,1125.81 714.725,1128.63 722.471,1131.64 730.217,1134.84 737.963,1138.21 745.709,1141.76 753.455,1145.47 761.201,1149.32 768.947,1153.29 776.693,1157.36 784.439,1161.32 792.185,1165.22 799.931,1169.17 807.677,1173.15 815.422,1177.14 823.168,1181.1 830.914,1185.02 838.66,1188.89 846.406,1192.68 854.152,1196.4 861.898,1200.04 869.644,1203.61 877.39,1207.1 885.136,1210.54 892.882,1213.94 900.628,1217.15 908.374,1220.24 916.119,1223.34 923.865,1226.46 931.611,1229.6 939.357,1232.79 947.103,1236.04 954.849,1239.36 962.595,1242.76 970.341,1246.25 978.087,1249.83 985.833,1253.5 993.579,1257.23 1001.32,1260.98 1009.07,1264.7 1016.82,1268.43 1024.56,1272.16 1032.31,1275.88 1040.05,1279.58 1047.8,1283.25 1055.55,1286.88 1063.29,1290.45 1071.04,1293.92 1078.78,1297.31 1086.53,1300.61 1094.28,1303.79 1102.02,1306.85 1109.77,1309.77 1117.51,1312.56 1125.26,1315.19 1133.01,1317.67 1140.75,1319.99 1148.5,1322.15 1156.24,1324.16 1163.99,1326.02 1171.73,1327.74 1179.48,1329.32 1187.23,1330.77 1194.97,1332.1 1202.72,1333.32 1210.46,1334.43 1218.21,1335.44 1225.96,1336.37 1233.7,1337.21 1241.45,1337.97 1249.19,1338.66 1256.94,1339.28 1264.69,1339.85 1272.43,1340.36 1280.18,1340.82 1287.92,1341.23 1295.67,1341.6 1303.42,1341.94 1311.16,1342.24 1318.91,1342.5 1326.65,1342.74 1334.4,1342.95 1342.15,1343.15 1349.89,1343.32 1357.64,1343.47 1365.38,1343.61 1373.13,1343.73 1380.87,1343.85 1388.62,1343.95 1396.37,1344.04 1404.11,1344.12 1411.86,1344.19 1419.6,1344.26 1427.35,1344.32 1435.1,1344.37 1442.84,1344.42 1450.59,1344.46 1458.33,1344.51 1466.08,1344.54 1473.83,1344.58 1481.57,1344.61 1489.32,1344.64 1497.06,1344.67 1504.81,1344.69 1512.56,1344.71 1520.3,1344.74 1528.05,1344.76 1535.79,1344.77 1543.54,1344.79 1551.29,1344.81 1559.03,1344.82 1566.78,1344.83 1574.52,1344.85 1582.27,1344.86 1590.01,1344.87 1597.76,1344.88 1605.51,1344.89 1613.25,1344.9 1621,1344.91 1628.74,1344.91 1636.49,1344.92 1644.24,1344.93 1651.98,1344.94 1659.73,1344.94 1667.47,1344.95 1675.22,1344.95 1682.97,1344.96 1690.71,1344.96 1698.46,1344.97 1706.2,1344.97 1713.95,1344.98 1721.7,1344.98 1729.44,1344.99 1737.19,1344.99 1744.93,1344.99 1752.68,1345 1760.43,1345 1768.17,1345.01 1775.92,1345.01 1783.66,1345.01 1791.41,1345.01 1799.15,1345.02 1806.9,1345.02 1814.65,1345.02 1822.39,1345.03 1830.14,1345.03 1837.88,1345.03 1845.63,1345.03 1853.38,1345.03 1861.12,1345.04 1868.87,1345.04 1876.61,1345.04 1884.36,1345.04 1892.11,1345.04 1899.85,1345.05 1907.6,1345.05 1915.34,1345.05 1923.09,1345.05 1930.84,1345.05 1938.58,1345.05 1946.33,1345.06 1954.07,1345.06 1961.82,1345.06 1969.57,1345.06 1977.31,1345.06 1985.06,1345.06 1992.8,1345.06 2000.55,1345.06 2008.29,1345.06 2016.04,1345.06 2023.79,1345.07 2031.53,1345.07 2039.28,1345.07 2047.02,1345.07 2054.77,1345.07 2062.52,1345.07 2070.26,1345.07 2078.01,1345.07 2085.75,1345.07 2093.5,1345.07 2101.25,1345.07 2108.99,1345.07 2116.74,1345.07 2124.48,1345.07 2132.23,1345.07 2139.98,1345.07 2147.72,1345.08 2155.47,1345.08 2163.21,1345.08 2170.96,1345.08 2178.71,1345.08 2186.45,1345.08 2194.2,1345.08 2201.94,1345.08 2209.69,1345.08 2217.43,1345.08 2225.18,1345.08 2232.93,1345.09 2240.67,1345.09 2248.42,1345.09 2256.16,1345.09 2263.91,1345.09 2271.66,1345.09 2279.4,1345.09 2287.15,1345.1 2294.89,1345.1 "></polyline>
<polyline clip-path="url(#clip312)" style="stroke:#e26f46; stroke-linecap:round; stroke-linejoin:round; stroke-width:4; stroke-opacity:1; fill:none" points="366.159,85.0853 373.905,568.142 381.651,851.548 389.397,966.083 397.143,1039.32 404.888,1074.7 412.634,1093.33 420.38,1104.94 428.126,1113.45 435.872,1120.54 443.618,1126.94 451.364,1132.81 459.11,1138.23 466.856,1143.45 474.602,1148.39 482.348,1152.88 490.094,1157.03 497.84,1160.75 505.585,1164.12 513.331,1167.21 521.077,1170.05 528.823,1172.64 536.569,1174.99 544.315,1177.15 552.061,1179.14 559.807,1181 567.553,1182.78 575.299,1184.52 583.045,1186.27 590.791,1188.08 598.537,1189.98 606.282,1192.03 614.028,1194.26 621.774,1196.74 629.52,1199.5 637.266,1202.59 645.012,1206.04 652.758,1209.91 660.504,1214.2 668.25,1218.94 675.996,1224.07 683.742,1229.62 691.488,1235.55 699.234,1241.83 706.98,1248.36 714.725,1255.04 722.471,1261.72 730.217,1268.31 737.963,1274.75 745.709,1280.94 753.455,1286.81 761.201,1292.33 768.947,1297.46 776.693,1302.2 784.439,1306.53 792.185,1310.46 799.931,1314.01 807.677,1317.18 815.422,1319.99 823.168,1322.49 830.914,1324.7 838.66,1326.64 846.406,1328.35 854.152,1329.85 861.898,1331.17 869.644,1332.33 877.39,1333.36 885.136,1334.26 892.882,1335.06 900.628,1335.77 908.374,1336.4 916.119,1336.97 923.865,1337.48 931.611,1337.95 939.357,1338.37 947.103,1338.75 954.849,1339.1 962.595,1339.42 970.341,1339.72 978.087,1340 985.833,1340.26 993.579,1340.5 1001.32,1340.72 1009.07,1340.94 1016.82,1341.14 1024.56,1341.33 1032.31,1341.51 1040.05,1341.68 1047.8,1341.84 1055.55,1341.99 1063.29,1342.14 1071.04,1342.28 1078.78,1342.42 1086.53,1342.55 1094.28,1342.67 1102.02,1342.79 1109.77,1342.9 1117.51,1343.02 1125.26,1343.12 1133.01,1343.22 1140.75,1343.32 1148.5,1343.42 1156.24,1343.51 1163.99,1343.6 1171.73,1343.68 1179.48,1343.76 1187.23,1343.84 1194.97,1343.92 1202.72,1344 1210.46,1344.07 1218.21,1344.14 1225.96,1344.2 1233.7,1344.27 1241.45,1344.33 1249.19,1344.39 1256.94,1344.45 1264.69,1344.51 1272.43,1344.57 1280.18,1344.62 1287.92,1344.67 1295.67,1344.72 1303.42,1344.77 1311.16,1344.82 1318.91,1344.86 1326.65,1344.91 1334.4,1344.95 1342.15,1344.99 1349.89,1345.04 1357.64,1345.08 1365.38,1345.11 1373.13,1345.15 1380.87,1345.19 1388.62,1345.22 1396.37,1345.26 1404.11,1345.29 1411.86,1345.32 1419.6,1345.36 1427.35,1345.39 1435.1,1345.42 1442.84,1345.45 1450.59,1345.48 1458.33,1345.5 1466.08,1345.53 1473.83,1345.56 1481.57,1345.58 1489.32,1345.61 1497.06,1345.64 1504.81,1345.66 1512.56,1345.69 1520.3,1345.71 1528.05,1345.74 1535.79,1345.76 1543.54,1345.78 1551.29,1345.81 1559.03,1345.83 1566.78,1345.85 1574.52,1345.87 1582.27,1345.89 1590.01,1345.91 1597.76,1345.93 1605.51,1345.95 1613.25,1345.96 1621,1345.98 1628.74,1346 1636.49,1346.02 1644.24,1346.03 1651.98,1346.05 1659.73,1346.06 1667.47,1346.08 1675.22,1346.09 1682.97,1346.11 1690.71,1346.12 1698.46,1346.13 1706.2,1346.15 1713.95,1346.16 1721.7,1346.17 1729.44,1346.19 1737.19,1346.2 1744.93,1346.21 1752.68,1346.22 1760.43,1346.23 1768.17,1346.24 1775.92,1346.25 1783.66,1346.25 1791.41,1346.26 1799.15,1346.27 1806.9,1346.27 1814.65,1346.28 1822.39,1346.28 1830.14,1346.29 1837.88,1346.3 1845.63,1346.3 1853.38,1346.31 1861.12,1346.31 1868.87,1346.32 1876.61,1346.32 1884.36,1346.32 1892.11,1346.33 1899.85,1346.33 1907.6,1346.34 1915.34,1346.34 1923.09,1346.35 1930.84,1346.35 1938.58,1346.35 1946.33,1346.36 1954.07,1346.36 1961.82,1346.36 1969.57,1346.37 1977.31,1346.37 1985.06,1346.37 1992.8,1346.38 2000.55,1346.38 2008.29,1346.38 2016.04,1346.39 2023.79,1346.39 2031.53,1346.39 2039.28,1346.39 2047.02,1346.4 2054.77,1346.4 2062.52,1346.4 2070.26,1346.4 2078.01,1346.41 2085.75,1346.41 2093.5,1346.41 2101.25,1346.41 2108.99,1346.42 2116.74,1346.42 2124.48,1346.42 2132.23,1346.42 2139.98,1346.42 2147.72,1346.43 2155.47,1346.43 2163.21,1346.43 2170.96,1346.43 2178.71,1346.43 2186.45,1346.44 2194.2,1346.44 2201.94,1346.44 2209.69,1346.44 2217.43,1346.44 2225.18,1346.44 2232.93,1346.45 2240.67,1346.45 2248.42,1346.45 2256.16,1346.45 2263.91,1346.45 2271.66,1346.45 2279.4,1346.46 2287.15,1346.46 2294.89,1346.46 "></polyline>
<path clip-path="url(#clip310)" d="M1300.06 344.533 L2284.61 344.533 L2284.61 91.8126 L1300.06 91.8126  Z" fill="#ffffff" fill-rule="evenodd" fill-opacity="1"></path>
<polyline clip-path="url(#clip310)" style="stroke:#000000; stroke-linecap:round; stroke-linejoin:round; stroke-width:4; stroke-opacity:1; fill:none" points="1300.06,344.533 2284.61,344.533 2284.61,91.8126 1300.06,91.8126 1300.06,344.533 "></polyline>
<polyline clip-path="url(#clip310)" style="stroke:#009af9; stroke-linecap:round; stroke-linejoin:round; stroke-width:6.5; stroke-opacity:1; fill:none" points="1322.78,176.053 1459.08,176.053 "></polyline>
<path clip-path="url(#clip310)" d="M1481.79 203.049 L1481.79 192.21 Q1481.79 191.287 1481.83 190.966 Q1481.87 190.645 1482.11 190.404 Q1482.35 190.163 1482.84 190.163 Q1483.4 190.163 1483.6 190.404 Q1483.84 190.645 1484 191.568 Q1485.25 197.228 1487.89 200.239 Q1490.58 203.209 1495.44 203.209 Q1500.06 203.209 1502.39 201.162 Q1504.71 199.115 1504.71 195.743 Q1504.71 189.721 1496.16 188.196 Q1491.23 187.192 1489.18 186.55 Q1487.13 185.868 1485.33 184.382 Q1481.79 181.492 1481.79 177.397 Q1481.79 173.303 1484.88 170.292 Q1488.02 167.281 1494.92 167.281 Q1499.54 167.281 1502.67 169.61 Q1503.59 168.887 1504.07 168.285 Q1505.16 167.281 1505.72 167.281 Q1506.36 167.281 1506.48 167.723 Q1506.6 168.124 1506.6 169.289 L1506.6 177.558 Q1506.6 178.481 1506.56 178.802 Q1506.52 179.124 1506.28 179.364 Q1506.04 179.565 1505.52 179.565 Q1504.59 179.565 1504.55 178.802 Q1503.91 168.847 1494.92 168.847 Q1490.06 168.847 1487.89 170.734 Q1485.73 172.58 1485.73 175.109 Q1485.73 176.514 1486.37 177.598 Q1487.05 178.642 1487.89 179.284 Q1488.78 179.886 1490.38 180.488 Q1491.99 181.05 1492.95 181.251 Q1493.96 181.452 1495.84 181.853 Q1502.43 183.098 1505.2 185.787 Q1508.65 189.24 1508.65 193.615 Q1508.65 198.472 1505.36 201.764 Q1502.07 205.056 1495.44 205.056 Q1490.1 205.056 1486.37 201.483 Q1485.89 201.965 1485.53 202.406 Q1485.16 202.808 1485 202.968 Q1484.88 203.129 1484.84 203.249 Q1484.8 203.33 1484.72 203.41 Q1483.08 205.056 1482.68 205.056 Q1482.03 205.056 1481.91 204.614 Q1481.79 204.213 1481.79 203.049 Z" fill="#000000" fill-rule="nonzero" fill-opacity="1"></path><path clip-path="url(#clip310)" d="M1514.15 204.133 L1514.15 201.604 Q1518.52 201.604 1519.53 201.082 Q1520.53 200.52 1520.53 197.87 L1520.53 175.752 Q1520.53 172.701 1519.49 171.978 Q1518.48 171.256 1514.47 171.256 L1514.47 168.686 L1525.95 167.803 L1525.95 197.951 Q1525.95 200.399 1526.83 201.001 Q1527.72 201.604 1531.73 201.604 L1531.73 204.133 Q1523.34 203.892 1523.18 203.892 Q1522.06 203.892 1514.15 204.133 M1517.6 153.472 Q1517.6 151.826 1518.84 150.502 Q1520.13 149.137 1521.94 149.137 Q1523.74 149.137 1525.03 150.381 Q1526.31 151.585 1526.31 153.512 Q1526.31 155.399 1525.03 156.643 Q1523.74 157.848 1521.94 157.848 Q1520.05 157.848 1518.8 156.523 Q1517.6 155.198 1517.6 153.472 Z" fill="#000000" fill-rule="nonzero" fill-opacity="1"></path><path clip-path="url(#clip310)" d="M1536.83 204.133 L1536.83 201.604 Q1541.2 201.604 1542.21 201.082 Q1543.21 200.52 1543.21 197.87 L1543.21 175.832 Q1543.21 172.781 1542.13 172.018 Q1541.08 171.256 1536.83 171.256 L1536.83 168.686 L1548.39 167.803 L1548.39 176.434 Q1552.24 167.803 1560.55 167.803 Q1570.19 167.803 1571.51 175.832 Q1572.92 172.701 1575.85 170.252 Q1578.82 167.803 1583.43 167.803 Q1589.62 167.803 1592.07 170.854 Q1593.87 172.901 1594.23 175.19 Q1594.59 177.478 1594.59 183.419 L1594.59 199.115 Q1594.67 200.841 1596 201.242 Q1597.32 201.604 1601.02 201.604 L1601.02 204.133 Q1592.63 203.892 1591.82 203.892 Q1591.18 203.892 1582.51 204.133 L1582.51 201.604 Q1586.89 201.604 1587.89 201.082 Q1588.93 200.52 1588.93 197.87 L1588.93 178.722 Q1588.93 174.547 1587.65 172.099 Q1586.37 169.61 1582.83 169.61 Q1578.58 169.61 1575.17 173.182 Q1571.75 176.755 1571.75 182.777 L1571.75 197.87 Q1571.75 200.52 1572.76 201.082 Q1573.8 201.604 1578.18 201.604 L1578.18 204.133 Q1569.79 203.892 1568.94 203.892 Q1568.3 203.892 1559.67 204.133 L1559.67 201.604 Q1564.05 201.604 1565.05 201.082 Q1566.09 200.52 1566.09 197.87 L1566.09 178.722 Q1566.09 174.547 1564.81 172.099 Q1563.52 169.61 1559.99 169.61 Q1555.74 169.61 1552.32 173.182 Q1548.91 176.755 1548.91 182.777 L1548.91 197.87 Q1548.91 200.52 1549.92 201.082 Q1550.96 201.604 1555.29 201.604 L1555.29 204.133 Q1546.9 203.892 1546.1 203.892 Q1545.46 203.892 1536.83 204.133 Z" fill="#000000" fill-rule="nonzero" fill-opacity="1"></path><path clip-path="url(#clip310)" d="M1604.91 217.54 Q1609.29 217.54 1610.29 216.978 Q1611.33 216.457 1611.33 213.847 L1611.33 175.35 Q1611.33 172.62 1610.29 171.938 Q1609.29 171.256 1604.91 171.256 L1604.91 168.686 L1616.75 167.803 L1616.75 173.223 Q1621.69 167.803 1628.27 167.803 Q1635.26 167.803 1640.36 173.223 Q1645.46 178.642 1645.46 186.389 Q1645.46 194.217 1640.04 199.637 Q1634.62 205.056 1627.11 205.056 Q1623.02 205.056 1620.25 202.968 Q1617.52 200.841 1616.99 199.275 L1616.99 200.038 L1616.99 213.847 Q1616.99 216.497 1618.04 217.019 Q1619.08 217.54 1623.42 217.54 L1623.42 220.069 Q1614.79 219.829 1614.14 219.829 Q1613.34 219.829 1604.91 220.069 L1604.91 217.54 M1616.99 194.779 Q1616.99 196.024 1617.15 196.465 Q1617.36 196.907 1618.16 198.232 Q1621.41 203.209 1626.71 203.209 Q1626.75 203.209 1626.79 203.209 Q1631.49 203.209 1635.06 198.432 Q1638.63 193.615 1638.63 186.389 Q1638.63 179.485 1635.38 174.668 Q1632.13 169.851 1627.63 169.851 Q1624.42 169.851 1621.61 171.577 Q1618.8 173.303 1616.99 176.434 L1616.99 194.779 Z" fill="#000000" fill-rule="nonzero" fill-opacity="1"></path><path clip-path="url(#clip310)" d="M1650.96 204.133 L1650.96 201.604 Q1655.33 201.604 1656.33 201.082 Q1657.34 200.52 1657.34 197.87 L1657.34 155.118 Q1657.34 152.067 1656.25 151.304 Q1655.21 150.542 1650.96 150.542 L1650.96 147.973 L1662.76 147.089 L1662.76 197.87 Q1662.76 200.52 1663.8 201.082 Q1664.84 201.604 1669.18 201.604 L1669.18 204.133 Q1668.18 204.133 1666.09 204.052 Q1664 203.972 1662.48 203.932 Q1660.95 203.892 1660.07 203.892 Q1659.1 203.892 1650.96 204.133 Z" fill="#000000" fill-rule="nonzero" fill-opacity="1"></path><path clip-path="url(#clip310)" d="M1673.27 186.028 Q1673.27 178.281 1678.25 172.781 Q1683.23 167.281 1690.38 167.281 Q1697.6 167.281 1701.33 171.978 Q1705.11 176.675 1705.11 183.419 Q1705.11 184.663 1704.79 184.904 Q1704.47 185.145 1703.06 185.145 L1680.1 185.145 Q1680.1 193.535 1682.59 197.469 Q1686.04 202.968 1691.86 202.968 Q1692.66 202.968 1693.63 202.808 Q1694.59 202.647 1696.56 201.965 Q1698.52 201.242 1700.25 199.356 Q1701.98 197.469 1702.98 194.498 Q1703.22 193.334 1704.02 193.374 Q1705.11 193.374 1705.11 194.338 Q1705.11 195.06 1704.31 196.706 Q1703.54 198.312 1702.06 200.239 Q1700.57 202.166 1697.68 203.611 Q1694.83 205.056 1691.38 205.056 Q1684.15 205.056 1678.69 199.596 Q1673.27 194.097 1673.27 186.028 M1680.18 183.419 L1699.69 183.419 Q1699.69 181.693 1699.37 179.766 Q1699.09 177.839 1698.2 175.19 Q1697.36 172.5 1695.35 170.814 Q1693.35 169.128 1690.38 169.128 Q1689.05 169.128 1687.61 169.69 Q1686.2 170.252 1684.47 171.617 Q1682.75 172.982 1681.54 176.073 Q1680.34 179.164 1680.18 183.419 Z" fill="#000000" fill-rule="nonzero" fill-opacity="1"></path><path clip-path="url(#clip310)" d="M1708.48 204.133 L1708.48 201.604 Q1714.9 201.604 1719 196.666 Q1719 196.666 1726.71 186.871 L1718.56 176.273 Q1715.67 172.58 1714.38 171.938 Q1713.14 171.256 1708.88 171.256 L1708.88 168.686 Q1712.25 168.927 1716.67 168.927 Q1719.12 168.927 1725.58 168.686 L1725.58 171.256 Q1722.69 171.416 1722.69 173.303 Q1722.69 173.945 1723.41 174.788 L1729.84 183.098 L1734.93 176.675 Q1736.18 175.19 1736.18 173.785 Q1736.18 171.496 1733.77 171.256 L1733.77 168.686 Q1736.98 168.927 1741.68 168.927 Q1745.21 168.927 1748.42 168.686 L1748.42 171.256 Q1742.16 171.416 1738.63 175.511 Q1737.06 177.237 1731.08 184.824 L1742.08 199.034 Q1743.4 200.761 1744.89 201.202 Q1746.38 201.604 1749.91 201.604 L1749.91 204.133 Q1746.21 203.892 1742 203.892 Q1740.51 203.892 1733.13 204.133 L1733.13 201.604 Q1734.61 201.523 1735.34 200.881 Q1736.1 200.199 1736.1 199.516 Q1736.1 199.195 1734.37 196.827 L1728.11 188.597 Q1721.85 195.984 1721.04 197.71 Q1720.72 198.432 1720.72 199.034 Q1720.72 201.242 1723.09 201.604 L1723.09 204.133 Q1717.19 203.892 1715.3 203.892 Q1711.69 203.892 1708.48 204.133 Z" fill="#000000" fill-rule="nonzero" fill-opacity="1"></path><polyline clip-path="url(#clip310)" style="stroke:#e26f46; stroke-linecap:round; stroke-linejoin:round; stroke-width:6.5; stroke-opacity:1; fill:none" points="1322.78,260.293 1459.08,260.293 "></polyline>
<path clip-path="url(#clip310)" d="M1481.79 288.373 L1481.79 285.844 Q1486.17 285.844 1487.17 285.322 Q1488.18 284.76 1488.18 282.11 L1488.18 260.072 Q1488.18 257.021 1487.09 256.258 Q1486.05 255.496 1481.79 255.496 L1481.79 252.926 L1493.35 252.043 L1493.35 260.674 Q1497.21 252.043 1505.52 252.043 Q1511.7 252.043 1514.15 255.094 Q1515.95 257.141 1516.32 259.43 Q1516.72 261.718 1516.72 267.659 L1516.72 283.355 Q1516.8 285.081 1518.12 285.482 Q1519.45 285.844 1523.14 285.844 L1523.14 288.373 Q1514.75 288.132 1513.91 288.132 Q1513.27 288.132 1504.63 288.373 L1504.63 285.844 Q1509.01 285.844 1510.01 285.322 Q1511.06 284.76 1511.06 282.11 L1511.06 262.962 Q1511.06 258.787 1509.77 256.339 Q1508.49 253.85 1504.96 253.85 Q1500.7 253.85 1497.29 257.422 Q1493.88 260.995 1493.88 267.017 L1493.88 282.11 Q1493.88 284.76 1494.88 285.322 Q1495.92 285.844 1500.26 285.844 L1500.26 288.373 Q1491.87 288.132 1491.07 288.132 Q1490.42 288.132 1481.79 288.373 Z" fill="#000000" fill-rule="nonzero" fill-opacity="1"></path><path clip-path="url(#clip310)" d="M1532.45 283.957 Q1527.03 278.578 1527.03 270.79 Q1527.03 262.962 1532.33 257.262 Q1537.67 251.521 1545.3 251.521 Q1552.77 251.521 1558.1 257.222 Q1563.48 262.882 1563.48 270.79 Q1563.48 278.538 1558.06 283.917 Q1552.69 289.296 1545.22 289.296 Q1537.91 289.296 1532.45 283.957 M1533.86 270.108 Q1533.86 278.096 1535.95 281.709 Q1539.16 287.208 1545.3 287.208 Q1548.35 287.208 1550.88 285.563 Q1553.45 283.917 1554.85 281.147 Q1556.66 277.534 1556.66 270.108 Q1556.66 262.199 1554.49 258.707 Q1551.28 253.368 1545.22 253.368 Q1542.57 253.368 1539.96 254.773 Q1537.39 256.138 1535.83 258.868 Q1533.86 262.48 1533.86 270.108 Z" fill="#000000" fill-rule="nonzero" fill-opacity="1"></path><path clip-path="url(#clip310)" d="M1568.5 288.373 L1568.5 285.844 Q1572.88 285.844 1573.88 285.322 Q1574.88 284.76 1574.88 282.11 L1574.88 260.072 Q1574.88 257.021 1573.8 256.258 Q1572.76 255.496 1568.5 255.496 L1568.5 252.926 L1580.06 252.043 L1580.06 260.674 Q1583.92 252.043 1592.23 252.043 Q1598.41 252.043 1600.86 255.094 Q1602.66 257.141 1603.02 259.43 Q1603.43 261.718 1603.43 267.659 L1603.43 283.355 Q1603.51 285.081 1604.83 285.482 Q1606.16 285.844 1609.85 285.844 L1609.85 288.373 Q1601.46 288.132 1600.62 288.132 Q1599.97 288.132 1591.34 288.373 L1591.34 285.844 Q1595.72 285.844 1596.72 285.322 Q1597.77 284.76 1597.77 282.11 L1597.77 262.962 Q1597.77 258.787 1596.48 256.339 Q1595.2 253.85 1591.66 253.85 Q1587.41 253.85 1584 257.422 Q1580.58 260.995 1580.58 267.017 L1580.58 282.11 Q1580.58 284.76 1581.59 285.322 Q1582.63 285.844 1586.97 285.844 L1586.97 288.373 Q1578.58 288.132 1577.77 288.132 Q1577.13 288.132 1568.5 288.373 Z" fill="#000000" fill-rule="nonzero" fill-opacity="1"></path><path clip-path="url(#clip310)" d="M1614.1 288.373 L1614.1 285.844 Q1618.48 285.844 1619.48 285.322 Q1620.49 284.76 1620.49 282.11 L1620.49 260.072 Q1620.49 257.021 1619.4 256.258 Q1618.36 255.496 1614.1 255.496 L1614.1 252.926 L1625.67 252.043 L1625.67 260.674 Q1629.52 252.043 1637.83 252.043 Q1644.01 252.043 1646.46 255.094 Q1648.27 257.141 1648.63 259.43 Q1649.03 261.718 1649.03 267.659 L1649.03 283.355 Q1649.11 285.081 1650.43 285.482 Q1651.76 285.844 1655.45 285.844 L1655.45 288.373 Q1647.06 288.132 1646.22 288.132 Q1645.58 288.132 1636.95 288.373 L1636.95 285.844 Q1641.32 285.844 1642.32 285.322 Q1643.37 284.76 1643.37 282.11 L1643.37 262.962 Q1643.37 258.787 1642.08 256.339 Q1640.8 253.85 1637.27 253.85 Q1633.01 253.85 1629.6 257.422 Q1626.19 260.995 1626.19 267.017 L1626.19 282.11 Q1626.19 284.76 1627.19 285.322 Q1628.23 285.844 1632.57 285.844 L1632.57 288.373 Q1624.18 288.132 1623.38 288.132 Q1622.73 288.132 1614.1 288.373 Z" fill="#000000" fill-rule="nonzero" fill-opacity="1"></path><path clip-path="url(#clip310)" d="M1659.35 270.268 Q1659.35 262.521 1664.32 257.021 Q1669.3 251.521 1676.45 251.521 Q1683.67 251.521 1687.41 256.218 Q1691.18 260.915 1691.18 267.659 Q1691.18 268.903 1690.86 269.144 Q1690.54 269.385 1689.13 269.385 L1666.17 269.385 Q1666.17 277.775 1668.66 281.709 Q1672.11 287.208 1677.93 287.208 Q1678.73 287.208 1679.7 287.048 Q1680.66 286.887 1682.63 286.205 Q1684.6 285.482 1686.32 283.596 Q1688.05 281.709 1689.05 278.738 Q1689.29 277.574 1690.09 277.614 Q1691.18 277.614 1691.18 278.578 Q1691.18 279.3 1690.38 280.946 Q1689.61 282.552 1688.13 284.479 Q1686.64 286.406 1683.75 287.851 Q1680.9 289.296 1677.45 289.296 Q1670.22 289.296 1664.76 283.836 Q1659.35 278.337 1659.35 270.268 M1666.25 267.659 L1685.76 267.659 Q1685.76 265.933 1685.44 264.006 Q1685.16 262.079 1684.27 259.43 Q1683.43 256.74 1681.42 255.054 Q1679.42 253.368 1676.45 253.368 Q1675.12 253.368 1673.68 253.93 Q1672.27 254.492 1670.55 255.857 Q1668.82 257.222 1667.61 260.313 Q1666.41 263.404 1666.25 267.659 Z" fill="#000000" fill-rule="nonzero" fill-opacity="1"></path><path clip-path="url(#clip310)" d="M1695.84 294.876 Q1695.84 292.226 1697.84 289.938 Q1699.89 287.65 1703.42 286.646 Q1699.81 284.358 1699.81 279.34 Q1699.81 275.487 1702.34 272.516 Q1698.48 269.305 1698.48 264.046 Q1698.48 259.189 1702.34 255.616 Q1706.19 252.043 1711.81 252.043 Q1716.75 252.043 1720.52 255.014 Q1724.46 251.16 1729.23 251.12 Q1731.36 251.12 1732.37 252.445 Q1733.41 253.769 1733.41 255.174 Q1733.41 256.419 1732.61 257.021 Q1731.84 257.623 1731.04 257.623 Q1730.04 257.623 1729.31 256.981 Q1728.63 256.298 1728.63 255.255 Q1728.63 253.529 1729.96 253.007 Q1729.72 252.926 1729.15 252.926 Q1725.14 252.926 1721.73 256.138 Q1725.1 259.269 1725.1 264.126 Q1725.1 268.984 1721.25 272.556 Q1717.39 276.129 1711.81 276.129 Q1707.2 276.129 1703.66 273.56 Q1702.26 275.206 1702.26 277.454 Q1702.26 279.501 1703.5 281.107 Q1704.75 282.712 1706.63 282.953 Q1707.2 283.034 1712.78 283.034 Q1716.07 283.034 1717.87 283.114 Q1719.68 283.194 1722.25 283.756 Q1724.86 284.278 1726.91 285.322 Q1732.24 288.292 1732.28 294.715 Q1732.28 299.412 1726.87 302.342 Q1721.49 305.313 1714.02 305.313 Q1706.47 305.313 1701.13 302.302 Q1695.84 299.332 1695.84 294.876 M1700.13 294.876 Q1700.13 298.248 1704.1 300.817 Q1708.08 303.426 1714.1 303.426 Q1720 303.426 1723.98 300.857 Q1727.99 298.328 1727.99 294.876 Q1727.99 292.427 1726.58 290.861 Q1725.18 289.296 1722.29 288.654 Q1719.44 288.051 1717.43 287.931 Q1715.42 287.811 1711.73 287.811 L1706.87 287.811 Q1704.06 287.971 1702.1 290.018 Q1700.13 292.066 1700.13 294.876 M1704.63 264.126 Q1704.63 274.242 1711.81 274.242 Q1715.42 274.242 1717.63 270.951 Q1718.96 268.743 1718.96 264.046 Q1718.96 253.93 1711.81 253.93 Q1708.2 253.93 1705.95 257.222 Q1704.63 259.43 1704.63 264.126 Z" fill="#000000" fill-rule="nonzero" fill-opacity="1"></path><path clip-path="url(#clip310)" d="M1738.11 280.545 Q1738.11 273.56 1746.34 269.867 Q1751.27 267.498 1761.47 266.896 L1761.47 263.885 Q1761.47 258.787 1758.78 256.098 Q1756.13 253.368 1752.76 253.368 Q1746.74 253.368 1743.85 257.141 Q1746.29 257.222 1747.18 258.466 Q1748.06 259.67 1748.06 260.915 Q1748.06 262.561 1747.02 263.645 Q1746.01 264.688 1744.29 264.688 Q1742.64 264.688 1741.56 263.685 Q1740.47 262.641 1740.47 260.835 Q1740.47 256.82 1744.09 254.171 Q1747.74 251.521 1752.92 251.521 Q1759.66 251.521 1764.16 256.058 Q1765.56 257.463 1766.25 259.269 Q1766.97 261.075 1767.05 262.28 Q1767.13 263.444 1767.13 265.772 L1767.13 282.191 Q1767.13 282.672 1767.29 283.475 Q1767.45 284.278 1768.17 285.322 Q1768.94 286.325 1770.18 286.325 Q1773.15 286.325 1773.11 281.067 L1773.11 276.45 L1775.2 276.45 L1775.2 281.067 Q1775.2 285.442 1772.87 287.168 Q1770.58 288.854 1768.45 288.854 Q1765.72 288.854 1764 286.847 Q1762.27 284.84 1762.03 282.11 Q1760.79 285.241 1757.94 287.289 Q1755.13 289.296 1751.27 289.296 Q1748.3 289.296 1745.49 288.533 Q1742.72 287.811 1740.39 285.763 Q1738.11 283.676 1738.11 280.545 M1744.45 280.464 Q1744.45 283.515 1746.62 285.482 Q1748.78 287.449 1751.83 287.449 Q1755.29 287.449 1758.38 284.8 Q1761.47 282.11 1761.47 276.852 L1761.47 268.622 Q1752.36 268.943 1748.38 272.596 Q1744.45 276.209 1744.45 280.464 Z" fill="#000000" fill-rule="nonzero" fill-opacity="1"></path><path clip-path="url(#clip310)" d="M1777.33 255.496 L1777.33 253.689 Q1781.1 253.529 1783.59 250.879 Q1786.12 248.19 1786.96 244.898 Q1787.84 241.606 1787.92 237.792 L1789.97 237.792 L1789.97 252.926 L1801.73 252.926 L1801.73 255.496 L1789.97 255.496 L1789.97 278.337 Q1789.97 287.208 1795.51 287.208 Q1797.88 287.208 1799.44 284.8 Q1801.01 282.351 1801.01 278.016 L1801.01 273.48 L1803.06 273.48 L1803.06 278.176 Q1803.06 282.632 1801.01 285.964 Q1798.96 289.296 1794.91 289.296 Q1793.42 289.296 1791.94 288.894 Q1790.49 288.533 1788.57 287.57 Q1786.68 286.566 1785.47 284.158 Q1784.31 281.709 1784.31 278.176 L1784.31 255.496 L1777.33 255.496 Z" fill="#000000" fill-rule="nonzero" fill-opacity="1"></path><path clip-path="url(#clip310)" d="M1810.36 288.373 L1810.36 285.844 Q1814.74 285.844 1815.74 285.322 Q1816.75 284.76 1816.75 282.11 L1816.75 259.992 Q1816.75 256.941 1815.7 256.218 Q1814.7 255.496 1810.68 255.496 L1810.68 252.926 L1822.17 252.043 L1822.17 282.191 Q1822.17 284.639 1823.05 285.241 Q1823.93 285.844 1827.95 285.844 L1827.95 288.373 Q1819.56 288.132 1819.4 288.132 Q1818.27 288.132 1810.36 288.373 M1813.82 237.712 Q1813.82 236.066 1815.06 234.742 Q1816.34 233.377 1818.15 233.377 Q1819.96 233.377 1821.24 234.621 Q1822.53 235.825 1822.53 237.752 Q1822.53 239.639 1821.24 240.883 Q1819.96 242.088 1818.15 242.088 Q1816.26 242.088 1815.02 240.763 Q1813.82 239.438 1813.82 237.712 Z" fill="#000000" fill-rule="nonzero" fill-opacity="1"></path><path clip-path="url(#clip310)" d="M1831.96 255.496 L1831.96 252.926 Q1835.65 253.167 1839.95 253.167 Q1841.51 253.167 1848.9 252.926 L1848.9 255.496 Q1844.2 255.496 1844.2 257.623 Q1844.2 257.944 1844.69 259.028 L1853.92 281.95 L1862.31 260.995 Q1862.79 259.59 1862.79 259.028 Q1862.79 257.623 1861.83 256.62 Q1860.9 255.576 1858.86 255.496 L1858.86 252.926 Q1863.03 253.167 1866 253.167 Q1869.37 253.167 1872.14 252.926 L1872.14 255.496 Q1869.69 255.496 1867.97 256.62 Q1866.24 257.703 1865.68 258.667 Q1865.16 259.59 1864.6 260.995 L1853.84 287.73 Q1853.2 289.296 1852.11 289.296 Q1851.39 289.296 1851.07 288.975 Q1850.79 288.694 1850.39 287.73 L1838.54 258.546 Q1837.74 256.499 1836.7 256.017 Q1835.65 255.496 1831.96 255.496 Z" fill="#000000" fill-rule="nonzero" fill-opacity="1"></path><path clip-path="url(#clip310)" d="M1873.71 270.268 Q1873.71 262.521 1878.69 257.021 Q1883.66 251.521 1890.81 251.521 Q1898.04 251.521 1901.77 256.218 Q1905.54 260.915 1905.54 267.659 Q1905.54 268.903 1905.22 269.144 Q1904.9 269.385 1903.49 269.385 L1880.53 269.385 Q1880.53 277.775 1883.02 281.709 Q1886.47 287.208 1892.29 287.208 Q1893.1 287.208 1894.06 287.048 Q1895.02 286.887 1896.99 286.205 Q1898.96 285.482 1900.68 283.596 Q1902.41 281.709 1903.41 278.738 Q1903.66 277.574 1904.46 277.614 Q1905.54 277.614 1905.54 278.578 Q1905.54 279.3 1904.74 280.946 Q1903.98 282.552 1902.49 284.479 Q1901.01 286.406 1898.12 287.851 Q1895.27 289.296 1891.81 289.296 Q1884.59 289.296 1879.13 283.836 Q1873.71 278.337 1873.71 270.268 M1880.61 267.659 L1900.12 267.659 Q1900.12 265.933 1899.8 264.006 Q1899.52 262.079 1898.64 259.43 Q1897.79 256.74 1895.79 255.054 Q1893.78 253.368 1890.81 253.368 Q1889.48 253.368 1888.04 253.93 Q1886.63 254.492 1884.91 255.857 Q1883.18 257.222 1881.98 260.313 Q1880.77 263.404 1880.61 267.659 Z" fill="#000000" fill-rule="nonzero" fill-opacity="1"></path><path clip-path="url(#clip310)" d="M1938.7 277.855 Q1938.7 274.804 1939.98 272.797 Q1941.27 270.79 1944.52 267.418 L1952.03 259.43 Q1948.66 250.879 1948.66 242.73 Q1948.66 236.628 1952.11 233.096 Q1955.56 229.523 1959.82 229.523 Q1961.86 229.523 1963.39 230.647 Q1964.91 231.731 1965.6 233.457 Q1966.32 235.183 1966.64 236.829 Q1967 238.475 1967 240.121 Q1967 242.65 1965.15 245.901 Q1963.35 249.153 1961.66 251.281 Q1959.98 253.368 1956.97 256.74 Q1959.25 262.761 1963.75 269.425 Q1968.29 276.049 1970.61 278.658 Q1975.87 272.155 1982.38 260.754 Q1982.86 259.269 1982.86 259.108 Q1982.86 257.543 1981.33 256.539 Q1979.81 255.496 1977 255.496 L1977 252.926 Q1980.29 253.167 1987.03 253.167 Q1990.48 253.167 1995.02 252.926 L1995.02 255.496 Q1992.29 255.496 1990.48 255.977 Q1988.68 256.459 1987.27 257.784 Q1985.91 259.108 1985.07 260.232 Q1984.26 261.316 1982.78 263.885 Q1975.79 275.888 1971.9 280.304 Q1978.08 287.61 1983.26 287.65 Q1986.55 287.65 1989.4 285.282 Q1992.29 282.873 1992.45 278.417 L1994.54 278.417 Q1994.46 283.596 1991.09 286.887 Q1987.71 290.179 1982.94 290.179 Q1975.63 290.179 1968.45 283.917 Q1961.46 290.179 1953.59 290.179 Q1947.41 290.179 1943.04 286.646 Q1938.7 283.114 1938.7 277.855 M1945.52 275.206 Q1945.52 277.855 1946.21 280.505 Q1946.93 283.114 1949.02 285.402 Q1951.1 287.65 1954.24 287.65 Q1960.98 287.65 1966.88 282.351 Q1963.67 279.14 1959.33 272.757 Q1955.56 267.338 1952.75 261.316 Q1948.82 265.09 1947.17 267.9 Q1945.52 270.67 1945.52 275.206 M1953.83 240.843 Q1953.83 247.427 1956.28 254.733 Q1964.91 245.38 1964.91 240.04 Q1964.91 239.639 1964.87 239.037 Q1964.83 238.395 1964.59 236.909 Q1964.35 235.424 1963.87 234.34 Q1963.43 233.216 1962.38 232.293 Q1961.38 231.329 1959.98 231.329 Q1957.53 231.329 1955.68 233.698 Q1953.83 236.066 1953.83 240.843 Z" fill="#000000" fill-rule="nonzero" fill-opacity="1"></path><path clip-path="url(#clip310)" d="M2028.74 288.373 L2028.74 285.844 Q2033.12 285.844 2034.12 285.322 Q2035.16 284.76 2035.16 282.11 L2035.16 260.072 Q2035.16 257.021 2034.08 256.258 Q2033.04 255.496 2028.74 255.496 L2028.74 252.926 L2040.18 252.043 L2040.18 261.075 Q2041.35 257.543 2043.79 254.813 Q2046.28 252.043 2050.3 252.043 Q2052.95 252.043 2054.63 253.529 Q2056.36 255.014 2056.36 257.061 Q2056.36 258.868 2055.24 259.791 Q2054.15 260.674 2052.83 260.674 Q2051.34 260.674 2050.3 259.751 Q2049.29 258.787 2049.29 257.141 Q2049.29 256.138 2049.74 255.375 Q2050.22 254.572 2050.58 254.291 Q2050.94 254.01 2051.18 253.93 Q2051.02 253.85 2050.3 253.85 Q2045.76 253.85 2043.15 258.386 Q2040.58 262.882 2040.58 269.305 L2040.58 281.95 Q2040.58 284.318 2041.55 285.081 Q2042.55 285.844 2046.85 285.844 L2048.57 285.844 L2048.57 288.373 Q2045.28 288.132 2038.13 288.132 Q2037.13 288.132 2035.57 288.172 Q2034 288.212 2031.95 288.292 Q2029.9 288.373 2028.74 288.373 Z" fill="#000000" fill-rule="nonzero" fill-opacity="1"></path><path clip-path="url(#clip310)" d="M2060.86 270.268 Q2060.86 262.521 2065.83 257.021 Q2070.81 251.521 2077.96 251.521 Q2085.18 251.521 2088.92 256.218 Q2092.69 260.915 2092.69 267.659 Q2092.69 268.903 2092.37 269.144 Q2092.05 269.385 2090.64 269.385 L2067.68 269.385 Q2067.68 277.775 2070.17 281.709 Q2073.62 287.208 2079.44 287.208 Q2080.24 287.208 2081.21 287.048 Q2082.17 286.887 2084.14 286.205 Q2086.11 285.482 2087.83 283.596 Q2089.56 281.709 2090.56 278.738 Q2090.8 277.574 2091.6 277.614 Q2092.69 277.614 2092.69 278.578 Q2092.69 279.3 2091.89 280.946 Q2091.12 282.552 2089.64 284.479 Q2088.15 286.406 2085.26 287.851 Q2082.41 289.296 2078.96 289.296 Q2071.73 289.296 2066.27 283.836 Q2060.86 278.337 2060.86 270.268 M2067.76 267.659 L2087.27 267.659 Q2087.27 265.933 2086.95 264.006 Q2086.67 262.079 2085.78 259.43 Q2084.94 256.74 2082.93 255.054 Q2080.93 253.368 2077.96 253.368 Q2076.63 253.368 2075.19 253.93 Q2073.78 254.492 2072.06 255.857 Q2070.33 257.222 2069.12 260.313 Q2067.92 263.404 2067.76 267.659 Z" fill="#000000" fill-rule="nonzero" fill-opacity="1"></path><path clip-path="url(#clip310)" d="M2097.79 287.289 L2097.79 276.45 Q2097.79 275.527 2097.83 275.206 Q2097.87 274.885 2098.11 274.644 Q2098.35 274.403 2098.83 274.403 Q2099.39 274.403 2099.59 274.644 Q2099.83 274.885 2099.99 275.808 Q2101.24 281.468 2103.89 284.479 Q2106.58 287.449 2111.44 287.449 Q2116.05 287.449 2118.38 285.402 Q2120.71 283.355 2120.71 279.983 Q2120.71 273.961 2112.16 272.436 Q2107.22 271.432 2105.17 270.79 Q2103.13 270.108 2101.32 268.622 Q2097.79 265.732 2097.79 261.637 Q2097.79 257.543 2100.88 254.532 Q2104.01 251.521 2110.91 251.521 Q2115.53 251.521 2118.66 253.85 Q2119.58 253.127 2120.07 252.525 Q2121.15 251.521 2121.71 251.521 Q2122.35 251.521 2122.47 251.963 Q2122.59 252.364 2122.59 253.529 L2122.59 261.798 Q2122.59 262.721 2122.55 263.042 Q2122.51 263.364 2122.27 263.604 Q2122.03 263.805 2121.51 263.805 Q2120.59 263.805 2120.55 263.042 Q2119.91 253.087 2110.91 253.087 Q2106.06 253.087 2103.89 254.974 Q2101.72 256.82 2101.72 259.349 Q2101.72 260.754 2102.36 261.838 Q2103.05 262.882 2103.89 263.524 Q2104.77 264.126 2106.38 264.728 Q2107.98 265.29 2108.95 265.491 Q2109.95 265.692 2111.84 266.093 Q2118.42 267.338 2121.19 270.027 Q2124.64 273.48 2124.64 277.855 Q2124.64 282.712 2121.35 286.004 Q2118.06 289.296 2111.44 289.296 Q2106.1 289.296 2102.36 285.723 Q2101.88 286.205 2101.52 286.646 Q2101.16 287.048 2101 287.208 Q2100.88 287.369 2100.84 287.489 Q2100.8 287.57 2100.72 287.65 Q2099.07 289.296 2098.67 289.296 Q2098.03 289.296 2097.91 288.854 Q2097.79 288.453 2097.79 287.289 Z" fill="#000000" fill-rule="nonzero" fill-opacity="1"></path><path clip-path="url(#clip310)" d="M2135.44 283.877 Q2130.22 278.417 2130.22 270.629 Q2130.22 262.802 2135.36 257.182 Q2140.5 251.521 2148.05 251.521 Q2153.06 251.521 2156.84 253.93 Q2160.61 256.298 2160.61 260.353 Q2160.61 262.159 2159.53 263.203 Q2158.48 264.207 2156.84 264.207 Q2155.11 264.207 2154.07 263.163 Q2153.06 262.079 2153.06 260.433 Q2153.06 259.711 2153.3 258.988 Q2153.55 258.265 2154.43 257.503 Q2155.35 256.74 2156.92 256.62 Q2153.99 253.609 2148.29 253.609 Q2148.21 253.609 2148.13 253.609 Q2143.95 253.609 2140.5 257.543 Q2137.05 261.477 2137.05 270.469 Q2137.05 275.166 2138.17 278.618 Q2139.33 282.03 2141.22 283.796 Q2143.11 285.563 2144.95 286.406 Q2146.8 287.208 2148.61 287.208 Q2156.68 287.208 2159.41 278.578 Q2159.65 277.775 2160.45 277.775 Q2161.53 277.775 2161.53 278.578 Q2161.53 278.979 2161.21 280.023 Q2160.89 281.067 2159.89 282.712 Q2158.88 284.358 2157.44 285.803 Q2156.03 287.208 2153.51 288.252 Q2151.02 289.296 2147.89 289.296 Q2140.66 289.296 2135.44 283.877 Z" fill="#000000" fill-rule="nonzero" fill-opacity="1"></path><path clip-path="url(#clip310)" d="M2167.35 280.545 Q2167.35 273.56 2175.58 269.867 Q2180.52 267.498 2190.72 266.896 L2190.72 263.885 Q2190.72 258.787 2188.03 256.098 Q2185.38 253.368 2182.01 253.368 Q2175.99 253.368 2173.09 257.141 Q2175.54 257.222 2176.43 258.466 Q2177.31 259.67 2177.31 260.915 Q2177.31 262.561 2176.27 263.645 Q2175.26 264.688 2173.54 264.688 Q2171.89 264.688 2170.81 263.685 Q2169.72 262.641 2169.72 260.835 Q2169.72 256.82 2173.34 254.171 Q2176.99 251.521 2182.17 251.521 Q2188.91 251.521 2193.41 256.058 Q2194.81 257.463 2195.49 259.269 Q2196.22 261.075 2196.3 262.28 Q2196.38 263.444 2196.38 265.772 L2196.38 282.191 Q2196.38 282.672 2196.54 283.475 Q2196.7 284.278 2197.42 285.322 Q2198.18 286.325 2199.43 286.325 Q2202.4 286.325 2202.36 281.067 L2202.36 276.45 L2204.45 276.45 L2204.45 281.067 Q2204.45 285.442 2202.12 287.168 Q2199.83 288.854 2197.7 288.854 Q2194.97 288.854 2193.25 286.847 Q2191.52 284.84 2191.28 282.11 Q2190.04 285.241 2187.19 287.289 Q2184.38 289.296 2180.52 289.296 Q2177.55 289.296 2174.74 288.533 Q2171.97 287.811 2169.64 285.763 Q2167.35 283.676 2167.35 280.545 M2173.7 280.464 Q2173.7 283.515 2175.86 285.482 Q2178.03 287.449 2181.08 287.449 Q2184.54 287.449 2187.63 284.8 Q2190.72 282.11 2190.72 276.852 L2190.72 268.622 Q2181.61 268.943 2177.63 272.596 Q2173.7 276.209 2173.7 280.464 Z" fill="#000000" fill-rule="nonzero" fill-opacity="1"></path><path clip-path="url(#clip310)" d="M2207.74 288.373 L2207.74 285.844 Q2212.11 285.844 2213.12 285.322 Q2214.12 284.76 2214.12 282.11 L2214.12 239.358 Q2214.12 236.307 2213.04 235.544 Q2211.99 234.782 2207.74 234.782 L2207.74 232.213 L2219.54 231.329 L2219.54 282.11 Q2219.54 284.76 2220.58 285.322 Q2221.63 285.844 2225.96 285.844 L2225.96 288.373 Q2224.96 288.373 2222.87 288.292 Q2220.78 288.212 2219.26 288.172 Q2217.73 288.132 2216.85 288.132 Q2215.89 288.132 2207.74 288.373 Z" fill="#000000" fill-rule="nonzero" fill-opacity="1"></path><path clip-path="url(#clip310)" d="M2230.06 270.268 Q2230.06 262.521 2235.04 257.021 Q2240.01 251.521 2247.16 251.521 Q2254.38 251.521 2258.12 256.218 Q2261.89 260.915 2261.89 267.659 Q2261.89 268.903 2261.57 269.144 Q2261.25 269.385 2259.84 269.385 L2236.88 269.385 Q2236.88 277.775 2239.37 281.709 Q2242.82 287.208 2248.64 287.208 Q2249.45 287.208 2250.41 287.048 Q2251.37 286.887 2253.34 286.205 Q2255.31 285.482 2257.03 283.596 Q2258.76 281.709 2259.76 278.738 Q2260 277.574 2260.81 277.614 Q2261.89 277.614 2261.89 278.578 Q2261.89 279.3 2261.09 280.946 Q2260.33 282.552 2258.84 284.479 Q2257.35 286.406 2254.46 287.851 Q2251.61 289.296 2248.16 289.296 Q2240.94 289.296 2235.48 283.836 Q2230.06 278.337 2230.06 270.268 M2236.96 267.659 L2256.47 267.659 Q2256.47 265.933 2256.15 264.006 Q2255.87 262.079 2254.99 259.43 Q2254.14 256.74 2252.14 255.054 Q2250.13 253.368 2247.16 253.368 Q2245.83 253.368 2244.39 253.93 Q2242.98 254.492 2241.26 255.857 Q2239.53 257.222 2238.33 260.313 Q2237.12 263.404 2236.96 267.659 Z" fill="#000000" fill-rule="nonzero" fill-opacity="1"></path></svg>