<svg xmlns="http://www.w3.org/2000/svg" xmlns:xlink="http://www.w3.org/1999/xlink" width="600" height="400" viewBox="0 0 2400 1600">
<defs>
  <clipPath id="clip350">
    <rect x="0" y="0" width="2400" height="1600"></rect>
  </clipPath>
</defs>
<path clip-path="url(#clip350)" d="M0 1600 L2400 1600 L2400 0 L0 0  Z" fill="#ffffff" fill-rule="evenodd" fill-opacity="1"></path>
<defs>
  <clipPath id="clip351">
    <rect x="480" y="0" width="1681" height="1600"></rect>
  </clipPath>
</defs>
<path clip-path="url(#clip350)" d="M310.645 1384.3 L2352.76 1384.3 L2352.76 47.2441 L310.645 47.2441  Z" fill="#ffffff" fill-rule="evenodd" fill-opacity="1"></path>
<defs>
  <clipPath id="clip352">
    <rect x="310" y="47" width="2043" height="1338"></rect>
  </clipPath>
</defs>
<polyline clip-path="url(#clip352)" style="stroke:#000000; stroke-linecap:round; stroke-linejoin:round; stroke-width:2; stroke-opacity:0.1; fill:none" points="360.704,1384.3 360.704,47.2441 "></polyline>
<polyline clip-path="url(#clip352)" style="stroke:#000000; stroke-linecap:round; stroke-linejoin:round; stroke-width:2; stroke-opacity:0.1; fill:none" points="747.555,1384.3 747.555,47.2441 "></polyline>
<polyline clip-path="url(#clip352)" style="stroke:#000000; stroke-linecap:round; stroke-linejoin:round; stroke-width:2; stroke-opacity:0.1; fill:none" points="1134.41,1384.3 1134.41,47.2441 "></polyline>
<polyline clip-path="url(#clip352)" style="stroke:#000000; stroke-linecap:round; stroke-linejoin:round; stroke-width:2; stroke-opacity:0.1; fill:none" points="1521.26,1384.3 1521.26,47.2441 "></polyline>
<polyline clip-path="url(#clip352)" style="stroke:#000000; stroke-linecap:round; stroke-linejoin:round; stroke-width:2; stroke-opacity:0.1; fill:none" points="1908.11,1384.3 1908.11,47.2441 "></polyline>
<polyline clip-path="url(#clip352)" style="stroke:#000000; stroke-linecap:round; stroke-linejoin:round; stroke-width:2; stroke-opacity:0.1; fill:none" points="2294.96,1384.3 2294.96,47.2441 "></polyline>
<polyline clip-path="url(#clip350)" style="stroke:#000000; stroke-linecap:round; stroke-linejoin:round; stroke-width:4; stroke-opacity:1; fill:none" points="310.645,1384.3 2352.76,1384.3 "></polyline>
<polyline clip-path="url(#clip350)" style="stroke:#000000; stroke-linecap:round; stroke-linejoin:round; stroke-width:4; stroke-opacity:1; fill:none" points="360.704,1384.3 360.704,1365.4 "></polyline>
<polyline clip-path="url(#clip350)" style="stroke:#000000; stroke-linecap:round; stroke-linejoin:round; stroke-width:4; stroke-opacity:1; fill:none" points="747.555,1384.3 747.555,1365.4 "></polyline>
<polyline clip-path="url(#clip350)" style="stroke:#000000; stroke-linecap:round; stroke-linejoin:round; stroke-width:4; stroke-opacity:1; fill:none" points="1134.41,1384.3 1134.41,1365.4 "></polyline>
<polyline clip-path="url(#clip350)" style="stroke:#000000; stroke-linecap:round; stroke-linejoin:round; stroke-width:4; stroke-opacity:1; fill:none" points="1521.26,1384.3 1521.26,1365.4 "></polyline>
<polyline clip-path="url(#clip350)" style="stroke:#000000; stroke-linecap:round; stroke-linejoin:round; stroke-width:4; stroke-opacity:1; fill:none" points="1908.11,1384.3 1908.11,1365.4 "></polyline>
<polyline clip-path="url(#clip350)" style="stroke:#000000; stroke-linecap:round; stroke-linejoin:round; stroke-width:4; stroke-opacity:1; fill:none" points="2294.96,1384.3 2294.96,1365.4 "></polyline>
<path clip-path="url(#clip350)" d="M344.733 1444.03 Q344.733 1432.88 347.549 1426.8 Q351.477 1417.76 360.741 1417.76 Q362.705 1417.76 364.743 1418.31 Q366.818 1418.83 369.412 1420.87 Q372.043 1422.91 373.636 1426.24 Q376.674 1432.69 376.674 1444.03 Q376.674 1455.11 373.858 1461.15 Q369.745 1469.97 360.667 1469.97 Q357.258 1469.97 353.774 1468.23 Q350.328 1466.48 348.142 1462.3 Q344.733 1456.03 344.733 1444.03 M351.032 1443.1 Q351.032 1454.55 351.848 1459.11 Q352.774 1464.04 355.294 1466.19 Q357.85 1468.3 360.667 1468.3 Q363.705 1468.3 366.225 1466.04 Q368.782 1463.74 369.56 1458.81 Q370.412 1453.96 370.375 1443.1 Q370.375 1432.54 369.634 1428.32 Q368.634 1423.39 365.966 1421.43 Q363.335 1419.42 360.667 1419.42 Q359.666 1419.42 358.592 1419.72 Q357.554 1420.02 356.035 1420.87 Q354.516 1421.72 353.33 1423.83 Q352.181 1425.95 351.625 1429.13 Q351.032 1433.25 351.032 1443.1 Z" fill="#000000" fill-rule="nonzero" fill-opacity="1"></path><path clip-path="url(#clip350)" d="M713.02 1456.07 Q713.02 1453.81 714.243 1452.96 Q715.465 1452.07 716.762 1452.07 Q718.504 1452.07 719.504 1453.18 Q720.542 1454.26 720.542 1455.78 Q720.542 1457.29 719.504 1458.41 Q718.504 1459.48 716.762 1459.48 Q715.91 1459.48 715.465 1459.33 Q716.466 1462.82 719.504 1465.34 Q722.58 1467.86 726.619 1467.86 Q731.695 1467.86 734.734 1462.93 Q736.55 1459.74 736.55 1452.51 Q736.55 1446.14 735.179 1442.95 Q733.067 1438.1 728.731 1438.1 Q722.58 1438.1 718.949 1443.4 Q718.504 1444.07 717.985 1444.1 Q717.244 1444.1 717.059 1443.7 Q716.911 1443.25 716.911 1442.1 L716.911 1419.65 Q716.911 1417.83 717.652 1417.83 Q717.948 1417.83 718.578 1418.05 Q723.358 1420.17 728.657 1420.2 Q734.104 1420.2 738.995 1417.98 Q739.366 1417.76 739.588 1417.76 Q740.329 1417.76 740.366 1418.61 Q740.366 1418.91 739.736 1419.79 Q739.144 1420.65 737.847 1421.8 Q736.55 1422.91 734.882 1423.98 Q733.215 1425.06 730.769 1425.8 Q728.361 1426.5 725.693 1426.5 Q722.506 1426.5 719.245 1425.5 L719.245 1440.29 Q723.173 1436.43 728.879 1436.43 Q734.956 1436.43 739.144 1441.32 Q743.331 1446.22 743.331 1453.03 Q743.331 1460.18 738.365 1465.08 Q733.437 1469.97 726.767 1469.97 Q720.69 1469.97 716.836 1465.63 Q713.02 1461.3 713.02 1456.07 Z" fill="#000000" fill-rule="nonzero" fill-opacity="1"></path><path clip-path="url(#clip350)" d="M750.149 1444.03 Q750.149 1432.88 752.965 1426.8 Q756.893 1417.76 766.157 1417.76 Q768.121 1417.76 770.159 1418.31 Q772.234 1418.83 774.828 1420.87 Q777.458 1422.91 779.052 1426.24 Q782.09 1432.69 782.09 1444.03 Q782.09 1455.11 779.274 1461.15 Q775.161 1469.97 766.083 1469.97 Q762.674 1469.97 759.19 1468.23 Q755.744 1466.48 753.558 1462.3 Q750.149 1456.03 750.149 1444.03 M756.448 1443.1 Q756.448 1454.55 757.263 1459.11 Q758.19 1464.04 760.71 1466.19 Q763.266 1468.3 766.083 1468.3 Q769.121 1468.3 771.641 1466.04 Q774.198 1463.74 774.976 1458.81 Q775.828 1453.96 775.791 1443.1 Q775.791 1432.54 775.05 1428.32 Q774.049 1423.39 771.381 1421.43 Q768.751 1419.42 766.083 1419.42 Q765.082 1419.42 764.007 1419.72 Q762.97 1420.02 761.451 1420.87 Q759.931 1421.72 758.746 1423.83 Q757.597 1425.95 757.041 1429.13 Q756.448 1433.25 756.448 1443.1 Z" fill="#000000" fill-rule="nonzero" fill-opacity="1"></path><path clip-path="url(#clip350)" d="M1082.38 1424.98 L1082.38 1422.61 Q1091.5 1422.61 1096.2 1417.76 Q1097.5 1417.76 1097.72 1418.05 Q1097.94 1418.35 1097.94 1419.72 L1097.94 1462.3 Q1097.94 1464.56 1099.06 1465.26 Q1100.17 1465.97 1105.02 1465.97 L1107.43 1465.97 L1107.43 1468.3 Q1104.76 1468.08 1095.13 1468.08 Q1085.49 1468.08 1082.86 1468.3 L1082.86 1465.97 L1085.27 1465.97 Q1090.05 1465.97 1091.2 1465.3 Q1092.35 1464.59 1092.35 1462.3 L1092.35 1422.98 Q1088.38 1424.98 1082.38 1424.98 Z" fill="#000000" fill-rule="nonzero" fill-opacity="1"></path><path clip-path="url(#clip350)" d="M1116.55 1444.03 Q1116.55 1432.88 1119.36 1426.8 Q1123.29 1417.76 1132.55 1417.76 Q1134.52 1417.76 1136.56 1418.31 Q1138.63 1418.83 1141.22 1420.87 Q1143.86 1422.91 1145.45 1426.24 Q1148.49 1432.69 1148.49 1444.03 Q1148.49 1455.11 1145.67 1461.15 Q1141.56 1469.97 1132.48 1469.97 Q1129.07 1469.97 1125.59 1468.23 Q1122.14 1466.48 1119.95 1462.3 Q1116.55 1456.03 1116.55 1444.03 M1122.85 1443.1 Q1122.85 1454.55 1123.66 1459.11 Q1124.59 1464.04 1127.11 1466.19 Q1129.66 1468.3 1132.48 1468.3 Q1135.52 1468.3 1138.04 1466.04 Q1140.59 1463.74 1141.37 1458.81 Q1142.22 1453.96 1142.19 1443.1 Q1142.19 1432.54 1141.45 1428.32 Q1140.45 1423.39 1137.78 1421.43 Q1135.15 1419.42 1132.48 1419.42 Q1131.48 1419.42 1130.4 1419.72 Q1129.37 1420.02 1127.85 1420.87 Q1126.33 1421.72 1125.14 1423.83 Q1123.99 1425.95 1123.44 1429.13 Q1122.85 1433.25 1122.85 1443.1 Z" fill="#000000" fill-rule="nonzero" fill-opacity="1"></path><path clip-path="url(#clip350)" d="M1154.49 1444.03 Q1154.49 1432.88 1157.31 1426.8 Q1161.23 1417.76 1170.5 1417.76 Q1172.46 1417.76 1174.5 1418.31 Q1176.58 1418.83 1179.17 1420.87 Q1181.8 1422.91 1183.39 1426.24 Q1186.43 1432.69 1186.43 1444.03 Q1186.43 1455.11 1183.62 1461.15 Q1179.5 1469.97 1170.42 1469.97 Q1167.01 1469.97 1163.53 1468.23 Q1160.09 1466.48 1157.9 1462.3 Q1154.49 1456.03 1154.49 1444.03 M1160.79 1443.1 Q1160.79 1454.55 1161.6 1459.11 Q1162.53 1464.04 1165.05 1466.19 Q1167.61 1468.3 1170.42 1468.3 Q1173.46 1468.3 1175.98 1466.04 Q1178.54 1463.74 1179.32 1458.81 Q1180.17 1453.96 1180.13 1443.1 Q1180.13 1432.54 1179.39 1428.32 Q1178.39 1423.39 1175.72 1421.43 Q1173.09 1419.42 1170.42 1419.42 Q1169.42 1419.42 1168.35 1419.72 Q1167.31 1420.02 1165.79 1420.87 Q1164.27 1421.72 1163.09 1423.83 Q1161.94 1425.95 1161.38 1429.13 Q1160.79 1433.25 1160.79 1443.1 Z" fill="#000000" fill-rule="nonzero" fill-opacity="1"></path><path clip-path="url(#clip350)" d="M1469.23 1424.98 L1469.23 1422.61 Q1478.35 1422.61 1483.05 1417.76 Q1484.35 1417.76 1484.57 1418.05 Q1484.8 1418.35 1484.8 1419.72 L1484.8 1462.3 Q1484.8 1464.56 1485.91 1465.26 Q1487.02 1465.97 1491.87 1465.97 L1494.28 1465.97 L1494.28 1468.3 Q1491.61 1468.08 1481.98 1468.08 Q1472.35 1468.08 1469.71 1468.3 L1469.71 1465.97 L1472.12 1465.97 Q1476.9 1465.97 1478.05 1465.3 Q1479.2 1464.59 1479.2 1462.3 L1479.2 1422.98 Q1475.24 1424.98 1469.23 1424.98 Z" fill="#000000" fill-rule="nonzero" fill-opacity="1"></path><path clip-path="url(#clip350)" d="M1504.21 1456.07 Q1504.21 1453.81 1505.44 1452.96 Q1506.66 1452.07 1507.95 1452.07 Q1509.7 1452.07 1510.7 1453.18 Q1511.73 1454.26 1511.73 1455.78 Q1511.73 1457.29 1510.7 1458.41 Q1509.7 1459.48 1507.95 1459.48 Q1507.1 1459.48 1506.66 1459.33 Q1507.66 1462.82 1510.7 1465.34 Q1513.77 1467.86 1517.81 1467.86 Q1522.89 1467.86 1525.93 1462.93 Q1527.74 1459.74 1527.74 1452.51 Q1527.74 1446.14 1526.37 1442.95 Q1524.26 1438.1 1519.92 1438.1 Q1513.77 1438.1 1510.14 1443.4 Q1509.7 1444.07 1509.18 1444.1 Q1508.44 1444.1 1508.25 1443.7 Q1508.1 1443.25 1508.1 1442.1 L1508.1 1419.65 Q1508.1 1417.83 1508.84 1417.83 Q1509.14 1417.83 1509.77 1418.05 Q1514.55 1420.17 1519.85 1420.2 Q1525.3 1420.2 1530.19 1417.98 Q1530.56 1417.76 1530.78 1417.76 Q1531.52 1417.76 1531.56 1418.61 Q1531.56 1418.91 1530.93 1419.79 Q1530.34 1420.65 1529.04 1421.8 Q1527.74 1422.91 1526.07 1423.98 Q1524.41 1425.06 1521.96 1425.8 Q1519.55 1426.5 1516.89 1426.5 Q1513.7 1426.5 1510.44 1425.5 L1510.44 1440.29 Q1514.37 1436.43 1520.07 1436.43 Q1526.15 1436.43 1530.34 1441.32 Q1534.52 1446.22 1534.52 1453.03 Q1534.52 1460.18 1529.56 1465.08 Q1524.63 1469.97 1517.96 1469.97 Q1511.88 1469.97 1508.03 1465.63 Q1504.21 1461.3 1504.21 1456.07 Z" fill="#000000" fill-rule="nonzero" fill-opacity="1"></path><path clip-path="url(#clip350)" d="M1541.34 1444.03 Q1541.34 1432.88 1544.16 1426.8 Q1548.09 1417.76 1557.35 1417.76 Q1559.31 1417.76 1561.35 1418.31 Q1563.43 1418.83 1566.02 1420.87 Q1568.65 1422.91 1570.24 1426.24 Q1573.28 1432.69 1573.28 1444.03 Q1573.28 1455.11 1570.47 1461.15 Q1566.35 1469.97 1557.28 1469.97 Q1553.87 1469.97 1550.38 1468.23 Q1546.94 1466.48 1544.75 1462.3 Q1541.34 1456.03 1541.34 1444.03 M1547.64 1443.1 Q1547.64 1454.55 1548.46 1459.11 Q1549.38 1464.04 1551.9 1466.19 Q1554.46 1468.3 1557.28 1468.3 Q1560.31 1468.3 1562.83 1466.04 Q1565.39 1463.74 1566.17 1458.81 Q1567.02 1453.96 1566.98 1443.1 Q1566.98 1432.54 1566.24 1428.32 Q1565.24 1423.39 1562.57 1421.43 Q1559.94 1419.42 1557.28 1419.42 Q1556.27 1419.42 1555.2 1419.72 Q1554.16 1420.02 1552.64 1420.87 Q1551.12 1421.72 1549.94 1423.83 Q1548.79 1425.95 1548.23 1429.13 Q1547.64 1433.25 1547.64 1443.1 Z" fill="#000000" fill-rule="nonzero" fill-opacity="1"></path><path clip-path="url(#clip350)" d="M1854.6 1468.3 Q1854.6 1466.93 1854.71 1466.52 Q1854.86 1466.11 1855.45 1465.48 L1870.02 1449.25 Q1877.98 1440.29 1877.98 1432.47 Q1877.98 1427.39 1875.32 1423.76 Q1872.68 1420.13 1867.83 1420.13 Q1864.5 1420.13 1861.68 1422.17 Q1858.86 1424.2 1857.57 1427.84 Q1857.79 1427.76 1858.57 1427.76 Q1860.46 1427.76 1861.49 1428.95 Q1862.57 1430.13 1862.57 1431.73 Q1862.57 1433.76 1861.23 1434.77 Q1859.94 1435.73 1858.64 1435.73 Q1858.12 1435.73 1857.42 1435.62 Q1856.75 1435.51 1855.68 1434.47 Q1854.6 1433.39 1854.6 1431.5 Q1854.6 1426.21 1858.6 1421.98 Q1862.64 1417.76 1868.79 1417.76 Q1875.76 1417.76 1880.32 1421.91 Q1884.91 1426.02 1884.91 1432.47 Q1884.91 1434.73 1884.21 1436.8 Q1883.54 1438.84 1882.62 1440.43 Q1881.73 1442.03 1879.28 1444.58 Q1876.83 1447.14 1874.87 1448.96 Q1872.91 1450.77 1868.5 1454.63 L1860.46 1462.45 L1874.13 1462.45 Q1880.8 1462.45 1881.32 1461.85 Q1882.06 1460.78 1882.99 1455.11 L1884.91 1455.11 L1882.76 1468.3 L1854.6 1468.3 Z" fill="#000000" fill-rule="nonzero" fill-opacity="1"></path><path clip-path="url(#clip350)" d="M1891.73 1444.03 Q1891.73 1432.88 1894.55 1426.8 Q1898.47 1417.76 1907.74 1417.76 Q1909.7 1417.76 1911.74 1418.31 Q1913.82 1418.83 1916.41 1420.87 Q1919.04 1422.91 1920.63 1426.24 Q1923.67 1432.69 1923.67 1444.03 Q1923.67 1455.11 1920.86 1461.15 Q1916.74 1469.97 1907.66 1469.97 Q1904.26 1469.97 1900.77 1468.23 Q1897.33 1466.48 1895.14 1462.3 Q1891.73 1456.03 1891.73 1444.03 M1898.03 1443.1 Q1898.03 1454.55 1898.85 1459.11 Q1899.77 1464.04 1902.29 1466.19 Q1904.85 1468.3 1907.66 1468.3 Q1910.7 1468.3 1913.22 1466.04 Q1915.78 1463.74 1916.56 1458.81 Q1917.41 1453.96 1917.37 1443.1 Q1917.37 1432.54 1916.63 1428.32 Q1915.63 1423.39 1912.96 1421.43 Q1910.33 1419.42 1907.66 1419.42 Q1906.66 1419.42 1905.59 1419.72 Q1904.55 1420.02 1903.03 1420.87 Q1901.51 1421.72 1900.33 1423.83 Q1899.18 1425.95 1898.62 1429.13 Q1898.03 1433.25 1898.03 1443.1 Z" fill="#000000" fill-rule="nonzero" fill-opacity="1"></path><path clip-path="url(#clip350)" d="M1929.68 1444.03 Q1929.68 1432.88 1932.49 1426.8 Q1936.42 1417.76 1945.68 1417.76 Q1947.65 1417.76 1949.68 1418.31 Q1951.76 1418.83 1954.35 1420.87 Q1956.98 1422.91 1958.58 1426.24 Q1961.62 1432.69 1961.62 1444.03 Q1961.62 1455.11 1958.8 1461.15 Q1954.69 1469.97 1945.61 1469.97 Q1942.2 1469.97 1938.72 1468.23 Q1935.27 1466.48 1933.08 1462.3 Q1929.68 1456.03 1929.68 1444.03 M1935.97 1443.1 Q1935.97 1454.55 1936.79 1459.11 Q1937.72 1464.04 1940.24 1466.19 Q1942.79 1468.3 1945.61 1468.3 Q1948.65 1468.3 1951.17 1466.04 Q1953.72 1463.74 1954.5 1458.81 Q1955.35 1453.96 1955.32 1443.1 Q1955.32 1432.54 1954.58 1428.32 Q1953.58 1423.39 1950.91 1421.43 Q1948.28 1419.42 1945.61 1419.42 Q1944.61 1419.42 1943.53 1419.72 Q1942.5 1420.02 1940.98 1420.87 Q1939.46 1421.72 1938.27 1423.83 Q1937.12 1425.95 1936.57 1429.13 Q1935.97 1433.25 1935.97 1443.1 Z" fill="#000000" fill-rule="nonzero" fill-opacity="1"></path><path clip-path="url(#clip350)" d="M2241.45 1468.3 Q2241.45 1466.93 2241.56 1466.52 Q2241.71 1466.11 2242.31 1465.48 L2256.87 1449.25 Q2264.83 1440.29 2264.83 1432.47 Q2264.83 1427.39 2262.17 1423.76 Q2259.54 1420.13 2254.68 1420.13 Q2251.35 1420.13 2248.53 1422.17 Q2245.71 1424.2 2244.42 1427.84 Q2244.64 1427.76 2245.42 1427.76 Q2247.31 1427.76 2248.35 1428.95 Q2249.42 1430.13 2249.42 1431.73 Q2249.42 1433.76 2248.09 1434.77 Q2246.79 1435.73 2245.49 1435.73 Q2244.97 1435.73 2244.27 1435.62 Q2243.6 1435.51 2242.53 1434.47 Q2241.45 1433.39 2241.45 1431.5 Q2241.45 1426.21 2245.45 1421.98 Q2249.49 1417.76 2255.64 1417.76 Q2262.61 1417.76 2267.17 1421.91 Q2271.76 1426.02 2271.76 1432.47 Q2271.76 1434.73 2271.06 1436.8 Q2270.39 1438.84 2269.47 1440.43 Q2268.58 1442.03 2266.13 1444.58 Q2263.69 1447.14 2261.72 1448.96 Q2259.76 1450.77 2255.35 1454.63 L2247.31 1462.45 L2260.98 1462.45 Q2267.65 1462.45 2268.17 1461.85 Q2268.91 1460.78 2269.84 1455.11 L2271.76 1455.11 L2269.61 1468.3 L2241.45 1468.3 Z" fill="#000000" fill-rule="nonzero" fill-opacity="1"></path><path clip-path="url(#clip350)" d="M2279.4 1456.07 Q2279.4 1453.81 2280.62 1452.96 Q2281.84 1452.07 2283.14 1452.07 Q2284.88 1452.07 2285.88 1453.18 Q2286.92 1454.26 2286.92 1455.78 Q2286.92 1457.29 2285.88 1458.41 Q2284.88 1459.48 2283.14 1459.48 Q2282.29 1459.48 2281.84 1459.33 Q2282.84 1462.82 2285.88 1465.34 Q2288.96 1467.86 2293 1467.86 Q2298.07 1467.86 2301.11 1462.93 Q2302.93 1459.74 2302.93 1452.51 Q2302.93 1446.14 2301.56 1442.95 Q2299.44 1438.1 2295.11 1438.1 Q2288.96 1438.1 2285.33 1443.4 Q2284.88 1444.07 2284.36 1444.1 Q2283.62 1444.1 2283.44 1443.7 Q2283.29 1443.25 2283.29 1442.1 L2283.29 1419.65 Q2283.29 1417.83 2284.03 1417.83 Q2284.33 1417.83 2284.96 1418.05 Q2289.74 1420.17 2295.03 1420.2 Q2300.48 1420.2 2305.37 1417.98 Q2305.74 1417.76 2305.97 1417.76 Q2306.71 1417.76 2306.74 1418.61 Q2306.74 1418.91 2306.11 1419.79 Q2305.52 1420.65 2304.22 1421.8 Q2302.93 1422.91 2301.26 1423.98 Q2299.59 1425.06 2297.15 1425.8 Q2294.74 1426.5 2292.07 1426.5 Q2288.88 1426.5 2285.62 1425.5 L2285.62 1440.29 Q2289.55 1436.43 2295.26 1436.43 Q2301.33 1436.43 2305.52 1441.32 Q2309.71 1446.22 2309.71 1453.03 Q2309.71 1460.18 2304.74 1465.08 Q2299.81 1469.97 2293.14 1469.97 Q2287.07 1469.97 2283.21 1465.63 Q2279.4 1461.3 2279.4 1456.07 Z" fill="#000000" fill-rule="nonzero" fill-opacity="1"></path><path clip-path="url(#clip350)" d="M2316.53 1444.03 Q2316.53 1432.88 2319.34 1426.8 Q2323.27 1417.76 2332.53 1417.76 Q2334.5 1417.76 2336.54 1418.31 Q2338.61 1418.83 2341.21 1420.87 Q2343.84 1422.91 2345.43 1426.24 Q2348.47 1432.69 2348.47 1444.03 Q2348.47 1455.11 2345.65 1461.15 Q2341.54 1469.97 2332.46 1469.97 Q2329.05 1469.97 2325.57 1468.23 Q2322.12 1466.48 2319.94 1462.3 Q2316.53 1456.03 2316.53 1444.03 M2322.83 1443.1 Q2322.83 1454.55 2323.64 1459.11 Q2324.57 1464.04 2327.09 1466.19 Q2329.64 1468.3 2332.46 1468.3 Q2335.5 1468.3 2338.02 1466.04 Q2340.58 1463.74 2341.35 1458.81 Q2342.21 1453.96 2342.17 1443.1 Q2342.17 1432.54 2341.43 1428.32 Q2340.43 1423.39 2337.76 1421.43 Q2335.13 1419.42 2332.46 1419.42 Q2331.46 1419.42 2330.38 1419.72 Q2329.35 1420.02 2327.83 1420.87 Q2326.31 1421.72 2325.12 1423.83 Q2323.97 1425.95 2323.42 1429.13 Q2322.83 1433.25 2322.83 1443.1 Z" fill="#000000" fill-rule="nonzero" fill-opacity="1"></path><path clip-path="url(#clip350)" d="M962.682 1581 L962.682 1577.89 Q968.067 1577.89 969.302 1577.25 Q970.537 1576.56 970.537 1573.3 L970.537 1546.07 Q970.537 1542.32 969.253 1541.43 Q968.018 1540.54 963.077 1540.54 L963.077 1537.38 L977.207 1536.29 L977.207 1573.4 Q977.207 1576.41 978.294 1577.15 Q979.381 1577.89 984.322 1577.89 L984.322 1581 Q973.996 1580.71 973.798 1580.71 Q972.415 1580.71 962.682 1581 M966.931 1518.65 Q966.931 1516.63 968.462 1515 Q970.043 1513.32 972.267 1513.32 Q974.49 1513.32 976.071 1514.85 Q977.652 1516.33 977.652 1518.7 Q977.652 1521.02 976.071 1522.56 Q974.49 1524.04 972.267 1524.04 Q969.945 1524.04 968.413 1522.41 Q966.931 1520.78 966.931 1518.65 Z" fill="#000000" fill-rule="nonzero" fill-opacity="1"></path><path clip-path="url(#clip350)" d="M989.263 1540.54 L989.263 1538.32 Q993.907 1538.12 996.97 1534.86 Q1000.08 1531.55 1001.12 1527.5 Q1002.21 1523.45 1002.31 1518.75 L1004.83 1518.75 L1004.83 1537.38 L1019.3 1537.38 L1019.3 1540.54 L1004.83 1540.54 L1004.83 1568.65 Q1004.83 1579.57 1011.64 1579.57 Q1014.56 1579.57 1016.49 1576.61 Q1018.41 1573.59 1018.41 1568.26 L1018.41 1562.67 L1020.93 1562.67 L1020.93 1568.45 Q1020.93 1573.94 1018.41 1578.04 Q1015.89 1582.14 1010.9 1582.14 Q1009.07 1582.14 1007.25 1581.65 Q1005.47 1581.2 1003.1 1580.02 Q1000.77 1578.78 999.292 1575.82 Q997.859 1572.8 997.859 1568.45 L997.859 1540.54 L989.263 1540.54 Z" fill="#000000" fill-rule="nonzero" fill-opacity="1"></path><path clip-path="url(#clip350)" d="M1029.38 1558.72 Q1029.38 1549.19 1035.51 1542.42 Q1041.63 1535.65 1050.43 1535.65 Q1059.32 1535.65 1063.92 1541.43 Q1068.56 1547.21 1068.56 1555.51 Q1068.56 1557.04 1068.17 1557.34 Q1067.77 1557.63 1066.04 1557.63 L1037.78 1557.63 Q1037.78 1567.96 1040.84 1572.8 Q1045.09 1579.57 1052.26 1579.57 Q1053.24 1579.57 1054.43 1579.37 Q1055.62 1579.18 1058.04 1578.34 Q1060.46 1577.45 1062.58 1575.12 Q1064.71 1572.8 1065.94 1569.15 Q1066.24 1567.71 1067.23 1567.76 Q1068.56 1567.76 1068.56 1568.95 Q1068.56 1569.84 1067.57 1571.86 Q1066.63 1573.84 1064.81 1576.21 Q1062.98 1578.58 1059.42 1580.36 Q1055.91 1582.14 1051.66 1582.14 Q1042.77 1582.14 1036.05 1575.42 Q1029.38 1568.65 1029.38 1558.72 M1037.88 1555.51 L1061.89 1555.51 Q1061.89 1553.39 1061.5 1551.01 Q1061.15 1548.64 1060.06 1545.38 Q1059.02 1542.07 1056.55 1540 Q1054.08 1537.92 1050.43 1537.92 Q1048.8 1537.92 1047.02 1538.61 Q1045.29 1539.3 1043.17 1540.98 Q1041.04 1542.66 1039.56 1546.47 Q1038.08 1550.27 1037.88 1555.51 Z" fill="#000000" fill-rule="nonzero" fill-opacity="1"></path><path clip-path="url(#clip350)" d="M1074.29 1581 L1074.29 1577.89 Q1079.68 1577.89 1080.91 1577.25 Q1082.2 1576.56 1082.2 1573.3 L1082.2 1546.17 Q1082.2 1542.42 1080.86 1541.48 Q1079.58 1540.54 1074.29 1540.54 L1074.29 1537.38 L1088.37 1536.29 L1088.37 1547.41 Q1089.81 1543.06 1092.82 1539.7 Q1095.88 1536.29 1100.82 1536.29 Q1104.08 1536.29 1106.16 1538.12 Q1108.28 1539.95 1108.28 1542.47 Q1108.28 1544.69 1106.9 1545.83 Q1105.57 1546.91 1103.94 1546.91 Q1102.11 1546.91 1100.82 1545.78 Q1099.59 1544.59 1099.59 1542.57 Q1099.59 1541.33 1100.13 1540.39 Q1100.72 1539.4 1101.17 1539.06 Q1101.61 1538.71 1101.91 1538.61 Q1101.71 1538.51 1100.82 1538.51 Q1095.24 1538.51 1092.03 1544.1 Q1088.87 1549.63 1088.87 1557.54 L1088.87 1573.1 Q1088.87 1576.01 1090.05 1576.95 Q1091.29 1577.89 1096.57 1577.89 L1098.7 1577.89 L1098.7 1581 Q1094.65 1580.71 1085.85 1580.71 Q1084.62 1580.71 1082.69 1580.76 Q1080.76 1580.81 1078.24 1580.91 Q1075.72 1581 1074.29 1581 Z" fill="#000000" fill-rule="nonzero" fill-opacity="1"></path><path clip-path="url(#clip350)" d="M1115.25 1571.37 Q1115.25 1562.77 1125.38 1558.23 Q1131.46 1555.31 1144 1554.57 L1144 1550.87 Q1144 1544.59 1140.69 1541.28 Q1137.43 1537.92 1133.28 1537.92 Q1125.87 1537.92 1122.31 1542.57 Q1125.33 1542.66 1126.42 1544.2 Q1127.5 1545.68 1127.5 1547.21 Q1127.5 1549.24 1126.22 1550.57 Q1124.98 1551.85 1122.86 1551.85 Q1120.83 1551.85 1119.5 1550.62 Q1118.16 1549.33 1118.16 1547.11 Q1118.16 1542.17 1122.61 1538.91 Q1127.11 1535.65 1133.48 1535.65 Q1141.78 1535.65 1147.31 1541.23 Q1149.04 1542.96 1149.88 1545.18 Q1150.77 1547.41 1150.87 1548.89 Q1150.97 1550.32 1150.97 1553.19 L1150.97 1573.4 Q1150.97 1573.99 1151.17 1574.98 Q1151.37 1575.96 1152.26 1577.25 Q1153.19 1578.48 1154.73 1578.48 Q1158.38 1578.48 1158.33 1572.01 L1158.33 1566.33 L1160.9 1566.33 L1160.9 1572.01 Q1160.9 1577.4 1158.04 1579.52 Q1155.22 1581.6 1152.6 1581.6 Q1149.24 1581.6 1147.12 1579.13 Q1144.99 1576.66 1144.7 1573.3 Q1143.16 1577.15 1139.66 1579.67 Q1136.2 1582.14 1131.46 1582.14 Q1127.8 1582.14 1124.34 1581.2 Q1120.93 1580.31 1118.07 1577.79 Q1115.25 1575.22 1115.25 1571.37 M1123.06 1571.27 Q1123.06 1575.03 1125.72 1577.45 Q1128.39 1579.87 1132.15 1579.87 Q1136.4 1579.87 1140.2 1576.61 Q1144 1573.3 1144 1566.82 L1144 1556.7 Q1132.79 1557.09 1127.9 1561.59 Q1123.06 1566.03 1123.06 1571.27 Z" fill="#000000" fill-rule="nonzero" fill-opacity="1"></path><path clip-path="url(#clip350)" d="M1163.52 1540.54 L1163.52 1538.32 Q1168.16 1538.12 1171.23 1534.86 Q1174.34 1531.55 1175.38 1527.5 Q1176.46 1523.45 1176.56 1518.75 L1179.08 1518.75 L1179.08 1537.38 L1193.56 1537.38 L1193.56 1540.54 L1179.08 1540.54 L1179.08 1568.65 Q1179.08 1579.57 1185.9 1579.57 Q1188.82 1579.57 1190.74 1576.61 Q1192.67 1573.59 1192.67 1568.26 L1192.67 1562.67 L1195.19 1562.67 L1195.19 1568.45 Q1195.19 1573.94 1192.67 1578.04 Q1190.15 1582.14 1185.16 1582.14 Q1183.33 1582.14 1181.5 1581.65 Q1179.73 1581.2 1177.35 1580.02 Q1175.03 1578.78 1173.55 1575.82 Q1172.12 1572.8 1172.12 1568.45 L1172.12 1540.54 L1163.52 1540.54 Z" fill="#000000" fill-rule="nonzero" fill-opacity="1"></path><path clip-path="url(#clip350)" d="M1204.18 1581 L1204.18 1577.89 Q1209.57 1577.89 1210.8 1577.25 Q1212.04 1576.56 1212.04 1573.3 L1212.04 1546.07 Q1212.04 1542.32 1210.75 1541.43 Q1209.52 1540.54 1204.58 1540.54 L1204.58 1537.38 L1218.71 1536.29 L1218.71 1573.4 Q1218.71 1576.41 1219.79 1577.15 Q1220.88 1577.89 1225.82 1577.89 L1225.82 1581 Q1215.5 1580.71 1215.3 1580.71 Q1213.91 1580.71 1204.18 1581 M1208.43 1518.65 Q1208.43 1516.63 1209.96 1515 Q1211.54 1513.32 1213.77 1513.32 Q1215.99 1513.32 1217.57 1514.85 Q1219.15 1516.33 1219.15 1518.7 Q1219.15 1521.02 1217.57 1522.56 Q1215.99 1524.04 1213.77 1524.04 Q1211.44 1524.04 1209.91 1522.41 Q1208.43 1520.78 1208.43 1518.65 Z" fill="#000000" fill-rule="nonzero" fill-opacity="1"></path><path clip-path="url(#clip350)" d="M1238.32 1575.57 Q1231.65 1568.95 1231.65 1559.36 Q1231.65 1549.73 1238.17 1542.71 Q1244.74 1535.65 1254.13 1535.65 Q1263.32 1535.65 1269.89 1542.66 Q1276.51 1549.63 1276.51 1559.36 Q1276.51 1568.9 1269.84 1575.52 Q1263.22 1582.14 1254.03 1582.14 Q1245.04 1582.14 1238.32 1575.57 M1240.05 1558.52 Q1240.05 1568.36 1242.62 1572.8 Q1246.57 1579.57 1254.13 1579.57 Q1257.89 1579.57 1261 1577.55 Q1264.16 1575.52 1265.89 1572.11 Q1268.11 1567.66 1268.11 1558.52 Q1268.11 1548.79 1265.45 1544.49 Q1261.49 1537.92 1254.03 1537.92 Q1250.77 1537.92 1247.56 1539.65 Q1244.4 1541.33 1242.47 1544.69 Q1240.05 1549.14 1240.05 1558.52 Z" fill="#000000" fill-rule="nonzero" fill-opacity="1"></path><path clip-path="url(#clip350)" d="M1282.69 1581 L1282.69 1577.89 Q1288.07 1577.89 1289.31 1577.25 Q1290.54 1576.56 1290.54 1573.3 L1290.54 1546.17 Q1290.54 1542.42 1289.21 1541.48 Q1287.93 1540.54 1282.69 1540.54 L1282.69 1537.38 L1296.92 1536.29 L1296.92 1546.91 Q1301.66 1536.29 1311.89 1536.29 Q1319.5 1536.29 1322.51 1540.05 Q1324.73 1542.57 1325.18 1545.38 Q1325.67 1548.2 1325.67 1555.51 L1325.67 1574.83 Q1325.77 1576.95 1327.4 1577.45 Q1329.03 1577.89 1333.58 1577.89 L1333.58 1581 Q1323.25 1580.71 1322.21 1580.71 Q1321.42 1580.71 1310.8 1581 L1310.8 1577.89 Q1316.19 1577.89 1317.42 1577.25 Q1318.71 1576.56 1318.71 1573.3 L1318.71 1549.73 Q1318.71 1544.59 1317.13 1541.58 Q1315.54 1538.51 1311.2 1538.51 Q1305.96 1538.51 1301.76 1542.91 Q1297.56 1547.31 1297.56 1554.72 L1297.56 1573.3 Q1297.56 1576.56 1298.8 1577.25 Q1300.08 1577.89 1305.42 1577.89 L1305.42 1581 Q1295.09 1580.71 1294.1 1580.71 Q1293.31 1580.71 1282.69 1581 Z" fill="#000000" fill-rule="nonzero" fill-opacity="1"></path><path clip-path="url(#clip350)" d="M1372.46 1581 L1372.46 1577.89 Q1377.85 1577.89 1379.08 1577.25 Q1380.32 1576.56 1380.32 1573.3 L1380.32 1546.17 Q1380.32 1542.42 1378.98 1541.48 Q1377.7 1540.54 1372.46 1540.54 L1372.46 1537.38 L1386.69 1536.29 L1386.69 1546.91 Q1391.43 1536.29 1401.66 1536.29 Q1409.27 1536.29 1412.28 1540.05 Q1414.51 1542.57 1414.95 1545.38 Q1415.44 1548.2 1415.44 1555.51 L1415.44 1574.83 Q1415.54 1576.95 1417.17 1577.45 Q1418.8 1577.89 1423.35 1577.89 L1423.35 1581 Q1413.02 1580.71 1411.99 1580.71 Q1411.2 1580.71 1400.57 1581 L1400.57 1577.89 Q1405.96 1577.89 1407.19 1577.25 Q1408.48 1576.56 1408.48 1573.3 L1408.48 1549.73 Q1408.48 1544.59 1406.9 1541.58 Q1405.32 1538.51 1400.97 1538.51 Q1395.73 1538.51 1391.53 1542.91 Q1387.33 1547.31 1387.33 1554.72 L1387.33 1573.3 Q1387.33 1576.56 1388.57 1577.25 Q1389.85 1577.89 1395.19 1577.89 L1395.19 1581 Q1384.86 1580.71 1383.87 1580.71 Q1383.08 1580.71 1372.46 1581 Z" fill="#000000" fill-rule="nonzero" fill-opacity="1"></path><path clip-path="url(#clip350)" d="M1425.77 1540.54 L1425.77 1537.38 L1440.64 1536.29 L1440.64 1569.89 Q1440.64 1572.31 1440.84 1573.74 Q1441.04 1575.12 1441.83 1576.75 Q1442.67 1578.39 1444.55 1579.13 Q1446.47 1579.87 1449.54 1579.87 Q1455.02 1579.87 1458.38 1575.37 Q1461.79 1570.88 1461.79 1564.21 L1461.79 1546.17 Q1461.79 1542.42 1460.45 1541.48 Q1459.12 1540.54 1453.88 1540.54 L1453.88 1537.38 L1468.75 1536.29 L1468.75 1572.21 Q1468.75 1575.96 1470.04 1576.95 Q1471.37 1577.89 1476.66 1577.89 L1476.66 1581 L1462.08 1582.14 L1462.08 1573 Q1457.84 1582.09 1449.04 1582.14 Q1444.59 1582.14 1441.53 1581 Q1438.52 1579.87 1436.99 1578.48 Q1435.45 1577.05 1434.61 1574.33 Q1433.82 1571.62 1433.73 1569.94 Q1433.63 1568.26 1433.63 1565 L1433.63 1549.83 Q1433.63 1542.96 1432.64 1541.77 Q1431.65 1540.54 1425.77 1540.54 Z" fill="#000000" fill-rule="nonzero" fill-opacity="1"></path><path clip-path="url(#clip350)" d="M1481.9 1581 L1481.9 1577.89 Q1487.28 1577.89 1488.52 1577.25 Q1489.75 1576.56 1489.75 1573.3 L1489.75 1546.17 Q1489.75 1542.42 1488.42 1541.48 Q1487.13 1540.54 1481.9 1540.54 L1481.9 1537.38 L1496.13 1536.29 L1496.13 1546.91 Q1500.87 1536.29 1511.1 1536.29 Q1522.95 1536.29 1524.58 1546.17 Q1526.31 1542.32 1529.92 1539.3 Q1533.58 1536.29 1539.26 1536.29 Q1546.87 1536.29 1549.88 1540.05 Q1552.1 1542.57 1552.55 1545.38 Q1552.99 1548.2 1552.99 1555.51 L1552.99 1574.83 Q1553.09 1576.95 1554.72 1577.45 Q1556.35 1577.89 1560.9 1577.89 L1560.9 1581 Q1550.57 1580.71 1549.58 1580.71 Q1548.79 1580.71 1538.12 1581 L1538.12 1577.89 Q1543.51 1577.89 1544.74 1577.25 Q1546.03 1576.56 1546.03 1573.3 L1546.03 1549.73 Q1546.03 1544.59 1544.45 1541.58 Q1542.86 1538.51 1538.52 1538.51 Q1533.28 1538.51 1529.08 1542.91 Q1524.88 1547.31 1524.88 1554.72 L1524.88 1573.3 Q1524.88 1576.56 1526.12 1577.25 Q1527.4 1577.89 1532.79 1577.89 L1532.79 1581 Q1522.46 1580.71 1521.42 1580.71 Q1520.63 1580.71 1510.01 1581 L1510.01 1577.89 Q1515.39 1577.89 1516.63 1577.25 Q1517.91 1576.56 1517.91 1573.3 L1517.91 1549.73 Q1517.91 1544.59 1516.33 1541.58 Q1514.75 1538.51 1510.4 1538.51 Q1505.17 1538.51 1500.97 1542.91 Q1496.77 1547.31 1496.77 1554.72 L1496.77 1573.3 Q1496.77 1576.56 1498 1577.25 Q1499.29 1577.89 1504.62 1577.89 L1504.62 1581 Q1494.3 1580.71 1493.31 1580.71 Q1492.52 1580.71 1481.9 1581 Z" fill="#000000" fill-rule="nonzero" fill-opacity="1"></path><path clip-path="url(#clip350)" d="M1562.87 1515.05 L1562.87 1511.88 L1577.45 1510.8 L1577.45 1542.86 Q1583.33 1536.29 1591.33 1536.29 Q1600.03 1536.29 1606.4 1542.96 Q1612.78 1549.63 1612.78 1559.17 Q1612.78 1568.8 1606.11 1575.47 Q1599.44 1582.14 1590.2 1582.14 Q1581.8 1582.14 1576.96 1574.73 Q1573.4 1580.91 1573.3 1581 L1570.78 1581 L1570.78 1520.68 Q1570.78 1516.92 1569.45 1515.98 Q1568.11 1515.05 1562.87 1515.05 M1577.75 1569.49 Q1577.75 1571.62 1579.18 1573.74 Q1583.18 1579.87 1589.7 1579.87 Q1589.75 1579.87 1589.8 1579.87 Q1596.87 1579.87 1601.26 1573.4 Q1604.38 1568.55 1604.38 1559.07 Q1604.38 1549.68 1601.46 1544.99 Q1597.41 1538.51 1590.84 1538.51 Q1583.43 1538.51 1578.88 1544.99 Q1577.75 1546.62 1577.75 1548.64 L1577.75 1569.49 Z" fill="#000000" fill-rule="nonzero" fill-opacity="1"></path><path clip-path="url(#clip350)" d="M1621.82 1558.72 Q1621.82 1549.19 1627.94 1542.42 Q1634.07 1535.65 1642.86 1535.65 Q1651.76 1535.65 1656.35 1541.43 Q1661 1547.21 1661 1555.51 Q1661 1557.04 1660.6 1557.34 Q1660.21 1557.63 1658.48 1557.63 L1630.22 1557.63 Q1630.22 1567.96 1633.28 1572.8 Q1637.53 1579.57 1644.69 1579.57 Q1645.68 1579.57 1646.87 1579.37 Q1648.05 1579.18 1650.47 1578.34 Q1652.89 1577.45 1655.02 1575.12 Q1657.14 1572.8 1658.38 1569.15 Q1658.67 1567.71 1659.66 1567.76 Q1661 1567.76 1661 1568.95 Q1661 1569.84 1660.01 1571.86 Q1659.07 1573.84 1657.24 1576.21 Q1655.41 1578.58 1651.86 1580.36 Q1648.35 1582.14 1644.1 1582.14 Q1635.21 1582.14 1628.49 1575.42 Q1621.82 1568.65 1621.82 1558.72 M1630.31 1555.51 L1654.33 1555.51 Q1654.33 1553.39 1653.93 1551.01 Q1653.59 1548.64 1652.5 1545.38 Q1651.46 1542.07 1648.99 1540 Q1646.52 1537.92 1642.86 1537.92 Q1641.23 1537.92 1639.45 1538.61 Q1637.73 1539.3 1635.6 1540.98 Q1633.48 1542.66 1631.99 1546.47 Q1630.51 1550.27 1630.31 1555.51 Z" fill="#000000" fill-rule="nonzero" fill-opacity="1"></path><path clip-path="url(#clip350)" d="M1666.73 1581 L1666.73 1577.89 Q1672.11 1577.89 1673.35 1577.25 Q1674.63 1576.56 1674.63 1573.3 L1674.63 1546.17 Q1674.63 1542.42 1673.3 1541.48 Q1672.01 1540.54 1666.73 1540.54 L1666.73 1537.38 L1680.81 1536.29 L1680.81 1547.41 Q1682.24 1543.06 1685.26 1539.7 Q1688.32 1536.29 1693.26 1536.29 Q1696.52 1536.29 1698.59 1538.12 Q1700.72 1539.95 1700.72 1542.47 Q1700.72 1544.69 1699.34 1545.83 Q1698 1546.91 1696.37 1546.91 Q1694.54 1546.91 1693.26 1545.78 Q1692.02 1544.59 1692.02 1542.57 Q1692.02 1541.33 1692.57 1540.39 Q1693.16 1539.4 1693.6 1539.06 Q1694.05 1538.71 1694.35 1538.61 Q1694.15 1538.51 1693.26 1538.51 Q1687.68 1538.51 1684.46 1544.1 Q1681.3 1549.63 1681.3 1557.54 L1681.3 1573.1 Q1681.3 1576.01 1682.49 1576.95 Q1683.72 1577.89 1689.01 1577.89 L1691.13 1577.89 L1691.13 1581 Q1687.08 1580.71 1678.29 1580.71 Q1677.05 1580.71 1675.13 1580.76 Q1673.2 1580.81 1670.68 1580.91 Q1668.16 1581 1666.73 1581 Z" fill="#000000" fill-rule="nonzero" fill-opacity="1"></path><polyline clip-path="url(#clip352)" style="stroke:#000000; stroke-linecap:round; stroke-linejoin:round; stroke-width:2; stroke-opacity:0.1; fill:none" points="310.645,1258.16 2352.76,1258.16 "></polyline>
<polyline clip-path="url(#clip352)" style="stroke:#000000; stroke-linecap:round; stroke-linejoin:round; stroke-width:2; stroke-opacity:0.1; fill:none" points="310.645,639.068 2352.76,639.068 "></polyline>
<polyline clip-path="url(#clip350)" style="stroke:#000000; stroke-linecap:round; stroke-linejoin:round; stroke-width:4; stroke-opacity:1; fill:none" points="310.645,1384.3 310.645,47.2441 "></polyline>
<polyline clip-path="url(#clip350)" style="stroke:#000000; stroke-linecap:round; stroke-linejoin:round; stroke-width:4; stroke-opacity:1; fill:none" points="310.645,1258.16 329.543,1258.16 "></polyline>
<polyline clip-path="url(#clip350)" style="stroke:#000000; stroke-linecap:round; stroke-linejoin:round; stroke-width:4; stroke-opacity:1; fill:none" points="310.645,639.068 329.543,639.068 "></polyline>
<path clip-path="url(#clip350)" d="M135.86 1250.43 L135.86 1248.06 Q144.976 1248.06 149.682 1243.21 Q150.979 1243.21 151.201 1243.5 Q151.423 1243.8 151.423 1245.17 L151.423 1287.75 Q151.423 1290.01 152.535 1290.71 Q153.647 1291.42 158.501 1291.42 L160.909 1291.42 L160.909 1293.75 Q158.241 1293.53 148.607 1293.53 Q138.973 1293.53 136.342 1293.75 L136.342 1291.42 L138.75 1291.42 Q143.531 1291.42 144.679 1290.75 Q145.828 1290.05 145.828 1287.75 L145.828 1248.43 Q141.863 1250.43 135.86 1250.43 Z" fill="#000000" fill-rule="nonzero" fill-opacity="1"></path><path clip-path="url(#clip350)" d="M170.025 1269.48 Q170.025 1258.33 172.841 1252.25 Q176.769 1243.21 186.033 1243.21 Q187.997 1243.21 190.035 1243.76 Q192.11 1244.28 194.704 1246.32 Q197.334 1248.36 198.928 1251.69 Q201.966 1258.14 201.966 1269.48 Q201.966 1280.56 199.15 1286.6 Q195.037 1295.42 185.959 1295.42 Q182.55 1295.42 179.066 1293.68 Q175.62 1291.93 173.434 1287.75 Q170.025 1281.49 170.025 1269.48 M176.324 1268.55 Q176.324 1280 177.139 1284.56 Q178.066 1289.49 180.586 1291.64 Q183.142 1293.75 185.959 1293.75 Q188.997 1293.75 191.517 1291.49 Q194.074 1289.19 194.852 1284.26 Q195.704 1279.41 195.667 1268.55 Q195.667 1257.99 194.926 1253.77 Q193.925 1248.84 191.257 1246.88 Q188.627 1244.88 185.959 1244.88 Q184.958 1244.88 183.883 1245.17 Q182.846 1245.47 181.327 1246.32 Q179.807 1247.17 178.622 1249.28 Q177.473 1251.4 176.917 1254.58 Q176.324 1258.7 176.324 1268.55 Z" fill="#000000" fill-rule="nonzero" fill-opacity="1"></path><path clip-path="url(#clip350)" d="M242.671 1236.35 Q243.033 1236.71 243.033 1237.22 Q243.033 1237.73 242.671 1238.09 Q242.31 1238.45 241.798 1238.45 L203.201 1238.45 Q202.689 1238.45 202.328 1238.09 Q201.966 1237.73 201.966 1237.22 Q201.966 1236.71 202.328 1236.35 Q202.689 1235.99 203.201 1235.99 L241.798 1235.99 Q242.31 1235.99 242.671 1236.35 Z" fill="#000000" fill-rule="nonzero" fill-opacity="1"></path><path clip-path="url(#clip350)" d="M249.054 1244.33 Q249.054 1242.49 250.108 1241.62 Q251.162 1240.74 252.516 1240.74 Q253.931 1240.74 254.925 1241.68 Q255.949 1242.58 255.949 1244.17 Q255.949 1245.89 254.744 1246.85 Q253.57 1247.82 251.884 1247.58 Q253.359 1250.05 256.069 1251.16 Q258.809 1252.27 261.338 1252.27 Q263.987 1252.27 266.125 1249.99 Q268.293 1247.7 268.293 1242.1 Q268.293 1237.34 266.426 1234.6 Q264.589 1231.86 260.946 1231.86 L258.237 1231.86 Q257.303 1231.86 257.032 1231.77 Q256.761 1231.68 256.761 1231.17 Q256.761 1230.57 257.695 1230.45 Q258.628 1230.45 260.103 1230.27 Q263.686 1230.14 265.583 1227.04 Q267.299 1224.15 267.299 1220.03 Q267.299 1216.27 265.493 1214.7 Q263.716 1213.1 261.398 1213.1 Q259.23 1213.1 256.852 1214.01 Q254.473 1214.91 253.179 1216.93 Q257.002 1216.93 257.002 1220.03 Q257.002 1221.38 256.129 1222.29 Q255.286 1223.16 253.871 1223.16 Q252.516 1223.16 251.613 1222.32 Q250.71 1221.44 250.71 1219.97 Q250.71 1216.45 253.841 1214.01 Q257.002 1211.57 261.639 1211.57 Q266.215 1211.57 269.587 1213.98 Q272.989 1216.39 272.989 1220.09 Q272.989 1223.73 270.581 1226.71 Q268.172 1229.69 264.349 1230.93 Q269.045 1231.86 271.845 1235.05 Q274.645 1238.21 274.645 1242.1 Q274.645 1246.91 270.852 1250.47 Q267.058 1253.99 261.518 1253.99 Q256.4 1253.99 252.727 1251.22 Q249.054 1248.45 249.054 1244.33 Z" fill="#000000" fill-rule="nonzero" fill-opacity="1"></path><path clip-path="url(#clip350)" d="M182.587 631.342 L182.587 628.97 Q191.702 628.97 196.408 624.116 Q197.705 624.116 197.927 624.412 Q198.15 624.709 198.15 626.08 L198.15 668.656 Q198.15 670.916 199.261 671.62 Q200.373 672.324 205.227 672.324 L207.636 672.324 L207.636 674.659 Q204.968 674.437 195.333 674.437 Q185.699 674.437 183.068 674.659 L183.068 672.324 L185.477 672.324 Q190.257 672.324 191.406 671.657 Q192.554 670.953 192.554 668.656 L192.554 629.341 Q188.589 631.342 182.587 631.342 Z" fill="#000000" fill-rule="nonzero" fill-opacity="1"></path><path clip-path="url(#clip350)" d="M216.751 650.388 Q216.751 639.234 219.567 633.157 Q223.495 624.116 232.759 624.116 Q234.723 624.116 236.761 624.672 Q238.836 625.19 241.43 627.228 Q244.061 629.267 245.654 632.601 Q248.693 639.049 248.693 650.388 Q248.693 661.467 245.877 667.507 Q241.763 676.326 232.685 676.326 Q229.276 676.326 225.793 674.585 Q222.347 672.843 220.16 668.656 Q216.751 662.394 216.751 650.388 M223.051 649.462 Q223.051 660.912 223.866 665.469 Q224.792 670.398 227.312 672.547 Q229.869 674.659 232.685 674.659 Q235.723 674.659 238.243 672.399 Q240.8 670.101 241.578 665.173 Q242.43 660.319 242.393 649.462 Q242.393 638.901 241.652 634.677 Q240.652 629.748 237.984 627.784 Q235.353 625.783 232.685 625.783 Q231.684 625.783 230.61 626.08 Q229.572 626.376 228.053 627.228 Q226.534 628.081 225.348 630.193 Q224.199 632.305 223.644 635.492 Q223.051 639.605 223.051 649.462 Z" fill="#000000" fill-rule="nonzero" fill-opacity="1"></path><path clip-path="url(#clip350)" d="M248.693 613.823 Q248.693 604.761 250.981 599.823 Q254.172 592.477 261.699 592.477 Q263.295 592.477 264.951 592.929 Q266.637 593.35 268.744 595.006 Q270.882 596.662 272.176 599.372 Q274.645 604.61 274.645 613.823 Q274.645 622.825 272.357 627.733 Q269.015 634.898 261.639 634.898 Q258.869 634.898 256.039 633.483 Q253.239 632.068 251.463 628.666 Q248.693 623.578 248.693 613.823 M253.811 613.07 Q253.811 622.374 254.473 626.077 Q255.226 630.081 257.273 631.827 Q259.351 633.543 261.639 633.543 Q264.108 633.543 266.155 631.707 Q268.232 629.84 268.865 625.836 Q269.557 621.892 269.527 613.07 Q269.527 604.49 268.925 601.058 Q268.112 597.053 265.944 595.458 Q263.807 593.832 261.639 593.832 Q260.826 593.832 259.953 594.073 Q259.11 594.314 257.875 595.006 Q256.641 595.699 255.678 597.415 Q254.744 599.131 254.293 601.72 Q253.811 605.062 253.811 613.07 Z" fill="#000000" fill-rule="nonzero" fill-opacity="1"></path><path clip-path="url(#clip350)" d="M38.6601 1123.67 L35.498 1123.67 Q35.7945 1119.13 35.7945 1113.84 Q35.7945 1111.92 35.498 1102.82 L38.6601 1102.82 Q38.6601 1108.6 41.2786 1108.6 Q41.6739 1108.6 43.0078 1108.01 L71.2191 1096.65 L45.4288 1086.32 Q43.6995 1085.73 43.0078 1085.73 Q41.2786 1085.73 40.0434 1086.92 Q38.7589 1088.05 38.6601 1090.57 L35.498 1090.57 Q35.7945 1085.43 35.7945 1081.78 Q35.7945 1077.63 35.498 1074.22 L38.6601 1074.22 Q38.6601 1077.23 40.0434 1079.36 Q41.3774 1081.48 42.5632 1082.17 Q43.6995 1082.81 45.4288 1083.51 L78.3336 1096.75 Q80.2605 1097.54 80.2605 1098.87 Q80.2605 1099.76 79.8653 1100.16 Q79.5194 1100.5 78.3336 1101 L42.415 1115.57 Q39.8952 1116.56 39.3023 1117.84 Q38.6601 1119.13 38.6601 1123.67 Z" fill="#000000" fill-rule="nonzero" fill-opacity="1"></path><path clip-path="url(#clip350)" d="M56.8417 1072.29 Q47.3062 1072.29 40.5375 1066.16 Q33.7688 1060.04 33.7688 1051.24 Q33.7688 1042.35 39.5494 1037.76 Q45.33 1033.11 53.6303 1033.11 Q55.1619 1033.11 55.4583 1033.51 Q55.7548 1033.9 55.7548 1035.63 L55.7548 1063.89 Q66.0808 1063.89 70.9226 1060.83 Q77.6914 1056.58 77.6914 1049.42 Q77.6914 1048.43 77.4937 1047.24 Q77.2961 1046.06 76.4562 1043.63 Q75.5669 1041.21 73.2448 1039.09 Q70.9226 1036.97 67.2665 1035.73 Q65.8338 1035.43 65.8832 1034.45 Q65.8832 1033.11 67.0689 1033.11 Q67.9582 1033.11 69.9839 1034.1 Q71.9602 1035.04 74.3317 1036.87 Q76.7032 1038.69 78.4819 1042.25 Q80.2605 1045.76 80.2605 1050.01 Q80.2605 1058.9 73.5412 1065.62 Q66.7725 1072.29 56.8417 1072.29 M53.6303 1063.79 L53.6303 1039.78 Q51.5058 1039.78 49.1343 1040.18 Q46.7628 1040.52 43.5019 1041.61 Q40.1917 1042.65 38.1166 1045.12 Q36.0415 1047.59 36.0415 1051.24 Q36.0415 1052.87 36.7332 1054.65 Q37.4249 1056.38 39.1047 1058.51 Q40.7845 1060.63 44.5889 1062.11 Q48.3932 1063.6 53.6303 1063.79 Z" fill="#000000" fill-rule="nonzero" fill-opacity="1"></path><path clip-path="url(#clip350)" d="M73.5906 1020.31 Q66.8713 1026.74 57.2864 1026.74 Q47.6521 1026.74 40.7351 1020.41 Q33.7688 1014.09 33.7688 1004.8 Q33.7688 998.625 36.7332 993.981 Q39.6482 989.337 44.6383 989.337 Q46.8616 989.337 48.1461 990.671 Q49.3813 991.956 49.3813 993.981 Q49.3813 996.106 48.0967 997.39 Q46.7628 998.625 44.7371 998.625 Q43.8478 998.625 42.9584 998.329 Q42.0691 998.033 41.1304 996.946 Q40.1917 995.809 40.0434 993.882 Q36.3379 997.489 36.3379 1004.5 Q36.3379 1004.6 36.3379 1004.7 Q36.3379 1009.84 41.1798 1014.09 Q46.0217 1018.34 57.0888 1018.34 Q62.8693 1018.34 67.1183 1016.96 Q71.3179 1015.52 73.4918 1013.2 Q75.6657 1010.88 76.7032 1008.61 Q77.6914 1006.33 77.6914 1004.11 Q77.6914 994.179 67.0689 990.819 Q66.0808 990.523 66.0808 989.535 Q66.0808 988.201 67.0689 988.201 Q67.563 988.201 68.8476 988.596 Q70.1321 988.991 72.1578 990.226 Q74.1835 991.461 75.9621 993.24 Q77.6914 994.969 78.9759 998.082 Q80.2605 1001.15 80.2605 1005 Q80.2605 1013.89 73.5906 1020.31 Z" fill="#000000" fill-rule="nonzero" fill-opacity="1"></path><path clip-path="url(#clip350)" d="M38.6601 983.359 L36.4368 983.359 Q36.2391 978.715 32.9783 975.651 Q29.668 972.539 25.6167 971.501 Q21.5653 970.414 16.8717 970.315 L16.8717 967.796 L35.498 967.796 L35.498 953.319 L38.6601 953.319 L38.6601 967.796 L66.7725 967.796 Q77.6914 967.796 77.6914 960.978 Q77.6914 958.063 74.727 956.136 Q71.7131 954.209 66.3772 954.209 L60.7943 954.209 L60.7943 951.689 L66.5749 951.689 Q72.059 951.689 76.1598 954.209 Q80.2605 956.729 80.2605 961.719 Q80.2605 963.547 79.7664 965.375 Q79.3218 967.153 78.136 969.525 Q76.9009 971.847 73.9365 973.329 Q70.9226 974.762 66.5749 974.762 L38.6601 974.762 L38.6601 983.359 Z" fill="#000000" fill-rule="nonzero" fill-opacity="1"></path><path clip-path="url(#clip350)" d="M73.6894 936.571 Q67.0689 943.241 57.484 943.241 Q47.8497 943.241 40.834 936.719 Q33.7688 930.148 33.7688 920.76 Q33.7688 911.571 40.7845 905 Q47.7509 898.379 57.484 898.379 Q67.0195 898.379 73.64 905.049 Q80.2605 911.67 80.2605 920.859 Q80.2605 929.851 73.6894 936.571 M56.6441 934.841 Q66.476 934.841 70.9226 932.272 Q77.6914 928.32 77.6914 920.76 Q77.6914 917.006 75.6657 913.893 Q73.64 910.731 70.2309 909.002 Q65.7843 906.778 56.6441 906.778 Q46.911 906.778 42.6126 909.446 Q36.0415 913.399 36.0415 920.859 Q36.0415 924.12 37.7707 927.332 Q39.4506 930.494 42.8102 932.42 Q47.2568 934.841 56.6441 934.841 Z" fill="#000000" fill-rule="nonzero" fill-opacity="1"></path><path clip-path="url(#clip350)" d="M79.1242 892.648 L76.0115 892.648 Q76.0115 887.263 75.3692 886.028 Q74.6776 884.743 71.4167 884.743 L44.2924 884.743 Q40.5375 884.743 39.5988 886.077 Q38.6601 887.362 38.6601 892.648 L35.498 892.648 L34.4111 878.567 L45.5276 878.567 Q41.1798 877.134 37.8201 874.121 Q34.4111 871.057 34.4111 866.117 Q34.4111 862.856 36.2391 860.781 Q38.0672 858.656 40.5869 858.656 Q42.8102 858.656 43.9466 860.04 Q45.0335 861.374 45.0335 863.004 Q45.0335 864.832 43.8972 866.117 Q42.7114 867.352 40.6857 867.352 Q39.4506 867.352 38.5118 866.808 Q37.5237 866.215 37.1779 865.771 Q36.832 865.326 36.7332 865.03 Q36.6344 865.227 36.6344 866.117 Q36.6344 871.7 42.2173 874.911 Q47.7509 878.073 55.656 878.073 L71.2191 878.073 Q74.1341 878.073 75.0728 876.887 Q76.0115 875.652 76.0115 870.366 L76.0115 868.241 L79.1242 868.241 Q78.8277 872.292 78.8277 881.087 Q78.8277 882.322 78.8771 884.249 Q78.9265 886.176 79.0253 888.695 Q79.1242 891.215 79.1242 892.648 Z" fill="#000000" fill-rule="nonzero" fill-opacity="1"></path><path clip-path="url(#clip350)" d="M60.3002 854.951 L54.322 854.951 L54.322 828.024 L60.3002 828.024 L60.3002 854.951 Z" fill="#000000" fill-rule="nonzero" fill-opacity="1"></path><path clip-path="url(#clip350)" d="M77.7902 818.933 L64.4504 818.933 Q63.314 818.933 62.9188 818.884 Q62.5235 818.834 62.2271 818.538 Q61.9306 818.242 61.9306 817.649 Q61.9306 816.957 62.2271 816.71 Q62.5235 816.413 63.6599 816.216 Q70.6262 814.684 74.3317 811.423 Q77.9878 808.113 77.9878 802.135 Q77.9878 796.453 75.4681 793.588 Q72.9483 790.722 68.7982 790.722 Q61.3871 790.722 59.5097 801.246 Q58.2745 807.323 57.484 809.842 Q56.6441 812.362 54.8161 814.585 Q51.2588 818.933 46.2193 818.933 Q41.1798 818.933 37.4743 815.129 Q33.7688 811.275 33.7688 802.777 Q33.7688 797.095 36.6344 793.242 Q35.7451 792.105 35.004 791.512 Q33.7688 790.178 33.7688 789.487 Q33.7688 788.696 34.3123 788.548 Q34.8063 788.4 36.2391 788.4 L46.4169 788.4 Q47.5533 788.4 47.9485 788.449 Q48.3438 788.499 48.6402 788.795 Q48.8872 789.092 48.8872 789.734 Q48.8872 790.87 47.9485 790.92 Q35.6957 791.71 35.6957 802.777 Q35.6957 808.755 38.0178 811.423 Q40.2905 814.091 43.4031 814.091 Q45.1323 814.091 46.4663 813.301 Q47.7509 812.461 48.5414 811.423 Q49.2825 810.336 50.0236 808.36 Q50.7153 806.384 50.9623 805.198 Q51.2094 803.963 51.7034 801.641 Q53.235 793.538 56.5453 790.129 Q60.7943 785.88 66.1796 785.88 Q72.1578 785.88 76.2092 789.931 Q80.2605 793.983 80.2605 802.135 Q80.2605 808.706 75.8633 813.301 Q76.4562 813.894 76.9997 814.338 Q77.4937 814.783 77.6914 814.981 Q77.889 815.129 78.0372 815.178 Q78.136 815.228 78.2348 815.327 Q80.2605 817.352 80.2605 817.846 Q80.2605 818.637 79.717 818.785 Q79.223 818.933 77.7902 818.933 Z" fill="#000000" fill-rule="nonzero" fill-opacity="1"></path><path clip-path="url(#clip350)" d="M56.8417 779.655 Q47.3062 779.655 40.5375 773.528 Q33.7688 767.402 33.7688 758.608 Q33.7688 749.714 39.5494 745.12 Q45.33 740.475 53.6303 740.475 Q55.1619 740.475 55.4583 740.871 Q55.7548 741.266 55.7548 742.995 L55.7548 771.256 Q66.0808 771.256 70.9226 768.192 Q77.6914 763.944 77.6914 756.78 Q77.6914 755.791 77.4937 754.606 Q77.2961 753.42 76.4562 750.999 Q75.5669 748.578 73.2448 746.454 Q70.9226 744.329 67.2665 743.094 Q65.8338 742.797 65.8832 741.809 Q65.8832 740.475 67.0689 740.475 Q67.9582 740.475 69.9839 741.463 Q71.9602 742.402 74.3317 744.23 Q76.7032 746.058 78.4819 749.616 Q80.2605 753.123 80.2605 757.372 Q80.2605 766.266 73.5412 772.985 Q66.7725 779.655 56.8417 779.655 M53.6303 771.157 L53.6303 747.145 Q51.5058 747.145 49.1343 747.54 Q46.7628 747.886 43.5019 748.973 Q40.1917 750.011 38.1166 752.481 Q36.0415 754.951 36.0415 758.608 Q36.0415 760.238 36.7332 762.017 Q37.4249 763.746 39.1047 765.87 Q40.7845 767.995 44.5889 769.477 Q48.3932 770.959 53.6303 771.157 Z" fill="#000000" fill-rule="nonzero" fill-opacity="1"></path><path clip-path="url(#clip350)" d="M38.6601 735.633 L36.4368 735.633 Q36.2391 730.989 32.9783 727.926 Q29.668 724.813 25.6167 723.776 Q21.5653 722.689 16.8717 722.59 L16.8717 720.07 L35.498 720.07 L35.498 705.594 L38.6601 705.594 L38.6601 720.07 L66.7725 720.07 Q77.6914 720.07 77.6914 713.252 Q77.6914 710.337 74.727 708.41 Q71.7131 706.484 66.3772 706.484 L60.7943 706.484 L60.7943 703.964 L66.5749 703.964 Q72.059 703.964 76.1598 706.484 Q80.2605 709.003 80.2605 713.993 Q80.2605 715.821 79.7664 717.649 Q79.3218 719.428 78.136 721.8 Q76.9009 724.122 73.9365 725.604 Q70.9226 727.037 66.5749 727.037 L38.6601 727.037 L38.6601 735.633 Z" fill="#000000" fill-rule="nonzero" fill-opacity="1"></path><path clip-path="url(#clip350)" d="M57.3852 661.227 Q47.7509 661.227 41.081 654.508 Q34.4111 647.788 34.4111 638.697 Q34.4111 630.99 40.6857 625.951 L18.7986 625.951 Q15.0436 625.951 14.1049 627.285 Q13.1662 628.569 13.1662 633.806 L10.0042 633.806 L8.91721 619.231 L70.3298 619.231 Q74.0847 619.231 75.0728 617.947 Q76.0115 616.613 76.0115 611.376 L79.1242 611.376 L80.2605 626.247 L73.5412 626.247 Q80.2111 631.484 80.2605 639.784 Q80.2605 648.48 73.5906 654.853 Q66.9207 661.227 57.3852 661.227 M57.484 652.828 Q66.8713 652.828 71.5155 649.913 Q77.9878 645.861 77.9878 639.29 Q77.9878 631.781 70.9226 627.334 Q69.1934 626.198 67.1677 626.247 L46.4169 626.247 Q44.3912 626.247 42.7114 627.334 Q36.6344 631.484 36.6344 638.253 Q36.6344 645.318 43.1067 649.715 Q47.9485 652.828 57.484 652.828 Z" fill="#000000" fill-rule="nonzero" fill-opacity="1"></path><path clip-path="url(#clip350)" d="M79.1242 605.2 L76.0115 605.2 Q76.0115 599.814 75.3692 598.579 Q74.6776 597.344 71.4167 597.344 L44.1936 597.344 Q40.4387 597.344 39.5494 598.629 Q38.6601 599.864 38.6601 604.804 L35.498 604.804 L34.4111 590.674 L71.5155 590.674 Q74.5293 590.674 75.2704 589.587 Q76.0115 588.5 76.0115 583.56 L79.1242 583.56 Q78.8277 593.886 78.8277 594.083 Q78.8277 595.467 79.1242 605.2 M16.7729 600.951 Q14.7472 600.951 13.1168 599.419 Q11.437 597.838 11.437 595.615 Q11.437 593.392 12.9686 591.811 Q14.4508 590.229 16.8223 590.229 Q19.1444 590.229 20.676 591.811 Q22.1582 593.392 22.1582 595.615 Q22.1582 597.937 20.5278 599.469 Q18.8974 600.951 16.7729 600.951 Z" fill="#000000" fill-rule="nonzero" fill-opacity="1"></path><path clip-path="url(#clip350)" d="M77.7902 577.186 L64.4504 577.186 Q63.314 577.186 62.9188 577.137 Q62.5235 577.087 62.2271 576.791 Q61.9306 576.494 61.9306 575.902 Q61.9306 575.21 62.2271 574.963 Q62.5235 574.666 63.6599 574.469 Q70.6262 572.937 74.3317 569.676 Q77.9878 566.366 77.9878 560.388 Q77.9878 554.706 75.4681 551.84 Q72.9483 548.975 68.7982 548.975 Q61.3871 548.975 59.5097 559.499 Q58.2745 565.576 57.484 568.095 Q56.6441 570.615 54.8161 572.838 Q51.2588 577.186 46.2193 577.186 Q41.1798 577.186 37.4743 573.382 Q33.7688 569.528 33.7688 561.03 Q33.7688 555.348 36.6344 551.495 Q35.7451 550.358 35.004 549.765 Q33.7688 548.431 33.7688 547.74 Q33.7688 546.949 34.3123 546.801 Q34.8063 546.653 36.2391 546.653 L46.4169 546.653 Q47.5533 546.653 47.9485 546.702 Q48.3438 546.752 48.6402 547.048 Q48.8872 547.344 48.8872 547.987 Q48.8872 549.123 47.9485 549.173 Q35.6957 549.963 35.6957 561.03 Q35.6957 567.008 38.0178 569.676 Q40.2905 572.344 43.4031 572.344 Q45.1323 572.344 46.4663 571.554 Q47.7509 570.714 48.5414 569.676 Q49.2825 568.589 50.0236 566.613 Q50.7153 564.637 50.9623 563.451 Q51.2094 562.216 51.7034 559.894 Q53.235 551.791 56.5453 548.382 Q60.7943 544.133 66.1796 544.133 Q72.1578 544.133 76.2092 548.184 Q80.2605 552.236 80.2605 560.388 Q80.2605 566.959 75.8633 571.554 Q76.4562 572.147 76.9997 572.591 Q77.4937 573.036 77.6914 573.234 Q77.889 573.382 78.0372 573.431 Q78.136 573.481 78.2348 573.579 Q80.2605 575.605 80.2605 576.099 Q80.2605 576.89 79.717 577.038 Q79.223 577.186 77.7902 577.186 Z" fill="#000000" fill-rule="nonzero" fill-opacity="1"></path><path clip-path="url(#clip350)" d="M38.6601 538.797 L36.4368 538.797 Q36.2391 534.153 32.9783 531.09 Q29.668 527.977 25.6167 526.939 Q21.5653 525.853 16.8717 525.754 L16.8717 523.234 L35.498 523.234 L35.498 508.758 L38.6601 508.758 L38.6601 523.234 L66.7725 523.234 Q77.6914 523.234 77.6914 516.416 Q77.6914 513.501 74.727 511.574 Q71.7131 509.647 66.3772 509.647 L60.7943 509.647 L60.7943 507.127 L66.5749 507.127 Q72.059 507.127 76.1598 509.647 Q80.2605 512.167 80.2605 517.157 Q80.2605 518.985 79.7664 520.813 Q79.3218 522.592 78.136 524.963 Q76.9009 527.285 73.9365 528.768 Q70.9226 530.2 66.5749 530.2 L38.6601 530.2 L38.6601 538.797 Z" fill="#000000" fill-rule="nonzero" fill-opacity="1"></path><path clip-path="url(#clip350)" d="M69.4898 497.246 Q60.8931 497.246 56.3477 487.118 Q53.4327 481.041 52.6916 468.491 L48.9861 468.491 Q42.7114 468.491 39.4012 471.802 Q36.0415 475.062 36.0415 479.213 Q36.0415 486.624 40.6857 490.181 Q40.7845 487.167 42.3162 486.08 Q43.7984 484.993 45.33 484.993 Q47.3556 484.993 48.6896 486.278 Q49.9742 487.513 49.9742 489.637 Q49.9742 491.663 48.739 492.997 Q47.4545 494.331 45.2311 494.331 Q40.2905 494.331 37.0296 489.884 Q33.7688 485.388 33.7688 479.015 Q33.7688 470.715 39.3517 465.181 Q41.081 463.452 43.3043 462.612 Q45.5276 461.723 47.0098 461.624 Q48.4426 461.525 51.3082 461.525 L71.5155 461.525 Q72.1084 461.525 73.0965 461.327 Q74.0847 461.13 75.3692 460.24 Q76.6044 459.302 76.6044 457.77 Q76.6044 454.114 70.1321 454.163 L64.4504 454.163 L64.4504 451.594 L70.1321 451.594 Q75.5175 451.594 77.642 454.46 Q79.717 457.276 79.717 459.895 Q79.717 463.254 77.2467 465.379 Q74.7764 467.503 71.4167 467.8 Q75.2704 469.331 77.7902 472.839 Q80.2605 476.298 80.2605 481.041 Q80.2605 484.697 79.3218 488.155 Q78.4325 491.564 75.9127 494.43 Q73.3436 497.246 69.4898 497.246 M69.391 489.44 Q73.1459 489.44 75.5669 486.772 Q77.9878 484.104 77.9878 480.349 Q77.9878 476.1 74.727 472.296 Q71.4167 468.491 64.9444 468.491 L54.8161 468.491 Q55.2113 479.707 59.7073 484.598 Q64.1539 489.44 69.391 489.44 Z" fill="#000000" fill-rule="nonzero" fill-opacity="1"></path><path clip-path="url(#clip350)" d="M79.1242 447.642 L76.0115 447.642 Q76.0115 442.256 75.3692 441.021 Q74.6776 439.786 71.4167 439.786 L44.2924 439.786 Q40.5375 439.786 39.5988 441.12 Q38.6601 442.405 38.6601 447.642 L35.498 447.642 L34.4111 433.413 L45.0335 433.413 Q34.4111 428.67 34.4111 418.442 Q34.4111 410.834 38.166 407.82 Q40.6857 405.597 43.5019 405.152 Q46.3181 404.658 53.6303 404.658 L72.9483 404.658 Q75.0728 404.559 75.5669 402.929 Q76.0115 401.298 76.0115 396.753 L79.1242 396.753 Q78.8277 407.079 78.8277 408.116 Q78.8277 408.907 79.1242 419.529 L76.0115 419.529 Q76.0115 414.144 75.3692 412.909 Q74.6776 411.624 71.4167 411.624 L47.8497 411.624 Q42.7114 411.624 39.6976 413.205 Q36.6344 414.786 36.6344 419.134 Q36.6344 424.371 41.0316 428.571 Q45.4288 432.77 52.8398 432.77 L71.4167 432.77 Q74.6776 432.77 75.3692 431.535 Q76.0115 430.251 76.0115 424.915 L79.1242 424.915 Q78.8277 435.241 78.8277 436.229 Q78.8277 437.019 79.1242 447.642 Z" fill="#000000" fill-rule="nonzero" fill-opacity="1"></path><path clip-path="url(#clip350)" d="M73.5906 384.895 Q66.8713 391.318 57.2864 391.318 Q47.6521 391.318 40.7351 384.994 Q33.7688 378.67 33.7688 369.381 Q33.7688 363.206 36.7332 358.561 Q39.6482 353.917 44.6383 353.917 Q46.8616 353.917 48.1461 355.251 Q49.3813 356.536 49.3813 358.561 Q49.3813 360.686 48.0967 361.97 Q46.7628 363.206 44.7371 363.206 Q43.8478 363.206 42.9584 362.909 Q42.0691 362.613 41.1304 361.526 Q40.1917 360.389 40.0434 358.463 Q36.3379 362.069 36.3379 369.085 Q36.3379 369.184 36.3379 369.283 Q36.3379 374.421 41.1798 378.67 Q46.0217 382.919 57.0888 382.919 Q62.8693 382.919 67.1183 381.536 Q71.3179 380.103 73.4918 377.781 Q75.6657 375.458 76.7032 373.186 Q77.6914 370.913 77.6914 368.69 Q77.6914 358.759 67.0689 355.399 Q66.0808 355.103 66.0808 354.115 Q66.0808 352.781 67.0689 352.781 Q67.563 352.781 68.8476 353.176 Q70.1321 353.571 72.1578 354.806 Q74.1835 356.042 75.9621 357.82 Q77.6914 359.55 78.9759 362.662 Q80.2605 365.725 80.2605 369.579 Q80.2605 378.472 73.5906 384.895 Z" fill="#000000" fill-rule="nonzero" fill-opacity="1"></path><path clip-path="url(#clip350)" d="M56.8417 347.05 Q47.3062 347.05 40.5375 340.923 Q33.7688 334.797 33.7688 326.002 Q33.7688 317.109 39.5494 312.514 Q45.33 307.87 53.6303 307.87 Q55.1619 307.87 55.4583 308.265 Q55.7548 308.661 55.7548 310.39 L55.7548 338.65 Q66.0808 338.65 70.9226 335.587 Q77.6914 331.338 77.6914 324.174 Q77.6914 323.186 77.4937 322 Q77.2961 320.815 76.4562 318.394 Q75.5669 315.973 73.2448 313.848 Q70.9226 311.724 67.2665 310.489 Q65.8338 310.192 65.8832 309.204 Q65.8832 307.87 67.0689 307.87 Q67.9582 307.87 69.9839 308.858 Q71.9602 309.797 74.3317 311.625 Q76.7032 313.453 78.4819 317.01 Q80.2605 320.518 80.2605 324.767 Q80.2605 333.66 73.5412 340.38 Q66.7725 347.05 56.8417 347.05 M53.6303 338.552 L53.6303 314.54 Q51.5058 314.54 49.1343 314.935 Q46.7628 315.281 43.5019 316.368 Q40.1917 317.406 38.1166 319.876 Q36.0415 322.346 36.0415 326.002 Q36.0415 327.633 36.7332 329.411 Q37.4249 331.141 39.1047 333.265 Q40.7845 335.39 44.5889 336.872 Q48.3932 338.354 53.6303 338.552 Z" fill="#000000" fill-rule="nonzero" fill-opacity="1"></path><polyline clip-path="url(#clip352)" style="stroke:#009af9; stroke-linecap:round; stroke-linejoin:round; stroke-width:4; stroke-opacity:1; fill:none" points="368.441,620.701 376.178,737.326 383.915,823.046 391.652,848.342 399.389,851.004 407.126,851.291 414.863,851.31 422.6,851.289 430.337,851.253 438.074,851.208 445.811,851.154 453.548,851.092 461.285,851.019 469.022,850.936 476.759,850.841 484.496,850.733 492.233,850.61 499.97,850.472 507.707,850.318 515.444,850.145 523.181,849.951 530.918,849.737 538.655,849.498 546.392,849.235 554.129,848.944 561.866,848.626 569.603,848.277 577.34,847.613 585.077,847.202 592.815,846.759 600.552,846.282 608.289,845.772 616.026,845.231 623.763,844.66 631.5,844.064 639.237,843.447 646.974,842.813 654.711,841.65 662.448,841.033 670.185,840.424 677.922,839.834 685.659,839.274 693.396,838.759 701.133,838.303 708.87,837.921 716.607,837.625 724.344,837.438 732.081,837.368 739.818,837.405 747.555,837.548 755.292,837.789 763.029,838.032 770.766,838.433 778.503,838.858 786.24,843.828 793.977,843.639 801.714,843.536 809.451,843.519 817.188,843.595 824.925,843.774 832.662,844.046 840.399,844.356 848.136,844.726 855.873,845.173 863.61,845.716 871.347,846.356 879.084,847.093 886.822,847.925 894.559,848.541 902.296,850.729 910.033,851.7 917.77,852.737 925.507,853.845 933.244,855.03 940.981,856.299 948.718,857.657 956.455,859.089 964.192,860.619 971.929,862.261 979.666,863.983 987.403,865.823 995.14,867.756 1002.88,869.744 1010.61,871.674 1018.35,873.759 1026.09,875.901 1033.83,877.258 1041.56,879.478 1049.3,881.684 1057.04,883.908 1064.77,886.146 1072.51,888.336 1080.25,890.58 1087.98,892.857 1095.72,895.15 1103.46,897.456 1111.2,899.692 1118.93,901.971 1126.67,904.198 1134.41,906.36 1142.14,908.446 1149.88,910.459 1157.62,912.399 1165.35,914.259 1173.09,916.035 1180.83,917.718 1188.57,919.305 1196.3,920.797 1204.04,922.203 1211.78,923.524 1219.51,924.76 1227.25,925.918 1234.99,926.99 1242.72,927.999 1250.46,928.938 1258.2,929.809 1265.94,930.614 1273.67,931.353 1281.41,932.036 1289.15,932.656 1296.88,933.223 1304.62,933.737 1312.36,934.187 1320.1,934.596 1327.83,934.966 1335.57,935.303 1343.31,935.608 1351.04,935.885 1358.78,936.137 1366.52,936.365 1374.25,936.572 1381.99,936.761 1389.73,936.933 1397.47,937.086 1405.2,937.156 1412.94,937.216 1420.68,937.268 1428.41,937.312 1436.15,937.351 1443.89,937.383 1451.62,937.411 1459.36,937.434 1467.1,937.454 1474.84,937.471 1482.57,937.485 1490.31,937.497 1498.05,937.507 1505.78,937.516 1513.52,937.524 1521.26,937.531 1528.99,937.538 1536.73,937.545 1544.47,937.552 1552.21,937.559 1559.94,937.567 1567.68,937.575 1575.42,937.583 1583.15,937.592 1590.89,937.602 1598.63,937.612 1606.36,937.622 1614.1,937.633 1621.84,937.645 1629.58,937.657 1637.31,937.67 1645.05,937.683 1652.79,937.697 1660.52,937.711 1668.26,937.726 1676,937.741 1683.74,937.757 1691.47,937.773 1699.21,937.789 1706.95,937.806 1714.68,937.823 1722.42,937.84 1730.16,937.858 1737.89,937.876 1745.63,937.894 1753.37,937.913 1761.11,937.931 1768.84,937.95 1776.58,937.969 1784.32,937.988 1792.05,938.007 1799.79,938.026 1807.53,938.046 1815.26,938.065 1823,938.085 1830.74,938.104 1838.48,938.124 1846.21,938.143 1853.95,938.163 1861.69,938.182 1869.42,938.201 1877.16,938.221 1884.9,938.24 1892.63,938.26 1900.37,938.279 1908.11,938.298 1915.85,938.317 1923.58,938.336 1931.32,938.355 1939.06,938.374 1946.79,938.392 1954.53,938.411 1962.27,938.429 1970.01,938.447 1977.74,938.465 1985.48,938.483 1993.22,938.501 2000.95,938.519 2008.69,938.537 2016.43,938.554 2024.16,938.571 2031.9,938.588 2039.64,938.605 2047.38,938.622 2055.11,938.638 2062.85,938.654 2070.59,938.67 2078.32,938.685 2086.06,938.701 2093.8,938.716 2101.53,938.731 2109.27,938.747 2117.01,938.761 2124.75,938.776 2132.48,938.261 2140.22,938.278 2147.96,938.294 2155.69,938.31 2163.43,938.325 2171.17,938.339 2178.9,938.353 2186.64,938.367 2194.38,938.38 2202.12,938.392 2209.85,938.405 2217.59,938.417 2225.33,938.428 2233.06,938.439 2240.8,938.45 2248.54,938.461 2256.28,938.471 2264.01,938.481 2271.75,938.491 2279.49,938.5 2287.22,938.51 2294.96,938.519 "></polyline>
<polyline clip-path="url(#clip352)" style="stroke:#e26f46; stroke-linecap:round; stroke-linejoin:round; stroke-width:4; stroke-opacity:1; fill:none" points="368.441,85.0853 376.178,310.046 383.915,602.027 391.652,640.999 399.389,690.423 407.126,730.224 414.863,761.558 422.6,786.18 430.337,804.461 438.074,816.893 445.811,824.891 453.548,834.338 461.285,840.865 469.022,845.956 476.759,852.59 484.496,858.127 492.233,862.161 499.97,871.846 507.707,876.265 515.444,880.235 523.181,883.769 530.918,886.84 538.655,889.447 546.392,891.523 554.129,892.941 561.866,893.859 569.603,893.94 577.34,893.253 585.077,891.961 592.815,890.153 600.552,887.931 608.289,885.393 616.026,882.628 623.763,879.872 631.5,877.074 639.237,874.401 646.974,871.883 654.711,869.689 662.448,867.736 670.185,866.716 677.922,866.318 685.659,866.091 693.396,866.484 701.133,867.491 708.87,869.195 716.607,871.888 724.344,874.947 732.081,878.378 739.818,882.29 747.555,886.707 755.292,891.606 763.029,896.957 770.766,902.675 778.503,908.708 786.24,915.058 793.977,921.634 801.714,928.416 809.451,935.195 817.188,942.064 824.925,948.829 832.662,955.456 840.399,961.977 848.136,968.304 855.873,974.454 863.61,980.412 871.347,986.167 879.084,991.697 886.822,997.002 894.559,1002.08 902.296,1006.86 910.033,1011.35 917.77,1015.61 925.507,1019.66 933.244,1023.53 940.981,1027.2 948.718,1030.7 956.455,1034.02 964.192,1037.15 971.929,1040.12 979.666,1042.96 987.403,1045.69 995.14,1048.32 1002.88,1050.85 1010.61,1053.31 1018.35,1055.69 1026.09,1058 1033.83,1060.25 1041.56,1062.44 1049.3,1064.58 1057.04,1066.68 1064.77,1068.73 1072.51,1070.75 1080.25,1072.73 1087.98,1074.68 1095.72,1076.67 1103.46,1078.68 1111.2,1080.56 1118.93,1082.4 1126.67,1084.22 1134.41,1086.02 1142.14,1087.82 1149.88,1089.6 1157.62,1091.38 1165.35,1093.15 1173.09,1094.91 1180.83,1096.67 1188.57,1098.42 1196.3,1100.16 1204.04,1101.88 1211.78,1103.56 1219.51,1105.22 1227.25,1106.84 1234.99,1108.46 1242.72,1110.06 1250.46,1111.64 1258.2,1113.2 1265.94,1114.74 1273.67,1116.21 1281.41,1117.68 1289.15,1119.11 1296.88,1120.86 1304.62,1122.78 1312.36,1124.28 1320.1,1125.71 1327.83,1127.12 1335.57,1128.53 1343.31,1129.92 1351.04,1131.32 1358.78,1132.7 1366.52,1134.09 1374.25,1135.46 1381.99,1136.84 1389.73,1138.2 1397.47,1139.57 1405.2,1140.93 1412.94,1142.28 1420.68,1143.63 1428.41,1144.96 1436.15,1146.26 1443.89,1147.52 1451.62,1148.78 1459.36,1150.02 1467.1,1151.26 1474.84,1152.5 1482.57,1153.74 1490.31,1155.68 1498.05,1156.87 1505.78,1158.21 1513.52,1159.57 1521.26,1160.91 1528.99,1162.22 1536.73,1163.53 1544.47,1164.82 1552.21,1166.11 1559.94,1167.39 1567.68,1168.67 1575.42,1169.94 1583.15,1171.21 1590.89,1172.47 1598.63,1173.73 1606.36,1174.98 1614.1,1176.24 1621.84,1177.49 1629.58,1178.74 1637.31,1179.98 1645.05,1181.23 1652.79,1182.47 1660.52,1183.71 1668.26,1184.92 1676,1186.09 1683.74,1187.24 1691.47,1188.38 1699.21,1189.51 1706.95,1190.64 1714.68,1191.77 1722.42,1192.9 1730.16,1194.03 1737.89,1195.16 1745.63,1196.29 1753.37,1197.41 1761.11,1198.54 1768.84,1206.68 1776.58,1215.83 1784.32,1221.76 1792.05,1226.12 1799.79,1229.65 1807.53,1232.71 1815.26,1235.49 1823,1238.09 1830.74,1240.58 1838.48,1242.99 1846.21,1245.33 1853.95,1247.63 1861.69,1249.89 1869.42,1252.11 1877.16,1254.3 1884.9,1256.46 1892.63,1258.6 1900.37,1260.71 1908.11,1262.79 1915.85,1264.86 1923.58,1266.89 1931.32,1268.91 1939.06,1270.91 1946.79,1272.88 1954.53,1274.83 1962.27,1276.77 1970.01,1278.68 1977.74,1280.58 1985.48,1282.45 1993.22,1284.31 2000.95,1286.15 2008.69,1287.97 2016.43,1289.77 2024.16,1291.56 2031.9,1293.33 2039.64,1295.09 2047.38,1296.83 2055.11,1298.55 2062.85,1300.26 2070.59,1301.96 2078.32,1303.64 2086.06,1305.31 2093.8,1306.96 2101.53,1308.6 2109.27,1310.23 2117.01,1311.85 2124.75,1313.46 2132.48,1315.05 2140.22,1316.64 2147.96,1318.21 2155.69,1319.78 2163.43,1321.33 2171.17,1322.87 2178.9,1324.41 2186.64,1325.93 2194.38,1327.45 2202.12,1328.95 2209.85,1330.45 2217.59,1331.95 2225.33,1333.43 2233.06,1334.9 2240.8,1336.37 2248.54,1337.83 2256.28,1339.29 2264.01,1340.73 2271.75,1342.17 2279.49,1343.61 2287.22,1345.04 2294.96,1346.46 "></polyline>
<path clip-path="url(#clip350)" d="M1300.38 344.533 L2284.69 344.533 L2284.69 91.8126 L1300.38 91.8126  Z" fill="#ffffff" fill-rule="evenodd" fill-opacity="1"></path>
<polyline clip-path="url(#clip350)" style="stroke:#000000; stroke-linecap:round; stroke-linejoin:round; stroke-width:4; stroke-opacity:1; fill:none" points="1300.38,344.533 2284.69,344.533 2284.69,91.8126 1300.38,91.8126 1300.38,344.533 "></polyline>
<polyline clip-path="url(#clip350)" style="stroke:#009af9; stroke-linecap:round; stroke-linejoin:round; stroke-width:6.5; stroke-opacity:1; fill:none" points="1323.07,176.053 1459.21,176.053 "></polyline>
<path clip-path="url(#clip350)" d="M1481.9 203.049 L1481.9 192.21 Q1481.9 191.287 1481.94 190.966 Q1481.98 190.645 1482.22 190.404 Q1482.46 190.163 1482.94 190.163 Q1483.5 190.163 1483.7 190.404 Q1483.94 190.645 1484.11 191.568 Q1485.35 197.228 1488 200.239 Q1490.69 203.209 1495.55 203.209 Q1500.16 203.209 1502.49 201.162 Q1504.82 199.115 1504.82 195.743 Q1504.82 189.721 1496.27 188.196 Q1491.33 187.192 1489.28 186.55 Q1487.24 185.868 1485.43 184.382 Q1481.9 181.492 1481.9 177.397 Q1481.9 173.303 1484.99 170.292 Q1488.12 167.281 1495.02 167.281 Q1499.64 167.281 1502.77 169.61 Q1503.69 168.887 1504.18 168.285 Q1505.26 167.281 1505.82 167.281 Q1506.46 167.281 1506.59 167.723 Q1506.71 168.124 1506.71 169.289 L1506.71 177.558 Q1506.71 178.481 1506.67 178.802 Q1506.63 179.124 1506.38 179.364 Q1506.14 179.565 1505.62 179.565 Q1504.7 179.565 1504.66 178.802 Q1504.02 168.847 1495.02 168.847 Q1490.17 168.847 1488 170.734 Q1485.83 172.58 1485.83 175.109 Q1485.83 176.514 1486.47 177.598 Q1487.16 178.642 1488 179.284 Q1488.88 179.886 1490.49 180.488 Q1492.09 181.05 1493.06 181.251 Q1494.06 181.452 1495.95 181.853 Q1502.53 183.098 1505.3 185.787 Q1508.75 189.24 1508.75 193.615 Q1508.75 198.472 1505.46 201.764 Q1502.17 205.056 1495.55 205.056 Q1490.21 205.056 1486.47 201.483 Q1485.99 201.965 1485.63 202.406 Q1485.27 202.808 1485.11 202.968 Q1484.99 203.129 1484.95 203.249 Q1484.91 203.33 1484.83 203.41 Q1483.18 205.056 1482.78 205.056 Q1482.14 205.056 1482.02 204.614 Q1481.9 204.213 1481.9 203.049 Z" fill="#000000" fill-rule="nonzero" fill-opacity="1"></path><path clip-path="url(#clip350)" d="M1514.25 204.133 L1514.25 201.604 Q1518.63 201.604 1519.63 201.082 Q1520.64 200.52 1520.64 197.87 L1520.64 175.752 Q1520.64 172.701 1519.59 171.978 Q1518.59 171.256 1514.57 171.256 L1514.57 168.686 L1526.05 167.803 L1526.05 197.951 Q1526.05 200.399 1526.94 201.001 Q1527.82 201.604 1531.84 201.604 L1531.84 204.133 Q1523.45 203.892 1523.28 203.892 Q1522.16 203.892 1514.25 204.133 M1517.7 153.472 Q1517.7 151.826 1518.95 150.502 Q1520.23 149.137 1522.04 149.137 Q1523.85 149.137 1525.13 150.381 Q1526.42 151.585 1526.42 153.512 Q1526.42 155.399 1525.13 156.643 Q1523.85 157.848 1522.04 157.848 Q1520.15 157.848 1518.91 156.523 Q1517.7 155.198 1517.7 153.472 Z" fill="#000000" fill-rule="nonzero" fill-opacity="1"></path><path clip-path="url(#clip350)" d="M1536.93 204.133 L1536.93 201.604 Q1541.31 201.604 1542.31 201.082 Q1543.32 200.52 1543.32 197.87 L1543.32 175.832 Q1543.32 172.781 1542.23 172.018 Q1541.19 171.256 1536.93 171.256 L1536.93 168.686 L1548.49 167.803 L1548.49 176.434 Q1552.35 167.803 1560.66 167.803 Q1570.29 167.803 1571.62 175.832 Q1573.02 172.701 1575.95 170.252 Q1578.92 167.803 1583.54 167.803 Q1589.72 167.803 1592.17 170.854 Q1593.98 172.901 1594.34 175.19 Q1594.7 177.478 1594.7 183.419 L1594.7 199.115 Q1594.78 200.841 1596.1 201.242 Q1597.43 201.604 1601.12 201.604 L1601.12 204.133 Q1592.73 203.892 1591.93 203.892 Q1591.29 203.892 1582.62 204.133 L1582.62 201.604 Q1586.99 201.604 1588 201.082 Q1589.04 200.52 1589.04 197.87 L1589.04 178.722 Q1589.04 174.547 1587.75 172.099 Q1586.47 169.61 1582.94 169.61 Q1578.68 169.61 1575.27 173.182 Q1571.86 176.755 1571.86 182.777 L1571.86 197.87 Q1571.86 200.52 1572.86 201.082 Q1573.9 201.604 1578.28 201.604 L1578.28 204.133 Q1569.89 203.892 1569.05 203.892 Q1568.41 203.892 1559.77 204.133 L1559.77 201.604 Q1564.15 201.604 1565.15 201.082 Q1566.2 200.52 1566.2 197.87 L1566.2 178.722 Q1566.2 174.547 1564.91 172.099 Q1563.63 169.61 1560.1 169.61 Q1555.84 169.61 1552.43 173.182 Q1549.02 176.755 1549.02 182.777 L1549.02 197.87 Q1549.02 200.52 1550.02 201.082 Q1551.06 201.604 1555.4 201.604 L1555.4 204.133 Q1547.01 203.892 1546.21 203.892 Q1545.56 203.892 1536.93 204.133 Z" fill="#000000" fill-rule="nonzero" fill-opacity="1"></path><path clip-path="url(#clip350)" d="M1605.02 217.54 Q1609.39 217.54 1610.39 216.978 Q1611.44 216.457 1611.44 213.847 L1611.44 175.35 Q1611.44 172.62 1610.39 171.938 Q1609.39 171.256 1605.02 171.256 L1605.02 168.686 L1616.86 167.803 L1616.86 173.223 Q1621.8 167.803 1628.38 167.803 Q1635.36 167.803 1640.46 173.223 Q1645.56 178.642 1645.56 186.389 Q1645.56 194.217 1640.14 199.637 Q1634.72 205.056 1627.21 205.056 Q1623.12 205.056 1620.35 202.968 Q1617.62 200.841 1617.1 199.275 L1617.1 200.038 L1617.1 213.847 Q1617.1 216.497 1618.14 217.019 Q1619.19 217.54 1623.52 217.54 L1623.52 220.069 Q1614.89 219.829 1614.25 219.829 Q1613.45 219.829 1605.02 220.069 L1605.02 217.54 M1617.1 194.779 Q1617.1 196.024 1617.26 196.465 Q1617.46 196.907 1618.26 198.232 Q1621.51 203.209 1626.81 203.209 Q1626.85 203.209 1626.89 203.209 Q1631.59 203.209 1635.16 198.432 Q1638.74 193.615 1638.74 186.389 Q1638.74 179.485 1635.48 174.668 Q1632.23 169.851 1627.74 169.851 Q1624.53 169.851 1621.72 171.577 Q1618.91 173.303 1617.1 176.434 L1617.1 194.779 Z" fill="#000000" fill-rule="nonzero" fill-opacity="1"></path><path clip-path="url(#clip350)" d="M1651.06 204.133 L1651.06 201.604 Q1655.44 201.604 1656.44 201.082 Q1657.44 200.52 1657.44 197.87 L1657.44 155.118 Q1657.44 152.067 1656.36 151.304 Q1655.31 150.542 1651.06 150.542 L1651.06 147.973 L1662.86 147.089 L1662.86 197.87 Q1662.86 200.52 1663.91 201.082 Q1664.95 201.604 1669.28 201.604 L1669.28 204.133 Q1668.28 204.133 1666.19 204.052 Q1664.11 203.972 1662.58 203.932 Q1661.06 203.892 1660.17 203.892 Q1659.21 203.892 1651.06 204.133 Z" fill="#000000" fill-rule="nonzero" fill-opacity="1"></path><path clip-path="url(#clip350)" d="M1673.38 186.028 Q1673.38 178.281 1678.36 172.781 Q1683.33 167.281 1690.48 167.281 Q1697.71 167.281 1701.44 171.978 Q1705.21 176.675 1705.21 183.419 Q1705.21 184.663 1704.89 184.904 Q1704.57 185.145 1703.17 185.145 L1680.2 185.145 Q1680.2 193.535 1682.69 197.469 Q1686.14 202.968 1691.97 202.968 Q1692.77 202.968 1693.73 202.808 Q1694.7 202.647 1696.66 201.965 Q1698.63 201.242 1700.36 199.356 Q1702.08 197.469 1703.09 194.498 Q1703.33 193.334 1704.13 193.374 Q1705.21 193.374 1705.21 194.338 Q1705.21 195.06 1704.41 196.706 Q1703.65 198.312 1702.16 200.239 Q1700.68 202.166 1697.79 203.611 Q1694.94 205.056 1691.48 205.056 Q1684.26 205.056 1678.8 199.596 Q1673.38 194.097 1673.38 186.028 M1680.28 183.419 L1699.79 183.419 Q1699.79 181.693 1699.47 179.766 Q1699.19 177.839 1698.31 175.19 Q1697.46 172.5 1695.46 170.814 Q1693.45 169.128 1690.48 169.128 Q1689.16 169.128 1687.71 169.69 Q1686.31 170.252 1684.58 171.617 Q1682.85 172.982 1681.65 176.073 Q1680.44 179.164 1680.28 183.419 Z" fill="#000000" fill-rule="nonzero" fill-opacity="1"></path><path clip-path="url(#clip350)" d="M1708.58 204.133 L1708.58 201.604 Q1715.01 201.604 1719.1 196.666 Q1719.1 196.666 1726.81 186.871 L1718.66 176.273 Q1715.77 172.58 1714.49 171.938 Q1713.24 171.256 1708.99 171.256 L1708.99 168.686 Q1712.36 168.927 1716.77 168.927 Q1719.22 168.927 1725.69 168.686 L1725.69 171.256 Q1722.8 171.416 1722.8 173.303 Q1722.8 173.945 1723.52 174.788 L1729.94 183.098 L1735.04 176.675 Q1736.28 175.19 1736.28 173.785 Q1736.28 171.496 1733.87 171.256 L1733.87 168.686 Q1737.09 168.927 1741.78 168.927 Q1745.32 168.927 1748.53 168.686 L1748.53 171.256 Q1742.26 171.416 1738.73 175.511 Q1737.17 177.237 1731.19 184.824 L1742.18 199.034 Q1743.51 200.761 1744.99 201.202 Q1746.48 201.604 1750.01 201.604 L1750.01 204.133 Q1746.32 203.892 1742.1 203.892 Q1740.62 203.892 1733.23 204.133 L1733.23 201.604 Q1734.72 201.523 1735.44 200.881 Q1736.2 200.199 1736.2 199.516 Q1736.2 199.195 1734.48 196.827 L1728.21 188.597 Q1721.95 195.984 1721.15 197.71 Q1720.83 198.432 1720.83 199.034 Q1720.83 201.242 1723.2 201.604 L1723.2 204.133 Q1717.3 203.892 1715.41 203.892 Q1711.8 203.892 1708.58 204.133 Z" fill="#000000" fill-rule="nonzero" fill-opacity="1"></path><polyline clip-path="url(#clip350)" style="stroke:#e26f46; stroke-linecap:round; stroke-linejoin:round; stroke-width:6.5; stroke-opacity:1; fill:none" points="1323.07,260.293 1459.21,260.293 "></polyline>
<path clip-path="url(#clip350)" d="M1481.9 288.373 L1481.9 285.844 Q1486.27 285.844 1487.28 285.322 Q1488.28 284.76 1488.28 282.11 L1488.28 260.072 Q1488.28 257.021 1487.2 256.258 Q1486.15 255.496 1481.9 255.496 L1481.9 252.926 L1493.46 252.043 L1493.46 260.674 Q1497.31 252.043 1505.62 252.043 Q1511.8 252.043 1514.25 255.094 Q1516.06 257.141 1516.42 259.43 Q1516.82 261.718 1516.82 267.659 L1516.82 283.355 Q1516.9 285.081 1518.23 285.482 Q1519.55 285.844 1523.24 285.844 L1523.24 288.373 Q1514.85 288.132 1514.01 288.132 Q1513.37 288.132 1504.74 288.373 L1504.74 285.844 Q1509.11 285.844 1510.12 285.322 Q1511.16 284.76 1511.16 282.11 L1511.16 262.962 Q1511.16 258.787 1509.88 256.339 Q1508.59 253.85 1505.06 253.85 Q1500.8 253.85 1497.39 257.422 Q1493.98 260.995 1493.98 267.017 L1493.98 282.11 Q1493.98 284.76 1494.98 285.322 Q1496.03 285.844 1500.36 285.844 L1500.36 288.373 Q1491.97 288.132 1491.17 288.132 Q1490.53 288.132 1481.9 288.373 Z" fill="#000000" fill-rule="nonzero" fill-opacity="1"></path><path clip-path="url(#clip350)" d="M1532.56 283.957 Q1527.14 278.578 1527.14 270.79 Q1527.14 262.962 1532.44 257.262 Q1537.78 251.521 1545.4 251.521 Q1552.87 251.521 1558.21 257.222 Q1563.59 262.882 1563.59 270.79 Q1563.59 278.538 1558.17 283.917 Q1552.79 289.296 1545.32 289.296 Q1538.02 289.296 1532.56 283.957 M1533.96 270.108 Q1533.96 278.096 1536.05 281.709 Q1539.26 287.208 1545.4 287.208 Q1548.45 287.208 1550.98 285.563 Q1553.55 283.917 1554.96 281.147 Q1556.76 277.534 1556.76 270.108 Q1556.76 262.199 1554.6 258.707 Q1551.38 253.368 1545.32 253.368 Q1542.67 253.368 1540.06 254.773 Q1537.5 256.138 1535.93 258.868 Q1533.96 262.48 1533.96 270.108 Z" fill="#000000" fill-rule="nonzero" fill-opacity="1"></path><path clip-path="url(#clip350)" d="M1568.61 288.373 L1568.61 285.844 Q1572.98 285.844 1573.99 285.322 Q1574.99 284.76 1574.99 282.11 L1574.99 260.072 Q1574.99 257.021 1573.9 256.258 Q1572.86 255.496 1568.61 255.496 L1568.61 252.926 L1580.17 252.043 L1580.17 260.674 Q1584.02 252.043 1592.33 252.043 Q1598.51 252.043 1600.96 255.094 Q1602.77 257.141 1603.13 259.43 Q1603.53 261.718 1603.53 267.659 L1603.53 283.355 Q1603.61 285.081 1604.94 285.482 Q1606.26 285.844 1609.95 285.844 L1609.95 288.373 Q1601.56 288.132 1600.72 288.132 Q1600.08 288.132 1591.45 288.373 L1591.45 285.844 Q1595.82 285.844 1596.83 285.322 Q1597.87 284.76 1597.87 282.11 L1597.87 262.962 Q1597.87 258.787 1596.59 256.339 Q1595.3 253.85 1591.77 253.85 Q1587.51 253.85 1584.1 257.422 Q1580.69 260.995 1580.69 267.017 L1580.69 282.11 Q1580.69 284.76 1581.69 285.322 Q1582.74 285.844 1587.07 285.844 L1587.07 288.373 Q1578.68 288.132 1577.88 288.132 Q1577.24 288.132 1568.61 288.373 Z" fill="#000000" fill-rule="nonzero" fill-opacity="1"></path><path clip-path="url(#clip350)" d="M1614.21 288.373 L1614.21 285.844 Q1618.58 285.844 1619.59 285.322 Q1620.59 284.76 1620.59 282.11 L1620.59 260.072 Q1620.59 257.021 1619.51 256.258 Q1618.46 255.496 1614.21 255.496 L1614.21 252.926 L1625.77 252.043 L1625.77 260.674 Q1629.62 252.043 1637.93 252.043 Q1644.11 252.043 1646.56 255.094 Q1648.37 257.141 1648.73 259.43 Q1649.13 261.718 1649.13 267.659 L1649.13 283.355 Q1649.21 285.081 1650.54 285.482 Q1651.86 285.844 1655.56 285.844 L1655.56 288.373 Q1647.17 288.132 1646.32 288.132 Q1645.68 288.132 1637.05 288.373 L1637.05 285.844 Q1641.43 285.844 1642.43 285.322 Q1643.47 284.76 1643.47 282.11 L1643.47 262.962 Q1643.47 258.787 1642.19 256.339 Q1640.9 253.85 1637.37 253.85 Q1633.12 253.85 1629.7 257.422 Q1626.29 260.995 1626.29 267.017 L1626.29 282.11 Q1626.29 284.76 1627.3 285.322 Q1628.34 285.844 1632.67 285.844 L1632.67 288.373 Q1624.28 288.132 1623.48 288.132 Q1622.84 288.132 1614.21 288.373 Z" fill="#000000" fill-rule="nonzero" fill-opacity="1"></path><path clip-path="url(#clip350)" d="M1659.45 270.268 Q1659.45 262.521 1664.43 257.021 Q1669.41 251.521 1676.55 251.521 Q1683.78 251.521 1687.51 256.218 Q1691.28 260.915 1691.28 267.659 Q1691.28 268.903 1690.96 269.144 Q1690.64 269.385 1689.24 269.385 L1666.27 269.385 Q1666.27 277.775 1668.76 281.709 Q1672.22 287.208 1678.04 287.208 Q1678.84 287.208 1679.8 287.048 Q1680.77 286.887 1682.73 286.205 Q1684.7 285.482 1686.43 283.596 Q1688.15 281.709 1689.16 278.738 Q1689.4 277.574 1690.2 277.614 Q1691.28 277.614 1691.28 278.578 Q1691.28 279.3 1690.48 280.946 Q1689.72 282.552 1688.23 284.479 Q1686.75 286.406 1683.86 287.851 Q1681.01 289.296 1677.55 289.296 Q1670.33 289.296 1664.87 283.836 Q1659.45 278.337 1659.45 270.268 M1666.35 267.659 L1685.86 267.659 Q1685.86 265.933 1685.54 264.006 Q1685.26 262.079 1684.38 259.43 Q1683.54 256.74 1681.53 255.054 Q1679.52 253.368 1676.55 253.368 Q1675.23 253.368 1673.78 253.93 Q1672.38 254.492 1670.65 255.857 Q1668.92 257.222 1667.72 260.313 Q1666.51 263.404 1666.35 267.659 Z" fill="#000000" fill-rule="nonzero" fill-opacity="1"></path><path clip-path="url(#clip350)" d="M1695.94 294.876 Q1695.94 292.226 1697.95 289.938 Q1699.99 287.65 1703.53 286.646 Q1699.91 284.358 1699.91 279.34 Q1699.91 275.487 1702.44 272.516 Q1698.59 269.305 1698.59 264.046 Q1698.59 259.189 1702.44 255.616 Q1706.3 252.043 1711.92 252.043 Q1716.85 252.043 1720.63 255.014 Q1724.56 251.16 1729.34 251.12 Q1731.47 251.12 1732.47 252.445 Q1733.51 253.769 1733.51 255.174 Q1733.51 256.419 1732.71 257.021 Q1731.95 257.623 1731.14 257.623 Q1730.14 257.623 1729.42 256.981 Q1728.74 256.298 1728.74 255.255 Q1728.74 253.529 1730.06 253.007 Q1729.82 252.926 1729.26 252.926 Q1725.24 252.926 1721.83 256.138 Q1725.2 259.269 1725.2 264.126 Q1725.2 268.984 1721.35 272.556 Q1717.5 276.129 1711.92 276.129 Q1707.3 276.129 1703.77 273.56 Q1702.36 275.206 1702.36 277.454 Q1702.36 279.501 1703.61 281.107 Q1704.85 282.712 1706.74 282.953 Q1707.3 283.034 1712.88 283.034 Q1716.17 283.034 1717.98 283.114 Q1719.78 283.194 1722.35 283.756 Q1724.96 284.278 1727.01 285.322 Q1732.35 288.292 1732.39 294.715 Q1732.39 299.412 1726.97 302.342 Q1721.59 305.313 1714.12 305.313 Q1706.58 305.313 1701.24 302.302 Q1695.94 299.332 1695.94 294.876 M1700.23 294.876 Q1700.23 298.248 1704.21 300.817 Q1708.18 303.426 1714.2 303.426 Q1720.11 303.426 1724.08 300.857 Q1728.09 298.328 1728.09 294.876 Q1728.09 292.427 1726.69 290.861 Q1725.28 289.296 1722.39 288.654 Q1719.54 288.051 1717.54 287.931 Q1715.53 287.811 1711.84 287.811 L1706.98 287.811 Q1704.17 287.971 1702.2 290.018 Q1700.23 292.066 1700.23 294.876 M1704.73 264.126 Q1704.73 274.242 1711.92 274.242 Q1715.53 274.242 1717.74 270.951 Q1719.06 268.743 1719.06 264.046 Q1719.06 253.93 1711.92 253.93 Q1708.3 253.93 1706.06 257.222 Q1704.73 259.43 1704.73 264.126 Z" fill="#000000" fill-rule="nonzero" fill-opacity="1"></path><path clip-path="url(#clip350)" d="M1738.21 280.545 Q1738.21 273.56 1746.44 269.867 Q1751.38 267.498 1761.57 266.896 L1761.57 263.885 Q1761.57 258.787 1758.88 256.098 Q1756.23 253.368 1752.86 253.368 Q1746.84 253.368 1743.95 257.141 Q1746.4 257.222 1747.28 258.466 Q1748.17 259.67 1748.17 260.915 Q1748.17 262.561 1747.12 263.645 Q1746.12 264.688 1744.39 264.688 Q1742.75 264.688 1741.66 263.685 Q1740.58 262.641 1740.58 260.835 Q1740.58 256.82 1744.19 254.171 Q1747.84 251.521 1753.02 251.521 Q1759.77 251.521 1764.26 256.058 Q1765.67 257.463 1766.35 259.269 Q1767.07 261.075 1767.15 262.28 Q1767.23 263.444 1767.23 265.772 L1767.23 282.191 Q1767.23 282.672 1767.39 283.475 Q1767.55 284.278 1768.28 285.322 Q1769.04 286.325 1770.28 286.325 Q1773.25 286.325 1773.21 281.067 L1773.21 276.45 L1775.3 276.45 L1775.3 281.067 Q1775.3 285.442 1772.97 287.168 Q1770.69 288.854 1768.56 288.854 Q1765.83 288.854 1764.1 286.847 Q1762.38 284.84 1762.14 282.11 Q1760.89 285.241 1758.04 287.289 Q1755.23 289.296 1751.38 289.296 Q1748.41 289.296 1745.6 288.533 Q1742.83 287.811 1740.5 285.763 Q1738.21 283.676 1738.21 280.545 M1744.55 280.464 Q1744.55 283.515 1746.72 285.482 Q1748.89 287.449 1751.94 287.449 Q1755.39 287.449 1758.48 284.8 Q1761.57 282.11 1761.57 276.852 L1761.57 268.622 Q1752.46 268.943 1748.49 272.596 Q1744.55 276.209 1744.55 280.464 Z" fill="#000000" fill-rule="nonzero" fill-opacity="1"></path><path clip-path="url(#clip350)" d="M1777.43 255.496 L1777.43 253.689 Q1781.2 253.529 1783.69 250.879 Q1786.22 248.19 1787.06 244.898 Q1787.95 241.606 1788.03 237.792 L1790.07 237.792 L1790.07 252.926 L1801.84 252.926 L1801.84 255.496 L1790.07 255.496 L1790.07 278.337 Q1790.07 287.208 1795.61 287.208 Q1797.98 287.208 1799.55 284.8 Q1801.11 282.351 1801.11 278.016 L1801.11 273.48 L1803.16 273.48 L1803.16 278.176 Q1803.16 282.632 1801.11 285.964 Q1799.07 289.296 1795.01 289.296 Q1793.53 289.296 1792.04 288.894 Q1790.6 288.533 1788.67 287.57 Q1786.78 286.566 1785.58 284.158 Q1784.41 281.709 1784.41 278.176 L1784.41 255.496 L1777.43 255.496 Z" fill="#000000" fill-rule="nonzero" fill-opacity="1"></path><path clip-path="url(#clip350)" d="M1810.47 288.373 L1810.47 285.844 Q1814.84 285.844 1815.85 285.322 Q1816.85 284.76 1816.85 282.11 L1816.85 259.992 Q1816.85 256.941 1815.81 256.218 Q1814.8 255.496 1810.79 255.496 L1810.79 252.926 L1822.27 252.043 L1822.27 282.191 Q1822.27 284.639 1823.15 285.241 Q1824.04 285.844 1828.05 285.844 L1828.05 288.373 Q1819.66 288.132 1819.5 288.132 Q1818.38 288.132 1810.47 288.373 M1813.92 237.712 Q1813.92 236.066 1815.16 234.742 Q1816.45 233.377 1818.26 233.377 Q1820.06 233.377 1821.35 234.621 Q1822.63 235.825 1822.63 237.752 Q1822.63 239.639 1821.35 240.883 Q1820.06 242.088 1818.26 242.088 Q1816.37 242.088 1815.12 240.763 Q1813.92 239.438 1813.92 237.712 Z" fill="#000000" fill-rule="nonzero" fill-opacity="1"></path><path clip-path="url(#clip350)" d="M1832.06 255.496 L1832.06 252.926 Q1835.76 253.167 1840.05 253.167 Q1841.62 253.167 1849 252.926 L1849 255.496 Q1844.31 255.496 1844.31 257.623 Q1844.31 257.944 1844.79 259.028 L1854.02 281.95 L1862.41 260.995 Q1862.89 259.59 1862.89 259.028 Q1862.89 257.623 1861.93 256.62 Q1861.01 255.576 1858.96 255.496 L1858.96 252.926 Q1863.13 253.167 1866.11 253.167 Q1869.48 253.167 1872.25 252.926 L1872.25 255.496 Q1869.8 255.496 1868.07 256.62 Q1866.35 257.703 1865.78 258.667 Q1865.26 259.59 1864.7 260.995 L1853.94 287.73 Q1853.3 289.296 1852.22 289.296 Q1851.49 289.296 1851.17 288.975 Q1850.89 288.694 1850.49 287.73 L1838.65 258.546 Q1837.84 256.499 1836.8 256.017 Q1835.76 255.496 1832.06 255.496 Z" fill="#000000" fill-rule="nonzero" fill-opacity="1"></path><path clip-path="url(#clip350)" d="M1873.81 270.268 Q1873.81 262.521 1878.79 257.021 Q1883.77 251.521 1890.91 251.521 Q1898.14 251.521 1901.87 256.218 Q1905.65 260.915 1905.65 267.659 Q1905.65 268.903 1905.33 269.144 Q1905 269.385 1903.6 269.385 L1880.64 269.385 Q1880.64 277.775 1883.13 281.709 Q1886.58 287.208 1892.4 287.208 Q1893.2 287.208 1894.17 287.048 Q1895.13 286.887 1897.1 286.205 Q1899.06 285.482 1900.79 283.596 Q1902.52 281.709 1903.52 278.738 Q1903.76 277.574 1904.56 277.614 Q1905.65 277.614 1905.65 278.578 Q1905.65 279.3 1904.84 280.946 Q1904.08 282.552 1902.6 284.479 Q1901.11 286.406 1898.22 287.851 Q1895.37 289.296 1891.92 289.296 Q1884.69 289.296 1879.23 283.836 Q1873.81 278.337 1873.81 270.268 M1880.72 267.659 L1900.23 267.659 Q1900.23 265.933 1899.91 264.006 Q1899.62 262.079 1898.74 259.43 Q1897.9 256.74 1895.89 255.054 Q1893.88 253.368 1890.91 253.368 Q1889.59 253.368 1888.14 253.93 Q1886.74 254.492 1885.01 255.857 Q1883.29 257.222 1882.08 260.313 Q1880.88 263.404 1880.72 267.659 Z" fill="#000000" fill-rule="nonzero" fill-opacity="1"></path><path clip-path="url(#clip350)" d="M1938.8 277.855 Q1938.8 274.804 1940.09 272.797 Q1941.37 270.79 1944.63 267.418 L1952.13 259.43 Q1948.76 250.879 1948.76 242.73 Q1948.76 236.628 1952.21 233.096 Q1955.66 229.523 1959.92 229.523 Q1961.97 229.523 1963.49 230.647 Q1965.02 231.731 1965.7 233.457 Q1966.42 235.183 1966.74 236.829 Q1967.11 238.475 1967.11 240.121 Q1967.11 242.65 1965.26 245.901 Q1963.45 249.153 1961.77 251.281 Q1960.08 253.368 1957.07 256.74 Q1959.36 262.761 1963.85 269.425 Q1968.39 276.049 1970.72 278.658 Q1975.98 272.155 1982.48 260.754 Q1982.96 259.269 1982.96 259.108 Q1982.96 257.543 1981.44 256.539 Q1979.91 255.496 1977.1 255.496 L1977.1 252.926 Q1980.39 253.167 1987.14 253.167 Q1990.59 253.167 1995.13 252.926 L1995.13 255.496 Q1992.4 255.496 1990.59 255.977 Q1988.78 256.459 1987.38 257.784 Q1986.01 259.108 1985.17 260.232 Q1984.37 261.316 1982.88 263.885 Q1975.9 275.888 1972 280.304 Q1978.18 287.61 1983.36 287.65 Q1986.65 287.65 1989.51 285.282 Q1992.4 282.873 1992.56 278.417 L1994.64 278.417 Q1994.56 283.596 1991.19 286.887 Q1987.82 290.179 1983.04 290.179 Q1975.74 290.179 1968.55 283.917 Q1961.57 290.179 1953.7 290.179 Q1947.52 290.179 1943.14 286.646 Q1938.8 283.114 1938.8 277.855 M1945.63 275.206 Q1945.63 277.855 1946.31 280.505 Q1947.03 283.114 1949.12 285.402 Q1951.21 287.65 1954.34 287.65 Q1961.08 287.65 1966.98 282.351 Q1963.77 279.14 1959.44 272.757 Q1955.66 267.338 1952.85 261.316 Q1948.92 265.09 1947.27 267.9 Q1945.63 270.67 1945.63 275.206 M1953.94 240.843 Q1953.94 247.427 1956.39 254.733 Q1965.02 245.38 1965.02 240.04 Q1965.02 239.639 1964.98 239.037 Q1964.94 238.395 1964.7 236.909 Q1964.46 235.424 1963.97 234.34 Q1963.53 233.216 1962.49 232.293 Q1961.49 231.329 1960.08 231.329 Q1957.63 231.329 1955.78 233.698 Q1953.94 236.066 1953.94 240.843 Z" fill="#000000" fill-rule="nonzero" fill-opacity="1"></path><path clip-path="url(#clip350)" d="M2028.85 288.373 L2028.85 285.844 Q2033.22 285.844 2034.22 285.322 Q2035.27 284.76 2035.27 282.11 L2035.27 260.072 Q2035.27 257.021 2034.18 256.258 Q2033.14 255.496 2028.85 255.496 L2028.85 252.926 L2040.29 252.043 L2040.29 261.075 Q2041.45 257.543 2043.9 254.813 Q2046.39 252.043 2050.4 252.043 Q2053.05 252.043 2054.74 253.529 Q2056.46 255.014 2056.46 257.061 Q2056.46 258.868 2055.34 259.791 Q2054.26 260.674 2052.93 260.674 Q2051.45 260.674 2050.4 259.751 Q2049.4 258.787 2049.4 257.141 Q2049.4 256.138 2049.84 255.375 Q2050.32 254.572 2050.68 254.291 Q2051.04 254.01 2051.29 253.93 Q2051.12 253.85 2050.4 253.85 Q2045.87 253.85 2043.26 258.386 Q2040.69 262.882 2040.69 269.305 L2040.69 281.95 Q2040.69 284.318 2041.65 285.081 Q2042.65 285.844 2046.95 285.844 L2048.68 285.844 L2048.68 288.373 Q2045.38 288.132 2038.24 288.132 Q2037.23 288.132 2035.67 288.172 Q2034.1 288.212 2032.06 288.292 Q2030.01 288.373 2028.85 288.373 Z" fill="#000000" fill-rule="nonzero" fill-opacity="1"></path><path clip-path="url(#clip350)" d="M2060.96 270.268 Q2060.96 262.521 2065.94 257.021 Q2070.91 251.521 2078.06 251.521 Q2085.29 251.521 2089.02 256.218 Q2092.79 260.915 2092.79 267.659 Q2092.79 268.903 2092.47 269.144 Q2092.15 269.385 2090.75 269.385 L2067.78 269.385 Q2067.78 277.775 2070.27 281.709 Q2073.72 287.208 2079.55 287.208 Q2080.35 287.208 2081.31 287.048 Q2082.28 286.887 2084.24 286.205 Q2086.21 285.482 2087.94 283.596 Q2089.66 281.709 2090.67 278.738 Q2090.91 277.574 2091.71 277.614 Q2092.79 277.614 2092.79 278.578 Q2092.79 279.3 2091.99 280.946 Q2091.23 282.552 2089.74 284.479 Q2088.26 286.406 2085.37 287.851 Q2082.52 289.296 2079.06 289.296 Q2071.84 289.296 2066.38 283.836 Q2060.96 278.337 2060.96 270.268 M2067.86 267.659 L2087.37 267.659 Q2087.37 265.933 2087.05 264.006 Q2086.77 262.079 2085.89 259.43 Q2085.05 256.74 2083.04 255.054 Q2081.03 253.368 2078.06 253.368 Q2076.74 253.368 2075.29 253.93 Q2073.89 254.492 2072.16 255.857 Q2070.43 257.222 2069.23 260.313 Q2068.02 263.404 2067.86 267.659 Z" fill="#000000" fill-rule="nonzero" fill-opacity="1"></path><path clip-path="url(#clip350)" d="M2097.89 287.289 L2097.89 276.45 Q2097.89 275.527 2097.93 275.206 Q2097.97 274.885 2098.21 274.644 Q2098.45 274.403 2098.93 274.403 Q2099.5 274.403 2099.7 274.644 Q2099.94 274.885 2100.1 275.808 Q2101.34 281.468 2103.99 284.479 Q2106.68 287.449 2111.54 287.449 Q2116.16 287.449 2118.48 285.402 Q2120.81 283.355 2120.81 279.983 Q2120.81 273.961 2112.26 272.436 Q2107.32 271.432 2105.28 270.79 Q2103.23 270.108 2101.42 268.622 Q2097.89 265.732 2097.89 261.637 Q2097.89 257.543 2100.98 254.532 Q2104.11 251.521 2111.02 251.521 Q2115.63 251.521 2118.77 253.85 Q2119.69 253.127 2120.17 252.525 Q2121.25 251.521 2121.82 251.521 Q2122.46 251.521 2122.58 251.963 Q2122.7 252.364 2122.7 253.529 L2122.7 261.798 Q2122.7 262.721 2122.66 263.042 Q2122.62 263.364 2122.38 263.604 Q2122.14 263.805 2121.62 263.805 Q2120.69 263.805 2120.65 263.042 Q2120.01 253.087 2111.02 253.087 Q2106.16 253.087 2103.99 254.974 Q2101.83 256.82 2101.83 259.349 Q2101.83 260.754 2102.47 261.838 Q2103.15 262.882 2103.99 263.524 Q2104.88 264.126 2106.48 264.728 Q2108.09 265.29 2109.05 265.491 Q2110.05 265.692 2111.94 266.093 Q2118.52 267.338 2121.29 270.027 Q2124.75 273.48 2124.75 277.855 Q2124.75 282.712 2121.45 286.004 Q2118.16 289.296 2111.54 289.296 Q2106.2 289.296 2102.47 285.723 Q2101.99 286.205 2101.62 286.646 Q2101.26 287.048 2101.1 287.208 Q2100.98 287.369 2100.94 287.489 Q2100.9 287.57 2100.82 287.65 Q2099.18 289.296 2098.77 289.296 Q2098.13 289.296 2098.01 288.854 Q2097.89 288.453 2097.89 287.289 Z" fill="#000000" fill-rule="nonzero" fill-opacity="1"></path><path clip-path="url(#clip350)" d="M2135.55 283.877 Q2130.33 278.417 2130.33 270.629 Q2130.33 262.802 2135.46 257.182 Q2140.6 251.521 2148.15 251.521 Q2153.17 251.521 2156.94 253.93 Q2160.71 256.298 2160.71 260.353 Q2160.71 262.159 2159.63 263.203 Q2158.59 264.207 2156.94 264.207 Q2155.22 264.207 2154.17 263.163 Q2153.17 262.079 2153.17 260.433 Q2153.17 259.711 2153.41 258.988 Q2153.65 258.265 2154.53 257.503 Q2155.46 256.74 2157.02 256.62 Q2154.09 253.609 2148.39 253.609 Q2148.31 253.609 2148.23 253.609 Q2144.06 253.609 2140.6 257.543 Q2137.15 261.477 2137.15 270.469 Q2137.15 275.166 2138.27 278.618 Q2139.44 282.03 2141.33 283.796 Q2143.21 285.563 2145.06 286.406 Q2146.91 287.208 2148.71 287.208 Q2156.78 287.208 2159.51 278.578 Q2159.75 277.775 2160.55 277.775 Q2161.64 277.775 2161.64 278.578 Q2161.64 278.979 2161.32 280.023 Q2161 281.067 2159.99 282.712 Q2158.99 284.358 2157.54 285.803 Q2156.14 287.208 2153.61 288.252 Q2151.12 289.296 2147.99 289.296 Q2140.76 289.296 2135.55 283.877 Z" fill="#000000" fill-rule="nonzero" fill-opacity="1"></path><path clip-path="url(#clip350)" d="M2167.46 280.545 Q2167.46 273.56 2175.69 269.867 Q2180.63 267.498 2190.82 266.896 L2190.82 263.885 Q2190.82 258.787 2188.13 256.098 Q2185.48 253.368 2182.11 253.368 Q2176.09 253.368 2173.2 257.141 Q2175.65 257.222 2176.53 258.466 Q2177.41 259.67 2177.41 260.915 Q2177.41 262.561 2176.37 263.645 Q2175.37 264.688 2173.64 264.688 Q2171.99 264.688 2170.91 263.685 Q2169.83 262.641 2169.83 260.835 Q2169.83 256.82 2173.44 254.171 Q2177.09 251.521 2182.27 251.521 Q2189.02 251.521 2193.51 256.058 Q2194.92 257.463 2195.6 259.269 Q2196.32 261.075 2196.4 262.28 Q2196.48 263.444 2196.48 265.772 L2196.48 282.191 Q2196.48 282.672 2196.64 283.475 Q2196.8 284.278 2197.53 285.322 Q2198.29 286.325 2199.53 286.325 Q2202.5 286.325 2202.46 281.067 L2202.46 276.45 L2204.55 276.45 L2204.55 281.067 Q2204.55 285.442 2202.22 287.168 Q2199.93 288.854 2197.81 288.854 Q2195.08 288.854 2193.35 286.847 Q2191.62 284.84 2191.38 282.11 Q2190.14 285.241 2187.29 287.289 Q2184.48 289.296 2180.63 289.296 Q2177.66 289.296 2174.85 288.533 Q2172.08 287.811 2169.75 285.763 Q2167.46 283.676 2167.46 280.545 M2173.8 280.464 Q2173.8 283.515 2175.97 285.482 Q2178.14 287.449 2181.19 287.449 Q2184.64 287.449 2187.73 284.8 Q2190.82 282.11 2190.82 276.852 L2190.82 268.622 Q2181.71 268.943 2177.74 272.596 Q2173.8 276.209 2173.8 280.464 Z" fill="#000000" fill-rule="nonzero" fill-opacity="1"></path><path clip-path="url(#clip350)" d="M2207.84 288.373 L2207.84 285.844 Q2212.22 285.844 2213.22 285.322 Q2214.23 284.76 2214.23 282.11 L2214.23 239.358 Q2214.23 236.307 2213.14 235.544 Q2212.1 234.782 2207.84 234.782 L2207.84 232.213 L2219.64 231.329 L2219.64 282.11 Q2219.64 284.76 2220.69 285.322 Q2221.73 285.844 2226.07 285.844 L2226.07 288.373 Q2225.06 288.373 2222.98 288.292 Q2220.89 288.212 2219.36 288.172 Q2217.84 288.132 2216.96 288.132 Q2215.99 288.132 2207.84 288.373 Z" fill="#000000" fill-rule="nonzero" fill-opacity="1"></path><path clip-path="url(#clip350)" d="M2230.16 270.268 Q2230.16 262.521 2235.14 257.021 Q2240.12 251.521 2247.26 251.521 Q2254.49 251.521 2258.22 256.218 Q2262 260.915 2262 267.659 Q2262 268.903 2261.67 269.144 Q2261.35 269.385 2259.95 269.385 L2236.99 269.385 Q2236.99 277.775 2239.48 281.709 Q2242.93 287.208 2248.75 287.208 Q2249.55 287.208 2250.51 287.048 Q2251.48 286.887 2253.44 286.205 Q2255.41 285.482 2257.14 283.596 Q2258.86 281.709 2259.87 278.738 Q2260.11 277.574 2260.91 277.614 Q2262 277.614 2262 278.578 Q2262 279.3 2261.19 280.946 Q2260.43 282.552 2258.94 284.479 Q2257.46 286.406 2254.57 287.851 Q2251.72 289.296 2248.27 289.296 Q2241.04 289.296 2235.58 283.836 Q2230.16 278.337 2230.16 270.268 M2237.07 267.659 L2256.58 267.659 Q2256.58 265.933 2256.25 264.006 Q2255.97 262.079 2255.09 259.43 Q2254.25 256.74 2252.24 255.054 Q2250.23 253.368 2247.26 253.368 Q2245.94 253.368 2244.49 253.93 Q2243.09 254.492 2241.36 255.857 Q2239.64 257.222 2238.43 260.313 Q2237.23 263.404 2237.07 267.659 Z" fill="#000000" fill-rule="nonzero" fill-opacity="1"></path></svg>