<svg xmlns="http://www.w3.org/2000/svg" xmlns:xlink="http://www.w3.org/1999/xlink" width="600" height="400" viewBox="0 0 2400 1600">
<defs>
  <clipPath id="clip740">
    <rect x="0" y="0" width="2400" height="1600"></rect>
  </clipPath>
</defs>
<path clip-path="url(#clip740)" d="M0 1600 L2400 1600 L2400 0 L0 0  Z" fill="#ffffff" fill-rule="evenodd" fill-opacity="1"></path>
<defs>
  <clipPath id="clip741">
    <rect x="480" y="0" width="1681" height="1600"></rect>
  </clipPath>
</defs>
<path clip-path="url(#clip740)" d="M263.683 1384.3 L2352.76 1384.3 L2352.76 47.2441 L263.683 47.2441  Z" fill="#ffffff" fill-rule="evenodd" fill-opacity="1"></path>
<defs>
  <clipPath id="clip742">
    <rect x="263" y="47" width="2090" height="1338"></rect>
  </clipPath>
</defs>
<polyline clip-path="url(#clip742)" style="stroke:#000000; stroke-linecap:round; stroke-linejoin:round; stroke-width:2; stroke-opacity:0.1; fill:none" points="541.788,1384.3 541.788,47.2441 "></polyline>
<polyline clip-path="url(#clip742)" style="stroke:#000000; stroke-linecap:round; stroke-linejoin:round; stroke-width:2; stroke-opacity:0.1; fill:none" points="979.749,1384.3 979.749,47.2441 "></polyline>
<polyline clip-path="url(#clip742)" style="stroke:#000000; stroke-linecap:round; stroke-linejoin:round; stroke-width:2; stroke-opacity:0.1; fill:none" points="1417.71,1384.3 1417.71,47.2441 "></polyline>
<polyline clip-path="url(#clip742)" style="stroke:#000000; stroke-linecap:round; stroke-linejoin:round; stroke-width:2; stroke-opacity:0.1; fill:none" points="1855.67,1384.3 1855.67,47.2441 "></polyline>
<polyline clip-path="url(#clip742)" style="stroke:#000000; stroke-linecap:round; stroke-linejoin:round; stroke-width:2; stroke-opacity:0.1; fill:none" points="2293.63,1384.3 2293.63,47.2441 "></polyline>
<polyline clip-path="url(#clip740)" style="stroke:#000000; stroke-linecap:round; stroke-linejoin:round; stroke-width:4; stroke-opacity:1; fill:none" points="263.683,1384.3 2352.76,1384.3 "></polyline>
<polyline clip-path="url(#clip740)" style="stroke:#000000; stroke-linecap:round; stroke-linejoin:round; stroke-width:4; stroke-opacity:1; fill:none" points="541.788,1384.3 541.788,1365.4 "></polyline>
<polyline clip-path="url(#clip740)" style="stroke:#000000; stroke-linecap:round; stroke-linejoin:round; stroke-width:4; stroke-opacity:1; fill:none" points="979.749,1384.3 979.749,1365.4 "></polyline>
<polyline clip-path="url(#clip740)" style="stroke:#000000; stroke-linecap:round; stroke-linejoin:round; stroke-width:4; stroke-opacity:1; fill:none" points="1417.71,1384.3 1417.71,1365.4 "></polyline>
<polyline clip-path="url(#clip740)" style="stroke:#000000; stroke-linecap:round; stroke-linejoin:round; stroke-width:4; stroke-opacity:1; fill:none" points="1855.67,1384.3 1855.67,1365.4 "></polyline>
<polyline clip-path="url(#clip740)" style="stroke:#000000; stroke-linecap:round; stroke-linejoin:round; stroke-width:4; stroke-opacity:1; fill:none" points="2293.63,1384.3 2293.63,1365.4 "></polyline>
<path clip-path="url(#clip740)" d="M526.632 1468.3 Q526.632 1466.93 526.743 1466.52 Q526.892 1466.11 527.484 1465.48 L542.047 1449.25 Q550.014 1440.29 550.014 1432.47 Q550.014 1427.39 547.346 1423.76 Q544.715 1420.13 539.861 1420.13 Q536.526 1420.13 533.71 1422.17 Q530.894 1424.2 529.597 1427.84 Q529.819 1427.76 530.597 1427.76 Q532.487 1427.76 533.524 1428.95 Q534.599 1430.13 534.599 1431.73 Q534.599 1433.76 533.265 1434.77 Q531.968 1435.73 530.671 1435.73 Q530.152 1435.73 529.448 1435.62 Q528.781 1435.51 527.707 1434.47 Q526.632 1433.39 526.632 1431.5 Q526.632 1426.21 530.634 1421.98 Q534.673 1417.76 540.824 1417.76 Q547.791 1417.76 552.348 1421.91 Q556.943 1426.02 556.943 1432.47 Q556.943 1434.73 556.239 1436.8 Q555.572 1438.84 554.646 1440.43 Q553.756 1442.03 551.311 1444.58 Q548.865 1447.14 546.901 1448.96 Q544.937 1450.77 540.528 1454.63 L532.487 1462.45 L546.16 1462.45 Q552.83 1462.45 553.349 1461.85 Q554.09 1460.78 555.016 1455.11 L556.943 1455.11 L554.794 1468.3 L526.632 1468.3 Z" fill="#000000" fill-rule="nonzero" fill-opacity="1"></path><path clip-path="url(#clip740)" d="M962.926 1455.78 L962.926 1453.44 L986.233 1417.83 Q986.826 1416.9 987.752 1416.94 Q988.605 1416.94 988.79 1417.28 Q988.975 1417.61 988.975 1418.91 L988.975 1453.44 L996.572 1453.44 L996.572 1455.78 L988.975 1455.78 L988.975 1462.37 Q988.975 1464.56 989.865 1465.26 Q990.791 1465.97 994.719 1465.97 L996.312 1465.97 L996.312 1468.3 Q993.2 1468.08 986.011 1468.08 Q978.859 1468.08 975.747 1468.3 L975.747 1465.97 L977.34 1465.97 Q981.268 1465.97 982.194 1465.3 Q983.121 1464.59 983.121 1462.37 L983.121 1455.78 L962.926 1455.78 M965.075 1453.44 L983.565 1453.44 L983.565 1425.13 L965.075 1453.44 Z" fill="#000000" fill-rule="nonzero" fill-opacity="1"></path><path clip-path="url(#clip740)" d="M1401.96 1444.33 Q1401.96 1432.39 1408.04 1425.09 Q1414.12 1417.76 1421.93 1417.76 Q1426.49 1417.76 1429.01 1420.09 Q1431.57 1422.39 1431.57 1425.95 Q1431.57 1427.91 1430.42 1428.76 Q1429.27 1429.61 1428.08 1429.61 Q1426.71 1429.61 1425.64 1428.69 Q1424.56 1427.76 1424.56 1426.09 Q1424.56 1422.69 1428.75 1422.69 Q1426.79 1419.65 1422.08 1419.65 Q1420.64 1419.65 1419.15 1420.09 Q1417.67 1420.5 1415.75 1421.91 Q1413.82 1423.32 1412.34 1425.54 Q1410.85 1427.76 1409.82 1431.95 Q1408.78 1436.14 1408.78 1441.58 L1408.78 1443.4 Q1411.89 1435.88 1418.27 1435.91 Q1424.64 1435.91 1429.05 1440.77 Q1433.46 1445.62 1433.46 1452.81 Q1433.46 1460.18 1428.86 1465.08 Q1424.27 1469.97 1417.82 1469.97 Q1414.93 1469.97 1412.3 1468.74 Q1409.71 1467.56 1407.26 1464.82 Q1404.85 1462.07 1403.41 1456.81 Q1401.96 1451.55 1401.96 1444.33 M1408.93 1451.14 Q1408.93 1458.59 1410.3 1462.15 Q1410.52 1462.74 1411 1463.56 Q1411.52 1464.37 1412.37 1465.45 Q1413.26 1466.48 1414.71 1467.19 Q1416.15 1467.86 1417.82 1467.86 Q1422.9 1467.86 1425.34 1462.93 Q1426.64 1460.18 1426.64 1452.74 Q1426.64 1445.14 1425.27 1442.36 Q1422.93 1437.66 1418.19 1437.66 Q1415 1437.66 1412.78 1439.84 Q1410.59 1442.03 1409.74 1444.96 Q1408.93 1447.88 1408.93 1451.14 Z" fill="#000000" fill-rule="nonzero" fill-opacity="1"></path><path clip-path="url(#clip740)" d="M1839.92 1456.85 Q1839.92 1448.36 1850.85 1442.88 Q1846.15 1439.69 1845.29 1438.77 Q1841.96 1435.06 1841.96 1430.43 Q1841.96 1425.13 1845.96 1421.46 Q1850 1417.76 1855.71 1417.76 Q1861.15 1417.76 1865.27 1420.91 Q1869.38 1424.06 1869.38 1429.06 Q1869.38 1436.1 1860.19 1440.84 Q1866.27 1444.62 1867.71 1446.22 Q1871.42 1450.33 1871.42 1455.55 Q1871.42 1461.63 1866.75 1465.82 Q1862.08 1469.97 1855.63 1469.97 Q1849.33 1469.97 1844.63 1466.3 Q1839.92 1462.63 1839.92 1456.85 M1843.7 1456.85 Q1843.7 1461.56 1847.22 1464.71 Q1850.78 1467.86 1855.71 1467.86 Q1860.49 1467.86 1864.04 1465.11 Q1867.64 1462.37 1867.64 1458.29 Q1867.64 1456.7 1867.08 1455.33 Q1866.56 1453.96 1865.49 1452.88 Q1864.45 1451.77 1863.79 1451.29 Q1863.16 1450.77 1861.93 1449.92 L1852.59 1444.03 Q1843.7 1448.96 1843.7 1456.85 M1845.29 1427.47 Q1845.29 1431.1 1849.11 1433.62 L1858.52 1439.69 Q1866.05 1435.28 1866.05 1429.06 Q1866.05 1425.02 1862.97 1422.35 Q1859.89 1419.65 1855.63 1419.65 Q1851.45 1419.65 1848.37 1421.87 Q1845.29 1424.06 1845.29 1427.47 Z" fill="#000000" fill-rule="nonzero" fill-opacity="1"></path><path clip-path="url(#clip740)" d="M2260.58 1424.98 L2260.58 1422.61 Q2269.69 1422.61 2274.4 1417.76 Q2275.7 1417.76 2275.92 1418.05 Q2276.14 1418.35 2276.14 1419.72 L2276.14 1462.3 Q2276.14 1464.56 2277.25 1465.26 Q2278.36 1465.97 2283.22 1465.97 L2285.63 1465.97 L2285.63 1468.3 Q2282.96 1468.08 2273.33 1468.08 Q2263.69 1468.08 2261.06 1468.3 L2261.06 1465.97 L2263.47 1465.97 Q2268.25 1465.97 2269.4 1465.3 Q2270.55 1464.59 2270.55 1462.3 L2270.55 1422.98 Q2266.58 1424.98 2260.58 1424.98 Z" fill="#000000" fill-rule="nonzero" fill-opacity="1"></path><path clip-path="url(#clip740)" d="M2294.74 1444.03 Q2294.74 1432.88 2297.56 1426.8 Q2301.49 1417.76 2310.75 1417.76 Q2312.71 1417.76 2314.75 1418.31 Q2316.83 1418.83 2319.42 1420.87 Q2322.05 1422.91 2323.65 1426.24 Q2326.68 1432.69 2326.68 1444.03 Q2326.68 1455.11 2323.87 1461.15 Q2319.75 1469.97 2310.68 1469.97 Q2307.27 1469.97 2303.78 1468.23 Q2300.34 1466.48 2298.15 1462.3 Q2294.74 1456.03 2294.74 1444.03 M2301.04 1443.1 Q2301.04 1454.55 2301.86 1459.11 Q2302.78 1464.04 2305.3 1466.19 Q2307.86 1468.3 2310.68 1468.3 Q2313.72 1468.3 2316.23 1466.04 Q2318.79 1463.74 2319.57 1458.81 Q2320.42 1453.96 2320.38 1443.1 Q2320.38 1432.54 2319.64 1428.32 Q2318.64 1423.39 2315.98 1421.43 Q2313.34 1419.42 2310.68 1419.42 Q2309.68 1419.42 2308.6 1419.72 Q2307.56 1420.02 2306.04 1420.87 Q2304.53 1421.72 2303.34 1423.83 Q2302.19 1425.95 2301.64 1429.13 Q2301.04 1433.25 2301.04 1443.1 Z" fill="#000000" fill-rule="nonzero" fill-opacity="1"></path><path clip-path="url(#clip740)" d="M1210.64 1581 L1210.64 1577.89 Q1216.03 1577.89 1217.26 1577.25 Q1218.55 1576.56 1218.55 1573.3 L1218.55 1546.17 Q1218.55 1542.42 1217.21 1541.48 Q1215.93 1540.54 1210.64 1540.54 L1210.64 1537.38 L1224.72 1536.29 L1224.72 1547.41 Q1226.15 1543.06 1229.17 1539.7 Q1232.23 1536.29 1237.17 1536.29 Q1240.43 1536.29 1242.51 1538.12 Q1244.63 1539.95 1244.63 1542.47 Q1244.63 1544.69 1243.25 1545.83 Q1241.92 1546.91 1240.28 1546.91 Q1238.46 1546.91 1237.17 1545.78 Q1235.94 1544.59 1235.94 1542.57 Q1235.94 1541.33 1236.48 1540.39 Q1237.07 1539.4 1237.52 1539.06 Q1237.96 1538.71 1238.26 1538.61 Q1238.06 1538.51 1237.17 1538.51 Q1231.59 1538.51 1228.38 1544.1 Q1225.22 1549.63 1225.22 1557.54 L1225.22 1573.1 Q1225.22 1576.01 1226.4 1576.95 Q1227.64 1577.89 1232.92 1577.89 L1235.05 1577.89 L1235.05 1581 Q1231 1580.71 1222.2 1580.71 Q1220.97 1580.71 1219.04 1580.76 Q1217.11 1580.81 1214.59 1580.91 Q1212.07 1581 1210.64 1581 Z" fill="#000000" fill-rule="nonzero" fill-opacity="1"></path><path clip-path="url(#clip740)" d="M1251.6 1571.37 Q1251.6 1562.77 1261.73 1558.23 Q1267.8 1555.31 1280.35 1554.57 L1280.35 1550.87 Q1280.35 1544.59 1277.04 1541.28 Q1273.78 1537.92 1269.63 1537.92 Q1262.22 1537.92 1258.66 1542.57 Q1261.68 1542.66 1262.77 1544.2 Q1263.85 1545.68 1263.85 1547.21 Q1263.85 1549.24 1262.57 1550.57 Q1261.33 1551.85 1259.21 1551.85 Q1257.18 1551.85 1255.85 1550.62 Q1254.51 1549.33 1254.51 1547.11 Q1254.51 1542.17 1258.96 1538.91 Q1263.46 1535.65 1269.83 1535.65 Q1278.13 1535.65 1283.66 1541.23 Q1285.39 1542.96 1286.23 1545.18 Q1287.12 1547.41 1287.22 1548.89 Q1287.32 1550.32 1287.32 1553.19 L1287.32 1573.4 Q1287.32 1573.99 1287.52 1574.98 Q1287.72 1575.96 1288.6 1577.25 Q1289.54 1578.48 1291.08 1578.48 Q1294.73 1578.48 1294.68 1572.01 L1294.68 1566.33 L1297.25 1566.33 L1297.25 1572.01 Q1297.25 1577.4 1294.39 1579.52 Q1291.57 1581.6 1288.95 1581.6 Q1285.59 1581.6 1283.47 1579.13 Q1281.34 1576.66 1281.05 1573.3 Q1279.51 1577.15 1276.01 1579.67 Q1272.55 1582.14 1267.8 1582.14 Q1264.15 1582.14 1260.69 1581.2 Q1257.28 1580.31 1254.42 1577.79 Q1251.6 1575.22 1251.6 1571.37 M1259.41 1571.27 Q1259.41 1575.03 1262.07 1577.45 Q1264.74 1579.87 1268.5 1579.87 Q1272.75 1579.87 1276.55 1576.61 Q1280.35 1573.3 1280.35 1566.82 L1280.35 1556.7 Q1269.14 1557.09 1264.25 1561.59 Q1259.41 1566.03 1259.41 1571.27 Z" fill="#000000" fill-rule="nonzero" fill-opacity="1"></path><path clip-path="url(#clip740)" d="M1301.2 1581 L1301.2 1577.89 Q1306.59 1577.89 1307.82 1577.25 Q1309.06 1576.56 1309.06 1573.3 L1309.06 1546.17 Q1309.06 1542.42 1307.73 1541.48 Q1306.44 1540.54 1301.2 1540.54 L1301.2 1537.38 L1315.43 1536.29 L1315.43 1546.91 Q1320.18 1536.29 1330.4 1536.29 Q1338.01 1536.29 1341.03 1540.05 Q1343.25 1542.57 1343.69 1545.38 Q1344.19 1548.2 1344.19 1555.51 L1344.19 1574.83 Q1344.29 1576.95 1345.92 1577.45 Q1347.55 1577.89 1352.09 1577.89 L1352.09 1581 Q1341.77 1580.71 1340.73 1580.71 Q1339.94 1580.71 1329.32 1581 L1329.32 1577.89 Q1334.7 1577.89 1335.94 1577.25 Q1337.22 1576.56 1337.22 1573.3 L1337.22 1549.73 Q1337.22 1544.59 1335.64 1541.58 Q1334.06 1538.51 1329.71 1538.51 Q1324.47 1538.51 1320.27 1542.91 Q1316.07 1547.31 1316.07 1554.72 L1316.07 1573.3 Q1316.07 1576.56 1317.31 1577.25 Q1318.59 1577.89 1323.93 1577.89 L1323.93 1581 Q1313.6 1580.71 1312.62 1580.71 Q1311.83 1580.71 1301.2 1581 Z" fill="#000000" fill-rule="nonzero" fill-opacity="1"></path><path clip-path="url(#clip740)" d="M1356.88 1581 L1356.88 1577.89 Q1362.27 1577.89 1363.51 1577.25 Q1364.79 1576.56 1364.79 1573.3 L1364.79 1520.68 Q1364.79 1516.92 1363.46 1515.98 Q1362.17 1515.05 1356.88 1515.05 L1356.88 1511.88 L1371.46 1510.8 L1371.46 1559.36 L1385.74 1547.01 Q1387.96 1545.09 1387.96 1543.06 Q1387.96 1540.74 1385.05 1540.54 L1385.05 1537.38 Q1389.3 1537.67 1396.36 1537.67 Q1400.51 1537.67 1403.43 1537.38 L1403.43 1540.54 Q1397.05 1540.84 1390.68 1545.97 Q1389.25 1547.11 1385.84 1550.08 Q1382.48 1552.99 1382.48 1553.29 Q1382.48 1553.39 1382.58 1553.63 Q1382.72 1553.88 1382.92 1554.08 Q1383.12 1554.27 1383.12 1554.37 L1395.97 1572.51 Q1398.58 1576.16 1400.51 1577.05 Q1402.44 1577.89 1405.8 1577.89 L1405.8 1581 Q1401.45 1580.71 1396.95 1580.71 Q1394.53 1580.71 1386.03 1581 L1386.03 1577.89 Q1389.69 1577.89 1389.69 1575.52 Q1389.69 1573.89 1381.49 1562.58 Q1380.9 1561.78 1379.56 1560.06 Q1378.33 1558.23 1377.64 1557.34 L1371.16 1562.87 L1371.16 1573.3 Q1371.16 1576.56 1372.4 1577.25 Q1373.68 1577.89 1379.07 1577.89 L1379.07 1581 Q1372.99 1580.71 1367.95 1580.71 Q1366.91 1580.71 1356.88 1581 Z" fill="#000000" fill-rule="nonzero" fill-opacity="1"></path><polyline clip-path="url(#clip742)" style="stroke:#000000; stroke-linecap:round; stroke-linejoin:round; stroke-width:2; stroke-opacity:0.1; fill:none" points="263.683,1277.2 2352.76,1277.2 "></polyline>
<polyline clip-path="url(#clip742)" style="stroke:#000000; stroke-linecap:round; stroke-linejoin:round; stroke-width:2; stroke-opacity:0.1; fill:none" points="263.683,1098.29 2352.76,1098.29 "></polyline>
<polyline clip-path="url(#clip742)" style="stroke:#000000; stroke-linecap:round; stroke-linejoin:round; stroke-width:2; stroke-opacity:0.1; fill:none" points="263.683,919.381 2352.76,919.381 "></polyline>
<polyline clip-path="url(#clip742)" style="stroke:#000000; stroke-linecap:round; stroke-linejoin:round; stroke-width:2; stroke-opacity:0.1; fill:none" points="263.683,740.472 2352.76,740.472 "></polyline>
<polyline clip-path="url(#clip742)" style="stroke:#000000; stroke-linecap:round; stroke-linejoin:round; stroke-width:2; stroke-opacity:0.1; fill:none" points="263.683,561.562 2352.76,561.562 "></polyline>
<polyline clip-path="url(#clip742)" style="stroke:#000000; stroke-linecap:round; stroke-linejoin:round; stroke-width:2; stroke-opacity:0.1; fill:none" points="263.683,382.652 2352.76,382.652 "></polyline>
<polyline clip-path="url(#clip742)" style="stroke:#000000; stroke-linecap:round; stroke-linejoin:round; stroke-width:2; stroke-opacity:0.1; fill:none" points="263.683,203.743 2352.76,203.743 "></polyline>
<polyline clip-path="url(#clip740)" style="stroke:#000000; stroke-linecap:round; stroke-linejoin:round; stroke-width:4; stroke-opacity:1; fill:none" points="263.683,1384.3 263.683,47.2441 "></polyline>
<polyline clip-path="url(#clip740)" style="stroke:#000000; stroke-linecap:round; stroke-linejoin:round; stroke-width:4; stroke-opacity:1; fill:none" points="263.683,1277.2 282.58,1277.2 "></polyline>
<polyline clip-path="url(#clip740)" style="stroke:#000000; stroke-linecap:round; stroke-linejoin:round; stroke-width:4; stroke-opacity:1; fill:none" points="263.683,1098.29 282.58,1098.29 "></polyline>
<polyline clip-path="url(#clip740)" style="stroke:#000000; stroke-linecap:round; stroke-linejoin:round; stroke-width:4; stroke-opacity:1; fill:none" points="263.683,919.381 282.58,919.381 "></polyline>
<polyline clip-path="url(#clip740)" style="stroke:#000000; stroke-linecap:round; stroke-linejoin:round; stroke-width:4; stroke-opacity:1; fill:none" points="263.683,740.472 282.58,740.472 "></polyline>
<polyline clip-path="url(#clip740)" style="stroke:#000000; stroke-linecap:round; stroke-linejoin:round; stroke-width:4; stroke-opacity:1; fill:none" points="263.683,561.562 282.58,561.562 "></polyline>
<polyline clip-path="url(#clip740)" style="stroke:#000000; stroke-linecap:round; stroke-linejoin:round; stroke-width:4; stroke-opacity:1; fill:none" points="263.683,382.652 282.58,382.652 "></polyline>
<polyline clip-path="url(#clip740)" style="stroke:#000000; stroke-linecap:round; stroke-linejoin:round; stroke-width:4; stroke-opacity:1; fill:none" points="263.683,203.743 282.58,203.743 "></polyline>
<path clip-path="url(#clip740)" d="M137.528 1278.85 Q137.528 1267.7 140.344 1261.62 Q144.272 1252.58 153.535 1252.58 Q155.499 1252.58 157.537 1253.13 Q159.612 1253.65 162.206 1255.69 Q164.837 1257.73 166.431 1261.06 Q169.469 1267.51 169.469 1278.85 Q169.469 1289.93 166.653 1295.97 Q162.54 1304.79 153.461 1304.79 Q150.052 1304.79 146.569 1303.05 Q143.123 1301.3 140.937 1297.12 Q137.528 1290.86 137.528 1278.85 M143.827 1277.92 Q143.827 1289.37 144.642 1293.93 Q145.569 1298.86 148.088 1301.01 Q150.645 1303.12 153.461 1303.12 Q156.5 1303.12 159.02 1300.86 Q161.576 1298.56 162.355 1293.63 Q163.207 1288.78 163.17 1277.92 Q163.17 1267.36 162.429 1263.14 Q161.428 1258.21 158.76 1256.25 Q156.129 1254.24 153.461 1254.24 Q152.461 1254.24 151.386 1254.54 Q150.349 1254.84 148.829 1255.69 Q147.31 1256.54 146.124 1258.65 Q144.976 1260.77 144.42 1263.95 Q143.827 1268.07 143.827 1277.92 Z" fill="#000000" fill-rule="nonzero" fill-opacity="1"></path><path clip-path="url(#clip740)" d="M180.104 1301.9 Q178.955 1300.67 178.955 1299.08 Q178.955 1297.49 180.104 1296.34 Q181.253 1295.15 182.994 1295.15 Q184.662 1295.15 185.773 1296.27 Q186.922 1297.34 186.922 1299.12 Q186.922 1300.86 185.699 1302.01 Q184.513 1303.12 182.994 1303.12 Q181.253 1303.12 180.104 1301.9 Z" fill="#000000" fill-rule="nonzero" fill-opacity="1"></path><path clip-path="url(#clip740)" d="M197.372 1303.12 Q197.372 1301.75 197.483 1301.34 Q197.631 1300.93 198.224 1300.3 L212.786 1284.07 Q220.753 1275.11 220.753 1267.29 Q220.753 1262.21 218.085 1258.58 Q215.454 1254.95 210.6 1254.95 Q207.265 1254.95 204.449 1256.99 Q201.633 1259.03 200.336 1262.66 Q200.558 1262.58 201.336 1262.58 Q203.226 1262.58 204.264 1263.77 Q205.338 1264.95 205.338 1266.55 Q205.338 1268.59 204.004 1269.59 Q202.707 1270.55 201.411 1270.55 Q200.892 1270.55 200.188 1270.44 Q199.521 1270.33 198.446 1269.29 Q197.372 1268.21 197.372 1266.32 Q197.372 1261.03 201.373 1256.8 Q205.412 1252.58 211.564 1252.58 Q218.53 1252.58 223.088 1256.73 Q227.683 1260.84 227.683 1267.29 Q227.683 1269.55 226.978 1271.62 Q226.312 1273.66 225.385 1275.26 Q224.496 1276.85 222.05 1279.41 Q219.605 1281.96 217.641 1283.78 Q215.677 1285.59 211.267 1289.45 L203.226 1297.27 L216.9 1297.27 Q223.569 1297.27 224.088 1296.67 Q224.829 1295.6 225.756 1289.93 L227.683 1289.93 L225.533 1303.12 L197.372 1303.12 Z" fill="#000000" fill-rule="nonzero" fill-opacity="1"></path><path clip-path="url(#clip740)" d="M135.86 1099.94 Q135.86 1088.79 138.676 1082.71 Q142.604 1073.67 151.868 1073.67 Q153.832 1073.67 155.87 1074.22 Q157.945 1074.74 160.539 1076.78 Q163.17 1078.82 164.763 1082.15 Q167.802 1088.6 167.802 1099.94 Q167.802 1111.02 164.985 1117.06 Q160.872 1125.88 151.794 1125.88 Q148.385 1125.88 144.902 1124.14 Q141.455 1122.4 139.269 1118.21 Q135.86 1111.95 135.86 1099.94 M142.16 1099.01 Q142.16 1110.46 142.975 1115.02 Q143.901 1119.95 146.421 1122.1 Q148.978 1124.21 151.794 1124.21 Q154.832 1124.21 157.352 1121.95 Q159.909 1119.65 160.687 1114.72 Q161.539 1109.87 161.502 1099.01 Q161.502 1088.45 160.761 1084.23 Q159.761 1079.3 157.093 1077.34 Q154.462 1075.34 151.794 1075.34 Q150.793 1075.34 149.719 1075.63 Q148.681 1075.93 147.162 1076.78 Q145.643 1077.63 144.457 1079.74 Q143.308 1081.86 142.752 1085.04 Q142.16 1089.16 142.16 1099.01 Z" fill="#000000" fill-rule="nonzero" fill-opacity="1"></path><path clip-path="url(#clip740)" d="M178.436 1122.99 Q177.288 1121.77 177.288 1120.17 Q177.288 1118.58 178.436 1117.43 Q179.585 1116.24 181.327 1116.24 Q182.994 1116.24 184.106 1117.36 Q185.255 1118.43 185.255 1120.21 Q185.255 1121.95 184.032 1123.1 Q182.846 1124.21 181.327 1124.21 Q179.585 1124.21 178.436 1122.99 Z" fill="#000000" fill-rule="nonzero" fill-opacity="1"></path><path clip-path="url(#clip740)" d="M194.037 1111.69 L194.037 1109.35 L217.344 1073.74 Q217.937 1072.82 218.863 1072.85 Q219.716 1072.85 219.901 1073.19 Q220.086 1073.52 220.086 1074.82 L220.086 1109.35 L227.683 1109.35 L227.683 1111.69 L220.086 1111.69 L220.086 1118.28 Q220.086 1120.47 220.976 1121.17 Q221.902 1121.88 225.83 1121.88 L227.423 1121.88 L227.423 1124.21 Q224.311 1123.99 217.122 1123.99 Q209.97 1123.99 206.858 1124.21 L206.858 1121.88 L208.451 1121.88 Q212.379 1121.88 213.305 1121.21 Q214.232 1120.51 214.232 1118.28 L214.232 1111.69 L194.037 1111.69 M196.186 1109.35 L214.676 1109.35 L214.676 1081.04 L196.186 1109.35 Z" fill="#000000" fill-rule="nonzero" fill-opacity="1"></path><path clip-path="url(#clip740)" d="M136.935 921.03 Q136.935 909.877 139.751 903.8 Q143.679 894.758 152.943 894.758 Q154.906 894.758 156.944 895.314 Q159.02 895.833 161.613 897.871 Q164.244 899.909 165.838 903.244 Q168.876 909.691 168.876 921.03 Q168.876 932.11 166.06 938.15 Q161.947 946.969 152.868 946.969 Q149.459 946.969 145.976 945.227 Q142.53 943.486 140.344 939.298 Q136.935 933.036 136.935 921.03 M143.234 920.104 Q143.234 931.554 144.049 936.112 Q144.976 941.04 147.495 943.189 Q150.052 945.301 152.868 945.301 Q155.907 945.301 158.427 943.041 Q160.983 940.744 161.762 935.815 Q162.614 930.961 162.577 920.104 Q162.577 909.543 161.836 905.319 Q160.835 900.391 158.167 898.427 Q155.536 896.426 152.868 896.426 Q151.868 896.426 150.793 896.722 Q149.756 897.019 148.237 897.871 Q146.717 898.723 145.532 900.835 Q144.383 902.947 143.827 906.134 Q143.234 910.247 143.234 920.104 Z" fill="#000000" fill-rule="nonzero" fill-opacity="1"></path><path clip-path="url(#clip740)" d="M179.511 944.079 Q178.362 942.856 178.362 941.262 Q178.362 939.669 179.511 938.52 Q180.66 937.334 182.401 937.334 Q184.069 937.334 185.18 938.446 Q186.329 939.521 186.329 941.299 Q186.329 943.041 185.106 944.19 Q183.921 945.301 182.401 945.301 Q180.66 945.301 179.511 944.079 Z" fill="#000000" fill-rule="nonzero" fill-opacity="1"></path><path clip-path="url(#clip740)" d="M196.186 921.327 Q196.186 909.395 202.263 902.095 Q208.34 894.758 216.158 894.758 Q220.716 894.758 223.236 897.093 Q225.793 899.39 225.793 902.947 Q225.793 904.911 224.644 905.764 Q223.495 906.616 222.31 906.616 Q220.939 906.616 219.864 905.689 Q218.789 904.763 218.789 903.096 Q218.789 899.687 222.977 899.687 Q221.013 896.648 216.307 896.648 Q214.862 896.648 213.379 897.093 Q211.897 897.5 209.97 898.908 Q208.043 900.316 206.561 902.54 Q205.079 904.763 204.041 908.95 Q203.004 913.138 203.004 918.585 L203.004 920.4 Q206.117 912.878 212.49 912.915 Q218.863 912.915 223.273 917.769 Q227.683 922.624 227.683 929.812 Q227.683 937.186 223.088 942.078 Q218.493 946.969 212.045 946.969 Q209.155 946.969 206.524 945.746 Q203.93 944.56 201.485 941.818 Q199.076 939.076 197.631 933.814 Q196.186 928.552 196.186 921.327 M203.152 928.145 Q203.152 935.593 204.523 939.15 Q204.745 939.743 205.227 940.558 Q205.746 941.373 206.598 942.448 Q207.488 943.486 208.933 944.19 Q210.378 944.857 212.045 944.857 Q217.122 944.857 219.567 939.928 Q220.864 937.186 220.864 929.738 Q220.864 922.142 219.493 919.363 Q217.159 914.657 212.416 914.657 Q209.229 914.657 207.006 916.843 Q204.82 919.029 203.967 921.957 Q203.152 924.884 203.152 928.145 Z" fill="#000000" fill-rule="nonzero" fill-opacity="1"></path><path clip-path="url(#clip740)" d="M136.935 742.121 Q136.935 730.967 139.751 724.89 Q143.679 715.849 152.943 715.849 Q154.906 715.849 156.944 716.404 Q159.02 716.923 161.613 718.961 Q164.244 720.999 165.838 724.334 Q168.876 730.782 168.876 742.121 Q168.876 753.2 166.06 759.24 Q161.947 768.059 152.868 768.059 Q149.459 768.059 145.976 766.318 Q142.53 764.576 140.344 760.389 Q136.935 754.126 136.935 742.121 M143.234 741.194 Q143.234 752.644 144.049 757.202 Q144.976 762.13 147.495 764.28 Q150.052 766.392 152.868 766.392 Q155.907 766.392 158.427 764.131 Q160.983 761.834 161.762 756.906 Q162.614 752.051 162.577 741.194 Q162.577 730.634 161.836 726.409 Q160.835 721.481 158.167 719.517 Q155.536 717.516 152.868 717.516 Q151.868 717.516 150.793 717.813 Q149.756 718.109 148.237 718.961 Q146.717 719.814 145.532 721.926 Q144.383 724.038 143.827 727.225 Q143.234 731.338 143.234 741.194 Z" fill="#000000" fill-rule="nonzero" fill-opacity="1"></path><path clip-path="url(#clip740)" d="M179.511 765.169 Q178.362 763.946 178.362 762.353 Q178.362 760.759 179.511 759.611 Q180.66 758.425 182.401 758.425 Q184.069 758.425 185.18 759.537 Q186.329 760.611 186.329 762.39 Q186.329 764.131 185.106 765.28 Q183.921 766.392 182.401 766.392 Q180.66 766.392 179.511 765.169 Z" fill="#000000" fill-rule="nonzero" fill-opacity="1"></path><path clip-path="url(#clip740)" d="M196.186 754.942 Q196.186 746.456 207.117 740.972 Q202.411 737.785 201.559 736.859 Q198.224 733.153 198.224 728.521 Q198.224 723.223 202.226 719.554 Q206.265 715.849 211.971 715.849 Q217.418 715.849 221.531 718.998 Q225.645 722.148 225.645 727.15 Q225.645 734.191 216.455 738.934 Q222.532 742.714 223.977 744.307 Q227.683 748.42 227.683 753.645 Q227.683 759.722 223.014 763.909 Q218.345 768.059 211.897 768.059 Q205.598 768.059 200.892 764.391 Q196.186 760.722 196.186 754.942 M199.965 754.942 Q199.965 759.648 203.486 762.797 Q207.043 765.947 211.971 765.947 Q216.751 765.947 220.309 763.205 Q223.903 760.463 223.903 756.387 Q223.903 754.793 223.347 753.422 Q222.828 752.051 221.754 750.977 Q220.716 749.865 220.049 749.383 Q219.419 748.865 218.196 748.012 L208.859 742.121 Q199.965 747.049 199.965 754.942 M201.559 725.557 Q201.559 729.188 205.375 731.708 L214.787 737.785 Q222.31 733.376 222.31 727.15 Q222.31 723.111 219.234 720.443 Q216.158 717.738 211.897 717.738 Q207.71 717.738 204.634 719.962 Q201.559 722.148 201.559 725.557 Z" fill="#000000" fill-rule="nonzero" fill-opacity="1"></path><path clip-path="url(#clip740)" d="M140.492 544.165 L140.492 541.793 Q149.608 541.793 154.314 536.939 Q155.61 536.939 155.833 537.235 Q156.055 537.532 156.055 538.903 L156.055 581.479 Q156.055 583.739 157.167 584.444 Q158.278 585.148 163.133 585.148 L165.541 585.148 L165.541 587.482 Q162.873 587.26 153.239 587.26 Q143.605 587.26 140.974 587.482 L140.974 585.148 L143.382 585.148 Q148.162 585.148 149.311 584.481 Q150.46 583.777 150.46 581.479 L150.46 542.164 Q146.495 544.165 140.492 544.165 Z" fill="#000000" fill-rule="nonzero" fill-opacity="1"></path><path clip-path="url(#clip740)" d="M179.289 586.259 Q178.14 585.036 178.14 583.443 Q178.14 581.85 179.289 580.701 Q180.437 579.515 182.179 579.515 Q183.846 579.515 184.958 580.627 Q186.107 581.701 186.107 583.48 Q186.107 585.222 184.884 586.37 Q183.698 587.482 182.179 587.482 Q180.437 587.482 179.289 586.259 Z" fill="#000000" fill-rule="nonzero" fill-opacity="1"></path><path clip-path="url(#clip740)" d="M195.741 563.211 Q195.741 552.057 198.557 545.98 Q202.485 536.939 211.749 536.939 Q213.713 536.939 215.751 537.495 Q217.826 538.014 220.42 540.052 Q223.051 542.09 224.644 545.425 Q227.683 551.872 227.683 563.211 Q227.683 574.29 224.866 580.33 Q220.753 589.15 211.675 589.15 Q208.266 589.15 204.783 587.408 Q201.336 585.666 199.15 581.479 Q195.741 575.217 195.741 563.211 M202.04 562.285 Q202.04 573.735 202.856 578.292 Q203.782 583.221 206.302 585.37 Q208.859 587.482 211.675 587.482 Q214.713 587.482 217.233 585.222 Q219.79 582.924 220.568 577.996 Q221.42 573.142 221.383 562.285 Q221.383 551.724 220.642 547.5 Q219.642 542.571 216.974 540.607 Q214.343 538.606 211.675 538.606 Q210.674 538.606 209.6 538.903 Q208.562 539.199 207.043 540.052 Q205.524 540.904 204.338 543.016 Q203.189 545.128 202.633 548.315 Q202.04 552.428 202.04 562.285 Z" fill="#000000" fill-rule="nonzero" fill-opacity="1"></path><path clip-path="url(#clip740)" d="M141.307 365.255 L141.307 362.884 Q150.423 362.884 155.129 358.029 Q156.426 358.029 156.648 358.326 Q156.87 358.622 156.87 359.993 L156.87 402.57 Q156.87 404.83 157.982 405.534 Q159.094 406.238 163.948 406.238 L166.356 406.238 L166.356 408.572 Q163.688 408.35 154.054 408.35 Q144.42 408.35 141.789 408.572 L141.789 406.238 L144.198 406.238 Q148.978 406.238 150.126 405.571 Q151.275 404.867 151.275 402.57 L151.275 363.254 Q147.31 365.255 141.307 365.255 Z" fill="#000000" fill-rule="nonzero" fill-opacity="1"></path><path clip-path="url(#clip740)" d="M180.104 407.35 Q178.955 406.127 178.955 404.533 Q178.955 402.94 180.104 401.791 Q181.253 400.606 182.994 400.606 Q184.662 400.606 185.773 401.717 Q186.922 402.792 186.922 404.57 Q186.922 406.312 185.699 407.461 Q184.513 408.572 182.994 408.572 Q181.253 408.572 180.104 407.35 Z" fill="#000000" fill-rule="nonzero" fill-opacity="1"></path><path clip-path="url(#clip740)" d="M197.372 408.572 Q197.372 407.201 197.483 406.794 Q197.631 406.386 198.224 405.756 L212.786 389.526 Q220.753 380.559 220.753 372.74 Q220.753 367.664 218.085 364.032 Q215.454 360.401 210.6 360.401 Q207.265 360.401 204.449 362.439 Q201.633 364.477 200.336 368.108 Q200.558 368.034 201.336 368.034 Q203.226 368.034 204.264 369.22 Q205.338 370.406 205.338 371.999 Q205.338 374.037 204.004 375.038 Q202.707 376.001 201.411 376.001 Q200.892 376.001 200.188 375.89 Q199.521 375.779 198.446 374.741 Q197.372 373.667 197.372 371.777 Q197.372 366.478 201.373 362.254 Q205.412 358.029 211.564 358.029 Q218.53 358.029 223.088 362.18 Q227.683 366.293 227.683 372.74 Q227.683 375.001 226.978 377.076 Q226.312 379.114 225.385 380.707 Q224.496 382.3 222.05 384.857 Q219.605 387.414 217.641 389.23 Q215.677 391.045 211.267 394.899 L203.226 402.718 L216.9 402.718 Q223.569 402.718 224.088 402.125 Q224.829 401.05 225.756 395.381 L227.683 395.381 L225.533 408.572 L197.372 408.572 Z" fill="#000000" fill-rule="nonzero" fill-opacity="1"></path><path clip-path="url(#clip740)" d="M139.64 186.345 L139.64 183.974 Q148.755 183.974 153.461 179.12 Q154.758 179.12 154.981 179.416 Q155.203 179.713 155.203 181.084 L155.203 223.66 Q155.203 225.92 156.315 226.624 Q157.426 227.328 162.28 227.328 L164.689 227.328 L164.689 229.663 Q162.021 229.44 152.387 229.44 Q142.752 229.44 140.121 229.663 L140.121 227.328 L142.53 227.328 Q147.31 227.328 148.459 226.661 Q149.608 225.957 149.608 223.66 L149.608 184.344 Q145.643 186.345 139.64 186.345 Z" fill="#000000" fill-rule="nonzero" fill-opacity="1"></path><path clip-path="url(#clip740)" d="M178.436 228.44 Q177.288 227.217 177.288 225.624 Q177.288 224.03 178.436 222.882 Q179.585 221.696 181.327 221.696 Q182.994 221.696 184.106 222.808 Q185.255 223.882 185.255 225.661 Q185.255 227.402 184.032 228.551 Q182.846 229.663 181.327 229.663 Q179.585 229.663 178.436 228.44 Z" fill="#000000" fill-rule="nonzero" fill-opacity="1"></path><path clip-path="url(#clip740)" d="M194.037 217.138 L194.037 214.804 L217.344 179.194 Q217.937 178.267 218.863 178.305 Q219.716 178.305 219.901 178.638 Q220.086 178.971 220.086 180.268 L220.086 214.804 L227.683 214.804 L227.683 217.138 L220.086 217.138 L220.086 223.734 Q220.086 225.92 220.976 226.624 Q221.902 227.328 225.83 227.328 L227.423 227.328 L227.423 229.663 Q224.311 229.44 217.122 229.44 Q209.97 229.44 206.858 229.663 L206.858 227.328 L208.451 227.328 Q212.379 227.328 213.305 226.661 Q214.232 225.957 214.232 223.734 L214.232 217.138 L194.037 217.138 M196.186 214.804 L214.676 214.804 L214.676 186.494 L196.186 214.804 Z" fill="#000000" fill-rule="nonzero" fill-opacity="1"></path><path clip-path="url(#clip740)" d="M38.6601 905.123 L35.498 905.123 L35.498 897.169 L23.8874 897.169 Q16.3776 897.169 12.0792 892.327 Q7.78086 887.436 7.78086 881.457 Q7.78086 877.505 9.90534 874.936 Q12.0298 872.367 14.8954 872.367 Q16.8223 872.367 18.1069 873.552 Q19.342 874.689 19.342 876.813 Q19.342 878.839 18.0575 880.025 Q16.7729 881.161 14.9942 881.161 Q11.7334 881.161 10.7453 878.147 Q10.0536 879.679 10.0042 881.457 Q10.0042 885.113 13.7591 887.979 Q17.514 890.795 23.7886 890.795 L35.498 890.795 L35.498 878.938 L38.6601 878.938 L38.6601 890.449 L71.2191 890.449 Q74.1341 890.449 75.0728 889.264 Q76.0115 888.028 76.0115 882.791 L76.0115 880.667 L79.1242 880.667 Q78.8277 884.718 78.8277 893.513 Q78.8277 894.748 78.8771 896.675 Q78.9265 898.552 79.0253 901.121 Q79.1242 903.641 79.1242 905.024 L76.0115 905.024 Q76.0115 899.639 75.3692 898.404 Q74.6776 897.169 71.4167 897.169 L38.6601 897.169 L38.6601 905.123 Z" fill="#000000" fill-rule="nonzero" fill-opacity="1"></path><path clip-path="url(#clip740)" d="M79.1242 874.293 L76.0115 874.293 Q76.0115 868.908 75.3692 867.673 Q74.6776 866.438 71.4167 866.438 L44.1936 866.438 Q40.4387 866.438 39.5494 867.722 Q38.6601 868.958 38.6601 873.898 L35.498 873.898 L34.4111 859.768 L71.5155 859.768 Q74.5293 859.768 75.2704 858.681 Q76.0115 857.594 76.0115 852.653 L79.1242 852.653 Q78.8277 862.979 78.8277 863.177 Q78.8277 864.56 79.1242 874.293 M16.7729 870.044 Q14.7472 870.044 13.1168 868.513 Q11.437 866.932 11.437 864.709 Q11.437 862.485 12.9686 860.904 Q14.4508 859.323 16.8223 859.323 Q19.1444 859.323 20.676 860.904 Q22.1582 862.485 22.1582 864.709 Q22.1582 867.031 20.5278 868.562 Q18.8974 870.044 16.7729 870.044 Z" fill="#000000" fill-rule="nonzero" fill-opacity="1"></path><path clip-path="url(#clip740)" d="M79.1242 846.379 L76.0115 846.379 Q76.0115 840.993 75.3692 839.758 Q74.6776 838.523 71.4167 838.523 L44.2924 838.523 Q40.5375 838.523 39.5988 839.857 Q38.6601 841.142 38.6601 846.379 L35.498 846.379 L34.4111 832.149 L45.0335 832.149 Q34.4111 827.406 34.4111 817.179 Q34.4111 809.571 38.166 806.557 Q40.6857 804.334 43.5019 803.889 Q46.3181 803.395 53.6303 803.395 L72.9483 803.395 Q75.0728 803.296 75.5669 801.666 Q76.0115 800.035 76.0115 795.49 L79.1242 795.49 Q78.8277 805.816 78.8277 806.853 Q78.8277 807.644 79.1242 818.266 L76.0115 818.266 Q76.0115 812.881 75.3692 811.646 Q74.6776 810.361 71.4167 810.361 L47.8497 810.361 Q42.7114 810.361 39.6976 811.942 Q36.6344 813.523 36.6344 817.871 Q36.6344 823.108 41.0316 827.308 Q45.4288 831.507 52.8398 831.507 L71.4167 831.507 Q74.6776 831.507 75.3692 830.272 Q76.0115 828.987 76.0115 823.652 L79.1242 823.652 Q78.8277 833.978 78.8277 834.966 Q78.8277 835.756 79.1242 846.379 Z" fill="#000000" fill-rule="nonzero" fill-opacity="1"></path><path clip-path="url(#clip740)" d="M69.4898 789.264 Q60.8931 789.264 56.3477 779.136 Q53.4327 773.059 52.6916 760.51 L48.9861 760.51 Q42.7114 760.51 39.4012 763.82 Q36.0415 767.081 36.0415 771.231 Q36.0415 778.642 40.6857 782.199 Q40.7845 779.185 42.3162 778.099 Q43.7984 777.012 45.33 777.012 Q47.3556 777.012 48.6896 778.296 Q49.9742 779.531 49.9742 781.656 Q49.9742 783.682 48.739 785.015 Q47.4545 786.349 45.2311 786.349 Q40.2905 786.349 37.0296 781.903 Q33.7688 777.407 33.7688 771.033 Q33.7688 762.733 39.3517 757.2 Q41.081 755.47 43.3043 754.63 Q45.5276 753.741 47.0098 753.642 Q48.4426 753.543 51.3082 753.543 L71.5155 753.543 Q72.1084 753.543 73.0965 753.346 Q74.0847 753.148 75.3692 752.259 Q76.6044 751.32 76.6044 749.788 Q76.6044 746.132 70.1321 746.182 L64.4504 746.182 L64.4504 743.613 L70.1321 743.613 Q75.5175 743.613 77.642 746.478 Q79.717 749.294 79.717 751.913 Q79.717 755.273 77.2467 757.397 Q74.7764 759.522 71.4167 759.818 Q75.2704 761.35 77.7902 764.858 Q80.2605 768.316 80.2605 773.059 Q80.2605 776.715 79.3218 780.174 Q78.4325 783.583 75.9127 786.448 Q73.3436 789.264 69.4898 789.264 M69.391 781.458 Q73.1459 781.458 75.5669 778.79 Q77.9878 776.122 77.9878 772.367 Q77.9878 768.118 74.727 764.314 Q71.4167 760.51 64.9444 760.51 L54.8161 760.51 Q55.2113 771.725 59.7073 776.616 Q64.1539 781.458 69.391 781.458 Z" fill="#000000" fill-rule="nonzero" fill-opacity="1"></path><path clip-path="url(#clip740)" d="M79.1242 739.561 L76.0115 739.561 Q76.0115 734.176 75.3692 732.941 Q74.6776 731.706 71.4167 731.706 L18.7986 731.706 Q15.0436 731.706 14.1049 733.04 Q13.1662 734.324 13.1662 739.561 L10.0042 739.561 L8.91721 725.036 L71.4167 725.036 Q74.6776 725.036 75.3692 723.751 Q76.0115 722.467 76.0115 717.131 L79.1242 717.131 Q79.1242 718.366 79.0253 720.935 Q78.9265 723.504 78.8771 725.382 Q78.8277 727.259 78.8277 728.346 Q78.8277 729.532 79.1242 739.561 Z" fill="#000000" fill-rule="nonzero" fill-opacity="1"></path><path clip-path="url(#clip740)" d="M79.1242 677.902 L76.0115 677.902 Q76.0115 672.516 75.3692 671.281 Q74.6776 670.046 71.4167 670.046 L18.7986 670.046 Q15.0436 670.046 14.1049 671.38 Q13.1662 672.665 13.1662 677.902 L10.0042 677.902 L8.91721 663.376 L71.4167 663.376 Q74.6776 663.376 75.3692 662.092 Q76.0115 660.807 76.0115 655.471 L79.1242 655.471 Q79.1242 656.706 79.0253 659.275 Q78.9265 661.845 78.8771 663.722 Q78.8277 665.599 78.8277 666.686 Q78.8277 667.872 79.1242 677.902 Z" fill="#000000" fill-rule="nonzero" fill-opacity="1"></path><path clip-path="url(#clip740)" d="M73.6894 643.762 Q67.0689 650.432 57.484 650.432 Q47.8497 650.432 40.834 643.91 Q33.7688 637.339 33.7688 627.952 Q33.7688 618.762 40.7845 612.191 Q47.7509 605.57 57.484 605.57 Q67.0195 605.57 73.64 612.24 Q80.2605 618.861 80.2605 628.05 Q80.2605 637.042 73.6894 643.762 M56.6441 642.032 Q66.476 642.032 70.9226 639.463 Q77.6914 635.511 77.6914 627.952 Q77.6914 624.197 75.6657 621.084 Q73.64 617.922 70.2309 616.193 Q65.7843 613.969 56.6441 613.969 Q46.911 613.969 42.6126 616.637 Q36.0415 620.59 36.0415 628.05 Q36.0415 631.311 37.7707 634.523 Q39.4506 637.685 42.8102 639.612 Q47.2568 642.032 56.6441 642.032 Z" fill="#000000" fill-rule="nonzero" fill-opacity="1"></path><path clip-path="url(#clip740)" d="M77.7902 599.296 L64.4504 599.296 Q63.314 599.296 62.9188 599.246 Q62.5235 599.197 62.2271 598.9 Q61.9306 598.604 61.9306 598.011 Q61.9306 597.319 62.2271 597.072 Q62.5235 596.776 63.6599 596.578 Q70.6262 595.047 74.3317 591.786 Q77.9878 588.476 77.9878 582.497 Q77.9878 576.816 75.4681 573.95 Q72.9483 571.084 68.7982 571.084 Q61.3871 571.084 59.5097 581.608 Q58.2745 587.685 57.484 590.205 Q56.6441 592.725 54.8161 594.948 Q51.2588 599.296 46.2193 599.296 Q41.1798 599.296 37.4743 595.491 Q33.7688 591.638 33.7688 583.14 Q33.7688 577.458 36.6344 573.604 Q35.7451 572.468 35.004 571.875 Q33.7688 570.541 33.7688 569.849 Q33.7688 569.059 34.3123 568.91 Q34.8063 568.762 36.2391 568.762 L46.4169 568.762 Q47.5533 568.762 47.9485 568.812 Q48.3438 568.861 48.6402 569.158 Q48.8872 569.454 48.8872 570.096 Q48.8872 571.233 47.9485 571.282 Q35.6957 572.073 35.6957 583.14 Q35.6957 589.118 38.0178 591.786 Q40.2905 594.454 43.4031 594.454 Q45.1323 594.454 46.4663 593.663 Q47.7509 592.823 48.5414 591.786 Q49.2825 590.699 50.0236 588.723 Q50.7153 586.746 50.9623 585.561 Q51.2094 584.325 51.7034 582.003 Q53.235 573.901 56.5453 570.492 Q60.7943 566.243 66.1796 566.243 Q72.1578 566.243 76.2092 570.294 Q80.2605 574.345 80.2605 582.497 Q80.2605 589.068 75.8633 593.663 Q76.4562 594.256 76.9997 594.701 Q77.4937 595.145 77.6914 595.343 Q77.889 595.491 78.0372 595.541 Q78.136 595.59 78.2348 595.689 Q80.2605 597.715 80.2605 598.209 Q80.2605 598.999 79.717 599.147 Q79.223 599.296 77.7902 599.296 Z" fill="#000000" fill-rule="nonzero" fill-opacity="1"></path><path clip-path="url(#clip740)" d="M77.7902 559.474 L64.4504 559.474 Q63.314 559.474 62.9188 559.424 Q62.5235 559.375 62.2271 559.079 Q61.9306 558.782 61.9306 558.189 Q61.9306 557.498 62.2271 557.251 Q62.5235 556.954 63.6599 556.756 Q70.6262 555.225 74.3317 551.964 Q77.9878 548.654 77.9878 542.676 Q77.9878 536.994 75.4681 534.128 Q72.9483 531.263 68.7982 531.263 Q61.3871 531.263 59.5097 541.786 Q58.2745 547.863 57.484 550.383 Q56.6441 552.903 54.8161 555.126 Q51.2588 559.474 46.2193 559.474 Q41.1798 559.474 37.4743 555.669 Q33.7688 551.816 33.7688 543.318 Q33.7688 537.636 36.6344 533.782 Q35.7451 532.646 35.004 532.053 Q33.7688 530.719 33.7688 530.027 Q33.7688 529.237 34.3123 529.089 Q34.8063 528.94 36.2391 528.94 L46.4169 528.94 Q47.5533 528.94 47.9485 528.99 Q48.3438 529.039 48.6402 529.336 Q48.8872 529.632 48.8872 530.274 Q48.8872 531.411 47.9485 531.46 Q35.6957 532.251 35.6957 543.318 Q35.6957 549.296 38.0178 551.964 Q40.2905 554.632 43.4031 554.632 Q45.1323 554.632 46.4663 553.841 Q47.7509 553.002 48.5414 551.964 Q49.2825 550.877 50.0236 548.901 Q50.7153 546.925 50.9623 545.739 Q51.2094 544.504 51.7034 542.181 Q53.235 534.079 56.5453 530.67 Q60.7943 526.421 66.1796 526.421 Q72.1578 526.421 76.2092 530.472 Q80.2605 534.523 80.2605 542.676 Q80.2605 549.247 75.8633 553.841 Q76.4562 554.434 76.9997 554.879 Q77.4937 555.324 77.6914 555.521 Q77.889 555.669 78.0372 555.719 Q78.136 555.768 78.2348 555.867 Q80.2605 557.893 80.2605 558.387 Q80.2605 559.177 79.717 559.326 Q79.223 559.474 77.7902 559.474 Z" fill="#000000" fill-rule="nonzero" fill-opacity="1"></path><polyline clip-path="url(#clip742)" style="stroke:#009af9; stroke-linecap:round; stroke-linejoin:round; stroke-width:4; stroke-opacity:1; fill:none" points="322.807,85.0853 541.788,507.513 760.768,875.263 979.749,943.679 1198.73,988.143 1417.71,1030.54 1636.69,1075.44 1855.67,1097.68 2074.65,1142.02 2293.63,1166.79 "></polyline>
<polyline clip-path="url(#clip742)" style="stroke:#e26f46; stroke-linecap:round; stroke-linejoin:round; stroke-width:4; stroke-opacity:1; fill:none" points="322.807,455.164 541.788,801.663 760.768,1040.96 979.749,1093.86 1198.73,1122.02 1417.71,1165.48 1636.69,1198.13 1855.67,1222 2074.65,1241.66 2293.63,1261.91 "></polyline>
<polyline clip-path="url(#clip742)" style="stroke:#3da44d; stroke-linecap:round; stroke-linejoin:round; stroke-width:4; stroke-opacity:1; fill:none" points="322.807,754.896 541.788,997.474 760.768,1164.94 979.749,1201.72 1198.73,1228 1417.71,1252.48 1636.69,1273.75 1855.67,1288.74 2074.65,1304.72 2293.63,1318.07 "></polyline>
<polyline clip-path="url(#clip742)" style="stroke:#c271d2; stroke-linecap:round; stroke-linejoin:round; stroke-width:4; stroke-opacity:1; fill:none" points="322.807,962.232 541.788,1133.06 760.768,1250.96 979.749,1276.24 1198.73,1291.58 1417.71,1307.91 1636.69,1308.97 1855.67,1322.97 2074.65,1334.08 2293.63,1346.46 "></polyline>
<path clip-path="url(#clip740)" d="M1365.38 428.773 L2283.12 428.773 L2283.12 91.8126 L1365.38 91.8126  Z" fill="#ffffff" fill-rule="evenodd" fill-opacity="1"></path>
<polyline clip-path="url(#clip740)" style="stroke:#000000; stroke-linecap:round; stroke-linejoin:round; stroke-width:4; stroke-opacity:1; fill:none" points="1365.38,428.773 2283.12,428.773 2283.12,91.8126 1365.38,91.8126 1365.38,428.773 "></polyline>
<path clip-path="url(#clip740)" d="M1869.44 150.047 Q1869.44 150.542 1869.32 150.885 Q1869.21 151.189 1868.94 151.341 Q1868.68 151.494 1868.53 151.532 Q1868.37 151.57 1868.03 151.608 Q1866.39 151.76 1865.25 152.026 Q1864.15 152.293 1861.41 153.663 Q1858.71 155.033 1855.32 157.507 L1841.69 168.05 L1839.41 169.839 Q1839.41 169.953 1839.48 170.182 Q1839.56 170.372 1839.64 170.638 Q1839.75 170.867 1839.79 170.943 L1850.86 196.482 Q1851.74 198.538 1852.81 199.261 Q1853.87 199.984 1856.27 200.022 Q1856.65 200.022 1856.8 200.06 Q1856.99 200.06 1857.26 200.136 Q1857.56 200.174 1857.68 200.364 Q1857.83 200.555 1857.83 200.859 Q1857.83 202.42 1856.42 202.42 Q1855.55 202.42 1852.58 202.306 Q1849.61 202.191 1848.77 202.191 Q1847.21 202.191 1844.01 202.306 Q1840.82 202.42 1839.26 202.42 Q1838.15 202.42 1838.15 201.544 Q1838.15 200.821 1838.42 200.479 Q1838.72 200.098 1838.99 200.06 Q1839.26 200.022 1839.86 200.022 Q1840.32 200.022 1840.82 199.984 Q1841.35 199.908 1842.11 199.717 Q1842.91 199.489 1843.4 198.956 Q1843.94 198.385 1843.94 197.586 Q1843.94 196.939 1842.99 194.846 L1833.97 173.874 L1822.36 182.932 L1819.24 195.188 Q1819.16 195.645 1818.97 196.444 Q1818.78 197.243 1818.63 197.814 Q1818.51 198.385 1818.51 198.614 Q1818.51 199.108 1818.82 199.413 Q1819.16 199.717 1820 199.87 Q1820.83 199.984 1821.48 200.022 Q1822.17 200.022 1823.57 200.022 Q1825.33 200.022 1825.63 200.326 Q1825.78 200.517 1825.78 200.859 Q1825.78 201.392 1825.63 201.773 Q1825.48 202.115 1825.17 202.229 Q1824.91 202.344 1824.72 202.382 Q1824.53 202.42 1824.22 202.42 Q1823.42 202.42 1821.71 202.344 Q1820.03 202.268 1819.16 202.268 L1814.17 202.191 L1804.28 202.42 Q1803.1 202.42 1803.1 201.468 Q1803.1 200.745 1803.4 200.441 Q1803.71 200.098 1804.05 200.06 Q1804.39 200.022 1805.27 200.022 Q1807.17 200.022 1808.31 199.908 Q1809.45 199.794 1810.18 199.641 Q1810.94 199.451 1811.32 198.918 Q1811.74 198.385 1811.93 197.929 Q1812.12 197.434 1812.38 196.33 L1822.81 154.462 Q1823.12 153.206 1823.12 153.016 Q1823.12 152.369 1822.74 152.141 Q1822.39 151.874 1821.41 151.76 Q1819.5 151.608 1818.06 151.608 Q1817.1 151.608 1816.72 151.57 Q1816.38 151.532 1816.08 151.341 Q1815.81 151.113 1815.81 150.656 Q1815.81 149.172 1817.37 149.172 L1827.42 149.4 L1837.39 149.172 Q1838.49 149.172 1838.49 150.047 Q1838.49 151.151 1837.96 151.379 Q1837.47 151.608 1835.83 151.608 Q1832.98 151.608 1831.68 151.988 Q1830.43 152.331 1830.05 152.94 Q1829.7 153.511 1829.28 155.186 L1823.04 180.192 L1853.45 156.822 Q1856.27 154.462 1856.27 153.244 Q1856.27 152.445 1855.7 152.103 Q1855.17 151.722 1853.83 151.608 Q1852.88 151.455 1852.88 150.732 Q1852.88 150.009 1853.15 149.667 Q1853.45 149.286 1853.68 149.248 Q1853.95 149.172 1854.37 149.172 Q1855.77 149.172 1858.71 149.286 Q1861.64 149.4 1863.04 149.4 Q1864 149.4 1865.86 149.286 Q1867.73 149.172 1868.56 149.172 Q1868.98 149.172 1869.21 149.476 Q1869.44 149.743 1869.44 150.047 Z" fill="#000000" fill-rule="nonzero" fill-opacity="1"></path><polyline clip-path="url(#clip740)" style="stroke:#009af9; stroke-linecap:round; stroke-linejoin:round; stroke-width:6.5; stroke-opacity:1; fill:none" points="1388.59,260.293 1527.86,260.293 "></polyline>
<path clip-path="url(#clip740)" d="M1551.08 241.446 L1551.08 238.876 Q1560.95 238.876 1566.05 233.618 Q1567.45 233.618 1567.69 233.939 Q1567.94 234.26 1567.94 235.745 L1567.94 281.869 Q1567.94 284.318 1569.14 285.081 Q1570.34 285.844 1575.6 285.844 L1578.21 285.844 L1578.21 288.373 Q1575.32 288.132 1564.88 288.132 Q1554.45 288.132 1551.6 288.373 L1551.6 285.844 L1554.21 285.844 Q1559.39 285.844 1560.63 285.121 Q1561.87 284.358 1561.87 281.869 L1561.87 239.278 Q1557.58 241.446 1551.08 241.446 Z" fill="#000000" fill-rule="nonzero" fill-opacity="1"></path><path clip-path="url(#clip740)" d="M1588.33 262.4 Q1588.33 249.474 1594.91 241.566 Q1601.5 233.618 1609.97 233.618 Q1614.9 233.618 1617.63 236.147 Q1620.4 238.635 1620.4 242.489 Q1620.4 244.617 1619.16 245.54 Q1617.91 246.463 1616.63 246.463 Q1615.14 246.463 1613.98 245.46 Q1612.82 244.456 1612.82 242.65 Q1612.82 238.957 1617.35 238.957 Q1615.22 235.665 1610.13 235.665 Q1608.56 235.665 1606.95 236.147 Q1605.35 236.588 1603.26 238.114 Q1601.17 239.639 1599.57 242.048 Q1597.96 244.456 1596.84 248.992 Q1595.71 253.529 1595.71 259.43 L1595.71 261.397 Q1599.09 253.248 1605.99 253.288 Q1612.9 253.288 1617.67 258.546 Q1622.45 263.805 1622.45 271.593 Q1622.45 279.581 1617.47 284.88 Q1612.49 290.179 1605.51 290.179 Q1602.38 290.179 1599.53 288.854 Q1596.72 287.57 1594.07 284.599 Q1591.46 281.629 1589.89 275.928 Q1588.33 270.228 1588.33 262.4 M1595.88 269.786 Q1595.88 277.855 1597.36 281.709 Q1597.6 282.351 1598.12 283.234 Q1598.69 284.117 1599.61 285.282 Q1600.57 286.406 1602.14 287.168 Q1603.7 287.891 1605.51 287.891 Q1611.01 287.891 1613.66 282.552 Q1615.06 279.581 1615.06 271.513 Q1615.06 263.283 1613.58 260.273 Q1611.05 255.174 1605.91 255.174 Q1602.46 255.174 1600.05 257.543 Q1597.68 259.911 1596.76 263.083 Q1595.88 266.254 1595.88 269.786 Z" fill="#000000" fill-rule="nonzero" fill-opacity="1"></path><polyline clip-path="url(#clip740)" style="stroke:#e26f46; stroke-linecap:round; stroke-linejoin:round; stroke-width:6.5; stroke-opacity:1; fill:none" points="1686.77,260.293 1826.04,260.293 "></polyline>
<path clip-path="url(#clip740)" d="M1849.25 277.293 Q1849.25 274.844 1850.66 273.68 Q1852.06 272.516 1853.87 272.516 Q1855.75 272.516 1857.08 273.761 Q1858.44 274.965 1858.44 277.092 Q1858.44 279.381 1856.84 280.665 Q1855.27 281.95 1853.03 281.629 Q1854.99 284.92 1858.6 286.406 Q1862.26 287.891 1865.63 287.891 Q1869.16 287.891 1872.01 284.84 Q1874.9 281.789 1874.9 274.323 Q1874.9 267.98 1872.41 264.327 Q1869.97 260.674 1865.11 260.674 L1861.5 260.674 Q1860.25 260.674 1859.89 260.554 Q1859.53 260.433 1859.53 259.751 Q1859.53 258.948 1860.77 258.787 Q1862.02 258.787 1863.98 258.546 Q1868.76 258.386 1871.29 254.251 Q1873.58 250.397 1873.58 244.898 Q1873.58 239.88 1871.17 237.792 Q1868.8 235.665 1865.71 235.665 Q1862.82 235.665 1859.65 236.869 Q1856.48 238.073 1854.75 240.763 Q1859.85 240.763 1859.85 244.898 Q1859.85 246.704 1858.69 247.909 Q1857.56 249.073 1855.67 249.073 Q1853.87 249.073 1852.66 247.949 Q1851.46 246.785 1851.46 244.818 Q1851.46 240.121 1855.63 236.869 Q1859.85 233.618 1866.03 233.618 Q1872.13 233.618 1876.63 236.829 Q1881.17 240.04 1881.17 244.978 Q1881.17 249.835 1877.95 253.81 Q1874.74 257.784 1869.64 259.43 Q1875.91 260.674 1879.64 264.929 Q1883.37 269.144 1883.37 274.323 Q1883.37 280.745 1878.32 285.482 Q1873.26 290.179 1865.87 290.179 Q1859.05 290.179 1854.15 286.486 Q1849.25 282.793 1849.25 277.293 Z" fill="#000000" fill-rule="nonzero" fill-opacity="1"></path><path clip-path="url(#clip740)" d="M1891 288.373 Q1891 286.887 1891.12 286.446 Q1891.28 286.004 1891.92 285.322 L1907.7 267.739 Q1916.33 258.025 1916.33 249.554 Q1916.33 244.055 1913.44 240.121 Q1910.59 236.187 1905.33 236.187 Q1901.72 236.187 1898.67 238.395 Q1895.62 240.602 1894.21 244.537 Q1894.45 244.456 1895.3 244.456 Q1897.34 244.456 1898.47 245.741 Q1899.63 247.025 1899.63 248.752 Q1899.63 250.959 1898.19 252.043 Q1896.78 253.087 1895.38 253.087 Q1894.81 253.087 1894.05 252.967 Q1893.33 252.846 1892.16 251.722 Q1891 250.558 1891 248.511 Q1891 242.77 1895.34 238.194 Q1899.71 233.618 1906.38 233.618 Q1913.92 233.618 1918.86 238.114 Q1923.84 242.57 1923.84 249.554 Q1923.84 252.003 1923.07 254.251 Q1922.35 256.459 1921.35 258.185 Q1920.38 259.911 1917.74 262.681 Q1915.09 265.451 1912.96 267.418 Q1910.83 269.385 1906.05 273.56 L1897.34 282.03 L1912.16 282.03 Q1919.38 282.03 1919.94 281.388 Q1920.75 280.224 1921.75 274.082 L1923.84 274.082 L1921.51 288.373 L1891 288.373 Z" fill="#000000" fill-rule="nonzero" fill-opacity="1"></path><polyline clip-path="url(#clip740)" style="stroke:#3da44d; stroke-linecap:round; stroke-linejoin:round; stroke-width:6.5; stroke-opacity:1; fill:none" points="1984.94,260.293 2124.22,260.293 "></polyline>
<path clip-path="url(#clip740)" d="M2147.43 262.4 Q2147.43 249.474 2154.01 241.566 Q2160.59 233.618 2169.06 233.618 Q2174 233.618 2176.73 236.147 Q2179.5 238.635 2179.5 242.489 Q2179.5 244.617 2178.26 245.54 Q2177.01 246.463 2175.73 246.463 Q2174.24 246.463 2173.08 245.46 Q2171.91 244.456 2171.91 242.65 Q2171.91 238.957 2176.45 238.957 Q2174.32 235.665 2169.23 235.665 Q2167.66 235.665 2166.05 236.147 Q2164.45 236.588 2162.36 238.114 Q2160.27 239.639 2158.67 242.048 Q2157.06 244.456 2155.94 248.992 Q2154.81 253.529 2154.81 259.43 L2154.81 261.397 Q2158.19 253.248 2165.09 253.288 Q2172 253.288 2176.77 258.546 Q2181.55 263.805 2181.55 271.593 Q2181.55 279.581 2176.57 284.88 Q2171.59 290.179 2164.61 290.179 Q2161.48 290.179 2158.63 288.854 Q2155.82 287.57 2153.17 284.599 Q2150.56 281.629 2148.99 275.928 Q2147.43 270.228 2147.43 262.4 M2154.97 269.786 Q2154.97 277.855 2156.46 281.709 Q2156.7 282.351 2157.22 283.234 Q2157.78 284.117 2158.71 285.282 Q2159.67 286.406 2161.24 287.168 Q2162.8 287.891 2164.61 287.891 Q2170.11 287.891 2172.76 282.552 Q2174.16 279.581 2174.16 271.513 Q2174.16 263.283 2172.68 260.273 Q2170.15 255.174 2165.01 255.174 Q2161.56 255.174 2159.15 257.543 Q2156.78 259.911 2155.86 263.083 Q2154.97 266.254 2154.97 269.786 Z" fill="#000000" fill-rule="nonzero" fill-opacity="1"></path><path clip-path="url(#clip740)" d="M2187.37 274.804 L2187.37 272.275 L2212.62 233.698 Q2213.26 232.694 2214.27 232.734 Q2215.19 232.734 2215.39 233.096 Q2215.59 233.457 2215.59 234.862 L2215.59 272.275 L2223.82 272.275 L2223.82 274.804 L2215.59 274.804 L2215.59 281.95 Q2215.59 284.318 2216.55 285.081 Q2217.56 285.844 2221.81 285.844 L2223.54 285.844 L2223.54 288.373 Q2220.17 288.132 2212.38 288.132 Q2204.63 288.132 2201.26 288.373 L2201.26 285.844 L2202.99 285.844 Q2207.24 285.844 2208.24 285.121 Q2209.25 284.358 2209.25 281.95 L2209.25 274.804 L2187.37 274.804 M2189.7 272.275 L2209.73 272.275 L2209.73 241.606 L2189.7 272.275 Z" fill="#000000" fill-rule="nonzero" fill-opacity="1"></path><polyline clip-path="url(#clip740)" style="stroke:#c271d2; stroke-linecap:round; stroke-linejoin:round; stroke-width:6.5; stroke-opacity:1; fill:none" points="1388.59,344.533 1527.86,344.533 "></polyline>
<path clip-path="url(#clip740)" d="M1551.08 325.686 L1551.08 323.116 Q1560.95 323.116 1566.05 317.858 Q1567.45 317.858 1567.69 318.179 Q1567.94 318.5 1567.94 319.985 L1567.94 366.109 Q1567.94 368.558 1569.14 369.321 Q1570.34 370.084 1575.6 370.084 L1578.21 370.084 L1578.21 372.613 Q1575.32 372.372 1564.88 372.372 Q1554.45 372.372 1551.6 372.613 L1551.6 370.084 L1554.21 370.084 Q1559.39 370.084 1560.63 369.361 Q1561.87 368.598 1561.87 366.109 L1561.87 323.518 Q1557.58 325.686 1551.08 325.686 Z" fill="#000000" fill-rule="nonzero" fill-opacity="1"></path><path clip-path="url(#clip740)" d="M1588.97 372.613 Q1588.97 371.127 1589.09 370.686 Q1589.25 370.244 1589.89 369.562 L1605.67 351.979 Q1614.3 342.265 1614.3 333.794 Q1614.3 328.295 1611.41 324.361 Q1608.56 320.427 1603.3 320.427 Q1599.69 320.427 1596.64 322.635 Q1593.59 324.842 1592.18 328.777 Q1592.42 328.696 1593.27 328.696 Q1595.31 328.696 1596.44 329.981 Q1597.6 331.265 1597.6 332.992 Q1597.6 335.199 1596.16 336.283 Q1594.75 337.327 1593.35 337.327 Q1592.78 337.327 1592.02 337.207 Q1591.3 337.086 1590.13 335.962 Q1588.97 334.798 1588.97 332.751 Q1588.97 327.01 1593.31 322.434 Q1597.68 317.858 1604.35 317.858 Q1611.89 317.858 1616.83 322.354 Q1621.81 326.81 1621.81 333.794 Q1621.81 336.243 1621.04 338.491 Q1620.32 340.699 1619.32 342.425 Q1618.36 344.151 1615.71 346.921 Q1613.06 349.691 1610.93 351.658 Q1608.8 353.625 1604.02 357.8 L1595.31 366.27 L1610.13 366.27 Q1617.35 366.27 1617.91 365.628 Q1618.72 364.464 1619.72 358.322 L1621.81 358.322 L1619.48 372.613 L1588.97 372.613 Z" fill="#000000" fill-rule="nonzero" fill-opacity="1"></path><path clip-path="url(#clip740)" d="M1629.43 360.208 Q1629.43 351.016 1641.28 345.075 Q1636.18 341.622 1635.26 340.619 Q1631.64 336.604 1631.64 331.587 Q1631.64 325.846 1635.98 321.872 Q1640.35 317.858 1646.54 317.858 Q1652.44 317.858 1656.89 321.27 Q1661.35 324.682 1661.35 330.101 Q1661.35 337.728 1651.39 342.867 Q1657.98 346.961 1659.54 348.687 Q1663.56 353.143 1663.56 358.803 Q1663.56 365.387 1658.5 369.923 Q1653.44 374.419 1646.46 374.419 Q1639.63 374.419 1634.53 370.445 Q1629.43 366.471 1629.43 360.208 M1633.53 360.208 Q1633.53 365.307 1637.34 368.719 Q1641.2 372.131 1646.54 372.131 Q1651.71 372.131 1655.57 369.16 Q1659.46 366.19 1659.46 361.774 Q1659.46 360.048 1658.86 358.563 Q1658.3 357.077 1657.13 355.913 Q1656.01 354.709 1655.29 354.187 Q1654.6 353.625 1653.28 352.702 L1643.16 346.319 Q1633.53 351.658 1633.53 360.208 M1635.26 328.375 Q1635.26 332.309 1639.39 335.039 L1649.59 341.622 Q1657.74 336.845 1657.74 330.101 Q1657.74 325.726 1654.4 322.835 Q1651.07 319.905 1646.46 319.905 Q1641.92 319.905 1638.59 322.313 Q1635.26 324.682 1635.26 328.375 Z" fill="#000000" fill-rule="nonzero" fill-opacity="1"></path></svg>