<svg xmlns="http://www.w3.org/2000/svg" xmlns:xlink="http://www.w3.org/1999/xlink" width="600" height="400" viewBox="0 0 2400 1600">
<defs>
  <clipPath id="clip310">
    <rect x="0" y="0" width="2400" height="1600"></rect>
  </clipPath>
</defs>
<path clip-path="url(#clip310)" d="M0 1600 L2400 1600 L2400 0 L0 0  Z" fill="#ffffff" fill-rule="evenodd" fill-opacity="1"></path>
<defs>
  <clipPath id="clip311">
    <rect x="480" y="0" width="1681" height="1600"></rect>
  </clipPath>
</defs>
<path clip-path="url(#clip310)" d="M320.562 1384.3 L2352.76 1384.3 L2352.76 47.2441 L320.562 47.2441  Z" fill="#ffffff" fill-rule="evenodd" fill-opacity="1"></path>
<defs>
  <clipPath id="clip312">
    <rect x="320" y="47" width="2033" height="1338"></rect>
  </clipPath>
</defs>
<polyline clip-path="url(#clip312)" style="stroke:#000000; stroke-linecap:round; stroke-linejoin:round; stroke-width:2; stroke-opacity:0.1; fill:none" points="591.095,1384.3 591.095,47.2441 "></polyline>
<polyline clip-path="url(#clip312)" style="stroke:#000000; stroke-linecap:round; stroke-linejoin:round; stroke-width:2; stroke-opacity:0.1; fill:none" points="1017.13,1384.3 1017.13,47.2441 "></polyline>
<polyline clip-path="url(#clip312)" style="stroke:#000000; stroke-linecap:round; stroke-linejoin:round; stroke-width:2; stroke-opacity:0.1; fill:none" points="1443.17,1384.3 1443.17,47.2441 "></polyline>
<polyline clip-path="url(#clip312)" style="stroke:#000000; stroke-linecap:round; stroke-linejoin:round; stroke-width:2; stroke-opacity:0.1; fill:none" points="1869.2,1384.3 1869.2,47.2441 "></polyline>
<polyline clip-path="url(#clip312)" style="stroke:#000000; stroke-linecap:round; stroke-linejoin:round; stroke-width:2; stroke-opacity:0.1; fill:none" points="2295.24,1384.3 2295.24,47.2441 "></polyline>
<polyline clip-path="url(#clip310)" style="stroke:#000000; stroke-linecap:round; stroke-linejoin:round; stroke-width:4; stroke-opacity:1; fill:none" points="320.562,1384.3 2352.76,1384.3 "></polyline>
<polyline clip-path="url(#clip310)" style="stroke:#000000; stroke-linecap:round; stroke-linejoin:round; stroke-width:4; stroke-opacity:1; fill:none" points="591.095,1384.3 591.095,1365.4 "></polyline>
<polyline clip-path="url(#clip310)" style="stroke:#000000; stroke-linecap:round; stroke-linejoin:round; stroke-width:4; stroke-opacity:1; fill:none" points="1017.13,1384.3 1017.13,1365.4 "></polyline>
<polyline clip-path="url(#clip310)" style="stroke:#000000; stroke-linecap:round; stroke-linejoin:round; stroke-width:4; stroke-opacity:1; fill:none" points="1443.17,1384.3 1443.17,1365.4 "></polyline>
<polyline clip-path="url(#clip310)" style="stroke:#000000; stroke-linecap:round; stroke-linejoin:round; stroke-width:4; stroke-opacity:1; fill:none" points="1869.2,1384.3 1869.2,1365.4 "></polyline>
<polyline clip-path="url(#clip310)" style="stroke:#000000; stroke-linecap:round; stroke-linejoin:round; stroke-width:4; stroke-opacity:1; fill:none" points="2295.24,1384.3 2295.24,1365.4 "></polyline>
<path clip-path="url(#clip310)" d="M575.94 1468.3 Q575.94 1466.93 576.051 1466.52 Q576.199 1466.11 576.792 1465.48 L591.355 1449.25 Q599.321 1440.29 599.321 1432.47 Q599.321 1427.39 596.653 1423.76 Q594.023 1420.13 589.168 1420.13 Q585.833 1420.13 583.017 1422.17 Q580.201 1424.2 578.904 1427.84 Q579.126 1427.76 579.905 1427.76 Q581.794 1427.76 582.832 1428.95 Q583.906 1430.13 583.906 1431.73 Q583.906 1433.76 582.573 1434.77 Q581.276 1435.73 579.979 1435.73 Q579.46 1435.73 578.756 1435.62 Q578.089 1435.51 577.014 1434.47 Q575.94 1433.39 575.94 1431.5 Q575.94 1426.21 579.942 1421.98 Q583.981 1417.76 590.132 1417.76 Q597.098 1417.76 601.656 1421.91 Q606.251 1426.02 606.251 1432.47 Q606.251 1434.73 605.547 1436.8 Q604.88 1438.84 603.953 1440.43 Q603.064 1442.03 600.618 1444.58 Q598.173 1447.14 596.209 1448.96 Q594.245 1450.77 589.835 1454.63 L581.794 1462.45 L595.468 1462.45 Q602.138 1462.45 602.656 1461.85 Q603.397 1460.78 604.324 1455.11 L606.251 1455.11 L604.101 1468.3 L575.94 1468.3 Z" fill="#000000" fill-rule="nonzero" fill-opacity="1"></path><path clip-path="url(#clip310)" d="M1000.31 1455.78 L1000.31 1453.44 L1023.62 1417.83 Q1024.21 1416.9 1025.14 1416.94 Q1025.99 1416.94 1026.17 1417.28 Q1026.36 1417.61 1026.36 1418.91 L1026.36 1453.44 L1033.95 1453.44 L1033.95 1455.78 L1026.36 1455.78 L1026.36 1462.37 Q1026.36 1464.56 1027.25 1465.26 Q1028.17 1465.97 1032.1 1465.97 L1033.7 1465.97 L1033.7 1468.3 Q1030.58 1468.08 1023.39 1468.08 Q1016.24 1468.08 1013.13 1468.3 L1013.13 1465.97 L1014.72 1465.97 Q1018.65 1465.97 1019.58 1465.3 Q1020.5 1464.59 1020.5 1462.37 L1020.5 1455.78 L1000.31 1455.78 M1002.46 1453.44 L1020.95 1453.44 L1020.95 1425.13 L1002.46 1453.44 Z" fill="#000000" fill-rule="nonzero" fill-opacity="1"></path><path clip-path="url(#clip310)" d="M1427.42 1444.33 Q1427.42 1432.39 1433.5 1425.09 Q1439.57 1417.76 1447.39 1417.76 Q1451.95 1417.76 1454.47 1420.09 Q1457.03 1422.39 1457.03 1425.95 Q1457.03 1427.91 1455.88 1428.76 Q1454.73 1429.61 1453.54 1429.61 Q1452.17 1429.61 1451.1 1428.69 Q1450.02 1427.76 1450.02 1426.09 Q1450.02 1422.69 1454.21 1422.69 Q1452.25 1419.65 1447.54 1419.65 Q1446.1 1419.65 1444.61 1420.09 Q1443.13 1420.5 1441.2 1421.91 Q1439.28 1423.32 1437.8 1425.54 Q1436.31 1427.76 1435.28 1431.95 Q1434.24 1436.14 1434.24 1441.58 L1434.24 1443.4 Q1437.35 1435.88 1443.72 1435.91 Q1450.1 1435.91 1454.51 1440.77 Q1458.92 1445.62 1458.92 1452.81 Q1458.92 1460.18 1454.32 1465.08 Q1449.73 1469.97 1443.28 1469.97 Q1440.39 1469.97 1437.76 1468.74 Q1435.16 1467.56 1432.72 1464.82 Q1430.31 1462.07 1428.86 1456.81 Q1427.42 1451.55 1427.42 1444.33 M1434.39 1451.14 Q1434.39 1458.59 1435.76 1462.15 Q1435.98 1462.74 1436.46 1463.56 Q1436.98 1464.37 1437.83 1465.45 Q1438.72 1466.48 1440.17 1467.19 Q1441.61 1467.86 1443.28 1467.86 Q1448.36 1467.86 1450.8 1462.93 Q1452.1 1460.18 1452.1 1452.74 Q1452.1 1445.14 1450.73 1442.36 Q1448.39 1437.66 1443.65 1437.66 Q1440.46 1437.66 1438.24 1439.84 Q1436.05 1442.03 1435.2 1444.96 Q1434.39 1447.88 1434.39 1451.14 Z" fill="#000000" fill-rule="nonzero" fill-opacity="1"></path><path clip-path="url(#clip310)" d="M1853.46 1456.85 Q1853.46 1448.36 1864.39 1442.88 Q1859.68 1439.69 1858.83 1438.77 Q1855.49 1435.06 1855.49 1430.43 Q1855.49 1425.13 1859.5 1421.46 Q1863.54 1417.76 1869.24 1417.76 Q1874.69 1417.76 1878.8 1420.91 Q1882.91 1424.06 1882.91 1429.06 Q1882.91 1436.1 1873.73 1440.84 Q1879.8 1444.62 1881.25 1446.22 Q1884.95 1450.33 1884.95 1455.55 Q1884.95 1461.63 1880.28 1465.82 Q1875.62 1469.97 1869.17 1469.97 Q1862.87 1469.97 1858.16 1466.3 Q1853.46 1462.63 1853.46 1456.85 M1857.24 1456.85 Q1857.24 1461.56 1860.76 1464.71 Q1864.31 1467.86 1869.24 1467.86 Q1874.02 1467.86 1877.58 1465.11 Q1881.17 1462.37 1881.17 1458.29 Q1881.17 1456.7 1880.62 1455.33 Q1880.1 1453.96 1879.02 1452.88 Q1877.99 1451.77 1877.32 1451.29 Q1876.69 1450.77 1875.47 1449.92 L1866.13 1444.03 Q1857.24 1448.96 1857.24 1456.85 M1858.83 1427.47 Q1858.83 1431.1 1862.65 1433.62 L1872.06 1439.69 Q1879.58 1435.28 1879.58 1429.06 Q1879.58 1425.02 1876.5 1422.35 Q1873.43 1419.65 1869.17 1419.65 Q1864.98 1419.65 1861.9 1421.87 Q1858.83 1424.06 1858.83 1427.47 Z" fill="#000000" fill-rule="nonzero" fill-opacity="1"></path><path clip-path="url(#clip310)" d="M2262.19 1424.98 L2262.19 1422.61 Q2271.3 1422.61 2276.01 1417.76 Q2277.31 1417.76 2277.53 1418.05 Q2277.75 1418.35 2277.75 1419.72 L2277.75 1462.3 Q2277.75 1464.56 2278.86 1465.26 Q2279.97 1465.97 2284.83 1465.97 L2287.24 1465.97 L2287.24 1468.3 Q2284.57 1468.08 2274.93 1468.08 Q2265.3 1468.08 2262.67 1468.3 L2262.67 1465.97 L2265.08 1465.97 Q2269.86 1465.97 2271.01 1465.3 Q2272.16 1464.59 2272.16 1462.3 L2272.16 1422.98 Q2268.19 1424.98 2262.19 1424.98 Z" fill="#000000" fill-rule="nonzero" fill-opacity="1"></path><path clip-path="url(#clip310)" d="M2296.35 1444.03 Q2296.35 1432.88 2299.17 1426.8 Q2303.1 1417.76 2312.36 1417.76 Q2314.32 1417.76 2316.36 1418.31 Q2318.44 1418.83 2321.03 1420.87 Q2323.66 1422.91 2325.26 1426.24 Q2328.29 1432.69 2328.29 1444.03 Q2328.29 1455.11 2325.48 1461.15 Q2321.36 1469.97 2312.29 1469.97 Q2308.88 1469.97 2305.39 1468.23 Q2301.95 1466.48 2299.76 1462.3 Q2296.35 1456.03 2296.35 1444.03 M2302.65 1443.1 Q2302.65 1454.55 2303.47 1459.11 Q2304.39 1464.04 2306.91 1466.19 Q2309.47 1468.3 2312.29 1468.3 Q2315.32 1468.3 2317.84 1466.04 Q2320.4 1463.74 2321.18 1458.81 Q2322.03 1453.96 2321.99 1443.1 Q2321.99 1432.54 2321.25 1428.32 Q2320.25 1423.39 2317.59 1421.43 Q2314.95 1419.42 2312.29 1419.42 Q2311.29 1419.42 2310.21 1419.72 Q2309.17 1420.02 2307.65 1420.87 Q2306.14 1421.72 2304.95 1423.83 Q2303.8 1425.95 2303.24 1429.13 Q2302.65 1433.25 2302.65 1443.1 Z" fill="#000000" fill-rule="nonzero" fill-opacity="1"></path><path clip-path="url(#clip310)" d="M1239.08 1581 L1239.08 1577.89 Q1244.47 1577.89 1245.7 1577.25 Q1246.99 1576.56 1246.99 1573.3 L1246.99 1546.17 Q1246.99 1542.42 1245.65 1541.48 Q1244.37 1540.54 1239.08 1540.54 L1239.08 1537.38 L1253.16 1536.29 L1253.16 1547.41 Q1254.59 1543.06 1257.61 1539.7 Q1260.67 1536.29 1265.61 1536.29 Q1268.87 1536.29 1270.95 1538.12 Q1273.07 1539.95 1273.07 1542.47 Q1273.07 1544.69 1271.69 1545.83 Q1270.36 1546.91 1268.72 1546.91 Q1266.9 1546.91 1265.61 1545.78 Q1264.38 1544.59 1264.38 1542.57 Q1264.38 1541.33 1264.92 1540.39 Q1265.51 1539.4 1265.96 1539.06 Q1266.4 1538.71 1266.7 1538.61 Q1266.5 1538.51 1265.61 1538.51 Q1260.03 1538.51 1256.82 1544.1 Q1253.66 1549.63 1253.66 1557.54 L1253.66 1573.1 Q1253.66 1576.01 1254.84 1576.95 Q1256.08 1577.89 1261.36 1577.89 L1263.49 1577.89 L1263.49 1581 Q1259.44 1580.71 1250.64 1580.71 Q1249.41 1580.71 1247.48 1580.76 Q1245.55 1580.81 1243.03 1580.91 Q1240.51 1581 1239.08 1581 Z" fill="#000000" fill-rule="nonzero" fill-opacity="1"></path><path clip-path="url(#clip310)" d="M1280.04 1571.37 Q1280.04 1562.77 1290.17 1558.23 Q1296.24 1555.31 1308.79 1554.57 L1308.79 1550.87 Q1308.79 1544.59 1305.48 1541.28 Q1302.22 1537.92 1298.07 1537.92 Q1290.66 1537.92 1287.1 1542.57 Q1290.12 1542.66 1291.2 1544.2 Q1292.29 1545.68 1292.29 1547.21 Q1292.29 1549.24 1291.01 1550.57 Q1289.77 1551.85 1287.65 1551.85 Q1285.62 1551.85 1284.29 1550.62 Q1282.95 1549.33 1282.95 1547.11 Q1282.95 1542.17 1287.4 1538.91 Q1291.9 1535.65 1298.27 1535.65 Q1306.57 1535.65 1312.1 1541.23 Q1313.83 1542.96 1314.67 1545.18 Q1315.56 1547.41 1315.66 1548.89 Q1315.76 1550.32 1315.76 1553.19 L1315.76 1573.4 Q1315.76 1573.99 1315.96 1574.98 Q1316.16 1575.96 1317.04 1577.25 Q1317.98 1578.48 1319.51 1578.48 Q1323.17 1578.48 1323.12 1572.01 L1323.12 1566.33 L1325.69 1566.33 L1325.69 1572.01 Q1325.69 1577.4 1322.83 1579.52 Q1320.01 1581.6 1317.39 1581.6 Q1314.03 1581.6 1311.91 1579.13 Q1309.78 1576.66 1309.49 1573.3 Q1307.95 1577.15 1304.45 1579.67 Q1300.99 1582.14 1296.24 1582.14 Q1292.59 1582.14 1289.13 1581.2 Q1285.72 1580.31 1282.86 1577.79 Q1280.04 1575.22 1280.04 1571.37 M1287.85 1571.27 Q1287.85 1575.03 1290.51 1577.45 Q1293.18 1579.87 1296.94 1579.87 Q1301.18 1579.87 1304.99 1576.61 Q1308.79 1573.3 1308.79 1566.82 L1308.79 1556.7 Q1297.58 1557.09 1292.69 1561.59 Q1287.85 1566.03 1287.85 1571.27 Z" fill="#000000" fill-rule="nonzero" fill-opacity="1"></path><path clip-path="url(#clip310)" d="M1329.64 1581 L1329.64 1577.89 Q1335.03 1577.89 1336.26 1577.25 Q1337.5 1576.56 1337.5 1573.3 L1337.5 1546.17 Q1337.5 1542.42 1336.16 1541.48 Q1334.88 1540.54 1329.64 1540.54 L1329.64 1537.38 L1343.87 1536.29 L1343.87 1546.91 Q1348.62 1536.29 1358.84 1536.29 Q1366.45 1536.29 1369.47 1540.05 Q1371.69 1542.57 1372.13 1545.38 Q1372.63 1548.2 1372.63 1555.51 L1372.63 1574.83 Q1372.73 1576.95 1374.36 1577.45 Q1375.99 1577.89 1380.53 1577.89 L1380.53 1581 Q1370.21 1580.71 1369.17 1580.71 Q1368.38 1580.71 1357.76 1581 L1357.76 1577.89 Q1363.14 1577.89 1364.38 1577.25 Q1365.66 1576.56 1365.66 1573.3 L1365.66 1549.73 Q1365.66 1544.59 1364.08 1541.58 Q1362.5 1538.51 1358.15 1538.51 Q1352.91 1538.51 1348.71 1542.91 Q1344.51 1547.31 1344.51 1554.72 L1344.51 1573.3 Q1344.51 1576.56 1345.75 1577.25 Q1347.03 1577.89 1352.37 1577.89 L1352.37 1581 Q1342.04 1580.71 1341.06 1580.71 Q1340.27 1580.71 1329.64 1581 Z" fill="#000000" fill-rule="nonzero" fill-opacity="1"></path><path clip-path="url(#clip310)" d="M1385.32 1581 L1385.32 1577.89 Q1390.71 1577.89 1391.95 1577.25 Q1393.23 1576.56 1393.23 1573.3 L1393.23 1520.68 Q1393.23 1516.92 1391.9 1515.98 Q1390.61 1515.05 1385.32 1515.05 L1385.32 1511.88 L1399.9 1510.8 L1399.9 1559.36 L1414.18 1547.01 Q1416.4 1545.09 1416.4 1543.06 Q1416.4 1540.74 1413.49 1540.54 L1413.49 1537.38 Q1417.74 1537.67 1424.8 1537.67 Q1428.95 1537.67 1431.87 1537.38 L1431.87 1540.54 Q1425.49 1540.84 1419.12 1545.97 Q1417.69 1547.11 1414.28 1550.08 Q1410.92 1552.99 1410.92 1553.29 Q1410.92 1553.39 1411.02 1553.63 Q1411.16 1553.88 1411.36 1554.08 Q1411.56 1554.27 1411.56 1554.37 L1424.41 1572.51 Q1427.02 1576.16 1428.95 1577.05 Q1430.88 1577.89 1434.24 1577.89 L1434.24 1581 Q1429.89 1580.71 1425.39 1580.71 Q1422.97 1580.71 1414.47 1581 L1414.47 1577.89 Q1418.13 1577.89 1418.13 1575.52 Q1418.13 1573.89 1409.93 1562.58 Q1409.34 1561.78 1408 1560.06 Q1406.77 1558.23 1406.08 1557.34 L1399.6 1562.87 L1399.6 1573.3 Q1399.6 1576.56 1400.84 1577.25 Q1402.12 1577.89 1407.51 1577.89 L1407.51 1581 Q1401.43 1580.71 1396.39 1580.71 Q1395.35 1580.71 1385.32 1581 Z" fill="#000000" fill-rule="nonzero" fill-opacity="1"></path><polyline clip-path="url(#clip312)" style="stroke:#000000; stroke-linecap:round; stroke-linejoin:round; stroke-width:2; stroke-opacity:0.1; fill:none" points="320.562,1222.88 2352.76,1222.88 "></polyline>
<polyline clip-path="url(#clip312)" style="stroke:#000000; stroke-linecap:round; stroke-linejoin:round; stroke-width:2; stroke-opacity:0.1; fill:none" points="320.562,961.266 2352.76,961.266 "></polyline>
<polyline clip-path="url(#clip312)" style="stroke:#000000; stroke-linecap:round; stroke-linejoin:round; stroke-width:2; stroke-opacity:0.1; fill:none" points="320.562,699.654 2352.76,699.654 "></polyline>
<polyline clip-path="url(#clip312)" style="stroke:#000000; stroke-linecap:round; stroke-linejoin:round; stroke-width:2; stroke-opacity:0.1; fill:none" points="320.562,438.041 2352.76,438.041 "></polyline>
<polyline clip-path="url(#clip312)" style="stroke:#000000; stroke-linecap:round; stroke-linejoin:round; stroke-width:2; stroke-opacity:0.1; fill:none" points="320.562,176.429 2352.76,176.429 "></polyline>
<polyline clip-path="url(#clip310)" style="stroke:#000000; stroke-linecap:round; stroke-linejoin:round; stroke-width:4; stroke-opacity:1; fill:none" points="320.562,1384.3 320.562,47.2441 "></polyline>
<polyline clip-path="url(#clip310)" style="stroke:#000000; stroke-linecap:round; stroke-linejoin:round; stroke-width:4; stroke-opacity:1; fill:none" points="320.562,1222.88 339.46,1222.88 "></polyline>
<polyline clip-path="url(#clip310)" style="stroke:#000000; stroke-linecap:round; stroke-linejoin:round; stroke-width:4; stroke-opacity:1; fill:none" points="320.562,961.266 339.46,961.266 "></polyline>
<polyline clip-path="url(#clip310)" style="stroke:#000000; stroke-linecap:round; stroke-linejoin:round; stroke-width:4; stroke-opacity:1; fill:none" points="320.562,699.654 339.46,699.654 "></polyline>
<polyline clip-path="url(#clip310)" style="stroke:#000000; stroke-linecap:round; stroke-linejoin:round; stroke-width:4; stroke-opacity:1; fill:none" points="320.562,438.041 339.46,438.041 "></polyline>
<polyline clip-path="url(#clip310)" style="stroke:#000000; stroke-linecap:round; stroke-linejoin:round; stroke-width:4; stroke-opacity:1; fill:none" points="320.562,176.429 339.46,176.429 "></polyline>
<path clip-path="url(#clip310)" d="M185.959 1228.75 Q186.403 1229.2 186.403 1229.83 Q186.403 1230.46 185.959 1230.9 Q185.514 1231.35 184.884 1231.35 L137.379 1231.35 Q136.749 1231.35 136.305 1230.9 Q135.86 1230.46 135.86 1229.83 Q135.86 1229.2 136.305 1228.75 Q136.749 1228.31 137.379 1228.31 L184.884 1228.31 Q185.514 1228.31 185.959 1228.75 Z" fill="#000000" fill-rule="nonzero" fill-opacity="1"></path><path clip-path="url(#clip310)" d="M194.407 1236.57 Q194.407 1234.31 195.63 1233.46 Q196.853 1232.57 198.15 1232.57 Q199.891 1232.57 200.892 1233.68 Q201.929 1234.75 201.929 1236.27 Q201.929 1237.79 200.892 1238.91 Q199.891 1239.98 198.15 1239.98 Q197.297 1239.98 196.853 1239.83 Q197.853 1243.31 200.892 1245.83 Q203.967 1248.35 208.006 1248.35 Q213.083 1248.35 216.121 1243.43 Q217.937 1240.24 217.937 1233.01 Q217.937 1226.64 216.566 1223.45 Q214.454 1218.6 210.118 1218.6 Q203.967 1218.6 200.336 1223.9 Q199.891 1224.56 199.372 1224.6 Q198.631 1224.6 198.446 1224.19 Q198.298 1223.75 198.298 1222.6 L198.298 1200.15 Q198.298 1198.33 199.039 1198.33 Q199.335 1198.33 199.965 1198.55 Q204.745 1200.66 210.044 1200.7 Q215.491 1200.7 220.383 1198.48 Q220.753 1198.26 220.976 1198.26 Q221.717 1198.26 221.754 1199.11 Q221.754 1199.4 221.124 1200.29 Q220.531 1201.15 219.234 1202.29 Q217.937 1203.41 216.27 1204.48 Q214.602 1205.56 212.156 1206.3 Q209.748 1207 207.08 1207 Q203.893 1207 200.632 1206 L200.632 1220.79 Q204.56 1216.93 210.267 1216.93 Q216.344 1216.93 220.531 1221.82 Q224.718 1226.71 224.718 1233.53 Q224.718 1240.68 219.753 1245.58 Q214.824 1250.47 208.155 1250.47 Q202.078 1250.47 198.224 1246.13 Q194.407 1241.8 194.407 1236.57 Z" fill="#000000" fill-rule="nonzero" fill-opacity="1"></path><path clip-path="url(#clip310)" d="M236.168 1247.58 Q235.019 1246.35 235.019 1244.76 Q235.019 1243.17 236.168 1242.02 Q237.317 1240.83 239.058 1240.83 Q240.726 1240.83 241.838 1241.94 Q242.986 1243.02 242.986 1244.8 Q242.986 1246.54 241.763 1247.69 Q240.578 1248.8 239.058 1248.8 Q237.317 1248.8 236.168 1247.58 Z" fill="#000000" fill-rule="nonzero" fill-opacity="1"></path><path clip-path="url(#clip310)" d="M252.621 1224.53 Q252.621 1213.37 255.437 1207.3 Q259.365 1198.26 268.628 1198.26 Q270.592 1198.26 272.63 1198.81 Q274.705 1199.33 277.299 1201.37 Q279.93 1203.41 281.524 1206.74 Q284.562 1213.19 284.562 1224.53 Q284.562 1235.61 281.746 1241.65 Q277.633 1250.47 268.554 1250.47 Q265.145 1250.47 261.662 1248.72 Q258.216 1246.98 256.03 1242.8 Q252.621 1236.53 252.621 1224.53 M258.92 1223.6 Q258.92 1235.05 259.735 1239.61 Q260.662 1244.54 263.181 1246.69 Q265.738 1248.8 268.554 1248.8 Q271.593 1248.8 274.113 1246.54 Q276.669 1244.24 277.447 1239.31 Q278.3 1234.46 278.263 1223.6 Q278.263 1213.04 277.522 1208.82 Q276.521 1203.89 273.853 1201.92 Q271.222 1199.92 268.554 1199.92 Q267.554 1199.92 266.479 1200.22 Q265.442 1200.52 263.922 1201.37 Q262.403 1202.22 261.217 1204.33 Q260.069 1206.44 259.513 1209.63 Q258.92 1213.74 258.92 1223.6 Z" fill="#000000" fill-rule="nonzero" fill-opacity="1"></path><path clip-path="url(#clip310)" d="M186.774 967.14 Q187.218 967.584 187.218 968.214 Q187.218 968.844 186.774 969.289 Q186.329 969.733 185.699 969.733 L138.195 969.733 Q137.565 969.733 137.12 969.289 Q136.675 968.844 136.675 968.214 Q136.675 967.584 137.12 967.14 Q137.565 966.695 138.195 966.695 L185.699 966.695 Q186.329 966.695 186.774 967.14 Z" fill="#000000" fill-rule="nonzero" fill-opacity="1"></path><path clip-path="url(#clip310)" d="M195.222 987.186 Q195.222 985.815 195.333 985.408 Q195.482 985 196.075 984.37 L210.637 968.14 Q218.604 959.173 218.604 951.354 Q218.604 946.278 215.936 942.646 Q213.305 939.015 208.451 939.015 Q205.116 939.015 202.3 941.053 Q199.484 943.091 198.187 946.722 Q198.409 946.648 199.187 946.648 Q201.077 946.648 202.115 947.834 Q203.189 949.02 203.189 950.613 Q203.189 952.651 201.855 953.652 Q200.558 954.615 199.261 954.615 Q198.743 954.615 198.039 954.504 Q197.372 954.393 196.297 953.355 Q195.222 952.28 195.222 950.391 Q195.222 945.092 199.224 940.868 Q203.263 936.643 209.414 936.643 Q216.381 936.643 220.939 940.793 Q225.533 944.907 225.533 951.354 Q225.533 953.614 224.829 955.69 Q224.162 957.728 223.236 959.321 Q222.347 960.914 219.901 963.471 Q217.455 966.028 215.491 967.844 Q213.528 969.659 209.118 973.513 L201.077 981.332 L214.75 981.332 Q221.42 981.332 221.939 980.739 Q222.68 979.664 223.606 973.995 L225.533 973.995 L223.384 987.186 L195.222 987.186 Z" fill="#000000" fill-rule="nonzero" fill-opacity="1"></path><path clip-path="url(#clip310)" d="M236.983 985.964 Q235.835 984.741 235.835 983.147 Q235.835 981.554 236.983 980.405 Q238.132 979.22 239.874 979.22 Q241.541 979.22 242.653 980.331 Q243.801 981.406 243.801 983.184 Q243.801 984.926 242.579 986.075 Q241.393 987.186 239.874 987.186 Q238.132 987.186 236.983 985.964 Z" fill="#000000" fill-rule="nonzero" fill-opacity="1"></path><path clip-path="url(#clip310)" d="M254.251 974.958 Q254.251 972.698 255.474 971.846 Q256.697 970.956 257.994 970.956 Q259.735 970.956 260.736 972.068 Q261.773 973.142 261.773 974.662 Q261.773 976.181 260.736 977.293 Q259.735 978.367 257.994 978.367 Q257.141 978.367 256.697 978.219 Q257.697 981.702 260.736 984.222 Q263.811 986.742 267.85 986.742 Q272.927 986.742 275.965 981.813 Q277.781 978.627 277.781 971.401 Q277.781 965.027 276.41 961.841 Q274.298 956.986 269.962 956.986 Q263.811 956.986 260.18 962.285 Q259.735 962.952 259.216 962.989 Q258.475 962.989 258.29 962.582 Q258.142 962.137 258.142 960.988 L258.142 938.533 Q258.142 936.717 258.883 936.717 Q259.179 936.717 259.809 936.94 Q264.589 939.052 269.888 939.089 Q275.335 939.089 280.227 936.866 Q280.597 936.643 280.819 936.643 Q281.561 936.643 281.598 937.496 Q281.598 937.792 280.968 938.681 Q280.375 939.534 279.078 940.682 Q277.781 941.794 276.113 942.869 Q274.446 943.943 272 944.684 Q269.592 945.388 266.924 945.388 Q263.737 945.388 260.476 944.388 L260.476 959.173 Q264.404 955.319 270.111 955.319 Q276.188 955.319 280.375 960.21 Q284.562 965.102 284.562 971.92 Q284.562 979.071 279.597 983.963 Q274.668 988.854 267.998 988.854 Q261.921 988.854 258.068 984.518 Q254.251 980.183 254.251 974.958 Z" fill="#000000" fill-rule="nonzero" fill-opacity="1"></path><path clip-path="url(#clip310)" d="M193.592 701.303 Q193.592 690.149 196.408 684.072 Q200.336 675.031 209.6 675.031 Q211.564 675.031 213.602 675.587 Q215.677 676.105 218.271 678.143 Q220.901 680.181 222.495 683.516 Q225.533 689.964 225.533 701.303 Q225.533 712.382 222.717 718.422 Q218.604 727.241 209.526 727.241 Q206.117 727.241 202.633 725.5 Q199.187 723.758 197.001 719.571 Q193.592 713.309 193.592 701.303 M199.891 700.376 Q199.891 711.826 200.706 716.384 Q201.633 721.313 204.153 723.462 Q206.709 725.574 209.526 725.574 Q212.564 725.574 215.084 723.314 Q217.641 721.016 218.419 716.088 Q219.271 711.234 219.234 700.376 Q219.234 689.816 218.493 685.591 Q217.492 680.663 214.824 678.699 Q212.194 676.698 209.526 676.698 Q208.525 676.698 207.45 676.995 Q206.413 677.291 204.894 678.143 Q203.374 678.996 202.189 681.108 Q201.04 683.22 200.484 686.407 Q199.891 690.52 199.891 700.376 Z" fill="#000000" fill-rule="nonzero" fill-opacity="1"></path><path clip-path="url(#clip310)" d="M236.168 724.351 Q235.019 723.128 235.019 721.535 Q235.019 719.942 236.168 718.793 Q237.317 717.607 239.058 717.607 Q240.726 717.607 241.838 718.719 Q242.986 719.793 242.986 721.572 Q242.986 723.314 241.763 724.462 Q240.578 725.574 239.058 725.574 Q237.317 725.574 236.168 724.351 Z" fill="#000000" fill-rule="nonzero" fill-opacity="1"></path><path clip-path="url(#clip310)" d="M252.621 701.303 Q252.621 690.149 255.437 684.072 Q259.365 675.031 268.628 675.031 Q270.592 675.031 272.63 675.587 Q274.705 676.105 277.299 678.143 Q279.93 680.181 281.524 683.516 Q284.562 689.964 284.562 701.303 Q284.562 712.382 281.746 718.422 Q277.633 727.241 268.554 727.241 Q265.145 727.241 261.662 725.5 Q258.216 723.758 256.03 719.571 Q252.621 713.309 252.621 701.303 M258.92 700.376 Q258.92 711.826 259.735 716.384 Q260.662 721.313 263.181 723.462 Q265.738 725.574 268.554 725.574 Q271.593 725.574 274.113 723.314 Q276.669 721.016 277.447 716.088 Q278.3 711.234 278.263 700.376 Q278.263 689.816 277.522 685.591 Q276.521 680.663 273.853 678.699 Q271.222 676.698 268.554 676.698 Q267.554 676.698 266.479 676.995 Q265.442 677.291 263.922 678.143 Q262.403 678.996 261.217 681.108 Q260.069 683.22 259.513 686.407 Q258.92 690.52 258.92 700.376 Z" fill="#000000" fill-rule="nonzero" fill-opacity="1"></path><path clip-path="url(#clip310)" d="M195.222 463.961 Q195.222 462.59 195.333 462.183 Q195.482 461.775 196.075 461.145 L210.637 444.915 Q218.604 435.948 218.604 428.129 Q218.604 423.053 215.936 419.421 Q213.305 415.79 208.451 415.79 Q205.116 415.79 202.3 417.828 Q199.484 419.866 198.187 423.497 Q198.409 423.423 199.187 423.423 Q201.077 423.423 202.115 424.609 Q203.189 425.795 203.189 427.388 Q203.189 429.426 201.855 430.427 Q200.558 431.39 199.261 431.39 Q198.743 431.39 198.039 431.279 Q197.372 431.168 196.297 430.13 Q195.222 429.056 195.222 427.166 Q195.222 421.867 199.224 417.643 Q203.263 413.418 209.414 413.418 Q216.381 413.418 220.939 417.569 Q225.533 421.682 225.533 428.129 Q225.533 430.39 224.829 432.465 Q224.162 434.503 223.236 436.096 Q222.347 437.689 219.901 440.246 Q217.455 442.803 215.491 444.619 Q213.528 446.434 209.118 450.288 L201.077 458.107 L214.75 458.107 Q221.42 458.107 221.939 457.514 Q222.68 456.439 223.606 450.77 L225.533 450.77 L223.384 463.961 L195.222 463.961 Z" fill="#000000" fill-rule="nonzero" fill-opacity="1"></path><path clip-path="url(#clip310)" d="M236.983 462.739 Q235.835 461.516 235.835 459.922 Q235.835 458.329 236.983 457.18 Q238.132 455.995 239.874 455.995 Q241.541 455.995 242.653 457.106 Q243.801 458.181 243.801 459.959 Q243.801 461.701 242.579 462.85 Q241.393 463.961 239.874 463.961 Q238.132 463.961 236.983 462.739 Z" fill="#000000" fill-rule="nonzero" fill-opacity="1"></path><path clip-path="url(#clip310)" d="M254.251 451.733 Q254.251 449.473 255.474 448.621 Q256.697 447.731 257.994 447.731 Q259.735 447.731 260.736 448.843 Q261.773 449.918 261.773 451.437 Q261.773 452.956 260.736 454.068 Q259.735 455.142 257.994 455.142 Q257.141 455.142 256.697 454.994 Q257.697 458.477 260.736 460.997 Q263.811 463.517 267.85 463.517 Q272.927 463.517 275.965 458.588 Q277.781 455.402 277.781 448.176 Q277.781 441.803 276.41 438.616 Q274.298 433.762 269.962 433.762 Q263.811 433.762 260.18 439.06 Q259.735 439.727 259.216 439.764 Q258.475 439.764 258.29 439.357 Q258.142 438.912 258.142 437.764 L258.142 415.308 Q258.142 413.492 258.883 413.492 Q259.179 413.492 259.809 413.715 Q264.589 415.827 269.888 415.864 Q275.335 415.864 280.227 413.641 Q280.597 413.418 280.819 413.418 Q281.561 413.418 281.598 414.271 Q281.598 414.567 280.968 415.456 Q280.375 416.309 279.078 417.457 Q277.781 418.569 276.113 419.644 Q274.446 420.718 272 421.459 Q269.592 422.163 266.924 422.163 Q263.737 422.163 260.476 421.163 L260.476 435.948 Q264.404 432.094 270.111 432.094 Q276.188 432.094 280.375 436.985 Q284.562 441.877 284.562 448.695 Q284.562 455.846 279.597 460.738 Q274.668 465.629 267.998 465.629 Q261.921 465.629 258.068 461.293 Q254.251 456.958 254.251 451.733 Z" fill="#000000" fill-rule="nonzero" fill-opacity="1"></path><path clip-path="url(#clip310)" d="M194.407 190.121 Q194.407 187.86 195.63 187.008 Q196.853 186.119 198.15 186.119 Q199.891 186.119 200.892 187.231 Q201.929 188.305 201.929 189.824 Q201.929 191.344 200.892 192.455 Q199.891 193.53 198.15 193.53 Q197.297 193.53 196.853 193.382 Q197.853 196.865 200.892 199.385 Q203.967 201.904 208.006 201.904 Q213.083 201.904 216.121 196.976 Q217.937 193.789 217.937 186.564 Q217.937 180.19 216.566 177.003 Q214.454 172.149 210.118 172.149 Q203.967 172.149 200.336 177.448 Q199.891 178.115 199.372 178.152 Q198.631 178.152 198.446 177.744 Q198.298 177.3 198.298 176.151 L198.298 153.696 Q198.298 151.88 199.039 151.88 Q199.335 151.88 199.965 152.102 Q204.745 154.214 210.044 154.252 Q215.491 154.252 220.383 152.028 Q220.753 151.806 220.976 151.806 Q221.717 151.806 221.754 152.658 Q221.754 152.955 221.124 153.844 Q220.531 154.696 219.234 155.845 Q217.937 156.957 216.27 158.031 Q214.602 159.106 212.156 159.847 Q209.748 160.551 207.08 160.551 Q203.893 160.551 200.632 159.55 L200.632 174.335 Q204.56 170.482 210.267 170.482 Q216.344 170.482 220.531 175.373 Q224.718 180.264 224.718 187.082 Q224.718 194.234 219.753 199.125 Q214.824 204.016 208.155 204.016 Q202.078 204.016 198.224 199.681 Q194.407 195.346 194.407 190.121 Z" fill="#000000" fill-rule="nonzero" fill-opacity="1"></path><path clip-path="url(#clip310)" d="M236.168 201.126 Q235.019 199.903 235.019 198.31 Q235.019 196.717 236.168 195.568 Q237.317 194.382 239.058 194.382 Q240.726 194.382 241.838 195.494 Q242.986 196.568 242.986 198.347 Q242.986 200.089 241.763 201.237 Q240.578 202.349 239.058 202.349 Q237.317 202.349 236.168 201.126 Z" fill="#000000" fill-rule="nonzero" fill-opacity="1"></path><path clip-path="url(#clip310)" d="M252.621 178.078 Q252.621 166.924 255.437 160.847 Q259.365 151.806 268.628 151.806 Q270.592 151.806 272.63 152.362 Q274.705 152.88 277.299 154.919 Q279.93 156.957 281.524 160.291 Q284.562 166.739 284.562 178.078 Q284.562 189.157 281.746 195.197 Q277.633 204.016 268.554 204.016 Q265.145 204.016 261.662 202.275 Q258.216 200.533 256.03 196.346 Q252.621 190.084 252.621 178.078 M258.92 177.152 Q258.92 188.602 259.735 193.159 Q260.662 198.088 263.181 200.237 Q265.738 202.349 268.554 202.349 Q271.593 202.349 274.113 200.089 Q276.669 197.791 277.447 192.863 Q278.3 188.009 278.263 177.152 Q278.263 166.591 277.522 162.367 Q276.521 157.438 273.853 155.474 Q271.222 153.473 268.554 153.473 Q267.554 153.473 266.479 153.77 Q265.442 154.066 263.922 154.919 Q262.403 155.771 261.217 157.883 Q260.069 159.995 259.513 163.182 Q258.92 167.295 258.92 177.152 Z" fill="#000000" fill-rule="nonzero" fill-opacity="1"></path><path clip-path="url(#clip310)" d="M77.7902 1134.25 L64.4504 1134.25 Q63.314 1134.25 62.9188 1134.2 Q62.5235 1134.15 62.2271 1133.85 Q61.9306 1133.56 61.9306 1132.96 Q61.9306 1132.27 62.2271 1132.02 Q62.5235 1131.73 63.6599 1131.53 Q70.6262 1130 74.3317 1126.74 Q77.9878 1123.43 77.9878 1117.45 Q77.9878 1111.77 75.4681 1108.9 Q72.9483 1106.04 68.7982 1106.04 Q61.3871 1106.04 59.5097 1116.56 Q58.2745 1122.64 57.484 1125.16 Q56.6441 1127.68 54.8161 1129.9 Q51.2588 1134.25 46.2193 1134.25 Q41.1798 1134.25 37.4743 1130.44 Q33.7688 1126.59 33.7688 1118.09 Q33.7688 1112.41 36.6344 1108.56 Q35.7451 1107.42 35.004 1106.83 Q33.7688 1105.49 33.7688 1104.8 Q33.7688 1104.01 34.3123 1103.86 Q34.8063 1103.71 36.2391 1103.71 L46.4169 1103.71 Q47.5533 1103.71 47.9485 1103.76 Q48.3438 1103.81 48.6402 1104.11 Q48.8872 1104.41 48.8872 1105.05 Q48.8872 1106.18 47.9485 1106.23 Q35.6957 1107.02 35.6957 1118.09 Q35.6957 1124.07 38.0178 1126.74 Q40.2905 1129.41 43.4031 1129.41 Q45.1323 1129.41 46.4663 1128.61 Q47.7509 1127.77 48.5414 1126.74 Q49.2825 1125.65 50.0236 1123.67 Q50.7153 1121.7 50.9623 1120.51 Q51.2094 1119.28 51.7034 1116.95 Q53.235 1108.85 56.5453 1105.44 Q60.7943 1101.19 66.1796 1101.19 Q72.1578 1101.19 76.2092 1105.25 Q80.2605 1109.3 80.2605 1117.45 Q80.2605 1124.02 75.8633 1128.61 Q76.4562 1129.21 76.9997 1129.65 Q77.4937 1130.1 77.6914 1130.29 Q77.889 1130.44 78.0372 1130.49 Q78.136 1130.54 78.2348 1130.64 Q80.2605 1132.67 80.2605 1133.16 Q80.2605 1133.95 79.717 1134.1 Q79.223 1134.25 77.7902 1134.25 Z" fill="#000000" fill-rule="nonzero" fill-opacity="1"></path><path clip-path="url(#clip310)" d="M38.6601 1095.86 L36.4368 1095.86 Q36.2391 1091.21 32.9783 1088.15 Q29.668 1085.04 25.6167 1084 Q21.5653 1082.91 16.8717 1082.81 L16.8717 1080.29 L35.498 1080.29 L35.498 1065.82 L38.6601 1065.82 L38.6601 1080.29 L66.7725 1080.29 Q77.6914 1080.29 77.6914 1073.48 Q77.6914 1070.56 74.727 1068.63 Q71.7131 1066.71 66.3772 1066.71 L60.7943 1066.71 L60.7943 1064.19 L66.5749 1064.19 Q72.059 1064.19 76.1598 1066.71 Q80.2605 1069.23 80.2605 1074.22 Q80.2605 1076.05 79.7664 1077.87 Q79.3218 1079.65 78.136 1082.02 Q76.9009 1084.35 73.9365 1085.83 Q70.9226 1087.26 66.5749 1087.26 L38.6601 1087.26 L38.6601 1095.86 Z" fill="#000000" fill-rule="nonzero" fill-opacity="1"></path><path clip-path="url(#clip310)" d="M69.4898 1054.31 Q60.8931 1054.31 56.3477 1044.18 Q53.4327 1038.1 52.6916 1025.55 L48.9861 1025.55 Q42.7114 1025.55 39.4012 1028.86 Q36.0415 1032.12 36.0415 1036.27 Q36.0415 1043.68 40.6857 1047.24 Q40.7845 1044.23 42.3162 1043.14 Q43.7984 1042.05 45.33 1042.05 Q47.3556 1042.05 48.6896 1043.34 Q49.9742 1044.57 49.9742 1046.7 Q49.9742 1048.72 48.739 1050.06 Q47.4545 1051.39 45.2311 1051.39 Q40.2905 1051.39 37.0296 1046.95 Q33.7688 1042.45 33.7688 1036.08 Q33.7688 1027.78 39.3517 1022.24 Q41.081 1020.51 43.3043 1019.67 Q45.5276 1018.78 47.0098 1018.68 Q48.4426 1018.59 51.3082 1018.59 L71.5155 1018.59 Q72.1084 1018.59 73.0965 1018.39 Q74.0847 1018.19 75.3692 1017.3 Q76.6044 1016.36 76.6044 1014.83 Q76.6044 1011.17 70.1321 1011.22 L64.4504 1011.22 L64.4504 1008.65 L70.1321 1008.65 Q75.5175 1008.65 77.642 1011.52 Q79.717 1014.34 79.717 1016.96 Q79.717 1020.31 77.2467 1022.44 Q74.7764 1024.56 71.4167 1024.86 Q75.2704 1026.39 77.7902 1029.9 Q80.2605 1033.36 80.2605 1038.1 Q80.2605 1041.76 79.3218 1045.22 Q78.4325 1048.63 75.9127 1051.49 Q73.3436 1054.31 69.4898 1054.31 M69.391 1046.5 Q73.1459 1046.5 75.5669 1043.83 Q77.9878 1041.16 77.9878 1037.41 Q77.9878 1033.16 74.727 1029.36 Q71.4167 1025.55 64.9444 1025.55 L54.8161 1025.55 Q55.2113 1036.77 59.7073 1041.66 Q64.1539 1046.5 69.391 1046.5 Z" fill="#000000" fill-rule="nonzero" fill-opacity="1"></path><path clip-path="url(#clip310)" d="M79.1242 1004.7 L76.0115 1004.7 Q76.0115 999.317 75.3692 998.082 Q74.6776 996.847 71.4167 996.847 L44.2924 996.847 Q40.5375 996.847 39.5988 998.181 Q38.6601 999.465 38.6601 1004.7 L35.498 1004.7 L34.4111 990.473 L45.0335 990.473 Q34.4111 985.73 34.4111 975.503 Q34.4111 967.894 38.166 964.881 Q40.6857 962.657 43.5019 962.213 Q46.3181 961.719 53.6303 961.719 L72.9483 961.719 Q75.0728 961.62 75.5669 959.989 Q76.0115 958.359 76.0115 953.814 L79.1242 953.814 Q78.8277 964.14 78.8277 965.177 Q78.8277 965.968 79.1242 976.59 L76.0115 976.59 Q76.0115 971.205 75.3692 969.97 Q74.6776 968.685 71.4167 968.685 L47.8497 968.685 Q42.7114 968.685 39.6976 970.266 Q36.6344 971.847 36.6344 976.195 Q36.6344 981.432 41.0316 985.631 Q45.4288 989.831 52.8398 989.831 L71.4167 989.831 Q74.6776 989.831 75.3692 988.596 Q76.0115 987.311 76.0115 981.975 L79.1242 981.975 Q78.8277 992.301 78.8277 993.29 Q78.8277 994.08 79.1242 1004.7 Z" fill="#000000" fill-rule="nonzero" fill-opacity="1"></path><path clip-path="url(#clip310)" d="M57.3852 948.379 Q47.7509 948.379 41.081 941.659 Q34.4111 934.94 34.4111 925.849 Q34.4111 918.142 40.6857 913.102 L18.7986 913.102 Q15.0436 913.102 14.1049 914.436 Q13.1662 915.721 13.1662 920.958 L10.0042 920.958 L8.91721 906.383 L70.3298 906.383 Q74.0847 906.383 75.0728 905.099 Q76.0115 903.765 76.0115 898.527 L79.1242 898.527 L80.2605 913.399 L73.5412 913.399 Q80.2111 918.636 80.2605 926.936 Q80.2605 935.632 73.5906 942.005 Q66.9207 948.379 57.3852 948.379 M57.484 939.98 Q66.8713 939.98 71.5155 937.065 Q77.9878 933.013 77.9878 926.442 Q77.9878 918.932 70.9226 914.486 Q69.1934 913.349 67.1677 913.399 L46.4169 913.399 Q44.3912 913.399 42.7114 914.486 Q36.6344 918.636 36.6344 925.405 Q36.6344 932.47 43.1067 936.867 Q47.9485 939.98 57.484 939.98 Z" fill="#000000" fill-rule="nonzero" fill-opacity="1"></path><path clip-path="url(#clip310)" d="M69.4898 891.462 Q60.8931 891.462 56.3477 881.334 Q53.4327 875.257 52.6916 862.708 L48.9861 862.708 Q42.7114 862.708 39.4012 866.018 Q36.0415 869.279 36.0415 873.429 Q36.0415 880.84 40.6857 884.397 Q40.7845 881.383 42.3162 880.296 Q43.7984 879.209 45.33 879.209 Q47.3556 879.209 48.6896 880.494 Q49.9742 881.729 49.9742 883.854 Q49.9742 885.879 48.739 887.213 Q47.4545 888.547 45.2311 888.547 Q40.2905 888.547 37.0296 884.101 Q33.7688 879.605 33.7688 873.231 Q33.7688 864.931 39.3517 859.397 Q41.081 857.668 43.3043 856.828 Q45.5276 855.939 47.0098 855.84 Q48.4426 855.741 51.3082 855.741 L71.5155 855.741 Q72.1084 855.741 73.0965 855.544 Q74.0847 855.346 75.3692 854.457 Q76.6044 853.518 76.6044 851.986 Q76.6044 848.33 70.1321 848.38 L64.4504 848.38 L64.4504 845.81 L70.1321 845.81 Q75.5175 845.81 77.642 848.676 Q79.717 851.492 79.717 854.111 Q79.717 857.47 77.2467 859.595 Q74.7764 861.719 71.4167 862.016 Q75.2704 863.547 77.7902 867.055 Q80.2605 870.514 80.2605 875.257 Q80.2605 878.913 79.3218 882.371 Q78.4325 885.78 75.9127 888.646 Q73.3436 891.462 69.4898 891.462 M69.391 883.656 Q73.1459 883.656 75.5669 880.988 Q77.9878 878.32 77.9878 874.565 Q77.9878 870.316 74.727 866.512 Q71.4167 862.708 64.9444 862.708 L54.8161 862.708 Q55.2113 873.923 59.7073 878.814 Q64.1539 883.656 69.391 883.656 Z" fill="#000000" fill-rule="nonzero" fill-opacity="1"></path><path clip-path="url(#clip310)" d="M79.1242 842.303 L76.0115 842.303 Q76.0115 836.917 75.3692 835.682 Q74.6776 834.398 71.4167 834.398 L44.2924 834.398 Q40.5375 834.398 39.5988 835.731 Q38.6601 837.016 38.6601 842.303 L35.498 842.303 L34.4111 828.222 L45.5276 828.222 Q41.1798 826.789 37.8201 823.775 Q34.4111 820.712 34.4111 815.771 Q34.4111 812.51 36.2391 810.435 Q38.0672 808.311 40.5869 808.311 Q42.8102 808.311 43.9466 809.694 Q45.0335 811.028 45.0335 812.659 Q45.0335 814.487 43.8972 815.771 Q42.7114 817.006 40.6857 817.006 Q39.4506 817.006 38.5118 816.463 Q37.5237 815.87 37.1779 815.425 Q36.832 814.981 36.7332 814.684 Q36.6344 814.882 36.6344 815.771 Q36.6344 821.354 42.2173 824.566 Q47.7509 827.728 55.656 827.728 L71.2191 827.728 Q74.1341 827.728 75.0728 826.542 Q76.0115 825.307 76.0115 820.02 L76.0115 817.896 L79.1242 817.896 Q78.8277 821.947 78.8277 830.741 Q78.8277 831.977 78.8771 833.903 Q78.9265 835.83 79.0253 838.35 Q79.1242 840.87 79.1242 842.303 Z" fill="#000000" fill-rule="nonzero" fill-opacity="1"></path><path clip-path="url(#clip310)" d="M57.3852 802.135 Q47.7509 802.135 41.081 795.416 Q34.4111 788.696 34.4111 779.605 Q34.4111 771.898 40.6857 766.859 L18.7986 766.859 Q15.0436 766.859 14.1049 768.192 Q13.1662 769.477 13.1662 774.714 L10.0042 774.714 L8.91721 760.139 L70.3298 760.139 Q74.0847 760.139 75.0728 758.855 Q76.0115 757.521 76.0115 752.284 L79.1242 752.284 L80.2605 767.155 L73.5412 767.155 Q80.2111 772.392 80.2605 780.692 Q80.2605 789.388 73.5906 795.761 Q66.9207 802.135 57.3852 802.135 M57.484 793.736 Q66.8713 793.736 71.5155 790.821 Q77.9878 786.769 77.9878 780.198 Q77.9878 772.689 70.9226 768.242 Q69.1934 767.106 67.1677 767.155 L46.4169 767.155 Q44.3912 767.155 42.7114 768.242 Q36.6344 772.392 36.6344 779.161 Q36.6344 786.226 43.1067 790.623 Q47.9485 793.736 57.484 793.736 Z" fill="#000000" fill-rule="nonzero" fill-opacity="1"></path><path clip-path="url(#clip310)" d="M73.5906 705.94 Q66.8713 712.363 57.2864 712.363 Q47.6521 712.363 40.7351 706.039 Q33.7688 699.715 33.7688 690.426 Q33.7688 684.25 36.7332 679.606 Q39.6482 674.962 44.6383 674.962 Q46.8616 674.962 48.1461 676.296 Q49.3813 677.581 49.3813 679.606 Q49.3813 681.731 48.0967 683.015 Q46.7628 684.25 44.7371 684.25 Q43.8478 684.25 42.9584 683.954 Q42.0691 683.658 41.1304 682.571 Q40.1917 681.434 40.0434 679.507 Q36.3379 683.114 36.3379 690.13 Q36.3379 690.229 36.3379 690.328 Q36.3379 695.466 41.1798 699.715 Q46.0217 703.964 57.0888 703.964 Q62.8693 703.964 67.1183 702.58 Q71.3179 701.148 73.4918 698.825 Q75.6657 696.503 76.7032 694.231 Q77.6914 691.958 77.6914 689.735 Q77.6914 679.804 67.0689 676.444 Q66.0808 676.148 66.0808 675.16 Q66.0808 673.826 67.0689 673.826 Q67.563 673.826 68.8476 674.221 Q70.1321 674.616 72.1578 675.851 Q74.1835 677.087 75.9621 678.865 Q77.6914 680.594 78.9759 683.707 Q80.2605 686.77 80.2605 690.624 Q80.2605 699.517 73.5906 705.94 Z" fill="#000000" fill-rule="nonzero" fill-opacity="1"></path><path clip-path="url(#clip310)" d="M38.6601 667.65 L35.498 667.65 L34.4111 652.778 L68.0076 652.778 Q70.4286 652.778 71.8614 652.581 Q73.2448 652.383 74.8752 651.593 Q76.5056 650.753 77.2467 648.875 Q77.9878 646.948 77.9878 643.885 Q77.9878 638.401 73.4918 635.041 Q68.9958 631.632 62.3259 631.632 L44.2924 631.632 Q40.5375 631.632 39.5988 632.966 Q38.6601 634.3 38.6601 639.537 L35.498 639.537 L34.4111 624.666 L70.3298 624.666 Q74.0847 624.666 75.0728 623.381 Q76.0115 622.047 76.0115 616.761 L79.1242 616.761 L80.2605 631.336 L71.1203 631.336 Q80.2111 635.585 80.2605 644.379 Q80.2605 648.826 79.1242 651.889 Q77.9878 654.903 76.6044 656.434 Q75.1716 657.966 72.4543 658.806 Q69.7369 659.597 68.0571 659.695 Q66.3772 659.794 63.1164 659.794 L47.9485 659.794 Q41.081 659.794 39.8952 660.782 Q38.6601 661.77 38.6601 667.65 Z" fill="#000000" fill-rule="nonzero" fill-opacity="1"></path><path clip-path="url(#clip310)" d="M79.1242 611.968 L76.0115 611.968 Q76.0115 606.583 75.3692 605.348 Q74.6776 604.063 71.4167 604.063 L44.2924 604.063 Q40.5375 604.063 39.5988 605.397 Q38.6601 606.682 38.6601 611.968 L35.498 611.968 L34.4111 597.888 L45.5276 597.888 Q41.1798 596.455 37.8201 593.441 Q34.4111 590.378 34.4111 585.437 Q34.4111 582.176 36.2391 580.101 Q38.0672 577.977 40.5869 577.977 Q42.8102 577.977 43.9466 579.36 Q45.0335 580.694 45.0335 582.324 Q45.0335 584.152 43.8972 585.437 Q42.7114 586.672 40.6857 586.672 Q39.4506 586.672 38.5118 586.129 Q37.5237 585.536 37.1779 585.091 Q36.832 584.647 36.7332 584.35 Q36.6344 584.548 36.6344 585.437 Q36.6344 591.02 42.2173 594.231 Q47.7509 597.393 55.656 597.393 L71.2191 597.393 Q74.1341 597.393 75.0728 596.208 Q76.0115 594.973 76.0115 589.686 L76.0115 587.562 L79.1242 587.562 Q78.8277 591.613 78.8277 600.407 Q78.8277 601.642 78.8771 603.569 Q78.9265 605.496 79.0253 608.016 Q79.1242 610.536 79.1242 611.968 Z" fill="#000000" fill-rule="nonzero" fill-opacity="1"></path><path clip-path="url(#clip310)" d="M38.6601 573.332 L35.498 573.332 Q35.7945 568.787 35.7945 563.5 Q35.7945 561.574 35.498 552.483 L38.6601 552.483 Q38.6601 558.263 41.2786 558.263 Q41.6739 558.263 43.0078 557.67 L71.2191 546.307 L45.4288 535.981 Q43.6995 535.388 43.0078 535.388 Q41.2786 535.388 40.0434 536.574 Q38.7589 537.71 38.6601 540.23 L35.498 540.23 Q35.7945 535.092 35.7945 531.435 Q35.7945 527.285 35.498 523.876 L38.6601 523.876 Q38.6601 526.89 40.0434 529.015 Q41.3774 531.139 42.5632 531.831 Q43.6995 532.473 45.4288 533.165 L78.3336 546.406 Q80.2605 547.196 80.2605 548.53 Q80.2605 549.42 79.8653 549.815 Q79.5194 550.161 78.3336 550.655 L42.415 565.23 Q39.8952 566.218 39.3023 567.502 Q38.6601 568.787 38.6601 573.332 Z" fill="#000000" fill-rule="nonzero" fill-opacity="1"></path><path clip-path="url(#clip310)" d="M69.4898 520.517 Q60.8931 520.517 56.3477 510.388 Q53.4327 504.311 52.6916 491.762 L48.9861 491.762 Q42.7114 491.762 39.4012 495.072 Q36.0415 498.333 36.0415 502.483 Q36.0415 509.894 40.6857 513.451 Q40.7845 510.438 42.3162 509.351 Q43.7984 508.264 45.33 508.264 Q47.3556 508.264 48.6896 509.548 Q49.9742 510.783 49.9742 512.908 Q49.9742 514.934 48.739 516.268 Q47.4545 517.602 45.2311 517.602 Q40.2905 517.602 37.0296 513.155 Q33.7688 508.659 33.7688 502.286 Q33.7688 493.985 39.3517 488.452 Q41.081 486.722 43.3043 485.883 Q45.5276 484.993 47.0098 484.894 Q48.4426 484.796 51.3082 484.796 L71.5155 484.796 Q72.1084 484.796 73.0965 484.598 Q74.0847 484.4 75.3692 483.511 Q76.6044 482.572 76.6044 481.041 Q76.6044 477.385 70.1321 477.434 L64.4504 477.434 L64.4504 474.865 L70.1321 474.865 Q75.5175 474.865 77.642 477.73 Q79.717 480.547 79.717 483.165 Q79.717 486.525 77.2467 488.649 Q74.7764 490.774 71.4167 491.07 Q75.2704 492.602 77.7902 496.11 Q80.2605 499.568 80.2605 504.311 Q80.2605 507.967 79.3218 511.426 Q78.4325 514.835 75.9127 517.7 Q73.3436 520.517 69.4898 520.517 M69.391 512.71 Q73.1459 512.71 75.5669 510.042 Q77.9878 507.374 77.9878 503.62 Q77.9878 499.371 74.727 495.566 Q71.4167 491.762 64.9444 491.762 L54.8161 491.762 Q55.2113 502.977 59.7073 507.868 Q64.1539 512.71 69.391 512.71 Z" fill="#000000" fill-rule="nonzero" fill-opacity="1"></path><path clip-path="url(#clip310)" d="M38.6601 472.246 L36.4368 472.246 Q36.2391 467.602 32.9783 464.539 Q29.668 461.426 25.6167 460.389 Q21.5653 459.302 16.8717 459.203 L16.8717 456.683 L35.498 456.683 L35.498 442.207 L38.6601 442.207 L38.6601 456.683 L66.7725 456.683 Q77.6914 456.683 77.6914 449.865 Q77.6914 446.95 74.727 445.023 Q71.7131 443.096 66.3772 443.096 L60.7943 443.096 L60.7943 440.577 L66.5749 440.577 Q72.059 440.577 76.1598 443.096 Q80.2605 445.616 80.2605 450.606 Q80.2605 452.434 79.7664 454.262 Q79.3218 456.041 78.136 458.412 Q76.9009 460.734 73.9365 462.217 Q70.9226 463.649 66.5749 463.649 L38.6601 463.649 L38.6601 472.246 Z" fill="#000000" fill-rule="nonzero" fill-opacity="1"></path><path clip-path="url(#clip310)" d="M38.6601 431.683 L35.498 431.683 L34.4111 416.812 L68.0076 416.812 Q70.4286 416.812 71.8614 416.614 Q73.2448 416.417 74.8752 415.626 Q76.5056 414.786 77.2467 412.909 Q77.9878 410.982 77.9878 407.919 Q77.9878 402.435 73.4918 399.075 Q68.9958 395.666 62.3259 395.666 L44.2924 395.666 Q40.5375 395.666 39.5988 397 Q38.6601 398.334 38.6601 403.571 L35.498 403.571 L34.4111 388.699 L70.3298 388.699 Q74.0847 388.699 75.0728 387.415 Q76.0115 386.081 76.0115 380.794 L79.1242 380.794 L80.2605 395.369 L71.1203 395.369 Q80.2111 399.618 80.2605 408.413 Q80.2605 412.859 79.1242 415.923 Q77.9878 418.936 76.6044 420.468 Q75.1716 422 72.4543 422.84 Q69.7369 423.63 68.0571 423.729 Q66.3772 423.828 63.1164 423.828 L47.9485 423.828 Q41.081 423.828 39.8952 424.816 Q38.6601 425.804 38.6601 431.683 Z" fill="#000000" fill-rule="nonzero" fill-opacity="1"></path><path clip-path="url(#clip310)" d="M79.1242 376.002 L76.0115 376.002 Q76.0115 370.617 75.3692 369.381 Q74.6776 368.097 71.4167 368.097 L44.2924 368.097 Q40.5375 368.097 39.5988 369.431 Q38.6601 370.715 38.6601 376.002 L35.498 376.002 L34.4111 361.921 L45.5276 361.921 Q41.1798 360.488 37.8201 357.474 Q34.4111 354.411 34.4111 349.471 Q34.4111 346.21 36.2391 344.135 Q38.0672 342.01 40.5869 342.01 Q42.8102 342.01 43.9466 343.394 Q45.0335 344.728 45.0335 346.358 Q45.0335 348.186 43.8972 349.471 Q42.7114 350.706 40.6857 350.706 Q39.4506 350.706 38.5118 350.162 Q37.5237 349.569 37.1779 349.125 Q36.832 348.68 36.7332 348.384 Q36.6344 348.581 36.6344 349.471 Q36.6344 355.054 42.2173 358.265 Q47.7509 361.427 55.656 361.427 L71.2191 361.427 Q74.1341 361.427 75.0728 360.241 Q76.0115 359.006 76.0115 353.72 L76.0115 351.595 L79.1242 351.595 Q78.8277 355.646 78.8277 364.441 Q78.8277 365.676 78.8771 367.603 Q78.9265 369.53 79.0253 372.049 Q79.1242 374.569 79.1242 376.002 Z" fill="#000000" fill-rule="nonzero" fill-opacity="1"></path><path clip-path="url(#clip310)" d="M56.8417 336.477 Q47.3062 336.477 40.5375 330.35 Q33.7688 324.224 33.7688 315.429 Q33.7688 306.536 39.5494 301.941 Q45.33 297.297 53.6303 297.297 Q55.1619 297.297 55.4583 297.692 Q55.7548 298.088 55.7548 299.817 L55.7548 328.077 Q66.0808 328.077 70.9226 325.014 Q77.6914 320.765 77.6914 313.601 Q77.6914 312.613 77.4937 311.427 Q77.2961 310.242 76.4562 307.821 Q75.5669 305.4 73.2448 303.275 Q70.9226 301.151 67.2665 299.916 Q65.8338 299.619 65.8832 298.631 Q65.8832 297.297 67.0689 297.297 Q67.9582 297.297 69.9839 298.285 Q71.9602 299.224 74.3317 301.052 Q76.7032 302.88 78.4819 306.437 Q80.2605 309.945 80.2605 314.194 Q80.2605 323.087 73.5412 329.807 Q66.7725 336.477 56.8417 336.477 M53.6303 327.979 L53.6303 303.967 Q51.5058 303.967 49.1343 304.362 Q46.7628 304.708 43.5019 305.795 Q40.1917 306.833 38.1166 309.303 Q36.0415 311.773 36.0415 315.429 Q36.0415 317.06 36.7332 318.838 Q37.4249 320.568 39.1047 322.692 Q40.7845 324.817 44.5889 326.299 Q48.3932 327.781 53.6303 327.979 Z" fill="#000000" fill-rule="nonzero" fill-opacity="1"></path><polyline clip-path="url(#clip312)" style="stroke:#009af9; stroke-linecap:round; stroke-linejoin:round; stroke-width:4; stroke-opacity:1; fill:none" points="378.077,682.666 591.095,550.995 804.113,365.025 1017.13,811.563 1230.15,345.695 1443.17,829.623 1656.19,391.312 1869.2,377.211 2082.22,947.162 2295.24,1346.46 "></polyline>
<polyline clip-path="url(#clip312)" style="stroke:#e26f46; stroke-linecap:round; stroke-linejoin:round; stroke-width:4; stroke-opacity:1; fill:none" points="378.077,686.041 591.095,559.418 804.113,263.636 1017.13,637.525 1230.15,721.784 1443.17,639.618 1656.19,659.188 1869.2,581.228 2082.22,608.766 2295.24,641.352 "></polyline>
<polyline clip-path="url(#clip312)" style="stroke:#3da44d; stroke-linecap:round; stroke-linejoin:round; stroke-width:4; stroke-opacity:1; fill:none" points="378.077,684.636 591.095,648.051 804.113,125.321 1017.13,725.787 1230.15,269.671 1443.17,1106.25 1656.19,344.349 1869.2,704.941 2082.22,816.958 2295.24,894.28 "></polyline>
<polyline clip-path="url(#clip312)" style="stroke:#c271d2; stroke-linecap:round; stroke-linejoin:round; stroke-width:4; stroke-opacity:1; fill:none" points="378.077,972.353 591.095,702.974 804.113,196.642 1017.13,643.171 1230.15,623.541 1443.17,595.477 1656.19,724.497 1869.2,656.453 2082.22,624.627 2295.24,591.357 "></polyline>
<polyline clip-path="url(#clip312)" style="stroke:#ac8d18; stroke-linecap:round; stroke-linejoin:round; stroke-width:4; stroke-opacity:1; fill:none" points="378.077,698.653 591.095,670.512 804.113,85.0853 1017.13,664.88 1230.15,658.89 1443.17,669.439 1656.19,637.786 1869.2,665.299 2082.22,725.327 2295.24,782.792 "></polyline>
<polyline clip-path="url(#clip312)" style="stroke:#00a9ad; stroke-linecap:round; stroke-linejoin:round; stroke-width:4; stroke-opacity:1; fill:none" points="378.077,695.461 591.095,666.773 804.113,143.794 1017.13,610.411 1230.15,667.747 1443.17,641.12 1656.19,676.424 1869.2,615.79 2082.22,915.051 2295.24,1052.51 "></polyline>
<polyline clip-path="url(#clip312)" style="stroke:#ed5d92; stroke-linecap:round; stroke-linejoin:round; stroke-width:4; stroke-opacity:1; fill:none" points="378.077,694.157 591.095,663.429 804.113,184.37 1017.13,598.519 1230.15,672.997 1443.17,643.183 1656.19,703.44 1869.2,612.926 2082.22,781.913 2295.24,920.015 "></polyline>
<path clip-path="url(#clip310)" d="M388.302 1339.73 L2060.99 1339.73 L2060.99 918.531 L388.302 918.531  Z" fill="#ffffff" fill-rule="evenodd" fill-opacity="1"></path>
<polyline clip-path="url(#clip310)" style="stroke:#000000; stroke-linecap:round; stroke-linejoin:round; stroke-width:4; stroke-opacity:1; fill:none" points="388.302,1339.73 2060.99,1339.73 2060.99,918.531 388.302,918.531 388.302,1339.73 "></polyline>
<path clip-path="url(#clip310)" d="M1051.24 1018.29 Q1051.24 1017.36 1053.36 1017.36 L1068.02 1017.36 L1071.87 1003.23 L1053.12 1003.23 Q1051.24 1003.23 1051.24 1002.31 Q1051.24 1001.31 1053.69 1001.35 L1072.43 1001.35 L1079.1 977.02 Q1079.1 976.939 1079.26 976.297 Q1079.42 975.615 1079.54 975.414 Q1079.66 975.213 1079.82 974.772 Q1080.02 974.29 1080.26 974.129 Q1080.5 973.969 1080.74 973.969 Q1081.46 973.969 1081.46 974.932 Q1081.46 975.414 1080.98 977.421 L1074.4 1001.35 L1092.1 1001.35 L1098.73 977.02 Q1098.81 976.859 1098.93 976.297 Q1099.09 975.695 1099.17 975.414 Q1099.25 975.093 1099.41 974.731 Q1099.57 974.37 1099.81 974.169 Q1100.05 973.969 1100.29 973.969 Q1101.09 973.969 1101.13 974.932 Q1101.13 975.093 1100.57 977.421 L1093.99 1001.35 L1108.2 1001.35 Q1110.25 1001.35 1110.25 1002.31 Q1110.17 1003.23 1108.12 1003.23 L1093.39 1003.23 L1089.61 1017.36 L1108.28 1017.36 Q1110.25 1017.36 1110.25 1018.29 Q1110.25 1019.29 1108.28 1019.25 L1089.05 1019.25 L1082.31 1043.58 Q1082.31 1043.74 1082.15 1044.3 Q1081.99 1044.9 1081.91 1045.18 Q1081.83 1045.5 1081.58 1045.9 Q1081.38 1046.31 1081.18 1046.47 Q1080.98 1046.63 1080.74 1046.63 Q1080.02 1046.63 1080.02 1045.66 Q1080.02 1045.18 1080.5 1043.18 L1087.08 1019.25 L1069.38 1019.25 L1062.72 1043.58 Q1062.72 1043.74 1062.56 1044.3 Q1062.4 1044.9 1062.32 1045.18 Q1062.24 1045.5 1062.03 1045.9 Q1061.83 1046.31 1061.63 1046.47 Q1061.43 1046.63 1061.19 1046.63 Q1060.39 1046.63 1060.35 1045.66 Q1060.35 1045.5 1060.91 1043.18 L1067.49 1019.25 L1053.28 1019.25 Q1051.24 1019.29 1051.24 1018.29 M1069.98 1017.36 L1087.65 1017.36 L1091.5 1003.23 L1073.84 1003.23 L1069.98 1017.36 Z" fill="#000000" fill-rule="nonzero" fill-opacity="1"></path><path clip-path="url(#clip310)" d="M1145.05 997.974 L1145.05 995.405 L1151.51 995.405 L1151.51 985.971 Q1151.51 979.87 1155.45 976.377 Q1159.42 972.885 1164.28 972.885 Q1167.49 972.885 1169.58 974.611 Q1171.67 976.337 1171.67 978.665 Q1171.67 980.231 1170.7 981.275 Q1169.78 982.278 1168.05 982.278 Q1166.41 982.278 1165.44 981.235 Q1164.52 980.191 1164.52 978.746 Q1164.52 976.096 1166.97 975.293 Q1165.72 974.731 1164.28 974.691 Q1161.31 974.691 1158.98 977.742 Q1156.69 980.793 1156.69 985.891 L1156.69 995.405 L1166.33 995.405 L1166.33 997.974 L1156.97 997.974 L1156.97 1024.43 Q1156.97 1026.8 1157.94 1027.56 Q1158.94 1028.32 1163.2 1028.32 L1164.92 1028.32 L1164.92 1030.85 Q1161.63 1030.61 1154.48 1030.61 Q1153.48 1030.61 1151.91 1030.65 Q1150.39 1030.69 1148.3 1030.77 Q1146.25 1030.85 1145.13 1030.85 L1145.13 1028.32 Q1149.51 1028.32 1150.51 1027.8 Q1151.51 1027.24 1151.51 1024.59 L1151.51 997.974 L1145.05 997.974 Z" fill="#000000" fill-rule="nonzero" fill-opacity="1"></path><path clip-path="url(#clip310)" d="M1169.66 1012.75 Q1169.66 1005 1174.64 999.5 Q1179.61 994 1186.76 994 Q1193.98 994 1197.72 998.697 Q1201.49 1003.39 1201.49 1010.14 Q1201.49 1011.38 1201.17 1011.62 Q1200.85 1011.86 1199.44 1011.86 L1176.48 1011.86 Q1176.48 1020.25 1178.97 1024.19 Q1182.42 1029.69 1188.24 1029.69 Q1189.05 1029.69 1190.01 1029.53 Q1190.97 1029.37 1192.94 1028.68 Q1194.91 1027.96 1196.63 1026.07 Q1198.36 1024.19 1199.36 1021.22 Q1199.6 1020.05 1200.41 1020.09 Q1201.49 1020.09 1201.49 1021.06 Q1201.49 1021.78 1200.69 1023.42 Q1199.93 1025.03 1198.44 1026.96 Q1196.96 1028.88 1194.07 1030.33 Q1191.21 1031.77 1187.76 1031.77 Q1180.54 1031.77 1175.08 1026.32 Q1169.66 1020.82 1169.66 1012.75 M1176.56 1010.14 L1196.07 1010.14 Q1196.07 1008.41 1195.75 1006.48 Q1195.47 1004.56 1194.59 1001.91 Q1193.74 999.219 1191.74 997.533 Q1189.73 995.847 1186.76 995.847 Q1185.43 995.847 1183.99 996.409 Q1182.58 996.971 1180.86 998.336 Q1179.13 999.7 1177.93 1002.79 Q1176.72 1005.88 1176.56 1010.14 Z" fill="#000000" fill-rule="nonzero" fill-opacity="1"></path><path clip-path="url(#clip310)" d="M1207.31 1023.02 Q1207.31 1016.04 1215.54 1012.35 Q1220.48 1009.98 1230.68 1009.37 L1230.68 1006.36 Q1230.68 1001.27 1227.99 998.576 Q1225.34 995.847 1221.96 995.847 Q1215.94 995.847 1213.05 999.62 Q1215.5 999.7 1216.38 1000.94 Q1217.27 1002.15 1217.27 1003.39 Q1217.27 1005.04 1216.22 1006.12 Q1215.22 1007.17 1213.49 1007.17 Q1211.85 1007.17 1210.76 1006.16 Q1209.68 1005.12 1209.68 1003.31 Q1209.68 999.299 1213.29 996.65 Q1216.95 994 1222.13 994 Q1228.87 994 1233.37 998.536 Q1234.77 999.941 1235.45 1001.75 Q1236.18 1003.55 1236.26 1004.76 Q1236.34 1005.92 1236.34 1008.25 L1236.34 1024.67 Q1236.34 1025.15 1236.5 1025.95 Q1236.66 1026.76 1237.38 1027.8 Q1238.14 1028.8 1239.39 1028.8 Q1242.36 1028.8 1242.32 1023.55 L1242.32 1018.93 L1244.4 1018.93 L1244.4 1023.55 Q1244.4 1027.92 1242.08 1029.65 Q1239.79 1031.33 1237.66 1031.33 Q1234.93 1031.33 1233.2 1029.33 Q1231.48 1027.32 1231.24 1024.59 Q1229.99 1027.72 1227.14 1029.77 Q1224.33 1031.77 1220.48 1031.77 Q1217.51 1031.77 1214.7 1031.01 Q1211.93 1030.29 1209.6 1028.24 Q1207.31 1026.15 1207.31 1023.02 M1213.65 1022.94 Q1213.65 1025.99 1215.82 1027.96 Q1217.99 1029.93 1221.04 1029.93 Q1224.49 1029.93 1227.58 1027.28 Q1230.68 1024.59 1230.68 1019.33 L1230.68 1011.1 Q1221.56 1011.42 1217.59 1015.08 Q1213.65 1018.69 1213.65 1022.94 Z" fill="#000000" fill-rule="nonzero" fill-opacity="1"></path><path clip-path="url(#clip310)" d="M1246.53 997.974 L1246.53 996.168 Q1250.31 996.007 1252.79 993.358 Q1255.32 990.668 1256.17 987.376 Q1257.05 984.085 1257.13 980.271 L1259.18 980.271 L1259.18 995.405 L1270.94 995.405 L1270.94 997.974 L1259.18 997.974 L1259.18 1020.82 Q1259.18 1029.69 1264.72 1029.69 Q1267.09 1029.69 1268.65 1027.28 Q1270.22 1024.83 1270.22 1020.49 L1270.22 1015.96 L1272.26 1015.96 L1272.26 1020.66 Q1272.26 1025.11 1270.22 1028.44 Q1268.17 1031.77 1264.11 1031.77 Q1262.63 1031.77 1261.14 1031.37 Q1259.7 1031.01 1257.77 1030.05 Q1255.89 1029.04 1254.68 1026.64 Q1253.52 1024.19 1253.52 1020.66 L1253.52 997.974 L1246.53 997.974 Z" fill="#000000" fill-rule="nonzero" fill-opacity="1"></path><path clip-path="url(#clip310)" d="M1279.49 997.974 L1279.49 995.405 L1291.57 994.522 L1291.57 1021.82 Q1291.57 1023.79 1291.73 1024.95 Q1291.89 1026.07 1292.54 1027.4 Q1293.22 1028.72 1294.74 1029.33 Q1296.31 1029.93 1298.8 1029.93 Q1303.25 1029.93 1305.98 1026.28 Q1308.75 1022.62 1308.75 1017.2 L1308.75 1002.55 Q1308.75 999.5 1307.67 998.737 Q1306.59 997.974 1302.33 997.974 L1302.33 995.405 L1314.41 994.522 L1314.41 1023.71 Q1314.41 1026.76 1315.46 1027.56 Q1316.54 1028.32 1320.84 1028.32 L1320.84 1030.85 L1308.99 1031.77 L1308.99 1024.35 Q1305.54 1031.73 1298.4 1031.77 Q1294.78 1031.77 1292.29 1030.85 Q1289.85 1029.93 1288.6 1028.8 Q1287.36 1027.64 1286.67 1025.43 Q1286.03 1023.22 1285.95 1021.86 Q1285.87 1020.49 1285.87 1017.84 L1285.87 1005.52 Q1285.87 999.941 1285.07 998.978 Q1284.27 997.974 1279.49 997.974 Z" fill="#000000" fill-rule="nonzero" fill-opacity="1"></path><path clip-path="url(#clip310)" d="M1324.73 1030.85 L1324.73 1028.32 Q1329.11 1028.32 1330.11 1027.8 Q1331.15 1027.24 1331.15 1024.59 L1331.15 1002.55 Q1331.15 999.5 1330.07 998.737 Q1329.03 997.974 1324.73 997.974 L1324.73 995.405 L1336.17 994.522 L1336.17 1003.55 Q1337.34 1000.02 1339.78 997.292 Q1342.27 994.522 1346.29 994.522 Q1348.94 994.522 1350.62 996.007 Q1352.35 997.493 1352.35 999.54 Q1352.35 1001.35 1351.22 1002.27 Q1350.14 1003.15 1348.82 1003.15 Q1347.33 1003.15 1346.29 1002.23 Q1345.28 1001.27 1345.28 999.62 Q1345.28 998.617 1345.73 997.854 Q1346.21 997.051 1346.57 996.77 Q1346.93 996.489 1347.17 996.409 Q1347.01 996.328 1346.29 996.328 Q1341.75 996.328 1339.14 1000.86 Q1336.57 1005.36 1336.57 1011.78 L1336.57 1024.43 Q1336.57 1026.8 1337.54 1027.56 Q1338.54 1028.32 1342.83 1028.32 L1344.56 1028.32 L1344.56 1030.85 Q1341.27 1030.61 1334.12 1030.61 Q1333.12 1030.61 1331.55 1030.65 Q1329.99 1030.69 1327.94 1030.77 Q1325.89 1030.85 1324.73 1030.85 Z" fill="#000000" fill-rule="nonzero" fill-opacity="1"></path><path clip-path="url(#clip310)" d="M1356.84 1012.75 Q1356.84 1005 1361.82 999.5 Q1366.8 994 1373.95 994 Q1381.17 994 1384.9 998.697 Q1388.68 1003.39 1388.68 1010.14 Q1388.68 1011.38 1388.36 1011.62 Q1388.04 1011.86 1386.63 1011.86 L1363.67 1011.86 Q1363.67 1020.25 1366.16 1024.19 Q1369.61 1029.69 1375.43 1029.69 Q1376.23 1029.69 1377.2 1029.53 Q1378.16 1029.37 1380.13 1028.68 Q1382.09 1027.96 1383.82 1026.07 Q1385.55 1024.19 1386.55 1021.22 Q1386.79 1020.05 1387.59 1020.09 Q1388.68 1020.09 1388.68 1021.06 Q1388.68 1021.78 1387.88 1023.42 Q1387.11 1025.03 1385.63 1026.96 Q1384.14 1028.88 1381.25 1030.33 Q1378.4 1031.77 1374.95 1031.77 Q1367.72 1031.77 1362.26 1026.32 Q1356.84 1020.82 1356.84 1012.75 M1363.75 1010.14 L1383.26 1010.14 Q1383.26 1008.41 1382.94 1006.48 Q1382.66 1004.56 1381.77 1001.91 Q1380.93 999.219 1378.92 997.533 Q1376.92 995.847 1373.95 995.847 Q1372.62 995.847 1371.18 996.409 Q1369.77 996.971 1368.04 998.336 Q1366.32 999.7 1365.11 1002.79 Q1363.91 1005.88 1363.75 1010.14 Z" fill="#000000" fill-rule="nonzero" fill-opacity="1"></path><path clip-path="url(#clip310)" d="M1393.78 1029.77 L1393.78 1018.93 Q1393.78 1018.01 1393.82 1017.68 Q1393.86 1017.36 1394.1 1017.12 Q1394.34 1016.88 1394.82 1016.88 Q1395.38 1016.88 1395.58 1017.12 Q1395.82 1017.36 1395.98 1018.29 Q1397.23 1023.95 1399.88 1026.96 Q1402.57 1029.93 1407.42 1029.93 Q1412.04 1029.93 1414.37 1027.88 Q1416.7 1025.83 1416.7 1022.46 Q1416.7 1016.44 1408.15 1014.91 Q1403.21 1013.91 1401.16 1013.27 Q1399.12 1012.59 1397.31 1011.1 Q1393.78 1008.21 1393.78 1004.12 Q1393.78 1000.02 1396.87 997.011 Q1400 994 1406.9 994 Q1411.52 994 1414.65 996.328 Q1415.57 995.606 1416.06 995.004 Q1417.14 994 1417.7 994 Q1418.34 994 1418.46 994.442 Q1418.58 994.843 1418.58 996.007 L1418.58 1004.28 Q1418.58 1005.2 1418.54 1005.52 Q1418.5 1005.84 1418.26 1006.08 Q1418.02 1006.28 1417.5 1006.28 Q1416.58 1006.28 1416.54 1005.52 Q1415.9 995.566 1406.9 995.566 Q1402.05 995.566 1399.88 997.452 Q1397.71 999.299 1397.71 1001.83 Q1397.71 1003.23 1398.35 1004.32 Q1399.04 1005.36 1399.88 1006 Q1400.76 1006.6 1402.37 1007.21 Q1403.97 1007.77 1404.94 1007.97 Q1405.94 1008.17 1407.83 1008.57 Q1414.41 1009.82 1417.18 1012.51 Q1420.63 1015.96 1420.63 1020.33 Q1420.63 1025.19 1417.34 1028.48 Q1414.05 1031.77 1407.42 1031.77 Q1402.09 1031.77 1398.35 1028.2 Q1397.87 1028.68 1397.51 1029.13 Q1397.15 1029.53 1396.99 1029.69 Q1396.87 1029.85 1396.83 1029.97 Q1396.79 1030.05 1396.71 1030.13 Q1395.06 1031.77 1394.66 1031.77 Q1394.02 1031.77 1393.9 1031.33 Q1393.78 1030.93 1393.78 1029.77 Z" fill="#000000" fill-rule="nonzero" fill-opacity="1"></path><polyline clip-path="url(#clip310)" style="stroke:#009af9; stroke-linecap:round; stroke-linejoin:round; stroke-width:6.5; stroke-opacity:1; fill:none" points="410.882,1087.01 546.361,1087.01 "></polyline>
<path clip-path="url(#clip310)" d="M568.941 1068.16 L568.941 1065.6 Q578.816 1065.6 583.915 1060.34 Q585.32 1060.34 585.56 1060.66 Q585.801 1060.98 585.801 1062.46 L585.801 1108.59 Q585.801 1111.04 587.006 1111.8 Q588.21 1112.56 593.469 1112.56 L596.078 1112.56 L596.078 1115.09 Q593.188 1114.85 582.75 1114.85 Q572.313 1114.85 569.463 1115.09 L569.463 1112.56 L572.072 1112.56 Q577.251 1112.56 578.495 1111.84 Q579.74 1111.08 579.74 1108.59 L579.74 1066 Q575.444 1068.16 568.941 1068.16 Z" fill="#000000" fill-rule="nonzero" fill-opacity="1"></path><polyline clip-path="url(#clip310)" style="stroke:#e26f46; stroke-linecap:round; stroke-linejoin:round; stroke-width:6.5; stroke-opacity:1; fill:none" points="960.917,1087.01 1096.4,1087.01 "></polyline>
<path clip-path="url(#clip310)" d="M1118.98 1115.09 Q1118.98 1113.61 1119.1 1113.16 Q1119.26 1112.72 1119.9 1112.04 L1135.68 1094.46 Q1144.31 1084.74 1144.31 1076.27 Q1144.31 1070.77 1141.42 1066.84 Q1138.57 1062.91 1133.31 1062.91 Q1129.69 1062.91 1126.64 1065.11 Q1123.59 1067.32 1122.19 1071.26 Q1122.43 1071.17 1123.27 1071.17 Q1125.32 1071.17 1126.44 1072.46 Q1127.61 1073.74 1127.61 1075.47 Q1127.61 1077.68 1126.16 1078.76 Q1124.76 1079.81 1123.35 1079.81 Q1122.79 1079.81 1122.03 1079.69 Q1121.3 1079.56 1120.14 1078.44 Q1118.98 1077.28 1118.98 1075.23 Q1118.98 1069.49 1123.31 1064.91 Q1127.69 1060.34 1134.35 1060.34 Q1141.9 1060.34 1146.84 1064.83 Q1151.81 1069.29 1151.81 1076.27 Q1151.81 1078.72 1151.05 1080.97 Q1150.33 1083.18 1149.32 1084.9 Q1148.36 1086.63 1145.71 1089.4 Q1143.06 1092.17 1140.93 1094.14 Q1138.81 1096.1 1134.03 1100.28 L1125.32 1108.75 L1140.13 1108.75 Q1147.36 1108.75 1147.92 1108.11 Q1148.72 1106.94 1149.73 1100.8 L1151.81 1100.8 L1149.48 1115.09 L1118.98 1115.09 Z" fill="#000000" fill-rule="nonzero" fill-opacity="1"></path><polyline clip-path="url(#clip310)" style="stroke:#3da44d; stroke-linecap:round; stroke-linejoin:round; stroke-width:6.5; stroke-opacity:1; fill:none" points="1510.95,1087.01 1646.43,1087.01 "></polyline>
<path clip-path="url(#clip310)" d="M1669.01 1104.01 Q1669.01 1101.56 1670.42 1100.4 Q1671.82 1099.23 1673.63 1099.23 Q1675.51 1099.23 1676.84 1100.48 Q1678.2 1101.68 1678.2 1103.81 Q1678.2 1106.1 1676.6 1107.38 Q1675.03 1108.67 1672.78 1108.35 Q1674.75 1111.64 1678.36 1113.12 Q1682.02 1114.61 1685.39 1114.61 Q1688.92 1114.61 1691.77 1111.56 Q1694.66 1108.51 1694.66 1101.04 Q1694.66 1094.7 1692.17 1091.05 Q1689.72 1087.39 1684.87 1087.39 L1681.25 1087.39 Q1680.01 1087.39 1679.65 1087.27 Q1679.29 1087.15 1679.29 1086.47 Q1679.29 1085.67 1680.53 1085.51 Q1681.78 1085.51 1683.74 1085.27 Q1688.52 1085.1 1691.05 1080.97 Q1693.34 1077.12 1693.34 1071.62 Q1693.34 1066.6 1690.93 1064.51 Q1688.56 1062.38 1685.47 1062.38 Q1682.58 1062.38 1679.41 1063.59 Q1676.24 1064.79 1674.51 1067.48 Q1679.61 1067.48 1679.61 1071.62 Q1679.61 1073.42 1678.44 1074.63 Q1677.32 1075.79 1675.43 1075.79 Q1673.63 1075.79 1672.42 1074.67 Q1671.22 1073.5 1671.22 1071.54 Q1671.22 1066.84 1675.39 1063.59 Q1679.61 1060.34 1685.79 1060.34 Q1691.89 1060.34 1696.39 1063.55 Q1700.92 1066.76 1700.92 1071.7 Q1700.92 1076.55 1697.71 1080.53 Q1694.5 1084.5 1689.4 1086.15 Q1695.67 1087.39 1699.4 1091.65 Q1703.13 1095.86 1703.13 1101.04 Q1703.13 1107.46 1698.07 1112.2 Q1693.02 1116.9 1685.63 1116.9 Q1678.81 1116.9 1673.91 1113.2 Q1669.01 1109.51 1669.01 1104.01 Z" fill="#000000" fill-rule="nonzero" fill-opacity="1"></path><polyline clip-path="url(#clip310)" style="stroke:#c271d2; stroke-linecap:round; stroke-linejoin:round; stroke-width:6.5; stroke-opacity:1; fill:none" points="410.882,1171.25 546.361,1171.25 "></polyline>
<path clip-path="url(#clip310)" d="M568.941 1185.76 L568.941 1183.23 L594.191 1144.66 Q594.833 1143.65 595.837 1143.69 Q596.76 1143.69 596.961 1144.05 Q597.162 1144.42 597.162 1145.82 L597.162 1183.23 L605.391 1183.23 L605.391 1185.76 L597.162 1185.76 L597.162 1192.91 Q597.162 1195.28 598.125 1196.04 Q599.129 1196.8 603.384 1196.8 L605.11 1196.8 L605.11 1199.33 Q601.738 1199.09 593.95 1199.09 Q586.203 1199.09 582.831 1199.33 L582.831 1196.8 L584.557 1196.8 Q588.812 1196.8 589.816 1196.08 Q590.819 1195.32 590.819 1192.91 L590.819 1185.76 L568.941 1185.76 M571.27 1183.23 L591.301 1183.23 L591.301 1152.56 L571.27 1183.23 Z" fill="#000000" fill-rule="nonzero" fill-opacity="1"></path><polyline clip-path="url(#clip310)" style="stroke:#ac8d18; stroke-linecap:round; stroke-linejoin:round; stroke-width:6.5; stroke-opacity:1; fill:none" points="960.917,1171.25 1096.4,1171.25 "></polyline>
<path clip-path="url(#clip310)" d="M1118.98 1186.08 Q1118.98 1183.64 1120.3 1182.71 Q1121.63 1181.75 1123.03 1181.75 Q1124.92 1181.75 1126 1182.95 Q1127.13 1184.12 1127.13 1185.76 Q1127.13 1187.41 1126 1188.61 Q1124.92 1189.78 1123.03 1189.78 Q1122.11 1189.78 1121.63 1189.62 Q1122.71 1193.39 1126 1196.12 Q1129.33 1198.85 1133.71 1198.85 Q1139.21 1198.85 1142.5 1193.51 Q1144.47 1190.06 1144.47 1182.23 Q1144.47 1175.33 1142.98 1171.87 Q1140.69 1166.61 1136 1166.61 Q1129.33 1166.61 1125.4 1172.36 Q1124.92 1173.08 1124.36 1173.12 Q1123.55 1173.12 1123.35 1172.68 Q1123.19 1172.19 1123.19 1170.95 L1123.19 1146.62 Q1123.19 1144.66 1123.99 1144.66 Q1124.32 1144.66 1125 1144.9 Q1130.18 1147.19 1135.92 1147.23 Q1141.82 1147.23 1147.12 1144.82 Q1147.52 1144.58 1147.76 1144.58 Q1148.56 1144.58 1148.6 1145.5 Q1148.6 1145.82 1147.92 1146.78 Q1147.28 1147.71 1145.87 1148.95 Q1144.47 1150.16 1142.66 1151.32 Q1140.85 1152.48 1138.2 1153.29 Q1135.6 1154.05 1132.71 1154.05 Q1129.25 1154.05 1125.72 1152.97 L1125.72 1168.98 Q1129.98 1164.81 1136.16 1164.81 Q1142.74 1164.81 1147.28 1170.11 Q1151.81 1175.41 1151.81 1182.79 Q1151.81 1190.54 1146.43 1195.84 Q1141.1 1201.14 1133.87 1201.14 Q1127.29 1201.14 1123.11 1196.44 Q1118.98 1191.74 1118.98 1186.08 Z" fill="#000000" fill-rule="nonzero" fill-opacity="1"></path><polyline clip-path="url(#clip310)" style="stroke:#00a9ad; stroke-linecap:round; stroke-linejoin:round; stroke-width:6.5; stroke-opacity:1; fill:none" points="1510.95,1171.25 1646.43,1171.25 "></polyline>
<path clip-path="url(#clip310)" d="M1669.01 1173.36 Q1669.01 1160.43 1675.59 1152.52 Q1682.18 1144.58 1690.65 1144.58 Q1695.59 1144.58 1698.32 1147.11 Q1701.09 1149.59 1701.09 1153.45 Q1701.09 1155.58 1699.84 1156.5 Q1698.6 1157.42 1697.31 1157.42 Q1695.83 1157.42 1694.66 1156.42 Q1693.5 1155.41 1693.5 1153.61 Q1693.5 1149.92 1698.03 1149.92 Q1695.91 1146.62 1690.81 1146.62 Q1689.24 1146.62 1687.64 1147.11 Q1686.03 1147.55 1683.94 1149.07 Q1681.86 1150.6 1680.25 1153.01 Q1678.65 1155.41 1677.52 1159.95 Q1676.4 1164.49 1676.4 1170.39 L1676.4 1172.36 Q1679.77 1164.21 1686.67 1164.25 Q1693.58 1164.25 1698.36 1169.51 Q1703.13 1174.76 1703.13 1182.55 Q1703.13 1190.54 1698.16 1195.84 Q1693.18 1201.14 1686.19 1201.14 Q1683.06 1201.14 1680.21 1199.81 Q1677.4 1198.53 1674.75 1195.56 Q1672.14 1192.59 1670.58 1186.89 Q1669.01 1181.19 1669.01 1173.36 M1676.56 1180.75 Q1676.56 1188.81 1678.04 1192.67 Q1678.28 1193.31 1678.81 1194.19 Q1679.37 1195.08 1680.29 1196.24 Q1681.25 1197.36 1682.82 1198.13 Q1684.39 1198.85 1686.19 1198.85 Q1691.69 1198.85 1694.34 1193.51 Q1695.75 1190.54 1695.75 1182.47 Q1695.75 1174.24 1694.26 1171.23 Q1691.73 1166.13 1686.59 1166.13 Q1683.14 1166.13 1680.73 1168.5 Q1678.36 1170.87 1677.44 1174.04 Q1676.56 1177.21 1676.56 1180.75 Z" fill="#000000" fill-rule="nonzero" fill-opacity="1"></path><polyline clip-path="url(#clip310)" style="stroke:#ed5d92; stroke-linecap:round; stroke-linejoin:round; stroke-width:6.5; stroke-opacity:1; fill:none" points="410.882,1255.49 546.361,1255.49 "></polyline>
<path clip-path="url(#clip310)" d="M568.941 1244.91 L571.631 1228.01 L573.678 1228.01 Q573.919 1229.02 574.32 1229.46 Q574.762 1229.9 577.09 1230.26 Q579.459 1230.62 584.236 1230.62 L604.187 1230.62 Q604.187 1232.51 603.464 1233.51 L592.345 1249.13 Q588.812 1254.07 587.246 1263.18 Q586.323 1269.28 586.363 1276.67 L586.363 1280.84 Q586.363 1285.38 582.55 1285.38 Q578.776 1285.38 578.776 1280.84 Q578.776 1265.15 588.892 1249.93 Q589.976 1248.37 593.95 1242.79 Q597.965 1237.21 598.125 1236.97 L581.105 1236.97 Q573.638 1236.97 573.036 1237.45 Q572.233 1238.17 570.989 1244.91 L568.941 1244.91 Z" fill="#000000" fill-rule="nonzero" fill-opacity="1"></path></svg>