<svg xmlns="http://www.w3.org/2000/svg" xmlns:xlink="http://www.w3.org/1999/xlink" width="600" height="400" viewBox="0 0 2400 1600">
<defs>
  <clipPath id="clip350">
    <rect x="0" y="0" width="2400" height="1600"></rect>
  </clipPath>
</defs>
<path clip-path="url(#clip350)" d="M0 1600 L2400 1600 L2400 0 L0 0  Z" fill="#ffffff" fill-rule="evenodd" fill-opacity="1"></path>
<defs>
  <clipPath id="clip351">
    <rect x="480" y="0" width="1681" height="1600"></rect>
  </clipPath>
</defs>
<path clip-path="url(#clip350)" d="M263.683 1384.3 L2352.76 1384.3 L2352.76 47.2441 L263.683 47.2441  Z" fill="#ffffff" fill-rule="evenodd" fill-opacity="1"></path>
<defs>
  <clipPath id="clip352">
    <rect x="263" y="47" width="2090" height="1338"></rect>
  </clipPath>
</defs>
<polyline clip-path="url(#clip352)" style="stroke:#000000; stroke-linecap:round; stroke-linejoin:round; stroke-width:2; stroke-opacity:0.1; fill:none" points="541.788,1384.3 541.788,47.2441 "></polyline>
<polyline clip-path="url(#clip352)" style="stroke:#000000; stroke-linecap:round; stroke-linejoin:round; stroke-width:2; stroke-opacity:0.1; fill:none" points="979.749,1384.3 979.749,47.2441 "></polyline>
<polyline clip-path="url(#clip352)" style="stroke:#000000; stroke-linecap:round; stroke-linejoin:round; stroke-width:2; stroke-opacity:0.1; fill:none" points="1417.71,1384.3 1417.71,47.2441 "></polyline>
<polyline clip-path="url(#clip352)" style="stroke:#000000; stroke-linecap:round; stroke-linejoin:round; stroke-width:2; stroke-opacity:0.1; fill:none" points="1855.67,1384.3 1855.67,47.2441 "></polyline>
<polyline clip-path="url(#clip352)" style="stroke:#000000; stroke-linecap:round; stroke-linejoin:round; stroke-width:2; stroke-opacity:0.1; fill:none" points="2293.63,1384.3 2293.63,47.2441 "></polyline>
<polyline clip-path="url(#clip350)" style="stroke:#000000; stroke-linecap:round; stroke-linejoin:round; stroke-width:4; stroke-opacity:1; fill:none" points="263.683,1384.3 2352.76,1384.3 "></polyline>
<polyline clip-path="url(#clip350)" style="stroke:#000000; stroke-linecap:round; stroke-linejoin:round; stroke-width:4; stroke-opacity:1; fill:none" points="541.788,1384.3 541.788,1365.4 "></polyline>
<polyline clip-path="url(#clip350)" style="stroke:#000000; stroke-linecap:round; stroke-linejoin:round; stroke-width:4; stroke-opacity:1; fill:none" points="979.749,1384.3 979.749,1365.4 "></polyline>
<polyline clip-path="url(#clip350)" style="stroke:#000000; stroke-linecap:round; stroke-linejoin:round; stroke-width:4; stroke-opacity:1; fill:none" points="1417.71,1384.3 1417.71,1365.4 "></polyline>
<polyline clip-path="url(#clip350)" style="stroke:#000000; stroke-linecap:round; stroke-linejoin:round; stroke-width:4; stroke-opacity:1; fill:none" points="1855.67,1384.3 1855.67,1365.4 "></polyline>
<polyline clip-path="url(#clip350)" style="stroke:#000000; stroke-linecap:round; stroke-linejoin:round; stroke-width:4; stroke-opacity:1; fill:none" points="2293.63,1384.3 2293.63,1365.4 "></polyline>
<path clip-path="url(#clip350)" d="M526.632 1468.3 Q526.632 1466.93 526.743 1466.52 Q526.892 1466.11 527.484 1465.48 L542.047 1449.25 Q550.014 1440.29 550.014 1432.47 Q550.014 1427.39 547.346 1423.76 Q544.715 1420.13 539.861 1420.13 Q536.526 1420.13 533.71 1422.17 Q530.894 1424.2 529.597 1427.84 Q529.819 1427.76 530.597 1427.76 Q532.487 1427.76 533.524 1428.95 Q534.599 1430.13 534.599 1431.73 Q534.599 1433.76 533.265 1434.77 Q531.968 1435.73 530.671 1435.73 Q530.152 1435.73 529.448 1435.62 Q528.781 1435.51 527.707 1434.47 Q526.632 1433.39 526.632 1431.5 Q526.632 1426.21 530.634 1421.98 Q534.673 1417.76 540.824 1417.76 Q547.791 1417.76 552.348 1421.91 Q556.943 1426.02 556.943 1432.47 Q556.943 1434.73 556.239 1436.8 Q555.572 1438.84 554.646 1440.43 Q553.756 1442.03 551.311 1444.58 Q548.865 1447.14 546.901 1448.96 Q544.937 1450.77 540.528 1454.63 L532.487 1462.45 L546.16 1462.45 Q552.83 1462.45 553.349 1461.85 Q554.09 1460.78 555.016 1455.11 L556.943 1455.11 L554.794 1468.3 L526.632 1468.3 Z" fill="#000000" fill-rule="nonzero" fill-opacity="1"></path><path clip-path="url(#clip350)" d="M962.926 1455.78 L962.926 1453.44 L986.233 1417.83 Q986.826 1416.9 987.752 1416.94 Q988.605 1416.94 988.79 1417.28 Q988.975 1417.61 988.975 1418.91 L988.975 1453.44 L996.572 1453.44 L996.572 1455.78 L988.975 1455.78 L988.975 1462.37 Q988.975 1464.56 989.865 1465.26 Q990.791 1465.97 994.719 1465.97 L996.312 1465.97 L996.312 1468.3 Q993.2 1468.08 986.011 1468.08 Q978.859 1468.08 975.747 1468.3 L975.747 1465.97 L977.34 1465.97 Q981.268 1465.97 982.194 1465.3 Q983.121 1464.59 983.121 1462.37 L983.121 1455.78 L962.926 1455.78 M965.075 1453.44 L983.565 1453.44 L983.565 1425.13 L965.075 1453.44 Z" fill="#000000" fill-rule="nonzero" fill-opacity="1"></path><path clip-path="url(#clip350)" d="M1401.96 1444.33 Q1401.96 1432.39 1408.04 1425.09 Q1414.12 1417.76 1421.93 1417.76 Q1426.49 1417.76 1429.01 1420.09 Q1431.57 1422.39 1431.57 1425.95 Q1431.57 1427.91 1430.42 1428.76 Q1429.27 1429.61 1428.08 1429.61 Q1426.71 1429.61 1425.64 1428.69 Q1424.56 1427.76 1424.56 1426.09 Q1424.56 1422.69 1428.75 1422.69 Q1426.79 1419.65 1422.08 1419.65 Q1420.64 1419.65 1419.15 1420.09 Q1417.67 1420.5 1415.75 1421.91 Q1413.82 1423.32 1412.34 1425.54 Q1410.85 1427.76 1409.82 1431.95 Q1408.78 1436.14 1408.78 1441.58 L1408.78 1443.4 Q1411.89 1435.88 1418.27 1435.91 Q1424.64 1435.91 1429.05 1440.77 Q1433.46 1445.62 1433.46 1452.81 Q1433.46 1460.18 1428.86 1465.08 Q1424.27 1469.97 1417.82 1469.97 Q1414.93 1469.97 1412.3 1468.74 Q1409.71 1467.56 1407.26 1464.82 Q1404.85 1462.07 1403.41 1456.81 Q1401.96 1451.55 1401.96 1444.33 M1408.93 1451.14 Q1408.93 1458.59 1410.3 1462.15 Q1410.52 1462.74 1411 1463.56 Q1411.52 1464.37 1412.37 1465.45 Q1413.26 1466.48 1414.71 1467.19 Q1416.15 1467.86 1417.82 1467.86 Q1422.9 1467.86 1425.34 1462.93 Q1426.64 1460.18 1426.64 1452.74 Q1426.64 1445.14 1425.27 1442.36 Q1422.93 1437.66 1418.19 1437.66 Q1415 1437.66 1412.78 1439.84 Q1410.59 1442.03 1409.74 1444.96 Q1408.93 1447.88 1408.93 1451.14 Z" fill="#000000" fill-rule="nonzero" fill-opacity="1"></path><path clip-path="url(#clip350)" d="M1839.92 1456.85 Q1839.92 1448.36 1850.85 1442.88 Q1846.15 1439.69 1845.29 1438.77 Q1841.96 1435.06 1841.96 1430.43 Q1841.96 1425.13 1845.96 1421.46 Q1850 1417.76 1855.71 1417.76 Q1861.15 1417.76 1865.27 1420.91 Q1869.38 1424.06 1869.38 1429.06 Q1869.38 1436.1 1860.19 1440.84 Q1866.27 1444.62 1867.71 1446.22 Q1871.42 1450.33 1871.42 1455.55 Q1871.42 1461.63 1866.75 1465.82 Q1862.08 1469.97 1855.63 1469.97 Q1849.33 1469.97 1844.63 1466.3 Q1839.92 1462.63 1839.92 1456.85 M1843.7 1456.85 Q1843.7 1461.56 1847.22 1464.71 Q1850.78 1467.86 1855.71 1467.86 Q1860.49 1467.86 1864.04 1465.11 Q1867.64 1462.37 1867.64 1458.29 Q1867.64 1456.7 1867.08 1455.33 Q1866.56 1453.96 1865.49 1452.88 Q1864.45 1451.77 1863.79 1451.29 Q1863.16 1450.77 1861.93 1449.92 L1852.59 1444.03 Q1843.7 1448.96 1843.7 1456.85 M1845.29 1427.47 Q1845.29 1431.1 1849.11 1433.62 L1858.52 1439.69 Q1866.05 1435.28 1866.05 1429.06 Q1866.05 1425.02 1862.97 1422.35 Q1859.89 1419.65 1855.63 1419.65 Q1851.45 1419.65 1848.37 1421.87 Q1845.29 1424.06 1845.29 1427.47 Z" fill="#000000" fill-rule="nonzero" fill-opacity="1"></path><path clip-path="url(#clip350)" d="M2260.58 1424.98 L2260.58 1422.61 Q2269.69 1422.61 2274.4 1417.76 Q2275.7 1417.76 2275.92 1418.05 Q2276.14 1418.35 2276.14 1419.72 L2276.14 1462.3 Q2276.14 1464.56 2277.25 1465.26 Q2278.36 1465.97 2283.22 1465.97 L2285.63 1465.97 L2285.63 1468.3 Q2282.96 1468.08 2273.33 1468.08 Q2263.69 1468.08 2261.06 1468.3 L2261.06 1465.97 L2263.47 1465.97 Q2268.25 1465.97 2269.4 1465.3 Q2270.55 1464.59 2270.55 1462.3 L2270.55 1422.98 Q2266.58 1424.98 2260.58 1424.98 Z" fill="#000000" fill-rule="nonzero" fill-opacity="1"></path><path clip-path="url(#clip350)" d="M2294.74 1444.03 Q2294.74 1432.88 2297.56 1426.8 Q2301.49 1417.76 2310.75 1417.76 Q2312.71 1417.76 2314.75 1418.31 Q2316.83 1418.83 2319.42 1420.87 Q2322.05 1422.91 2323.65 1426.24 Q2326.68 1432.69 2326.68 1444.03 Q2326.68 1455.11 2323.87 1461.15 Q2319.75 1469.97 2310.68 1469.97 Q2307.27 1469.97 2303.78 1468.23 Q2300.34 1466.48 2298.15 1462.3 Q2294.74 1456.03 2294.74 1444.03 M2301.04 1443.1 Q2301.04 1454.55 2301.86 1459.11 Q2302.78 1464.04 2305.3 1466.19 Q2307.86 1468.3 2310.68 1468.3 Q2313.72 1468.3 2316.23 1466.04 Q2318.79 1463.74 2319.57 1458.81 Q2320.42 1453.96 2320.38 1443.1 Q2320.38 1432.54 2319.64 1428.32 Q2318.64 1423.39 2315.98 1421.43 Q2313.34 1419.42 2310.68 1419.42 Q2309.68 1419.42 2308.6 1419.72 Q2307.56 1420.02 2306.04 1420.87 Q2304.53 1421.72 2303.34 1423.83 Q2302.19 1425.95 2301.64 1429.13 Q2301.04 1433.25 2301.04 1443.1 Z" fill="#000000" fill-rule="nonzero" fill-opacity="1"></path><path clip-path="url(#clip350)" d="M1210.64 1581 L1210.64 1577.89 Q1216.03 1577.89 1217.26 1577.25 Q1218.55 1576.56 1218.55 1573.3 L1218.55 1546.17 Q1218.55 1542.42 1217.21 1541.48 Q1215.93 1540.54 1210.64 1540.54 L1210.64 1537.38 L1224.72 1536.29 L1224.72 1547.41 Q1226.15 1543.06 1229.17 1539.7 Q1232.23 1536.29 1237.17 1536.29 Q1240.43 1536.29 1242.51 1538.12 Q1244.63 1539.95 1244.63 1542.47 Q1244.63 1544.69 1243.25 1545.83 Q1241.92 1546.91 1240.28 1546.91 Q1238.46 1546.91 1237.17 1545.78 Q1235.94 1544.59 1235.94 1542.57 Q1235.94 1541.33 1236.48 1540.39 Q1237.07 1539.4 1237.52 1539.06 Q1237.96 1538.71 1238.26 1538.61 Q1238.06 1538.51 1237.17 1538.51 Q1231.59 1538.51 1228.38 1544.1 Q1225.22 1549.63 1225.22 1557.54 L1225.22 1573.1 Q1225.22 1576.01 1226.4 1576.95 Q1227.64 1577.89 1232.92 1577.89 L1235.05 1577.89 L1235.05 1581 Q1231 1580.71 1222.2 1580.71 Q1220.97 1580.71 1219.04 1580.76 Q1217.11 1580.81 1214.59 1580.91 Q1212.07 1581 1210.64 1581 Z" fill="#000000" fill-rule="nonzero" fill-opacity="1"></path><path clip-path="url(#clip350)" d="M1251.6 1571.37 Q1251.6 1562.77 1261.73 1558.23 Q1267.8 1555.31 1280.35 1554.57 L1280.35 1550.87 Q1280.35 1544.59 1277.04 1541.28 Q1273.78 1537.92 1269.63 1537.92 Q1262.22 1537.92 1258.66 1542.57 Q1261.68 1542.66 1262.77 1544.2 Q1263.85 1545.68 1263.85 1547.21 Q1263.85 1549.24 1262.57 1550.57 Q1261.33 1551.85 1259.21 1551.85 Q1257.18 1551.85 1255.85 1550.62 Q1254.51 1549.33 1254.51 1547.11 Q1254.51 1542.17 1258.96 1538.91 Q1263.46 1535.65 1269.83 1535.65 Q1278.13 1535.65 1283.66 1541.23 Q1285.39 1542.96 1286.23 1545.18 Q1287.12 1547.41 1287.22 1548.89 Q1287.32 1550.32 1287.32 1553.19 L1287.32 1573.4 Q1287.32 1573.99 1287.52 1574.98 Q1287.72 1575.96 1288.6 1577.25 Q1289.54 1578.48 1291.08 1578.48 Q1294.73 1578.48 1294.68 1572.01 L1294.68 1566.33 L1297.25 1566.33 L1297.25 1572.01 Q1297.25 1577.4 1294.39 1579.52 Q1291.57 1581.6 1288.95 1581.6 Q1285.59 1581.6 1283.47 1579.13 Q1281.34 1576.66 1281.05 1573.3 Q1279.51 1577.15 1276.01 1579.67 Q1272.55 1582.14 1267.8 1582.14 Q1264.15 1582.14 1260.69 1581.2 Q1257.28 1580.31 1254.42 1577.79 Q1251.6 1575.22 1251.6 1571.37 M1259.41 1571.27 Q1259.41 1575.03 1262.07 1577.45 Q1264.74 1579.87 1268.5 1579.87 Q1272.75 1579.87 1276.55 1576.61 Q1280.35 1573.3 1280.35 1566.82 L1280.35 1556.7 Q1269.14 1557.09 1264.25 1561.59 Q1259.41 1566.03 1259.41 1571.27 Z" fill="#000000" fill-rule="nonzero" fill-opacity="1"></path><path clip-path="url(#clip350)" d="M1301.2 1581 L1301.2 1577.89 Q1306.59 1577.89 1307.82 1577.25 Q1309.06 1576.56 1309.06 1573.3 L1309.06 1546.17 Q1309.06 1542.42 1307.73 1541.48 Q1306.44 1540.54 1301.2 1540.54 L1301.2 1537.38 L1315.43 1536.29 L1315.43 1546.91 Q1320.18 1536.29 1330.4 1536.29 Q1338.01 1536.29 1341.03 1540.05 Q1343.25 1542.57 1343.69 1545.38 Q1344.19 1548.2 1344.19 1555.51 L1344.19 1574.83 Q1344.29 1576.95 1345.92 1577.45 Q1347.55 1577.89 1352.09 1577.89 L1352.09 1581 Q1341.77 1580.71 1340.73 1580.71 Q1339.94 1580.71 1329.32 1581 L1329.32 1577.89 Q1334.7 1577.89 1335.94 1577.25 Q1337.22 1576.56 1337.22 1573.3 L1337.22 1549.73 Q1337.22 1544.59 1335.64 1541.58 Q1334.06 1538.51 1329.71 1538.51 Q1324.47 1538.51 1320.27 1542.91 Q1316.07 1547.31 1316.07 1554.72 L1316.07 1573.3 Q1316.07 1576.56 1317.31 1577.25 Q1318.59 1577.89 1323.93 1577.89 L1323.93 1581 Q1313.6 1580.71 1312.62 1580.71 Q1311.83 1580.71 1301.2 1581 Z" fill="#000000" fill-rule="nonzero" fill-opacity="1"></path><path clip-path="url(#clip350)" d="M1356.88 1581 L1356.88 1577.89 Q1362.27 1577.89 1363.51 1577.25 Q1364.79 1576.56 1364.79 1573.3 L1364.79 1520.68 Q1364.79 1516.92 1363.46 1515.98 Q1362.17 1515.05 1356.88 1515.05 L1356.88 1511.88 L1371.46 1510.8 L1371.46 1559.36 L1385.74 1547.01 Q1387.96 1545.09 1387.96 1543.06 Q1387.96 1540.74 1385.05 1540.54 L1385.05 1537.38 Q1389.3 1537.67 1396.36 1537.67 Q1400.51 1537.67 1403.43 1537.38 L1403.43 1540.54 Q1397.05 1540.84 1390.68 1545.97 Q1389.25 1547.11 1385.84 1550.08 Q1382.48 1552.99 1382.48 1553.29 Q1382.48 1553.39 1382.58 1553.63 Q1382.72 1553.88 1382.92 1554.08 Q1383.12 1554.27 1383.12 1554.37 L1395.97 1572.51 Q1398.58 1576.16 1400.51 1577.05 Q1402.44 1577.89 1405.8 1577.89 L1405.8 1581 Q1401.45 1580.71 1396.95 1580.71 Q1394.53 1580.71 1386.03 1581 L1386.03 1577.89 Q1389.69 1577.89 1389.69 1575.52 Q1389.69 1573.89 1381.49 1562.58 Q1380.9 1561.78 1379.56 1560.06 Q1378.33 1558.23 1377.64 1557.34 L1371.16 1562.87 L1371.16 1573.3 Q1371.16 1576.56 1372.4 1577.25 Q1373.68 1577.89 1379.07 1577.89 L1379.07 1581 Q1372.99 1580.71 1367.95 1580.71 Q1366.91 1580.71 1356.88 1581 Z" fill="#000000" fill-rule="nonzero" fill-opacity="1"></path><polyline clip-path="url(#clip352)" style="stroke:#000000; stroke-linecap:round; stroke-linejoin:round; stroke-width:2; stroke-opacity:0.1; fill:none" points="263.683,1371.25 2352.76,1371.25 "></polyline>
<polyline clip-path="url(#clip352)" style="stroke:#000000; stroke-linecap:round; stroke-linejoin:round; stroke-width:2; stroke-opacity:0.1; fill:none" points="263.683,1043.1 2352.76,1043.1 "></polyline>
<polyline clip-path="url(#clip352)" style="stroke:#000000; stroke-linecap:round; stroke-linejoin:round; stroke-width:2; stroke-opacity:0.1; fill:none" points="263.683,714.941 2352.76,714.941 "></polyline>
<polyline clip-path="url(#clip352)" style="stroke:#000000; stroke-linecap:round; stroke-linejoin:round; stroke-width:2; stroke-opacity:0.1; fill:none" points="263.683,386.784 2352.76,386.784 "></polyline>
<polyline clip-path="url(#clip352)" style="stroke:#000000; stroke-linecap:round; stroke-linejoin:round; stroke-width:2; stroke-opacity:0.1; fill:none" points="263.683,58.6283 2352.76,58.6283 "></polyline>
<polyline clip-path="url(#clip350)" style="stroke:#000000; stroke-linecap:round; stroke-linejoin:round; stroke-width:4; stroke-opacity:1; fill:none" points="263.683,1384.3 263.683,47.2441 "></polyline>
<polyline clip-path="url(#clip350)" style="stroke:#000000; stroke-linecap:round; stroke-linejoin:round; stroke-width:4; stroke-opacity:1; fill:none" points="263.683,1371.25 282.58,1371.25 "></polyline>
<polyline clip-path="url(#clip350)" style="stroke:#000000; stroke-linecap:round; stroke-linejoin:round; stroke-width:4; stroke-opacity:1; fill:none" points="263.683,1043.1 282.58,1043.1 "></polyline>
<polyline clip-path="url(#clip350)" style="stroke:#000000; stroke-linecap:round; stroke-linejoin:round; stroke-width:4; stroke-opacity:1; fill:none" points="263.683,714.941 282.58,714.941 "></polyline>
<polyline clip-path="url(#clip350)" style="stroke:#000000; stroke-linecap:round; stroke-linejoin:round; stroke-width:4; stroke-opacity:1; fill:none" points="263.683,386.784 282.58,386.784 "></polyline>
<polyline clip-path="url(#clip350)" style="stroke:#000000; stroke-linecap:round; stroke-linejoin:round; stroke-width:4; stroke-opacity:1; fill:none" points="263.683,58.6283 282.58,58.6283 "></polyline>
<path clip-path="url(#clip350)" d="M136.712 1372.9 Q136.712 1361.75 139.529 1355.67 Q143.456 1346.63 152.72 1346.63 Q154.684 1346.63 156.722 1347.19 Q158.797 1347.7 161.391 1349.74 Q164.022 1351.78 165.615 1355.12 Q168.654 1361.56 168.654 1372.9 Q168.654 1383.98 165.838 1390.02 Q161.725 1398.84 152.646 1398.84 Q149.237 1398.84 145.754 1397.1 Q142.308 1395.36 140.121 1391.17 Q136.712 1384.91 136.712 1372.9 M143.012 1371.98 Q143.012 1383.43 143.827 1387.98 Q144.753 1392.91 147.273 1395.06 Q149.83 1397.17 152.646 1397.17 Q155.685 1397.17 158.204 1394.91 Q160.761 1392.62 161.539 1387.69 Q162.392 1382.83 162.355 1371.98 Q162.355 1361.41 161.613 1357.19 Q160.613 1352.26 157.945 1350.3 Q155.314 1348.3 152.646 1348.3 Q151.646 1348.3 150.571 1348.59 Q149.533 1348.89 148.014 1349.74 Q146.495 1350.59 145.309 1352.71 Q144.16 1354.82 143.605 1358.01 Q143.012 1362.12 143.012 1371.98 Z" fill="#000000" fill-rule="nonzero" fill-opacity="1"></path><path clip-path="url(#clip350)" d="M179.289 1395.95 Q178.14 1394.73 178.14 1393.13 Q178.14 1391.54 179.289 1390.39 Q180.437 1389.21 182.179 1389.21 Q183.846 1389.21 184.958 1390.32 Q186.107 1391.39 186.107 1393.17 Q186.107 1394.91 184.884 1396.06 Q183.698 1397.17 182.179 1397.17 Q180.437 1397.17 179.289 1395.95 Z" fill="#000000" fill-rule="nonzero" fill-opacity="1"></path><path clip-path="url(#clip350)" d="M195.741 1372.9 Q195.741 1361.75 198.557 1355.67 Q202.485 1346.63 211.749 1346.63 Q213.713 1346.63 215.751 1347.19 Q217.826 1347.7 220.42 1349.74 Q223.051 1351.78 224.644 1355.12 Q227.683 1361.56 227.683 1372.9 Q227.683 1383.98 224.866 1390.02 Q220.753 1398.84 211.675 1398.84 Q208.266 1398.84 204.783 1397.1 Q201.336 1395.36 199.15 1391.17 Q195.741 1384.91 195.741 1372.9 M202.04 1371.98 Q202.04 1383.43 202.856 1387.98 Q203.782 1392.91 206.302 1395.06 Q208.859 1397.17 211.675 1397.17 Q214.713 1397.17 217.233 1394.91 Q219.79 1392.62 220.568 1387.69 Q221.42 1382.83 221.383 1371.98 Q221.383 1361.41 220.642 1357.19 Q219.642 1352.26 216.974 1350.3 Q214.343 1348.3 211.675 1348.3 Q210.674 1348.3 209.6 1348.59 Q208.562 1348.89 207.043 1349.74 Q205.524 1350.59 204.338 1352.71 Q203.189 1354.82 202.633 1358.01 Q202.04 1362.12 202.04 1371.98 Z" fill="#000000" fill-rule="nonzero" fill-opacity="1"></path><path clip-path="url(#clip350)" d="M137.528 1044.75 Q137.528 1033.59 140.344 1027.52 Q144.272 1018.47 153.535 1018.47 Q155.499 1018.47 157.537 1019.03 Q159.612 1019.55 162.206 1021.59 Q164.837 1023.62 166.431 1026.96 Q169.469 1033.41 169.469 1044.75 Q169.469 1055.83 166.653 1061.87 Q162.54 1070.68 153.461 1070.68 Q150.052 1070.68 146.569 1068.94 Q143.123 1067.2 140.937 1063.01 Q137.528 1056.75 137.528 1044.75 M143.827 1043.82 Q143.827 1055.27 144.642 1059.83 Q145.569 1064.76 148.088 1066.9 Q150.645 1069.02 153.461 1069.02 Q156.5 1069.02 159.02 1066.76 Q161.576 1064.46 162.355 1059.53 Q163.207 1054.68 163.17 1043.82 Q163.17 1033.26 162.429 1029.03 Q161.428 1024.11 158.76 1022.14 Q156.129 1020.14 153.461 1020.14 Q152.461 1020.14 151.386 1020.44 Q150.349 1020.73 148.829 1021.59 Q147.31 1022.44 146.124 1024.55 Q144.976 1026.66 144.42 1029.85 Q143.827 1033.96 143.827 1043.82 Z" fill="#000000" fill-rule="nonzero" fill-opacity="1"></path><path clip-path="url(#clip350)" d="M180.104 1067.79 Q178.955 1066.57 178.955 1064.98 Q178.955 1063.38 180.104 1062.24 Q181.253 1061.05 182.994 1061.05 Q184.662 1061.05 185.773 1062.16 Q186.922 1063.24 186.922 1065.01 Q186.922 1066.76 185.699 1067.91 Q184.513 1069.02 182.994 1069.02 Q181.253 1069.02 180.104 1067.79 Z" fill="#000000" fill-rule="nonzero" fill-opacity="1"></path><path clip-path="url(#clip350)" d="M197.372 1069.02 Q197.372 1067.65 197.483 1067.24 Q197.631 1066.83 198.224 1066.2 L212.786 1049.97 Q220.753 1041 220.753 1033.18 Q220.753 1028.11 218.085 1024.48 Q215.454 1020.85 210.6 1020.85 Q207.265 1020.85 204.449 1022.88 Q201.633 1024.92 200.336 1028.55 Q200.558 1028.48 201.336 1028.48 Q203.226 1028.48 204.264 1029.66 Q205.338 1030.85 205.338 1032.44 Q205.338 1034.48 204.004 1035.48 Q202.707 1036.45 201.411 1036.45 Q200.892 1036.45 200.188 1036.33 Q199.521 1036.22 198.446 1035.19 Q197.372 1034.11 197.372 1032.22 Q197.372 1026.92 201.373 1022.7 Q205.412 1018.47 211.564 1018.47 Q218.53 1018.47 223.088 1022.62 Q227.683 1026.74 227.683 1033.18 Q227.683 1035.44 226.978 1037.52 Q226.312 1039.56 225.385 1041.15 Q224.496 1042.74 222.05 1045.3 Q219.605 1047.86 217.641 1049.67 Q215.677 1051.49 211.267 1055.34 L203.226 1063.16 L216.9 1063.16 Q223.569 1063.16 224.088 1062.57 Q224.829 1061.49 225.756 1055.83 L227.683 1055.83 L225.533 1069.02 L197.372 1069.02 Z" fill="#000000" fill-rule="nonzero" fill-opacity="1"></path><path clip-path="url(#clip350)" d="M135.86 716.59 Q135.86 705.436 138.676 699.359 Q142.604 690.317 151.868 690.317 Q153.832 690.317 155.87 690.873 Q157.945 691.392 160.539 693.43 Q163.17 695.468 164.763 698.803 Q167.802 705.251 167.802 716.59 Q167.802 727.669 164.985 733.709 Q160.872 742.528 151.794 742.528 Q148.385 742.528 144.902 740.786 Q141.455 739.045 139.269 734.858 Q135.86 728.595 135.86 716.59 M142.16 715.663 Q142.16 727.113 142.975 731.671 Q143.901 736.599 146.421 738.748 Q148.978 740.861 151.794 740.861 Q154.832 740.861 157.352 738.6 Q159.909 736.303 160.687 731.374 Q161.539 726.52 161.502 715.663 Q161.502 705.102 160.761 700.878 Q159.761 695.95 157.093 693.986 Q154.462 691.985 151.794 691.985 Q150.793 691.985 149.719 692.281 Q148.681 692.578 147.162 693.43 Q145.643 694.282 144.457 696.395 Q143.308 698.507 142.752 701.693 Q142.16 705.806 142.16 715.663 Z" fill="#000000" fill-rule="nonzero" fill-opacity="1"></path><path clip-path="url(#clip350)" d="M178.436 739.638 Q177.288 738.415 177.288 736.822 Q177.288 735.228 178.436 734.079 Q179.585 732.894 181.327 732.894 Q182.994 732.894 184.106 734.005 Q185.255 735.08 185.255 736.859 Q185.255 738.6 184.032 739.749 Q182.846 740.861 181.327 740.861 Q179.585 740.861 178.436 739.638 Z" fill="#000000" fill-rule="nonzero" fill-opacity="1"></path><path clip-path="url(#clip350)" d="M194.037 728.336 L194.037 726.001 L217.344 690.392 Q217.937 689.465 218.863 689.502 Q219.716 689.502 219.901 689.836 Q220.086 690.169 220.086 691.466 L220.086 726.001 L227.683 726.001 L227.683 728.336 L220.086 728.336 L220.086 734.932 Q220.086 737.118 220.976 737.822 Q221.902 738.526 225.83 738.526 L227.423 738.526 L227.423 740.861 Q224.311 740.638 217.122 740.638 Q209.97 740.638 206.858 740.861 L206.858 738.526 L208.451 738.526 Q212.379 738.526 213.305 737.859 Q214.232 737.155 214.232 734.932 L214.232 728.336 L194.037 728.336 M196.186 726.001 L214.676 726.001 L214.676 697.691 L196.186 726.001 Z" fill="#000000" fill-rule="nonzero" fill-opacity="1"></path><path clip-path="url(#clip350)" d="M136.935 388.433 Q136.935 377.28 139.751 371.203 Q143.679 362.161 152.943 362.161 Q154.906 362.161 156.944 362.717 Q159.02 363.236 161.613 365.274 Q164.244 367.312 165.838 370.647 Q168.876 377.095 168.876 388.433 Q168.876 399.513 166.06 405.553 Q161.947 414.372 152.868 414.372 Q149.459 414.372 145.976 412.63 Q142.53 410.889 140.344 406.702 Q136.935 400.439 136.935 388.433 M143.234 387.507 Q143.234 398.957 144.049 403.515 Q144.976 408.443 147.495 410.592 Q150.052 412.704 152.868 412.704 Q155.907 412.704 158.427 410.444 Q160.983 408.147 161.762 403.218 Q162.614 398.364 162.577 387.507 Q162.577 376.946 161.836 372.722 Q160.835 367.794 158.167 365.83 Q155.536 363.829 152.868 363.829 Q151.868 363.829 150.793 364.125 Q149.756 364.422 148.237 365.274 Q146.717 366.126 145.532 368.238 Q144.383 370.351 143.827 373.537 Q143.234 377.65 143.234 387.507 Z" fill="#000000" fill-rule="nonzero" fill-opacity="1"></path><path clip-path="url(#clip350)" d="M179.511 411.482 Q178.362 410.259 178.362 408.665 Q178.362 407.072 179.511 405.923 Q180.66 404.738 182.401 404.738 Q184.069 404.738 185.18 405.849 Q186.329 406.924 186.329 408.702 Q186.329 410.444 185.106 411.593 Q183.921 412.704 182.401 412.704 Q180.66 412.704 179.511 411.482 Z" fill="#000000" fill-rule="nonzero" fill-opacity="1"></path><path clip-path="url(#clip350)" d="M196.186 388.73 Q196.186 376.798 202.263 369.498 Q208.34 362.161 216.158 362.161 Q220.716 362.161 223.236 364.496 Q225.793 366.793 225.793 370.351 Q225.793 372.314 224.644 373.167 Q223.495 374.019 222.31 374.019 Q220.939 374.019 219.864 373.093 Q218.789 372.166 218.789 370.499 Q218.789 367.09 222.977 367.09 Q221.013 364.051 216.307 364.051 Q214.862 364.051 213.379 364.496 Q211.897 364.903 209.97 366.312 Q208.043 367.72 206.561 369.943 Q205.079 372.166 204.041 376.353 Q203.004 380.541 203.004 385.988 L203.004 387.803 Q206.117 380.281 212.49 380.318 Q218.863 380.318 223.273 385.173 Q227.683 390.027 227.683 397.215 Q227.683 404.589 223.088 409.481 Q218.493 414.372 212.045 414.372 Q209.155 414.372 206.524 413.149 Q203.93 411.963 201.485 409.221 Q199.076 406.479 197.631 401.217 Q196.186 395.956 196.186 388.73 M203.152 395.548 Q203.152 402.996 204.523 406.553 Q204.745 407.146 205.227 407.961 Q205.746 408.777 206.598 409.851 Q207.488 410.889 208.933 411.593 Q210.378 412.26 212.045 412.26 Q217.122 412.26 219.567 407.331 Q220.864 404.589 220.864 397.141 Q220.864 389.545 219.493 386.766 Q217.159 382.06 212.416 382.06 Q209.229 382.06 207.006 384.246 Q204.82 386.432 203.967 389.36 Q203.152 392.287 203.152 395.548 Z" fill="#000000" fill-rule="nonzero" fill-opacity="1"></path><path clip-path="url(#clip350)" d="M136.935 60.2773 Q136.935 49.1237 139.751 43.0467 Q143.679 34.0053 152.943 34.0053 Q154.906 34.0053 156.944 34.5611 Q159.02 35.0798 161.613 37.1179 Q164.244 39.1559 165.838 42.4909 Q168.876 48.9384 168.876 60.2773 Q168.876 71.3567 166.06 77.3967 Q161.947 86.2158 152.868 86.2158 Q149.459 86.2158 145.976 84.4742 Q142.53 82.7326 140.344 78.5454 Q136.935 72.2831 136.935 60.2773 M143.234 59.3509 Q143.234 70.8009 144.049 75.3587 Q144.976 80.287 147.495 82.4362 Q150.052 84.5483 152.868 84.5483 Q155.907 84.5483 158.427 82.288 Q160.983 79.9906 161.762 75.0622 Q162.614 70.208 162.577 59.3509 Q162.577 48.7902 161.836 44.5659 Q160.835 39.6376 158.167 37.6737 Q155.536 35.6727 152.868 35.6727 Q151.868 35.6727 150.793 35.9692 Q149.756 36.2656 148.237 37.1179 Q146.717 37.9701 145.532 40.0823 Q144.383 42.1944 143.827 45.3811 Q143.234 49.4943 143.234 59.3509 Z" fill="#000000" fill-rule="nonzero" fill-opacity="1"></path><path clip-path="url(#clip350)" d="M179.511 83.3255 Q178.362 82.1027 178.362 80.5093 Q178.362 78.916 179.511 77.7673 Q180.66 76.5815 182.401 76.5815 Q184.069 76.5815 185.18 77.6931 Q186.329 78.7677 186.329 80.5464 Q186.329 82.288 185.106 83.4367 Q183.921 84.5483 182.401 84.5483 Q180.66 84.5483 179.511 83.3255 Z" fill="#000000" fill-rule="nonzero" fill-opacity="1"></path><path clip-path="url(#clip350)" d="M196.186 73.0983 Q196.186 64.6127 207.117 59.1286 Q202.411 55.9418 201.559 55.0155 Q198.224 51.31 198.224 46.6781 Q198.224 41.3792 202.226 37.7108 Q206.265 34.0053 211.971 34.0053 Q217.418 34.0053 221.531 37.1549 Q225.645 40.3046 225.645 45.307 Q225.645 52.3475 216.455 57.0905 Q222.532 60.8702 223.977 62.4635 Q227.683 66.5766 227.683 71.8014 Q227.683 77.8784 223.014 82.0656 Q218.345 86.2158 211.897 86.2158 Q205.598 86.2158 200.892 82.5474 Q196.186 78.8789 196.186 73.0983 M199.965 73.0983 Q199.965 77.8043 203.486 80.954 Q207.043 84.1037 211.971 84.1037 Q216.751 84.1037 220.309 81.3616 Q223.903 78.6195 223.903 74.5435 Q223.903 72.9501 223.347 71.5791 Q222.828 70.208 221.754 69.1334 Q220.716 68.0218 220.049 67.5401 Q219.419 67.0213 218.196 66.169 L208.859 60.2773 Q199.965 65.2056 199.965 73.0983 M201.559 43.7137 Q201.559 47.3451 205.375 49.8648 L214.787 55.9418 Q222.31 51.5323 222.31 45.307 Q222.31 41.268 219.234 38.6001 Q216.158 35.8951 211.897 35.8951 Q207.71 35.8951 204.634 38.1184 Q201.559 40.3046 201.559 43.7137 Z" fill="#000000" fill-rule="nonzero" fill-opacity="1"></path><path clip-path="url(#clip350)" d="M38.6601 905.123 L35.498 905.123 L35.498 897.169 L23.8874 897.169 Q16.3776 897.169 12.0792 892.327 Q7.78086 887.436 7.78086 881.457 Q7.78086 877.505 9.90534 874.936 Q12.0298 872.367 14.8954 872.367 Q16.8223 872.367 18.1069 873.552 Q19.342 874.689 19.342 876.813 Q19.342 878.839 18.0575 880.025 Q16.7729 881.161 14.9942 881.161 Q11.7334 881.161 10.7453 878.147 Q10.0536 879.679 10.0042 881.457 Q10.0042 885.113 13.7591 887.979 Q17.514 890.795 23.7886 890.795 L35.498 890.795 L35.498 878.938 L38.6601 878.938 L38.6601 890.449 L71.2191 890.449 Q74.1341 890.449 75.0728 889.264 Q76.0115 888.028 76.0115 882.791 L76.0115 880.667 L79.1242 880.667 Q78.8277 884.718 78.8277 893.513 Q78.8277 894.748 78.8771 896.675 Q78.9265 898.552 79.0253 901.121 Q79.1242 903.641 79.1242 905.024 L76.0115 905.024 Q76.0115 899.639 75.3692 898.404 Q74.6776 897.169 71.4167 897.169 L38.6601 897.169 L38.6601 905.123 Z" fill="#000000" fill-rule="nonzero" fill-opacity="1"></path><path clip-path="url(#clip350)" d="M79.1242 874.293 L76.0115 874.293 Q76.0115 868.908 75.3692 867.673 Q74.6776 866.438 71.4167 866.438 L44.1936 866.438 Q40.4387 866.438 39.5494 867.722 Q38.6601 868.958 38.6601 873.898 L35.498 873.898 L34.4111 859.768 L71.5155 859.768 Q74.5293 859.768 75.2704 858.681 Q76.0115 857.594 76.0115 852.653 L79.1242 852.653 Q78.8277 862.979 78.8277 863.177 Q78.8277 864.56 79.1242 874.293 M16.7729 870.044 Q14.7472 870.044 13.1168 868.513 Q11.437 866.932 11.437 864.709 Q11.437 862.485 12.9686 860.904 Q14.4508 859.323 16.8223 859.323 Q19.1444 859.323 20.676 860.904 Q22.1582 862.485 22.1582 864.709 Q22.1582 867.031 20.5278 868.562 Q18.8974 870.044 16.7729 870.044 Z" fill="#000000" fill-rule="nonzero" fill-opacity="1"></path><path clip-path="url(#clip350)" d="M79.1242 846.379 L76.0115 846.379 Q76.0115 840.993 75.3692 839.758 Q74.6776 838.523 71.4167 838.523 L44.2924 838.523 Q40.5375 838.523 39.5988 839.857 Q38.6601 841.142 38.6601 846.379 L35.498 846.379 L34.4111 832.149 L45.0335 832.149 Q34.4111 827.406 34.4111 817.179 Q34.4111 809.571 38.166 806.557 Q40.6857 804.334 43.5019 803.889 Q46.3181 803.395 53.6303 803.395 L72.9483 803.395 Q75.0728 803.296 75.5669 801.666 Q76.0115 800.035 76.0115 795.49 L79.1242 795.49 Q78.8277 805.816 78.8277 806.853 Q78.8277 807.644 79.1242 818.266 L76.0115 818.266 Q76.0115 812.881 75.3692 811.646 Q74.6776 810.361 71.4167 810.361 L47.8497 810.361 Q42.7114 810.361 39.6976 811.942 Q36.6344 813.523 36.6344 817.871 Q36.6344 823.108 41.0316 827.308 Q45.4288 831.507 52.8398 831.507 L71.4167 831.507 Q74.6776 831.507 75.3692 830.272 Q76.0115 828.987 76.0115 823.652 L79.1242 823.652 Q78.8277 833.978 78.8277 834.966 Q78.8277 835.756 79.1242 846.379 Z" fill="#000000" fill-rule="nonzero" fill-opacity="1"></path><path clip-path="url(#clip350)" d="M69.4898 789.264 Q60.8931 789.264 56.3477 779.136 Q53.4327 773.059 52.6916 760.51 L48.9861 760.51 Q42.7114 760.51 39.4012 763.82 Q36.0415 767.081 36.0415 771.231 Q36.0415 778.642 40.6857 782.199 Q40.7845 779.185 42.3162 778.099 Q43.7984 777.012 45.33 777.012 Q47.3556 777.012 48.6896 778.296 Q49.9742 779.531 49.9742 781.656 Q49.9742 783.682 48.739 785.015 Q47.4545 786.349 45.2311 786.349 Q40.2905 786.349 37.0296 781.903 Q33.7688 777.407 33.7688 771.033 Q33.7688 762.733 39.3517 757.2 Q41.081 755.47 43.3043 754.63 Q45.5276 753.741 47.0098 753.642 Q48.4426 753.543 51.3082 753.543 L71.5155 753.543 Q72.1084 753.543 73.0965 753.346 Q74.0847 753.148 75.3692 752.259 Q76.6044 751.32 76.6044 749.788 Q76.6044 746.132 70.1321 746.182 L64.4504 746.182 L64.4504 743.613 L70.1321 743.613 Q75.5175 743.613 77.642 746.478 Q79.717 749.294 79.717 751.913 Q79.717 755.273 77.2467 757.397 Q74.7764 759.522 71.4167 759.818 Q75.2704 761.35 77.7902 764.858 Q80.2605 768.316 80.2605 773.059 Q80.2605 776.715 79.3218 780.174 Q78.4325 783.583 75.9127 786.448 Q73.3436 789.264 69.4898 789.264 M69.391 781.458 Q73.1459 781.458 75.5669 778.79 Q77.9878 776.122 77.9878 772.367 Q77.9878 768.118 74.727 764.314 Q71.4167 760.51 64.9444 760.51 L54.8161 760.51 Q55.2113 771.725 59.7073 776.616 Q64.1539 781.458 69.391 781.458 Z" fill="#000000" fill-rule="nonzero" fill-opacity="1"></path><path clip-path="url(#clip350)" d="M79.1242 739.561 L76.0115 739.561 Q76.0115 734.176 75.3692 732.941 Q74.6776 731.706 71.4167 731.706 L18.7986 731.706 Q15.0436 731.706 14.1049 733.04 Q13.1662 734.324 13.1662 739.561 L10.0042 739.561 L8.91721 725.036 L71.4167 725.036 Q74.6776 725.036 75.3692 723.751 Q76.0115 722.467 76.0115 717.131 L79.1242 717.131 Q79.1242 718.366 79.0253 720.935 Q78.9265 723.504 78.8771 725.382 Q78.8277 727.259 78.8277 728.346 Q78.8277 729.532 79.1242 739.561 Z" fill="#000000" fill-rule="nonzero" fill-opacity="1"></path><path clip-path="url(#clip350)" d="M79.1242 677.902 L76.0115 677.902 Q76.0115 672.516 75.3692 671.281 Q74.6776 670.046 71.4167 670.046 L18.7986 670.046 Q15.0436 670.046 14.1049 671.38 Q13.1662 672.665 13.1662 677.902 L10.0042 677.902 L8.91721 663.376 L71.4167 663.376 Q74.6776 663.376 75.3692 662.092 Q76.0115 660.807 76.0115 655.471 L79.1242 655.471 Q79.1242 656.706 79.0253 659.275 Q78.9265 661.845 78.8771 663.722 Q78.8277 665.599 78.8277 666.686 Q78.8277 667.872 79.1242 677.902 Z" fill="#000000" fill-rule="nonzero" fill-opacity="1"></path><path clip-path="url(#clip350)" d="M73.6894 643.762 Q67.0689 650.432 57.484 650.432 Q47.8497 650.432 40.834 643.91 Q33.7688 637.339 33.7688 627.952 Q33.7688 618.762 40.7845 612.191 Q47.7509 605.57 57.484 605.57 Q67.0195 605.57 73.64 612.24 Q80.2605 618.861 80.2605 628.05 Q80.2605 637.042 73.6894 643.762 M56.6441 642.032 Q66.476 642.032 70.9226 639.463 Q77.6914 635.511 77.6914 627.952 Q77.6914 624.197 75.6657 621.084 Q73.64 617.922 70.2309 616.193 Q65.7843 613.969 56.6441 613.969 Q46.911 613.969 42.6126 616.637 Q36.0415 620.59 36.0415 628.05 Q36.0415 631.311 37.7707 634.523 Q39.4506 637.685 42.8102 639.612 Q47.2568 642.032 56.6441 642.032 Z" fill="#000000" fill-rule="nonzero" fill-opacity="1"></path><path clip-path="url(#clip350)" d="M77.7902 599.296 L64.4504 599.296 Q63.314 599.296 62.9188 599.246 Q62.5235 599.197 62.2271 598.9 Q61.9306 598.604 61.9306 598.011 Q61.9306 597.319 62.2271 597.072 Q62.5235 596.776 63.6599 596.578 Q70.6262 595.047 74.3317 591.786 Q77.9878 588.476 77.9878 582.497 Q77.9878 576.816 75.4681 573.95 Q72.9483 571.084 68.7982 571.084 Q61.3871 571.084 59.5097 581.608 Q58.2745 587.685 57.484 590.205 Q56.6441 592.725 54.8161 594.948 Q51.2588 599.296 46.2193 599.296 Q41.1798 599.296 37.4743 595.491 Q33.7688 591.638 33.7688 583.14 Q33.7688 577.458 36.6344 573.604 Q35.7451 572.468 35.004 571.875 Q33.7688 570.541 33.7688 569.849 Q33.7688 569.059 34.3123 568.91 Q34.8063 568.762 36.2391 568.762 L46.4169 568.762 Q47.5533 568.762 47.9485 568.812 Q48.3438 568.861 48.6402 569.158 Q48.8872 569.454 48.8872 570.096 Q48.8872 571.233 47.9485 571.282 Q35.6957 572.073 35.6957 583.14 Q35.6957 589.118 38.0178 591.786 Q40.2905 594.454 43.4031 594.454 Q45.1323 594.454 46.4663 593.663 Q47.7509 592.823 48.5414 591.786 Q49.2825 590.699 50.0236 588.723 Q50.7153 586.746 50.9623 585.561 Q51.2094 584.325 51.7034 582.003 Q53.235 573.901 56.5453 570.492 Q60.7943 566.243 66.1796 566.243 Q72.1578 566.243 76.2092 570.294 Q80.2605 574.345 80.2605 582.497 Q80.2605 589.068 75.8633 593.663 Q76.4562 594.256 76.9997 594.701 Q77.4937 595.145 77.6914 595.343 Q77.889 595.491 78.0372 595.541 Q78.136 595.59 78.2348 595.689 Q80.2605 597.715 80.2605 598.209 Q80.2605 598.999 79.717 599.147 Q79.223 599.296 77.7902 599.296 Z" fill="#000000" fill-rule="nonzero" fill-opacity="1"></path><path clip-path="url(#clip350)" d="M77.7902 559.474 L64.4504 559.474 Q63.314 559.474 62.9188 559.424 Q62.5235 559.375 62.2271 559.079 Q61.9306 558.782 61.9306 558.189 Q61.9306 557.498 62.2271 557.251 Q62.5235 556.954 63.6599 556.756 Q70.6262 555.225 74.3317 551.964 Q77.9878 548.654 77.9878 542.676 Q77.9878 536.994 75.4681 534.128 Q72.9483 531.263 68.7982 531.263 Q61.3871 531.263 59.5097 541.786 Q58.2745 547.863 57.484 550.383 Q56.6441 552.903 54.8161 555.126 Q51.2588 559.474 46.2193 559.474 Q41.1798 559.474 37.4743 555.669 Q33.7688 551.816 33.7688 543.318 Q33.7688 537.636 36.6344 533.782 Q35.7451 532.646 35.004 532.053 Q33.7688 530.719 33.7688 530.027 Q33.7688 529.237 34.3123 529.089 Q34.8063 528.94 36.2391 528.94 L46.4169 528.94 Q47.5533 528.94 47.9485 528.99 Q48.3438 529.039 48.6402 529.336 Q48.8872 529.632 48.8872 530.274 Q48.8872 531.411 47.9485 531.46 Q35.6957 532.251 35.6957 543.318 Q35.6957 549.296 38.0178 551.964 Q40.2905 554.632 43.4031 554.632 Q45.1323 554.632 46.4663 553.841 Q47.7509 553.002 48.5414 551.964 Q49.2825 550.877 50.0236 548.901 Q50.7153 546.925 50.9623 545.739 Q51.2094 544.504 51.7034 542.181 Q53.235 534.079 56.5453 530.67 Q60.7943 526.421 66.1796 526.421 Q72.1578 526.421 76.2092 530.472 Q80.2605 534.523 80.2605 542.676 Q80.2605 549.247 75.8633 553.841 Q76.4562 554.434 76.9997 554.879 Q77.4937 555.324 77.6914 555.521 Q77.889 555.669 78.0372 555.719 Q78.136 555.768 78.2348 555.867 Q80.2605 557.893 80.2605 558.387 Q80.2605 559.177 79.717 559.326 Q79.223 559.474 77.7902 559.474 Z" fill="#000000" fill-rule="nonzero" fill-opacity="1"></path><polyline clip-path="url(#clip352)" style="stroke:#009af9; stroke-linecap:round; stroke-linejoin:round; stroke-width:4; stroke-opacity:1; fill:none" points="322.807,1087.09 541.788,1222.86 760.768,1265.48 979.749,1284.41 1198.73,1312.11 1417.71,1323.32 1636.69,1341.09 1855.67,1346.46 2074.65,1340.83 2293.63,1343.77 "></polyline>
<polyline clip-path="url(#clip352)" style="stroke:#e26f46; stroke-linecap:round; stroke-linejoin:round; stroke-width:4; stroke-opacity:1; fill:none" points="322.807,743.176 541.788,1079.22 760.768,1174.55 979.749,1205.46 1198.73,1230.72 1417.71,1258.01 1636.69,1280.02 1855.67,1298.6 2074.65,1307.91 2293.63,1310.42 "></polyline>
<polyline clip-path="url(#clip352)" style="stroke:#3da44d; stroke-linecap:round; stroke-linejoin:round; stroke-width:4; stroke-opacity:1; fill:none" points="322.807,651.866 541.788,943.213 760.768,1110.08 979.749,1144.27 1198.73,1181.69 1417.71,1182.38 1636.69,1229.49 1855.67,1242.23 2074.65,1255.43 2293.63,1279.26 "></polyline>
<polyline clip-path="url(#clip352)" style="stroke:#c271d2; stroke-linecap:round; stroke-linejoin:round; stroke-width:4; stroke-opacity:1; fill:none" points="322.807,391.045 541.788,698.02 760.768,1021.12 979.749,1075.13 1198.73,1120.44 1417.71,1155.07 1636.69,1176.66 1855.67,1201.34 2074.65,1220.7 2293.63,1231.11 "></polyline>
<polyline clip-path="url(#clip352)" style="stroke:#ac8d18; stroke-linecap:round; stroke-linejoin:round; stroke-width:4; stroke-opacity:1; fill:none" points="322.807,168.719 541.788,623.819 760.768,941.661 979.749,992.37 1198.73,1037.17 1417.71,1075.34 1636.69,1108.73 1855.67,1132.76 2074.65,1151.75 2293.63,1174.5 "></polyline>
<polyline clip-path="url(#clip352)" style="stroke:#00a9ad; stroke-linecap:round; stroke-linejoin:round; stroke-width:4; stroke-opacity:1; fill:none" points="322.807,132.864 541.788,588.29 760.768,901.454 979.749,960.99 1198.73,1004.83 1417.71,1043.34 1636.69,1072.55 1855.67,1098.15 2074.65,1111.36 2293.63,1157.25 "></polyline>
<polyline clip-path="url(#clip352)" style="stroke:#ed5d92; stroke-linecap:round; stroke-linejoin:round; stroke-width:4; stroke-opacity:1; fill:none" points="322.807,85.0853 541.788,530.021 760.768,837.195 979.749,904.716 1198.73,953.269 1417.71,997.105 1636.69,1031.47 1855.67,1066.48 2074.65,1087.78 2293.63,1122.06 "></polyline>
<path clip-path="url(#clip350)" d="M594.635 513.013 L2283.12 513.013 L2283.12 91.8126 L594.635 91.8126  Z" fill="#ffffff" fill-rule="evenodd" fill-opacity="1"></path>
<polyline clip-path="url(#clip350)" style="stroke:#000000; stroke-linecap:round; stroke-linejoin:round; stroke-width:4; stroke-opacity:1; fill:none" points="594.635,513.013 2283.12,513.013 2283.12,91.8126 594.635,91.8126 594.635,513.013 "></polyline>
<path clip-path="url(#clip350)" d="M1265.79 191.568 Q1265.79 190.645 1267.91 190.645 L1282.57 190.645 L1286.42 176.514 L1267.67 176.514 Q1265.79 176.514 1265.79 175.591 Q1265.79 174.587 1268.23 174.628 L1286.98 174.628 L1293.65 150.301 Q1293.65 150.221 1293.81 149.578 Q1293.97 148.896 1294.09 148.695 Q1294.21 148.494 1294.37 148.053 Q1294.57 147.571 1294.81 147.411 Q1295.05 147.25 1295.29 147.25 Q1296.01 147.25 1296.01 148.213 Q1296.01 148.695 1295.53 150.702 L1288.95 174.628 L1306.65 174.628 L1313.28 150.301 Q1313.36 150.14 1313.48 149.578 Q1313.64 148.976 1313.72 148.695 Q1313.8 148.374 1313.96 148.013 Q1314.12 147.651 1314.36 147.451 Q1314.6 147.25 1314.84 147.25 Q1315.64 147.25 1315.68 148.213 Q1315.68 148.374 1315.12 150.702 L1308.54 174.628 L1322.75 174.628 Q1324.8 174.628 1324.8 175.591 Q1324.72 176.514 1322.67 176.514 L1307.94 176.514 L1304.16 190.645 L1322.83 190.645 Q1324.8 190.645 1324.8 191.568 Q1324.8 192.571 1322.83 192.531 L1303.6 192.531 L1296.86 216.858 Q1296.86 217.019 1296.7 217.581 Q1296.54 218.183 1296.46 218.464 Q1296.37 218.785 1296.13 219.186 Q1295.93 219.588 1295.73 219.748 Q1295.53 219.909 1295.29 219.909 Q1294.57 219.909 1294.57 218.945 Q1294.57 218.464 1295.05 216.457 L1301.63 192.531 L1283.93 192.531 L1277.27 216.858 Q1277.27 217.019 1277.11 217.581 Q1276.95 218.183 1276.87 218.464 Q1276.79 218.785 1276.58 219.186 Q1276.38 219.588 1276.18 219.748 Q1275.98 219.909 1275.74 219.909 Q1274.94 219.909 1274.9 218.945 Q1274.9 218.785 1275.46 216.457 L1282.04 192.531 L1267.83 192.531 Q1265.79 192.571 1265.79 191.568 M1284.53 190.645 L1302.2 190.645 L1306.05 176.514 L1288.39 176.514 L1284.53 190.645 Z" fill="#000000" fill-rule="nonzero" fill-opacity="1"></path><path clip-path="url(#clip350)" d="M1359.6 171.256 L1359.6 168.686 L1366.06 168.686 L1366.06 159.253 Q1366.06 153.151 1370 149.659 Q1373.97 146.166 1378.83 146.166 Q1382.04 146.166 1384.13 147.892 Q1386.21 149.618 1386.21 151.947 Q1386.21 153.512 1385.25 154.556 Q1384.33 155.56 1382.6 155.56 Q1380.96 155.56 1379.99 154.516 Q1379.07 153.472 1379.07 152.027 Q1379.07 149.378 1381.52 148.575 Q1380.27 148.013 1378.83 147.973 Q1375.86 147.973 1373.53 151.023 Q1371.24 154.074 1371.24 159.173 L1371.24 168.686 L1380.88 168.686 L1380.88 171.256 L1371.52 171.256 L1371.52 197.71 Q1371.52 200.078 1372.49 200.841 Q1373.49 201.604 1377.74 201.604 L1379.47 201.604 L1379.47 204.133 Q1376.18 203.892 1369.03 203.892 Q1368.03 203.892 1366.46 203.932 Q1364.94 203.972 1362.85 204.052 Q1360.8 204.133 1359.68 204.133 L1359.68 201.604 Q1364.06 201.604 1365.06 201.082 Q1366.06 200.52 1366.06 197.87 L1366.06 171.256 L1359.6 171.256 Z" fill="#000000" fill-rule="nonzero" fill-opacity="1"></path><path clip-path="url(#clip350)" d="M1384.21 186.028 Q1384.21 178.281 1389.19 172.781 Q1394.16 167.281 1401.31 167.281 Q1408.53 167.281 1412.27 171.978 Q1416.04 176.675 1416.04 183.419 Q1416.04 184.663 1415.72 184.904 Q1415.4 185.145 1413.99 185.145 L1391.03 185.145 Q1391.03 193.535 1393.52 197.469 Q1396.97 202.968 1402.79 202.968 Q1403.6 202.968 1404.56 202.808 Q1405.52 202.647 1407.49 201.965 Q1409.46 201.242 1411.18 199.356 Q1412.91 197.469 1413.91 194.498 Q1414.15 193.334 1414.96 193.374 Q1416.04 193.374 1416.04 194.338 Q1416.04 195.06 1415.24 196.706 Q1414.48 198.312 1412.99 200.239 Q1411.5 202.166 1408.61 203.611 Q1405.76 205.056 1402.31 205.056 Q1395.09 205.056 1389.63 199.596 Q1384.21 194.097 1384.21 186.028 M1391.11 183.419 L1410.62 183.419 Q1410.62 181.693 1410.3 179.766 Q1410.02 177.839 1409.14 175.19 Q1408.29 172.5 1406.29 170.814 Q1404.28 169.128 1401.31 169.128 Q1399.98 169.128 1398.54 169.69 Q1397.13 170.252 1395.41 171.617 Q1393.68 172.982 1392.48 176.073 Q1391.27 179.164 1391.11 183.419 Z" fill="#000000" fill-rule="nonzero" fill-opacity="1"></path><path clip-path="url(#clip350)" d="M1421.86 196.305 Q1421.86 189.32 1430.09 185.627 Q1435.03 183.258 1445.23 182.656 L1445.23 179.645 Q1445.23 174.547 1442.54 171.858 Q1439.89 169.128 1436.51 169.128 Q1430.49 169.128 1427.6 172.901 Q1430.05 172.982 1430.93 174.226 Q1431.82 175.43 1431.82 176.675 Q1431.82 178.321 1430.77 179.405 Q1429.77 180.448 1428.04 180.448 Q1426.4 180.448 1425.31 179.445 Q1424.23 178.401 1424.23 176.595 Q1424.23 172.58 1427.84 169.931 Q1431.5 167.281 1436.67 167.281 Q1443.42 167.281 1447.91 171.818 Q1449.32 173.223 1450 175.029 Q1450.72 176.835 1450.8 178.04 Q1450.89 179.204 1450.89 181.532 L1450.89 197.951 Q1450.89 198.432 1451.05 199.235 Q1451.21 200.038 1451.93 201.082 Q1452.69 202.085 1453.94 202.085 Q1456.91 202.085 1456.87 196.827 L1456.87 192.21 L1458.95 192.21 L1458.95 196.827 Q1458.95 201.202 1456.63 202.928 Q1454.34 204.614 1452.21 204.614 Q1449.48 204.614 1447.75 202.607 Q1446.03 200.6 1445.79 197.87 Q1444.54 201.001 1441.69 203.049 Q1438.88 205.056 1435.03 205.056 Q1432.06 205.056 1429.25 204.293 Q1426.48 203.571 1424.15 201.523 Q1421.86 199.436 1421.86 196.305 M1428.2 196.224 Q1428.2 199.275 1430.37 201.242 Q1432.54 203.209 1435.59 203.209 Q1439.04 203.209 1442.13 200.56 Q1445.23 197.87 1445.23 192.612 L1445.23 184.382 Q1436.11 184.703 1432.14 188.356 Q1428.2 191.969 1428.2 196.224 Z" fill="#000000" fill-rule="nonzero" fill-opacity="1"></path><path clip-path="url(#clip350)" d="M1461.08 171.256 L1461.08 169.449 Q1464.85 169.289 1467.34 166.639 Q1469.87 163.95 1470.72 160.658 Q1471.6 157.366 1471.68 153.552 L1473.73 153.552 L1473.73 168.686 L1485.49 168.686 L1485.49 171.256 L1473.73 171.256 L1473.73 194.097 Q1473.73 202.968 1479.27 202.968 Q1481.63 202.968 1483.2 200.56 Q1484.77 198.111 1484.77 193.776 L1484.77 189.24 L1486.81 189.24 L1486.81 193.936 Q1486.81 198.392 1484.77 201.724 Q1482.72 205.056 1478.66 205.056 Q1477.18 205.056 1475.69 204.654 Q1474.25 204.293 1472.32 203.33 Q1470.43 202.326 1469.23 199.918 Q1468.07 197.469 1468.07 193.936 L1468.07 171.256 L1461.08 171.256 Z" fill="#000000" fill-rule="nonzero" fill-opacity="1"></path><path clip-path="url(#clip350)" d="M1494.04 171.256 L1494.04 168.686 L1506.12 167.803 L1506.12 195.1 Q1506.12 197.067 1506.28 198.232 Q1506.44 199.356 1507.09 200.68 Q1507.77 202.005 1509.29 202.607 Q1510.86 203.209 1513.35 203.209 Q1517.8 203.209 1520.53 199.556 Q1523.3 195.903 1523.3 190.484 L1523.3 175.832 Q1523.3 172.781 1522.22 172.018 Q1521.14 171.256 1516.88 171.256 L1516.88 168.686 L1528.96 167.803 L1528.96 196.987 Q1528.96 200.038 1530.01 200.841 Q1531.09 201.604 1535.39 201.604 L1535.39 204.133 L1523.54 205.056 L1523.54 197.629 Q1520.09 205.016 1512.95 205.056 Q1509.33 205.056 1506.84 204.133 Q1504.4 203.209 1503.15 202.085 Q1501.91 200.921 1501.22 198.713 Q1500.58 196.505 1500.5 195.141 Q1500.42 193.776 1500.42 191.126 L1500.42 178.802 Q1500.42 173.223 1499.62 172.259 Q1498.82 171.256 1494.04 171.256 Z" fill="#000000" fill-rule="nonzero" fill-opacity="1"></path><path clip-path="url(#clip350)" d="M1539.28 204.133 L1539.28 201.604 Q1543.66 201.604 1544.66 201.082 Q1545.7 200.52 1545.7 197.87 L1545.7 175.832 Q1545.7 172.781 1544.62 172.018 Q1543.58 171.256 1539.28 171.256 L1539.28 168.686 L1550.72 167.803 L1550.72 176.835 Q1551.88 173.303 1554.33 170.573 Q1556.82 167.803 1560.84 167.803 Q1563.49 167.803 1565.17 169.289 Q1566.9 170.774 1566.9 172.821 Q1566.9 174.628 1565.77 175.551 Q1564.69 176.434 1563.37 176.434 Q1561.88 176.434 1560.84 175.511 Q1559.83 174.547 1559.83 172.901 Q1559.83 171.898 1560.27 171.135 Q1560.76 170.332 1561.12 170.051 Q1561.48 169.77 1561.72 169.69 Q1561.56 169.61 1560.84 169.61 Q1556.3 169.61 1553.69 174.146 Q1551.12 178.642 1551.12 185.065 L1551.12 197.71 Q1551.12 200.078 1552.09 200.841 Q1553.09 201.604 1557.38 201.604 L1559.11 201.604 L1559.11 204.133 Q1555.82 203.892 1548.67 203.892 Q1547.67 203.892 1546.1 203.932 Q1544.54 203.972 1542.49 204.052 Q1540.44 204.133 1539.28 204.133 Z" fill="#000000" fill-rule="nonzero" fill-opacity="1"></path><path clip-path="url(#clip350)" d="M1571.39 186.028 Q1571.39 178.281 1576.37 172.781 Q1581.35 167.281 1588.5 167.281 Q1595.72 167.281 1599.45 171.978 Q1603.23 176.675 1603.23 183.419 Q1603.23 184.663 1602.91 184.904 Q1602.59 185.145 1601.18 185.145 L1578.22 185.145 Q1578.22 193.535 1580.71 197.469 Q1584.16 202.968 1589.98 202.968 Q1590.78 202.968 1591.75 202.808 Q1592.71 202.647 1594.68 201.965 Q1596.64 201.242 1598.37 199.356 Q1600.1 197.469 1601.1 194.498 Q1601.34 193.334 1602.14 193.374 Q1603.23 193.374 1603.23 194.338 Q1603.23 195.06 1602.42 196.706 Q1601.66 198.312 1600.18 200.239 Q1598.69 202.166 1595.8 203.611 Q1592.95 205.056 1589.5 205.056 Q1582.27 205.056 1576.81 199.596 Q1571.39 194.097 1571.39 186.028 M1578.3 183.419 L1597.81 183.419 Q1597.81 181.693 1597.49 179.766 Q1597.21 177.839 1596.32 175.19 Q1595.48 172.5 1593.47 170.814 Q1591.47 169.128 1588.5 169.128 Q1587.17 169.128 1585.73 169.69 Q1584.32 170.252 1582.59 171.617 Q1580.87 172.982 1579.66 176.073 Q1578.46 179.164 1578.3 183.419 Z" fill="#000000" fill-rule="nonzero" fill-opacity="1"></path><path clip-path="url(#clip350)" d="M1608.33 203.049 L1608.33 192.21 Q1608.33 191.287 1608.37 190.966 Q1608.41 190.645 1608.65 190.404 Q1608.89 190.163 1609.37 190.163 Q1609.93 190.163 1610.13 190.404 Q1610.37 190.645 1610.53 191.568 Q1611.78 197.228 1614.43 200.239 Q1617.12 203.209 1621.97 203.209 Q1626.59 203.209 1628.92 201.162 Q1631.25 199.115 1631.25 195.743 Q1631.25 189.721 1622.7 188.196 Q1617.76 187.192 1615.71 186.55 Q1613.66 185.868 1611.86 184.382 Q1608.33 181.492 1608.33 177.397 Q1608.33 173.303 1611.42 170.292 Q1614.55 167.281 1621.45 167.281 Q1626.07 167.281 1629.2 169.61 Q1630.12 168.887 1630.61 168.285 Q1631.69 167.281 1632.25 167.281 Q1632.89 167.281 1633.01 167.723 Q1633.13 168.124 1633.13 169.289 L1633.13 177.558 Q1633.13 178.481 1633.09 178.802 Q1633.05 179.124 1632.81 179.364 Q1632.57 179.565 1632.05 179.565 Q1631.13 179.565 1631.09 178.802 Q1630.44 168.847 1621.45 168.847 Q1616.6 168.847 1614.43 170.734 Q1612.26 172.58 1612.26 175.109 Q1612.26 176.514 1612.9 177.598 Q1613.58 178.642 1614.43 179.284 Q1615.31 179.886 1616.92 180.488 Q1618.52 181.05 1619.49 181.251 Q1620.49 181.452 1622.38 181.853 Q1628.96 183.098 1631.73 185.787 Q1635.18 189.24 1635.18 193.615 Q1635.18 198.472 1631.89 201.764 Q1628.6 205.056 1621.97 205.056 Q1616.64 205.056 1612.9 201.483 Q1612.42 201.965 1612.06 202.406 Q1611.7 202.808 1611.54 202.968 Q1611.42 203.129 1611.38 203.249 Q1611.34 203.33 1611.26 203.41 Q1609.61 205.056 1609.21 205.056 Q1608.57 205.056 1608.45 204.614 Q1608.33 204.213 1608.33 203.049 Z" fill="#000000" fill-rule="nonzero" fill-opacity="1"></path><polyline clip-path="url(#clip350)" style="stroke:#009af9; stroke-linecap:round; stroke-linejoin:round; stroke-width:6.5; stroke-opacity:1; fill:none" points="617.847,260.293 757.119,260.293 "></polyline>
<path clip-path="url(#clip350)" d="M780.331 241.446 L780.331 238.876 Q790.206 238.876 795.304 233.618 Q796.709 233.618 796.95 233.939 Q797.191 234.26 797.191 235.745 L797.191 281.869 Q797.191 284.318 798.395 285.081 Q799.599 285.844 804.858 285.844 L807.467 285.844 L807.467 288.373 Q804.577 288.132 794.14 288.132 Q783.703 288.132 780.853 288.373 L780.853 285.844 L783.462 285.844 Q788.64 285.844 789.885 285.121 Q791.129 284.358 791.129 281.869 L791.129 239.278 Q786.834 241.446 780.331 241.446 Z" fill="#000000" fill-rule="nonzero" fill-opacity="1"></path><polyline clip-path="url(#clip350)" style="stroke:#e26f46; stroke-linecap:round; stroke-linejoin:round; stroke-width:6.5; stroke-opacity:1; fill:none" points="1172.94,260.293 1312.21,260.293 "></polyline>
<path clip-path="url(#clip350)" d="M1335.42 288.373 Q1335.42 286.887 1335.54 286.446 Q1335.7 286.004 1336.35 285.322 L1352.12 267.739 Q1360.75 258.025 1360.75 249.554 Q1360.75 244.055 1357.86 240.121 Q1355.01 236.187 1349.75 236.187 Q1346.14 236.187 1343.09 238.395 Q1340.04 240.602 1338.63 244.537 Q1338.87 244.456 1339.72 244.456 Q1341.76 244.456 1342.89 245.741 Q1344.05 247.025 1344.05 248.752 Q1344.05 250.959 1342.61 252.043 Q1341.2 253.087 1339.8 253.087 Q1339.24 253.087 1338.47 252.967 Q1337.75 252.846 1336.59 251.722 Q1335.42 250.558 1335.42 248.511 Q1335.42 242.77 1339.76 238.194 Q1344.13 233.618 1350.8 233.618 Q1358.34 233.618 1363.28 238.114 Q1368.26 242.57 1368.26 249.554 Q1368.26 252.003 1367.5 254.251 Q1366.77 256.459 1365.77 258.185 Q1364.81 259.911 1362.16 262.681 Q1359.51 265.451 1357.38 267.418 Q1355.25 269.385 1350.48 273.56 L1341.76 282.03 L1356.58 282.03 Q1363.8 282.03 1364.36 281.388 Q1365.17 280.224 1366.17 274.082 L1368.26 274.082 L1365.93 288.373 L1335.42 288.373 Z" fill="#000000" fill-rule="nonzero" fill-opacity="1"></path><polyline clip-path="url(#clip350)" style="stroke:#3da44d; stroke-linecap:round; stroke-linejoin:round; stroke-width:6.5; stroke-opacity:1; fill:none" points="1728.03,260.293 1867.3,260.293 "></polyline>
<path clip-path="url(#clip350)" d="M1890.51 277.293 Q1890.51 274.844 1891.92 273.68 Q1893.32 272.516 1895.13 272.516 Q1897.02 272.516 1898.34 273.761 Q1899.71 274.965 1899.71 277.092 Q1899.71 279.381 1898.1 280.665 Q1896.53 281.95 1894.29 281.629 Q1896.25 284.92 1899.87 286.406 Q1903.52 287.891 1906.89 287.891 Q1910.42 287.891 1913.27 284.84 Q1916.16 281.789 1916.16 274.323 Q1916.16 267.98 1913.68 264.327 Q1911.23 260.674 1906.37 260.674 L1902.76 260.674 Q1901.51 260.674 1901.15 260.554 Q1900.79 260.433 1900.79 259.751 Q1900.79 258.948 1902.03 258.787 Q1903.28 258.787 1905.25 258.546 Q1910.02 258.386 1912.55 254.251 Q1914.84 250.397 1914.84 244.898 Q1914.84 239.88 1912.43 237.792 Q1910.06 235.665 1906.97 235.665 Q1904.08 235.665 1900.91 236.869 Q1897.74 238.073 1896.01 240.763 Q1901.11 240.763 1901.11 244.898 Q1901.11 246.704 1899.95 247.909 Q1898.82 249.073 1896.94 249.073 Q1895.13 249.073 1893.92 247.949 Q1892.72 246.785 1892.72 244.818 Q1892.72 240.121 1896.9 236.869 Q1901.11 233.618 1907.29 233.618 Q1913.39 233.618 1917.89 236.829 Q1922.43 240.04 1922.43 244.978 Q1922.43 249.835 1919.21 253.81 Q1916 257.784 1910.91 259.43 Q1917.17 260.674 1920.9 264.929 Q1924.63 269.144 1924.63 274.323 Q1924.63 280.745 1919.58 285.482 Q1914.52 290.179 1907.13 290.179 Q1900.31 290.179 1895.41 286.486 Q1890.51 282.793 1890.51 277.293 Z" fill="#000000" fill-rule="nonzero" fill-opacity="1"></path><polyline clip-path="url(#clip350)" style="stroke:#c271d2; stroke-linecap:round; stroke-linejoin:round; stroke-width:6.5; stroke-opacity:1; fill:none" points="617.847,344.533 757.119,344.533 "></polyline>
<path clip-path="url(#clip350)" d="M780.331 359.044 L780.331 356.515 L805.581 317.938 Q806.223 316.934 807.227 316.974 Q808.15 316.974 808.351 317.336 Q808.551 317.697 808.551 319.102 L808.551 356.515 L816.781 356.515 L816.781 359.044 L808.551 359.044 L808.551 366.19 Q808.551 368.558 809.515 369.321 Q810.518 370.084 814.774 370.084 L816.5 370.084 L816.5 372.613 Q813.128 372.372 805.34 372.372 Q797.592 372.372 794.22 372.613 L794.22 370.084 L795.946 370.084 Q800.202 370.084 801.205 369.361 Q802.209 368.598 802.209 366.19 L802.209 359.044 L780.331 359.044 M782.659 356.515 L802.69 356.515 L802.69 325.846 L782.659 356.515 Z" fill="#000000" fill-rule="nonzero" fill-opacity="1"></path><polyline clip-path="url(#clip350)" style="stroke:#ac8d18; stroke-linecap:round; stroke-linejoin:round; stroke-width:6.5; stroke-opacity:1; fill:none" points="1172.94,344.533 1312.21,344.533 "></polyline>
<path clip-path="url(#clip350)" d="M1335.42 359.365 Q1335.42 356.917 1336.75 355.993 Q1338.07 355.03 1339.48 355.03 Q1341.36 355.03 1342.45 356.234 Q1343.57 357.398 1343.57 359.044 Q1343.57 360.69 1342.45 361.894 Q1341.36 363.059 1339.48 363.059 Q1338.55 363.059 1338.07 362.898 Q1339.16 366.671 1342.45 369.401 Q1345.78 372.131 1350.15 372.131 Q1355.65 372.131 1358.95 366.792 Q1360.91 363.34 1360.91 355.512 Q1360.91 348.607 1359.43 345.155 Q1357.14 339.896 1352.44 339.896 Q1345.78 339.896 1341.84 345.637 Q1341.36 346.359 1340.8 346.399 Q1340 346.399 1339.8 345.958 Q1339.64 345.476 1339.64 344.232 L1339.64 319.905 Q1339.64 317.938 1340.44 317.938 Q1340.76 317.938 1341.44 318.179 Q1346.62 320.467 1352.36 320.507 Q1358.26 320.507 1363.56 318.098 Q1363.96 317.858 1364.2 317.858 Q1365.01 317.858 1365.05 318.781 Q1365.05 319.102 1364.36 320.065 Q1363.72 320.989 1362.32 322.233 Q1360.91 323.437 1359.11 324.602 Q1357.3 325.766 1354.65 326.569 Q1352.04 327.331 1349.15 327.331 Q1345.7 327.331 1342.17 326.248 L1342.17 342.265 Q1346.42 338.09 1352.6 338.09 Q1359.19 338.09 1363.72 343.389 Q1368.26 348.687 1368.26 356.074 Q1368.26 363.821 1362.88 369.12 Q1357.54 374.419 1350.31 374.419 Q1343.73 374.419 1339.56 369.722 Q1335.42 365.026 1335.42 359.365 Z" fill="#000000" fill-rule="nonzero" fill-opacity="1"></path><polyline clip-path="url(#clip350)" style="stroke:#00a9ad; stroke-linecap:round; stroke-linejoin:round; stroke-width:6.5; stroke-opacity:1; fill:none" points="1728.03,344.533 1867.3,344.533 "></polyline>
<path clip-path="url(#clip350)" d="M1890.51 346.64 Q1890.51 333.714 1897.1 325.806 Q1903.68 317.858 1912.15 317.858 Q1917.09 317.858 1919.82 320.387 Q1922.59 322.875 1922.59 326.729 Q1922.59 328.857 1921.34 329.78 Q1920.1 330.703 1918.81 330.703 Q1917.33 330.703 1916.16 329.7 Q1915 328.696 1915 326.89 Q1915 323.197 1919.54 323.197 Q1917.41 319.905 1912.31 319.905 Q1910.74 319.905 1909.14 320.387 Q1907.53 320.828 1905.45 322.354 Q1903.36 323.879 1901.75 326.288 Q1900.15 328.696 1899.02 333.232 Q1897.9 337.769 1897.9 343.67 L1897.9 345.637 Q1901.27 337.488 1908.18 337.528 Q1915.08 337.528 1919.86 342.786 Q1924.63 348.045 1924.63 355.833 Q1924.63 363.821 1919.66 369.12 Q1914.68 374.419 1907.69 374.419 Q1904.56 374.419 1901.71 373.094 Q1898.9 371.81 1896.25 368.839 Q1893.64 365.869 1892.08 360.168 Q1890.51 354.468 1890.51 346.64 M1898.06 354.026 Q1898.06 362.095 1899.54 365.949 Q1899.79 366.591 1900.31 367.474 Q1900.87 368.357 1901.79 369.522 Q1902.76 370.646 1904.32 371.408 Q1905.89 372.131 1907.69 372.131 Q1913.19 372.131 1915.84 366.792 Q1917.25 363.821 1917.25 355.753 Q1917.25 347.523 1915.76 344.513 Q1913.23 339.414 1908.1 339.414 Q1904.64 339.414 1902.23 341.783 Q1899.87 344.151 1898.94 347.323 Q1898.06 350.494 1898.06 354.026 Z" fill="#000000" fill-rule="nonzero" fill-opacity="1"></path><polyline clip-path="url(#clip350)" style="stroke:#ed5d92; stroke-linecap:round; stroke-linejoin:round; stroke-width:6.5; stroke-opacity:1; fill:none" points="617.847,428.773 757.119,428.773 "></polyline>
<path clip-path="url(#clip350)" d="M780.331 418.195 L783.02 401.295 L785.068 401.295 Q785.309 402.298 785.71 402.74 Q786.152 403.181 788.48 403.543 Q790.848 403.904 795.625 403.904 L815.576 403.904 Q815.576 405.791 814.854 406.794 L803.734 422.41 Q800.202 427.348 798.636 436.46 Q797.713 442.562 797.753 449.948 L797.753 454.123 Q797.753 458.659 793.939 458.659 Q790.166 458.659 790.166 454.123 Q790.166 438.427 800.282 423.213 Q801.366 421.647 805.34 416.067 Q809.354 410.488 809.515 410.247 L792.494 410.247 Q785.028 410.247 784.425 410.728 Q783.623 411.451 782.378 418.195 L780.331 418.195 Z" fill="#000000" fill-rule="nonzero" fill-opacity="1"></path></svg>