<svg xmlns="http://www.w3.org/2000/svg" xmlns:xlink="http://www.w3.org/1999/xlink" width="600" height="400" viewBox="0 0 2400 1600">
<defs>
  <clipPath id="clip300">
    <rect x="0" y="0" width="2400" height="1600"></rect>
  </clipPath>
</defs>
<path clip-path="url(#clip300)" d="M0 1600 L2400 1600 L2400 0 L0 0  Z" fill="#ffffff" fill-rule="evenodd" fill-opacity="1"></path>
<defs>
  <clipPath id="clip301">
    <rect x="480" y="0" width="1681" height="1600"></rect>
  </clipPath>
</defs>
<path clip-path="url(#clip300)" d="M263.683 1384.3 L2352.76 1384.3 L2352.76 47.2441 L263.683 47.2441  Z" fill="#ffffff" fill-rule="evenodd" fill-opacity="1"></path>
<defs>
  <clipPath id="clip302">
    <rect x="263" y="47" width="2090" height="1338"></rect>
  </clipPath>
</defs>
<polyline clip-path="url(#clip302)" style="stroke:#000000; stroke-linecap:round; stroke-linejoin:round; stroke-width:2; stroke-opacity:0.1; fill:none" points="737.718,1384.3 737.718,47.2441 "></polyline>
<polyline clip-path="url(#clip302)" style="stroke:#000000; stroke-linecap:round; stroke-linejoin:round; stroke-width:2; stroke-opacity:0.1; fill:none" points="1256.36,1384.3 1256.36,47.2441 "></polyline>
<polyline clip-path="url(#clip302)" style="stroke:#000000; stroke-linecap:round; stroke-linejoin:round; stroke-width:2; stroke-opacity:0.1; fill:none" points="1774.99,1384.3 1774.99,47.2441 "></polyline>
<polyline clip-path="url(#clip302)" style="stroke:#000000; stroke-linecap:round; stroke-linejoin:round; stroke-width:2; stroke-opacity:0.1; fill:none" points="2293.63,1384.3 2293.63,47.2441 "></polyline>
<polyline clip-path="url(#clip300)" style="stroke:#000000; stroke-linecap:round; stroke-linejoin:round; stroke-width:4; stroke-opacity:1; fill:none" points="263.683,1384.3 2352.76,1384.3 "></polyline>
<polyline clip-path="url(#clip300)" style="stroke:#000000; stroke-linecap:round; stroke-linejoin:round; stroke-width:4; stroke-opacity:1; fill:none" points="737.718,1384.3 737.718,1365.4 "></polyline>
<polyline clip-path="url(#clip300)" style="stroke:#000000; stroke-linecap:round; stroke-linejoin:round; stroke-width:4; stroke-opacity:1; fill:none" points="1256.36,1384.3 1256.36,1365.4 "></polyline>
<polyline clip-path="url(#clip300)" style="stroke:#000000; stroke-linecap:round; stroke-linejoin:round; stroke-width:4; stroke-opacity:1; fill:none" points="1774.99,1384.3 1774.99,1365.4 "></polyline>
<polyline clip-path="url(#clip300)" style="stroke:#000000; stroke-linecap:round; stroke-linejoin:round; stroke-width:4; stroke-opacity:1; fill:none" points="2293.63,1384.3 2293.63,1365.4 "></polyline>
<path clip-path="url(#clip300)" d="M722.562 1456.07 Q722.562 1453.81 723.785 1452.96 Q725.008 1452.07 726.305 1452.07 Q728.046 1452.07 729.047 1453.18 Q730.084 1454.26 730.084 1455.78 Q730.084 1457.29 729.047 1458.41 Q728.046 1459.48 726.305 1459.48 Q725.452 1459.48 725.008 1459.33 Q726.008 1462.82 729.047 1465.34 Q732.122 1467.86 736.161 1467.86 Q741.238 1467.86 744.276 1462.93 Q746.092 1459.74 746.092 1452.51 Q746.092 1446.14 744.721 1442.95 Q742.609 1438.1 738.273 1438.1 Q732.122 1438.1 728.491 1443.4 Q728.046 1444.07 727.527 1444.1 Q726.786 1444.1 726.601 1443.7 Q726.453 1443.25 726.453 1442.1 L726.453 1419.65 Q726.453 1417.83 727.194 1417.83 Q727.49 1417.83 728.12 1418.05 Q732.9 1420.17 738.199 1420.2 Q743.646 1420.2 748.538 1417.98 Q748.908 1417.76 749.131 1417.76 Q749.872 1417.76 749.909 1418.61 Q749.909 1418.91 749.279 1419.79 Q748.686 1420.65 747.389 1421.8 Q746.092 1422.91 744.425 1423.98 Q742.757 1425.06 740.311 1425.8 Q737.903 1426.5 735.235 1426.5 Q732.048 1426.5 728.787 1425.5 L728.787 1440.29 Q732.715 1436.43 738.422 1436.43 Q744.499 1436.43 748.686 1441.32 Q752.873 1446.22 752.873 1453.03 Q752.873 1460.18 747.908 1465.08 Q742.979 1469.97 736.309 1469.97 Q730.232 1469.97 726.379 1465.63 Q722.562 1461.3 722.562 1456.07 Z" fill="#000000" fill-rule="nonzero" fill-opacity="1"></path><path clip-path="url(#clip300)" d="M1223.3 1424.98 L1223.3 1422.61 Q1232.42 1422.61 1237.12 1417.76 Q1238.42 1417.76 1238.64 1418.05 Q1238.87 1418.35 1238.87 1419.72 L1238.87 1462.3 Q1238.87 1464.56 1239.98 1465.26 Q1241.09 1465.97 1245.94 1465.97 L1248.35 1465.97 L1248.35 1468.3 Q1245.68 1468.08 1236.05 1468.08 Q1226.41 1468.08 1223.78 1468.3 L1223.78 1465.97 L1226.19 1465.97 Q1230.97 1465.97 1232.12 1465.3 Q1233.27 1464.59 1233.27 1462.3 L1233.27 1422.98 Q1229.31 1424.98 1223.3 1424.98 Z" fill="#000000" fill-rule="nonzero" fill-opacity="1"></path><path clip-path="url(#clip300)" d="M1257.47 1444.03 Q1257.47 1432.88 1260.28 1426.8 Q1264.21 1417.76 1273.47 1417.76 Q1275.44 1417.76 1277.48 1418.31 Q1279.55 1418.83 1282.15 1420.87 Q1284.78 1422.91 1286.37 1426.24 Q1289.41 1432.69 1289.41 1444.03 Q1289.41 1455.11 1286.59 1461.15 Q1282.48 1469.97 1273.4 1469.97 Q1269.99 1469.97 1266.51 1468.23 Q1263.06 1466.48 1260.88 1462.3 Q1257.47 1456.03 1257.47 1444.03 M1263.77 1443.1 Q1263.77 1454.55 1264.58 1459.11 Q1265.51 1464.04 1268.03 1466.19 Q1270.58 1468.3 1273.4 1468.3 Q1276.44 1468.3 1278.96 1466.04 Q1281.52 1463.74 1282.29 1458.81 Q1283.15 1453.96 1283.11 1443.1 Q1283.11 1432.54 1282.37 1428.32 Q1281.37 1423.39 1278.7 1421.43 Q1276.07 1419.42 1273.4 1419.42 Q1272.4 1419.42 1271.33 1419.72 Q1270.29 1420.02 1268.77 1420.87 Q1267.25 1421.72 1266.06 1423.83 Q1264.92 1425.95 1264.36 1429.13 Q1263.77 1433.25 1263.77 1443.1 Z" fill="#000000" fill-rule="nonzero" fill-opacity="1"></path><path clip-path="url(#clip300)" d="M1742.35 1424.98 L1742.35 1422.61 Q1751.46 1422.61 1756.17 1417.76 Q1757.47 1417.76 1757.69 1418.05 Q1757.91 1418.35 1757.91 1419.72 L1757.91 1462.3 Q1757.91 1464.56 1759.02 1465.26 Q1760.13 1465.97 1764.99 1465.97 L1767.4 1465.97 L1767.4 1468.3 Q1764.73 1468.08 1755.09 1468.08 Q1745.46 1468.08 1742.83 1468.3 L1742.83 1465.97 L1745.24 1465.97 Q1750.02 1465.97 1751.17 1465.3 Q1752.32 1464.59 1752.32 1462.3 L1752.32 1422.98 Q1748.35 1424.98 1742.35 1424.98 Z" fill="#000000" fill-rule="nonzero" fill-opacity="1"></path><path clip-path="url(#clip300)" d="M1777.33 1456.07 Q1777.33 1453.81 1778.55 1452.96 Q1779.77 1452.07 1781.07 1452.07 Q1782.81 1452.07 1783.81 1453.18 Q1784.85 1454.26 1784.85 1455.78 Q1784.85 1457.29 1783.81 1458.41 Q1782.81 1459.48 1781.07 1459.48 Q1780.22 1459.48 1779.77 1459.33 Q1780.77 1462.82 1783.81 1465.34 Q1786.89 1467.86 1790.93 1467.86 Q1796 1467.86 1799.04 1462.93 Q1800.86 1459.74 1800.86 1452.51 Q1800.86 1446.14 1799.49 1442.95 Q1797.37 1438.1 1793.04 1438.1 Q1786.89 1438.1 1783.26 1443.4 Q1782.81 1444.07 1782.29 1444.1 Q1781.55 1444.1 1781.37 1443.7 Q1781.22 1443.25 1781.22 1442.1 L1781.22 1419.65 Q1781.22 1417.83 1781.96 1417.83 Q1782.26 1417.83 1782.89 1418.05 Q1787.67 1420.17 1792.97 1420.2 Q1798.41 1420.2 1803.3 1417.98 Q1803.67 1417.76 1803.9 1417.76 Q1804.64 1417.76 1804.67 1418.61 Q1804.67 1418.91 1804.04 1419.79 Q1803.45 1420.65 1802.15 1421.8 Q1800.86 1422.91 1799.19 1423.98 Q1797.52 1425.06 1795.08 1425.8 Q1792.67 1426.5 1790 1426.5 Q1786.81 1426.5 1783.55 1425.5 L1783.55 1440.29 Q1787.48 1436.43 1793.19 1436.43 Q1799.26 1436.43 1803.45 1441.32 Q1807.64 1446.22 1807.64 1453.03 Q1807.64 1460.18 1802.67 1465.08 Q1797.75 1469.97 1791.08 1469.97 Q1785 1469.97 1781.14 1465.63 Q1777.33 1461.3 1777.33 1456.07 Z" fill="#000000" fill-rule="nonzero" fill-opacity="1"></path><path clip-path="url(#clip300)" d="M2259.1 1468.3 Q2259.1 1466.93 2259.21 1466.52 Q2259.36 1466.11 2259.95 1465.48 L2274.51 1449.25 Q2282.48 1440.29 2282.48 1432.47 Q2282.48 1427.39 2279.81 1423.76 Q2277.18 1420.13 2272.32 1420.13 Q2268.99 1420.13 2266.17 1422.17 Q2263.36 1424.2 2262.06 1427.84 Q2262.28 1427.76 2263.06 1427.76 Q2264.95 1427.76 2265.99 1428.95 Q2267.06 1430.13 2267.06 1431.73 Q2267.06 1433.76 2265.73 1434.77 Q2264.43 1435.73 2263.13 1435.73 Q2262.62 1435.73 2261.91 1435.62 Q2261.25 1435.51 2260.17 1434.47 Q2259.1 1433.39 2259.1 1431.5 Q2259.1 1426.21 2263.1 1421.98 Q2267.14 1417.76 2273.29 1417.76 Q2280.25 1417.76 2284.81 1421.91 Q2289.41 1426.02 2289.41 1432.47 Q2289.41 1434.73 2288.7 1436.8 Q2288.04 1438.84 2287.11 1440.43 Q2286.22 1442.03 2283.77 1444.58 Q2281.33 1447.14 2279.36 1448.96 Q2277.4 1450.77 2272.99 1454.63 L2264.95 1462.45 L2278.62 1462.45 Q2285.29 1462.45 2285.81 1461.85 Q2286.55 1460.78 2287.48 1455.11 L2289.41 1455.11 L2287.26 1468.3 L2259.1 1468.3 Z" fill="#000000" fill-rule="nonzero" fill-opacity="1"></path><path clip-path="url(#clip300)" d="M2296.23 1444.03 Q2296.23 1432.88 2299.04 1426.8 Q2302.97 1417.76 2312.23 1417.76 Q2314.2 1417.76 2316.23 1418.31 Q2318.31 1418.83 2320.9 1420.87 Q2323.53 1422.91 2325.13 1426.24 Q2328.17 1432.69 2328.17 1444.03 Q2328.17 1455.11 2325.35 1461.15 Q2321.24 1469.97 2312.16 1469.97 Q2308.75 1469.97 2305.27 1468.23 Q2301.82 1466.48 2299.63 1462.3 Q2296.23 1456.03 2296.23 1444.03 M2302.52 1443.1 Q2302.52 1454.55 2303.34 1459.11 Q2304.27 1464.04 2306.79 1466.19 Q2309.34 1468.3 2312.16 1468.3 Q2315.2 1468.3 2317.72 1466.04 Q2320.27 1463.74 2321.05 1458.81 Q2321.9 1453.96 2321.87 1443.1 Q2321.87 1432.54 2321.13 1428.32 Q2320.13 1423.39 2317.46 1421.43 Q2314.83 1419.42 2312.16 1419.42 Q2311.16 1419.42 2310.08 1419.72 Q2309.05 1420.02 2307.53 1420.87 Q2306.01 1421.72 2304.82 1423.83 Q2303.67 1425.95 2303.12 1429.13 Q2302.52 1433.25 2302.52 1443.1 Z" fill="#000000" fill-rule="nonzero" fill-opacity="1"></path><path clip-path="url(#clip300)" d="M1210.64 1581 L1210.64 1577.89 Q1216.03 1577.89 1217.26 1577.25 Q1218.55 1576.56 1218.55 1573.3 L1218.55 1546.17 Q1218.55 1542.42 1217.21 1541.48 Q1215.93 1540.54 1210.64 1540.54 L1210.64 1537.38 L1224.72 1536.29 L1224.72 1547.41 Q1226.15 1543.06 1229.17 1539.7 Q1232.23 1536.29 1237.17 1536.29 Q1240.43 1536.29 1242.51 1538.12 Q1244.63 1539.95 1244.63 1542.47 Q1244.63 1544.69 1243.25 1545.83 Q1241.92 1546.91 1240.28 1546.91 Q1238.46 1546.91 1237.17 1545.78 Q1235.94 1544.59 1235.94 1542.57 Q1235.94 1541.33 1236.48 1540.39 Q1237.07 1539.4 1237.52 1539.06 Q1237.96 1538.71 1238.26 1538.61 Q1238.06 1538.51 1237.17 1538.51 Q1231.59 1538.51 1228.38 1544.1 Q1225.22 1549.63 1225.22 1557.54 L1225.22 1573.1 Q1225.22 1576.01 1226.4 1576.95 Q1227.64 1577.89 1232.92 1577.89 L1235.05 1577.89 L1235.05 1581 Q1231 1580.71 1222.2 1580.71 Q1220.97 1580.71 1219.04 1580.76 Q1217.11 1580.81 1214.59 1580.91 Q1212.07 1581 1210.64 1581 Z" fill="#000000" fill-rule="nonzero" fill-opacity="1"></path><path clip-path="url(#clip300)" d="M1251.6 1571.37 Q1251.6 1562.77 1261.73 1558.23 Q1267.8 1555.31 1280.35 1554.57 L1280.35 1550.87 Q1280.35 1544.59 1277.04 1541.28 Q1273.78 1537.92 1269.63 1537.92 Q1262.22 1537.92 1258.66 1542.57 Q1261.68 1542.66 1262.77 1544.2 Q1263.85 1545.68 1263.85 1547.21 Q1263.85 1549.24 1262.57 1550.57 Q1261.33 1551.85 1259.21 1551.85 Q1257.18 1551.85 1255.85 1550.62 Q1254.51 1549.33 1254.51 1547.11 Q1254.51 1542.17 1258.96 1538.91 Q1263.46 1535.65 1269.83 1535.65 Q1278.13 1535.65 1283.66 1541.23 Q1285.39 1542.96 1286.23 1545.18 Q1287.12 1547.41 1287.22 1548.89 Q1287.32 1550.32 1287.32 1553.19 L1287.32 1573.4 Q1287.32 1573.99 1287.52 1574.98 Q1287.72 1575.96 1288.6 1577.25 Q1289.54 1578.48 1291.08 1578.48 Q1294.73 1578.48 1294.68 1572.01 L1294.68 1566.33 L1297.25 1566.33 L1297.25 1572.01 Q1297.25 1577.4 1294.39 1579.52 Q1291.57 1581.6 1288.95 1581.6 Q1285.59 1581.6 1283.47 1579.13 Q1281.34 1576.66 1281.05 1573.3 Q1279.51 1577.15 1276.01 1579.67 Q1272.55 1582.14 1267.8 1582.14 Q1264.15 1582.14 1260.69 1581.2 Q1257.28 1580.31 1254.42 1577.79 Q1251.6 1575.22 1251.6 1571.37 M1259.41 1571.27 Q1259.41 1575.03 1262.07 1577.45 Q1264.74 1579.87 1268.5 1579.87 Q1272.75 1579.87 1276.55 1576.61 Q1280.35 1573.3 1280.35 1566.82 L1280.35 1556.7 Q1269.14 1557.09 1264.25 1561.59 Q1259.41 1566.03 1259.41 1571.27 Z" fill="#000000" fill-rule="nonzero" fill-opacity="1"></path><path clip-path="url(#clip300)" d="M1301.2 1581 L1301.2 1577.89 Q1306.59 1577.89 1307.82 1577.25 Q1309.06 1576.56 1309.06 1573.3 L1309.06 1546.17 Q1309.06 1542.42 1307.73 1541.48 Q1306.44 1540.54 1301.2 1540.54 L1301.2 1537.38 L1315.43 1536.29 L1315.43 1546.91 Q1320.18 1536.29 1330.4 1536.29 Q1338.01 1536.29 1341.03 1540.05 Q1343.25 1542.57 1343.69 1545.38 Q1344.19 1548.2 1344.19 1555.51 L1344.19 1574.83 Q1344.29 1576.95 1345.92 1577.45 Q1347.55 1577.89 1352.09 1577.89 L1352.09 1581 Q1341.77 1580.71 1340.73 1580.71 Q1339.94 1580.71 1329.32 1581 L1329.32 1577.89 Q1334.7 1577.89 1335.94 1577.25 Q1337.22 1576.56 1337.22 1573.3 L1337.22 1549.73 Q1337.22 1544.59 1335.64 1541.58 Q1334.06 1538.51 1329.71 1538.51 Q1324.47 1538.51 1320.27 1542.91 Q1316.07 1547.31 1316.07 1554.72 L1316.07 1573.3 Q1316.07 1576.56 1317.31 1577.25 Q1318.59 1577.89 1323.93 1577.89 L1323.93 1581 Q1313.6 1580.71 1312.62 1580.71 Q1311.83 1580.71 1301.2 1581 Z" fill="#000000" fill-rule="nonzero" fill-opacity="1"></path><path clip-path="url(#clip300)" d="M1356.88 1581 L1356.88 1577.89 Q1362.27 1577.89 1363.51 1577.25 Q1364.79 1576.56 1364.79 1573.3 L1364.79 1520.68 Q1364.79 1516.92 1363.46 1515.98 Q1362.17 1515.05 1356.88 1515.05 L1356.88 1511.88 L1371.46 1510.8 L1371.46 1559.36 L1385.74 1547.01 Q1387.96 1545.09 1387.96 1543.06 Q1387.96 1540.74 1385.05 1540.54 L1385.05 1537.38 Q1389.3 1537.67 1396.36 1537.67 Q1400.51 1537.67 1403.43 1537.38 L1403.43 1540.54 Q1397.05 1540.84 1390.68 1545.97 Q1389.25 1547.11 1385.84 1550.08 Q1382.48 1552.99 1382.48 1553.29 Q1382.48 1553.39 1382.58 1553.63 Q1382.72 1553.88 1382.92 1554.08 Q1383.12 1554.27 1383.12 1554.37 L1395.97 1572.51 Q1398.58 1576.16 1400.51 1577.05 Q1402.44 1577.89 1405.8 1577.89 L1405.8 1581 Q1401.45 1580.71 1396.95 1580.71 Q1394.53 1580.71 1386.03 1581 L1386.03 1577.89 Q1389.69 1577.89 1389.69 1575.52 Q1389.69 1573.89 1381.49 1562.58 Q1380.9 1561.78 1379.56 1560.06 Q1378.33 1558.23 1377.64 1557.34 L1371.16 1562.87 L1371.16 1573.3 Q1371.16 1576.56 1372.4 1577.25 Q1373.68 1577.89 1379.07 1577.89 L1379.07 1581 Q1372.99 1580.71 1367.95 1580.71 Q1366.91 1580.71 1356.88 1581 Z" fill="#000000" fill-rule="nonzero" fill-opacity="1"></path><polyline clip-path="url(#clip302)" style="stroke:#000000; stroke-linecap:round; stroke-linejoin:round; stroke-width:2; stroke-opacity:0.1; fill:none" points="263.683,1352.11 2352.76,1352.11 "></polyline>
<polyline clip-path="url(#clip302)" style="stroke:#000000; stroke-linecap:round; stroke-linejoin:round; stroke-width:2; stroke-opacity:0.1; fill:none" points="263.683,1028.84 2352.76,1028.84 "></polyline>
<polyline clip-path="url(#clip302)" style="stroke:#000000; stroke-linecap:round; stroke-linejoin:round; stroke-width:2; stroke-opacity:0.1; fill:none" points="263.683,705.565 2352.76,705.565 "></polyline>
<polyline clip-path="url(#clip302)" style="stroke:#000000; stroke-linecap:round; stroke-linejoin:round; stroke-width:2; stroke-opacity:0.1; fill:none" points="263.683,382.294 2352.76,382.294 "></polyline>
<polyline clip-path="url(#clip302)" style="stroke:#000000; stroke-linecap:round; stroke-linejoin:round; stroke-width:2; stroke-opacity:0.1; fill:none" points="263.683,59.0227 2352.76,59.0227 "></polyline>
<polyline clip-path="url(#clip300)" style="stroke:#000000; stroke-linecap:round; stroke-linejoin:round; stroke-width:4; stroke-opacity:1; fill:none" points="263.683,1384.3 263.683,47.2441 "></polyline>
<polyline clip-path="url(#clip300)" style="stroke:#000000; stroke-linecap:round; stroke-linejoin:round; stroke-width:4; stroke-opacity:1; fill:none" points="263.683,1352.11 282.58,1352.11 "></polyline>
<polyline clip-path="url(#clip300)" style="stroke:#000000; stroke-linecap:round; stroke-linejoin:round; stroke-width:4; stroke-opacity:1; fill:none" points="263.683,1028.84 282.58,1028.84 "></polyline>
<polyline clip-path="url(#clip300)" style="stroke:#000000; stroke-linecap:round; stroke-linejoin:round; stroke-width:4; stroke-opacity:1; fill:none" points="263.683,705.565 282.58,705.565 "></polyline>
<polyline clip-path="url(#clip300)" style="stroke:#000000; stroke-linecap:round; stroke-linejoin:round; stroke-width:4; stroke-opacity:1; fill:none" points="263.683,382.294 282.58,382.294 "></polyline>
<polyline clip-path="url(#clip300)" style="stroke:#000000; stroke-linecap:round; stroke-linejoin:round; stroke-width:4; stroke-opacity:1; fill:none" points="263.683,59.0227 282.58,59.0227 "></polyline>
<path clip-path="url(#clip300)" d="M136.712 1353.76 Q136.712 1342.6 139.529 1336.53 Q143.456 1327.48 152.72 1327.48 Q154.684 1327.48 156.722 1328.04 Q158.797 1328.56 161.391 1330.6 Q164.022 1332.64 165.615 1335.97 Q168.654 1342.42 168.654 1353.76 Q168.654 1364.84 165.838 1370.88 Q161.725 1379.7 152.646 1379.7 Q149.237 1379.7 145.754 1377.95 Q142.308 1376.21 140.121 1372.02 Q136.712 1365.76 136.712 1353.76 M143.012 1352.83 Q143.012 1364.28 143.827 1368.84 Q144.753 1373.77 147.273 1375.92 Q149.83 1378.03 152.646 1378.03 Q155.685 1378.03 158.204 1375.77 Q160.761 1373.47 161.539 1368.54 Q162.392 1363.69 162.355 1352.83 Q162.355 1342.27 161.613 1338.05 Q160.613 1333.12 157.945 1331.15 Q155.314 1329.15 152.646 1329.15 Q151.646 1329.15 150.571 1329.45 Q149.533 1329.74 148.014 1330.6 Q146.495 1331.45 145.309 1333.56 Q144.16 1335.67 143.605 1338.86 Q143.012 1342.97 143.012 1352.83 Z" fill="#000000" fill-rule="nonzero" fill-opacity="1"></path><path clip-path="url(#clip300)" d="M179.289 1376.8 Q178.14 1375.58 178.14 1373.99 Q178.14 1372.4 179.289 1371.25 Q180.437 1370.06 182.179 1370.06 Q183.846 1370.06 184.958 1371.17 Q186.107 1372.25 186.107 1374.03 Q186.107 1375.77 184.884 1376.92 Q183.698 1378.03 182.179 1378.03 Q180.437 1378.03 179.289 1376.8 Z" fill="#000000" fill-rule="nonzero" fill-opacity="1"></path><path clip-path="url(#clip300)" d="M195.741 1353.76 Q195.741 1342.6 198.557 1336.53 Q202.485 1327.48 211.749 1327.48 Q213.713 1327.48 215.751 1328.04 Q217.826 1328.56 220.42 1330.6 Q223.051 1332.64 224.644 1335.97 Q227.683 1342.42 227.683 1353.76 Q227.683 1364.84 224.866 1370.88 Q220.753 1379.7 211.675 1379.7 Q208.266 1379.7 204.783 1377.95 Q201.336 1376.21 199.15 1372.02 Q195.741 1365.76 195.741 1353.76 M202.04 1352.83 Q202.04 1364.28 202.856 1368.84 Q203.782 1373.77 206.302 1375.92 Q208.859 1378.03 211.675 1378.03 Q214.713 1378.03 217.233 1375.77 Q219.79 1373.47 220.568 1368.54 Q221.42 1363.69 221.383 1352.83 Q221.383 1342.27 220.642 1338.05 Q219.642 1333.12 216.974 1331.15 Q214.343 1329.15 211.675 1329.15 Q210.674 1329.15 209.6 1329.45 Q208.562 1329.74 207.043 1330.6 Q205.524 1331.45 204.338 1333.56 Q203.189 1335.67 202.633 1338.86 Q202.04 1342.97 202.04 1352.83 Z" fill="#000000" fill-rule="nonzero" fill-opacity="1"></path><path clip-path="url(#clip300)" d="M137.528 1030.49 Q137.528 1019.33 140.344 1013.25 Q144.272 1004.21 153.535 1004.21 Q155.499 1004.21 157.537 1004.77 Q159.612 1005.29 162.206 1007.33 Q164.837 1009.36 166.431 1012.7 Q169.469 1019.15 169.469 1030.49 Q169.469 1041.56 166.653 1047.6 Q162.54 1056.42 153.461 1056.42 Q150.052 1056.42 146.569 1054.68 Q143.123 1052.94 140.937 1048.75 Q137.528 1042.49 137.528 1030.49 M143.827 1029.56 Q143.827 1041.01 144.642 1045.57 Q145.569 1050.49 148.088 1052.64 Q150.645 1054.76 153.461 1054.76 Q156.5 1054.76 159.02 1052.5 Q161.576 1050.2 162.355 1045.27 Q163.207 1040.42 163.17 1029.56 Q163.17 1019 162.429 1014.77 Q161.428 1009.85 158.76 1007.88 Q156.129 1005.88 153.461 1005.88 Q152.461 1005.88 151.386 1006.18 Q150.349 1006.47 148.829 1007.33 Q147.31 1008.18 146.124 1010.29 Q144.976 1012.4 144.42 1015.59 Q143.827 1019.7 143.827 1029.56 Z" fill="#000000" fill-rule="nonzero" fill-opacity="1"></path><path clip-path="url(#clip300)" d="M180.104 1053.53 Q178.955 1052.31 178.955 1050.72 Q178.955 1049.12 180.104 1047.98 Q181.253 1046.79 182.994 1046.79 Q184.662 1046.79 185.773 1047.9 Q186.922 1048.98 186.922 1050.75 Q186.922 1052.5 185.699 1053.64 Q184.513 1054.76 182.994 1054.76 Q181.253 1054.76 180.104 1053.53 Z" fill="#000000" fill-rule="nonzero" fill-opacity="1"></path><path clip-path="url(#clip300)" d="M197.372 1054.76 Q197.372 1053.39 197.483 1052.98 Q197.631 1052.57 198.224 1051.94 L212.786 1035.71 Q220.753 1026.74 220.753 1018.92 Q220.753 1013.85 218.085 1010.22 Q215.454 1006.58 210.6 1006.58 Q207.265 1006.58 204.449 1008.62 Q201.633 1010.66 200.336 1014.29 Q200.558 1014.22 201.336 1014.22 Q203.226 1014.22 204.264 1015.4 Q205.338 1016.59 205.338 1018.18 Q205.338 1020.22 204.004 1021.22 Q202.707 1022.18 201.411 1022.18 Q200.892 1022.18 200.188 1022.07 Q199.521 1021.96 198.446 1020.93 Q197.372 1019.85 197.372 1017.96 Q197.372 1012.66 201.373 1008.44 Q205.412 1004.21 211.564 1004.21 Q218.53 1004.21 223.088 1008.36 Q227.683 1012.48 227.683 1018.92 Q227.683 1021.18 226.978 1023.26 Q226.312 1025.3 225.385 1026.89 Q224.496 1028.48 222.05 1031.04 Q219.605 1033.6 217.641 1035.41 Q215.677 1037.23 211.267 1041.08 L203.226 1048.9 L216.9 1048.9 Q223.569 1048.9 224.088 1048.31 Q224.829 1047.23 225.756 1041.56 L227.683 1041.56 L225.533 1054.76 L197.372 1054.76 Z" fill="#000000" fill-rule="nonzero" fill-opacity="1"></path><path clip-path="url(#clip300)" d="M135.86 707.214 Q135.86 696.06 138.676 689.983 Q142.604 680.942 151.868 680.942 Q153.832 680.942 155.87 681.498 Q157.945 682.017 160.539 684.055 Q163.17 686.093 164.763 689.428 Q167.802 695.875 167.802 707.214 Q167.802 718.293 164.985 724.333 Q160.872 733.153 151.794 733.153 Q148.385 733.153 144.902 731.411 Q141.455 729.669 139.269 725.482 Q135.86 719.22 135.86 707.214 M142.16 706.288 Q142.16 717.738 142.975 722.295 Q143.901 727.224 146.421 729.373 Q148.978 731.485 151.794 731.485 Q154.832 731.485 157.352 729.225 Q159.909 726.927 160.687 721.999 Q161.539 717.145 161.502 706.288 Q161.502 695.727 160.761 691.503 Q159.761 686.574 157.093 684.61 Q154.462 682.609 151.794 682.609 Q150.793 682.609 149.719 682.906 Q148.681 683.202 147.162 684.055 Q145.643 684.907 144.457 687.019 Q143.308 689.131 142.752 692.318 Q142.16 696.431 142.16 706.288 Z" fill="#000000" fill-rule="nonzero" fill-opacity="1"></path><path clip-path="url(#clip300)" d="M178.436 730.262 Q177.288 729.039 177.288 727.446 Q177.288 725.853 178.436 724.704 Q179.585 723.518 181.327 723.518 Q182.994 723.518 184.106 724.63 Q185.255 725.705 185.255 727.483 Q185.255 729.225 184.032 730.373 Q182.846 731.485 181.327 731.485 Q179.585 731.485 178.436 730.262 Z" fill="#000000" fill-rule="nonzero" fill-opacity="1"></path><path clip-path="url(#clip300)" d="M194.037 718.96 L194.037 716.626 L217.344 681.016 Q217.937 680.09 218.863 680.127 Q219.716 680.127 219.901 680.46 Q220.086 680.794 220.086 682.091 L220.086 716.626 L227.683 716.626 L227.683 718.96 L220.086 718.96 L220.086 725.556 Q220.086 727.743 220.976 728.447 Q221.902 729.151 225.83 729.151 L227.423 729.151 L227.423 731.485 Q224.311 731.263 217.122 731.263 Q209.97 731.263 206.858 731.485 L206.858 729.151 L208.451 729.151 Q212.379 729.151 213.305 728.484 Q214.232 727.78 214.232 725.556 L214.232 718.96 L194.037 718.96 M196.186 716.626 L214.676 716.626 L214.676 688.316 L196.186 716.626 Z" fill="#000000" fill-rule="nonzero" fill-opacity="1"></path><path clip-path="url(#clip300)" d="M136.935 383.943 Q136.935 372.789 139.751 366.712 Q143.679 357.671 152.943 357.671 Q154.906 357.671 156.944 358.227 Q159.02 358.745 161.613 360.783 Q164.244 362.821 165.838 366.156 Q168.876 372.604 168.876 383.943 Q168.876 395.022 166.06 401.062 Q161.947 409.881 152.868 409.881 Q149.459 409.881 145.976 408.14 Q142.53 406.398 140.344 402.211 Q136.935 395.949 136.935 383.943 M143.234 383.016 Q143.234 394.466 144.049 399.024 Q144.976 403.953 147.495 406.102 Q150.052 408.214 152.868 408.214 Q155.907 408.214 158.427 405.954 Q160.983 403.656 161.762 398.728 Q162.614 393.874 162.577 383.016 Q162.577 372.456 161.836 368.231 Q160.835 363.303 158.167 361.339 Q155.536 359.338 152.868 359.338 Q151.868 359.338 150.793 359.635 Q149.756 359.931 148.237 360.783 Q146.717 361.636 145.532 363.748 Q144.383 365.86 143.827 369.047 Q143.234 373.16 143.234 383.016 Z" fill="#000000" fill-rule="nonzero" fill-opacity="1"></path><path clip-path="url(#clip300)" d="M179.511 406.991 Q178.362 405.768 178.362 404.175 Q178.362 402.582 179.511 401.433 Q180.66 400.247 182.401 400.247 Q184.069 400.247 185.18 401.359 Q186.329 402.433 186.329 404.212 Q186.329 405.954 185.106 407.102 Q183.921 408.214 182.401 408.214 Q180.66 408.214 179.511 406.991 Z" fill="#000000" fill-rule="nonzero" fill-opacity="1"></path><path clip-path="url(#clip300)" d="M196.186 384.239 Q196.186 372.308 202.263 365.008 Q208.34 357.671 216.158 357.671 Q220.716 357.671 223.236 360.005 Q225.793 362.303 225.793 365.86 Q225.793 367.824 224.644 368.676 Q223.495 369.528 222.31 369.528 Q220.939 369.528 219.864 368.602 Q218.789 367.676 218.789 366.008 Q218.789 362.599 222.977 362.599 Q221.013 359.561 216.307 359.561 Q214.862 359.561 213.379 360.005 Q211.897 360.413 209.97 361.821 Q208.043 363.229 206.561 365.452 Q205.079 367.676 204.041 371.863 Q203.004 376.05 203.004 381.497 L203.004 383.313 Q206.117 375.791 212.49 375.828 Q218.863 375.828 223.273 380.682 Q227.683 385.536 227.683 392.725 Q227.683 400.099 223.088 404.99 Q218.493 409.881 212.045 409.881 Q209.155 409.881 206.524 408.659 Q203.93 407.473 201.485 404.731 Q199.076 401.989 197.631 396.727 Q196.186 391.465 196.186 384.239 M203.152 391.057 Q203.152 398.505 204.523 402.063 Q204.745 402.656 205.227 403.471 Q205.746 404.286 206.598 405.361 Q207.488 406.398 208.933 407.102 Q210.378 407.769 212.045 407.769 Q217.122 407.769 219.567 402.841 Q220.864 400.099 220.864 392.651 Q220.864 385.054 219.493 382.275 Q217.159 377.569 212.416 377.569 Q209.229 377.569 207.006 379.756 Q204.82 381.942 203.967 384.869 Q203.152 387.797 203.152 391.057 Z" fill="#000000" fill-rule="nonzero" fill-opacity="1"></path><path clip-path="url(#clip300)" d="M136.935 60.6716 Q136.935 49.518 139.751 43.441 Q143.679 34.3996 152.943 34.3996 Q154.906 34.3996 156.944 34.9554 Q159.02 35.4742 161.613 37.5122 Q164.244 39.5502 165.838 42.8852 Q168.876 49.3328 168.876 60.6716 Q168.876 71.7511 166.06 77.791 Q161.947 86.6101 152.868 86.6101 Q149.459 86.6101 145.976 84.8685 Q142.53 83.127 140.344 78.9397 Q136.935 72.6774 136.935 60.6716 M143.234 59.7452 Q143.234 71.1952 144.049 75.753 Q144.976 80.6813 147.495 82.8305 Q150.052 84.9427 152.868 84.9427 Q155.907 84.9427 158.427 82.6823 Q160.983 80.3849 161.762 75.4566 Q162.614 70.6024 162.577 59.7452 Q162.577 49.1845 161.836 44.9603 Q160.835 40.0319 158.167 38.068 Q155.536 36.0671 152.868 36.0671 Q151.868 36.0671 150.793 36.3635 Q149.756 36.6599 148.237 37.5122 Q146.717 38.3645 145.532 40.4766 Q144.383 42.5887 143.827 45.7755 Q143.234 49.8886 143.234 59.7452 Z" fill="#000000" fill-rule="nonzero" fill-opacity="1"></path><path clip-path="url(#clip300)" d="M179.511 83.7198 Q178.362 82.497 178.362 80.9037 Q178.362 79.3103 179.511 78.1616 Q180.66 76.9758 182.401 76.9758 Q184.069 76.9758 185.18 78.0875 Q186.329 79.1621 186.329 80.9407 Q186.329 82.6823 185.106 83.831 Q183.921 84.9427 182.401 84.9427 Q180.66 84.9427 179.511 83.7198 Z" fill="#000000" fill-rule="nonzero" fill-opacity="1"></path><path clip-path="url(#clip300)" d="M196.186 73.4926 Q196.186 65.007 207.117 59.5229 Q202.411 56.3362 201.559 55.4098 Q198.224 51.7043 198.224 47.0724 Q198.224 41.7735 202.226 38.1051 Q206.265 34.3996 211.971 34.3996 Q217.418 34.3996 221.531 37.5493 Q225.645 40.6989 225.645 45.7014 Q225.645 52.7418 216.455 57.4849 Q222.532 61.2645 223.977 62.8579 Q227.683 66.971 227.683 72.1957 Q227.683 78.2727 223.014 82.46 Q218.345 86.6101 211.897 86.6101 Q205.598 86.6101 200.892 82.9417 Q196.186 79.2732 196.186 73.4926 M199.965 73.4926 Q199.965 78.1986 203.486 81.3483 Q207.043 84.498 211.971 84.498 Q216.751 84.498 220.309 81.7559 Q223.903 79.0138 223.903 74.9378 Q223.903 73.3444 223.347 71.9734 Q222.828 70.6024 221.754 69.5278 Q220.716 68.4161 220.049 67.9344 Q219.419 67.4156 218.196 66.5634 L208.859 60.6716 Q199.965 65.5999 199.965 73.4926 M201.559 44.108 Q201.559 47.7394 205.375 50.2591 L214.787 56.3362 Q222.31 51.9266 222.31 45.7014 Q222.31 41.6624 219.234 38.9944 Q216.158 36.2894 211.897 36.2894 Q207.71 36.2894 204.634 38.5127 Q201.559 40.6989 201.559 44.108 Z" fill="#000000" fill-rule="nonzero" fill-opacity="1"></path><path clip-path="url(#clip300)" d="M38.6601 905.123 L35.498 905.123 L35.498 897.169 L23.8874 897.169 Q16.3776 897.169 12.0792 892.327 Q7.78086 887.436 7.78086 881.457 Q7.78086 877.505 9.90534 874.936 Q12.0298 872.367 14.8954 872.367 Q16.8223 872.367 18.1069 873.552 Q19.342 874.689 19.342 876.813 Q19.342 878.839 18.0575 880.025 Q16.7729 881.161 14.9942 881.161 Q11.7334 881.161 10.7453 878.147 Q10.0536 879.679 10.0042 881.457 Q10.0042 885.113 13.7591 887.979 Q17.514 890.795 23.7886 890.795 L35.498 890.795 L35.498 878.938 L38.6601 878.938 L38.6601 890.449 L71.2191 890.449 Q74.1341 890.449 75.0728 889.264 Q76.0115 888.028 76.0115 882.791 L76.0115 880.667 L79.1242 880.667 Q78.8277 884.718 78.8277 893.513 Q78.8277 894.748 78.8771 896.675 Q78.9265 898.552 79.0253 901.121 Q79.1242 903.641 79.1242 905.024 L76.0115 905.024 Q76.0115 899.639 75.3692 898.404 Q74.6776 897.169 71.4167 897.169 L38.6601 897.169 L38.6601 905.123 Z" fill="#000000" fill-rule="nonzero" fill-opacity="1"></path><path clip-path="url(#clip300)" d="M79.1242 874.293 L76.0115 874.293 Q76.0115 868.908 75.3692 867.673 Q74.6776 866.438 71.4167 866.438 L44.1936 866.438 Q40.4387 866.438 39.5494 867.722 Q38.6601 868.958 38.6601 873.898 L35.498 873.898 L34.4111 859.768 L71.5155 859.768 Q74.5293 859.768 75.2704 858.681 Q76.0115 857.594 76.0115 852.653 L79.1242 852.653 Q78.8277 862.979 78.8277 863.177 Q78.8277 864.56 79.1242 874.293 M16.7729 870.044 Q14.7472 870.044 13.1168 868.513 Q11.437 866.932 11.437 864.709 Q11.437 862.485 12.9686 860.904 Q14.4508 859.323 16.8223 859.323 Q19.1444 859.323 20.676 860.904 Q22.1582 862.485 22.1582 864.709 Q22.1582 867.031 20.5278 868.562 Q18.8974 870.044 16.7729 870.044 Z" fill="#000000" fill-rule="nonzero" fill-opacity="1"></path><path clip-path="url(#clip300)" d="M79.1242 846.379 L76.0115 846.379 Q76.0115 840.993 75.3692 839.758 Q74.6776 838.523 71.4167 838.523 L44.2924 838.523 Q40.5375 838.523 39.5988 839.857 Q38.6601 841.142 38.6601 846.379 L35.498 846.379 L34.4111 832.149 L45.0335 832.149 Q34.4111 827.406 34.4111 817.179 Q34.4111 809.571 38.166 806.557 Q40.6857 804.334 43.5019 803.889 Q46.3181 803.395 53.6303 803.395 L72.9483 803.395 Q75.0728 803.296 75.5669 801.666 Q76.0115 800.035 76.0115 795.49 L79.1242 795.49 Q78.8277 805.816 78.8277 806.853 Q78.8277 807.644 79.1242 818.266 L76.0115 818.266 Q76.0115 812.881 75.3692 811.646 Q74.6776 810.361 71.4167 810.361 L47.8497 810.361 Q42.7114 810.361 39.6976 811.942 Q36.6344 813.523 36.6344 817.871 Q36.6344 823.108 41.0316 827.308 Q45.4288 831.507 52.8398 831.507 L71.4167 831.507 Q74.6776 831.507 75.3692 830.272 Q76.0115 828.987 76.0115 823.652 L79.1242 823.652 Q78.8277 833.978 78.8277 834.966 Q78.8277 835.756 79.1242 846.379 Z" fill="#000000" fill-rule="nonzero" fill-opacity="1"></path><path clip-path="url(#clip300)" d="M69.4898 789.264 Q60.8931 789.264 56.3477 779.136 Q53.4327 773.059 52.6916 760.51 L48.9861 760.51 Q42.7114 760.51 39.4012 763.82 Q36.0415 767.081 36.0415 771.231 Q36.0415 778.642 40.6857 782.199 Q40.7845 779.185 42.3162 778.099 Q43.7984 777.012 45.33 777.012 Q47.3556 777.012 48.6896 778.296 Q49.9742 779.531 49.9742 781.656 Q49.9742 783.682 48.739 785.015 Q47.4545 786.349 45.2311 786.349 Q40.2905 786.349 37.0296 781.903 Q33.7688 777.407 33.7688 771.033 Q33.7688 762.733 39.3517 757.2 Q41.081 755.47 43.3043 754.63 Q45.5276 753.741 47.0098 753.642 Q48.4426 753.543 51.3082 753.543 L71.5155 753.543 Q72.1084 753.543 73.0965 753.346 Q74.0847 753.148 75.3692 752.259 Q76.6044 751.32 76.6044 749.788 Q76.6044 746.132 70.1321 746.182 L64.4504 746.182 L64.4504 743.613 L70.1321 743.613 Q75.5175 743.613 77.642 746.478 Q79.717 749.294 79.717 751.913 Q79.717 755.273 77.2467 757.397 Q74.7764 759.522 71.4167 759.818 Q75.2704 761.35 77.7902 764.858 Q80.2605 768.316 80.2605 773.059 Q80.2605 776.715 79.3218 780.174 Q78.4325 783.583 75.9127 786.448 Q73.3436 789.264 69.4898 789.264 M69.391 781.458 Q73.1459 781.458 75.5669 778.79 Q77.9878 776.122 77.9878 772.367 Q77.9878 768.118 74.727 764.314 Q71.4167 760.51 64.9444 760.51 L54.8161 760.51 Q55.2113 771.725 59.7073 776.616 Q64.1539 781.458 69.391 781.458 Z" fill="#000000" fill-rule="nonzero" fill-opacity="1"></path><path clip-path="url(#clip300)" d="M79.1242 739.561 L76.0115 739.561 Q76.0115 734.176 75.3692 732.941 Q74.6776 731.706 71.4167 731.706 L18.7986 731.706 Q15.0436 731.706 14.1049 733.04 Q13.1662 734.324 13.1662 739.561 L10.0042 739.561 L8.91721 725.036 L71.4167 725.036 Q74.6776 725.036 75.3692 723.751 Q76.0115 722.467 76.0115 717.131 L79.1242 717.131 Q79.1242 718.366 79.0253 720.935 Q78.9265 723.504 78.8771 725.382 Q78.8277 727.259 78.8277 728.346 Q78.8277 729.532 79.1242 739.561 Z" fill="#000000" fill-rule="nonzero" fill-opacity="1"></path><path clip-path="url(#clip300)" d="M79.1242 677.902 L76.0115 677.902 Q76.0115 672.516 75.3692 671.281 Q74.6776 670.046 71.4167 670.046 L18.7986 670.046 Q15.0436 670.046 14.1049 671.38 Q13.1662 672.665 13.1662 677.902 L10.0042 677.902 L8.91721 663.376 L71.4167 663.376 Q74.6776 663.376 75.3692 662.092 Q76.0115 660.807 76.0115 655.471 L79.1242 655.471 Q79.1242 656.706 79.0253 659.275 Q78.9265 661.845 78.8771 663.722 Q78.8277 665.599 78.8277 666.686 Q78.8277 667.872 79.1242 677.902 Z" fill="#000000" fill-rule="nonzero" fill-opacity="1"></path><path clip-path="url(#clip300)" d="M73.6894 643.762 Q67.0689 650.432 57.484 650.432 Q47.8497 650.432 40.834 643.91 Q33.7688 637.339 33.7688 627.952 Q33.7688 618.762 40.7845 612.191 Q47.7509 605.57 57.484 605.57 Q67.0195 605.57 73.64 612.24 Q80.2605 618.861 80.2605 628.05 Q80.2605 637.042 73.6894 643.762 M56.6441 642.032 Q66.476 642.032 70.9226 639.463 Q77.6914 635.511 77.6914 627.952 Q77.6914 624.197 75.6657 621.084 Q73.64 617.922 70.2309 616.193 Q65.7843 613.969 56.6441 613.969 Q46.911 613.969 42.6126 616.637 Q36.0415 620.59 36.0415 628.05 Q36.0415 631.311 37.7707 634.523 Q39.4506 637.685 42.8102 639.612 Q47.2568 642.032 56.6441 642.032 Z" fill="#000000" fill-rule="nonzero" fill-opacity="1"></path><path clip-path="url(#clip300)" d="M77.7902 599.296 L64.4504 599.296 Q63.314 599.296 62.9188 599.246 Q62.5235 599.197 62.2271 598.9 Q61.9306 598.604 61.9306 598.011 Q61.9306 597.319 62.2271 597.072 Q62.5235 596.776 63.6599 596.578 Q70.6262 595.047 74.3317 591.786 Q77.9878 588.476 77.9878 582.497 Q77.9878 576.816 75.4681 573.95 Q72.9483 571.084 68.7982 571.084 Q61.3871 571.084 59.5097 581.608 Q58.2745 587.685 57.484 590.205 Q56.6441 592.725 54.8161 594.948 Q51.2588 599.296 46.2193 599.296 Q41.1798 599.296 37.4743 595.491 Q33.7688 591.638 33.7688 583.14 Q33.7688 577.458 36.6344 573.604 Q35.7451 572.468 35.004 571.875 Q33.7688 570.541 33.7688 569.849 Q33.7688 569.059 34.3123 568.91 Q34.8063 568.762 36.2391 568.762 L46.4169 568.762 Q47.5533 568.762 47.9485 568.812 Q48.3438 568.861 48.6402 569.158 Q48.8872 569.454 48.8872 570.096 Q48.8872 571.233 47.9485 571.282 Q35.6957 572.073 35.6957 583.14 Q35.6957 589.118 38.0178 591.786 Q40.2905 594.454 43.4031 594.454 Q45.1323 594.454 46.4663 593.663 Q47.7509 592.823 48.5414 591.786 Q49.2825 590.699 50.0236 588.723 Q50.7153 586.746 50.9623 585.561 Q51.2094 584.325 51.7034 582.003 Q53.235 573.901 56.5453 570.492 Q60.7943 566.243 66.1796 566.243 Q72.1578 566.243 76.2092 570.294 Q80.2605 574.345 80.2605 582.497 Q80.2605 589.068 75.8633 593.663 Q76.4562 594.256 76.9997 594.701 Q77.4937 595.145 77.6914 595.343 Q77.889 595.491 78.0372 595.541 Q78.136 595.59 78.2348 595.689 Q80.2605 597.715 80.2605 598.209 Q80.2605 598.999 79.717 599.147 Q79.223 599.296 77.7902 599.296 Z" fill="#000000" fill-rule="nonzero" fill-opacity="1"></path><path clip-path="url(#clip300)" d="M77.7902 559.474 L64.4504 559.474 Q63.314 559.474 62.9188 559.424 Q62.5235 559.375 62.2271 559.079 Q61.9306 558.782 61.9306 558.189 Q61.9306 557.498 62.2271 557.251 Q62.5235 556.954 63.6599 556.756 Q70.6262 555.225 74.3317 551.964 Q77.9878 548.654 77.9878 542.676 Q77.9878 536.994 75.4681 534.128 Q72.9483 531.263 68.7982 531.263 Q61.3871 531.263 59.5097 541.786 Q58.2745 547.863 57.484 550.383 Q56.6441 552.903 54.8161 555.126 Q51.2588 559.474 46.2193 559.474 Q41.1798 559.474 37.4743 555.669 Q33.7688 551.816 33.7688 543.318 Q33.7688 537.636 36.6344 533.782 Q35.7451 532.646 35.004 532.053 Q33.7688 530.719 33.7688 530.027 Q33.7688 529.237 34.3123 529.089 Q34.8063 528.94 36.2391 528.94 L46.4169 528.94 Q47.5533 528.94 47.9485 528.99 Q48.3438 529.039 48.6402 529.336 Q48.8872 529.632 48.8872 530.274 Q48.8872 531.411 47.9485 531.46 Q35.6957 532.251 35.6957 543.318 Q35.6957 549.296 38.0178 551.964 Q40.2905 554.632 43.4031 554.632 Q45.1323 554.632 46.4663 553.841 Q47.7509 553.002 48.5414 551.964 Q49.2825 550.877 50.0236 548.901 Q50.7153 546.925 50.9623 545.739 Q51.2094 544.504 51.7034 542.181 Q53.235 534.079 56.5453 530.67 Q60.7943 526.421 66.1796 526.421 Q72.1578 526.421 76.2092 530.472 Q80.2605 534.523 80.2605 542.676 Q80.2605 549.247 75.8633 553.841 Q76.4562 554.434 76.9997 554.879 Q77.4937 555.324 77.6914 555.521 Q77.889 555.669 78.0372 555.719 Q78.136 555.768 78.2348 555.867 Q80.2605 557.893 80.2605 558.387 Q80.2605 559.177 79.717 559.326 Q79.223 559.474 77.7902 559.474 Z" fill="#000000" fill-rule="nonzero" fill-opacity="1"></path><polyline clip-path="url(#clip302)" style="stroke:#009af9; stroke-linecap:round; stroke-linejoin:round; stroke-width:4; stroke-opacity:1; fill:none" points="322.807,1067.16 426.535,1290.83 530.262,1346.46 "></polyline>
<polyline clip-path="url(#clip302)" style="stroke:#e26f46; stroke-linecap:round; stroke-linejoin:round; stroke-width:4; stroke-opacity:1; fill:none" points="322.807,850.482 426.535,1142.9 530.262,1288.19 633.99,1324.43 "></polyline>
<polyline clip-path="url(#clip302)" style="stroke:#3da44d; stroke-linecap:round; stroke-linejoin:round; stroke-width:4; stroke-opacity:1; fill:none" points="322.807,740.001 426.535,1101.6 530.262,1241.04 633.99,1260.51 737.718,1274.56 "></polyline>
<polyline clip-path="url(#clip302)" style="stroke:#c271d2; stroke-linecap:round; stroke-linejoin:round; stroke-width:4; stroke-opacity:1; fill:none" points="322.807,706.931 426.535,1073.84 530.262,1189.04 633.99,1188.57 737.718,1283.14 841.445,1281.95 "></polyline>
<polyline clip-path="url(#clip302)" style="stroke:#ac8d18; stroke-linecap:round; stroke-linejoin:round; stroke-width:4; stroke-opacity:1; fill:none" points="322.807,568.901 426.535,949.58 530.262,1130.01 633.99,1185.14 737.718,1234.91 841.445,1258.99 945.173,1318.71 "></polyline>
<polyline clip-path="url(#clip302)" style="stroke:#00a9ad; stroke-linecap:round; stroke-linejoin:round; stroke-width:4; stroke-opacity:1; fill:none" points="322.807,488.124 426.535,899.766 530.262,1101.09 633.99,1151.94 737.718,1198.52 841.445,1241.39 945.173,1241.45 1048.9,1259.74 "></polyline>
<polyline clip-path="url(#clip302)" style="stroke:#ed5d92; stroke-linecap:round; stroke-linejoin:round; stroke-width:4; stroke-opacity:1; fill:none" points="322.807,447.344 426.535,868.555 530.262,1068.01 633.99,1124.49 737.718,1171.7 841.445,1216.46 945.173,1241.75 1048.9,1238.55 1152.63,1288.82 "></polyline>
<polyline clip-path="url(#clip302)" style="stroke:#c68125; stroke-linecap:round; stroke-linejoin:round; stroke-width:4; stroke-opacity:1; fill:none" points="322.807,436.83 426.535,855.773 530.262,1045.48 633.99,1097.06 737.718,1098.79 841.445,1179.55 945.173,1215.5 1048.9,1203.65 1152.63,1271.65 1256.36,1282.06 "></polyline>
<polyline clip-path="url(#clip302)" style="stroke:#00a98d; stroke-linecap:round; stroke-linejoin:round; stroke-width:4; stroke-opacity:1; fill:none" points="322.807,393.677 426.535,819.566 530.262,1003.02 633.99,1059.88 737.718,1102.59 841.445,1143.52 945.173,1176.19 1048.9,1214.44 1152.63,1213.96 1256.36,1236.31 1360.08,1288.51 "></polyline>
<polyline clip-path="url(#clip302)" style="stroke:#8e971d; stroke-linecap:round; stroke-linejoin:round; stroke-width:4; stroke-opacity:1; fill:none" points="322.807,314.27 426.535,689.209 530.262,985.405 633.99,1040.3 737.718,1079.79 841.445,1118.5 945.173,1149.28 1048.9,1175.86 1152.63,1219.14 1256.36,1245.32 1360.08,1261.59 1463.81,1284.45 "></polyline>
<polyline clip-path="url(#clip302)" style="stroke:#00a8cb; stroke-linecap:round; stroke-linejoin:round; stroke-width:4; stroke-opacity:1; fill:none" points="322.807,309.644 426.535,682.762 530.262,968.321 633.99,1024.55 737.718,1064.69 841.445,1101.38 945.173,1127.85 1048.9,1163.02 1152.63,1165.62 1256.36,1192.02 1360.08,1221.96 1463.81,1239.76 1567.54,1261.95 "></polyline>
<polyline clip-path="url(#clip302)" style="stroke:#9b7fe8; stroke-linecap:round; stroke-linejoin:round; stroke-width:4; stroke-opacity:1; fill:none" points="322.807,257.289 426.535,674.328 530.262,958.463 633.99,1012.76 737.718,1053.4 841.445,1086.64 945.173,1114.06 1048.9,1146.7 1152.63,1177.52 1256.36,1203.08 1360.08,1220.28 1463.81,1214.12 1567.54,1215.44 1671.27,1242.89 "></polyline>
<polyline clip-path="url(#clip302)" style="stroke:#608cf6; stroke-linecap:round; stroke-linejoin:round; stroke-width:4; stroke-opacity:1; fill:none" points="322.807,191.562 426.535,649.974 530.262,938.639 633.99,992.454 737.718,1040.66 841.445,1074.1 945.173,1075.09 1048.9,1132.47 1152.63,1152.43 1256.36,1188.29 1360.08,1199.11 1463.81,1210.91 1567.54,1202.85 1671.27,1247.94 1774.99,1254.38 "></polyline>
<polyline clip-path="url(#clip302)" style="stroke:#f05f73; stroke-linecap:round; stroke-linejoin:round; stroke-width:4; stroke-opacity:1; fill:none" points="322.807,169.467 426.535,637.306 530.262,919.286 633.99,970.429 737.718,1016.02 841.445,1050.41 945.173,1077.76 1048.9,1082.32 1152.63,1101.85 1256.36,1165.16 1360.08,1178.37 1463.81,1204.68 1567.54,1225.98 1671.27,1237.31 1774.99,1241.46 1878.72,1280.05 "></polyline>
<polyline clip-path="url(#clip302)" style="stroke:#dd64b5; stroke-linecap:round; stroke-linejoin:round; stroke-width:4; stroke-opacity:1; fill:none" points="322.807,135.359 426.535,583.785 530.262,887.129 633.99,957.775 737.718,993.86 841.445,1038.05 945.173,1071.12 1048.9,1096.79 1152.63,1123.95 1256.36,1140.42 1360.08,1162.93 1463.81,1182.85 1567.54,1202.22 1671.27,1186.34 1774.99,1182.99 1878.72,1263.67 1982.45,1233.22 "></polyline>
<polyline clip-path="url(#clip302)" style="stroke:#6b9e32; stroke-linecap:round; stroke-linejoin:round; stroke-width:4; stroke-opacity:1; fill:none" points="322.807,124.513 426.535,568.692 530.262,867.89 633.99,936.563 737.718,980.362 841.445,1016.51 945.173,1051.85 1048.9,1078.4 1152.63,1097.77 1256.36,1130.25 1360.08,1151.06 1463.81,1143.43 1567.54,1166.92 1671.27,1199.6 1774.99,1216.25 1878.72,1220.77 1982.45,1237.59 2086.18,1243.68 "></polyline>
<polyline clip-path="url(#clip302)" style="stroke:#009af9; stroke-linecap:round; stroke-linejoin:round; stroke-width:4; stroke-opacity:1; fill:none" points="322.807,90.5713 426.535,533.441 530.262,840.117 633.99,907.691 737.718,953.173 841.445,995.642 945.173,1031.77 1048.9,1061.46 1152.63,1084.46 1256.36,1109.14 1360.08,1139.87 1463.81,1147.37 1567.54,1162.5 1671.27,1192.22 1774.99,1199.58 1878.72,1217.38 1982.45,1205.38 2086.18,1232.8 2189.9,1198.97 "></polyline>
<polyline clip-path="url(#clip302)" style="stroke:#e26f46; stroke-linecap:round; stroke-linejoin:round; stroke-width:4; stroke-opacity:1; fill:none" points="322.807,85.0853 426.535,523.393 530.262,826.051 633.99,893.593 737.718,940.513 841.445,984.056 945.173,1023.85 1048.9,1051.43 1152.63,1075.69 1256.36,1097.89 1360.08,1123.2 1463.81,1141.11 1567.54,1161.37 1671.27,1173.59 1774.99,1193.85 1878.72,1184.13 1982.45,1227.35 2086.18,1220.73 2189.9,1248.44 2293.63,1222.28 "></polyline>
<path clip-path="url(#clip300)" d="M908.714 765.733 L2283.12 765.733 L2283.12 91.8126 L908.714 91.8126  Z" fill="#ffffff" fill-rule="evenodd" fill-opacity="1"></path>
<polyline clip-path="url(#clip300)" style="stroke:#000000; stroke-linecap:round; stroke-linejoin:round; stroke-width:4; stroke-opacity:1; fill:none" points="908.714,765.733 2283.12,765.733 2283.12,91.8126 908.714,91.8126 908.714,765.733 "></polyline>
<path clip-path="url(#clip300)" d="M1475.17 191.568 Q1475.17 190.645 1477.3 190.645 L1491.95 190.645 L1495.81 176.514 L1477.06 176.514 Q1475.17 176.514 1475.17 175.591 Q1475.17 174.587 1477.62 174.628 L1496.37 174.628 L1503.03 150.301 Q1503.03 150.221 1503.19 149.578 Q1503.35 148.896 1503.47 148.695 Q1503.59 148.494 1503.75 148.053 Q1503.95 147.571 1504.2 147.411 Q1504.44 147.25 1504.68 147.25 Q1505.4 147.25 1505.4 148.213 Q1505.4 148.695 1504.92 150.702 L1498.33 174.628 L1516.04 174.628 L1522.66 150.301 Q1522.74 150.14 1522.86 149.578 Q1523.02 148.976 1523.1 148.695 Q1523.18 148.374 1523.34 148.013 Q1523.5 147.651 1523.74 147.451 Q1523.99 147.25 1524.23 147.25 Q1525.03 147.25 1525.07 148.213 Q1525.07 148.374 1524.51 150.702 L1517.92 174.628 L1532.13 174.628 Q1534.18 174.628 1534.18 175.591 Q1534.1 176.514 1532.05 176.514 L1517.32 176.514 L1513.55 190.645 L1532.21 190.645 Q1534.18 190.645 1534.18 191.568 Q1534.18 192.571 1532.21 192.531 L1512.99 192.531 L1506.24 216.858 Q1506.24 217.019 1506.08 217.581 Q1505.92 218.183 1505.84 218.464 Q1505.76 218.785 1505.52 219.186 Q1505.32 219.588 1505.12 219.748 Q1504.92 219.909 1504.68 219.909 Q1503.95 219.909 1503.95 218.945 Q1503.95 218.464 1504.44 216.457 L1511.02 192.531 L1493.32 192.531 L1486.65 216.858 Q1486.65 217.019 1486.49 217.581 Q1486.33 218.183 1486.25 218.464 Q1486.17 218.785 1485.97 219.186 Q1485.77 219.588 1485.57 219.748 Q1485.37 219.909 1485.13 219.909 Q1484.32 219.909 1484.28 218.945 Q1484.28 218.785 1484.85 216.457 L1491.43 192.531 L1477.22 192.531 Q1475.17 192.571 1475.17 191.568 M1493.92 190.645 L1511.58 190.645 L1515.44 176.514 L1497.77 176.514 L1493.92 190.645 Z" fill="#000000" fill-rule="nonzero" fill-opacity="1"></path><path clip-path="url(#clip300)" d="M1568.99 203.049 L1568.99 192.21 Q1568.99 191.287 1569.03 190.966 Q1569.07 190.645 1569.31 190.404 Q1569.55 190.163 1570.03 190.163 Q1570.59 190.163 1570.79 190.404 Q1571.03 190.645 1571.19 191.568 Q1572.44 197.228 1575.09 200.239 Q1577.78 203.209 1582.63 203.209 Q1587.25 203.209 1589.58 201.162 Q1591.91 199.115 1591.91 195.743 Q1591.91 189.721 1583.36 188.196 Q1578.42 187.192 1576.37 186.55 Q1574.32 185.868 1572.52 184.382 Q1568.99 181.492 1568.99 177.397 Q1568.99 173.303 1572.08 170.292 Q1575.21 167.281 1582.11 167.281 Q1586.73 167.281 1589.86 169.61 Q1590.78 168.887 1591.27 168.285 Q1592.35 167.281 1592.91 167.281 Q1593.55 167.281 1593.67 167.723 Q1593.79 168.124 1593.79 169.289 L1593.79 177.558 Q1593.79 178.481 1593.75 178.802 Q1593.71 179.124 1593.47 179.364 Q1593.23 179.565 1592.71 179.565 Q1591.79 179.565 1591.75 178.802 Q1591.1 168.847 1582.11 168.847 Q1577.26 168.847 1575.09 170.734 Q1572.92 172.58 1572.92 175.109 Q1572.92 176.514 1573.56 177.598 Q1574.24 178.642 1575.09 179.284 Q1575.97 179.886 1577.58 180.488 Q1579.18 181.05 1580.15 181.251 Q1581.15 181.452 1583.04 181.853 Q1589.62 183.098 1592.39 185.787 Q1595.84 189.24 1595.84 193.615 Q1595.84 198.472 1592.55 201.764 Q1589.26 205.056 1582.63 205.056 Q1577.3 205.056 1573.56 201.483 Q1573.08 201.965 1572.72 202.406 Q1572.36 202.808 1572.2 202.968 Q1572.08 203.129 1572.04 203.249 Q1572 203.33 1571.92 203.41 Q1570.27 205.056 1569.87 205.056 Q1569.23 205.056 1569.11 204.614 Q1568.99 204.213 1568.99 203.049 Z" fill="#000000" fill-rule="nonzero" fill-opacity="1"></path><path clip-path="url(#clip300)" d="M1601.34 204.133 L1601.34 201.604 Q1605.72 201.604 1606.72 201.082 Q1607.72 200.52 1607.72 197.87 L1607.72 175.752 Q1607.72 172.701 1606.68 171.978 Q1605.68 171.256 1601.66 171.256 L1601.66 168.686 L1613.14 167.803 L1613.14 197.951 Q1613.14 200.399 1614.03 201.001 Q1614.91 201.604 1618.92 201.604 L1618.92 204.133 Q1610.53 203.892 1610.37 203.892 Q1609.25 203.892 1601.34 204.133 M1604.79 153.472 Q1604.79 151.826 1606.04 150.502 Q1607.32 149.137 1609.13 149.137 Q1610.94 149.137 1612.22 150.381 Q1613.5 151.585 1613.5 153.512 Q1613.5 155.399 1612.22 156.643 Q1610.94 157.848 1609.13 157.848 Q1607.24 157.848 1606 156.523 Q1604.79 155.198 1604.79 153.472 Z" fill="#000000" fill-rule="nonzero" fill-opacity="1"></path><path clip-path="url(#clip300)" d="M1624.02 204.133 L1624.02 201.604 Q1628.4 201.604 1629.4 201.082 Q1630.4 200.52 1630.4 197.87 L1630.4 175.832 Q1630.4 172.781 1629.32 172.018 Q1628.28 171.256 1624.02 171.256 L1624.02 168.686 L1635.58 167.803 L1635.58 176.434 Q1639.44 167.803 1647.75 167.803 Q1653.93 167.803 1656.38 170.854 Q1658.18 172.901 1658.54 175.19 Q1658.95 177.478 1658.95 183.419 L1658.95 199.115 Q1659.03 200.841 1660.35 201.242 Q1661.68 201.604 1665.37 201.604 L1665.37 204.133 Q1656.98 203.892 1656.14 203.892 Q1655.49 203.892 1646.86 204.133 L1646.86 201.604 Q1651.24 201.604 1652.24 201.082 Q1653.29 200.52 1653.29 197.87 L1653.29 178.722 Q1653.29 174.547 1652 172.099 Q1650.72 169.61 1647.18 169.61 Q1642.93 169.61 1639.52 173.182 Q1636.1 176.755 1636.1 182.777 L1636.1 197.87 Q1636.1 200.52 1637.11 201.082 Q1638.15 201.604 1642.49 201.604 L1642.49 204.133 Q1634.1 203.892 1633.29 203.892 Q1632.65 203.892 1624.02 204.133 Z" fill="#000000" fill-rule="nonzero" fill-opacity="1"></path><path clip-path="url(#clip300)" d="M1669.26 204.133 L1669.26 201.604 Q1673.64 201.604 1674.64 201.082 Q1675.69 200.52 1675.69 197.87 L1675.69 155.118 Q1675.69 152.067 1674.6 151.304 Q1673.56 150.542 1669.26 150.542 L1669.26 147.973 L1681.11 147.089 L1681.11 186.55 L1692.71 176.514 Q1694.51 174.949 1694.51 173.303 Q1694.51 171.416 1692.14 171.256 L1692.14 168.686 Q1695.6 168.927 1701.34 168.927 Q1704.71 168.927 1707.08 168.686 L1707.08 171.256 Q1701.9 171.496 1696.72 175.671 Q1695.56 176.595 1692.79 179.003 Q1690.06 181.372 1690.06 181.612 Q1690.06 181.693 1690.14 181.893 Q1690.26 182.094 1690.42 182.255 Q1690.58 182.415 1690.58 182.496 L1701.02 197.228 Q1703.14 200.199 1704.71 200.921 Q1706.27 201.604 1709 201.604 L1709 204.133 Q1705.47 203.892 1701.82 203.892 Q1699.85 203.892 1692.95 204.133 L1692.95 201.604 Q1695.92 201.604 1695.92 199.677 Q1695.92 198.352 1689.25 189.159 Q1688.77 188.517 1687.69 187.112 Q1686.68 185.627 1686.12 184.904 L1680.86 189.4 L1680.86 197.87 Q1680.86 200.52 1681.87 201.082 Q1682.91 201.604 1687.29 201.604 L1687.29 204.133 Q1682.35 203.892 1678.25 203.892 Q1677.41 203.892 1669.26 204.133 Z" fill="#000000" fill-rule="nonzero" fill-opacity="1"></path><path clip-path="url(#clip300)" d="M1713.02 203.049 L1713.02 192.21 Q1713.02 191.287 1713.06 190.966 Q1713.1 190.645 1713.34 190.404 Q1713.58 190.163 1714.06 190.163 Q1714.62 190.163 1714.83 190.404 Q1715.07 190.645 1715.23 191.568 Q1716.47 197.228 1719.12 200.239 Q1721.81 203.209 1726.67 203.209 Q1731.28 203.209 1733.61 201.162 Q1735.94 199.115 1735.94 195.743 Q1735.94 189.721 1727.39 188.196 Q1722.45 187.192 1720.41 186.55 Q1718.36 185.868 1716.55 184.382 Q1713.02 181.492 1713.02 177.397 Q1713.02 173.303 1716.11 170.292 Q1719.24 167.281 1726.15 167.281 Q1730.76 167.281 1733.89 169.61 Q1734.82 168.887 1735.3 168.285 Q1736.38 167.281 1736.94 167.281 Q1737.59 167.281 1737.71 167.723 Q1737.83 168.124 1737.83 169.289 L1737.83 177.558 Q1737.83 178.481 1737.79 178.802 Q1737.75 179.124 1737.51 179.364 Q1737.27 179.565 1736.74 179.565 Q1735.82 179.565 1735.78 178.802 Q1735.14 168.847 1726.15 168.847 Q1721.29 168.847 1719.12 170.734 Q1716.95 172.58 1716.95 175.109 Q1716.95 176.514 1717.59 177.598 Q1718.28 178.642 1719.12 179.284 Q1720 179.886 1721.61 180.488 Q1723.22 181.05 1724.18 181.251 Q1725.18 181.452 1727.07 181.853 Q1733.65 183.098 1736.42 185.787 Q1739.87 189.24 1739.87 193.615 Q1739.87 198.472 1736.58 201.764 Q1733.29 205.056 1726.67 205.056 Q1721.33 205.056 1717.59 201.483 Q1717.11 201.965 1716.75 202.406 Q1716.39 202.808 1716.23 202.968 Q1716.11 203.129 1716.07 203.249 Q1716.03 203.33 1715.95 203.41 Q1714.3 205.056 1713.9 205.056 Q1713.26 205.056 1713.14 204.614 Q1713.02 204.213 1713.02 203.049 Z" fill="#000000" fill-rule="nonzero" fill-opacity="1"></path><polyline clip-path="url(#clip300)" style="stroke:#009af9; stroke-linecap:round; stroke-linejoin:round; stroke-width:6.5; stroke-opacity:1; fill:none" points="931.926,260.293 1071.2,260.293 "></polyline>
<path clip-path="url(#clip300)" d="M1094.41 277.293 Q1094.41 274.844 1095.81 273.68 Q1097.22 272.516 1099.03 272.516 Q1100.91 272.516 1102.24 273.761 Q1103.6 274.965 1103.6 277.092 Q1103.6 279.381 1102 280.665 Q1100.43 281.95 1098.18 281.629 Q1100.15 284.92 1103.76 286.406 Q1107.42 287.891 1110.79 287.891 Q1114.32 287.891 1117.17 284.84 Q1120.06 281.789 1120.06 274.323 Q1120.06 267.98 1117.57 264.327 Q1115.12 260.674 1110.27 260.674 L1106.65 260.674 Q1105.41 260.674 1105.05 260.554 Q1104.69 260.433 1104.69 259.751 Q1104.69 258.948 1105.93 258.787 Q1107.17 258.787 1109.14 258.546 Q1113.92 258.386 1116.45 254.251 Q1118.74 250.397 1118.74 244.898 Q1118.74 239.88 1116.33 237.792 Q1113.96 235.665 1110.87 235.665 Q1107.98 235.665 1104.81 236.869 Q1101.64 238.073 1099.91 240.763 Q1105.01 240.763 1105.01 244.898 Q1105.01 246.704 1103.84 247.909 Q1102.72 249.073 1100.83 249.073 Q1099.03 249.073 1097.82 247.949 Q1096.62 246.785 1096.62 244.818 Q1096.62 240.121 1100.79 236.869 Q1105.01 233.618 1111.19 233.618 Q1117.29 233.618 1121.79 236.829 Q1126.32 240.04 1126.32 244.978 Q1126.32 249.835 1123.11 253.81 Q1119.9 257.784 1114.8 259.43 Q1121.06 260.674 1124.8 264.929 Q1128.53 269.144 1128.53 274.323 Q1128.53 280.745 1123.47 285.482 Q1118.41 290.179 1111.03 290.179 Q1104.2 290.179 1099.31 286.486 Q1094.41 282.793 1094.41 277.293 Z" fill="#000000" fill-rule="nonzero" fill-opacity="1"></path><polyline clip-path="url(#clip300)" style="stroke:#e26f46; stroke-linecap:round; stroke-linejoin:round; stroke-width:6.5; stroke-opacity:1; fill:none" points="1382.32,260.293 1521.6,260.293 "></polyline>
<path clip-path="url(#clip300)" d="M1544.81 274.804 L1544.81 272.275 L1570.06 233.698 Q1570.7 232.694 1571.7 232.734 Q1572.63 232.734 1572.83 233.096 Q1573.03 233.457 1573.03 234.862 L1573.03 272.275 L1581.26 272.275 L1581.26 274.804 L1573.03 274.804 L1573.03 281.95 Q1573.03 284.318 1573.99 285.081 Q1574.99 285.844 1579.25 285.844 L1580.98 285.844 L1580.98 288.373 Q1577.6 288.132 1569.82 288.132 Q1562.07 288.132 1558.7 288.373 L1558.7 285.844 L1560.42 285.844 Q1564.68 285.844 1565.68 285.121 Q1566.69 284.358 1566.69 281.95 L1566.69 274.804 L1544.81 274.804 M1547.14 272.275 L1567.17 272.275 L1567.17 241.606 L1547.14 272.275 Z" fill="#000000" fill-rule="nonzero" fill-opacity="1"></path><polyline clip-path="url(#clip300)" style="stroke:#3da44d; stroke-linecap:round; stroke-linejoin:round; stroke-width:6.5; stroke-opacity:1; fill:none" points="1832.72,260.293 1971.99,260.293 "></polyline>
<path clip-path="url(#clip300)" d="M1995.21 275.125 Q1995.21 272.677 1996.53 271.753 Q1997.85 270.79 1999.26 270.79 Q2001.15 270.79 2002.23 271.994 Q2003.35 273.158 2003.35 274.804 Q2003.35 276.45 2002.23 277.654 Q2001.15 278.819 1999.26 278.819 Q1998.34 278.819 1997.85 278.658 Q1998.94 282.431 2002.23 285.161 Q2005.56 287.891 2009.94 287.891 Q2015.44 287.891 2018.73 282.552 Q2020.7 279.1 2020.7 271.272 Q2020.7 264.367 2019.21 260.915 Q2016.92 255.656 2012.23 255.656 Q2005.56 255.656 2001.63 261.397 Q2001.15 262.119 2000.58 262.159 Q1999.78 262.159 1999.58 261.718 Q1999.42 261.236 1999.42 259.992 L1999.42 235.665 Q1999.42 233.698 2000.22 233.698 Q2000.54 233.698 2001.23 233.939 Q2006.41 236.227 2012.15 236.267 Q2018.05 236.267 2023.35 233.858 Q2023.75 233.618 2023.99 233.618 Q2024.79 233.618 2024.83 234.541 Q2024.83 234.862 2024.15 235.825 Q2023.51 236.749 2022.1 237.993 Q2020.7 239.197 2018.89 240.362 Q2017.08 241.526 2014.43 242.329 Q2011.82 243.091 2008.93 243.091 Q2005.48 243.091 2001.95 242.008 L2001.95 258.025 Q2006.2 253.85 2012.39 253.85 Q2018.97 253.85 2023.51 259.149 Q2028.04 264.447 2028.04 271.834 Q2028.04 279.581 2022.66 284.88 Q2017.32 290.179 2010.1 290.179 Q2003.52 290.179 1999.34 285.482 Q1995.21 280.786 1995.21 275.125 Z" fill="#000000" fill-rule="nonzero" fill-opacity="1"></path><polyline clip-path="url(#clip300)" style="stroke:#c271d2; stroke-linecap:round; stroke-linejoin:round; stroke-width:6.5; stroke-opacity:1; fill:none" points="931.926,344.533 1071.2,344.533 "></polyline>
<path clip-path="url(#clip300)" d="M1094.41 346.64 Q1094.41 333.714 1100.99 325.806 Q1107.58 317.858 1116.05 317.858 Q1120.98 317.858 1123.71 320.387 Q1126.48 322.875 1126.48 326.729 Q1126.48 328.857 1125.24 329.78 Q1123.99 330.703 1122.71 330.703 Q1121.22 330.703 1120.06 329.7 Q1118.9 328.696 1118.9 326.89 Q1118.9 323.197 1123.43 323.197 Q1121.31 319.905 1116.21 319.905 Q1114.64 319.905 1113.04 320.387 Q1111.43 320.828 1109.34 322.354 Q1107.26 323.879 1105.65 326.288 Q1104.04 328.696 1102.92 333.232 Q1101.8 337.769 1101.8 343.67 L1101.8 345.637 Q1105.17 337.488 1112.07 337.528 Q1118.98 337.528 1123.75 342.786 Q1128.53 348.045 1128.53 355.833 Q1128.53 363.821 1123.55 369.12 Q1118.58 374.419 1111.59 374.419 Q1108.46 374.419 1105.61 373.094 Q1102.8 371.81 1100.15 368.839 Q1097.54 365.869 1095.97 360.168 Q1094.41 354.468 1094.41 346.64 M1101.96 354.026 Q1101.96 362.095 1103.44 365.949 Q1103.68 366.591 1104.2 367.474 Q1104.77 368.357 1105.69 369.522 Q1106.65 370.646 1108.22 371.408 Q1109.78 372.131 1111.59 372.131 Q1117.09 372.131 1119.74 366.792 Q1121.14 363.821 1121.14 355.753 Q1121.14 347.523 1119.66 344.513 Q1117.13 339.414 1111.99 339.414 Q1108.54 339.414 1106.13 341.783 Q1103.76 344.151 1102.84 347.323 Q1101.96 350.494 1101.96 354.026 Z" fill="#000000" fill-rule="nonzero" fill-opacity="1"></path><polyline clip-path="url(#clip300)" style="stroke:#ac8d18; stroke-linecap:round; stroke-linejoin:round; stroke-width:6.5; stroke-opacity:1; fill:none" points="1382.32,344.533 1521.6,344.533 "></polyline>
<path clip-path="url(#clip300)" d="M1544.81 333.955 L1547.5 317.055 L1549.54 317.055 Q1549.79 318.058 1550.19 318.5 Q1550.63 318.941 1552.96 319.303 Q1555.32 319.664 1560.1 319.664 L1580.05 319.664 Q1580.05 321.551 1579.33 322.554 L1568.21 338.17 Q1564.68 343.108 1563.11 352.22 Q1562.19 358.322 1562.23 365.708 L1562.23 369.883 Q1562.23 374.419 1558.42 374.419 Q1554.64 374.419 1554.64 369.883 Q1554.64 354.187 1564.76 338.973 Q1565.84 337.407 1569.82 331.827 Q1573.83 326.248 1573.99 326.007 L1556.97 326.007 Q1549.5 326.007 1548.9 326.488 Q1548.1 327.211 1546.85 333.955 L1544.81 333.955 Z" fill="#000000" fill-rule="nonzero" fill-opacity="1"></path><polyline clip-path="url(#clip300)" style="stroke:#00a9ad; stroke-linecap:round; stroke-linejoin:round; stroke-width:6.5; stroke-opacity:1; fill:none" points="1832.72,344.533 1971.99,344.533 "></polyline>
<path clip-path="url(#clip300)" d="M1995.21 360.208 Q1995.21 351.016 2007.05 345.075 Q2001.95 341.622 2001.03 340.619 Q1997.41 336.604 1997.41 331.587 Q1997.41 325.846 2001.75 321.872 Q2006.12 317.858 2012.31 317.858 Q2018.21 317.858 2022.66 321.27 Q2027.12 324.682 2027.12 330.101 Q2027.12 337.728 2017.16 342.867 Q2023.75 346.961 2025.31 348.687 Q2029.33 353.143 2029.33 358.803 Q2029.33 365.387 2024.27 369.923 Q2019.21 374.419 2012.23 374.419 Q2005.4 374.419 2000.3 370.445 Q1995.21 366.471 1995.21 360.208 M1999.3 360.208 Q1999.3 365.307 2003.11 368.719 Q2006.97 372.131 2012.31 372.131 Q2017.48 372.131 2021.34 369.16 Q2025.23 366.19 2025.23 361.774 Q2025.23 360.048 2024.63 358.563 Q2024.07 357.077 2022.9 355.913 Q2021.78 354.709 2021.06 354.187 Q2020.38 353.625 2019.05 352.702 L2008.93 346.319 Q1999.3 351.658 1999.3 360.208 M2001.03 328.375 Q2001.03 332.309 2005.16 335.039 L2015.36 341.622 Q2023.51 336.845 2023.51 330.101 Q2023.51 325.726 2020.17 322.835 Q2016.84 319.905 2012.23 319.905 Q2007.69 319.905 2004.36 322.313 Q2001.03 324.682 2001.03 328.375 Z" fill="#000000" fill-rule="nonzero" fill-opacity="1"></path><polyline clip-path="url(#clip300)" style="stroke:#ed5d92; stroke-linecap:round; stroke-linejoin:round; stroke-width:6.5; stroke-opacity:1; fill:none" points="931.926,428.773 1071.2,428.773 "></polyline>
<path clip-path="url(#clip300)" d="M1094.41 420.604 Q1094.41 416.228 1095.69 413.257 Q1096.98 410.247 1099.67 407.276 Q1104.61 402.098 1111.75 402.098 Q1114.8 402.098 1117.49 403.382 Q1120.22 404.667 1122.79 407.597 Q1125.4 410.488 1126.97 416.228 Q1128.53 421.928 1128.53 429.796 Q1128.53 442.522 1122.35 450.59 Q1116.21 458.659 1107.9 458.659 Q1102.64 458.659 1099.55 456.291 Q1096.46 453.882 1096.46 449.787 Q1096.46 447.66 1097.66 446.777 Q1098.87 445.853 1100.23 445.853 Q1101.72 445.853 1102.88 446.857 Q1104.04 447.82 1104.04 449.627 Q1104.04 451.112 1103.08 452.276 Q1102.16 453.4 1099.75 453.4 Q1102.12 456.371 1107.82 456.371 Q1109.86 456.371 1111.91 455.448 Q1113.96 454.484 1116.17 452.196 Q1118.41 449.868 1119.78 445.01 Q1121.14 440.153 1121.14 433.329 L1121.14 430.72 Q1117.85 438.949 1110.87 438.949 Q1103.96 438.949 1099.19 433.65 Q1094.41 428.351 1094.41 420.604 M1101.8 420.684 Q1101.8 428.833 1103.28 431.844 Q1105.81 437.022 1110.95 437.022 Q1115.97 437.022 1118.45 432.566 Q1120.98 428.07 1120.98 422.249 Q1120.98 414.181 1119.66 410.648 Q1117.21 404.145 1111.75 404.145 Q1106.33 404.145 1103.52 409.323 Q1101.8 412.374 1101.8 420.684 Z" fill="#000000" fill-rule="nonzero" fill-opacity="1"></path><polyline clip-path="url(#clip300)" style="stroke:#c68125; stroke-linecap:round; stroke-linejoin:round; stroke-width:6.5; stroke-opacity:1; fill:none" points="1382.32,428.773 1521.6,428.773 "></polyline>
<path clip-path="url(#clip300)" d="M1544.81 409.926 L1544.81 407.356 Q1554.68 407.356 1559.78 402.098 Q1561.19 402.098 1561.43 402.419 Q1561.67 402.74 1561.67 404.225 L1561.67 450.349 Q1561.67 452.798 1562.87 453.561 Q1564.08 454.324 1569.33 454.324 L1571.94 454.324 L1571.94 456.853 Q1569.05 456.612 1558.62 456.612 Q1548.18 456.612 1545.33 456.853 L1545.33 454.324 L1547.94 454.324 Q1553.12 454.324 1554.36 453.601 Q1555.61 452.838 1555.61 450.349 L1555.61 407.758 Q1551.31 409.926 1544.81 409.926 Z" fill="#000000" fill-rule="nonzero" fill-opacity="1"></path><path clip-path="url(#clip300)" d="M1581.82 430.559 Q1581.82 418.476 1584.87 411.893 Q1589.13 402.098 1599.16 402.098 Q1601.29 402.098 1603.5 402.7 Q1605.74 403.262 1608.55 405.47 Q1611.4 407.677 1613.13 411.29 Q1616.42 418.275 1616.42 430.559 Q1616.42 442.562 1613.37 449.105 Q1608.92 458.659 1599.08 458.659 Q1595.39 458.659 1591.61 456.772 Q1587.88 454.886 1585.51 450.349 Q1581.82 443.565 1581.82 430.559 M1588.64 429.555 Q1588.64 441.96 1589.53 446.897 Q1590.53 452.236 1593.26 454.564 Q1596.03 456.853 1599.08 456.853 Q1602.37 456.853 1605.1 454.404 Q1607.87 451.915 1608.72 446.576 Q1609.64 441.317 1609.6 429.555 Q1609.6 418.115 1608.8 413.538 Q1607.71 408.199 1604.82 406.072 Q1601.97 403.904 1599.08 403.904 Q1598 403.904 1596.83 404.225 Q1595.71 404.546 1594.06 405.47 Q1592.42 406.393 1591.13 408.681 Q1589.89 410.969 1589.29 414.422 Q1588.64 418.877 1588.64 429.555 Z" fill="#000000" fill-rule="nonzero" fill-opacity="1"></path><polyline clip-path="url(#clip300)" style="stroke:#00a98d; stroke-linecap:round; stroke-linejoin:round; stroke-width:6.5; stroke-opacity:1; fill:none" points="1832.72,428.773 1971.99,428.773 "></polyline>
<path clip-path="url(#clip300)" d="M1995.21 409.926 L1995.21 407.356 Q2005.08 407.356 2010.18 402.098 Q2011.58 402.098 2011.82 402.419 Q2012.07 402.74 2012.07 404.225 L2012.07 450.349 Q2012.07 452.798 2013.27 453.561 Q2014.47 454.324 2019.73 454.324 L2022.34 454.324 L2022.34 456.853 Q2019.45 456.612 2009.01 456.612 Q1998.58 456.612 1995.73 456.853 L1995.73 454.324 L1998.34 454.324 Q2003.52 454.324 2004.76 453.601 Q2006 452.838 2006 450.349 L2006 407.758 Q2001.71 409.926 1995.21 409.926 Z" fill="#000000" fill-rule="nonzero" fill-opacity="1"></path><path clip-path="url(#clip300)" d="M2036.31 409.926 L2036.31 407.356 Q2046.19 407.356 2051.29 402.098 Q2052.69 402.098 2052.93 402.419 Q2053.17 402.74 2053.17 404.225 L2053.17 450.349 Q2053.17 452.798 2054.38 453.561 Q2055.58 454.324 2060.84 454.324 L2063.45 454.324 L2063.45 456.853 Q2060.56 456.612 2050.12 456.612 Q2039.68 456.612 2036.83 456.853 L2036.83 454.324 L2039.44 454.324 Q2044.62 454.324 2045.87 453.601 Q2047.11 452.838 2047.11 450.349 L2047.11 407.758 Q2042.82 409.926 2036.31 409.926 Z" fill="#000000" fill-rule="nonzero" fill-opacity="1"></path><polyline clip-path="url(#clip300)" style="stroke:#8e971d; stroke-linecap:round; stroke-linejoin:round; stroke-width:6.5; stroke-opacity:1; fill:none" points="931.926,513.013 1071.2,513.013 "></polyline>
<path clip-path="url(#clip300)" d="M1094.41 494.166 L1094.41 491.596 Q1104.28 491.596 1109.38 486.338 Q1110.79 486.338 1111.03 486.659 Q1111.27 486.98 1111.27 488.465 L1111.27 534.589 Q1111.27 537.038 1112.47 537.801 Q1113.68 538.564 1118.94 538.564 L1121.55 538.564 L1121.55 541.093 Q1118.66 540.852 1108.22 540.852 Q1097.78 540.852 1094.93 541.093 L1094.93 538.564 L1097.54 538.564 Q1102.72 538.564 1103.96 537.841 Q1105.21 537.078 1105.21 534.589 L1105.21 491.998 Q1100.91 494.166 1094.41 494.166 Z" fill="#000000" fill-rule="nonzero" fill-opacity="1"></path><path clip-path="url(#clip300)" d="M1132.3 541.093 Q1132.3 539.607 1132.42 539.166 Q1132.59 538.724 1133.23 538.042 L1149 520.459 Q1157.63 510.745 1157.63 502.274 Q1157.63 496.775 1154.74 492.841 Q1151.89 488.907 1146.64 488.907 Q1143.02 488.907 1139.97 491.115 Q1136.92 493.322 1135.52 497.257 Q1135.76 497.176 1136.6 497.176 Q1138.65 497.176 1139.77 498.461 Q1140.94 499.745 1140.94 501.472 Q1140.94 503.679 1139.49 504.763 Q1138.08 505.807 1136.68 505.807 Q1136.12 505.807 1135.36 505.687 Q1134.63 505.566 1133.47 504.442 Q1132.3 503.278 1132.3 501.231 Q1132.3 495.49 1136.64 490.914 Q1141.02 486.338 1147.68 486.338 Q1155.23 486.338 1160.16 490.834 Q1165.14 495.29 1165.14 502.274 Q1165.14 504.723 1164.38 506.971 Q1163.66 509.179 1162.65 510.905 Q1161.69 512.631 1159.04 515.401 Q1156.39 518.171 1154.26 520.138 Q1152.13 522.105 1147.36 526.28 L1138.65 534.75 L1153.46 534.75 Q1160.69 534.75 1161.25 534.108 Q1162.05 532.944 1163.05 526.802 L1165.14 526.802 L1162.81 541.093 L1132.3 541.093 Z" fill="#000000" fill-rule="nonzero" fill-opacity="1"></path><polyline clip-path="url(#clip300)" style="stroke:#00a8cb; stroke-linecap:round; stroke-linejoin:round; stroke-width:6.5; stroke-opacity:1; fill:none" points="1382.32,513.013 1521.6,513.013 "></polyline>
<path clip-path="url(#clip300)" d="M1544.81 494.166 L1544.81 491.596 Q1554.68 491.596 1559.78 486.338 Q1561.19 486.338 1561.43 486.659 Q1561.67 486.98 1561.67 488.465 L1561.67 534.589 Q1561.67 537.038 1562.87 537.801 Q1564.08 538.564 1569.33 538.564 L1571.94 538.564 L1571.94 541.093 Q1569.05 540.852 1558.62 540.852 Q1548.18 540.852 1545.33 541.093 L1545.33 538.564 L1547.94 538.564 Q1553.12 538.564 1554.36 537.841 Q1555.61 537.078 1555.61 534.589 L1555.61 491.998 Q1551.31 494.166 1544.81 494.166 Z" fill="#000000" fill-rule="nonzero" fill-opacity="1"></path><path clip-path="url(#clip300)" d="M1582.06 530.013 Q1582.06 527.564 1583.47 526.4 Q1584.87 525.236 1586.68 525.236 Q1588.56 525.236 1589.89 526.481 Q1591.25 527.685 1591.25 529.812 Q1591.25 532.101 1589.65 533.385 Q1588.08 534.67 1585.83 534.349 Q1587.8 537.64 1591.41 539.126 Q1595.07 540.611 1598.44 540.611 Q1601.97 540.611 1604.82 537.56 Q1607.71 534.509 1607.71 527.043 Q1607.71 520.7 1605.22 517.047 Q1602.77 513.394 1597.92 513.394 L1594.3 513.394 Q1593.06 513.394 1592.7 513.274 Q1592.34 513.153 1592.34 512.471 Q1592.34 511.668 1593.58 511.507 Q1594.83 511.507 1596.79 511.266 Q1601.57 511.106 1604.1 506.971 Q1606.39 503.117 1606.39 497.618 Q1606.39 492.6 1603.98 490.512 Q1601.61 488.385 1598.52 488.385 Q1595.63 488.385 1592.46 489.589 Q1589.29 490.793 1587.56 493.483 Q1592.66 493.483 1592.66 497.618 Q1592.66 499.424 1591.49 500.629 Q1590.37 501.793 1588.48 501.793 Q1586.68 501.793 1585.47 500.669 Q1584.27 499.505 1584.27 497.538 Q1584.27 492.841 1588.44 489.589 Q1592.66 486.338 1598.84 486.338 Q1604.94 486.338 1609.44 489.549 Q1613.97 492.76 1613.97 497.698 Q1613.97 502.555 1610.76 506.53 Q1607.55 510.504 1602.45 512.15 Q1608.72 513.394 1612.45 517.649 Q1616.18 521.864 1616.18 527.043 Q1616.18 533.465 1611.12 538.202 Q1606.07 542.899 1598.68 542.899 Q1591.85 542.899 1586.96 539.206 Q1582.06 535.513 1582.06 530.013 Z" fill="#000000" fill-rule="nonzero" fill-opacity="1"></path><polyline clip-path="url(#clip300)" style="stroke:#9b7fe8; stroke-linecap:round; stroke-linejoin:round; stroke-width:6.5; stroke-opacity:1; fill:none" points="1832.72,513.013 1971.99,513.013 "></polyline>
<path clip-path="url(#clip300)" d="M1995.21 494.166 L1995.21 491.596 Q2005.08 491.596 2010.18 486.338 Q2011.58 486.338 2011.82 486.659 Q2012.07 486.98 2012.07 488.465 L2012.07 534.589 Q2012.07 537.038 2013.27 537.801 Q2014.47 538.564 2019.73 538.564 L2022.34 538.564 L2022.34 541.093 Q2019.45 540.852 2009.01 540.852 Q1998.58 540.852 1995.73 541.093 L1995.73 538.564 L1998.34 538.564 Q2003.52 538.564 2004.76 537.841 Q2006 537.078 2006 534.589 L2006 491.998 Q2001.71 494.166 1995.21 494.166 Z" fill="#000000" fill-rule="nonzero" fill-opacity="1"></path><path clip-path="url(#clip300)" d="M2031.29 527.524 L2031.29 524.995 L2056.54 486.418 Q2057.19 485.414 2058.19 485.454 Q2059.11 485.454 2059.31 485.816 Q2059.51 486.177 2059.51 487.582 L2059.51 524.995 L2067.74 524.995 L2067.74 527.524 L2059.51 527.524 L2059.51 534.67 Q2059.51 537.038 2060.48 537.801 Q2061.48 538.564 2065.74 538.564 L2067.46 538.564 L2067.46 541.093 Q2064.09 540.852 2056.3 540.852 Q2048.56 540.852 2045.18 541.093 L2045.18 538.564 L2046.91 538.564 Q2051.16 538.564 2052.17 537.841 Q2053.17 537.078 2053.17 534.67 L2053.17 527.524 L2031.29 527.524 M2033.62 524.995 L2053.65 524.995 L2053.65 494.326 L2033.62 524.995 Z" fill="#000000" fill-rule="nonzero" fill-opacity="1"></path><polyline clip-path="url(#clip300)" style="stroke:#608cf6; stroke-linecap:round; stroke-linejoin:round; stroke-width:6.5; stroke-opacity:1; fill:none" points="931.926,597.253 1071.2,597.253 "></polyline>
<path clip-path="url(#clip300)" d="M1094.41 578.406 L1094.41 575.836 Q1104.28 575.836 1109.38 570.578 Q1110.79 570.578 1111.03 570.899 Q1111.27 571.22 1111.27 572.705 L1111.27 618.829 Q1111.27 621.278 1112.47 622.041 Q1113.68 622.804 1118.94 622.804 L1121.55 622.804 L1121.55 625.333 Q1118.66 625.092 1108.22 625.092 Q1097.78 625.092 1094.93 625.333 L1094.93 622.804 L1097.54 622.804 Q1102.72 622.804 1103.96 622.081 Q1105.21 621.318 1105.21 618.829 L1105.21 576.238 Q1100.91 578.406 1094.41 578.406 Z" fill="#000000" fill-rule="nonzero" fill-opacity="1"></path><path clip-path="url(#clip300)" d="M1132.3 612.085 Q1132.3 609.637 1133.63 608.713 Q1134.95 607.75 1136.36 607.75 Q1138.25 607.75 1139.33 608.954 Q1140.45 610.118 1140.45 611.764 Q1140.45 613.41 1139.33 614.614 Q1138.25 615.779 1136.36 615.779 Q1135.44 615.779 1134.95 615.618 Q1136.04 619.391 1139.33 622.121 Q1142.66 624.851 1147.04 624.851 Q1152.54 624.851 1155.83 619.512 Q1157.8 616.06 1157.8 608.232 Q1157.8 601.327 1156.31 597.875 Q1154.02 592.616 1149.32 592.616 Q1142.66 592.616 1138.73 598.357 Q1138.25 599.079 1137.68 599.119 Q1136.88 599.119 1136.68 598.678 Q1136.52 598.196 1136.52 596.952 L1136.52 572.625 Q1136.52 570.658 1137.32 570.658 Q1137.64 570.658 1138.33 570.899 Q1143.5 573.187 1149.24 573.227 Q1155.15 573.227 1160.44 570.818 Q1160.85 570.578 1161.09 570.578 Q1161.89 570.578 1161.93 571.501 Q1161.93 571.822 1161.25 572.785 Q1160.61 573.709 1159.2 574.953 Q1157.8 576.157 1155.99 577.322 Q1154.18 578.486 1151.53 579.289 Q1148.92 580.051 1146.03 580.051 Q1142.58 580.051 1139.05 578.968 L1139.05 594.985 Q1143.3 590.81 1149.49 590.81 Q1156.07 590.81 1160.61 596.109 Q1165.14 601.407 1165.14 608.794 Q1165.14 616.541 1159.76 621.84 Q1154.42 627.139 1147.2 627.139 Q1140.61 627.139 1136.44 622.442 Q1132.3 617.746 1132.3 612.085 Z" fill="#000000" fill-rule="nonzero" fill-opacity="1"></path><polyline clip-path="url(#clip300)" style="stroke:#f05f73; stroke-linecap:round; stroke-linejoin:round; stroke-width:6.5; stroke-opacity:1; fill:none" points="1382.32,597.253 1521.6,597.253 "></polyline>
<path clip-path="url(#clip300)" d="M1544.81 578.406 L1544.81 575.836 Q1554.68 575.836 1559.78 570.578 Q1561.19 570.578 1561.43 570.899 Q1561.67 571.22 1561.67 572.705 L1561.67 618.829 Q1561.67 621.278 1562.87 622.041 Q1564.08 622.804 1569.33 622.804 L1571.94 622.804 L1571.94 625.333 Q1569.05 625.092 1558.62 625.092 Q1548.18 625.092 1545.33 625.333 L1545.33 622.804 L1547.94 622.804 Q1553.12 622.804 1554.36 622.081 Q1555.61 621.318 1555.61 618.829 L1555.61 576.238 Q1551.31 578.406 1544.81 578.406 Z" fill="#000000" fill-rule="nonzero" fill-opacity="1"></path><path clip-path="url(#clip300)" d="M1582.06 599.36 Q1582.06 586.434 1588.64 578.526 Q1595.23 570.578 1603.7 570.578 Q1608.63 570.578 1611.36 573.107 Q1614.13 575.595 1614.13 579.449 Q1614.13 581.577 1612.89 582.5 Q1611.65 583.423 1610.36 583.423 Q1608.88 583.423 1607.71 582.42 Q1606.55 581.416 1606.55 579.61 Q1606.55 575.917 1611.08 575.917 Q1608.96 572.625 1603.86 572.625 Q1602.29 572.625 1600.69 573.107 Q1599.08 573.548 1596.99 575.074 Q1594.91 576.599 1593.3 579.008 Q1591.69 581.416 1590.57 585.952 Q1589.45 590.489 1589.45 596.39 L1589.45 598.357 Q1592.82 590.208 1599.72 590.248 Q1606.63 590.248 1611.4 595.506 Q1616.18 600.765 1616.18 608.553 Q1616.18 616.541 1611.2 621.84 Q1606.23 627.139 1599.24 627.139 Q1596.11 627.139 1593.26 625.814 Q1590.45 624.53 1587.8 621.559 Q1585.19 618.589 1583.63 612.888 Q1582.06 607.188 1582.06 599.36 M1589.61 606.746 Q1589.61 614.815 1591.09 618.669 Q1591.33 619.311 1591.85 620.194 Q1592.42 621.077 1593.34 622.242 Q1594.3 623.366 1595.87 624.128 Q1597.43 624.851 1599.24 624.851 Q1604.74 624.851 1607.39 619.512 Q1608.8 616.541 1608.8 608.473 Q1608.8 600.243 1607.31 597.233 Q1604.78 592.134 1599.64 592.134 Q1596.19 592.134 1593.78 594.503 Q1591.41 596.871 1590.49 600.043 Q1589.61 603.214 1589.61 606.746 Z" fill="#000000" fill-rule="nonzero" fill-opacity="1"></path><polyline clip-path="url(#clip300)" style="stroke:#dd64b5; stroke-linecap:round; stroke-linejoin:round; stroke-width:6.5; stroke-opacity:1; fill:none" points="1832.72,597.253 1971.99,597.253 "></polyline>
<path clip-path="url(#clip300)" d="M1995.21 578.406 L1995.21 575.836 Q2005.08 575.836 2010.18 570.578 Q2011.58 570.578 2011.82 570.899 Q2012.07 571.22 2012.07 572.705 L2012.07 618.829 Q2012.07 621.278 2013.27 622.041 Q2014.47 622.804 2019.73 622.804 L2022.34 622.804 L2022.34 625.333 Q2019.45 625.092 2009.01 625.092 Q1998.58 625.092 1995.73 625.333 L1995.73 622.804 L1998.34 622.804 Q2003.52 622.804 2004.76 622.081 Q2006 621.318 2006 618.829 L2006 576.238 Q2001.71 578.406 1995.21 578.406 Z" fill="#000000" fill-rule="nonzero" fill-opacity="1"></path><path clip-path="url(#clip300)" d="M2033.62 586.675 L2036.31 569.775 L2038.36 569.775 Q2038.6 570.778 2039 571.22 Q2039.44 571.661 2041.77 572.023 Q2044.14 572.384 2048.92 572.384 L2068.87 572.384 Q2068.87 574.271 2068.15 575.274 L2057.03 590.89 Q2053.49 595.828 2051.93 604.94 Q2051 611.042 2051.04 618.428 L2051.04 622.603 Q2051.04 627.139 2047.23 627.139 Q2043.46 627.139 2043.46 622.603 Q2043.46 606.907 2053.57 591.693 Q2054.66 590.127 2058.63 584.547 Q2062.65 578.968 2062.81 578.727 L2045.79 578.727 Q2038.32 578.727 2037.72 579.208 Q2036.91 579.931 2035.67 586.675 L2033.62 586.675 Z" fill="#000000" fill-rule="nonzero" fill-opacity="1"></path><polyline clip-path="url(#clip300)" style="stroke:#6b9e32; stroke-linecap:round; stroke-linejoin:round; stroke-width:6.5; stroke-opacity:1; fill:none" points="931.926,681.493 1071.2,681.493 "></polyline>
<path clip-path="url(#clip300)" d="M1094.41 662.646 L1094.41 660.076 Q1104.28 660.076 1109.38 654.818 Q1110.79 654.818 1111.03 655.139 Q1111.27 655.46 1111.27 656.945 L1111.27 703.069 Q1111.27 705.518 1112.47 706.281 Q1113.68 707.044 1118.94 707.044 L1121.55 707.044 L1121.55 709.573 Q1118.66 709.332 1108.22 709.332 Q1097.78 709.332 1094.93 709.573 L1094.93 707.044 L1097.54 707.044 Q1102.72 707.044 1103.96 706.321 Q1105.21 705.558 1105.21 703.069 L1105.21 660.478 Q1100.91 662.646 1094.41 662.646 Z" fill="#000000" fill-rule="nonzero" fill-opacity="1"></path><path clip-path="url(#clip300)" d="M1131.66 697.168 Q1131.66 687.976 1143.5 682.035 Q1138.41 678.582 1137.48 677.579 Q1133.87 673.564 1133.87 668.547 Q1133.87 662.806 1138.21 658.832 Q1142.58 654.818 1148.76 654.818 Q1154.66 654.818 1159.12 658.23 Q1163.58 661.642 1163.58 667.061 Q1163.58 674.688 1153.62 679.827 Q1160.2 683.921 1161.77 685.647 Q1165.78 690.103 1165.78 695.763 Q1165.78 702.347 1160.73 706.883 Q1155.67 711.379 1148.68 711.379 Q1141.86 711.379 1136.76 707.405 Q1131.66 703.431 1131.66 697.168 M1135.76 697.168 Q1135.76 702.267 1139.57 705.679 Q1143.42 709.091 1148.76 709.091 Q1153.94 709.091 1157.8 706.12 Q1161.69 703.15 1161.69 698.734 Q1161.69 697.008 1161.09 695.523 Q1160.52 694.037 1159.36 692.873 Q1158.24 691.669 1157.51 691.147 Q1156.83 690.585 1155.51 689.662 L1145.39 683.279 Q1135.76 688.618 1135.76 697.168 M1137.48 665.335 Q1137.48 669.269 1141.62 671.999 L1151.81 678.582 Q1159.96 673.805 1159.96 667.061 Q1159.96 662.686 1156.63 659.795 Q1153.3 656.865 1148.68 656.865 Q1144.15 656.865 1140.81 659.273 Q1137.48 661.642 1137.48 665.335 Z" fill="#000000" fill-rule="nonzero" fill-opacity="1"></path><polyline clip-path="url(#clip300)" style="stroke:#009af9; stroke-linecap:round; stroke-linejoin:round; stroke-width:6.5; stroke-opacity:1; fill:none" points="1382.32,681.493 1521.6,681.493 "></polyline>
<path clip-path="url(#clip300)" d="M1544.81 662.646 L1544.81 660.076 Q1554.68 660.076 1559.78 654.818 Q1561.19 654.818 1561.43 655.139 Q1561.67 655.46 1561.67 656.945 L1561.67 703.069 Q1561.67 705.518 1562.87 706.281 Q1564.08 707.044 1569.33 707.044 L1571.94 707.044 L1571.94 709.573 Q1569.05 709.332 1558.62 709.332 Q1548.18 709.332 1545.33 709.573 L1545.33 707.044 L1547.94 707.044 Q1553.12 707.044 1554.36 706.321 Q1555.61 705.558 1555.61 703.069 L1555.61 660.478 Q1551.31 662.646 1544.81 662.646 Z" fill="#000000" fill-rule="nonzero" fill-opacity="1"></path><path clip-path="url(#clip300)" d="M1582.06 673.324 Q1582.06 668.948 1583.34 665.977 Q1584.63 662.967 1587.32 659.996 Q1592.26 654.818 1599.4 654.818 Q1602.45 654.818 1605.14 656.102 Q1607.87 657.387 1610.44 660.317 Q1613.05 663.208 1614.62 668.948 Q1616.18 674.648 1616.18 682.516 Q1616.18 695.242 1610 703.31 Q1603.86 711.379 1595.55 711.379 Q1590.29 711.379 1587.2 709.011 Q1584.11 706.602 1584.11 702.507 Q1584.11 700.38 1585.31 699.497 Q1586.52 698.573 1587.88 698.573 Q1589.37 698.573 1590.53 699.577 Q1591.69 700.54 1591.69 702.347 Q1591.69 703.832 1590.73 704.996 Q1589.81 706.12 1587.4 706.12 Q1589.77 709.091 1595.47 709.091 Q1597.52 709.091 1599.56 708.168 Q1601.61 707.204 1603.82 704.916 Q1606.07 702.588 1607.43 697.73 Q1608.8 692.873 1608.8 686.049 L1608.8 683.44 Q1605.5 691.669 1598.52 691.669 Q1591.61 691.669 1586.84 686.37 Q1582.06 681.071 1582.06 673.324 M1589.45 673.404 Q1589.45 681.553 1590.93 684.564 Q1593.46 689.742 1598.6 689.742 Q1603.62 689.742 1606.11 685.286 Q1608.63 680.79 1608.63 674.969 Q1608.63 666.901 1607.31 663.368 Q1604.86 656.865 1599.4 656.865 Q1593.98 656.865 1591.17 662.043 Q1589.45 665.094 1589.45 673.404 Z" fill="#000000" fill-rule="nonzero" fill-opacity="1"></path><polyline clip-path="url(#clip300)" style="stroke:#e26f46; stroke-linecap:round; stroke-linejoin:round; stroke-width:6.5; stroke-opacity:1; fill:none" points="1832.72,681.493 1971.99,681.493 "></polyline>
<path clip-path="url(#clip300)" d="M1995.21 709.573 Q1995.21 708.087 1995.33 707.646 Q1995.49 707.204 1996.13 706.522 L2011.9 688.939 Q2020.54 679.225 2020.54 670.754 Q2020.54 665.255 2017.65 661.321 Q2014.8 657.387 2009.54 657.387 Q2005.92 657.387 2002.87 659.595 Q1999.82 661.802 1998.42 665.737 Q1998.66 665.656 1999.5 665.656 Q2001.55 665.656 2002.67 666.941 Q2003.84 668.225 2003.84 669.952 Q2003.84 672.159 2002.39 673.243 Q2000.99 674.287 1999.58 674.287 Q1999.02 674.287 1998.26 674.167 Q1997.53 674.046 1996.37 672.922 Q1995.21 671.758 1995.21 669.711 Q1995.21 663.97 1999.54 659.394 Q2003.92 654.818 2010.58 654.818 Q2018.13 654.818 2023.06 659.314 Q2028.04 663.77 2028.04 670.754 Q2028.04 673.203 2027.28 675.451 Q2026.56 677.659 2025.55 679.385 Q2024.59 681.111 2021.94 683.881 Q2019.29 686.651 2017.16 688.618 Q2015.04 690.585 2010.26 694.76 L2001.55 703.23 L2016.36 703.23 Q2023.59 703.23 2024.15 702.588 Q2024.95 701.424 2025.96 695.282 L2028.04 695.282 L2025.71 709.573 L1995.21 709.573 Z" fill="#000000" fill-rule="nonzero" fill-opacity="1"></path><path clip-path="url(#clip300)" d="M2035.43 683.279 Q2035.43 671.196 2038.48 664.613 Q2042.73 654.818 2052.77 654.818 Q2054.9 654.818 2057.11 655.42 Q2059.35 655.982 2062.16 658.19 Q2065.01 660.397 2066.74 664.01 Q2070.03 670.995 2070.03 683.279 Q2070.03 695.282 2066.98 701.825 Q2062.53 711.379 2052.69 711.379 Q2049 711.379 2045.22 709.492 Q2041.49 707.606 2039.12 703.069 Q2035.43 696.285 2035.43 683.279 M2042.25 682.275 Q2042.25 694.68 2043.14 699.617 Q2044.14 704.956 2046.87 707.284 Q2049.64 709.573 2052.69 709.573 Q2055.98 709.573 2058.71 707.124 Q2061.48 704.635 2062.32 699.296 Q2063.25 694.037 2063.21 682.275 Q2063.21 670.835 2062.4 666.258 Q2061.32 660.919 2058.43 658.792 Q2055.58 656.624 2052.69 656.624 Q2051.61 656.624 2050.44 656.945 Q2049.32 657.266 2047.67 658.19 Q2046.03 659.113 2044.74 661.401 Q2043.5 663.689 2042.9 667.142 Q2042.25 671.597 2042.25 682.275 Z" fill="#000000" fill-rule="nonzero" fill-opacity="1"></path></svg>