<svg xmlns="http://www.w3.org/2000/svg" xmlns:xlink="http://www.w3.org/1999/xlink" width="600" height="400" viewBox="0 0 2400 1600">
<defs>
  <clipPath id="clip700">
    <rect x="0" y="0" width="2400" height="1600"></rect>
  </clipPath>
</defs>
<path clip-path="url(#clip700)" d="M0 1600 L2400 1600 L2400 0 L0 0  Z" fill="#ffffff" fill-rule="evenodd" fill-opacity="1"></path>
<defs>
  <clipPath id="clip701">
    <rect x="480" y="0" width="1681" height="1600"></rect>
  </clipPath>
</defs>
<path clip-path="url(#clip700)" d="M260.718 1384.3 L2352.76 1384.3 L2352.76 47.2441 L260.718 47.2441  Z" fill="#ffffff" fill-rule="evenodd" fill-opacity="1"></path>
<defs>
  <clipPath id="clip702">
    <rect x="260" y="47" width="2093" height="1338"></rect>
  </clipPath>
</defs>
<polyline clip-path="url(#clip702)" style="stroke:#000000; stroke-linecap:round; stroke-linejoin:round; stroke-width:2; stroke-opacity:0.1; fill:none" points="539.218,1384.3 539.218,47.2441 "></polyline>
<polyline clip-path="url(#clip702)" style="stroke:#000000; stroke-linecap:round; stroke-linejoin:round; stroke-width:2; stroke-opacity:0.1; fill:none" points="977.8,1384.3 977.8,47.2441 "></polyline>
<polyline clip-path="url(#clip702)" style="stroke:#000000; stroke-linecap:round; stroke-linejoin:round; stroke-width:2; stroke-opacity:0.1; fill:none" points="1416.38,1384.3 1416.38,47.2441 "></polyline>
<polyline clip-path="url(#clip702)" style="stroke:#000000; stroke-linecap:round; stroke-linejoin:round; stroke-width:2; stroke-opacity:0.1; fill:none" points="1854.96,1384.3 1854.96,47.2441 "></polyline>
<polyline clip-path="url(#clip702)" style="stroke:#000000; stroke-linecap:round; stroke-linejoin:round; stroke-width:2; stroke-opacity:0.1; fill:none" points="2293.55,1384.3 2293.55,47.2441 "></polyline>
<polyline clip-path="url(#clip700)" style="stroke:#000000; stroke-linecap:round; stroke-linejoin:round; stroke-width:4; stroke-opacity:1; fill:none" points="260.718,1384.3 2352.76,1384.3 "></polyline>
<polyline clip-path="url(#clip700)" style="stroke:#000000; stroke-linecap:round; stroke-linejoin:round; stroke-width:4; stroke-opacity:1; fill:none" points="539.218,1384.3 539.218,1365.4 "></polyline>
<polyline clip-path="url(#clip700)" style="stroke:#000000; stroke-linecap:round; stroke-linejoin:round; stroke-width:4; stroke-opacity:1; fill:none" points="977.8,1384.3 977.8,1365.4 "></polyline>
<polyline clip-path="url(#clip700)" style="stroke:#000000; stroke-linecap:round; stroke-linejoin:round; stroke-width:4; stroke-opacity:1; fill:none" points="1416.38,1384.3 1416.38,1365.4 "></polyline>
<polyline clip-path="url(#clip700)" style="stroke:#000000; stroke-linecap:round; stroke-linejoin:round; stroke-width:4; stroke-opacity:1; fill:none" points="1854.96,1384.3 1854.96,1365.4 "></polyline>
<polyline clip-path="url(#clip700)" style="stroke:#000000; stroke-linecap:round; stroke-linejoin:round; stroke-width:4; stroke-opacity:1; fill:none" points="2293.55,1384.3 2293.55,1365.4 "></polyline>
<path clip-path="url(#clip700)" d="M524.062 1468.3 Q524.062 1466.93 524.174 1466.52 Q524.322 1466.11 524.915 1465.48 L539.477 1449.25 Q547.444 1440.29 547.444 1432.47 Q547.444 1427.39 544.776 1423.76 Q542.145 1420.13 537.291 1420.13 Q533.956 1420.13 531.14 1422.17 Q528.324 1424.2 527.027 1427.84 Q527.249 1427.76 528.027 1427.76 Q529.917 1427.76 530.955 1428.95 Q532.029 1430.13 532.029 1431.73 Q532.029 1433.76 530.695 1434.77 Q529.398 1435.73 528.101 1435.73 Q527.583 1435.73 526.879 1435.62 Q526.212 1435.51 525.137 1434.47 Q524.062 1433.39 524.062 1431.5 Q524.062 1426.21 528.064 1421.98 Q532.103 1417.76 538.254 1417.76 Q545.221 1417.76 549.779 1421.91 Q554.373 1426.02 554.373 1432.47 Q554.373 1434.73 553.669 1436.8 Q553.002 1438.84 552.076 1440.43 Q551.187 1442.03 548.741 1444.58 Q546.295 1447.14 544.332 1448.96 Q542.368 1450.77 537.958 1454.63 L529.917 1462.45 L543.59 1462.45 Q550.26 1462.45 550.779 1461.85 Q551.52 1460.78 552.447 1455.11 L554.373 1455.11 L552.224 1468.3 L524.062 1468.3 Z" fill="#000000" fill-rule="nonzero" fill-opacity="1"></path><path clip-path="url(#clip700)" d="M960.977 1455.78 L960.977 1453.44 L984.285 1417.83 Q984.878 1416.9 985.804 1416.94 Q986.656 1416.94 986.842 1417.28 Q987.027 1417.61 987.027 1418.91 L987.027 1453.44 L994.623 1453.44 L994.623 1455.78 L987.027 1455.78 L987.027 1462.37 Q987.027 1464.56 987.916 1465.26 Q988.843 1465.97 992.771 1465.97 L994.364 1465.97 L994.364 1468.3 Q991.251 1468.08 984.063 1468.08 Q976.911 1468.08 973.798 1468.3 L973.798 1465.97 L975.392 1465.97 Q979.32 1465.97 980.246 1465.3 Q981.172 1464.59 981.172 1462.37 L981.172 1455.78 L960.977 1455.78 M963.126 1453.44 L981.617 1453.44 L981.617 1425.13 L963.126 1453.44 Z" fill="#000000" fill-rule="nonzero" fill-opacity="1"></path><path clip-path="url(#clip700)" d="M1400.63 1444.33 Q1400.63 1432.39 1406.71 1425.09 Q1412.79 1417.76 1420.61 1417.76 Q1425.16 1417.76 1427.68 1420.09 Q1430.24 1422.39 1430.24 1425.95 Q1430.24 1427.91 1429.09 1428.76 Q1427.94 1429.61 1426.76 1429.61 Q1425.39 1429.61 1424.31 1428.69 Q1423.24 1427.76 1423.24 1426.09 Q1423.24 1422.69 1427.43 1422.69 Q1425.46 1419.65 1420.76 1419.65 Q1419.31 1419.65 1417.83 1420.09 Q1416.35 1420.5 1414.42 1421.91 Q1412.49 1423.32 1411.01 1425.54 Q1409.53 1427.76 1408.49 1431.95 Q1407.45 1436.14 1407.45 1441.58 L1407.45 1443.4 Q1410.56 1435.88 1416.94 1435.91 Q1423.31 1435.91 1427.72 1440.77 Q1432.13 1445.62 1432.13 1452.81 Q1432.13 1460.18 1427.54 1465.08 Q1422.94 1469.97 1416.49 1469.97 Q1413.6 1469.97 1410.97 1468.74 Q1408.38 1467.56 1405.93 1464.82 Q1403.52 1462.07 1402.08 1456.81 Q1400.63 1451.55 1400.63 1444.33 M1407.6 1451.14 Q1407.6 1458.59 1408.97 1462.15 Q1409.19 1462.74 1409.68 1463.56 Q1410.19 1464.37 1411.05 1465.45 Q1411.94 1466.48 1413.38 1467.19 Q1414.83 1467.86 1416.49 1467.86 Q1421.57 1467.86 1424.02 1462.93 Q1425.31 1460.18 1425.31 1452.74 Q1425.31 1445.14 1423.94 1442.36 Q1421.61 1437.66 1416.86 1437.66 Q1413.68 1437.66 1411.45 1439.84 Q1409.27 1442.03 1408.42 1444.96 Q1407.6 1447.88 1407.6 1451.14 Z" fill="#000000" fill-rule="nonzero" fill-opacity="1"></path><path clip-path="url(#clip700)" d="M1839.22 1456.85 Q1839.22 1448.36 1850.15 1442.88 Q1845.44 1439.69 1844.59 1438.77 Q1841.25 1435.06 1841.25 1430.43 Q1841.25 1425.13 1845.26 1421.46 Q1849.3 1417.76 1855 1417.76 Q1860.45 1417.76 1864.56 1420.91 Q1868.68 1424.06 1868.68 1429.06 Q1868.68 1436.1 1859.49 1440.84 Q1865.56 1444.62 1867.01 1446.22 Q1870.71 1450.33 1870.71 1455.55 Q1870.71 1461.63 1866.04 1465.82 Q1861.38 1469.97 1854.93 1469.97 Q1848.63 1469.97 1843.92 1466.3 Q1839.22 1462.63 1839.22 1456.85 M1843 1456.85 Q1843 1461.56 1846.52 1464.71 Q1850.07 1467.86 1855 1467.86 Q1859.78 1467.86 1863.34 1465.11 Q1866.93 1462.37 1866.93 1458.29 Q1866.93 1456.7 1866.38 1455.33 Q1865.86 1453.96 1864.78 1452.88 Q1863.75 1451.77 1863.08 1451.29 Q1862.45 1450.77 1861.23 1449.92 L1851.89 1444.03 Q1843 1448.96 1843 1456.85 M1844.59 1427.47 Q1844.59 1431.1 1848.41 1433.62 L1857.82 1439.69 Q1865.34 1435.28 1865.34 1429.06 Q1865.34 1425.02 1862.26 1422.35 Q1859.19 1419.65 1854.93 1419.65 Q1850.74 1419.65 1847.67 1421.87 Q1844.59 1424.06 1844.59 1427.47 Z" fill="#000000" fill-rule="nonzero" fill-opacity="1"></path><path clip-path="url(#clip700)" d="M2260.49 1424.98 L2260.49 1422.61 Q2269.61 1422.61 2274.32 1417.76 Q2275.61 1417.76 2275.83 1418.05 Q2276.06 1418.35 2276.06 1419.72 L2276.06 1462.3 Q2276.06 1464.56 2277.17 1465.26 Q2278.28 1465.97 2283.13 1465.97 L2285.54 1465.97 L2285.54 1468.3 Q2282.88 1468.08 2273.24 1468.08 Q2263.61 1468.08 2260.98 1468.3 L2260.98 1465.97 L2263.38 1465.97 Q2268.16 1465.97 2269.31 1465.3 Q2270.46 1464.59 2270.46 1462.3 L2270.46 1422.98 Q2266.5 1424.98 2260.49 1424.98 Z" fill="#000000" fill-rule="nonzero" fill-opacity="1"></path><path clip-path="url(#clip700)" d="M2294.66 1444.03 Q2294.66 1432.88 2297.48 1426.8 Q2301.4 1417.76 2310.67 1417.76 Q2312.63 1417.76 2314.67 1418.31 Q2316.74 1418.83 2319.34 1420.87 Q2321.97 1422.91 2323.56 1426.24 Q2326.6 1432.69 2326.6 1444.03 Q2326.6 1455.11 2323.78 1461.15 Q2319.67 1469.97 2310.59 1469.97 Q2307.18 1469.97 2303.7 1468.23 Q2300.25 1466.48 2298.07 1462.3 Q2294.66 1456.03 2294.66 1444.03 M2300.96 1443.1 Q2300.96 1454.55 2301.77 1459.11 Q2302.7 1464.04 2305.22 1466.19 Q2307.78 1468.3 2310.59 1468.3 Q2313.63 1468.3 2316.15 1466.04 Q2318.71 1463.74 2319.49 1458.81 Q2320.34 1453.96 2320.3 1443.1 Q2320.3 1432.54 2319.56 1428.32 Q2318.56 1423.39 2315.89 1421.43 Q2313.26 1419.42 2310.59 1419.42 Q2309.59 1419.42 2308.52 1419.72 Q2307.48 1420.02 2305.96 1420.87 Q2304.44 1421.72 2303.26 1423.83 Q2302.11 1425.95 2301.55 1429.13 Q2300.96 1433.25 2300.96 1443.1 Z" fill="#000000" fill-rule="nonzero" fill-opacity="1"></path><path clip-path="url(#clip700)" d="M1209.16 1581 L1209.16 1577.89 Q1214.54 1577.89 1215.78 1577.25 Q1217.06 1576.56 1217.06 1573.3 L1217.06 1546.17 Q1217.06 1542.42 1215.73 1541.48 Q1214.45 1540.54 1209.16 1540.54 L1209.16 1537.38 L1223.24 1536.29 L1223.24 1547.41 Q1224.67 1543.06 1227.69 1539.7 Q1230.75 1536.29 1235.69 1536.29 Q1238.95 1536.29 1241.03 1538.12 Q1243.15 1539.95 1243.15 1542.47 Q1243.15 1544.69 1241.77 1545.83 Q1240.43 1546.91 1238.8 1546.91 Q1236.97 1546.91 1235.69 1545.78 Q1234.45 1544.59 1234.45 1542.57 Q1234.45 1541.33 1235 1540.39 Q1235.59 1539.4 1236.04 1539.06 Q1236.48 1538.71 1236.78 1538.61 Q1236.58 1538.51 1235.69 1538.51 Q1230.11 1538.51 1226.9 1544.1 Q1223.73 1549.63 1223.73 1557.54 L1223.73 1573.1 Q1223.73 1576.01 1224.92 1576.95 Q1226.15 1577.89 1231.44 1577.89 L1233.57 1577.89 L1233.57 1581 Q1229.51 1580.71 1220.72 1580.71 Q1219.48 1580.71 1217.56 1580.76 Q1215.63 1580.81 1213.11 1580.91 Q1210.59 1581 1209.16 1581 Z" fill="#000000" fill-rule="nonzero" fill-opacity="1"></path><path clip-path="url(#clip700)" d="M1250.12 1571.37 Q1250.12 1562.77 1260.25 1558.23 Q1266.32 1555.31 1278.87 1554.57 L1278.87 1550.87 Q1278.87 1544.59 1275.56 1541.28 Q1272.3 1537.92 1268.15 1537.92 Q1260.74 1537.92 1257.18 1542.57 Q1260.2 1542.66 1261.28 1544.2 Q1262.37 1545.68 1262.37 1547.21 Q1262.37 1549.24 1261.09 1550.57 Q1259.85 1551.85 1257.73 1551.85 Q1255.7 1551.85 1254.37 1550.62 Q1253.03 1549.33 1253.03 1547.11 Q1253.03 1542.17 1257.48 1538.91 Q1261.97 1535.65 1268.35 1535.65 Q1276.65 1535.65 1282.18 1541.23 Q1283.91 1542.96 1284.75 1545.18 Q1285.64 1547.41 1285.74 1548.89 Q1285.84 1550.32 1285.84 1553.19 L1285.84 1573.4 Q1285.84 1573.99 1286.04 1574.98 Q1286.23 1575.96 1287.12 1577.25 Q1288.06 1578.48 1289.59 1578.48 Q1293.25 1578.48 1293.2 1572.01 L1293.2 1566.33 L1295.77 1566.33 L1295.77 1572.01 Q1295.77 1577.4 1292.9 1579.52 Q1290.09 1581.6 1287.47 1581.6 Q1284.11 1581.6 1281.98 1579.13 Q1279.86 1576.66 1279.56 1573.3 Q1278.03 1577.15 1274.52 1579.67 Q1271.07 1582.14 1266.32 1582.14 Q1262.67 1582.14 1259.21 1581.2 Q1255.8 1580.31 1252.93 1577.79 Q1250.12 1575.22 1250.12 1571.37 M1257.92 1571.27 Q1257.92 1575.03 1260.59 1577.45 Q1263.26 1579.87 1267.01 1579.87 Q1271.26 1579.87 1275.07 1576.61 Q1278.87 1573.3 1278.87 1566.82 L1278.87 1556.7 Q1267.66 1557.09 1262.77 1561.59 Q1257.92 1566.03 1257.92 1571.27 Z" fill="#000000" fill-rule="nonzero" fill-opacity="1"></path><path clip-path="url(#clip700)" d="M1299.72 1581 L1299.72 1577.89 Q1305.11 1577.89 1306.34 1577.25 Q1307.58 1576.56 1307.58 1573.3 L1307.58 1546.17 Q1307.58 1542.42 1306.24 1541.48 Q1304.96 1540.54 1299.72 1540.54 L1299.72 1537.38 L1313.95 1536.29 L1313.95 1546.91 Q1318.69 1536.29 1328.92 1536.29 Q1336.53 1536.29 1339.54 1540.05 Q1341.77 1542.57 1342.21 1545.38 Q1342.71 1548.2 1342.71 1555.51 L1342.71 1574.83 Q1342.8 1576.95 1344.43 1577.45 Q1346.06 1577.89 1350.61 1577.89 L1350.61 1581 Q1340.28 1580.71 1339.25 1580.71 Q1338.46 1580.71 1327.83 1581 L1327.83 1577.89 Q1333.22 1577.89 1334.45 1577.25 Q1335.74 1576.56 1335.74 1573.3 L1335.74 1549.73 Q1335.74 1544.59 1334.16 1541.58 Q1332.58 1538.51 1328.23 1538.51 Q1322.99 1538.51 1318.79 1542.91 Q1314.59 1547.31 1314.59 1554.72 L1314.59 1573.3 Q1314.59 1576.56 1315.83 1577.25 Q1317.11 1577.89 1322.45 1577.89 L1322.45 1581 Q1312.12 1580.71 1311.13 1580.71 Q1310.34 1580.71 1299.72 1581 Z" fill="#000000" fill-rule="nonzero" fill-opacity="1"></path><path clip-path="url(#clip700)" d="M1355.4 1581 L1355.4 1577.89 Q1360.79 1577.89 1362.02 1577.25 Q1363.31 1576.56 1363.31 1573.3 L1363.31 1520.68 Q1363.31 1516.92 1361.97 1515.98 Q1360.69 1515.05 1355.4 1515.05 L1355.4 1511.88 L1369.98 1510.8 L1369.98 1559.36 L1384.26 1547.01 Q1386.48 1545.09 1386.48 1543.06 Q1386.48 1540.74 1383.56 1540.54 L1383.56 1537.38 Q1387.81 1537.67 1394.88 1537.67 Q1399.03 1537.67 1401.94 1537.38 L1401.94 1540.54 Q1395.57 1540.84 1389.2 1545.97 Q1387.76 1547.11 1384.35 1550.08 Q1381 1552.99 1381 1553.29 Q1381 1553.39 1381.09 1553.63 Q1381.24 1553.88 1381.44 1554.08 Q1381.64 1554.27 1381.64 1554.37 L1394.48 1572.51 Q1397.1 1576.16 1399.03 1577.05 Q1400.96 1577.89 1404.32 1577.89 L1404.32 1581 Q1399.97 1580.71 1395.47 1580.71 Q1393.05 1580.71 1384.55 1581 L1384.55 1577.89 Q1388.21 1577.89 1388.21 1575.52 Q1388.21 1573.89 1380.01 1562.58 Q1379.41 1561.78 1378.08 1560.06 Q1376.85 1558.23 1376.15 1557.34 L1369.68 1562.87 L1369.68 1573.3 Q1369.68 1576.56 1370.92 1577.25 Q1372.2 1577.89 1377.59 1577.89 L1377.59 1581 Q1371.51 1580.71 1366.47 1580.71 Q1365.43 1580.71 1355.4 1581 Z" fill="#000000" fill-rule="nonzero" fill-opacity="1"></path><polyline clip-path="url(#clip702)" style="stroke:#000000; stroke-linecap:round; stroke-linejoin:round; stroke-width:2; stroke-opacity:0.1; fill:none" points="260.718,1331.57 2352.76,1331.57 "></polyline>
<polyline clip-path="url(#clip702)" style="stroke:#000000; stroke-linecap:round; stroke-linejoin:round; stroke-width:2; stroke-opacity:0.1; fill:none" points="260.718,1101.59 2352.76,1101.59 "></polyline>
<polyline clip-path="url(#clip702)" style="stroke:#000000; stroke-linecap:round; stroke-linejoin:round; stroke-width:2; stroke-opacity:0.1; fill:none" points="260.718,871.599 2352.76,871.599 "></polyline>
<polyline clip-path="url(#clip702)" style="stroke:#000000; stroke-linecap:round; stroke-linejoin:round; stroke-width:2; stroke-opacity:0.1; fill:none" points="260.718,641.612 2352.76,641.612 "></polyline>
<polyline clip-path="url(#clip702)" style="stroke:#000000; stroke-linecap:round; stroke-linejoin:round; stroke-width:2; stroke-opacity:0.1; fill:none" points="260.718,411.625 2352.76,411.625 "></polyline>
<polyline clip-path="url(#clip702)" style="stroke:#000000; stroke-linecap:round; stroke-linejoin:round; stroke-width:2; stroke-opacity:0.1; fill:none" points="260.718,181.638 2352.76,181.638 "></polyline>
<polyline clip-path="url(#clip700)" style="stroke:#000000; stroke-linecap:round; stroke-linejoin:round; stroke-width:4; stroke-opacity:1; fill:none" points="260.718,1384.3 260.718,47.2441 "></polyline>
<polyline clip-path="url(#clip700)" style="stroke:#000000; stroke-linecap:round; stroke-linejoin:round; stroke-width:4; stroke-opacity:1; fill:none" points="260.718,1331.57 279.616,1331.57 "></polyline>
<polyline clip-path="url(#clip700)" style="stroke:#000000; stroke-linecap:round; stroke-linejoin:round; stroke-width:4; stroke-opacity:1; fill:none" points="260.718,1101.59 279.616,1101.59 "></polyline>
<polyline clip-path="url(#clip700)" style="stroke:#000000; stroke-linecap:round; stroke-linejoin:round; stroke-width:4; stroke-opacity:1; fill:none" points="260.718,871.599 279.616,871.599 "></polyline>
<polyline clip-path="url(#clip700)" style="stroke:#000000; stroke-linecap:round; stroke-linejoin:round; stroke-width:4; stroke-opacity:1; fill:none" points="260.718,641.612 279.616,641.612 "></polyline>
<polyline clip-path="url(#clip700)" style="stroke:#000000; stroke-linecap:round; stroke-linejoin:round; stroke-width:4; stroke-opacity:1; fill:none" points="260.718,411.625 279.616,411.625 "></polyline>
<polyline clip-path="url(#clip700)" style="stroke:#000000; stroke-linecap:round; stroke-linejoin:round; stroke-width:4; stroke-opacity:1; fill:none" points="260.718,181.638 279.616,181.638 "></polyline>
<path clip-path="url(#clip700)" d="M185.959 1337.45 Q186.403 1337.89 186.403 1338.52 Q186.403 1339.15 185.959 1339.59 Q185.514 1340.04 184.884 1340.04 L137.379 1340.04 Q136.749 1340.04 136.305 1339.59 Q135.86 1339.15 135.86 1338.52 Q135.86 1337.89 136.305 1337.45 Q136.749 1337 137.379 1337 L184.884 1337 Q185.514 1337 185.959 1337.45 Z" fill="#000000" fill-rule="nonzero" fill-opacity="1"></path><path clip-path="url(#clip700)" d="M194.407 1357.49 Q194.407 1356.12 194.518 1355.71 Q194.667 1355.31 195.259 1354.68 L209.822 1338.45 Q217.789 1329.48 217.789 1321.66 Q217.789 1316.58 215.121 1312.95 Q212.49 1309.32 207.636 1309.32 Q204.301 1309.32 201.485 1311.36 Q198.668 1313.4 197.372 1317.03 Q197.594 1316.95 198.372 1316.95 Q200.262 1316.95 201.299 1318.14 Q202.374 1319.33 202.374 1320.92 Q202.374 1322.96 201.04 1323.96 Q199.743 1324.92 198.446 1324.92 Q197.927 1324.92 197.223 1324.81 Q196.556 1324.7 195.482 1323.66 Q194.407 1322.59 194.407 1320.7 Q194.407 1315.4 198.409 1311.17 Q202.448 1306.95 208.599 1306.95 Q215.566 1306.95 220.123 1311.1 Q224.718 1315.21 224.718 1321.66 Q224.718 1323.92 224.014 1326 Q223.347 1328.03 222.421 1329.63 Q221.531 1331.22 219.086 1333.78 Q216.64 1336.33 214.676 1338.15 Q212.712 1339.97 208.303 1343.82 L200.262 1351.64 L213.935 1351.64 Q220.605 1351.64 221.124 1351.04 Q221.865 1349.97 222.791 1344.3 L224.718 1344.3 L222.569 1357.49 L194.407 1357.49 Z" fill="#000000" fill-rule="nonzero" fill-opacity="1"></path><path clip-path="url(#clip700)" d="M188.256 1107.46 Q188.701 1107.9 188.701 1108.53 Q188.701 1109.16 188.256 1109.61 Q187.811 1110.05 187.181 1110.05 L139.677 1110.05 Q139.047 1110.05 138.602 1109.61 Q138.158 1109.16 138.158 1108.53 Q138.158 1107.9 138.602 1107.46 Q139.047 1107.01 139.677 1107.01 L187.181 1107.01 Q187.811 1107.01 188.256 1107.46 Z" fill="#000000" fill-rule="nonzero" fill-opacity="1"></path><path clip-path="url(#clip700)" d="M199.669 1084.19 L199.669 1081.82 Q208.784 1081.82 213.49 1076.96 Q214.787 1076.96 215.01 1077.26 Q215.232 1077.56 215.232 1078.93 L215.232 1121.5 Q215.232 1123.76 216.344 1124.47 Q217.455 1125.17 222.31 1125.17 L224.718 1125.17 L224.718 1127.51 Q222.05 1127.28 212.416 1127.28 Q202.782 1127.28 200.151 1127.51 L200.151 1125.17 L202.559 1125.17 Q207.339 1125.17 208.488 1124.5 Q209.637 1123.8 209.637 1121.5 L209.637 1082.19 Q205.672 1084.19 199.669 1084.19 Z" fill="#000000" fill-rule="nonzero" fill-opacity="1"></path><path clip-path="url(#clip700)" d="M192.777 873.248 Q192.777 862.094 195.593 856.017 Q199.521 846.976 208.784 846.976 Q210.748 846.976 212.786 847.531 Q214.862 848.05 217.455 850.088 Q220.086 852.126 221.68 855.461 Q224.718 861.909 224.718 873.248 Q224.718 884.327 221.902 890.367 Q217.789 899.186 208.71 899.186 Q205.301 899.186 201.818 897.445 Q198.372 895.703 196.186 891.516 Q192.777 885.253 192.777 873.248 M199.076 872.321 Q199.076 883.771 199.891 888.329 Q200.818 893.257 203.337 895.407 Q205.894 897.519 208.71 897.519 Q211.749 897.519 214.269 895.258 Q216.825 892.961 217.604 888.033 Q218.456 883.178 218.419 872.321 Q218.419 861.761 217.678 857.536 Q216.677 852.608 214.009 850.644 Q211.378 848.643 208.71 848.643 Q207.71 848.643 206.635 848.94 Q205.598 849.236 204.078 850.088 Q202.559 850.941 201.373 853.053 Q200.225 855.165 199.669 858.352 Q199.076 862.465 199.076 872.321 Z" fill="#000000" fill-rule="nonzero" fill-opacity="1"></path><path clip-path="url(#clip700)" d="M199.669 624.214 L199.669 621.843 Q208.784 621.843 213.49 616.989 Q214.787 616.989 215.01 617.285 Q215.232 617.582 215.232 618.953 L215.232 661.529 Q215.232 663.789 216.344 664.493 Q217.455 665.197 222.31 665.197 L224.718 665.197 L224.718 667.532 Q222.05 667.309 212.416 667.309 Q202.782 667.309 200.151 667.532 L200.151 665.197 L202.559 665.197 Q207.339 665.197 208.488 664.53 Q209.637 663.826 209.637 661.529 L209.637 622.213 Q205.672 624.214 199.669 624.214 Z" fill="#000000" fill-rule="nonzero" fill-opacity="1"></path><path clip-path="url(#clip700)" d="M194.407 437.545 Q194.407 436.174 194.518 435.766 Q194.667 435.359 195.259 434.729 L209.822 418.499 Q217.789 409.531 217.789 401.713 Q217.789 396.636 215.121 393.005 Q212.49 389.373 207.636 389.373 Q204.301 389.373 201.485 391.411 Q198.668 393.449 197.372 397.081 Q197.594 397.007 198.372 397.007 Q200.262 397.007 201.299 398.192 Q202.374 399.378 202.374 400.972 Q202.374 403.01 201.04 404.01 Q199.743 404.974 198.446 404.974 Q197.927 404.974 197.223 404.862 Q196.556 404.751 195.482 403.714 Q194.407 402.639 194.407 400.749 Q194.407 395.45 198.409 391.226 Q202.448 387.002 208.599 387.002 Q215.566 387.002 220.123 391.152 Q224.718 395.265 224.718 401.713 Q224.718 403.973 224.014 406.048 Q223.347 408.086 222.421 409.68 Q221.531 411.273 219.086 413.83 Q216.64 416.386 214.676 418.202 Q212.712 420.018 208.303 423.872 L200.262 431.69 L213.935 431.69 Q220.605 431.69 221.124 431.097 Q221.865 430.023 222.791 424.353 L224.718 424.353 L222.569 437.545 L194.407 437.545 Z" fill="#000000" fill-rule="nonzero" fill-opacity="1"></path><path clip-path="url(#clip700)" d="M193.221 197.331 Q193.221 195.07 194.518 193.996 Q195.815 192.921 197.483 192.921 Q199.224 192.921 200.447 194.07 Q201.707 195.182 201.707 197.146 Q201.707 199.258 200.225 200.443 Q198.78 201.629 196.705 201.333 Q198.52 204.371 201.855 205.742 Q205.227 207.113 208.34 207.113 Q211.601 207.113 214.232 204.297 Q216.9 201.481 216.9 194.589 Q216.9 188.734 214.602 185.362 Q212.342 181.99 207.858 181.99 L204.523 181.99 Q203.374 181.99 203.041 181.879 Q202.707 181.768 202.707 181.138 Q202.707 180.397 203.856 180.248 Q205.005 180.248 206.821 180.026 Q211.23 179.878 213.565 176.061 Q215.677 172.504 215.677 167.427 Q215.677 162.795 213.453 160.869 Q211.267 158.905 208.414 158.905 Q205.746 158.905 202.819 160.016 Q199.891 161.128 198.298 163.611 Q203.004 163.611 203.004 167.427 Q203.004 169.095 201.929 170.207 Q200.892 171.281 199.15 171.281 Q197.483 171.281 196.371 170.244 Q195.259 169.169 195.259 167.353 Q195.259 163.018 199.113 160.016 Q203.004 157.015 208.71 157.015 Q214.343 157.015 218.493 159.979 Q222.68 162.944 222.68 167.501 Q222.68 171.985 219.716 175.654 Q216.751 179.322 212.045 180.841 Q217.826 181.99 221.272 185.918 Q224.718 189.809 224.718 194.589 Q224.718 200.518 220.049 204.89 Q215.38 209.225 208.562 209.225 Q202.263 209.225 197.742 205.816 Q193.221 202.407 193.221 197.331 Z" fill="#000000" fill-rule="nonzero" fill-opacity="1"></path><path clip-path="url(#clip700)" d="M77.7902 1134.25 L64.4504 1134.25 Q63.314 1134.25 62.9188 1134.2 Q62.5235 1134.15 62.2271 1133.85 Q61.9306 1133.56 61.9306 1132.96 Q61.9306 1132.27 62.2271 1132.02 Q62.5235 1131.73 63.6599 1131.53 Q70.6262 1130 74.3317 1126.74 Q77.9878 1123.43 77.9878 1117.45 Q77.9878 1111.77 75.4681 1108.9 Q72.9483 1106.04 68.7982 1106.04 Q61.3871 1106.04 59.5097 1116.56 Q58.2745 1122.64 57.484 1125.16 Q56.6441 1127.68 54.8161 1129.9 Q51.2588 1134.25 46.2193 1134.25 Q41.1798 1134.25 37.4743 1130.44 Q33.7688 1126.59 33.7688 1118.09 Q33.7688 1112.41 36.6344 1108.56 Q35.7451 1107.42 35.004 1106.83 Q33.7688 1105.49 33.7688 1104.8 Q33.7688 1104.01 34.3123 1103.86 Q34.8063 1103.71 36.2391 1103.71 L46.4169 1103.71 Q47.5533 1103.71 47.9485 1103.76 Q48.3438 1103.81 48.6402 1104.11 Q48.8872 1104.41 48.8872 1105.05 Q48.8872 1106.18 47.9485 1106.23 Q35.6957 1107.02 35.6957 1118.09 Q35.6957 1124.07 38.0178 1126.74 Q40.2905 1129.41 43.4031 1129.41 Q45.1323 1129.41 46.4663 1128.61 Q47.7509 1127.77 48.5414 1126.74 Q49.2825 1125.65 50.0236 1123.67 Q50.7153 1121.7 50.9623 1120.51 Q51.2094 1119.28 51.7034 1116.95 Q53.235 1108.85 56.5453 1105.44 Q60.7943 1101.19 66.1796 1101.19 Q72.1578 1101.19 76.2092 1105.25 Q80.2605 1109.3 80.2605 1117.45 Q80.2605 1124.02 75.8633 1128.61 Q76.4562 1129.21 76.9997 1129.65 Q77.4937 1130.1 77.6914 1130.29 Q77.889 1130.44 78.0372 1130.49 Q78.136 1130.54 78.2348 1130.64 Q80.2605 1132.67 80.2605 1133.16 Q80.2605 1133.95 79.717 1134.1 Q79.223 1134.25 77.7902 1134.25 Z" fill="#000000" fill-rule="nonzero" fill-opacity="1"></path><path clip-path="url(#clip700)" d="M38.6601 1095.86 L36.4368 1095.86 Q36.2391 1091.21 32.9783 1088.15 Q29.668 1085.04 25.6167 1084 Q21.5653 1082.91 16.8717 1082.81 L16.8717 1080.29 L35.498 1080.29 L35.498 1065.82 L38.6601 1065.82 L38.6601 1080.29 L66.7725 1080.29 Q77.6914 1080.29 77.6914 1073.48 Q77.6914 1070.56 74.727 1068.63 Q71.7131 1066.71 66.3772 1066.71 L60.7943 1066.71 L60.7943 1064.19 L66.5749 1064.19 Q72.059 1064.19 76.1598 1066.71 Q80.2605 1069.23 80.2605 1074.22 Q80.2605 1076.05 79.7664 1077.87 Q79.3218 1079.65 78.136 1082.02 Q76.9009 1084.35 73.9365 1085.83 Q70.9226 1087.26 66.5749 1087.26 L38.6601 1087.26 L38.6601 1095.86 Z" fill="#000000" fill-rule="nonzero" fill-opacity="1"></path><path clip-path="url(#clip700)" d="M69.4898 1054.31 Q60.8931 1054.31 56.3477 1044.18 Q53.4327 1038.1 52.6916 1025.55 L48.9861 1025.55 Q42.7114 1025.55 39.4012 1028.86 Q36.0415 1032.12 36.0415 1036.27 Q36.0415 1043.68 40.6857 1047.24 Q40.7845 1044.23 42.3162 1043.14 Q43.7984 1042.05 45.33 1042.05 Q47.3556 1042.05 48.6896 1043.34 Q49.9742 1044.57 49.9742 1046.7 Q49.9742 1048.72 48.739 1050.06 Q47.4545 1051.39 45.2311 1051.39 Q40.2905 1051.39 37.0296 1046.95 Q33.7688 1042.45 33.7688 1036.08 Q33.7688 1027.78 39.3517 1022.24 Q41.081 1020.51 43.3043 1019.67 Q45.5276 1018.78 47.0098 1018.68 Q48.4426 1018.59 51.3082 1018.59 L71.5155 1018.59 Q72.1084 1018.59 73.0965 1018.39 Q74.0847 1018.19 75.3692 1017.3 Q76.6044 1016.36 76.6044 1014.83 Q76.6044 1011.17 70.1321 1011.22 L64.4504 1011.22 L64.4504 1008.65 L70.1321 1008.65 Q75.5175 1008.65 77.642 1011.52 Q79.717 1014.34 79.717 1016.96 Q79.717 1020.31 77.2467 1022.44 Q74.7764 1024.56 71.4167 1024.86 Q75.2704 1026.39 77.7902 1029.9 Q80.2605 1033.36 80.2605 1038.1 Q80.2605 1041.76 79.3218 1045.22 Q78.4325 1048.63 75.9127 1051.49 Q73.3436 1054.31 69.4898 1054.31 M69.391 1046.5 Q73.1459 1046.5 75.5669 1043.83 Q77.9878 1041.16 77.9878 1037.41 Q77.9878 1033.16 74.727 1029.36 Q71.4167 1025.55 64.9444 1025.55 L54.8161 1025.55 Q55.2113 1036.77 59.7073 1041.66 Q64.1539 1046.5 69.391 1046.5 Z" fill="#000000" fill-rule="nonzero" fill-opacity="1"></path><path clip-path="url(#clip700)" d="M79.1242 1004.7 L76.0115 1004.7 Q76.0115 999.317 75.3692 998.082 Q74.6776 996.847 71.4167 996.847 L44.2924 996.847 Q40.5375 996.847 39.5988 998.181 Q38.6601 999.465 38.6601 1004.7 L35.498 1004.7 L34.4111 990.473 L45.0335 990.473 Q34.4111 985.73 34.4111 975.503 Q34.4111 967.894 38.166 964.881 Q40.6857 962.657 43.5019 962.213 Q46.3181 961.719 53.6303 961.719 L72.9483 961.719 Q75.0728 961.62 75.5669 959.989 Q76.0115 958.359 76.0115 953.814 L79.1242 953.814 Q78.8277 964.14 78.8277 965.177 Q78.8277 965.968 79.1242 976.59 L76.0115 976.59 Q76.0115 971.205 75.3692 969.97 Q74.6776 968.685 71.4167 968.685 L47.8497 968.685 Q42.7114 968.685 39.6976 970.266 Q36.6344 971.847 36.6344 976.195 Q36.6344 981.432 41.0316 985.631 Q45.4288 989.831 52.8398 989.831 L71.4167 989.831 Q74.6776 989.831 75.3692 988.596 Q76.0115 987.311 76.0115 981.975 L79.1242 981.975 Q78.8277 992.301 78.8277 993.29 Q78.8277 994.08 79.1242 1004.7 Z" fill="#000000" fill-rule="nonzero" fill-opacity="1"></path><path clip-path="url(#clip700)" d="M57.3852 948.379 Q47.7509 948.379 41.081 941.659 Q34.4111 934.94 34.4111 925.849 Q34.4111 918.142 40.6857 913.102 L18.7986 913.102 Q15.0436 913.102 14.1049 914.436 Q13.1662 915.721 13.1662 920.958 L10.0042 920.958 L8.91721 906.383 L70.3298 906.383 Q74.0847 906.383 75.0728 905.099 Q76.0115 903.765 76.0115 898.527 L79.1242 898.527 L80.2605 913.399 L73.5412 913.399 Q80.2111 918.636 80.2605 926.936 Q80.2605 935.632 73.5906 942.005 Q66.9207 948.379 57.3852 948.379 M57.484 939.98 Q66.8713 939.98 71.5155 937.065 Q77.9878 933.013 77.9878 926.442 Q77.9878 918.932 70.9226 914.486 Q69.1934 913.349 67.1677 913.399 L46.4169 913.399 Q44.3912 913.399 42.7114 914.486 Q36.6344 918.636 36.6344 925.405 Q36.6344 932.47 43.1067 936.867 Q47.9485 939.98 57.484 939.98 Z" fill="#000000" fill-rule="nonzero" fill-opacity="1"></path><path clip-path="url(#clip700)" d="M69.4898 891.462 Q60.8931 891.462 56.3477 881.334 Q53.4327 875.257 52.6916 862.708 L48.9861 862.708 Q42.7114 862.708 39.4012 866.018 Q36.0415 869.279 36.0415 873.429 Q36.0415 880.84 40.6857 884.397 Q40.7845 881.383 42.3162 880.296 Q43.7984 879.209 45.33 879.209 Q47.3556 879.209 48.6896 880.494 Q49.9742 881.729 49.9742 883.854 Q49.9742 885.879 48.739 887.213 Q47.4545 888.547 45.2311 888.547 Q40.2905 888.547 37.0296 884.101 Q33.7688 879.605 33.7688 873.231 Q33.7688 864.931 39.3517 859.397 Q41.081 857.668 43.3043 856.828 Q45.5276 855.939 47.0098 855.84 Q48.4426 855.741 51.3082 855.741 L71.5155 855.741 Q72.1084 855.741 73.0965 855.544 Q74.0847 855.346 75.3692 854.457 Q76.6044 853.518 76.6044 851.986 Q76.6044 848.33 70.1321 848.38 L64.4504 848.38 L64.4504 845.81 L70.1321 845.81 Q75.5175 845.81 77.642 848.676 Q79.717 851.492 79.717 854.111 Q79.717 857.47 77.2467 859.595 Q74.7764 861.719 71.4167 862.016 Q75.2704 863.547 77.7902 867.055 Q80.2605 870.514 80.2605 875.257 Q80.2605 878.913 79.3218 882.371 Q78.4325 885.78 75.9127 888.646 Q73.3436 891.462 69.4898 891.462 M69.391 883.656 Q73.1459 883.656 75.5669 880.988 Q77.9878 878.32 77.9878 874.565 Q77.9878 870.316 74.727 866.512 Q71.4167 862.708 64.9444 862.708 L54.8161 862.708 Q55.2113 873.923 59.7073 878.814 Q64.1539 883.656 69.391 883.656 Z" fill="#000000" fill-rule="nonzero" fill-opacity="1"></path><path clip-path="url(#clip700)" d="M79.1242 842.303 L76.0115 842.303 Q76.0115 836.917 75.3692 835.682 Q74.6776 834.398 71.4167 834.398 L44.2924 834.398 Q40.5375 834.398 39.5988 835.731 Q38.6601 837.016 38.6601 842.303 L35.498 842.303 L34.4111 828.222 L45.5276 828.222 Q41.1798 826.789 37.8201 823.775 Q34.4111 820.712 34.4111 815.771 Q34.4111 812.51 36.2391 810.435 Q38.0672 808.311 40.5869 808.311 Q42.8102 808.311 43.9466 809.694 Q45.0335 811.028 45.0335 812.659 Q45.0335 814.487 43.8972 815.771 Q42.7114 817.006 40.6857 817.006 Q39.4506 817.006 38.5118 816.463 Q37.5237 815.87 37.1779 815.425 Q36.832 814.981 36.7332 814.684 Q36.6344 814.882 36.6344 815.771 Q36.6344 821.354 42.2173 824.566 Q47.7509 827.728 55.656 827.728 L71.2191 827.728 Q74.1341 827.728 75.0728 826.542 Q76.0115 825.307 76.0115 820.02 L76.0115 817.896 L79.1242 817.896 Q78.8277 821.947 78.8277 830.741 Q78.8277 831.977 78.8771 833.903 Q78.9265 835.83 79.0253 838.35 Q79.1242 840.87 79.1242 842.303 Z" fill="#000000" fill-rule="nonzero" fill-opacity="1"></path><path clip-path="url(#clip700)" d="M57.3852 802.135 Q47.7509 802.135 41.081 795.416 Q34.4111 788.696 34.4111 779.605 Q34.4111 771.898 40.6857 766.859 L18.7986 766.859 Q15.0436 766.859 14.1049 768.192 Q13.1662 769.477 13.1662 774.714 L10.0042 774.714 L8.91721 760.139 L70.3298 760.139 Q74.0847 760.139 75.0728 758.855 Q76.0115 757.521 76.0115 752.284 L79.1242 752.284 L80.2605 767.155 L73.5412 767.155 Q80.2111 772.392 80.2605 780.692 Q80.2605 789.388 73.5906 795.761 Q66.9207 802.135 57.3852 802.135 M57.484 793.736 Q66.8713 793.736 71.5155 790.821 Q77.9878 786.769 77.9878 780.198 Q77.9878 772.689 70.9226 768.242 Q69.1934 767.106 67.1677 767.155 L46.4169 767.155 Q44.3912 767.155 42.7114 768.242 Q36.6344 772.392 36.6344 779.161 Q36.6344 786.226 43.1067 790.623 Q47.9485 793.736 57.484 793.736 Z" fill="#000000" fill-rule="nonzero" fill-opacity="1"></path><path clip-path="url(#clip700)" d="M73.5906 705.94 Q66.8713 712.363 57.2864 712.363 Q47.6521 712.363 40.7351 706.039 Q33.7688 699.715 33.7688 690.426 Q33.7688 684.25 36.7332 679.606 Q39.6482 674.962 44.6383 674.962 Q46.8616 674.962 48.1461 676.296 Q49.3813 677.581 49.3813 679.606 Q49.3813 681.731 48.0967 683.015 Q46.7628 684.25 44.7371 684.25 Q43.8478 684.25 42.9584 683.954 Q42.0691 683.658 41.1304 682.571 Q40.1917 681.434 40.0434 679.507 Q36.3379 683.114 36.3379 690.13 Q36.3379 690.229 36.3379 690.328 Q36.3379 695.466 41.1798 699.715 Q46.0217 703.964 57.0888 703.964 Q62.8693 703.964 67.1183 702.58 Q71.3179 701.148 73.4918 698.825 Q75.6657 696.503 76.7032 694.231 Q77.6914 691.958 77.6914 689.735 Q77.6914 679.804 67.0689 676.444 Q66.0808 676.148 66.0808 675.16 Q66.0808 673.826 67.0689 673.826 Q67.563 673.826 68.8476 674.221 Q70.1321 674.616 72.1578 675.851 Q74.1835 677.087 75.9621 678.865 Q77.6914 680.594 78.9759 683.707 Q80.2605 686.77 80.2605 690.624 Q80.2605 699.517 73.5906 705.94 Z" fill="#000000" fill-rule="nonzero" fill-opacity="1"></path><path clip-path="url(#clip700)" d="M38.6601 667.65 L35.498 667.65 L34.4111 652.778 L68.0076 652.778 Q70.4286 652.778 71.8614 652.581 Q73.2448 652.383 74.8752 651.593 Q76.5056 650.753 77.2467 648.875 Q77.9878 646.948 77.9878 643.885 Q77.9878 638.401 73.4918 635.041 Q68.9958 631.632 62.3259 631.632 L44.2924 631.632 Q40.5375 631.632 39.5988 632.966 Q38.6601 634.3 38.6601 639.537 L35.498 639.537 L34.4111 624.666 L70.3298 624.666 Q74.0847 624.666 75.0728 623.381 Q76.0115 622.047 76.0115 616.761 L79.1242 616.761 L80.2605 631.336 L71.1203 631.336 Q80.2111 635.585 80.2605 644.379 Q80.2605 648.826 79.1242 651.889 Q77.9878 654.903 76.6044 656.434 Q75.1716 657.966 72.4543 658.806 Q69.7369 659.597 68.0571 659.695 Q66.3772 659.794 63.1164 659.794 L47.9485 659.794 Q41.081 659.794 39.8952 660.782 Q38.6601 661.77 38.6601 667.65 Z" fill="#000000" fill-rule="nonzero" fill-opacity="1"></path><path clip-path="url(#clip700)" d="M79.1242 611.968 L76.0115 611.968 Q76.0115 606.583 75.3692 605.348 Q74.6776 604.063 71.4167 604.063 L44.2924 604.063 Q40.5375 604.063 39.5988 605.397 Q38.6601 606.682 38.6601 611.968 L35.498 611.968 L34.4111 597.888 L45.5276 597.888 Q41.1798 596.455 37.8201 593.441 Q34.4111 590.378 34.4111 585.437 Q34.4111 582.176 36.2391 580.101 Q38.0672 577.977 40.5869 577.977 Q42.8102 577.977 43.9466 579.36 Q45.0335 580.694 45.0335 582.324 Q45.0335 584.152 43.8972 585.437 Q42.7114 586.672 40.6857 586.672 Q39.4506 586.672 38.5118 586.129 Q37.5237 585.536 37.1779 585.091 Q36.832 584.647 36.7332 584.35 Q36.6344 584.548 36.6344 585.437 Q36.6344 591.02 42.2173 594.231 Q47.7509 597.393 55.656 597.393 L71.2191 597.393 Q74.1341 597.393 75.0728 596.208 Q76.0115 594.973 76.0115 589.686 L76.0115 587.562 L79.1242 587.562 Q78.8277 591.613 78.8277 600.407 Q78.8277 601.642 78.8771 603.569 Q78.9265 605.496 79.0253 608.016 Q79.1242 610.536 79.1242 611.968 Z" fill="#000000" fill-rule="nonzero" fill-opacity="1"></path><path clip-path="url(#clip700)" d="M38.6601 573.332 L35.498 573.332 Q35.7945 568.787 35.7945 563.5 Q35.7945 561.574 35.498 552.483 L38.6601 552.483 Q38.6601 558.263 41.2786 558.263 Q41.6739 558.263 43.0078 557.67 L71.2191 546.307 L45.4288 535.981 Q43.6995 535.388 43.0078 535.388 Q41.2786 535.388 40.0434 536.574 Q38.7589 537.71 38.6601 540.23 L35.498 540.23 Q35.7945 535.092 35.7945 531.435 Q35.7945 527.285 35.498 523.876 L38.6601 523.876 Q38.6601 526.89 40.0434 529.015 Q41.3774 531.139 42.5632 531.831 Q43.6995 532.473 45.4288 533.165 L78.3336 546.406 Q80.2605 547.196 80.2605 548.53 Q80.2605 549.42 79.8653 549.815 Q79.5194 550.161 78.3336 550.655 L42.415 565.23 Q39.8952 566.218 39.3023 567.502 Q38.6601 568.787 38.6601 573.332 Z" fill="#000000" fill-rule="nonzero" fill-opacity="1"></path><path clip-path="url(#clip700)" d="M69.4898 520.517 Q60.8931 520.517 56.3477 510.388 Q53.4327 504.311 52.6916 491.762 L48.9861 491.762 Q42.7114 491.762 39.4012 495.072 Q36.0415 498.333 36.0415 502.483 Q36.0415 509.894 40.6857 513.451 Q40.7845 510.438 42.3162 509.351 Q43.7984 508.264 45.33 508.264 Q47.3556 508.264 48.6896 509.548 Q49.9742 510.783 49.9742 512.908 Q49.9742 514.934 48.739 516.268 Q47.4545 517.602 45.2311 517.602 Q40.2905 517.602 37.0296 513.155 Q33.7688 508.659 33.7688 502.286 Q33.7688 493.985 39.3517 488.452 Q41.081 486.722 43.3043 485.883 Q45.5276 484.993 47.0098 484.894 Q48.4426 484.796 51.3082 484.796 L71.5155 484.796 Q72.1084 484.796 73.0965 484.598 Q74.0847 484.4 75.3692 483.511 Q76.6044 482.572 76.6044 481.041 Q76.6044 477.385 70.1321 477.434 L64.4504 477.434 L64.4504 474.865 L70.1321 474.865 Q75.5175 474.865 77.642 477.73 Q79.717 480.547 79.717 483.165 Q79.717 486.525 77.2467 488.649 Q74.7764 490.774 71.4167 491.07 Q75.2704 492.602 77.7902 496.11 Q80.2605 499.568 80.2605 504.311 Q80.2605 507.967 79.3218 511.426 Q78.4325 514.835 75.9127 517.7 Q73.3436 520.517 69.4898 520.517 M69.391 512.71 Q73.1459 512.71 75.5669 510.042 Q77.9878 507.374 77.9878 503.62 Q77.9878 499.371 74.727 495.566 Q71.4167 491.762 64.9444 491.762 L54.8161 491.762 Q55.2113 502.977 59.7073 507.868 Q64.1539 512.71 69.391 512.71 Z" fill="#000000" fill-rule="nonzero" fill-opacity="1"></path><path clip-path="url(#clip700)" d="M38.6601 472.246 L36.4368 472.246 Q36.2391 467.602 32.9783 464.539 Q29.668 461.426 25.6167 460.389 Q21.5653 459.302 16.8717 459.203 L16.8717 456.683 L35.498 456.683 L35.498 442.207 L38.6601 442.207 L38.6601 456.683 L66.7725 456.683 Q77.6914 456.683 77.6914 449.865 Q77.6914 446.95 74.727 445.023 Q71.7131 443.096 66.3772 443.096 L60.7943 443.096 L60.7943 440.577 L66.5749 440.577 Q72.059 440.577 76.1598 443.096 Q80.2605 445.616 80.2605 450.606 Q80.2605 452.434 79.7664 454.262 Q79.3218 456.041 78.136 458.412 Q76.9009 460.734 73.9365 462.217 Q70.9226 463.649 66.5749 463.649 L38.6601 463.649 L38.6601 472.246 Z" fill="#000000" fill-rule="nonzero" fill-opacity="1"></path><path clip-path="url(#clip700)" d="M38.6601 431.683 L35.498 431.683 L34.4111 416.812 L68.0076 416.812 Q70.4286 416.812 71.8614 416.614 Q73.2448 416.417 74.8752 415.626 Q76.5056 414.786 77.2467 412.909 Q77.9878 410.982 77.9878 407.919 Q77.9878 402.435 73.4918 399.075 Q68.9958 395.666 62.3259 395.666 L44.2924 395.666 Q40.5375 395.666 39.5988 397 Q38.6601 398.334 38.6601 403.571 L35.498 403.571 L34.4111 388.699 L70.3298 388.699 Q74.0847 388.699 75.0728 387.415 Q76.0115 386.081 76.0115 380.794 L79.1242 380.794 L80.2605 395.369 L71.1203 395.369 Q80.2111 399.618 80.2605 408.413 Q80.2605 412.859 79.1242 415.923 Q77.9878 418.936 76.6044 420.468 Q75.1716 422 72.4543 422.84 Q69.7369 423.63 68.0571 423.729 Q66.3772 423.828 63.1164 423.828 L47.9485 423.828 Q41.081 423.828 39.8952 424.816 Q38.6601 425.804 38.6601 431.683 Z" fill="#000000" fill-rule="nonzero" fill-opacity="1"></path><path clip-path="url(#clip700)" d="M79.1242 376.002 L76.0115 376.002 Q76.0115 370.617 75.3692 369.381 Q74.6776 368.097 71.4167 368.097 L44.2924 368.097 Q40.5375 368.097 39.5988 369.431 Q38.6601 370.715 38.6601 376.002 L35.498 376.002 L34.4111 361.921 L45.5276 361.921 Q41.1798 360.488 37.8201 357.474 Q34.4111 354.411 34.4111 349.471 Q34.4111 346.21 36.2391 344.135 Q38.0672 342.01 40.5869 342.01 Q42.8102 342.01 43.9466 343.394 Q45.0335 344.728 45.0335 346.358 Q45.0335 348.186 43.8972 349.471 Q42.7114 350.706 40.6857 350.706 Q39.4506 350.706 38.5118 350.162 Q37.5237 349.569 37.1779 349.125 Q36.832 348.68 36.7332 348.384 Q36.6344 348.581 36.6344 349.471 Q36.6344 355.054 42.2173 358.265 Q47.7509 361.427 55.656 361.427 L71.2191 361.427 Q74.1341 361.427 75.0728 360.241 Q76.0115 359.006 76.0115 353.72 L76.0115 351.595 L79.1242 351.595 Q78.8277 355.646 78.8277 364.441 Q78.8277 365.676 78.8771 367.603 Q78.9265 369.53 79.0253 372.049 Q79.1242 374.569 79.1242 376.002 Z" fill="#000000" fill-rule="nonzero" fill-opacity="1"></path><path clip-path="url(#clip700)" d="M56.8417 336.477 Q47.3062 336.477 40.5375 330.35 Q33.7688 324.224 33.7688 315.429 Q33.7688 306.536 39.5494 301.941 Q45.33 297.297 53.6303 297.297 Q55.1619 297.297 55.4583 297.692 Q55.7548 298.088 55.7548 299.817 L55.7548 328.077 Q66.0808 328.077 70.9226 325.014 Q77.6914 320.765 77.6914 313.601 Q77.6914 312.613 77.4937 311.427 Q77.2961 310.242 76.4562 307.821 Q75.5669 305.4 73.2448 303.275 Q70.9226 301.151 67.2665 299.916 Q65.8338 299.619 65.8832 298.631 Q65.8832 297.297 67.0689 297.297 Q67.9582 297.297 69.9839 298.285 Q71.9602 299.224 74.3317 301.052 Q76.7032 302.88 78.4819 306.437 Q80.2605 309.945 80.2605 314.194 Q80.2605 323.087 73.5412 329.807 Q66.7725 336.477 56.8417 336.477 M53.6303 327.979 L53.6303 303.967 Q51.5058 303.967 49.1343 304.362 Q46.7628 304.708 43.5019 305.795 Q40.1917 306.833 38.1166 309.303 Q36.0415 311.773 36.0415 315.429 Q36.0415 317.06 36.7332 318.838 Q37.4249 320.568 39.1047 322.692 Q40.7845 324.817 44.5889 326.299 Q48.3932 327.781 53.6303 327.979 Z" fill="#000000" fill-rule="nonzero" fill-opacity="1"></path><polyline clip-path="url(#clip702)" style="stroke:#009af9; stroke-linecap:round; stroke-linejoin:round; stroke-width:4; stroke-opacity:1; fill:none" points="319.927,847.071 539.218,837.006 758.509,107.825 977.8,603.252 1197.09,846.665 1416.38,901.712 1635.67,584.942 1854.96,1151.57 2074.26,624.918 2293.55,609.448 "></polyline>
<polyline clip-path="url(#clip702)" style="stroke:#e26f46; stroke-linecap:round; stroke-linejoin:round; stroke-width:4; stroke-opacity:1; fill:none" points="319.927,833.273 539.218,782.354 758.509,100.632 977.8,489.78 1197.09,1117.31 1416.38,700.931 1635.67,723.061 1854.96,797.446 2074.26,882.118 2293.55,882.088 "></polyline>
<polyline clip-path="url(#clip702)" style="stroke:#3da44d; stroke-linecap:round; stroke-linejoin:round; stroke-width:4; stroke-opacity:1; fill:none" points="319.927,833.208 539.218,782.154 758.509,96.8103 977.8,649.391 1197.09,830.522 1416.38,796.277 1635.67,717.265 1854.96,896.652 2074.26,805.156 2293.55,804.025 "></polyline>
<polyline clip-path="url(#clip702)" style="stroke:#c271d2; stroke-linecap:round; stroke-linejoin:round; stroke-width:4; stroke-opacity:1; fill:none" points="319.927,833.182 539.218,782.04 758.509,85.0853 977.8,562.136 1197.09,904.804 1416.38,316.371 1635.67,1346.46 1854.96,770.856 2074.26,916.081 2293.55,915.428 "></polyline>
<path clip-path="url(#clip700)" d="M330.453 1339.73 L1249.02 1339.73 L1249.02 1002.77 L330.453 1002.77  Z" fill="#ffffff" fill-rule="evenodd" fill-opacity="1"></path>
<polyline clip-path="url(#clip700)" style="stroke:#000000; stroke-linecap:round; stroke-linejoin:round; stroke-width:4; stroke-opacity:1; fill:none" points="330.453,1339.73 1249.02,1339.73 1249.02,1002.77 330.453,1002.77 330.453,1339.73 "></polyline>
<path clip-path="url(#clip700)" d="M834.939 1061.01 Q834.939 1061.5 834.825 1061.84 Q834.711 1062.15 834.445 1062.3 Q834.178 1062.45 834.026 1062.49 Q833.874 1062.53 833.531 1062.57 Q831.895 1062.72 830.753 1062.99 Q829.649 1063.25 826.908 1064.62 Q824.206 1065.99 820.819 1068.47 L807.193 1079.01 L804.909 1080.8 Q804.909 1080.91 804.985 1081.14 Q805.061 1081.33 805.137 1081.6 Q805.251 1081.83 805.29 1081.9 L816.365 1107.44 Q817.241 1109.5 818.307 1110.22 Q819.372 1110.94 821.77 1110.98 Q822.151 1110.98 822.303 1111.02 Q822.493 1111.02 822.76 1111.09 Q823.064 1111.13 823.178 1111.32 Q823.331 1111.51 823.331 1111.82 Q823.331 1113.38 821.922 1113.38 Q821.047 1113.38 818.078 1113.26 Q815.109 1113.15 814.272 1113.15 Q812.712 1113.15 809.514 1113.26 Q806.317 1113.38 804.757 1113.38 Q803.653 1113.38 803.653 1112.5 Q803.653 1111.78 803.919 1111.44 Q804.224 1111.06 804.49 1111.02 Q804.757 1110.98 805.366 1110.98 Q805.822 1110.98 806.317 1110.94 Q806.85 1110.87 807.611 1110.68 Q808.411 1110.45 808.905 1109.91 Q809.438 1109.34 809.438 1108.54 Q809.438 1107.9 808.487 1105.8 L799.466 1084.83 L787.857 1093.89 L784.736 1106.15 Q784.66 1106.6 784.47 1107.4 Q784.28 1108.2 784.127 1108.77 Q784.013 1109.34 784.013 1109.57 Q784.013 1110.07 784.318 1110.37 Q784.66 1110.68 785.498 1110.83 Q786.335 1110.94 786.982 1110.98 Q787.667 1110.98 789.075 1110.98 Q790.826 1110.98 791.131 1111.29 Q791.283 1111.48 791.283 1111.82 Q791.283 1112.35 791.131 1112.73 Q790.978 1113.07 790.674 1113.19 Q790.407 1113.3 790.217 1113.34 Q790.027 1113.38 789.722 1113.38 Q788.923 1113.38 787.21 1113.3 Q785.536 1113.23 784.66 1113.23 L779.674 1113.15 L769.778 1113.38 Q768.598 1113.38 768.598 1112.43 Q768.598 1111.7 768.903 1111.4 Q769.207 1111.06 769.55 1111.02 Q769.892 1110.98 770.768 1110.98 Q772.671 1110.98 773.813 1110.87 Q774.955 1110.75 775.678 1110.6 Q776.439 1110.41 776.82 1109.88 Q777.238 1109.34 777.429 1108.89 Q777.619 1108.39 777.885 1107.29 L788.314 1065.42 Q788.619 1064.17 788.619 1063.97 Q788.619 1063.33 788.238 1063.1 Q787.895 1062.83 786.906 1062.72 Q785.003 1062.57 783.556 1062.57 Q782.605 1062.57 782.224 1062.53 Q781.882 1062.49 781.577 1062.3 Q781.311 1062.07 781.311 1061.61 Q781.311 1060.13 782.871 1060.13 L792.92 1060.36 L802.892 1060.13 Q803.995 1060.13 803.995 1061.01 Q803.995 1062.11 803.463 1062.34 Q802.968 1062.57 801.331 1062.57 Q798.477 1062.57 797.182 1062.95 Q795.926 1063.29 795.546 1063.9 Q795.203 1064.47 794.785 1066.14 L788.542 1091.15 L818.954 1067.78 Q821.77 1065.42 821.77 1064.2 Q821.77 1063.4 821.199 1063.06 Q820.666 1062.68 819.334 1062.57 Q818.383 1062.41 818.383 1061.69 Q818.383 1060.97 818.649 1060.63 Q818.954 1060.24 819.182 1060.21 Q819.448 1060.13 819.867 1060.13 Q821.275 1060.13 824.206 1060.24 Q827.137 1060.36 828.545 1060.36 Q829.497 1060.36 831.362 1060.24 Q833.227 1060.13 834.064 1060.13 Q834.483 1060.13 834.711 1060.43 Q834.939 1060.7 834.939 1061.01 Z" fill="#000000" fill-rule="nonzero" fill-opacity="1"></path><polyline clip-path="url(#clip700)" style="stroke:#009af9; stroke-linecap:round; stroke-linejoin:round; stroke-width:6.5; stroke-opacity:1; fill:none" points="353.698,1171.25 493.167,1171.25 "></polyline>
<path clip-path="url(#clip700)" d="M516.412 1152.4 L516.412 1149.84 Q526.287 1149.84 531.385 1144.58 Q532.79 1144.58 533.031 1144.9 Q533.272 1145.22 533.272 1146.7 L533.272 1192.83 Q533.272 1195.28 534.476 1196.04 Q535.68 1196.8 540.939 1196.8 L543.548 1196.8 L543.548 1199.33 Q540.658 1199.09 530.221 1199.09 Q519.784 1199.09 516.934 1199.33 L516.934 1196.8 L519.543 1196.8 Q524.721 1196.8 525.966 1196.08 Q527.21 1195.32 527.21 1192.83 L527.21 1150.24 Q522.915 1152.4 516.412 1152.4 Z" fill="#000000" fill-rule="nonzero" fill-opacity="1"></path><path clip-path="url(#clip700)" d="M553.664 1173.36 Q553.664 1160.43 560.248 1152.52 Q566.831 1144.58 575.301 1144.58 Q580.239 1144.58 582.969 1147.11 Q585.739 1149.59 585.739 1153.45 Q585.739 1155.58 584.494 1156.5 Q583.25 1157.42 581.965 1157.42 Q580.48 1157.42 579.316 1156.42 Q578.152 1155.41 578.152 1153.61 Q578.152 1149.92 582.688 1149.92 Q580.56 1146.62 575.462 1146.62 Q573.896 1146.62 572.291 1147.11 Q570.685 1147.55 568.597 1149.07 Q566.51 1150.6 564.904 1153.01 Q563.299 1155.41 562.175 1159.95 Q561.051 1164.49 561.051 1170.39 L561.051 1172.36 Q564.423 1164.21 571.327 1164.25 Q578.232 1164.25 583.009 1169.51 Q587.786 1174.76 587.786 1182.55 Q587.786 1190.54 582.808 1195.84 Q577.83 1201.14 570.845 1201.14 Q567.714 1201.14 564.864 1199.81 Q562.054 1198.53 559.405 1195.56 Q556.795 1192.59 555.23 1186.89 Q553.664 1181.19 553.664 1173.36 M561.211 1180.75 Q561.211 1188.81 562.696 1192.67 Q562.937 1193.31 563.459 1194.19 Q564.021 1195.08 564.944 1196.24 Q565.908 1197.36 567.473 1198.13 Q569.039 1198.85 570.845 1198.85 Q576.345 1198.85 578.995 1193.51 Q580.4 1190.54 580.4 1182.47 Q580.4 1174.24 578.914 1171.23 Q576.385 1166.13 571.247 1166.13 Q567.795 1166.13 565.386 1168.5 Q563.018 1170.87 562.094 1174.04 Q561.211 1177.21 561.211 1180.75 Z" fill="#000000" fill-rule="nonzero" fill-opacity="1"></path><polyline clip-path="url(#clip700)" style="stroke:#e26f46; stroke-linecap:round; stroke-linejoin:round; stroke-width:6.5; stroke-opacity:1; fill:none" points="652.137,1171.25 791.606,1171.25 "></polyline>
<path clip-path="url(#clip700)" d="M814.851 1188.25 Q814.851 1185.8 816.256 1184.64 Q817.661 1183.47 819.468 1183.47 Q821.354 1183.47 822.679 1184.72 Q824.044 1185.92 824.044 1188.05 Q824.044 1190.34 822.438 1191.62 Q820.873 1192.91 818.625 1192.59 Q820.592 1195.88 824.204 1197.36 Q827.857 1198.85 831.229 1198.85 Q834.762 1198.85 837.612 1195.8 Q840.502 1192.75 840.502 1185.28 Q840.502 1178.94 838.014 1175.29 Q835.565 1171.63 830.708 1171.63 L827.095 1171.63 Q825.85 1171.63 825.489 1171.51 Q825.128 1171.39 825.128 1170.71 Q825.128 1169.91 826.372 1169.75 Q827.617 1169.75 829.584 1169.51 Q834.361 1169.34 836.89 1165.21 Q839.178 1161.36 839.178 1155.86 Q839.178 1150.84 836.769 1148.75 Q834.401 1146.62 831.31 1146.62 Q828.419 1146.62 825.248 1147.83 Q822.077 1149.03 820.351 1151.72 Q825.449 1151.72 825.449 1155.86 Q825.449 1157.66 824.285 1158.87 Q823.161 1160.03 821.274 1160.03 Q819.468 1160.03 818.263 1158.91 Q817.059 1157.74 817.059 1155.78 Q817.059 1151.08 821.234 1147.83 Q825.449 1144.58 831.631 1144.58 Q837.733 1144.58 842.229 1147.79 Q846.765 1151 846.765 1155.94 Q846.765 1160.79 843.553 1164.77 Q840.342 1168.74 835.244 1170.39 Q841.506 1171.63 845.239 1175.89 Q848.973 1180.1 848.973 1185.28 Q848.973 1191.7 843.915 1196.44 Q838.857 1201.14 831.47 1201.14 Q824.646 1201.14 819.749 1197.44 Q814.851 1193.75 814.851 1188.25 Z" fill="#000000" fill-rule="nonzero" fill-opacity="1"></path><path clip-path="url(#clip700)" d="M856.6 1199.33 Q856.6 1197.85 856.72 1197.4 Q856.881 1196.96 857.523 1196.28 L873.299 1178.7 Q881.93 1168.98 881.93 1160.51 Q881.93 1155.01 879.04 1151.08 Q876.19 1147.15 870.931 1147.15 Q867.318 1147.15 864.267 1149.35 Q861.216 1151.56 859.811 1155.5 Q860.052 1155.41 860.895 1155.41 Q862.942 1155.41 864.066 1156.7 Q865.231 1157.98 865.231 1159.71 Q865.231 1161.92 863.785 1163 Q862.38 1164.05 860.975 1164.05 Q860.413 1164.05 859.651 1163.93 Q858.928 1163.8 857.764 1162.68 Q856.6 1161.52 856.6 1159.47 Q856.6 1153.73 860.935 1149.15 Q865.311 1144.58 871.975 1144.58 Q879.521 1144.58 884.459 1149.07 Q889.437 1153.53 889.437 1160.51 Q889.437 1162.96 888.674 1165.21 Q887.951 1167.42 886.948 1169.14 Q885.984 1170.87 883.335 1173.64 Q880.686 1176.41 878.558 1178.38 Q876.43 1180.34 871.653 1184.52 L862.942 1192.99 L877.755 1192.99 Q884.981 1192.99 885.543 1192.35 Q886.346 1191.18 887.349 1185.04 L889.437 1185.04 L887.108 1199.33 L856.6 1199.33 Z" fill="#000000" fill-rule="nonzero" fill-opacity="1"></path><polyline clip-path="url(#clip700)" style="stroke:#3da44d; stroke-linecap:round; stroke-linejoin:round; stroke-width:6.5; stroke-opacity:1; fill:none" points="950.577,1171.25 1090.05,1171.25 "></polyline>
<path clip-path="url(#clip700)" d="M1113.29 1173.36 Q1113.29 1160.43 1119.87 1152.52 Q1126.46 1144.58 1134.93 1144.58 Q1139.87 1144.58 1142.59 1147.11 Q1145.36 1149.59 1145.36 1153.45 Q1145.36 1155.58 1144.12 1156.5 Q1142.88 1157.42 1141.59 1157.42 Q1140.11 1157.42 1138.94 1156.42 Q1137.78 1155.41 1137.78 1153.61 Q1137.78 1149.92 1142.31 1149.92 Q1140.19 1146.62 1135.09 1146.62 Q1133.52 1146.62 1131.92 1147.11 Q1130.31 1147.55 1128.22 1149.07 Q1126.14 1150.6 1124.53 1153.01 Q1122.92 1155.41 1121.8 1159.95 Q1120.68 1164.49 1120.68 1170.39 L1120.68 1172.36 Q1124.05 1164.21 1130.95 1164.25 Q1137.86 1164.25 1142.64 1169.51 Q1147.41 1174.76 1147.41 1182.55 Q1147.41 1190.54 1142.43 1195.84 Q1137.46 1201.14 1130.47 1201.14 Q1127.34 1201.14 1124.49 1199.81 Q1121.68 1198.53 1119.03 1195.56 Q1116.42 1192.59 1114.86 1186.89 Q1113.29 1181.19 1113.29 1173.36 M1120.84 1180.75 Q1120.84 1188.81 1122.32 1192.67 Q1122.56 1193.31 1123.09 1194.19 Q1123.65 1195.08 1124.57 1196.24 Q1125.53 1197.36 1127.1 1198.13 Q1128.67 1198.85 1130.47 1198.85 Q1135.97 1198.85 1138.62 1193.51 Q1140.03 1190.54 1140.03 1182.47 Q1140.03 1174.24 1138.54 1171.23 Q1136.01 1166.13 1130.87 1166.13 Q1127.42 1166.13 1125.01 1168.5 Q1122.64 1170.87 1121.72 1174.04 Q1120.84 1177.21 1120.84 1180.75 Z" fill="#000000" fill-rule="nonzero" fill-opacity="1"></path><path clip-path="url(#clip700)" d="M1153.23 1185.76 L1153.23 1183.23 L1178.48 1144.66 Q1179.13 1143.65 1180.13 1143.69 Q1181.05 1143.69 1181.25 1144.05 Q1181.45 1144.42 1181.45 1145.82 L1181.45 1183.23 L1189.68 1183.23 L1189.68 1185.76 L1181.45 1185.76 L1181.45 1192.91 Q1181.45 1195.28 1182.42 1196.04 Q1183.42 1196.8 1187.68 1196.8 L1189.4 1196.8 L1189.4 1199.33 Q1186.03 1199.09 1178.24 1199.09 Q1170.49 1199.09 1167.12 1199.33 L1167.12 1196.8 L1168.85 1196.8 Q1173.1 1196.8 1174.11 1196.08 Q1175.11 1195.32 1175.11 1192.91 L1175.11 1185.76 L1153.23 1185.76 M1155.56 1183.23 L1175.59 1183.23 L1175.59 1152.56 L1155.56 1183.23 Z" fill="#000000" fill-rule="nonzero" fill-opacity="1"></path><polyline clip-path="url(#clip700)" style="stroke:#c271d2; stroke-linecap:round; stroke-linejoin:round; stroke-width:6.5; stroke-opacity:1; fill:none" points="353.698,1255.49 493.167,1255.49 "></polyline>
<path clip-path="url(#clip700)" d="M516.412 1236.64 L516.412 1234.08 Q526.287 1234.08 531.385 1228.82 Q532.79 1228.82 533.031 1229.14 Q533.272 1229.46 533.272 1230.94 L533.272 1277.07 Q533.272 1279.52 534.476 1280.28 Q535.68 1281.04 540.939 1281.04 L543.548 1281.04 L543.548 1283.57 Q540.658 1283.33 530.221 1283.33 Q519.784 1283.33 516.934 1283.57 L516.934 1281.04 L519.543 1281.04 Q524.721 1281.04 525.966 1280.32 Q527.21 1279.56 527.21 1277.07 L527.21 1234.48 Q522.915 1236.64 516.412 1236.64 Z" fill="#000000" fill-rule="nonzero" fill-opacity="1"></path><path clip-path="url(#clip700)" d="M554.307 1283.57 Q554.307 1282.09 554.427 1281.64 Q554.588 1281.2 555.23 1280.52 L571.006 1262.94 Q579.637 1253.22 579.637 1244.75 Q579.637 1239.25 576.747 1235.32 Q573.896 1231.39 568.638 1231.39 Q565.025 1231.39 561.974 1233.59 Q558.923 1235.8 557.518 1239.74 Q557.759 1239.65 558.602 1239.65 Q560.649 1239.65 561.773 1240.94 Q562.937 1242.22 562.937 1243.95 Q562.937 1246.16 561.492 1247.24 Q560.087 1248.29 558.682 1248.29 Q558.12 1248.29 557.357 1248.17 Q556.635 1248.04 555.471 1246.92 Q554.307 1245.76 554.307 1243.71 Q554.307 1237.97 558.642 1233.39 Q563.018 1228.82 569.681 1228.82 Q577.228 1228.82 582.166 1233.31 Q587.144 1237.77 587.144 1244.75 Q587.144 1247.2 586.381 1249.45 Q585.658 1251.66 584.655 1253.38 Q583.691 1255.11 581.042 1257.88 Q578.392 1260.65 576.265 1262.62 Q574.137 1264.58 569.36 1268.76 L560.649 1277.23 L575.462 1277.23 Q582.688 1277.23 583.25 1276.59 Q584.053 1275.42 585.056 1269.28 L587.144 1269.28 L584.815 1283.57 L554.307 1283.57 Z" fill="#000000" fill-rule="nonzero" fill-opacity="1"></path><path clip-path="url(#clip700)" d="M594.771 1271.17 Q594.771 1261.97 606.613 1256.03 Q601.515 1252.58 600.591 1251.58 Q596.979 1247.56 596.979 1242.55 Q596.979 1236.8 601.314 1232.83 Q605.69 1228.82 611.872 1228.82 Q617.773 1228.82 622.228 1232.23 Q626.684 1235.64 626.684 1241.06 Q626.684 1248.69 616.729 1253.83 Q623.312 1257.92 624.878 1259.65 Q628.892 1264.1 628.892 1269.76 Q628.892 1276.35 623.834 1280.88 Q618.776 1285.38 611.791 1285.38 Q604.967 1285.38 599.869 1281.4 Q594.771 1277.43 594.771 1271.17 M598.865 1271.17 Q598.865 1276.27 602.679 1279.68 Q606.533 1283.09 611.872 1283.09 Q617.05 1283.09 620.904 1280.12 Q624.798 1277.15 624.798 1272.73 Q624.798 1271.01 624.195 1269.52 Q623.633 1268.04 622.469 1266.87 Q621.345 1265.67 620.623 1265.15 Q619.94 1264.58 618.616 1263.66 L608.5 1257.28 Q598.865 1262.62 598.865 1271.17 M600.591 1239.33 Q600.591 1243.27 604.726 1246 L614.922 1252.58 Q623.071 1247.8 623.071 1241.06 Q623.071 1236.68 619.74 1233.79 Q616.408 1230.86 611.791 1230.86 Q607.255 1230.86 603.923 1233.27 Q600.591 1235.64 600.591 1239.33 Z" fill="#000000" fill-rule="nonzero" fill-opacity="1"></path></svg>