<svg xmlns="http://www.w3.org/2000/svg" xmlns:xlink="http://www.w3.org/1999/xlink" width="600" height="400" viewBox="0 0 2400 1600">
<defs>
  <clipPath id="clip150">
    <rect x="0" y="0" width="2400" height="1600"></rect>
  </clipPath>
</defs>
<path clip-path="url(#clip150)" d="M0 1600 L2400 1600 L2400 0 L0 0  Z" fill="#ffffff" fill-rule="evenodd" fill-opacity="1"></path>
<defs>
  <clipPath id="clip151">
    <rect x="480" y="0" width="1681" height="1600"></rect>
  </clipPath>
</defs>
<path clip-path="url(#clip150)" d="M280.19 1423.18 L2352.76 1423.18 L2352.76 47.2441 L280.19 47.2441  Z" fill="#ffffff" fill-rule="evenodd" fill-opacity="1"></path>
<defs>
  <clipPath id="clip152">
    <rect x="280" y="47" width="2074" height="1377"></rect>
  </clipPath>
</defs>
<polyline clip-path="url(#clip152)" style="stroke:#000000; stroke-linecap:round; stroke-linejoin:round; stroke-width:2; stroke-opacity:0.1; fill:none" points="416.355,1423.18 416.355,47.2441 "></polyline>
<polyline clip-path="url(#clip152)" style="stroke:#000000; stroke-linecap:round; stroke-linejoin:round; stroke-width:2; stroke-opacity:0.1; fill:none" points="731.832,1423.18 731.832,47.2441 "></polyline>
<polyline clip-path="url(#clip152)" style="stroke:#000000; stroke-linecap:round; stroke-linejoin:round; stroke-width:2; stroke-opacity:0.1; fill:none" points="1047.31,1423.18 1047.31,47.2441 "></polyline>
<polyline clip-path="url(#clip152)" style="stroke:#000000; stroke-linecap:round; stroke-linejoin:round; stroke-width:2; stroke-opacity:0.1; fill:none" points="1362.78,1423.18 1362.78,47.2441 "></polyline>
<polyline clip-path="url(#clip152)" style="stroke:#000000; stroke-linecap:round; stroke-linejoin:round; stroke-width:2; stroke-opacity:0.1; fill:none" points="1678.26,1423.18 1678.26,47.2441 "></polyline>
<polyline clip-path="url(#clip152)" style="stroke:#000000; stroke-linecap:round; stroke-linejoin:round; stroke-width:2; stroke-opacity:0.1; fill:none" points="1993.74,1423.18 1993.74,47.2441 "></polyline>
<polyline clip-path="url(#clip152)" style="stroke:#000000; stroke-linecap:round; stroke-linejoin:round; stroke-width:2; stroke-opacity:0.1; fill:none" points="2309.21,1423.18 2309.21,47.2441 "></polyline>
<polyline clip-path="url(#clip150)" style="stroke:#000000; stroke-linecap:round; stroke-linejoin:round; stroke-width:4; stroke-opacity:1; fill:none" points="280.19,1423.18 2352.76,1423.18 "></polyline>
<polyline clip-path="url(#clip150)" style="stroke:#000000; stroke-linecap:round; stroke-linejoin:round; stroke-width:4; stroke-opacity:1; fill:none" points="416.355,1423.18 416.355,1404.28 "></polyline>
<polyline clip-path="url(#clip150)" style="stroke:#000000; stroke-linecap:round; stroke-linejoin:round; stroke-width:4; stroke-opacity:1; fill:none" points="731.832,1423.18 731.832,1404.28 "></polyline>
<polyline clip-path="url(#clip150)" style="stroke:#000000; stroke-linecap:round; stroke-linejoin:round; stroke-width:4; stroke-opacity:1; fill:none" points="1047.31,1423.18 1047.31,1404.28 "></polyline>
<polyline clip-path="url(#clip150)" style="stroke:#000000; stroke-linecap:round; stroke-linejoin:round; stroke-width:4; stroke-opacity:1; fill:none" points="1362.78,1423.18 1362.78,1404.28 "></polyline>
<polyline clip-path="url(#clip150)" style="stroke:#000000; stroke-linecap:round; stroke-linejoin:round; stroke-width:4; stroke-opacity:1; fill:none" points="1678.26,1423.18 1678.26,1404.28 "></polyline>
<polyline clip-path="url(#clip150)" style="stroke:#000000; stroke-linecap:round; stroke-linejoin:round; stroke-width:4; stroke-opacity:1; fill:none" points="1993.74,1423.18 1993.74,1404.28 "></polyline>
<polyline clip-path="url(#clip150)" style="stroke:#000000; stroke-linecap:round; stroke-linejoin:round; stroke-width:4; stroke-opacity:1; fill:none" points="2309.21,1423.18 2309.21,1404.28 "></polyline>
<path clip-path="url(#clip150)" d="M370.418 1468.75 L400.094 1468.75 L400.094 1472.69 L370.418 1472.69 L370.418 1468.75 Z" fill="#000000" fill-rule="nonzero" fill-opacity="1"></path><path clip-path="url(#clip150)" d="M410.233 1451.02 L428.589 1451.02 L428.589 1454.96 L414.515 1454.96 L414.515 1463.43 Q415.533 1463.08 416.552 1462.92 Q417.57 1462.73 418.589 1462.73 Q424.376 1462.73 427.756 1465.9 Q431.135 1469.08 431.135 1474.49 Q431.135 1480.07 427.663 1483.17 Q424.191 1486.25 417.871 1486.25 Q415.695 1486.25 413.427 1485.88 Q411.182 1485.51 408.774 1484.77 L408.774 1480.07 Q410.858 1481.2 413.08 1481.76 Q415.302 1482.32 417.779 1482.32 Q421.783 1482.32 424.121 1480.21 Q426.459 1478.1 426.459 1474.49 Q426.459 1470.88 424.121 1468.77 Q421.783 1466.67 417.779 1466.67 Q415.904 1466.67 414.029 1467.08 Q412.177 1467.5 410.233 1468.38 L410.233 1451.02 Z" fill="#000000" fill-rule="nonzero" fill-opacity="1"></path><path clip-path="url(#clip150)" d="M450.348 1454.1 Q446.737 1454.1 444.908 1457.66 Q443.103 1461.2 443.103 1468.33 Q443.103 1475.44 444.908 1479.01 Q446.737 1482.55 450.348 1482.55 Q453.982 1482.55 455.788 1479.01 Q457.617 1475.44 457.617 1468.33 Q457.617 1461.2 455.788 1457.66 Q453.982 1454.1 450.348 1454.1 M450.348 1450.39 Q456.158 1450.39 459.214 1455 Q462.292 1459.58 462.292 1468.33 Q462.292 1477.06 459.214 1481.67 Q456.158 1486.25 450.348 1486.25 Q444.538 1486.25 441.459 1481.67 Q438.404 1477.06 438.404 1468.33 Q438.404 1459.58 441.459 1455 Q444.538 1450.39 450.348 1450.39 Z" fill="#000000" fill-rule="nonzero" fill-opacity="1"></path><path clip-path="url(#clip150)" d="M731.832 1454.1 Q728.221 1454.1 726.392 1457.66 Q724.586 1461.2 724.586 1468.33 Q724.586 1475.44 726.392 1479.01 Q728.221 1482.55 731.832 1482.55 Q735.466 1482.55 737.272 1479.01 Q739.1 1475.44 739.1 1468.33 Q739.1 1461.2 737.272 1457.66 Q735.466 1454.1 731.832 1454.1 M731.832 1450.39 Q737.642 1450.39 740.697 1455 Q743.776 1459.58 743.776 1468.33 Q743.776 1477.06 740.697 1481.67 Q737.642 1486.25 731.832 1486.25 Q726.022 1486.25 722.943 1481.67 Q719.887 1477.06 719.887 1468.33 Q719.887 1459.58 722.943 1455 Q726.022 1450.39 731.832 1450.39 Z" fill="#000000" fill-rule="nonzero" fill-opacity="1"></path><path clip-path="url(#clip150)" d="M1022.01 1451.02 L1040.36 1451.02 L1040.36 1454.96 L1026.29 1454.96 L1026.29 1463.43 Q1027.31 1463.08 1028.33 1462.92 Q1029.35 1462.73 1030.36 1462.73 Q1036.15 1462.73 1039.53 1465.9 Q1042.91 1469.08 1042.91 1474.49 Q1042.91 1480.07 1039.44 1483.17 Q1035.97 1486.25 1029.65 1486.25 Q1027.47 1486.25 1025.2 1485.88 Q1022.96 1485.51 1020.55 1484.77 L1020.55 1480.07 Q1022.63 1481.2 1024.85 1481.76 Q1027.08 1482.32 1029.55 1482.32 Q1033.56 1482.32 1035.9 1480.21 Q1038.23 1478.1 1038.23 1474.49 Q1038.23 1470.88 1035.9 1468.77 Q1033.56 1466.67 1029.55 1466.67 Q1027.68 1466.67 1025.8 1467.08 Q1023.95 1467.5 1022.01 1468.38 L1022.01 1451.02 Z" fill="#000000" fill-rule="nonzero" fill-opacity="1"></path><path clip-path="url(#clip150)" d="M1062.12 1454.1 Q1058.51 1454.1 1056.68 1457.66 Q1054.88 1461.2 1054.88 1468.33 Q1054.88 1475.44 1056.68 1479.01 Q1058.51 1482.55 1062.12 1482.55 Q1065.76 1482.55 1067.56 1479.01 Q1069.39 1475.44 1069.39 1468.33 Q1069.39 1461.2 1067.56 1457.66 Q1065.76 1454.1 1062.12 1454.1 M1062.12 1450.39 Q1067.93 1450.39 1070.99 1455 Q1074.07 1459.58 1074.07 1468.33 Q1074.07 1477.06 1070.99 1481.67 Q1067.93 1486.25 1062.12 1486.25 Q1056.31 1486.25 1053.23 1481.67 Q1050.18 1477.06 1050.18 1468.33 Q1050.18 1459.58 1053.23 1455 Q1056.31 1450.39 1062.12 1450.39 Z" fill="#000000" fill-rule="nonzero" fill-opacity="1"></path><path clip-path="url(#clip150)" d="M1322.39 1481.64 L1330.03 1481.64 L1330.03 1455.28 L1321.72 1456.95 L1321.72 1452.69 L1329.98 1451.02 L1334.66 1451.02 L1334.66 1481.64 L1342.3 1481.64 L1342.3 1485.58 L1322.39 1485.58 L1322.39 1481.64 Z" fill="#000000" fill-rule="nonzero" fill-opacity="1"></path><path clip-path="url(#clip150)" d="M1361.74 1454.1 Q1358.13 1454.1 1356.3 1457.66 Q1354.5 1461.2 1354.5 1468.33 Q1354.5 1475.44 1356.3 1479.01 Q1358.13 1482.55 1361.74 1482.55 Q1365.38 1482.55 1367.18 1479.01 Q1369.01 1475.44 1369.01 1468.33 Q1369.01 1461.2 1367.18 1457.66 Q1365.38 1454.1 1361.74 1454.1 M1361.74 1450.39 Q1367.55 1450.39 1370.61 1455 Q1373.69 1459.58 1373.69 1468.33 Q1373.69 1477.06 1370.61 1481.67 Q1367.55 1486.25 1361.74 1486.25 Q1355.93 1486.25 1352.85 1481.67 Q1349.8 1477.06 1349.8 1468.33 Q1349.8 1459.58 1352.85 1455 Q1355.93 1450.39 1361.74 1450.39 Z" fill="#000000" fill-rule="nonzero" fill-opacity="1"></path><path clip-path="url(#clip150)" d="M1391.91 1454.1 Q1388.29 1454.1 1386.47 1457.66 Q1384.66 1461.2 1384.66 1468.33 Q1384.66 1475.44 1386.47 1479.01 Q1388.29 1482.55 1391.91 1482.55 Q1395.54 1482.55 1397.34 1479.01 Q1399.17 1475.44 1399.17 1468.33 Q1399.17 1461.2 1397.34 1457.66 Q1395.54 1454.1 1391.91 1454.1 M1391.91 1450.39 Q1397.72 1450.39 1400.77 1455 Q1403.85 1459.58 1403.85 1468.33 Q1403.85 1477.06 1400.77 1481.67 Q1397.72 1486.25 1391.91 1486.25 Q1386.09 1486.25 1383.02 1481.67 Q1379.96 1477.06 1379.96 1468.33 Q1379.96 1459.58 1383.02 1455 Q1386.09 1450.39 1391.91 1450.39 Z" fill="#000000" fill-rule="nonzero" fill-opacity="1"></path><path clip-path="url(#clip150)" d="M1637.87 1481.64 L1645.51 1481.64 L1645.51 1455.28 L1637.2 1456.95 L1637.2 1452.69 L1645.46 1451.02 L1650.14 1451.02 L1650.14 1481.64 L1657.78 1481.64 L1657.78 1485.58 L1637.87 1485.58 L1637.87 1481.64 Z" fill="#000000" fill-rule="nonzero" fill-opacity="1"></path><path clip-path="url(#clip150)" d="M1667.27 1451.02 L1685.62 1451.02 L1685.62 1454.96 L1671.55 1454.96 L1671.55 1463.43 Q1672.57 1463.08 1673.59 1462.92 Q1674.6 1462.73 1675.62 1462.73 Q1681.41 1462.73 1684.79 1465.9 Q1688.17 1469.08 1688.17 1474.49 Q1688.17 1480.07 1684.7 1483.17 Q1681.22 1486.25 1674.91 1486.25 Q1672.73 1486.25 1670.46 1485.88 Q1668.22 1485.51 1665.81 1484.77 L1665.81 1480.07 Q1667.89 1481.2 1670.11 1481.76 Q1672.34 1482.32 1674.81 1482.32 Q1678.82 1482.32 1681.15 1480.21 Q1683.49 1478.1 1683.49 1474.49 Q1683.49 1470.88 1681.15 1468.77 Q1678.82 1466.67 1674.81 1466.67 Q1672.94 1466.67 1671.06 1467.08 Q1669.21 1467.5 1667.27 1468.38 L1667.27 1451.02 Z" fill="#000000" fill-rule="nonzero" fill-opacity="1"></path><path clip-path="url(#clip150)" d="M1707.38 1454.1 Q1703.77 1454.1 1701.94 1457.66 Q1700.14 1461.2 1700.14 1468.33 Q1700.14 1475.44 1701.94 1479.01 Q1703.77 1482.55 1707.38 1482.55 Q1711.02 1482.55 1712.82 1479.01 Q1714.65 1475.44 1714.65 1468.33 Q1714.65 1461.2 1712.82 1457.66 Q1711.02 1454.1 1707.38 1454.1 M1707.38 1450.39 Q1713.19 1450.39 1716.25 1455 Q1719.33 1459.58 1719.33 1468.33 Q1719.33 1477.06 1716.25 1481.67 Q1713.19 1486.25 1707.38 1486.25 Q1701.57 1486.25 1698.49 1481.67 Q1695.44 1477.06 1695.44 1468.33 Q1695.44 1459.58 1698.49 1455 Q1701.57 1450.39 1707.38 1450.39 Z" fill="#000000" fill-rule="nonzero" fill-opacity="1"></path><path clip-path="url(#clip150)" d="M1957.43 1481.64 L1973.75 1481.64 L1973.75 1485.58 L1951.81 1485.58 L1951.81 1481.64 Q1954.47 1478.89 1959.05 1474.26 Q1963.66 1469.61 1964.84 1468.27 Q1967.08 1465.74 1967.96 1464.01 Q1968.87 1462.25 1968.87 1460.56 Q1968.87 1457.8 1966.92 1456.07 Q1965 1454.33 1961.9 1454.33 Q1959.7 1454.33 1957.25 1455.09 Q1954.81 1455.86 1952.04 1457.41 L1952.04 1452.69 Q1954.86 1451.55 1957.31 1450.97 Q1959.77 1450.39 1961.81 1450.39 Q1967.18 1450.39 1970.37 1453.08 Q1973.56 1455.77 1973.56 1460.26 Q1973.56 1462.39 1972.75 1464.31 Q1971.97 1466.2 1969.86 1468.8 Q1969.28 1469.47 1966.18 1472.69 Q1963.08 1475.88 1957.43 1481.64 Z" fill="#000000" fill-rule="nonzero" fill-opacity="1"></path><path clip-path="url(#clip150)" d="M1993.56 1454.1 Q1989.95 1454.1 1988.12 1457.66 Q1986.32 1461.2 1986.32 1468.33 Q1986.32 1475.44 1988.12 1479.01 Q1989.95 1482.55 1993.56 1482.55 Q1997.2 1482.55 1999 1479.01 Q2000.83 1475.44 2000.83 1468.33 Q2000.83 1461.2 1999 1457.66 Q1997.2 1454.1 1993.56 1454.1 M1993.56 1450.39 Q1999.37 1450.39 2002.43 1455 Q2005.51 1459.58 2005.51 1468.33 Q2005.51 1477.06 2002.43 1481.67 Q1999.37 1486.25 1993.56 1486.25 Q1987.75 1486.25 1984.68 1481.67 Q1981.62 1477.06 1981.62 1468.33 Q1981.62 1459.58 1984.68 1455 Q1987.75 1450.39 1993.56 1450.39 Z" fill="#000000" fill-rule="nonzero" fill-opacity="1"></path><path clip-path="url(#clip150)" d="M2023.73 1454.1 Q2020.12 1454.1 2018.29 1457.66 Q2016.48 1461.2 2016.48 1468.33 Q2016.48 1475.44 2018.29 1479.01 Q2020.12 1482.55 2023.73 1482.55 Q2027.36 1482.55 2029.17 1479.01 Q2030.99 1475.44 2030.99 1468.33 Q2030.99 1461.2 2029.17 1457.66 Q2027.36 1454.1 2023.73 1454.1 M2023.73 1450.39 Q2029.54 1450.39 2032.59 1455 Q2035.67 1459.58 2035.67 1468.33 Q2035.67 1477.06 2032.59 1481.67 Q2029.54 1486.25 2023.73 1486.25 Q2017.92 1486.25 2014.84 1481.67 Q2011.78 1477.06 2011.78 1468.33 Q2011.78 1459.58 2014.84 1455 Q2017.92 1450.39 2023.73 1450.39 Z" fill="#000000" fill-rule="nonzero" fill-opacity="1"></path><path clip-path="url(#clip150)" d="M2272.91 1481.64 L2289.23 1481.64 L2289.23 1485.58 L2267.28 1485.58 L2267.28 1481.64 Q2269.94 1478.89 2274.53 1474.26 Q2279.13 1469.61 2280.31 1468.27 Q2282.56 1465.74 2283.44 1464.01 Q2284.34 1462.25 2284.34 1460.56 Q2284.34 1457.8 2282.4 1456.07 Q2280.48 1454.33 2277.37 1454.33 Q2275.18 1454.33 2272.72 1455.09 Q2270.29 1455.86 2267.51 1457.41 L2267.51 1452.69 Q2270.34 1451.55 2272.79 1450.97 Q2275.24 1450.39 2277.28 1450.39 Q2282.65 1450.39 2285.85 1453.08 Q2289.04 1455.77 2289.04 1460.26 Q2289.04 1462.39 2288.23 1464.31 Q2287.44 1466.2 2285.34 1468.8 Q2284.76 1469.47 2281.66 1472.69 Q2278.56 1475.88 2272.91 1481.64 Z" fill="#000000" fill-rule="nonzero" fill-opacity="1"></path><path clip-path="url(#clip150)" d="M2299.09 1451.02 L2317.44 1451.02 L2317.44 1454.96 L2303.37 1454.96 L2303.37 1463.43 Q2304.39 1463.08 2305.41 1462.92 Q2306.43 1462.73 2307.44 1462.73 Q2313.23 1462.73 2316.61 1465.9 Q2319.99 1469.08 2319.99 1474.49 Q2319.99 1480.07 2316.52 1483.17 Q2313.05 1486.25 2306.73 1486.25 Q2304.55 1486.25 2302.28 1485.88 Q2300.04 1485.51 2297.63 1484.77 L2297.63 1480.07 Q2299.71 1481.2 2301.93 1481.76 Q2304.16 1482.32 2306.63 1482.32 Q2310.64 1482.32 2312.98 1480.21 Q2315.31 1478.1 2315.31 1474.49 Q2315.31 1470.88 2312.98 1468.77 Q2310.64 1466.67 2306.63 1466.67 Q2304.76 1466.67 2302.88 1467.08 Q2301.03 1467.5 2299.09 1468.38 L2299.09 1451.02 Z" fill="#000000" fill-rule="nonzero" fill-opacity="1"></path><path clip-path="url(#clip150)" d="M2339.2 1454.1 Q2335.59 1454.1 2333.76 1457.66 Q2331.96 1461.2 2331.96 1468.33 Q2331.96 1475.44 2333.76 1479.01 Q2335.59 1482.55 2339.2 1482.55 Q2342.84 1482.55 2344.64 1479.01 Q2346.47 1475.44 2346.47 1468.33 Q2346.47 1461.2 2344.64 1457.66 Q2342.84 1454.1 2339.2 1454.1 M2339.2 1450.39 Q2345.01 1450.39 2348.07 1455 Q2351.15 1459.58 2351.15 1468.33 Q2351.15 1477.06 2348.07 1481.67 Q2345.01 1486.25 2339.2 1486.25 Q2333.39 1486.25 2330.31 1481.67 Q2327.26 1477.06 2327.26 1468.33 Q2327.26 1459.58 2330.31 1455 Q2333.39 1450.39 2339.2 1450.39 Z" fill="#000000" fill-rule="nonzero" fill-opacity="1"></path><path clip-path="url(#clip150)" d="M975.78 1550.12 Q968.683 1550.12 965.945 1551.75 Q963.208 1553.37 963.208 1557.29 Q963.208 1560.4 965.245 1562.25 Q967.314 1564.07 970.847 1564.07 Q975.717 1564.07 978.645 1560.63 Q981.605 1557.16 981.605 1551.43 L981.605 1550.12 L975.78 1550.12 M987.461 1547.71 L987.461 1568.04 L981.605 1568.04 L981.605 1562.63 Q979.6 1565.88 976.608 1567.44 Q973.616 1568.97 969.287 1568.97 Q963.813 1568.97 960.566 1565.91 Q957.352 1562.82 957.352 1557.67 Q957.352 1551.65 961.362 1548.6 Q965.404 1545.54 973.393 1545.54 L981.605 1545.54 L981.605 1544.97 Q981.605 1540.93 978.931 1538.73 Q976.29 1536.5 971.483 1536.5 Q968.428 1536.5 965.532 1537.23 Q962.635 1537.97 959.962 1539.43 L959.962 1534.02 Q963.176 1532.78 966.2 1532.17 Q969.224 1531.54 972.088 1531.54 Q979.823 1531.54 983.642 1535.55 Q987.461 1539.56 987.461 1547.71 Z" fill="#000000" fill-rule="nonzero" fill-opacity="1"></path><path clip-path="url(#clip150)" d="M1022.98 1549.81 Q1022.98 1543.44 1020.34 1539.94 Q1017.73 1536.44 1012.99 1536.44 Q1008.28 1536.44 1005.64 1539.94 Q1003.03 1543.44 1003.03 1549.81 Q1003.03 1556.14 1005.64 1559.64 Q1008.28 1563.14 1012.99 1563.14 Q1017.73 1563.14 1020.34 1559.64 Q1022.98 1556.14 1022.98 1549.81 M1028.84 1563.62 Q1028.84 1572.72 1024.8 1577.15 Q1020.75 1581.6 1012.41 1581.6 Q1009.33 1581.6 1006.59 1581.13 Q1003.85 1580.68 1001.27 1579.72 L1001.27 1574.03 Q1003.85 1575.43 1006.37 1576.1 Q1008.88 1576.76 1011.49 1576.76 Q1017.25 1576.76 1020.12 1573.74 Q1022.98 1570.75 1022.98 1564.67 L1022.98 1561.77 Q1021.17 1564.92 1018.34 1566.48 Q1015.5 1568.04 1011.56 1568.04 Q1005 1568.04 1000.99 1563.05 Q996.978 1558.05 996.978 1549.81 Q996.978 1541.53 1000.99 1536.53 Q1005 1531.54 1011.56 1531.54 Q1015.5 1531.54 1018.34 1533.1 Q1021.17 1534.66 1022.98 1537.81 L1022.98 1532.4 L1028.84 1532.4 L1028.84 1563.62 Z" fill="#000000" fill-rule="nonzero" fill-opacity="1"></path><path clip-path="url(#clip150)" d="M1071.39 1548.76 L1071.39 1551.62 L1044.47 1551.62 Q1044.85 1557.67 1048.09 1560.85 Q1051.37 1564 1057.2 1564 Q1060.57 1564 1063.72 1563.17 Q1066.91 1562.35 1070.02 1560.69 L1070.02 1566.23 Q1066.87 1567.57 1063.56 1568.27 Q1060.25 1568.97 1056.85 1568.97 Q1048.32 1568.97 1043.32 1564 Q1038.36 1559.04 1038.36 1550.57 Q1038.36 1541.82 1043.07 1536.69 Q1047.81 1531.54 1055.83 1531.54 Q1063.02 1531.54 1067.19 1536.18 Q1071.39 1540.8 1071.39 1548.76 M1065.54 1547.04 Q1065.47 1542.23 1062.83 1539.37 Q1060.22 1536.5 1055.89 1536.5 Q1050.99 1536.5 1048.03 1539.27 Q1045.1 1542.04 1044.66 1547.07 L1065.54 1547.04 Z" fill="#000000" fill-rule="nonzero" fill-opacity="1"></path><path clip-path="url(#clip150)" d="M1115.79 1518.58 Q1111.53 1525.9 1109.46 1533.06 Q1107.39 1540.23 1107.39 1547.58 Q1107.39 1554.93 1109.46 1562.16 Q1111.56 1569.35 1115.79 1576.64 L1110.7 1576.64 Q1105.93 1569.16 1103.54 1561.93 Q1101.18 1554.71 1101.18 1547.58 Q1101.18 1540.48 1103.54 1533.29 Q1105.9 1526.09 1110.7 1518.58 L1115.79 1518.58 Z" fill="#000000" fill-rule="nonzero" fill-opacity="1"></path><path clip-path="url(#clip150)" d="M1154.91 1539.24 Q1157.11 1535.29 1160.16 1533.41 Q1163.22 1531.54 1167.36 1531.54 Q1172.93 1531.54 1175.95 1535.45 Q1178.97 1539.33 1178.97 1546.53 L1178.97 1568.04 L1173.09 1568.04 L1173.09 1546.72 Q1173.09 1541.59 1171.27 1539.11 Q1169.46 1536.63 1165.73 1536.63 Q1161.18 1536.63 1158.54 1539.65 Q1155.9 1542.68 1155.9 1547.9 L1155.9 1568.04 L1150.01 1568.04 L1150.01 1546.72 Q1150.01 1541.56 1148.2 1539.11 Q1146.38 1536.63 1142.59 1536.63 Q1138.11 1536.63 1135.46 1539.68 Q1132.82 1542.71 1132.82 1547.9 L1132.82 1568.04 L1126.93 1568.04 L1126.93 1532.4 L1132.82 1532.4 L1132.82 1537.93 Q1134.83 1534.66 1137.63 1533.1 Q1140.43 1531.54 1144.28 1531.54 Q1148.16 1531.54 1150.87 1533.51 Q1153.61 1535.48 1154.91 1539.24 Z" fill="#000000" fill-rule="nonzero" fill-opacity="1"></path><path clip-path="url(#clip150)" d="M1190.65 1532.4 L1196.51 1532.4 L1196.51 1568.04 L1190.65 1568.04 L1190.65 1532.4 M1190.65 1518.52 L1196.51 1518.52 L1196.51 1525.93 L1190.65 1525.93 L1190.65 1518.52 Z" fill="#000000" fill-rule="nonzero" fill-opacity="1"></path><path clip-path="url(#clip150)" d="M1208.77 1518.52 L1214.62 1518.52 L1214.62 1568.04 L1208.77 1568.04 L1208.77 1518.52 Z" fill="#000000" fill-rule="nonzero" fill-opacity="1"></path><path clip-path="url(#clip150)" d="M1226.88 1518.52 L1232.73 1518.52 L1232.73 1568.04 L1226.88 1568.04 L1226.88 1518.52 Z" fill="#000000" fill-rule="nonzero" fill-opacity="1"></path><path clip-path="url(#clip150)" d="M1244.99 1532.4 L1250.84 1532.4 L1250.84 1568.04 L1244.99 1568.04 L1244.99 1532.4 M1244.99 1518.52 L1250.84 1518.52 L1250.84 1525.93 L1244.99 1525.93 L1244.99 1518.52 Z" fill="#000000" fill-rule="nonzero" fill-opacity="1"></path><path clip-path="url(#clip150)" d="M1276.91 1536.5 Q1272.2 1536.5 1269.46 1540.19 Q1266.72 1543.85 1266.72 1550.25 Q1266.72 1556.65 1269.43 1560.34 Q1272.17 1564 1276.91 1564 Q1281.59 1564 1284.33 1560.31 Q1287.06 1556.62 1287.06 1550.25 Q1287.06 1543.92 1284.33 1540.23 Q1281.59 1536.5 1276.91 1536.5 M1276.91 1531.54 Q1284.55 1531.54 1288.91 1536.5 Q1293.27 1541.47 1293.27 1550.25 Q1293.27 1559 1288.91 1564 Q1284.55 1568.97 1276.91 1568.97 Q1269.24 1568.97 1264.88 1564 Q1260.55 1559 1260.55 1550.25 Q1260.55 1541.47 1264.88 1536.5 Q1269.24 1531.54 1276.91 1531.54 Z" fill="#000000" fill-rule="nonzero" fill-opacity="1"></path><path clip-path="url(#clip150)" d="M1332.61 1546.53 L1332.61 1568.04 L1326.75 1568.04 L1326.75 1546.72 Q1326.75 1541.66 1324.78 1539.14 Q1322.81 1536.63 1318.86 1536.63 Q1314.12 1536.63 1311.38 1539.65 Q1308.64 1542.68 1308.64 1547.9 L1308.64 1568.04 L1302.75 1568.04 L1302.75 1532.4 L1308.64 1532.4 L1308.64 1537.93 Q1310.74 1534.72 1313.58 1533.13 Q1316.44 1531.54 1320.17 1531.54 Q1326.31 1531.54 1329.46 1535.36 Q1332.61 1539.14 1332.61 1546.53 Z" fill="#000000" fill-rule="nonzero" fill-opacity="1"></path><path clip-path="url(#clip150)" d="M1367.02 1533.45 L1367.02 1538.98 Q1364.53 1537.71 1361.86 1537.07 Q1359.19 1536.44 1356.32 1536.44 Q1351.96 1536.44 1349.77 1537.77 Q1347.6 1539.11 1347.6 1541.79 Q1347.6 1543.82 1349.16 1545 Q1350.72 1546.15 1355.43 1547.2 L1357.44 1547.64 Q1363.67 1548.98 1366.28 1551.43 Q1368.93 1553.85 1368.93 1558.21 Q1368.93 1563.17 1364.98 1566.07 Q1361.06 1568.97 1354.19 1568.97 Q1351.33 1568.97 1348.21 1568.39 Q1345.12 1567.85 1341.68 1566.74 L1341.68 1560.69 Q1344.93 1562.38 1348.08 1563.24 Q1351.23 1564.07 1354.32 1564.07 Q1358.45 1564.07 1360.68 1562.66 Q1362.91 1561.23 1362.91 1558.65 Q1362.91 1556.27 1361.29 1554.99 Q1359.7 1553.72 1354.25 1552.54 L1352.22 1552.07 Q1346.77 1550.92 1344.35 1548.56 Q1341.94 1546.18 1341.94 1542.04 Q1341.94 1537.01 1345.5 1534.27 Q1349.07 1531.54 1355.62 1531.54 Q1358.87 1531.54 1361.73 1532.01 Q1364.6 1532.49 1367.02 1533.45 Z" fill="#000000" fill-rule="nonzero" fill-opacity="1"></path><path clip-path="url(#clip150)" d="M1412.79 1536.5 Q1408.08 1536.5 1405.34 1540.19 Q1402.6 1543.85 1402.6 1550.25 Q1402.6 1556.65 1405.31 1560.34 Q1408.04 1564 1412.79 1564 Q1417.46 1564 1420.2 1560.31 Q1422.94 1556.62 1422.94 1550.25 Q1422.94 1543.92 1420.2 1540.23 Q1417.46 1536.5 1412.79 1536.5 M1412.79 1531.54 Q1420.42 1531.54 1424.79 1536.5 Q1429.15 1541.47 1429.15 1550.25 Q1429.15 1559 1424.79 1564 Q1420.42 1568.97 1412.79 1568.97 Q1405.12 1568.97 1400.75 1564 Q1396.43 1559 1396.43 1550.25 Q1396.43 1541.47 1400.75 1536.5 Q1405.12 1531.54 1412.79 1531.54 Z" fill="#000000" fill-rule="nonzero" fill-opacity="1"></path><path clip-path="url(#clip150)" d="M1456.9 1518.52 L1456.9 1523.39 L1451.3 1523.39 Q1448.15 1523.39 1446.91 1524.66 Q1445.7 1525.93 1445.7 1529.24 L1445.7 1532.4 L1455.34 1532.4 L1455.34 1536.95 L1445.7 1536.95 L1445.7 1568.04 L1439.81 1568.04 L1439.81 1536.95 L1434.21 1536.95 L1434.21 1532.4 L1439.81 1532.4 L1439.81 1529.91 Q1439.81 1523.96 1442.58 1521.26 Q1445.35 1518.52 1451.36 1518.52 L1456.9 1518.52 Z" fill="#000000" fill-rule="nonzero" fill-opacity="1"></path><path clip-path="url(#clip150)" d="M1497.35 1571.35 Q1494.87 1577.72 1492.52 1579.66 Q1490.16 1581.6 1486.21 1581.6 L1481.54 1581.6 L1481.54 1576.7 L1484.97 1576.7 Q1487.39 1576.7 1488.73 1575.56 Q1490.07 1574.41 1491.69 1570.14 L1492.74 1567.47 L1478.32 1532.4 L1484.53 1532.4 L1495.67 1560.28 L1506.81 1532.4 L1513.01 1532.4 L1497.35 1571.35 Z" fill="#000000" fill-rule="nonzero" fill-opacity="1"></path><path clip-path="url(#clip150)" d="M1551.59 1548.76 L1551.59 1551.62 L1524.66 1551.62 Q1525.05 1557.67 1528.29 1560.85 Q1531.57 1564 1537.39 1564 Q1540.77 1564 1543.92 1563.17 Q1547.1 1562.35 1550.22 1560.69 L1550.22 1566.23 Q1547.07 1567.57 1543.76 1568.27 Q1540.45 1568.97 1537.04 1568.97 Q1528.51 1568.97 1523.52 1564 Q1518.55 1559.04 1518.55 1550.57 Q1518.55 1541.82 1523.26 1536.69 Q1528.01 1531.54 1536.03 1531.54 Q1543.22 1531.54 1547.39 1536.18 Q1551.59 1540.8 1551.59 1548.76 M1545.73 1547.04 Q1545.67 1542.23 1543.03 1539.37 Q1540.42 1536.5 1536.09 1536.5 Q1531.19 1536.5 1528.23 1539.27 Q1525.3 1542.04 1524.85 1547.07 L1545.73 1547.04 Z" fill="#000000" fill-rule="nonzero" fill-opacity="1"></path><path clip-path="url(#clip150)" d="M1577.4 1550.12 Q1570.31 1550.12 1567.57 1551.75 Q1564.83 1553.37 1564.83 1557.29 Q1564.83 1560.4 1566.87 1562.25 Q1568.94 1564.07 1572.47 1564.07 Q1577.34 1564.07 1580.27 1560.63 Q1583.23 1557.16 1583.23 1551.43 L1583.23 1550.12 L1577.4 1550.12 M1589.08 1547.71 L1589.08 1568.04 L1583.23 1568.04 L1583.23 1562.63 Q1581.22 1565.88 1578.23 1567.44 Q1575.24 1568.97 1570.91 1568.97 Q1565.44 1568.97 1562.19 1565.91 Q1558.97 1562.82 1558.97 1557.67 Q1558.97 1551.65 1562.98 1548.6 Q1567.03 1545.54 1575.02 1545.54 L1583.23 1545.54 L1583.23 1544.97 Q1583.23 1540.93 1580.55 1538.73 Q1577.91 1536.5 1573.11 1536.5 Q1570.05 1536.5 1567.15 1537.23 Q1564.26 1537.97 1561.58 1539.43 L1561.58 1534.02 Q1564.8 1532.78 1567.82 1532.17 Q1570.85 1531.54 1573.71 1531.54 Q1581.45 1531.54 1585.26 1535.55 Q1589.08 1539.56 1589.08 1547.71 Z" fill="#000000" fill-rule="nonzero" fill-opacity="1"></path><path clip-path="url(#clip150)" d="M1621.8 1537.87 Q1620.82 1537.3 1619.64 1537.04 Q1618.49 1536.76 1617.09 1536.76 Q1612.13 1536.76 1609.45 1540 Q1606.81 1543.22 1606.81 1549.27 L1606.81 1568.04 L1600.92 1568.04 L1600.92 1532.4 L1606.81 1532.4 L1606.81 1537.93 Q1608.66 1534.69 1611.62 1533.13 Q1614.58 1531.54 1618.81 1531.54 Q1619.42 1531.54 1620.15 1531.63 Q1620.88 1531.7 1621.77 1531.85 L1621.8 1537.87 Z" fill="#000000" fill-rule="nonzero" fill-opacity="1"></path><path clip-path="url(#clip150)" d="M1650.67 1533.45 L1650.67 1538.98 Q1648.19 1537.71 1645.52 1537.07 Q1642.84 1536.44 1639.98 1536.44 Q1635.62 1536.44 1633.42 1537.77 Q1631.26 1539.11 1631.26 1541.79 Q1631.26 1543.82 1632.82 1545 Q1634.38 1546.15 1639.09 1547.2 L1641.09 1547.64 Q1647.33 1548.98 1649.94 1551.43 Q1652.58 1553.85 1652.58 1558.21 Q1652.58 1563.17 1648.64 1566.07 Q1644.72 1568.97 1637.85 1568.97 Q1634.98 1568.97 1631.86 1568.39 Q1628.77 1567.85 1625.34 1566.74 L1625.34 1560.69 Q1628.58 1562.38 1631.73 1563.24 Q1634.89 1564.07 1637.97 1564.07 Q1642.11 1564.07 1644.34 1562.66 Q1646.57 1561.23 1646.57 1558.65 Q1646.57 1556.27 1644.94 1554.99 Q1643.35 1553.72 1637.91 1552.54 L1635.87 1552.07 Q1630.43 1550.92 1628.01 1548.56 Q1625.59 1546.18 1625.59 1542.04 Q1625.59 1537.01 1629.16 1534.27 Q1632.72 1531.54 1639.28 1531.54 Q1642.52 1531.54 1645.39 1532.01 Q1648.25 1532.49 1650.67 1533.45 Z" fill="#000000" fill-rule="nonzero" fill-opacity="1"></path><path clip-path="url(#clip150)" d="M1660.99 1518.58 L1666.08 1518.58 Q1670.85 1526.09 1673.21 1533.29 Q1675.59 1540.48 1675.59 1547.58 Q1675.59 1554.71 1673.21 1561.93 Q1670.85 1569.16 1666.08 1576.64 L1660.99 1576.64 Q1665.22 1569.35 1667.29 1562.16 Q1669.39 1554.93 1669.39 1547.58 Q1669.39 1540.23 1667.29 1533.06 Q1665.22 1525.9 1660.99 1518.58 Z" fill="#000000" fill-rule="nonzero" fill-opacity="1"></path><polyline clip-path="url(#clip152)" style="stroke:#000000; stroke-linecap:round; stroke-linejoin:round; stroke-width:2; stroke-opacity:0.1; fill:none" points="280.19,1423.18 2352.76,1423.18 "></polyline>
<polyline clip-path="url(#clip152)" style="stroke:#000000; stroke-linecap:round; stroke-linejoin:round; stroke-width:2; stroke-opacity:0.1; fill:none" points="280.19,1221.82 2352.76,1221.82 "></polyline>
<polyline clip-path="url(#clip152)" style="stroke:#000000; stroke-linecap:round; stroke-linejoin:round; stroke-width:2; stroke-opacity:0.1; fill:none" points="280.19,1020.47 2352.76,1020.47 "></polyline>
<polyline clip-path="url(#clip152)" style="stroke:#000000; stroke-linecap:round; stroke-linejoin:round; stroke-width:2; stroke-opacity:0.1; fill:none" points="280.19,819.11 2352.76,819.11 "></polyline>
<polyline clip-path="url(#clip152)" style="stroke:#000000; stroke-linecap:round; stroke-linejoin:round; stroke-width:2; stroke-opacity:0.1; fill:none" points="280.19,617.754 2352.76,617.754 "></polyline>
<polyline clip-path="url(#clip152)" style="stroke:#000000; stroke-linecap:round; stroke-linejoin:round; stroke-width:2; stroke-opacity:0.1; fill:none" points="280.19,416.398 2352.76,416.398 "></polyline>
<polyline clip-path="url(#clip152)" style="stroke:#000000; stroke-linecap:round; stroke-linejoin:round; stroke-width:2; stroke-opacity:0.1; fill:none" points="280.19,215.041 2352.76,215.041 "></polyline>
<polyline clip-path="url(#clip150)" style="stroke:#000000; stroke-linecap:round; stroke-linejoin:round; stroke-width:4; stroke-opacity:1; fill:none" points="280.19,1423.18 280.19,47.2441 "></polyline>
<polyline clip-path="url(#clip150)" style="stroke:#000000; stroke-linecap:round; stroke-linejoin:round; stroke-width:4; stroke-opacity:1; fill:none" points="280.19,1423.18 299.088,1423.18 "></polyline>
<polyline clip-path="url(#clip150)" style="stroke:#000000; stroke-linecap:round; stroke-linejoin:round; stroke-width:4; stroke-opacity:1; fill:none" points="280.19,1221.82 299.088,1221.82 "></polyline>
<polyline clip-path="url(#clip150)" style="stroke:#000000; stroke-linecap:round; stroke-linejoin:round; stroke-width:4; stroke-opacity:1; fill:none" points="280.19,1020.47 299.088,1020.47 "></polyline>
<polyline clip-path="url(#clip150)" style="stroke:#000000; stroke-linecap:round; stroke-linejoin:round; stroke-width:4; stroke-opacity:1; fill:none" points="280.19,819.11 299.088,819.11 "></polyline>
<polyline clip-path="url(#clip150)" style="stroke:#000000; stroke-linecap:round; stroke-linejoin:round; stroke-width:4; stroke-opacity:1; fill:none" points="280.19,617.754 299.088,617.754 "></polyline>
<polyline clip-path="url(#clip150)" style="stroke:#000000; stroke-linecap:round; stroke-linejoin:round; stroke-width:4; stroke-opacity:1; fill:none" points="280.19,416.398 299.088,416.398 "></polyline>
<polyline clip-path="url(#clip150)" style="stroke:#000000; stroke-linecap:round; stroke-linejoin:round; stroke-width:4; stroke-opacity:1; fill:none" points="280.19,215.041 299.088,215.041 "></polyline>
<path clip-path="url(#clip150)" d="M126.691 1408.98 Q123.08 1408.98 121.251 1412.54 Q119.445 1416.08 119.445 1423.21 Q119.445 1430.32 121.251 1433.89 Q123.08 1437.43 126.691 1437.43 Q130.325 1437.43 132.13 1433.89 Q133.959 1430.32 133.959 1423.21 Q133.959 1416.08 132.13 1412.54 Q130.325 1408.98 126.691 1408.98 M126.691 1405.27 Q132.501 1405.27 135.556 1409.88 Q138.635 1414.46 138.635 1423.21 Q138.635 1431.94 135.556 1436.55 Q132.501 1441.13 126.691 1441.13 Q120.88 1441.13 117.802 1436.55 Q114.746 1431.94 114.746 1423.21 Q114.746 1414.46 117.802 1409.88 Q120.88 1405.27 126.691 1405.27 Z" fill="#000000" fill-rule="nonzero" fill-opacity="1"></path><path clip-path="url(#clip150)" d="M146.853 1434.58 L151.737 1434.58 L151.737 1440.46 L146.853 1440.46 L146.853 1434.58 Z" fill="#000000" fill-rule="nonzero" fill-opacity="1"></path><path clip-path="url(#clip150)" d="M171.922 1408.98 Q168.311 1408.98 166.482 1412.54 Q164.677 1416.08 164.677 1423.21 Q164.677 1430.32 166.482 1433.89 Q168.311 1437.43 171.922 1437.43 Q175.556 1437.43 177.362 1433.89 Q179.19 1430.32 179.19 1423.21 Q179.19 1416.08 177.362 1412.54 Q175.556 1408.98 171.922 1408.98 M171.922 1405.27 Q177.732 1405.27 180.788 1409.88 Q183.866 1414.46 183.866 1423.21 Q183.866 1431.94 180.788 1436.55 Q177.732 1441.13 171.922 1441.13 Q166.112 1441.13 163.033 1436.55 Q159.978 1431.94 159.978 1423.21 Q159.978 1414.46 163.033 1409.88 Q166.112 1405.27 171.922 1405.27 Z" fill="#000000" fill-rule="nonzero" fill-opacity="1"></path><path clip-path="url(#clip150)" d="M202.084 1408.98 Q198.473 1408.98 196.644 1412.54 Q194.838 1416.08 194.838 1423.21 Q194.838 1430.32 196.644 1433.89 Q198.473 1437.43 202.084 1437.43 Q205.718 1437.43 207.524 1433.89 Q209.352 1430.32 209.352 1423.21 Q209.352 1416.08 207.524 1412.54 Q205.718 1408.98 202.084 1408.98 M202.084 1405.27 Q207.894 1405.27 210.949 1409.88 Q214.028 1414.46 214.028 1423.21 Q214.028 1431.94 210.949 1436.55 Q207.894 1441.13 202.084 1441.13 Q196.274 1441.13 193.195 1436.55 Q190.139 1431.94 190.139 1423.21 Q190.139 1414.46 193.195 1409.88 Q196.274 1405.27 202.084 1405.27 Z" fill="#000000" fill-rule="nonzero" fill-opacity="1"></path><path clip-path="url(#clip150)" d="M232.246 1408.98 Q228.635 1408.98 226.806 1412.54 Q225 1416.08 225 1423.21 Q225 1430.32 226.806 1433.89 Q228.635 1437.43 232.246 1437.43 Q235.88 1437.43 237.685 1433.89 Q239.514 1430.32 239.514 1423.21 Q239.514 1416.08 237.685 1412.54 Q235.88 1408.98 232.246 1408.98 M232.246 1405.27 Q238.056 1405.27 241.111 1409.88 Q244.19 1414.46 244.19 1423.21 Q244.19 1431.94 241.111 1436.55 Q238.056 1441.13 232.246 1441.13 Q226.435 1441.13 223.357 1436.55 Q220.301 1431.94 220.301 1423.21 Q220.301 1414.46 223.357 1409.88 Q226.435 1405.27 232.246 1405.27 Z" fill="#000000" fill-rule="nonzero" fill-opacity="1"></path><path clip-path="url(#clip150)" d="M128.288 1207.62 Q124.677 1207.62 122.848 1211.19 Q121.043 1214.73 121.043 1221.86 Q121.043 1228.96 122.848 1232.53 Q124.677 1236.07 128.288 1236.07 Q131.922 1236.07 133.728 1232.53 Q135.556 1228.96 135.556 1221.86 Q135.556 1214.73 133.728 1211.19 Q131.922 1207.62 128.288 1207.62 M128.288 1203.92 Q134.098 1203.92 137.154 1208.52 Q140.232 1213.11 140.232 1221.86 Q140.232 1230.58 137.154 1235.19 Q134.098 1239.77 128.288 1239.77 Q122.478 1239.77 119.399 1235.19 Q116.343 1230.58 116.343 1221.86 Q116.343 1213.11 119.399 1208.52 Q122.478 1203.92 128.288 1203.92 Z" fill="#000000" fill-rule="nonzero" fill-opacity="1"></path><path clip-path="url(#clip150)" d="M148.45 1233.22 L153.334 1233.22 L153.334 1239.1 L148.45 1239.1 L148.45 1233.22 Z" fill="#000000" fill-rule="nonzero" fill-opacity="1"></path><path clip-path="url(#clip150)" d="M173.519 1207.62 Q169.908 1207.62 168.079 1211.19 Q166.274 1214.73 166.274 1221.86 Q166.274 1228.96 168.079 1232.53 Q169.908 1236.07 173.519 1236.07 Q177.153 1236.07 178.959 1232.53 Q180.788 1228.96 180.788 1221.86 Q180.788 1214.73 178.959 1211.19 Q177.153 1207.62 173.519 1207.62 M173.519 1203.92 Q179.329 1203.92 182.385 1208.52 Q185.463 1213.11 185.463 1221.86 Q185.463 1230.58 182.385 1235.19 Q179.329 1239.77 173.519 1239.77 Q167.709 1239.77 164.63 1235.19 Q161.575 1230.58 161.575 1221.86 Q161.575 1213.11 164.63 1208.52 Q167.709 1203.92 173.519 1203.92 Z" fill="#000000" fill-rule="nonzero" fill-opacity="1"></path><path clip-path="url(#clip150)" d="M203.681 1207.62 Q200.07 1207.62 198.241 1211.19 Q196.436 1214.73 196.436 1221.86 Q196.436 1228.96 198.241 1232.53 Q200.07 1236.07 203.681 1236.07 Q207.315 1236.07 209.121 1232.53 Q210.949 1228.96 210.949 1221.86 Q210.949 1214.73 209.121 1211.19 Q207.315 1207.62 203.681 1207.62 M203.681 1203.92 Q209.491 1203.92 212.547 1208.52 Q215.625 1213.11 215.625 1221.86 Q215.625 1230.58 212.547 1235.19 Q209.491 1239.77 203.681 1239.77 Q197.871 1239.77 194.792 1235.19 Q191.737 1230.58 191.737 1221.86 Q191.737 1213.11 194.792 1208.52 Q197.871 1203.92 203.681 1203.92 Z" fill="#000000" fill-rule="nonzero" fill-opacity="1"></path><path clip-path="url(#clip150)" d="M227.871 1235.17 L244.19 1235.17 L244.19 1239.1 L222.246 1239.1 L222.246 1235.17 Q224.908 1232.41 229.491 1227.78 Q234.097 1223.13 235.278 1221.79 Q237.523 1219.27 238.403 1217.53 Q239.306 1215.77 239.306 1214.08 Q239.306 1211.33 237.361 1209.59 Q235.44 1207.85 232.338 1207.85 Q230.139 1207.85 227.685 1208.62 Q225.255 1209.38 222.477 1210.93 L222.477 1206.21 Q225.301 1205.08 227.755 1204.5 Q230.209 1203.92 232.246 1203.92 Q237.616 1203.92 240.81 1206.6 Q244.005 1209.29 244.005 1213.78 Q244.005 1215.91 243.195 1217.83 Q242.408 1219.73 240.301 1222.32 Q239.722 1222.99 236.621 1226.21 Q233.519 1229.4 227.871 1235.17 Z" fill="#000000" fill-rule="nonzero" fill-opacity="1"></path><path clip-path="url(#clip150)" d="M126.205 1006.27 Q122.593 1006.27 120.765 1009.83 Q118.959 1013.37 118.959 1020.5 Q118.959 1027.61 120.765 1031.17 Q122.593 1034.71 126.205 1034.71 Q129.839 1034.71 131.644 1031.17 Q133.473 1027.61 133.473 1020.5 Q133.473 1013.37 131.644 1009.83 Q129.839 1006.27 126.205 1006.27 M126.205 1002.56 Q132.015 1002.56 135.07 1007.17 Q138.149 1011.75 138.149 1020.5 Q138.149 1029.23 135.07 1033.83 Q132.015 1038.42 126.205 1038.42 Q120.394 1038.42 117.316 1033.83 Q114.26 1029.23 114.26 1020.5 Q114.26 1011.75 117.316 1007.17 Q120.394 1002.56 126.205 1002.56 Z" fill="#000000" fill-rule="nonzero" fill-opacity="1"></path><path clip-path="url(#clip150)" d="M146.366 1031.87 L151.251 1031.87 L151.251 1037.75 L146.366 1037.75 L146.366 1031.87 Z" fill="#000000" fill-rule="nonzero" fill-opacity="1"></path><path clip-path="url(#clip150)" d="M171.436 1006.27 Q167.825 1006.27 165.996 1009.83 Q164.19 1013.37 164.19 1020.5 Q164.19 1027.61 165.996 1031.17 Q167.825 1034.71 171.436 1034.71 Q175.07 1034.71 176.876 1031.17 Q178.704 1027.61 178.704 1020.5 Q178.704 1013.37 176.876 1009.83 Q175.07 1006.27 171.436 1006.27 M171.436 1002.56 Q177.246 1002.56 180.301 1007.17 Q183.38 1011.75 183.38 1020.5 Q183.38 1029.23 180.301 1033.83 Q177.246 1038.42 171.436 1038.42 Q165.626 1038.42 162.547 1033.83 Q159.491 1029.23 159.491 1020.5 Q159.491 1011.75 162.547 1007.17 Q165.626 1002.56 171.436 1002.56 Z" fill="#000000" fill-rule="nonzero" fill-opacity="1"></path><path clip-path="url(#clip150)" d="M201.598 1006.27 Q197.987 1006.27 196.158 1009.83 Q194.352 1013.37 194.352 1020.5 Q194.352 1027.61 196.158 1031.17 Q197.987 1034.71 201.598 1034.71 Q205.232 1034.71 207.037 1031.17 Q208.866 1027.61 208.866 1020.5 Q208.866 1013.37 207.037 1009.83 Q205.232 1006.27 201.598 1006.27 M201.598 1002.56 Q207.408 1002.56 210.463 1007.17 Q213.542 1011.75 213.542 1020.5 Q213.542 1029.23 210.463 1033.83 Q207.408 1038.42 201.598 1038.42 Q195.787 1038.42 192.709 1033.83 Q189.653 1029.23 189.653 1020.5 Q189.653 1011.75 192.709 1007.17 Q195.787 1002.56 201.598 1002.56 Z" fill="#000000" fill-rule="nonzero" fill-opacity="1"></path><path clip-path="url(#clip150)" d="M234.607 1007.26 L222.801 1025.71 L234.607 1025.71 L234.607 1007.26 M233.38 1003.19 L239.259 1003.19 L239.259 1025.71 L244.19 1025.71 L244.19 1029.6 L239.259 1029.6 L239.259 1037.75 L234.607 1037.75 L234.607 1029.6 L219.005 1029.6 L219.005 1025.08 L233.38 1003.19 Z" fill="#000000" fill-rule="nonzero" fill-opacity="1"></path><path clip-path="url(#clip150)" d="M126.529 804.909 Q122.918 804.909 121.089 808.474 Q119.283 812.016 119.283 819.145 Q119.283 826.252 121.089 829.816 Q122.918 833.358 126.529 833.358 Q130.163 833.358 131.968 829.816 Q133.797 826.252 133.797 819.145 Q133.797 812.016 131.968 808.474 Q130.163 804.909 126.529 804.909 M126.529 801.205 Q132.339 801.205 135.394 805.812 Q138.473 810.395 138.473 819.145 Q138.473 827.872 135.394 832.478 Q132.339 837.062 126.529 837.062 Q120.718 837.062 117.64 832.478 Q114.584 827.872 114.584 819.145 Q114.584 810.395 117.64 805.812 Q120.718 801.205 126.529 801.205 Z" fill="#000000" fill-rule="nonzero" fill-opacity="1"></path><path clip-path="url(#clip150)" d="M146.691 830.511 L151.575 830.511 L151.575 836.39 L146.691 836.39 L146.691 830.511 Z" fill="#000000" fill-rule="nonzero" fill-opacity="1"></path><path clip-path="url(#clip150)" d="M171.76 804.909 Q168.149 804.909 166.32 808.474 Q164.515 812.016 164.515 819.145 Q164.515 826.252 166.32 829.816 Q168.149 833.358 171.76 833.358 Q175.394 833.358 177.2 829.816 Q179.028 826.252 179.028 819.145 Q179.028 812.016 177.2 808.474 Q175.394 804.909 171.76 804.909 M171.76 801.205 Q177.57 801.205 180.626 805.812 Q183.704 810.395 183.704 819.145 Q183.704 827.872 180.626 832.478 Q177.57 837.062 171.76 837.062 Q165.95 837.062 162.871 832.478 Q159.815 827.872 159.815 819.145 Q159.815 810.395 162.871 805.812 Q165.95 801.205 171.76 801.205 Z" fill="#000000" fill-rule="nonzero" fill-opacity="1"></path><path clip-path="url(#clip150)" d="M201.922 804.909 Q198.311 804.909 196.482 808.474 Q194.676 812.016 194.676 819.145 Q194.676 826.252 196.482 829.816 Q198.311 833.358 201.922 833.358 Q205.556 833.358 207.362 829.816 Q209.19 826.252 209.19 819.145 Q209.19 812.016 207.362 808.474 Q205.556 804.909 201.922 804.909 M201.922 801.205 Q207.732 801.205 210.787 805.812 Q213.866 810.395 213.866 819.145 Q213.866 827.872 210.787 832.478 Q207.732 837.062 201.922 837.062 Q196.112 837.062 193.033 832.478 Q189.977 827.872 189.977 819.145 Q189.977 810.395 193.033 805.812 Q196.112 801.205 201.922 801.205 Z" fill="#000000" fill-rule="nonzero" fill-opacity="1"></path><path clip-path="url(#clip150)" d="M232.662 817.247 Q229.514 817.247 227.662 819.4 Q225.834 821.553 225.834 825.303 Q225.834 829.029 227.662 831.205 Q229.514 833.358 232.662 833.358 Q235.81 833.358 237.639 831.205 Q239.491 829.029 239.491 825.303 Q239.491 821.553 237.639 819.4 Q235.81 817.247 232.662 817.247 M241.945 802.594 L241.945 806.854 Q240.185 806.02 238.38 805.58 Q236.597 805.141 234.838 805.141 Q230.209 805.141 227.755 808.266 Q225.324 811.391 224.977 817.71 Q226.343 815.696 228.403 814.631 Q230.463 813.543 232.94 813.543 Q238.148 813.543 241.158 816.715 Q244.19 819.863 244.19 825.303 Q244.19 830.627 241.042 833.844 Q237.894 837.062 232.662 837.062 Q226.667 837.062 223.496 832.478 Q220.324 827.872 220.324 819.145 Q220.324 810.951 224.213 806.09 Q228.102 801.205 234.653 801.205 Q236.412 801.205 238.195 801.553 Q240 801.9 241.945 802.594 Z" fill="#000000" fill-rule="nonzero" fill-opacity="1"></path><path clip-path="url(#clip150)" d="M126.783 603.553 Q123.172 603.553 121.343 607.118 Q119.538 610.659 119.538 617.789 Q119.538 624.895 121.343 628.46 Q123.172 632.002 126.783 632.002 Q130.417 632.002 132.223 628.46 Q134.052 624.895 134.052 617.789 Q134.052 610.659 132.223 607.118 Q130.417 603.553 126.783 603.553 M126.783 599.849 Q132.593 599.849 135.649 604.455 Q138.728 609.039 138.728 617.789 Q138.728 626.516 135.649 631.122 Q132.593 635.705 126.783 635.705 Q120.973 635.705 117.894 631.122 Q114.839 626.516 114.839 617.789 Q114.839 609.039 117.894 604.455 Q120.973 599.849 126.783 599.849 Z" fill="#000000" fill-rule="nonzero" fill-opacity="1"></path><path clip-path="url(#clip150)" d="M146.945 629.154 L151.829 629.154 L151.829 635.034 L146.945 635.034 L146.945 629.154 Z" fill="#000000" fill-rule="nonzero" fill-opacity="1"></path><path clip-path="url(#clip150)" d="M172.014 603.553 Q168.403 603.553 166.575 607.118 Q164.769 610.659 164.769 617.789 Q164.769 624.895 166.575 628.46 Q168.403 632.002 172.014 632.002 Q175.649 632.002 177.454 628.46 Q179.283 624.895 179.283 617.789 Q179.283 610.659 177.454 607.118 Q175.649 603.553 172.014 603.553 M172.014 599.849 Q177.825 599.849 180.88 604.455 Q183.959 609.039 183.959 617.789 Q183.959 626.516 180.88 631.122 Q177.825 635.705 172.014 635.705 Q166.204 635.705 163.126 631.122 Q160.07 626.516 160.07 617.789 Q160.07 609.039 163.126 604.455 Q166.204 599.849 172.014 599.849 Z" fill="#000000" fill-rule="nonzero" fill-opacity="1"></path><path clip-path="url(#clip150)" d="M202.176 603.553 Q198.565 603.553 196.737 607.118 Q194.931 610.659 194.931 617.789 Q194.931 624.895 196.737 628.46 Q198.565 632.002 202.176 632.002 Q205.811 632.002 207.616 628.46 Q209.445 624.895 209.445 617.789 Q209.445 610.659 207.616 607.118 Q205.811 603.553 202.176 603.553 M202.176 599.849 Q207.987 599.849 211.042 604.455 Q214.121 609.039 214.121 617.789 Q214.121 626.516 211.042 631.122 Q207.987 635.705 202.176 635.705 Q196.366 635.705 193.288 631.122 Q190.232 626.516 190.232 617.789 Q190.232 609.039 193.288 604.455 Q196.366 599.849 202.176 599.849 Z" fill="#000000" fill-rule="nonzero" fill-opacity="1"></path><path clip-path="url(#clip150)" d="M232.338 618.622 Q229.005 618.622 227.084 620.404 Q225.185 622.187 225.185 625.312 Q225.185 628.437 227.084 630.219 Q229.005 632.002 232.338 632.002 Q235.672 632.002 237.593 630.219 Q239.514 628.414 239.514 625.312 Q239.514 622.187 237.593 620.404 Q235.695 618.622 232.338 618.622 M227.662 616.631 Q224.653 615.891 222.963 613.83 Q221.297 611.77 221.297 608.807 Q221.297 604.664 224.236 602.256 Q227.199 599.849 232.338 599.849 Q237.5 599.849 240.44 602.256 Q243.38 604.664 243.38 608.807 Q243.38 611.77 241.69 613.83 Q240.023 615.891 237.037 616.631 Q240.417 617.418 242.292 619.71 Q244.19 622.002 244.19 625.312 Q244.19 630.335 241.111 633.02 Q238.056 635.705 232.338 635.705 Q226.621 635.705 223.542 633.02 Q220.486 630.335 220.486 625.312 Q220.486 622.002 222.385 619.71 Q224.283 617.418 227.662 616.631 M225.949 609.247 Q225.949 611.932 227.616 613.437 Q229.306 614.942 232.338 614.942 Q235.347 614.942 237.037 613.437 Q238.75 611.932 238.75 609.247 Q238.75 606.562 237.037 605.057 Q235.347 603.553 232.338 603.553 Q229.306 603.553 227.616 605.057 Q225.949 606.562 225.949 609.247 Z" fill="#000000" fill-rule="nonzero" fill-opacity="1"></path><path clip-path="url(#clip150)" d="M126.691 402.196 Q123.08 402.196 121.251 405.761 Q119.445 409.303 119.445 416.432 Q119.445 423.539 121.251 427.104 Q123.08 430.645 126.691 430.645 Q130.325 430.645 132.13 427.104 Q133.959 423.539 133.959 416.432 Q133.959 409.303 132.13 405.761 Q130.325 402.196 126.691 402.196 M126.691 398.493 Q132.501 398.493 135.556 403.099 Q138.635 407.682 138.635 416.432 Q138.635 425.159 135.556 429.766 Q132.501 434.349 126.691 434.349 Q120.88 434.349 117.802 429.766 Q114.746 425.159 114.746 416.432 Q114.746 407.682 117.802 403.099 Q120.88 398.493 126.691 398.493 Z" fill="#000000" fill-rule="nonzero" fill-opacity="1"></path><path clip-path="url(#clip150)" d="M146.853 427.798 L151.737 427.798 L151.737 433.678 L146.853 433.678 L146.853 427.798 Z" fill="#000000" fill-rule="nonzero" fill-opacity="1"></path><path clip-path="url(#clip150)" d="M171.922 402.196 Q168.311 402.196 166.482 405.761 Q164.677 409.303 164.677 416.432 Q164.677 423.539 166.482 427.104 Q168.311 430.645 171.922 430.645 Q175.556 430.645 177.362 427.104 Q179.19 423.539 179.19 416.432 Q179.19 409.303 177.362 405.761 Q175.556 402.196 171.922 402.196 M171.922 398.493 Q177.732 398.493 180.788 403.099 Q183.866 407.682 183.866 416.432 Q183.866 425.159 180.788 429.766 Q177.732 434.349 171.922 434.349 Q166.112 434.349 163.033 429.766 Q159.978 425.159 159.978 416.432 Q159.978 407.682 163.033 403.099 Q166.112 398.493 171.922 398.493 Z" fill="#000000" fill-rule="nonzero" fill-opacity="1"></path><path clip-path="url(#clip150)" d="M192.894 429.742 L200.533 429.742 L200.533 403.377 L192.223 405.043 L192.223 400.784 L200.487 399.118 L205.162 399.118 L205.162 429.742 L212.801 429.742 L212.801 433.678 L192.894 433.678 L192.894 429.742 Z" fill="#000000" fill-rule="nonzero" fill-opacity="1"></path><path clip-path="url(#clip150)" d="M232.246 402.196 Q228.635 402.196 226.806 405.761 Q225 409.303 225 416.432 Q225 423.539 226.806 427.104 Q228.635 430.645 232.246 430.645 Q235.88 430.645 237.685 427.104 Q239.514 423.539 239.514 416.432 Q239.514 409.303 237.685 405.761 Q235.88 402.196 232.246 402.196 M232.246 398.493 Q238.056 398.493 241.111 403.099 Q244.19 407.682 244.19 416.432 Q244.19 425.159 241.111 429.766 Q238.056 434.349 232.246 434.349 Q226.435 434.349 223.357 429.766 Q220.301 425.159 220.301 416.432 Q220.301 407.682 223.357 403.099 Q226.435 398.493 232.246 398.493 Z" fill="#000000" fill-rule="nonzero" fill-opacity="1"></path><path clip-path="url(#clip150)" d="M128.288 200.84 Q124.677 200.84 122.848 204.405 Q121.043 207.946 121.043 215.076 Q121.043 222.182 122.848 225.747 Q124.677 229.289 128.288 229.289 Q131.922 229.289 133.728 225.747 Q135.556 222.182 135.556 215.076 Q135.556 207.946 133.728 204.405 Q131.922 200.84 128.288 200.84 M128.288 197.136 Q134.098 197.136 137.154 201.743 Q140.232 206.326 140.232 215.076 Q140.232 223.803 137.154 228.409 Q134.098 232.992 128.288 232.992 Q122.478 232.992 119.399 228.409 Q116.343 223.803 116.343 215.076 Q116.343 206.326 119.399 201.743 Q122.478 197.136 128.288 197.136 Z" fill="#000000" fill-rule="nonzero" fill-opacity="1"></path><path clip-path="url(#clip150)" d="M148.45 226.442 L153.334 226.442 L153.334 232.321 L148.45 232.321 L148.45 226.442 Z" fill="#000000" fill-rule="nonzero" fill-opacity="1"></path><path clip-path="url(#clip150)" d="M173.519 200.84 Q169.908 200.84 168.079 204.405 Q166.274 207.946 166.274 215.076 Q166.274 222.182 168.079 225.747 Q169.908 229.289 173.519 229.289 Q177.153 229.289 178.959 225.747 Q180.788 222.182 180.788 215.076 Q180.788 207.946 178.959 204.405 Q177.153 200.84 173.519 200.84 M173.519 197.136 Q179.329 197.136 182.385 201.743 Q185.463 206.326 185.463 215.076 Q185.463 223.803 182.385 228.409 Q179.329 232.992 173.519 232.992 Q167.709 232.992 164.63 228.409 Q161.575 223.803 161.575 215.076 Q161.575 206.326 164.63 201.743 Q167.709 197.136 173.519 197.136 Z" fill="#000000" fill-rule="nonzero" fill-opacity="1"></path><path clip-path="url(#clip150)" d="M194.491 228.386 L202.13 228.386 L202.13 202.02 L193.82 203.687 L193.82 199.428 L202.084 197.761 L206.76 197.761 L206.76 228.386 L214.399 228.386 L214.399 232.321 L194.491 232.321 L194.491 228.386 Z" fill="#000000" fill-rule="nonzero" fill-opacity="1"></path><path clip-path="url(#clip150)" d="M227.871 228.386 L244.19 228.386 L244.19 232.321 L222.246 232.321 L222.246 228.386 Q224.908 225.631 229.491 221.002 Q234.097 216.349 235.278 215.006 Q237.523 212.483 238.403 210.747 Q239.306 208.988 239.306 207.298 Q239.306 204.544 237.361 202.807 Q235.44 201.071 232.338 201.071 Q230.139 201.071 227.685 201.835 Q225.255 202.599 222.477 204.15 L222.477 199.428 Q225.301 198.294 227.755 197.715 Q230.209 197.136 232.246 197.136 Q237.616 197.136 240.81 199.821 Q244.005 202.506 244.005 206.997 Q244.005 209.127 243.195 211.048 Q242.408 212.946 240.301 215.539 Q239.722 216.21 236.621 219.428 Q233.519 222.622 227.871 228.386 Z" fill="#000000" fill-rule="nonzero" fill-opacity="1"></path><path clip-path="url(#clip150)" d="M58.657 1029.15 L77.5631 1029.15 L77.5631 1035.04 L28.3562 1035.04 L28.3562 1029.15 L33.7671 1029.15 Q30.5842 1027.3 29.0564 1024.5 Q27.4968 1021.67 27.4968 1017.75 Q27.4968 1011.26 32.6531 1007.22 Q37.8093 1003.14 46.212 1003.14 Q54.6147 1003.14 59.771 1007.22 Q64.9272 1011.26 64.9272 1017.75 Q64.9272 1021.67 63.3994 1024.5 Q61.8398 1027.3 58.657 1029.15 M46.212 1009.22 Q39.7508 1009.22 36.0905 1011.9 Q32.3984 1014.54 32.3984 1019.19 Q32.3984 1023.83 36.0905 1026.51 Q39.7508 1029.15 46.212 1029.15 Q52.6732 1029.15 56.3653 1026.51 Q60.0256 1023.83 60.0256 1019.19 Q60.0256 1014.54 56.3653 1011.9 Q52.6732 1009.22 46.212 1009.22 Z" fill="#000000" fill-rule="nonzero" fill-opacity="1"></path><path clip-path="url(#clip150)" d="M33.8307 972.78 Q33.2578 973.767 33.0032 974.944 Q32.7167 976.09 32.7167 977.491 Q32.7167 982.456 35.9632 985.13 Q39.1779 987.771 45.2253 987.771 L64.0042 987.771 L64.0042 993.66 L28.3562 993.66 L28.3562 987.771 L33.8944 987.771 Q30.6479 985.925 29.0883 982.965 Q27.4968 980.005 27.4968 975.772 Q27.4968 975.167 27.5923 974.435 Q27.656 973.703 27.8151 972.812 L33.8307 972.78 Z" fill="#000000" fill-rule="nonzero" fill-opacity="1"></path><path clip-path="url(#clip150)" d="M32.4621 954.256 Q32.4621 958.967 36.1542 961.704 Q39.8145 964.441 46.212 964.441 Q52.6095 964.441 56.3017 961.736 Q59.9619 958.998 59.9619 954.256 Q59.9619 949.577 56.2698 946.84 Q52.5777 944.103 46.212 944.103 Q39.8781 944.103 36.186 946.84 Q32.4621 949.577 32.4621 954.256 M27.4968 954.256 Q27.4968 946.617 32.4621 942.257 Q37.4273 937.896 46.212 937.896 Q54.9649 937.896 59.9619 942.257 Q64.9272 946.617 64.9272 954.256 Q64.9272 961.927 59.9619 966.287 Q54.9649 970.616 46.212 970.616 Q37.4273 970.616 32.4621 966.287 Q27.4968 961.927 27.4968 954.256 Z" fill="#000000" fill-rule="nonzero" fill-opacity="1"></path><path clip-path="url(#clip150)" d="M46.212 902.598 Q39.7508 902.598 36.0905 905.272 Q32.3984 907.914 32.3984 912.561 Q32.3984 917.208 36.0905 919.881 Q39.7508 922.523 46.212 922.523 Q52.6732 922.523 56.3653 919.881 Q60.0256 917.208 60.0256 912.561 Q60.0256 907.914 56.3653 905.272 Q52.6732 902.598 46.212 902.598 M33.7671 922.523 Q30.5842 920.677 29.0564 917.876 Q27.4968 915.043 27.4968 911.128 Q27.4968 904.635 32.6531 900.593 Q37.8093 896.519 46.212 896.519 Q54.6147 896.519 59.771 900.593 Q64.9272 904.635 64.9272 911.128 Q64.9272 915.043 63.3994 917.876 Q61.8398 920.677 58.657 922.523 L64.0042 922.523 L64.0042 928.411 L14.479 928.411 L14.479 922.523 L33.7671 922.523 Z" fill="#000000" fill-rule="nonzero" fill-opacity="1"></path><path clip-path="url(#clip150)" d="M46.0847 870.611 Q46.0847 877.708 47.7079 880.446 Q49.3312 883.183 53.2461 883.183 Q56.3653 883.183 58.2114 881.146 Q60.0256 879.077 60.0256 875.544 Q60.0256 870.674 56.5881 867.746 Q53.1188 864.786 47.3897 864.786 L46.0847 864.786 L46.0847 870.611 M43.6657 858.929 L64.0042 858.929 L64.0042 864.786 L58.5933 864.786 Q61.8398 866.791 63.3994 869.783 Q64.9272 872.775 64.9272 877.104 Q64.9272 882.578 61.8716 885.825 Q58.7843 889.039 53.6281 889.039 Q47.6125 889.039 44.5569 885.029 Q41.5014 880.987 41.5014 872.998 L41.5014 864.786 L40.9285 864.786 Q36.8862 864.786 34.6901 867.46 Q32.4621 870.101 32.4621 874.907 Q32.4621 877.963 33.1941 880.859 Q33.9262 883.756 35.3903 886.429 L29.9795 886.429 Q28.7381 883.215 28.1334 880.191 Q27.4968 877.167 27.4968 874.303 Q27.4968 866.568 31.5072 862.749 Q35.5176 858.929 43.6657 858.929 Z" fill="#000000" fill-rule="nonzero" fill-opacity="1"></path><path clip-path="url(#clip150)" d="M46.212 821.276 Q39.7508 821.276 36.0905 823.95 Q32.3984 826.592 32.3984 831.239 Q32.3984 835.886 36.0905 838.559 Q39.7508 841.201 46.212 841.201 Q52.6732 841.201 56.3653 838.559 Q60.0256 835.886 60.0256 831.239 Q60.0256 826.592 56.3653 823.95 Q52.6732 821.276 46.212 821.276 M33.7671 841.201 Q30.5842 839.355 29.0564 836.554 Q27.4968 833.721 27.4968 829.806 Q27.4968 823.313 32.6531 819.271 Q37.8093 815.197 46.212 815.197 Q54.6147 815.197 59.771 819.271 Q64.9272 823.313 64.9272 829.806 Q64.9272 833.721 63.3994 836.554 Q61.8398 839.355 58.657 841.201 L64.0042 841.201 L64.0042 847.089 L14.479 847.089 L14.479 841.201 L33.7671 841.201 Z" fill="#000000" fill-rule="nonzero" fill-opacity="1"></path><path clip-path="url(#clip150)" d="M28.3562 805.489 L28.3562 799.633 L64.0042 799.633 L64.0042 805.489 L28.3562 805.489 M14.479 805.489 L14.479 799.633 L21.895 799.633 L21.895 805.489 L14.479 805.489 Z" fill="#000000" fill-rule="nonzero" fill-opacity="1"></path><path clip-path="url(#clip150)" d="M14.479 787.379 L14.479 781.522 L64.0042 781.522 L64.0042 787.379 L14.479 787.379 Z" fill="#000000" fill-rule="nonzero" fill-opacity="1"></path><path clip-path="url(#clip150)" d="M28.3562 769.268 L28.3562 763.412 L64.0042 763.412 L64.0042 769.268 L28.3562 769.268 M14.479 769.268 L14.479 763.412 L21.895 763.412 L21.895 769.268 L14.479 769.268 Z" fill="#000000" fill-rule="nonzero" fill-opacity="1"></path><path clip-path="url(#clip150)" d="M18.2347 745.365 L28.3562 745.365 L28.3562 733.302 L32.9077 733.302 L32.9077 745.365 L52.2594 745.365 Q56.6199 745.365 57.8613 744.188 Q59.1026 742.978 59.1026 739.318 L59.1026 733.302 L64.0042 733.302 L64.0042 739.318 Q64.0042 746.097 61.4897 748.675 Q58.9434 751.254 52.2594 751.254 L32.9077 751.254 L32.9077 755.55 L28.3562 755.55 L28.3562 751.254 L18.2347 751.254 L18.2347 745.365 Z" fill="#000000" fill-rule="nonzero" fill-opacity="1"></path><path clip-path="url(#clip150)" d="M67.3143 710.768 Q73.68 713.25 75.6216 715.606 Q77.5631 717.961 77.5631 721.908 L77.5631 726.586 L72.6615 726.586 L72.6615 723.149 Q72.6615 720.73 71.5157 719.393 Q70.3699 718.056 66.1048 716.433 L63.4312 715.383 L28.3562 729.801 L28.3562 723.595 L56.238 712.455 L28.3562 701.315 L28.3562 695.108 L67.3143 710.768 Z" fill="#000000" fill-rule="nonzero" fill-opacity="1"></path><path clip-path="url(#clip150)" d="M33.7671 642.846 L14.479 642.846 L14.479 636.989 L64.0042 636.989 L64.0042 642.846 L58.657 642.846 Q61.8398 644.692 63.3994 647.524 Q64.9272 650.325 64.9272 654.272 Q64.9272 660.733 59.771 664.807 Q54.6147 668.849 46.212 668.849 Q37.8093 668.849 32.6531 664.807 Q27.4968 660.733 27.4968 654.272 Q27.4968 650.325 29.0564 647.524 Q30.5842 644.692 33.7671 642.846 M46.212 662.802 Q52.6732 662.802 56.3653 660.16 Q60.0256 657.487 60.0256 652.84 Q60.0256 648.193 56.3653 645.519 Q52.6732 642.846 46.212 642.846 Q39.7508 642.846 36.0905 645.519 Q32.3984 648.193 32.3984 652.84 Q32.3984 657.487 36.0905 660.16 Q39.7508 662.802 46.212 662.802 Z" fill="#000000" fill-rule="nonzero" fill-opacity="1"></path><path clip-path="url(#clip150)" d="M44.7161 594.434 L47.5806 594.434 L47.5806 621.361 Q53.6281 620.979 56.8109 617.733 Q59.9619 614.455 59.9619 608.63 Q59.9619 605.256 59.1344 602.105 Q58.3069 598.922 56.6518 595.803 L62.1899 595.803 Q63.5267 598.954 64.227 602.264 Q64.9272 605.574 64.9272 608.98 Q64.9272 617.51 59.9619 622.507 Q54.9967 627.472 46.5303 627.472 Q37.7774 627.472 32.6531 622.762 Q27.4968 618.019 27.4968 609.999 Q27.4968 602.805 32.1438 598.636 Q36.7589 594.434 44.7161 594.434 M42.9973 600.291 Q38.1912 600.354 35.3266 602.996 Q32.4621 605.606 32.4621 609.935 Q32.4621 614.836 35.2312 617.797 Q38.0002 620.725 43.0292 621.17 L42.9973 600.291 Z" fill="#000000" fill-rule="nonzero" fill-opacity="1"></path><path clip-path="url(#clip150)" d="M42.4881 555.19 L64.0042 555.19 L64.0042 561.046 L42.679 561.046 Q37.6183 561.046 35.1038 563.02 Q32.5894 564.993 32.5894 568.94 Q32.5894 573.682 35.6131 576.419 Q38.6368 579.157 43.8567 579.157 L64.0042 579.157 L64.0042 585.045 L28.3562 585.045 L28.3562 579.157 L33.8944 579.157 Q30.6797 577.056 29.0883 574.223 Q27.4968 571.359 27.4968 567.635 Q27.4968 561.492 31.3163 558.341 Q35.1038 555.19 42.4881 555.19 Z" fill="#000000" fill-rule="nonzero" fill-opacity="1"></path><path clip-path="url(#clip150)" d="M29.4065 520.783 L34.9447 520.783 Q33.6716 523.266 33.035 525.939 Q32.3984 528.613 32.3984 531.478 Q32.3984 535.838 33.7352 538.034 Q35.072 540.199 37.7456 540.199 Q39.7826 540.199 40.9603 538.639 Q42.1061 537.079 43.1565 532.369 L43.6021 530.364 Q44.9389 524.125 47.3897 521.515 Q49.8086 518.873 54.1691 518.873 Q59.1344 518.873 62.0308 522.82 Q64.9272 526.735 64.9272 533.61 Q64.9272 536.475 64.3543 539.594 Q63.8132 542.681 62.6992 546.119 L56.6518 546.119 Q58.3387 542.872 59.198 539.721 Q60.0256 536.57 60.0256 533.483 Q60.0256 529.345 58.6251 527.117 Q57.1929 524.889 54.6147 524.889 Q52.2276 524.889 50.9545 526.512 Q49.6813 528.104 48.5037 533.546 L48.0262 535.583 Q46.8804 541.026 44.5251 543.445 Q42.138 545.864 38.0002 545.864 Q32.9713 545.864 30.2341 542.299 Q27.4968 538.734 27.4968 532.178 Q27.4968 528.931 27.9743 526.067 Q28.4517 523.202 29.4065 520.783 Z" fill="#000000" fill-rule="nonzero" fill-opacity="1"></path><path clip-path="url(#clip150)" d="M28.3562 509.548 L28.3562 503.691 L64.0042 503.691 L64.0042 509.548 L28.3562 509.548 M14.479 509.548 L14.479 503.691 L21.895 503.691 L21.895 509.548 L14.479 509.548 Z" fill="#000000" fill-rule="nonzero" fill-opacity="1"></path><path clip-path="url(#clip150)" d="M18.2347 485.644 L28.3562 485.644 L28.3562 473.581 L32.9077 473.581 L32.9077 485.644 L52.2594 485.644 Q56.6199 485.644 57.8613 484.467 Q59.1026 483.257 59.1026 479.597 L59.1026 473.581 L64.0042 473.581 L64.0042 479.597 Q64.0042 486.376 61.4897 488.955 Q58.9434 491.533 52.2594 491.533 L32.9077 491.533 L32.9077 495.83 L28.3562 495.83 L28.3562 491.533 L18.2347 491.533 L18.2347 485.644 Z" fill="#000000" fill-rule="nonzero" fill-opacity="1"></path><path clip-path="url(#clip150)" d="M67.3143 451.047 Q73.68 453.529 75.6216 455.885 Q77.5631 458.24 77.5631 462.187 L77.5631 466.866 L72.6615 466.866 L72.6615 463.428 Q72.6615 461.009 71.5157 459.672 Q70.3699 458.336 66.1048 456.712 L63.4312 455.662 L28.3562 470.08 L28.3562 463.874 L56.238 452.734 L28.3562 441.594 L28.3562 435.387 L67.3143 451.047 Z" fill="#000000" fill-rule="nonzero" fill-opacity="1"></path><path clip-path="url(#clip152)" d="M731.832 47.2441 L731.832 1423.18 L984.213 1423.18 L984.213 47.2441 L731.832 47.2441 L731.832 47.2441  Z" fill="#000000" fill-rule="evenodd" fill-opacity="0.25"></path>
<polyline clip-path="url(#clip152)" style="stroke:#000000; stroke-linecap:round; stroke-linejoin:round; stroke-width:4; stroke-opacity:0.25; fill:none" points="731.832,47.2441 731.832,1423.18 984.213,1423.18 984.213,47.2441 731.832,47.2441 "></polyline>
<path clip-path="url(#clip152)" d="M984.213 852.67 L984.213 1423.18 L1236.59 1423.18 L1236.59 852.67 L984.213 852.67 L984.213 852.67  Z" fill="#000000" fill-rule="evenodd" fill-opacity="0.25"></path>
<polyline clip-path="url(#clip152)" style="stroke:#000000; stroke-linecap:round; stroke-linejoin:round; stroke-width:4; stroke-opacity:0.25; fill:none" points="984.213,852.67 984.213,1423.18 1236.59,1423.18 1236.59,852.67 984.213,852.67 "></polyline>
<path clip-path="url(#clip152)" d="M1236.59 1121.15 L1236.59 1423.18 L1488.98 1423.18 L1488.98 1121.15 L1236.59 1121.15 L1236.59 1121.15  Z" fill="#000000" fill-rule="evenodd" fill-opacity="0.25"></path>
<polyline clip-path="url(#clip152)" style="stroke:#000000; stroke-linecap:round; stroke-linejoin:round; stroke-width:4; stroke-opacity:0.25; fill:none" points="1236.59,1121.15 1236.59,1423.18 1488.98,1423.18 1488.98,1121.15 1236.59,1121.15 "></polyline>
<path clip-path="url(#clip152)" d="M1488.98 1221.82 L1488.98 1423.18 L1741.36 1423.18 L1741.36 1221.82 L1488.98 1221.82 L1488.98 1221.82  Z" fill="#000000" fill-rule="evenodd" fill-opacity="0.25"></path>
<polyline clip-path="url(#clip152)" style="stroke:#000000; stroke-linecap:round; stroke-linejoin:round; stroke-width:4; stroke-opacity:0.25; fill:none" points="1488.98,1221.82 1488.98,1423.18 1741.36,1423.18 1741.36,1221.82 1488.98,1221.82 "></polyline>
<path clip-path="url(#clip152)" d="M1741.36 1356.06 L1741.36 1423.18 L1993.74 1423.18 L1993.74 1356.06 L1741.36 1356.06 L1741.36 1356.06  Z" fill="#000000" fill-rule="evenodd" fill-opacity="0.25"></path>
<polyline clip-path="url(#clip152)" style="stroke:#000000; stroke-linecap:round; stroke-linejoin:round; stroke-width:4; stroke-opacity:0.25; fill:none" points="1741.36,1356.06 1741.36,1423.18 1993.74,1423.18 1993.74,1356.06 1741.36,1356.06 "></polyline>
<circle clip-path="url(#clip152)" style="fill:#000000; stroke:none; fill-opacity:0" cx="858.022" cy="47.2441" r="2"></circle>
<circle clip-path="url(#clip152)" style="fill:#000000; stroke:none; fill-opacity:0" cx="1110.4" cy="852.67" r="2"></circle>
<circle clip-path="url(#clip152)" style="fill:#000000; stroke:none; fill-opacity:0" cx="1362.78" cy="1121.15" r="2"></circle>
<circle clip-path="url(#clip152)" style="fill:#000000; stroke:none; fill-opacity:0" cx="1615.17" cy="1221.82" r="2"></circle>
<circle clip-path="url(#clip152)" style="fill:#000000; stroke:none; fill-opacity:0" cx="1867.55" cy="1356.06" r="2"></circle>
<polyline clip-path="url(#clip152)" style="stroke:#0000ff; stroke-linecap:round; stroke-linejoin:round; stroke-width:20; stroke-opacity:1; fill:none" points="338.848,1423.18 369.883,1423.04 400.919,1422.76 431.955,1421.87 462.99,1419.41 494.026,1413.29 525.062,1399.47 556.098,1371.26 587.133,1319.17 618.169,1232.45 649.205,1102.64 680.241,928.849 711.276,722.478 742.312,508.425 773.348,320.537 804.383,191.919 835.419,143.914 866.455,178.776 897.491,279.382 928.526,415.717 959.562,554.89 990.598,670.557 1021.63,748.893 1052.67,790.018 1083.71,805.226 1114.74,811.271 1145.78,823.653 1176.81,851.332 1207.85,894.754 1238.88,947.592 1269.92,1000.77 1300.96,1046.51 1331.99,1080.72 1363.03,1103.16 1394.06,1116.24 1425.1,1123.28 1456.13,1127.41 1487.17,1131.23 1518.21,1137.26 1549.24,1148.33 1580.28,1167.24 1611.31,1195.53 1642.35,1232.31 1673.38,1273.98 1704.42,1315.35 1735.46,1351.56 1766.49,1379.66 1797.53,1399.04 1828.56,1410.99 1859.6,1417.58 1890.63,1420.84 1921.67,1422.29 1952.71,1422.87 1983.74,1423.06 2014.78,1423.18 2045.81,1423.18 2076.85,1423.18 2107.88,1423.18 2138.92,1423.18 2169.96,1423.18 2200.99,1423.18 2232.03,1423.18 2263.06,1423.18 2294.1,1423.18 "></polyline>
<line clip-path="url(#clip152)" x1="1468.41" y1="1483.18" x2="1468.41" y2="1363.18" style="stroke:#000000; stroke-width:3.2; stroke-opacity:1"></line>
<line clip-path="url(#clip152)" x1="1603.18" y1="1483.18" x2="1603.18" y2="1363.18" style="stroke:#000000; stroke-width:3.2; stroke-opacity:1"></line>
<line clip-path="url(#clip152)" x1="834.677" y1="1483.18" x2="834.677" y2="1363.18" style="stroke:#000000; stroke-width:3.2; stroke-opacity:1"></line>
<line clip-path="url(#clip152)" x1="1433.7" y1="1483.18" x2="1433.7" y2="1363.18" style="stroke:#000000; stroke-width:3.2; stroke-opacity:1"></line>
<line clip-path="url(#clip152)" x1="1421.02" y1="1483.18" x2="1421.02" y2="1363.18" style="stroke:#000000; stroke-width:3.2; stroke-opacity:1"></line>
<line clip-path="url(#clip152)" x1="781.046" y1="1483.18" x2="781.046" y2="1363.18" style="stroke:#000000; stroke-width:3.2; stroke-opacity:1"></line>
<line clip-path="url(#clip152)" x1="883.197" y1="1483.18" x2="883.197" y2="1363.18" style="stroke:#000000; stroke-width:3.2; stroke-opacity:1"></line>
<line clip-path="url(#clip152)" x1="942.381" y1="1483.18" x2="942.381" y2="1363.18" style="stroke:#000000; stroke-width:3.2; stroke-opacity:1"></line>
<line clip-path="url(#clip152)" x1="1106.43" y1="1483.18" x2="1106.43" y2="1363.18" style="stroke:#000000; stroke-width:3.2; stroke-opacity:1"></line>
<line clip-path="url(#clip152)" x1="1293.44" y1="1483.18" x2="1293.44" y2="1363.18" style="stroke:#000000; stroke-width:3.2; stroke-opacity:1"></line>
<line clip-path="url(#clip152)" x1="927.301" y1="1483.18" x2="927.301" y2="1363.18" style="stroke:#000000; stroke-width:3.2; stroke-opacity:1"></line>
<line clip-path="url(#clip152)" x1="834.614" y1="1483.18" x2="834.614" y2="1363.18" style="stroke:#000000; stroke-width:3.2; stroke-opacity:1"></line>
<line clip-path="url(#clip152)" x1="806.6" y1="1483.18" x2="806.6" y2="1363.18" style="stroke:#000000; stroke-width:3.2; stroke-opacity:1"></line>
<line clip-path="url(#clip152)" x1="1326.88" y1="1483.18" x2="1326.88" y2="1363.18" style="stroke:#000000; stroke-width:3.2; stroke-opacity:1"></line>
<line clip-path="url(#clip152)" x1="794.296" y1="1483.18" x2="794.296" y2="1363.18" style="stroke:#000000; stroke-width:3.2; stroke-opacity:1"></line>
<line clip-path="url(#clip152)" x1="1258.05" y1="1483.18" x2="1258.05" y2="1363.18" style="stroke:#000000; stroke-width:3.2; stroke-opacity:1"></line>
<line clip-path="url(#clip152)" x1="1197.16" y1="1483.18" x2="1197.16" y2="1363.18" style="stroke:#000000; stroke-width:3.2; stroke-opacity:1"></line>
<line clip-path="url(#clip152)" x1="972.225" y1="1483.18" x2="972.225" y2="1363.18" style="stroke:#000000; stroke-width:3.2; stroke-opacity:1"></line>
<line clip-path="url(#clip152)" x1="888.371" y1="1483.18" x2="888.371" y2="1363.18" style="stroke:#000000; stroke-width:3.2; stroke-opacity:1"></line>
<line clip-path="url(#clip152)" x1="1069.27" y1="1483.18" x2="1069.27" y2="1363.18" style="stroke:#000000; stroke-width:3.2; stroke-opacity:1"></line>
<line clip-path="url(#clip152)" x1="733.598" y1="1483.18" x2="733.598" y2="1363.18" style="stroke:#000000; stroke-width:3.2; stroke-opacity:1"></line>
<line clip-path="url(#clip152)" x1="885.406" y1="1483.18" x2="885.406" y2="1363.18" style="stroke:#000000; stroke-width:3.2; stroke-opacity:1"></line>
<line clip-path="url(#clip152)" x1="733.283" y1="1483.18" x2="733.283" y2="1363.18" style="stroke:#000000; stroke-width:3.2; stroke-opacity:1"></line>
<line clip-path="url(#clip152)" x1="1250.66" y1="1483.18" x2="1250.66" y2="1363.18" style="stroke:#000000; stroke-width:3.2; stroke-opacity:1"></line>
<line clip-path="url(#clip152)" x1="990.396" y1="1483.18" x2="990.396" y2="1363.18" style="stroke:#000000; stroke-width:3.2; stroke-opacity:1"></line>
<line clip-path="url(#clip152)" x1="1148.45" y1="1483.18" x2="1148.45" y2="1363.18" style="stroke:#000000; stroke-width:3.2; stroke-opacity:1"></line>
<line clip-path="url(#clip152)" x1="794.296" y1="1483.18" x2="794.296" y2="1363.18" style="stroke:#000000; stroke-width:3.2; stroke-opacity:1"></line>
<line clip-path="url(#clip152)" x1="835.308" y1="1483.18" x2="835.308" y2="1363.18" style="stroke:#000000; stroke-width:3.2; stroke-opacity:1"></line>
<line clip-path="url(#clip152)" x1="1608.86" y1="1483.18" x2="1608.86" y2="1363.18" style="stroke:#000000; stroke-width:3.2; stroke-opacity:1"></line>
<line clip-path="url(#clip152)" x1="1181.89" y1="1483.18" x2="1181.89" y2="1363.18" style="stroke:#000000; stroke-width:3.2; stroke-opacity:1"></line>
<line clip-path="url(#clip152)" x1="812.72" y1="1483.18" x2="812.72" y2="1363.18" style="stroke:#000000; stroke-width:3.2; stroke-opacity:1"></line>
<line clip-path="url(#clip152)" x1="1899.35" y1="1483.18" x2="1899.35" y2="1363.18" style="stroke:#000000; stroke-width:3.2; stroke-opacity:1"></line>
<line clip-path="url(#clip152)" x1="807.041" y1="1483.18" x2="807.041" y2="1363.18" style="stroke:#000000; stroke-width:3.2; stroke-opacity:1"></line>
<line clip-path="url(#clip152)" x1="789.943" y1="1483.18" x2="789.943" y2="1363.18" style="stroke:#000000; stroke-width:3.2; stroke-opacity:1"></line>
<line clip-path="url(#clip152)" x1="780.857" y1="1483.18" x2="780.857" y2="1363.18" style="stroke:#000000; stroke-width:3.2; stroke-opacity:1"></line>
<line clip-path="url(#clip152)" x1="1496.99" y1="1483.18" x2="1496.99" y2="1363.18" style="stroke:#000000; stroke-width:3.2; stroke-opacity:1"></line>
<line clip-path="url(#clip152)" x1="1180.57" y1="1483.18" x2="1180.57" y2="1363.18" style="stroke:#000000; stroke-width:3.2; stroke-opacity:1"></line>
<line clip-path="url(#clip152)" x1="1140.06" y1="1483.18" x2="1140.06" y2="1363.18" style="stroke:#000000; stroke-width:3.2; stroke-opacity:1"></line>
<line clip-path="url(#clip152)" x1="883.197" y1="1483.18" x2="883.197" y2="1363.18" style="stroke:#000000; stroke-width:3.2; stroke-opacity:1"></line>
<line clip-path="url(#clip152)" x1="788.996" y1="1483.18" x2="788.996" y2="1363.18" style="stroke:#000000; stroke-width:3.2; stroke-opacity:1"></line>
<line clip-path="url(#clip152)" x1="870.641" y1="1483.18" x2="870.641" y2="1363.18" style="stroke:#000000; stroke-width:3.2; stroke-opacity:1"></line>
<line clip-path="url(#clip152)" x1="988.693" y1="1483.18" x2="988.693" y2="1363.18" style="stroke:#000000; stroke-width:3.2; stroke-opacity:1"></line>
<line clip-path="url(#clip152)" x1="1417.68" y1="1483.18" x2="1417.68" y2="1363.18" style="stroke:#000000; stroke-width:3.2; stroke-opacity:1"></line>
<line clip-path="url(#clip152)" x1="1345.06" y1="1483.18" x2="1345.06" y2="1363.18" style="stroke:#000000; stroke-width:3.2; stroke-opacity:1"></line>
<line clip-path="url(#clip152)" x1="889.57" y1="1483.18" x2="889.57" y2="1363.18" style="stroke:#000000; stroke-width:3.2; stroke-opacity:1"></line>
<line clip-path="url(#clip152)" x1="1597.25" y1="1483.18" x2="1597.25" y2="1363.18" style="stroke:#000000; stroke-width:3.2; stroke-opacity:1"></line>
<line clip-path="url(#clip152)" x1="1113.31" y1="1483.18" x2="1113.31" y2="1363.18" style="stroke:#000000; stroke-width:3.2; stroke-opacity:1"></line>
<line clip-path="url(#clip152)" x1="781.046" y1="1483.18" x2="781.046" y2="1363.18" style="stroke:#000000; stroke-width:3.2; stroke-opacity:1"></line>
<line clip-path="url(#clip152)" x1="814.676" y1="1483.18" x2="814.676" y2="1363.18" style="stroke:#000000; stroke-width:3.2; stroke-opacity:1"></line>
<line clip-path="url(#clip152)" x1="1075.83" y1="1483.18" x2="1075.83" y2="1363.18" style="stroke:#000000; stroke-width:3.2; stroke-opacity:1"></line>
<line clip-path="url(#clip152)" x1="1133.05" y1="1483.18" x2="1133.05" y2="1363.18" style="stroke:#000000; stroke-width:3.2; stroke-opacity:1"></line>
<line clip-path="url(#clip152)" x1="894.113" y1="1483.18" x2="894.113" y2="1363.18" style="stroke:#000000; stroke-width:3.2; stroke-opacity:1"></line>
<line clip-path="url(#clip152)" x1="803.95" y1="1483.18" x2="803.95" y2="1363.18" style="stroke:#000000; stroke-width:3.2; stroke-opacity:1"></line>
<line clip-path="url(#clip152)" x1="1143.72" y1="1483.18" x2="1143.72" y2="1363.18" style="stroke:#000000; stroke-width:3.2; stroke-opacity:1"></line>
<line clip-path="url(#clip152)" x1="1800.35" y1="1483.18" x2="1800.35" y2="1363.18" style="stroke:#000000; stroke-width:3.2; stroke-opacity:1"></line>
<line clip-path="url(#clip152)" x1="807.041" y1="1483.18" x2="807.041" y2="1363.18" style="stroke:#000000; stroke-width:3.2; stroke-opacity:1"></line>
<line clip-path="url(#clip152)" x1="761.613" y1="1483.18" x2="761.613" y2="1363.18" style="stroke:#000000; stroke-width:3.2; stroke-opacity:1"></line>
<line clip-path="url(#clip152)" x1="1156.4" y1="1483.18" x2="1156.4" y2="1363.18" style="stroke:#000000; stroke-width:3.2; stroke-opacity:1"></line>
<line clip-path="url(#clip152)" x1="847.17" y1="1483.18" x2="847.17" y2="1363.18" style="stroke:#000000; stroke-width:3.2; stroke-opacity:1"></line>
<line clip-path="url(#clip152)" x1="1565.19" y1="1483.18" x2="1565.19" y2="1363.18" style="stroke:#000000; stroke-width:3.2; stroke-opacity:1"></line>
<line clip-path="url(#clip152)" x1="993.299" y1="1483.18" x2="993.299" y2="1363.18" style="stroke:#000000; stroke-width:3.2; stroke-opacity:1"></line>
<line clip-path="url(#clip152)" x1="749.94" y1="1483.18" x2="749.94" y2="1363.18" style="stroke:#000000; stroke-width:3.2; stroke-opacity:1"></line>
<line clip-path="url(#clip152)" x1="1607.47" y1="1483.18" x2="1607.47" y2="1363.18" style="stroke:#000000; stroke-width:3.2; stroke-opacity:1"></line>
<line clip-path="url(#clip152)" x1="1128.39" y1="1483.18" x2="1128.39" y2="1363.18" style="stroke:#000000; stroke-width:3.2; stroke-opacity:1"></line>
<line clip-path="url(#clip152)" x1="868.244" y1="1483.18" x2="868.244" y2="1363.18" style="stroke:#000000; stroke-width:3.2; stroke-opacity:1"></line>
<line clip-path="url(#clip152)" x1="1145.61" y1="1483.18" x2="1145.61" y2="1363.18" style="stroke:#000000; stroke-width:3.2; stroke-opacity:1"></line>
<line clip-path="url(#clip152)" x1="788.618" y1="1483.18" x2="788.618" y2="1363.18" style="stroke:#000000; stroke-width:3.2; stroke-opacity:1"></line>
<line clip-path="url(#clip152)" x1="810.701" y1="1483.18" x2="810.701" y2="1363.18" style="stroke:#000000; stroke-width:3.2; stroke-opacity:1"></line>
<line clip-path="url(#clip152)" x1="862.818" y1="1483.18" x2="862.818" y2="1363.18" style="stroke:#000000; stroke-width:3.2; stroke-opacity:1"></line>
<line clip-path="url(#clip152)" x1="746.47" y1="1483.18" x2="746.47" y2="1363.18" style="stroke:#000000; stroke-width:3.2; stroke-opacity:1"></line>
<line clip-path="url(#clip152)" x1="869.38" y1="1483.18" x2="869.38" y2="1363.18" style="stroke:#000000; stroke-width:3.2; stroke-opacity:1"></line>
<line clip-path="url(#clip152)" x1="812.72" y1="1483.18" x2="812.72" y2="1363.18" style="stroke:#000000; stroke-width:3.2; stroke-opacity:1"></line>
<line clip-path="url(#clip152)" x1="794.107" y1="1483.18" x2="794.107" y2="1363.18" style="stroke:#000000; stroke-width:3.2; stroke-opacity:1"></line>
<line clip-path="url(#clip152)" x1="818.903" y1="1483.18" x2="818.903" y2="1363.18" style="stroke:#000000; stroke-width:3.2; stroke-opacity:1"></line>
<line clip-path="url(#clip152)" x1="889.57" y1="1483.18" x2="889.57" y2="1363.18" style="stroke:#000000; stroke-width:3.2; stroke-opacity:1"></line>
<path clip-path="url(#clip150)" d="M1772.27 300.469 L2283.67 300.469 L2283.67 93.1086 L1772.27 93.1086  Z" fill="#ffffff" fill-rule="evenodd" fill-opacity="1"></path>
<polyline clip-path="url(#clip150)" style="stroke:#000000; stroke-linecap:round; stroke-linejoin:round; stroke-width:4; stroke-opacity:1; fill:none" points="1772.27,300.469 2283.67,300.469 2283.67,93.1086 1772.27,93.1086 1772.27,300.469 "></polyline>
<path clip-path="url(#clip150)" d="M1795.3 165.685 L1933.47 165.685 L1933.47 124.213 L1795.3 124.213 L1795.3 165.685  Z" fill="#000000" fill-rule="evenodd" fill-opacity="0.25"></path>
<polyline clip-path="url(#clip150)" style="stroke:#000000; stroke-linecap:round; stroke-linejoin:round; stroke-width:4; stroke-opacity:1; fill:none" points="1795.3,165.685 1933.47,165.685 1933.47,124.213 1795.3,124.213 1795.3,165.685 "></polyline>
<path clip-path="url(#clip150)" d="M1978.21 146.581 L1978.21 162.229 L1973.95 162.229 L1973.95 146.719 Q1973.95 143.039 1972.52 141.21 Q1971.08 139.382 1968.21 139.382 Q1964.76 139.382 1962.77 141.581 Q1960.78 143.78 1960.78 147.576 L1960.78 162.229 L1956.5 162.229 L1956.5 126.21 L1960.78 126.21 L1960.78 140.331 Q1962.31 137.993 1964.37 136.835 Q1966.45 135.678 1969.16 135.678 Q1973.63 135.678 1975.92 138.456 Q1978.21 141.21 1978.21 146.581 Z" fill="#000000" fill-rule="nonzero" fill-opacity="1"></path><path clip-path="url(#clip150)" d="M1986.71 136.303 L1990.97 136.303 L1990.97 162.229 L1986.71 162.229 L1986.71 136.303 M1986.71 126.21 L1990.97 126.21 L1990.97 131.604 L1986.71 131.604 L1986.71 126.21 Z" fill="#000000" fill-rule="nonzero" fill-opacity="1"></path><path clip-path="url(#clip150)" d="M2016.41 137.067 L2016.41 141.094 Q2014.6 140.169 2012.66 139.706 Q2010.71 139.243 2008.63 139.243 Q2005.46 139.243 2003.86 140.215 Q2002.29 141.187 2002.29 143.131 Q2002.29 144.613 2003.42 145.469 Q2004.56 146.303 2007.98 147.067 L2009.44 147.391 Q2013.98 148.363 2015.87 150.145 Q2017.8 151.905 2017.8 155.076 Q2017.8 158.687 2014.93 160.793 Q2012.08 162.9 2007.08 162.9 Q2005 162.9 2002.73 162.483 Q2000.48 162.09 1997.98 161.28 L1997.98 156.881 Q2000.34 158.108 2002.63 158.733 Q2004.93 159.335 2007.17 159.335 Q2010.18 159.335 2011.8 158.317 Q2013.42 157.275 2013.42 155.4 Q2013.42 153.664 2012.24 152.738 Q2011.08 151.812 2007.12 150.956 L2005.64 150.608 Q2001.68 149.775 1999.93 148.062 Q1998.17 146.326 1998.17 143.317 Q1998.17 139.659 2000.76 137.669 Q2003.35 135.678 2008.12 135.678 Q2010.48 135.678 2012.56 136.025 Q2014.65 136.372 2016.41 137.067 Z" fill="#000000" fill-rule="nonzero" fill-opacity="1"></path><path clip-path="url(#clip150)" d="M2028.79 128.942 L2028.79 136.303 L2037.56 136.303 L2037.56 139.613 L2028.79 139.613 L2028.79 153.687 Q2028.79 156.858 2029.65 157.761 Q2030.53 158.664 2033.19 158.664 L2037.56 158.664 L2037.56 162.229 L2033.19 162.229 Q2028.26 162.229 2026.38 160.4 Q2024.51 158.548 2024.51 153.687 L2024.51 139.613 L2021.38 139.613 L2021.38 136.303 L2024.51 136.303 L2024.51 128.942 L2028.79 128.942 Z" fill="#000000" fill-rule="nonzero" fill-opacity="1"></path><path clip-path="url(#clip150)" d="M2053.21 139.289 Q2049.79 139.289 2047.8 141.974 Q2045.81 144.636 2045.81 149.289 Q2045.81 153.942 2047.77 156.627 Q2049.76 159.289 2053.21 159.289 Q2056.62 159.289 2058.61 156.604 Q2060.6 153.918 2060.6 149.289 Q2060.6 144.682 2058.61 141.997 Q2056.62 139.289 2053.21 139.289 M2053.21 135.678 Q2058.77 135.678 2061.94 139.289 Q2065.11 142.9 2065.11 149.289 Q2065.11 155.655 2061.94 159.289 Q2058.77 162.9 2053.21 162.9 Q2047.63 162.9 2044.46 159.289 Q2041.31 155.655 2041.31 149.289 Q2041.31 142.9 2044.46 139.289 Q2047.63 135.678 2053.21 135.678 Z" fill="#000000" fill-rule="nonzero" fill-opacity="1"></path><path clip-path="url(#clip150)" d="M2089.23 148.965 Q2089.23 144.335 2087.31 141.789 Q2085.41 139.243 2081.96 139.243 Q2078.54 139.243 2076.62 141.789 Q2074.72 144.335 2074.72 148.965 Q2074.72 153.571 2076.62 156.118 Q2078.54 158.664 2081.96 158.664 Q2085.41 158.664 2087.31 156.118 Q2089.23 153.571 2089.23 148.965 M2093.49 159.011 Q2093.49 165.631 2090.55 168.849 Q2087.61 172.09 2081.55 172.09 Q2079.3 172.09 2077.31 171.742 Q2075.32 171.418 2073.44 170.724 L2073.44 166.58 Q2075.32 167.599 2077.15 168.085 Q2078.98 168.571 2080.87 168.571 Q2085.06 168.571 2087.15 166.372 Q2089.23 164.196 2089.23 159.775 L2089.23 157.668 Q2087.91 159.96 2085.85 161.094 Q2083.79 162.229 2080.92 162.229 Q2076.15 162.229 2073.24 158.594 Q2070.32 154.96 2070.32 148.965 Q2070.32 142.946 2073.24 139.312 Q2076.15 135.678 2080.92 135.678 Q2083.79 135.678 2085.85 136.812 Q2087.91 137.946 2089.23 140.238 L2089.23 136.303 L2093.49 136.303 L2093.49 159.011 Z" fill="#000000" fill-rule="nonzero" fill-opacity="1"></path><path clip-path="url(#clip150)" d="M2117.29 140.284 Q2116.57 139.868 2115.71 139.682 Q2114.88 139.474 2113.86 139.474 Q2110.25 139.474 2108.3 141.835 Q2106.38 144.173 2106.38 148.571 L2106.38 162.229 L2102.1 162.229 L2102.1 136.303 L2106.38 136.303 L2106.38 140.331 Q2107.73 137.969 2109.88 136.835 Q2112.03 135.678 2115.11 135.678 Q2115.55 135.678 2116.08 135.747 Q2116.61 135.794 2117.26 135.909 L2117.29 140.284 Z" fill="#000000" fill-rule="nonzero" fill-opacity="1"></path><path clip-path="url(#clip150)" d="M2133.54 149.196 Q2128.37 149.196 2126.38 150.377 Q2124.39 151.557 2124.39 154.405 Q2124.39 156.673 2125.87 158.016 Q2127.38 159.335 2129.95 159.335 Q2133.49 159.335 2135.62 156.835 Q2137.77 154.312 2137.77 150.145 L2137.77 149.196 L2133.54 149.196 M2142.03 147.437 L2142.03 162.229 L2137.77 162.229 L2137.77 158.293 Q2136.31 160.655 2134.14 161.789 Q2131.96 162.9 2128.81 162.9 Q2124.83 162.9 2122.47 160.678 Q2120.13 158.432 2120.13 154.682 Q2120.13 150.307 2123.05 148.085 Q2125.99 145.863 2131.8 145.863 L2137.77 145.863 L2137.77 145.446 Q2137.77 142.507 2135.83 140.909 Q2133.91 139.289 2130.41 139.289 Q2128.19 139.289 2126.08 139.821 Q2123.98 140.354 2122.03 141.419 L2122.03 137.483 Q2124.37 136.581 2126.57 136.141 Q2128.77 135.678 2130.85 135.678 Q2136.48 135.678 2139.25 138.594 Q2142.03 141.511 2142.03 147.437 Z" fill="#000000" fill-rule="nonzero" fill-opacity="1"></path><path clip-path="url(#clip150)" d="M2170.99 141.28 Q2172.59 138.409 2174.81 137.044 Q2177.03 135.678 2180.04 135.678 Q2184.09 135.678 2186.29 138.525 Q2188.49 141.349 2188.49 146.581 L2188.49 162.229 L2184.21 162.229 L2184.21 146.719 Q2184.21 142.993 2182.89 141.187 Q2181.57 139.382 2178.86 139.382 Q2175.55 139.382 2173.63 141.581 Q2171.71 143.78 2171.71 147.576 L2171.71 162.229 L2167.42 162.229 L2167.42 146.719 Q2167.42 142.969 2166.11 141.187 Q2164.79 139.382 2162.03 139.382 Q2158.77 139.382 2156.85 141.604 Q2154.92 143.803 2154.92 147.576 L2154.92 162.229 L2150.64 162.229 L2150.64 136.303 L2154.92 136.303 L2154.92 140.331 Q2156.38 137.946 2158.42 136.812 Q2160.46 135.678 2163.26 135.678 Q2166.08 135.678 2168.05 137.113 Q2170.04 138.548 2170.99 141.28 Z" fill="#000000" fill-rule="nonzero" fill-opacity="1"></path><polyline clip-path="url(#clip150)" style="stroke:#0000ff; stroke-linecap:round; stroke-linejoin:round; stroke-width:20; stroke-opacity:1; fill:none" points="1795.3,196.789 1933.47,196.789 "></polyline>
<path clip-path="url(#clip150)" d="M1956.5 179.509 L1961.18 179.509 L1961.18 194.115 L1976.69 179.509 L1982.7 179.509 L1965.55 195.62 L1983.93 214.069 L1977.77 214.069 L1961.18 197.425 L1961.18 214.069 L1956.5 214.069 L1956.5 179.509 Z" fill="#000000" fill-rule="nonzero" fill-opacity="1"></path><path clip-path="url(#clip150)" d="M1992.26 183.351 L1992.26 210.226 L1997.91 210.226 Q2005.06 210.226 2008.37 206.985 Q2011.71 203.745 2011.71 196.754 Q2011.71 189.809 2008.37 186.592 Q2005.06 183.351 1997.91 183.351 L1992.26 183.351 M1987.59 179.509 L1997.19 179.509 Q2007.24 179.509 2011.94 183.698 Q2016.64 187.865 2016.64 196.754 Q2016.64 205.689 2011.92 209.879 Q2007.19 214.069 1997.19 214.069 L1987.59 214.069 L1987.59 179.509 Z" fill="#000000" fill-rule="nonzero" fill-opacity="1"></path><path clip-path="url(#clip150)" d="M2024.09 179.509 L2045.94 179.509 L2045.94 183.444 L2028.77 183.444 L2028.77 193.675 L2045.23 193.675 L2045.23 197.61 L2028.77 197.61 L2028.77 210.133 L2046.36 210.133 L2046.36 214.069 L2024.09 214.069 L2024.09 179.509 Z" fill="#000000" fill-rule="nonzero" fill-opacity="1"></path><line clip-path="url(#clip150)" x1="1864.39" y1="273.403" x2="1864.39" y2="223.854" style="stroke:#000000; stroke-width:1.32129; stroke-opacity:1"></line>
<path clip-path="url(#clip150)" d="M1975.41 252.645 Q1975.41 248.015 1973.49 245.469 Q1971.59 242.923 1968.14 242.923 Q1964.72 242.923 1962.8 245.469 Q1960.9 248.015 1960.9 252.645 Q1960.9 257.251 1962.8 259.798 Q1964.72 262.344 1968.14 262.344 Q1971.59 262.344 1973.49 259.798 Q1975.41 257.251 1975.41 252.645 M1979.67 262.691 Q1979.67 269.311 1976.73 272.529 Q1973.79 275.77 1967.73 275.77 Q1965.48 275.77 1963.49 275.422 Q1961.5 275.098 1959.62 274.404 L1959.62 270.26 Q1961.5 271.279 1963.33 271.765 Q1965.16 272.251 1967.06 272.251 Q1971.25 272.251 1973.33 270.052 Q1975.41 267.876 1975.41 263.455 L1975.41 261.348 Q1974.09 263.64 1972.03 264.774 Q1969.97 265.909 1967.1 265.909 Q1962.33 265.909 1959.42 262.274 Q1956.5 258.64 1956.5 252.645 Q1956.5 246.626 1959.42 242.992 Q1962.33 239.358 1967.1 239.358 Q1969.97 239.358 1972.03 240.492 Q1974.09 241.626 1975.41 243.918 L1975.41 239.983 L1979.67 239.983 L1979.67 262.691 Z" fill="#000000" fill-rule="nonzero" fill-opacity="1"></path><path clip-path="url(#clip150)" d="M2003.47 243.964 Q2002.75 243.548 2001.89 243.362 Q2001.06 243.154 2000.04 243.154 Q1996.43 243.154 1994.49 245.515 Q1992.56 247.853 1992.56 252.251 L1992.56 265.909 L1988.28 265.909 L1988.28 239.983 L1992.56 239.983 L1992.56 244.011 Q1993.91 241.649 1996.06 240.515 Q1998.21 239.358 2001.29 239.358 Q2001.73 239.358 2002.26 239.427 Q2002.8 239.474 2003.44 239.589 L2003.47 243.964 Z" fill="#000000" fill-rule="nonzero" fill-opacity="1"></path><path clip-path="url(#clip150)" d="M2019.72 252.876 Q2014.56 252.876 2012.56 254.057 Q2010.57 255.237 2010.57 258.085 Q2010.57 260.353 2012.06 261.696 Q2013.56 263.015 2016.13 263.015 Q2019.67 263.015 2021.8 260.515 Q2023.95 257.992 2023.95 253.825 L2023.95 252.876 L2019.72 252.876 M2028.21 251.117 L2028.21 265.909 L2023.95 265.909 L2023.95 261.973 Q2022.49 264.335 2020.32 265.469 Q2018.14 266.58 2015 266.58 Q2011.01 266.58 2008.65 264.358 Q2006.31 262.112 2006.31 258.362 Q2006.31 253.987 2009.23 251.765 Q2012.17 249.543 2017.98 249.543 L2023.95 249.543 L2023.95 249.126 Q2023.95 246.187 2022.01 244.589 Q2020.09 242.969 2016.59 242.969 Q2014.37 242.969 2012.26 243.501 Q2010.16 244.034 2008.21 245.099 L2008.21 241.163 Q2010.55 240.261 2012.75 239.821 Q2014.95 239.358 2017.03 239.358 Q2022.66 239.358 2025.43 242.274 Q2028.21 245.191 2028.21 251.117 Z" fill="#000000" fill-rule="nonzero" fill-opacity="1"></path><path clip-path="url(#clip150)" d="M2036.99 239.983 L2041.24 239.983 L2041.24 265.909 L2036.99 265.909 L2036.99 239.983 M2036.99 229.89 L2041.24 229.89 L2041.24 235.284 L2036.99 235.284 L2036.99 229.89 Z" fill="#000000" fill-rule="nonzero" fill-opacity="1"></path><path clip-path="url(#clip150)" d="M2071.71 250.261 L2071.71 265.909 L2067.45 265.909 L2067.45 250.399 Q2067.45 246.719 2066.01 244.89 Q2064.58 243.062 2061.71 243.062 Q2058.26 243.062 2056.27 245.261 Q2054.28 247.46 2054.28 251.256 L2054.28 265.909 L2049.99 265.909 L2049.99 239.983 L2054.28 239.983 L2054.28 244.011 Q2055.81 241.673 2057.87 240.515 Q2059.95 239.358 2062.66 239.358 Q2067.12 239.358 2069.42 242.136 Q2071.71 244.89 2071.71 250.261 Z" fill="#000000" fill-rule="nonzero" fill-opacity="1"></path><path clip-path="url(#clip150)" d="M2111.8 240.747 L2111.8 244.774 Q2109.99 243.849 2108.05 243.386 Q2106.11 242.923 2104.02 242.923 Q2100.85 242.923 2099.25 243.895 Q2097.68 244.867 2097.68 246.811 Q2097.68 248.293 2098.81 249.149 Q2099.95 249.983 2103.37 250.747 L2104.83 251.071 Q2109.37 252.043 2111.27 253.825 Q2113.19 255.585 2113.19 258.756 Q2113.19 262.367 2110.32 264.473 Q2107.47 266.58 2102.47 266.58 Q2100.39 266.58 2098.12 266.163 Q2095.87 265.77 2093.37 264.96 L2093.37 260.561 Q2095.74 261.788 2098.03 262.413 Q2100.32 263.015 2102.56 263.015 Q2105.57 263.015 2107.19 261.997 Q2108.81 260.955 2108.81 259.08 Q2108.81 257.344 2107.63 256.418 Q2106.48 255.492 2102.52 254.636 L2101.04 254.288 Q2097.08 253.455 2095.32 251.742 Q2093.56 250.006 2093.56 246.997 Q2093.56 243.339 2096.15 241.349 Q2098.74 239.358 2103.51 239.358 Q2105.87 239.358 2107.96 239.705 Q2110.04 240.052 2111.8 240.747 Z" fill="#000000" fill-rule="nonzero" fill-opacity="1"></path><path clip-path="url(#clip150)" d="M2131.75 252.876 Q2126.59 252.876 2124.6 254.057 Q2122.61 255.237 2122.61 258.085 Q2122.61 260.353 2124.09 261.696 Q2125.6 263.015 2128.17 263.015 Q2131.71 263.015 2133.84 260.515 Q2135.99 257.992 2135.99 253.825 L2135.99 252.876 L2131.75 252.876 M2140.25 251.117 L2140.25 265.909 L2135.99 265.909 L2135.99 261.973 Q2134.53 264.335 2132.36 265.469 Q2130.18 266.58 2127.03 266.58 Q2123.05 266.58 2120.69 264.358 Q2118.35 262.112 2118.35 258.362 Q2118.35 253.987 2121.27 251.765 Q2124.21 249.543 2130.02 249.543 L2135.99 249.543 L2135.99 249.126 Q2135.99 246.187 2134.05 244.589 Q2132.12 242.969 2128.63 242.969 Q2126.41 242.969 2124.3 243.501 Q2122.19 244.034 2120.25 245.099 L2120.25 241.163 Q2122.59 240.261 2124.79 239.821 Q2126.99 239.358 2129.07 239.358 Q2134.69 239.358 2137.47 242.274 Q2140.25 245.191 2140.25 251.117 Z" fill="#000000" fill-rule="nonzero" fill-opacity="1"></path><path clip-path="url(#clip150)" d="M2169.21 244.96 Q2170.8 242.089 2173.03 240.724 Q2175.25 239.358 2178.26 239.358 Q2182.31 239.358 2184.51 242.205 Q2186.71 245.029 2186.71 250.261 L2186.71 265.909 L2182.42 265.909 L2182.42 250.399 Q2182.42 246.673 2181.11 244.867 Q2179.79 243.062 2177.08 243.062 Q2173.77 243.062 2171.85 245.261 Q2169.92 247.46 2169.92 251.256 L2169.92 265.909 L2165.64 265.909 L2165.64 250.399 Q2165.64 246.649 2164.32 244.867 Q2163 243.062 2160.25 243.062 Q2156.99 243.062 2155.06 245.284 Q2153.14 247.483 2153.14 251.256 L2153.14 265.909 L2148.86 265.909 L2148.86 239.983 L2153.14 239.983 L2153.14 244.011 Q2154.6 241.626 2156.64 240.492 Q2158.67 239.358 2161.48 239.358 Q2164.3 239.358 2166.27 240.793 Q2168.26 242.228 2169.21 244.96 Z" fill="#000000" fill-rule="nonzero" fill-opacity="1"></path><path clip-path="url(#clip150)" d="M2199.32 262.02 L2199.32 275.77 L2195.04 275.77 L2195.04 239.983 L2199.32 239.983 L2199.32 243.918 Q2200.67 241.603 2202.7 240.492 Q2204.76 239.358 2207.61 239.358 Q2212.33 239.358 2215.27 243.108 Q2218.23 246.858 2218.23 252.969 Q2218.23 259.08 2215.27 262.83 Q2212.33 266.58 2207.61 266.58 Q2204.76 266.58 2202.7 265.469 Q2200.67 264.335 2199.32 262.02 M2213.81 252.969 Q2213.81 248.27 2211.87 245.608 Q2209.95 242.923 2206.57 242.923 Q2203.19 242.923 2201.24 245.608 Q2199.32 248.27 2199.32 252.969 Q2199.32 257.668 2201.24 260.353 Q2203.19 263.015 2206.57 263.015 Q2209.95 263.015 2211.87 260.353 Q2213.81 257.668 2213.81 252.969 Z" fill="#000000" fill-rule="nonzero" fill-opacity="1"></path><path clip-path="url(#clip150)" d="M2225.29 229.89 L2229.55 229.89 L2229.55 265.909 L2225.29 265.909 L2225.29 229.89 Z" fill="#000000" fill-rule="nonzero" fill-opacity="1"></path><path clip-path="url(#clip150)" d="M2260.64 251.881 L2260.64 253.964 L2241.06 253.964 Q2241.34 258.362 2243.7 260.677 Q2246.08 262.969 2250.32 262.969 Q2252.77 262.969 2255.06 262.367 Q2257.38 261.765 2259.65 260.561 L2259.65 264.589 Q2257.35 265.561 2254.95 266.071 Q2252.54 266.58 2250.06 266.58 Q2243.86 266.58 2240.23 262.969 Q2236.61 259.358 2236.61 253.2 Q2236.61 246.835 2240.04 243.108 Q2243.49 239.358 2249.32 239.358 Q2254.55 239.358 2257.59 242.737 Q2260.64 246.094 2260.64 251.881 M2256.38 250.631 Q2256.34 247.136 2254.42 245.052 Q2252.52 242.969 2249.37 242.969 Q2245.8 242.969 2243.65 244.983 Q2241.52 246.997 2241.2 250.654 L2256.38 250.631 Z" fill="#000000" fill-rule="nonzero" fill-opacity="1"></path></svg>