<svg xmlns="http://www.w3.org/2000/svg" xmlns:xlink="http://www.w3.org/1999/xlink" width="600" height="400" viewBox="0 0 2400 1600">
<defs>
  <clipPath id="clip990">
    <rect x="0" y="0" width="2400" height="1600"></rect>
  </clipPath>
</defs>
<path clip-path="url(#clip990)" d="M0 1600 L2400 1600 L2400 0 L0 0  Z" fill="#ffffff" fill-rule="evenodd" fill-opacity="1"></path>
<defs>
  <clipPath id="clip991">
    <rect x="480" y="0" width="1681" height="1600"></rect>
  </clipPath>
</defs>
<path clip-path="url(#clip990)" d="M280.19 1423.18 L2352.76 1423.18 L2352.76 47.2441 L280.19 47.2441  Z" fill="#ffffff" fill-rule="evenodd" fill-opacity="1"></path>
<defs>
  <clipPath id="clip992">
    <rect x="280" y="47" width="2074" height="1377"></rect>
  </clipPath>
</defs>
<polyline clip-path="url(#clip992)" style="stroke:#000000; stroke-linecap:round; stroke-linejoin:round; stroke-width:2; stroke-opacity:0.1; fill:none" points="416.355,1423.18 416.355,47.2441 "></polyline>
<polyline clip-path="url(#clip992)" style="stroke:#000000; stroke-linecap:round; stroke-linejoin:round; stroke-width:2; stroke-opacity:0.1; fill:none" points="731.832,1423.18 731.832,47.2441 "></polyline>
<polyline clip-path="url(#clip992)" style="stroke:#000000; stroke-linecap:round; stroke-linejoin:round; stroke-width:2; stroke-opacity:0.1; fill:none" points="1047.31,1423.18 1047.31,47.2441 "></polyline>
<polyline clip-path="url(#clip992)" style="stroke:#000000; stroke-linecap:round; stroke-linejoin:round; stroke-width:2; stroke-opacity:0.1; fill:none" points="1362.78,1423.18 1362.78,47.2441 "></polyline>
<polyline clip-path="url(#clip992)" style="stroke:#000000; stroke-linecap:round; stroke-linejoin:round; stroke-width:2; stroke-opacity:0.1; fill:none" points="1678.26,1423.18 1678.26,47.2441 "></polyline>
<polyline clip-path="url(#clip992)" style="stroke:#000000; stroke-linecap:round; stroke-linejoin:round; stroke-width:2; stroke-opacity:0.1; fill:none" points="1993.74,1423.18 1993.74,47.2441 "></polyline>
<polyline clip-path="url(#clip992)" style="stroke:#000000; stroke-linecap:round; stroke-linejoin:round; stroke-width:2; stroke-opacity:0.1; fill:none" points="2309.21,1423.18 2309.21,47.2441 "></polyline>
<polyline clip-path="url(#clip990)" style="stroke:#000000; stroke-linecap:round; stroke-linejoin:round; stroke-width:4; stroke-opacity:1; fill:none" points="280.19,1423.18 2352.76,1423.18 "></polyline>
<polyline clip-path="url(#clip990)" style="stroke:#000000; stroke-linecap:round; stroke-linejoin:round; stroke-width:4; stroke-opacity:1; fill:none" points="416.355,1423.18 416.355,1404.28 "></polyline>
<polyline clip-path="url(#clip990)" style="stroke:#000000; stroke-linecap:round; stroke-linejoin:round; stroke-width:4; stroke-opacity:1; fill:none" points="731.832,1423.18 731.832,1404.28 "></polyline>
<polyline clip-path="url(#clip990)" style="stroke:#000000; stroke-linecap:round; stroke-linejoin:round; stroke-width:4; stroke-opacity:1; fill:none" points="1047.31,1423.18 1047.31,1404.28 "></polyline>
<polyline clip-path="url(#clip990)" style="stroke:#000000; stroke-linecap:round; stroke-linejoin:round; stroke-width:4; stroke-opacity:1; fill:none" points="1362.78,1423.18 1362.78,1404.28 "></polyline>
<polyline clip-path="url(#clip990)" style="stroke:#000000; stroke-linecap:round; stroke-linejoin:round; stroke-width:4; stroke-opacity:1; fill:none" points="1678.26,1423.18 1678.26,1404.28 "></polyline>
<polyline clip-path="url(#clip990)" style="stroke:#000000; stroke-linecap:round; stroke-linejoin:round; stroke-width:4; stroke-opacity:1; fill:none" points="1993.74,1423.18 1993.74,1404.28 "></polyline>
<polyline clip-path="url(#clip990)" style="stroke:#000000; stroke-linecap:round; stroke-linejoin:round; stroke-width:4; stroke-opacity:1; fill:none" points="2309.21,1423.18 2309.21,1404.28 "></polyline>
<path clip-path="url(#clip990)" d="M370.418 1468.75 L400.094 1468.75 L400.094 1472.69 L370.418 1472.69 L370.418 1468.75 Z" fill="#000000" fill-rule="nonzero" fill-opacity="1"></path><path clip-path="url(#clip990)" d="M410.233 1451.02 L428.589 1451.02 L428.589 1454.96 L414.515 1454.96 L414.515 1463.43 Q415.533 1463.08 416.552 1462.92 Q417.57 1462.73 418.589 1462.73 Q424.376 1462.73 427.756 1465.9 Q431.135 1469.08 431.135 1474.49 Q431.135 1480.07 427.663 1483.17 Q424.191 1486.25 417.871 1486.25 Q415.695 1486.25 413.427 1485.88 Q411.182 1485.51 408.774 1484.77 L408.774 1480.07 Q410.858 1481.2 413.08 1481.76 Q415.302 1482.32 417.779 1482.32 Q421.783 1482.32 424.121 1480.21 Q426.459 1478.1 426.459 1474.49 Q426.459 1470.88 424.121 1468.77 Q421.783 1466.67 417.779 1466.67 Q415.904 1466.67 414.029 1467.08 Q412.177 1467.5 410.233 1468.38 L410.233 1451.02 Z" fill="#000000" fill-rule="nonzero" fill-opacity="1"></path><path clip-path="url(#clip990)" d="M450.348 1454.1 Q446.737 1454.1 444.908 1457.66 Q443.103 1461.2 443.103 1468.33 Q443.103 1475.44 444.908 1479.01 Q446.737 1482.55 450.348 1482.55 Q453.982 1482.55 455.788 1479.01 Q457.617 1475.44 457.617 1468.33 Q457.617 1461.2 455.788 1457.66 Q453.982 1454.1 450.348 1454.1 M450.348 1450.39 Q456.158 1450.39 459.214 1455 Q462.292 1459.58 462.292 1468.33 Q462.292 1477.06 459.214 1481.67 Q456.158 1486.25 450.348 1486.25 Q444.538 1486.25 441.459 1481.67 Q438.404 1477.06 438.404 1468.33 Q438.404 1459.58 441.459 1455 Q444.538 1450.39 450.348 1450.39 Z" fill="#000000" fill-rule="nonzero" fill-opacity="1"></path><path clip-path="url(#clip990)" d="M731.832 1454.1 Q728.221 1454.1 726.392 1457.66 Q724.586 1461.2 724.586 1468.33 Q724.586 1475.44 726.392 1479.01 Q728.221 1482.55 731.832 1482.55 Q735.466 1482.55 737.272 1479.01 Q739.1 1475.44 739.1 1468.33 Q739.1 1461.2 737.272 1457.66 Q735.466 1454.1 731.832 1454.1 M731.832 1450.39 Q737.642 1450.39 740.697 1455 Q743.776 1459.58 743.776 1468.33 Q743.776 1477.06 740.697 1481.67 Q737.642 1486.25 731.832 1486.25 Q726.022 1486.25 722.943 1481.67 Q719.887 1477.06 719.887 1468.33 Q719.887 1459.58 722.943 1455 Q726.022 1450.39 731.832 1450.39 Z" fill="#000000" fill-rule="nonzero" fill-opacity="1"></path><path clip-path="url(#clip990)" d="M1022.01 1451.02 L1040.36 1451.02 L1040.36 1454.96 L1026.29 1454.96 L1026.29 1463.43 Q1027.31 1463.08 1028.33 1462.92 Q1029.35 1462.73 1030.36 1462.73 Q1036.15 1462.73 1039.53 1465.9 Q1042.91 1469.08 1042.91 1474.49 Q1042.91 1480.07 1039.44 1483.17 Q1035.97 1486.25 1029.65 1486.25 Q1027.47 1486.25 1025.2 1485.88 Q1022.96 1485.51 1020.55 1484.77 L1020.55 1480.07 Q1022.63 1481.2 1024.85 1481.76 Q1027.08 1482.32 1029.55 1482.32 Q1033.56 1482.32 1035.9 1480.21 Q1038.23 1478.1 1038.23 1474.49 Q1038.23 1470.88 1035.9 1468.77 Q1033.56 1466.67 1029.55 1466.67 Q1027.68 1466.67 1025.8 1467.08 Q1023.95 1467.5 1022.01 1468.38 L1022.01 1451.02 Z" fill="#000000" fill-rule="nonzero" fill-opacity="1"></path><path clip-path="url(#clip990)" d="M1062.12 1454.1 Q1058.51 1454.1 1056.68 1457.66 Q1054.88 1461.2 1054.88 1468.33 Q1054.88 1475.44 1056.68 1479.01 Q1058.51 1482.55 1062.12 1482.55 Q1065.76 1482.55 1067.56 1479.01 Q1069.39 1475.44 1069.39 1468.33 Q1069.39 1461.2 1067.56 1457.66 Q1065.76 1454.1 1062.12 1454.1 M1062.12 1450.39 Q1067.93 1450.39 1070.99 1455 Q1074.07 1459.58 1074.07 1468.33 Q1074.07 1477.06 1070.99 1481.67 Q1067.93 1486.25 1062.12 1486.25 Q1056.31 1486.25 1053.23 1481.67 Q1050.18 1477.06 1050.18 1468.33 Q1050.18 1459.58 1053.23 1455 Q1056.31 1450.39 1062.12 1450.39 Z" fill="#000000" fill-rule="nonzero" fill-opacity="1"></path><path clip-path="url(#clip990)" d="M1322.39 1481.64 L1330.03 1481.64 L1330.03 1455.28 L1321.72 1456.95 L1321.72 1452.69 L1329.98 1451.02 L1334.66 1451.02 L1334.66 1481.64 L1342.3 1481.64 L1342.3 1485.58 L1322.39 1485.58 L1322.39 1481.64 Z" fill="#000000" fill-rule="nonzero" fill-opacity="1"></path><path clip-path="url(#clip990)" d="M1361.74 1454.1 Q1358.13 1454.1 1356.3 1457.66 Q1354.5 1461.2 1354.5 1468.33 Q1354.5 1475.44 1356.3 1479.01 Q1358.13 1482.55 1361.74 1482.55 Q1365.38 1482.55 1367.18 1479.01 Q1369.01 1475.44 1369.01 1468.33 Q1369.01 1461.2 1367.18 1457.66 Q1365.38 1454.1 1361.74 1454.1 M1361.74 1450.39 Q1367.55 1450.39 1370.61 1455 Q1373.69 1459.58 1373.69 1468.33 Q1373.69 1477.06 1370.61 1481.67 Q1367.55 1486.25 1361.74 1486.25 Q1355.93 1486.25 1352.85 1481.67 Q1349.8 1477.06 1349.8 1468.33 Q1349.8 1459.58 1352.85 1455 Q1355.93 1450.39 1361.74 1450.39 Z" fill="#000000" fill-rule="nonzero" fill-opacity="1"></path><path clip-path="url(#clip990)" d="M1391.91 1454.1 Q1388.29 1454.1 1386.47 1457.66 Q1384.66 1461.2 1384.66 1468.33 Q1384.66 1475.44 1386.47 1479.01 Q1388.29 1482.55 1391.91 1482.55 Q1395.54 1482.55 1397.34 1479.01 Q1399.17 1475.44 1399.17 1468.33 Q1399.17 1461.2 1397.34 1457.66 Q1395.54 1454.1 1391.91 1454.1 M1391.91 1450.39 Q1397.72 1450.39 1400.77 1455 Q1403.85 1459.58 1403.85 1468.33 Q1403.85 1477.06 1400.77 1481.67 Q1397.72 1486.25 1391.91 1486.25 Q1386.09 1486.25 1383.02 1481.67 Q1379.96 1477.06 1379.96 1468.33 Q1379.96 1459.58 1383.02 1455 Q1386.09 1450.39 1391.91 1450.39 Z" fill="#000000" fill-rule="nonzero" fill-opacity="1"></path><path clip-path="url(#clip990)" d="M1637.87 1481.64 L1645.51 1481.64 L1645.51 1455.28 L1637.2 1456.95 L1637.2 1452.69 L1645.46 1451.02 L1650.14 1451.02 L1650.14 1481.64 L1657.78 1481.64 L1657.78 1485.58 L1637.87 1485.58 L1637.87 1481.64 Z" fill="#000000" fill-rule="nonzero" fill-opacity="1"></path><path clip-path="url(#clip990)" d="M1667.27 1451.02 L1685.62 1451.02 L1685.62 1454.96 L1671.55 1454.96 L1671.55 1463.43 Q1672.57 1463.08 1673.59 1462.92 Q1674.6 1462.73 1675.62 1462.73 Q1681.41 1462.73 1684.79 1465.9 Q1688.17 1469.08 1688.17 1474.49 Q1688.17 1480.07 1684.7 1483.17 Q1681.22 1486.25 1674.91 1486.25 Q1672.73 1486.25 1670.46 1485.88 Q1668.22 1485.51 1665.81 1484.77 L1665.81 1480.07 Q1667.89 1481.2 1670.11 1481.76 Q1672.34 1482.32 1674.81 1482.32 Q1678.82 1482.32 1681.15 1480.21 Q1683.49 1478.1 1683.49 1474.49 Q1683.49 1470.88 1681.15 1468.77 Q1678.82 1466.67 1674.81 1466.67 Q1672.94 1466.67 1671.06 1467.08 Q1669.21 1467.5 1667.27 1468.38 L1667.27 1451.02 Z" fill="#000000" fill-rule="nonzero" fill-opacity="1"></path><path clip-path="url(#clip990)" d="M1707.38 1454.1 Q1703.77 1454.1 1701.94 1457.66 Q1700.14 1461.2 1700.14 1468.33 Q1700.14 1475.44 1701.94 1479.01 Q1703.77 1482.55 1707.38 1482.55 Q1711.02 1482.55 1712.82 1479.01 Q1714.65 1475.44 1714.65 1468.33 Q1714.65 1461.2 1712.82 1457.66 Q1711.02 1454.1 1707.38 1454.1 M1707.38 1450.39 Q1713.19 1450.39 1716.25 1455 Q1719.33 1459.58 1719.33 1468.33 Q1719.33 1477.06 1716.25 1481.67 Q1713.19 1486.25 1707.38 1486.25 Q1701.57 1486.25 1698.49 1481.67 Q1695.44 1477.06 1695.44 1468.33 Q1695.44 1459.58 1698.49 1455 Q1701.57 1450.39 1707.38 1450.39 Z" fill="#000000" fill-rule="nonzero" fill-opacity="1"></path><path clip-path="url(#clip990)" d="M1957.43 1481.64 L1973.75 1481.64 L1973.75 1485.58 L1951.81 1485.58 L1951.81 1481.64 Q1954.47 1478.89 1959.05 1474.26 Q1963.66 1469.61 1964.84 1468.27 Q1967.08 1465.74 1967.96 1464.01 Q1968.87 1462.25 1968.87 1460.56 Q1968.87 1457.8 1966.92 1456.07 Q1965 1454.33 1961.9 1454.33 Q1959.7 1454.33 1957.25 1455.09 Q1954.81 1455.86 1952.04 1457.41 L1952.04 1452.69 Q1954.86 1451.55 1957.31 1450.97 Q1959.77 1450.39 1961.81 1450.39 Q1967.18 1450.39 1970.37 1453.08 Q1973.56 1455.77 1973.56 1460.26 Q1973.56 1462.39 1972.75 1464.31 Q1971.97 1466.2 1969.86 1468.8 Q1969.28 1469.47 1966.18 1472.69 Q1963.08 1475.88 1957.43 1481.64 Z" fill="#000000" fill-rule="nonzero" fill-opacity="1"></path><path clip-path="url(#clip990)" d="M1993.56 1454.1 Q1989.95 1454.1 1988.12 1457.66 Q1986.32 1461.2 1986.32 1468.33 Q1986.32 1475.44 1988.12 1479.01 Q1989.95 1482.55 1993.56 1482.55 Q1997.2 1482.55 1999 1479.01 Q2000.83 1475.44 2000.83 1468.33 Q2000.83 1461.2 1999 1457.66 Q1997.2 1454.1 1993.56 1454.1 M1993.56 1450.39 Q1999.37 1450.39 2002.43 1455 Q2005.51 1459.58 2005.51 1468.33 Q2005.51 1477.06 2002.43 1481.67 Q1999.37 1486.25 1993.56 1486.25 Q1987.75 1486.25 1984.68 1481.67 Q1981.62 1477.06 1981.62 1468.33 Q1981.62 1459.58 1984.68 1455 Q1987.75 1450.39 1993.56 1450.39 Z" fill="#000000" fill-rule="nonzero" fill-opacity="1"></path><path clip-path="url(#clip990)" d="M2023.73 1454.1 Q2020.12 1454.1 2018.29 1457.66 Q2016.48 1461.2 2016.48 1468.33 Q2016.48 1475.44 2018.29 1479.01 Q2020.12 1482.55 2023.73 1482.55 Q2027.36 1482.55 2029.17 1479.01 Q2030.99 1475.44 2030.99 1468.33 Q2030.99 1461.2 2029.17 1457.66 Q2027.36 1454.1 2023.73 1454.1 M2023.73 1450.39 Q2029.54 1450.39 2032.59 1455 Q2035.67 1459.58 2035.67 1468.33 Q2035.67 1477.06 2032.59 1481.67 Q2029.54 1486.25 2023.73 1486.25 Q2017.92 1486.25 2014.84 1481.67 Q2011.78 1477.06 2011.78 1468.33 Q2011.78 1459.58 2014.84 1455 Q2017.92 1450.39 2023.73 1450.39 Z" fill="#000000" fill-rule="nonzero" fill-opacity="1"></path><path clip-path="url(#clip990)" d="M2272.91 1481.64 L2289.23 1481.64 L2289.23 1485.58 L2267.28 1485.58 L2267.28 1481.64 Q2269.94 1478.89 2274.53 1474.26 Q2279.13 1469.61 2280.31 1468.27 Q2282.56 1465.74 2283.44 1464.01 Q2284.34 1462.25 2284.34 1460.56 Q2284.34 1457.8 2282.4 1456.07 Q2280.48 1454.33 2277.37 1454.33 Q2275.18 1454.33 2272.72 1455.09 Q2270.29 1455.86 2267.51 1457.41 L2267.51 1452.69 Q2270.34 1451.55 2272.79 1450.97 Q2275.24 1450.39 2277.28 1450.39 Q2282.65 1450.39 2285.85 1453.08 Q2289.04 1455.77 2289.04 1460.26 Q2289.04 1462.39 2288.23 1464.31 Q2287.44 1466.2 2285.34 1468.8 Q2284.76 1469.47 2281.66 1472.69 Q2278.56 1475.88 2272.91 1481.64 Z" fill="#000000" fill-rule="nonzero" fill-opacity="1"></path><path clip-path="url(#clip990)" d="M2299.09 1451.02 L2317.44 1451.02 L2317.44 1454.96 L2303.37 1454.96 L2303.37 1463.43 Q2304.39 1463.08 2305.41 1462.92 Q2306.43 1462.73 2307.44 1462.73 Q2313.23 1462.73 2316.61 1465.9 Q2319.99 1469.08 2319.99 1474.49 Q2319.99 1480.07 2316.52 1483.17 Q2313.05 1486.25 2306.73 1486.25 Q2304.55 1486.25 2302.28 1485.88 Q2300.04 1485.51 2297.63 1484.77 L2297.63 1480.07 Q2299.71 1481.2 2301.93 1481.76 Q2304.16 1482.32 2306.63 1482.32 Q2310.64 1482.32 2312.98 1480.21 Q2315.31 1478.1 2315.31 1474.49 Q2315.31 1470.88 2312.98 1468.77 Q2310.64 1466.67 2306.63 1466.67 Q2304.76 1466.67 2302.88 1467.08 Q2301.03 1467.5 2299.09 1468.38 L2299.09 1451.02 Z" fill="#000000" fill-rule="nonzero" fill-opacity="1"></path><path clip-path="url(#clip990)" d="M2339.2 1454.1 Q2335.59 1454.1 2333.76 1457.66 Q2331.96 1461.2 2331.96 1468.33 Q2331.96 1475.44 2333.76 1479.01 Q2335.59 1482.55 2339.2 1482.55 Q2342.84 1482.55 2344.64 1479.01 Q2346.47 1475.44 2346.47 1468.33 Q2346.47 1461.2 2344.64 1457.66 Q2342.84 1454.1 2339.2 1454.1 M2339.2 1450.39 Q2345.01 1450.39 2348.07 1455 Q2351.15 1459.58 2351.15 1468.33 Q2351.15 1477.06 2348.07 1481.67 Q2345.01 1486.25 2339.2 1486.25 Q2333.39 1486.25 2330.31 1481.67 Q2327.26 1477.06 2327.26 1468.33 Q2327.26 1459.58 2330.31 1455 Q2333.39 1450.39 2339.2 1450.39 Z" fill="#000000" fill-rule="nonzero" fill-opacity="1"></path><path clip-path="url(#clip990)" d="M975.78 1550.12 Q968.683 1550.12 965.945 1551.75 Q963.208 1553.37 963.208 1557.29 Q963.208 1560.4 965.245 1562.25 Q967.314 1564.07 970.847 1564.07 Q975.717 1564.07 978.645 1560.63 Q981.605 1557.16 981.605 1551.43 L981.605 1550.12 L975.78 1550.12 M987.461 1547.71 L987.461 1568.04 L981.605 1568.04 L981.605 1562.63 Q979.6 1565.88 976.608 1567.44 Q973.616 1568.97 969.287 1568.97 Q963.813 1568.97 960.566 1565.91 Q957.352 1562.82 957.352 1557.67 Q957.352 1551.65 961.362 1548.6 Q965.404 1545.54 973.393 1545.54 L981.605 1545.54 L981.605 1544.97 Q981.605 1540.93 978.931 1538.73 Q976.29 1536.5 971.483 1536.5 Q968.428 1536.5 965.532 1537.23 Q962.635 1537.97 959.962 1539.43 L959.962 1534.02 Q963.176 1532.78 966.2 1532.17 Q969.224 1531.54 972.088 1531.54 Q979.823 1531.54 983.642 1535.55 Q987.461 1539.56 987.461 1547.71 Z" fill="#000000" fill-rule="nonzero" fill-opacity="1"></path><path clip-path="url(#clip990)" d="M1022.98 1549.81 Q1022.98 1543.44 1020.34 1539.94 Q1017.73 1536.44 1012.99 1536.44 Q1008.28 1536.44 1005.64 1539.94 Q1003.03 1543.44 1003.03 1549.81 Q1003.03 1556.14 1005.64 1559.64 Q1008.28 1563.14 1012.99 1563.14 Q1017.73 1563.14 1020.34 1559.64 Q1022.98 1556.14 1022.98 1549.81 M1028.84 1563.62 Q1028.84 1572.72 1024.8 1577.15 Q1020.75 1581.6 1012.41 1581.6 Q1009.33 1581.6 1006.59 1581.13 Q1003.85 1580.68 1001.27 1579.72 L1001.27 1574.03 Q1003.85 1575.43 1006.37 1576.1 Q1008.88 1576.76 1011.49 1576.76 Q1017.25 1576.76 1020.12 1573.74 Q1022.98 1570.75 1022.98 1564.67 L1022.98 1561.77 Q1021.17 1564.92 1018.34 1566.48 Q1015.5 1568.04 1011.56 1568.04 Q1005 1568.04 1000.99 1563.05 Q996.978 1558.05 996.978 1549.81 Q996.978 1541.53 1000.99 1536.53 Q1005 1531.54 1011.56 1531.54 Q1015.5 1531.54 1018.34 1533.1 Q1021.17 1534.66 1022.98 1537.81 L1022.98 1532.4 L1028.84 1532.4 L1028.84 1563.62 Z" fill="#000000" fill-rule="nonzero" fill-opacity="1"></path><path clip-path="url(#clip990)" d="M1071.39 1548.76 L1071.39 1551.62 L1044.47 1551.62 Q1044.85 1557.67 1048.09 1560.85 Q1051.37 1564 1057.2 1564 Q1060.57 1564 1063.72 1563.17 Q1066.91 1562.35 1070.02 1560.69 L1070.02 1566.23 Q1066.87 1567.57 1063.56 1568.27 Q1060.25 1568.97 1056.85 1568.97 Q1048.32 1568.97 1043.32 1564 Q1038.36 1559.04 1038.36 1550.57 Q1038.36 1541.82 1043.07 1536.69 Q1047.81 1531.54 1055.83 1531.54 Q1063.02 1531.54 1067.19 1536.18 Q1071.39 1540.8 1071.39 1548.76 M1065.54 1547.04 Q1065.47 1542.23 1062.83 1539.37 Q1060.22 1536.5 1055.89 1536.5 Q1050.99 1536.5 1048.03 1539.27 Q1045.1 1542.04 1044.66 1547.07 L1065.54 1547.04 Z" fill="#000000" fill-rule="nonzero" fill-opacity="1"></path><path clip-path="url(#clip990)" d="M1115.79 1518.58 Q1111.53 1525.9 1109.46 1533.06 Q1107.39 1540.23 1107.39 1547.58 Q1107.39 1554.93 1109.46 1562.16 Q1111.56 1569.35 1115.79 1576.64 L1110.7 1576.64 Q1105.93 1569.16 1103.54 1561.93 Q1101.18 1554.71 1101.18 1547.58 Q1101.18 1540.48 1103.54 1533.29 Q1105.9 1526.09 1110.7 1518.58 L1115.79 1518.58 Z" fill="#000000" fill-rule="nonzero" fill-opacity="1"></path><path clip-path="url(#clip990)" d="M1154.91 1539.24 Q1157.11 1535.29 1160.16 1533.41 Q1163.22 1531.54 1167.36 1531.54 Q1172.93 1531.54 1175.95 1535.45 Q1178.97 1539.33 1178.97 1546.53 L1178.97 1568.04 L1173.09 1568.04 L1173.09 1546.72 Q1173.09 1541.59 1171.27 1539.11 Q1169.46 1536.63 1165.73 1536.63 Q1161.18 1536.63 1158.54 1539.65 Q1155.9 1542.68 1155.9 1547.9 L1155.9 1568.04 L1150.01 1568.04 L1150.01 1546.72 Q1150.01 1541.56 1148.2 1539.11 Q1146.38 1536.63 1142.59 1536.63 Q1138.11 1536.63 1135.46 1539.68 Q1132.82 1542.71 1132.82 1547.9 L1132.82 1568.04 L1126.93 1568.04 L1126.93 1532.4 L1132.82 1532.4 L1132.82 1537.93 Q1134.83 1534.66 1137.63 1533.1 Q1140.43 1531.54 1144.28 1531.54 Q1148.16 1531.54 1150.87 1533.51 Q1153.61 1535.48 1154.91 1539.24 Z" fill="#000000" fill-rule="nonzero" fill-opacity="1"></path><path clip-path="url(#clip990)" d="M1190.65 1532.4 L1196.51 1532.4 L1196.51 1568.04 L1190.65 1568.04 L1190.65 1532.4 M1190.65 1518.52 L1196.51 1518.52 L1196.51 1525.93 L1190.65 1525.93 L1190.65 1518.52 Z" fill="#000000" fill-rule="nonzero" fill-opacity="1"></path><path clip-path="url(#clip990)" d="M1208.77 1518.52 L1214.62 1518.52 L1214.62 1568.04 L1208.77 1568.04 L1208.77 1518.52 Z" fill="#000000" fill-rule="nonzero" fill-opacity="1"></path><path clip-path="url(#clip990)" d="M1226.88 1518.52 L1232.73 1518.52 L1232.73 1568.04 L1226.88 1568.04 L1226.88 1518.52 Z" fill="#000000" fill-rule="nonzero" fill-opacity="1"></path><path clip-path="url(#clip990)" d="M1244.99 1532.4 L1250.84 1532.4 L1250.84 1568.04 L1244.99 1568.04 L1244.99 1532.4 M1244.99 1518.52 L1250.84 1518.52 L1250.84 1525.93 L1244.99 1525.93 L1244.99 1518.52 Z" fill="#000000" fill-rule="nonzero" fill-opacity="1"></path><path clip-path="url(#clip990)" d="M1276.91 1536.5 Q1272.2 1536.5 1269.46 1540.19 Q1266.72 1543.85 1266.72 1550.25 Q1266.72 1556.65 1269.43 1560.34 Q1272.17 1564 1276.91 1564 Q1281.59 1564 1284.33 1560.31 Q1287.06 1556.62 1287.06 1550.25 Q1287.06 1543.92 1284.33 1540.23 Q1281.59 1536.5 1276.91 1536.5 M1276.91 1531.54 Q1284.55 1531.54 1288.91 1536.5 Q1293.27 1541.47 1293.27 1550.25 Q1293.27 1559 1288.91 1564 Q1284.55 1568.97 1276.91 1568.97 Q1269.24 1568.97 1264.88 1564 Q1260.55 1559 1260.55 1550.25 Q1260.55 1541.47 1264.88 1536.5 Q1269.24 1531.54 1276.91 1531.54 Z" fill="#000000" fill-rule="nonzero" fill-opacity="1"></path><path clip-path="url(#clip990)" d="M1332.61 1546.53 L1332.61 1568.04 L1326.75 1568.04 L1326.75 1546.72 Q1326.75 1541.66 1324.78 1539.14 Q1322.81 1536.63 1318.86 1536.63 Q1314.12 1536.63 1311.38 1539.65 Q1308.64 1542.68 1308.64 1547.9 L1308.64 1568.04 L1302.75 1568.04 L1302.75 1532.4 L1308.64 1532.4 L1308.64 1537.93 Q1310.74 1534.72 1313.58 1533.13 Q1316.44 1531.54 1320.17 1531.54 Q1326.31 1531.54 1329.46 1535.36 Q1332.61 1539.14 1332.61 1546.53 Z" fill="#000000" fill-rule="nonzero" fill-opacity="1"></path><path clip-path="url(#clip990)" d="M1367.02 1533.45 L1367.02 1538.98 Q1364.53 1537.71 1361.86 1537.07 Q1359.19 1536.44 1356.32 1536.44 Q1351.96 1536.44 1349.77 1537.77 Q1347.6 1539.11 1347.6 1541.79 Q1347.6 1543.82 1349.16 1545 Q1350.72 1546.15 1355.43 1547.2 L1357.44 1547.64 Q1363.67 1548.98 1366.28 1551.43 Q1368.93 1553.85 1368.93 1558.21 Q1368.93 1563.17 1364.98 1566.07 Q1361.06 1568.97 1354.19 1568.97 Q1351.33 1568.97 1348.21 1568.39 Q1345.12 1567.85 1341.68 1566.74 L1341.68 1560.69 Q1344.93 1562.38 1348.08 1563.24 Q1351.23 1564.07 1354.32 1564.07 Q1358.45 1564.07 1360.68 1562.66 Q1362.91 1561.23 1362.91 1558.65 Q1362.91 1556.27 1361.29 1554.99 Q1359.7 1553.72 1354.25 1552.54 L1352.22 1552.07 Q1346.77 1550.92 1344.35 1548.56 Q1341.94 1546.18 1341.94 1542.04 Q1341.94 1537.01 1345.5 1534.27 Q1349.07 1531.54 1355.62 1531.54 Q1358.87 1531.54 1361.73 1532.01 Q1364.6 1532.49 1367.02 1533.45 Z" fill="#000000" fill-rule="nonzero" fill-opacity="1"></path><path clip-path="url(#clip990)" d="M1412.79 1536.5 Q1408.08 1536.5 1405.34 1540.19 Q1402.6 1543.85 1402.6 1550.25 Q1402.6 1556.65 1405.31 1560.34 Q1408.04 1564 1412.79 1564 Q1417.46 1564 1420.2 1560.31 Q1422.94 1556.62 1422.94 1550.25 Q1422.94 1543.92 1420.2 1540.23 Q1417.46 1536.5 1412.79 1536.5 M1412.79 1531.54 Q1420.42 1531.54 1424.79 1536.5 Q1429.15 1541.47 1429.15 1550.25 Q1429.15 1559 1424.79 1564 Q1420.42 1568.97 1412.79 1568.97 Q1405.12 1568.97 1400.75 1564 Q1396.43 1559 1396.43 1550.25 Q1396.43 1541.47 1400.75 1536.5 Q1405.12 1531.54 1412.79 1531.54 Z" fill="#000000" fill-rule="nonzero" fill-opacity="1"></path><path clip-path="url(#clip990)" d="M1456.9 1518.52 L1456.9 1523.39 L1451.3 1523.39 Q1448.15 1523.39 1446.91 1524.66 Q1445.7 1525.93 1445.7 1529.24 L1445.7 1532.4 L1455.34 1532.4 L1455.34 1536.95 L1445.7 1536.95 L1445.7 1568.04 L1439.81 1568.04 L1439.81 1536.95 L1434.21 1536.95 L1434.21 1532.4 L1439.81 1532.4 L1439.81 1529.91 Q1439.81 1523.96 1442.58 1521.26 Q1445.35 1518.52 1451.36 1518.52 L1456.9 1518.52 Z" fill="#000000" fill-rule="nonzero" fill-opacity="1"></path><path clip-path="url(#clip990)" d="M1497.35 1571.35 Q1494.87 1577.72 1492.52 1579.66 Q1490.16 1581.6 1486.21 1581.6 L1481.54 1581.6 L1481.54 1576.7 L1484.97 1576.7 Q1487.39 1576.7 1488.73 1575.56 Q1490.07 1574.41 1491.69 1570.14 L1492.74 1567.47 L1478.32 1532.4 L1484.53 1532.4 L1495.67 1560.28 L1506.81 1532.4 L1513.01 1532.4 L1497.35 1571.35 Z" fill="#000000" fill-rule="nonzero" fill-opacity="1"></path><path clip-path="url(#clip990)" d="M1551.59 1548.76 L1551.59 1551.62 L1524.66 1551.62 Q1525.05 1557.67 1528.29 1560.85 Q1531.57 1564 1537.39 1564 Q1540.77 1564 1543.92 1563.17 Q1547.1 1562.35 1550.22 1560.69 L1550.22 1566.23 Q1547.07 1567.57 1543.76 1568.27 Q1540.45 1568.97 1537.04 1568.97 Q1528.51 1568.97 1523.52 1564 Q1518.55 1559.04 1518.55 1550.57 Q1518.55 1541.82 1523.26 1536.69 Q1528.01 1531.54 1536.03 1531.54 Q1543.22 1531.54 1547.39 1536.18 Q1551.59 1540.8 1551.59 1548.76 M1545.73 1547.04 Q1545.67 1542.23 1543.03 1539.37 Q1540.42 1536.5 1536.09 1536.5 Q1531.19 1536.5 1528.23 1539.27 Q1525.3 1542.04 1524.85 1547.07 L1545.73 1547.04 Z" fill="#000000" fill-rule="nonzero" fill-opacity="1"></path><path clip-path="url(#clip990)" d="M1577.4 1550.12 Q1570.31 1550.12 1567.57 1551.75 Q1564.83 1553.37 1564.83 1557.29 Q1564.83 1560.4 1566.87 1562.25 Q1568.94 1564.07 1572.47 1564.07 Q1577.34 1564.07 1580.27 1560.63 Q1583.23 1557.16 1583.23 1551.43 L1583.23 1550.12 L1577.4 1550.12 M1589.08 1547.71 L1589.08 1568.04 L1583.23 1568.04 L1583.23 1562.63 Q1581.22 1565.88 1578.23 1567.44 Q1575.24 1568.97 1570.91 1568.97 Q1565.44 1568.97 1562.19 1565.91 Q1558.97 1562.82 1558.97 1557.67 Q1558.97 1551.65 1562.98 1548.6 Q1567.03 1545.54 1575.02 1545.54 L1583.23 1545.54 L1583.23 1544.97 Q1583.23 1540.93 1580.55 1538.73 Q1577.91 1536.5 1573.11 1536.5 Q1570.05 1536.5 1567.15 1537.23 Q1564.26 1537.97 1561.58 1539.43 L1561.58 1534.02 Q1564.8 1532.78 1567.82 1532.17 Q1570.85 1531.54 1573.71 1531.54 Q1581.45 1531.54 1585.26 1535.55 Q1589.08 1539.56 1589.08 1547.71 Z" fill="#000000" fill-rule="nonzero" fill-opacity="1"></path><path clip-path="url(#clip990)" d="M1621.8 1537.87 Q1620.82 1537.3 1619.64 1537.04 Q1618.49 1536.76 1617.09 1536.76 Q1612.13 1536.76 1609.45 1540 Q1606.81 1543.22 1606.81 1549.27 L1606.81 1568.04 L1600.92 1568.04 L1600.92 1532.4 L1606.81 1532.4 L1606.81 1537.93 Q1608.66 1534.69 1611.62 1533.13 Q1614.58 1531.54 1618.81 1531.54 Q1619.42 1531.54 1620.15 1531.63 Q1620.88 1531.7 1621.77 1531.85 L1621.8 1537.87 Z" fill="#000000" fill-rule="nonzero" fill-opacity="1"></path><path clip-path="url(#clip990)" d="M1650.67 1533.45 L1650.67 1538.98 Q1648.19 1537.71 1645.52 1537.07 Q1642.84 1536.44 1639.98 1536.44 Q1635.62 1536.44 1633.42 1537.77 Q1631.26 1539.11 1631.26 1541.79 Q1631.26 1543.82 1632.82 1545 Q1634.38 1546.15 1639.09 1547.2 L1641.09 1547.64 Q1647.33 1548.98 1649.94 1551.43 Q1652.58 1553.85 1652.58 1558.21 Q1652.58 1563.17 1648.64 1566.07 Q1644.72 1568.97 1637.85 1568.97 Q1634.98 1568.97 1631.86 1568.39 Q1628.77 1567.85 1625.34 1566.74 L1625.34 1560.69 Q1628.58 1562.38 1631.73 1563.24 Q1634.89 1564.07 1637.97 1564.07 Q1642.11 1564.07 1644.34 1562.66 Q1646.57 1561.23 1646.57 1558.65 Q1646.57 1556.27 1644.94 1554.99 Q1643.35 1553.72 1637.91 1552.54 L1635.87 1552.07 Q1630.43 1550.92 1628.01 1548.56 Q1625.59 1546.18 1625.59 1542.04 Q1625.59 1537.01 1629.16 1534.27 Q1632.72 1531.54 1639.28 1531.54 Q1642.52 1531.54 1645.39 1532.01 Q1648.25 1532.49 1650.67 1533.45 Z" fill="#000000" fill-rule="nonzero" fill-opacity="1"></path><path clip-path="url(#clip990)" d="M1660.99 1518.58 L1666.08 1518.58 Q1670.85 1526.09 1673.21 1533.29 Q1675.59 1540.48 1675.59 1547.58 Q1675.59 1554.71 1673.21 1561.93 Q1670.85 1569.16 1666.08 1576.64 L1660.99 1576.64 Q1665.22 1569.35 1667.29 1562.16 Q1669.39 1554.93 1669.39 1547.58 Q1669.39 1540.23 1667.29 1533.06 Q1665.22 1525.9 1660.99 1518.58 Z" fill="#000000" fill-rule="nonzero" fill-opacity="1"></path><polyline clip-path="url(#clip992)" style="stroke:#000000; stroke-linecap:round; stroke-linejoin:round; stroke-width:2; stroke-opacity:0.1; fill:none" points="280.19,1384.24 2352.76,1384.24 "></polyline>
<polyline clip-path="url(#clip992)" style="stroke:#000000; stroke-linecap:round; stroke-linejoin:round; stroke-width:2; stroke-opacity:0.1; fill:none" points="280.19,1179.92 2352.76,1179.92 "></polyline>
<polyline clip-path="url(#clip992)" style="stroke:#000000; stroke-linecap:round; stroke-linejoin:round; stroke-width:2; stroke-opacity:0.1; fill:none" points="280.19,975.611 2352.76,975.611 "></polyline>
<polyline clip-path="url(#clip992)" style="stroke:#000000; stroke-linecap:round; stroke-linejoin:round; stroke-width:2; stroke-opacity:0.1; fill:none" points="280.19,771.298 2352.76,771.298 "></polyline>
<polyline clip-path="url(#clip992)" style="stroke:#000000; stroke-linecap:round; stroke-linejoin:round; stroke-width:2; stroke-opacity:0.1; fill:none" points="280.19,566.984 2352.76,566.984 "></polyline>
<polyline clip-path="url(#clip992)" style="stroke:#000000; stroke-linecap:round; stroke-linejoin:round; stroke-width:2; stroke-opacity:0.1; fill:none" points="280.19,362.671 2352.76,362.671 "></polyline>
<polyline clip-path="url(#clip992)" style="stroke:#000000; stroke-linecap:round; stroke-linejoin:round; stroke-width:2; stroke-opacity:0.1; fill:none" points="280.19,158.358 2352.76,158.358 "></polyline>
<polyline clip-path="url(#clip990)" style="stroke:#000000; stroke-linecap:round; stroke-linejoin:round; stroke-width:4; stroke-opacity:1; fill:none" points="280.19,1423.18 280.19,47.2441 "></polyline>
<polyline clip-path="url(#clip990)" style="stroke:#000000; stroke-linecap:round; stroke-linejoin:round; stroke-width:4; stroke-opacity:1; fill:none" points="280.19,1384.24 299.088,1384.24 "></polyline>
<polyline clip-path="url(#clip990)" style="stroke:#000000; stroke-linecap:round; stroke-linejoin:round; stroke-width:4; stroke-opacity:1; fill:none" points="280.19,1179.92 299.088,1179.92 "></polyline>
<polyline clip-path="url(#clip990)" style="stroke:#000000; stroke-linecap:round; stroke-linejoin:round; stroke-width:4; stroke-opacity:1; fill:none" points="280.19,975.611 299.088,975.611 "></polyline>
<polyline clip-path="url(#clip990)" style="stroke:#000000; stroke-linecap:round; stroke-linejoin:round; stroke-width:4; stroke-opacity:1; fill:none" points="280.19,771.298 299.088,771.298 "></polyline>
<polyline clip-path="url(#clip990)" style="stroke:#000000; stroke-linecap:round; stroke-linejoin:round; stroke-width:4; stroke-opacity:1; fill:none" points="280.19,566.984 299.088,566.984 "></polyline>
<polyline clip-path="url(#clip990)" style="stroke:#000000; stroke-linecap:round; stroke-linejoin:round; stroke-width:4; stroke-opacity:1; fill:none" points="280.19,362.671 299.088,362.671 "></polyline>
<polyline clip-path="url(#clip990)" style="stroke:#000000; stroke-linecap:round; stroke-linejoin:round; stroke-width:4; stroke-opacity:1; fill:none" points="280.19,158.358 299.088,158.358 "></polyline>
<path clip-path="url(#clip990)" d="M126.691 1370.04 Q123.08 1370.04 121.251 1373.6 Q119.445 1377.14 119.445 1384.27 Q119.445 1391.38 121.251 1394.94 Q123.08 1398.49 126.691 1398.49 Q130.325 1398.49 132.13 1394.94 Q133.959 1391.38 133.959 1384.27 Q133.959 1377.14 132.13 1373.6 Q130.325 1370.04 126.691 1370.04 M126.691 1366.33 Q132.501 1366.33 135.556 1370.94 Q138.635 1375.52 138.635 1384.27 Q138.635 1393 135.556 1397.61 Q132.501 1402.19 126.691 1402.19 Q120.88 1402.19 117.802 1397.61 Q114.746 1393 114.746 1384.27 Q114.746 1375.52 117.802 1370.94 Q120.88 1366.33 126.691 1366.33 Z" fill="#000000" fill-rule="nonzero" fill-opacity="1"></path><path clip-path="url(#clip990)" d="M146.853 1395.64 L151.737 1395.64 L151.737 1401.52 L146.853 1401.52 L146.853 1395.64 Z" fill="#000000" fill-rule="nonzero" fill-opacity="1"></path><path clip-path="url(#clip990)" d="M171.922 1370.04 Q168.311 1370.04 166.482 1373.6 Q164.677 1377.14 164.677 1384.27 Q164.677 1391.38 166.482 1394.94 Q168.311 1398.49 171.922 1398.49 Q175.556 1398.49 177.362 1394.94 Q179.19 1391.38 179.19 1384.27 Q179.19 1377.14 177.362 1373.6 Q175.556 1370.04 171.922 1370.04 M171.922 1366.33 Q177.732 1366.33 180.788 1370.94 Q183.866 1375.52 183.866 1384.27 Q183.866 1393 180.788 1397.61 Q177.732 1402.19 171.922 1402.19 Q166.112 1402.19 163.033 1397.61 Q159.978 1393 159.978 1384.27 Q159.978 1375.52 163.033 1370.94 Q166.112 1366.33 171.922 1366.33 Z" fill="#000000" fill-rule="nonzero" fill-opacity="1"></path><path clip-path="url(#clip990)" d="M202.084 1370.04 Q198.473 1370.04 196.644 1373.6 Q194.838 1377.14 194.838 1384.27 Q194.838 1391.38 196.644 1394.94 Q198.473 1398.49 202.084 1398.49 Q205.718 1398.49 207.524 1394.94 Q209.352 1391.38 209.352 1384.27 Q209.352 1377.14 207.524 1373.6 Q205.718 1370.04 202.084 1370.04 M202.084 1366.33 Q207.894 1366.33 210.949 1370.94 Q214.028 1375.52 214.028 1384.27 Q214.028 1393 210.949 1397.61 Q207.894 1402.19 202.084 1402.19 Q196.274 1402.19 193.195 1397.61 Q190.139 1393 190.139 1384.27 Q190.139 1375.52 193.195 1370.94 Q196.274 1366.33 202.084 1366.33 Z" fill="#000000" fill-rule="nonzero" fill-opacity="1"></path><path clip-path="url(#clip990)" d="M232.246 1370.04 Q228.635 1370.04 226.806 1373.6 Q225 1377.14 225 1384.27 Q225 1391.38 226.806 1394.94 Q228.635 1398.49 232.246 1398.49 Q235.88 1398.49 237.685 1394.94 Q239.514 1391.38 239.514 1384.27 Q239.514 1377.14 237.685 1373.6 Q235.88 1370.04 232.246 1370.04 M232.246 1366.33 Q238.056 1366.33 241.111 1370.94 Q244.19 1375.52 244.19 1384.27 Q244.19 1393 241.111 1397.61 Q238.056 1402.19 232.246 1402.19 Q226.435 1402.19 223.357 1397.61 Q220.301 1393 220.301 1384.27 Q220.301 1375.52 223.357 1370.94 Q226.435 1366.33 232.246 1366.33 Z" fill="#000000" fill-rule="nonzero" fill-opacity="1"></path><path clip-path="url(#clip990)" d="M128.288 1165.72 Q124.677 1165.72 122.848 1169.29 Q121.043 1172.83 121.043 1179.96 Q121.043 1187.07 122.848 1190.63 Q124.677 1194.17 128.288 1194.17 Q131.922 1194.17 133.728 1190.63 Q135.556 1187.07 135.556 1179.96 Q135.556 1172.83 133.728 1169.29 Q131.922 1165.72 128.288 1165.72 M128.288 1162.02 Q134.098 1162.02 137.154 1166.63 Q140.232 1171.21 140.232 1179.96 Q140.232 1188.69 137.154 1193.29 Q134.098 1197.88 128.288 1197.88 Q122.478 1197.88 119.399 1193.29 Q116.343 1188.69 116.343 1179.96 Q116.343 1171.21 119.399 1166.63 Q122.478 1162.02 128.288 1162.02 Z" fill="#000000" fill-rule="nonzero" fill-opacity="1"></path><path clip-path="url(#clip990)" d="M148.45 1191.33 L153.334 1191.33 L153.334 1197.2 L148.45 1197.2 L148.45 1191.33 Z" fill="#000000" fill-rule="nonzero" fill-opacity="1"></path><path clip-path="url(#clip990)" d="M173.519 1165.72 Q169.908 1165.72 168.079 1169.29 Q166.274 1172.83 166.274 1179.96 Q166.274 1187.07 168.079 1190.63 Q169.908 1194.17 173.519 1194.17 Q177.153 1194.17 178.959 1190.63 Q180.788 1187.07 180.788 1179.96 Q180.788 1172.83 178.959 1169.29 Q177.153 1165.72 173.519 1165.72 M173.519 1162.02 Q179.329 1162.02 182.385 1166.63 Q185.463 1171.21 185.463 1179.96 Q185.463 1188.69 182.385 1193.29 Q179.329 1197.88 173.519 1197.88 Q167.709 1197.88 164.63 1193.29 Q161.575 1188.69 161.575 1179.96 Q161.575 1171.21 164.63 1166.63 Q167.709 1162.02 173.519 1162.02 Z" fill="#000000" fill-rule="nonzero" fill-opacity="1"></path><path clip-path="url(#clip990)" d="M203.681 1165.72 Q200.07 1165.72 198.241 1169.29 Q196.436 1172.83 196.436 1179.96 Q196.436 1187.07 198.241 1190.63 Q200.07 1194.17 203.681 1194.17 Q207.315 1194.17 209.121 1190.63 Q210.949 1187.07 210.949 1179.96 Q210.949 1172.83 209.121 1169.29 Q207.315 1165.72 203.681 1165.72 M203.681 1162.02 Q209.491 1162.02 212.547 1166.63 Q215.625 1171.21 215.625 1179.96 Q215.625 1188.69 212.547 1193.29 Q209.491 1197.88 203.681 1197.88 Q197.871 1197.88 194.792 1193.29 Q191.737 1188.69 191.737 1179.96 Q191.737 1171.21 194.792 1166.63 Q197.871 1162.02 203.681 1162.02 Z" fill="#000000" fill-rule="nonzero" fill-opacity="1"></path><path clip-path="url(#clip990)" d="M227.871 1193.27 L244.19 1193.27 L244.19 1197.2 L222.246 1197.2 L222.246 1193.27 Q224.908 1190.52 229.491 1185.89 Q234.097 1181.23 235.278 1179.89 Q237.523 1177.37 238.403 1175.63 Q239.306 1173.87 239.306 1172.18 Q239.306 1169.43 237.361 1167.69 Q235.44 1165.95 232.338 1165.95 Q230.139 1165.95 227.685 1166.72 Q225.255 1167.48 222.477 1169.03 L222.477 1164.31 Q225.301 1163.18 227.755 1162.6 Q230.209 1162.02 232.246 1162.02 Q237.616 1162.02 240.81 1164.7 Q244.005 1167.39 244.005 1171.88 Q244.005 1174.01 243.195 1175.93 Q242.408 1177.83 240.301 1180.42 Q239.722 1181.09 236.621 1184.31 Q233.519 1187.51 227.871 1193.27 Z" fill="#000000" fill-rule="nonzero" fill-opacity="1"></path><path clip-path="url(#clip990)" d="M126.205 961.41 Q122.593 961.41 120.765 964.975 Q118.959 968.517 118.959 975.646 Q118.959 982.753 120.765 986.317 Q122.593 989.859 126.205 989.859 Q129.839 989.859 131.644 986.317 Q133.473 982.753 133.473 975.646 Q133.473 968.517 131.644 964.975 Q129.839 961.41 126.205 961.41 M126.205 957.706 Q132.015 957.706 135.07 962.313 Q138.149 966.896 138.149 975.646 Q138.149 984.373 135.07 988.979 Q132.015 993.563 126.205 993.563 Q120.394 993.563 117.316 988.979 Q114.26 984.373 114.26 975.646 Q114.26 966.896 117.316 962.313 Q120.394 957.706 126.205 957.706 Z" fill="#000000" fill-rule="nonzero" fill-opacity="1"></path><path clip-path="url(#clip990)" d="M146.366 987.012 L151.251 987.012 L151.251 992.891 L146.366 992.891 L146.366 987.012 Z" fill="#000000" fill-rule="nonzero" fill-opacity="1"></path><path clip-path="url(#clip990)" d="M171.436 961.41 Q167.825 961.41 165.996 964.975 Q164.19 968.517 164.19 975.646 Q164.19 982.753 165.996 986.317 Q167.825 989.859 171.436 989.859 Q175.07 989.859 176.876 986.317 Q178.704 982.753 178.704 975.646 Q178.704 968.517 176.876 964.975 Q175.07 961.41 171.436 961.41 M171.436 957.706 Q177.246 957.706 180.301 962.313 Q183.38 966.896 183.38 975.646 Q183.38 984.373 180.301 988.979 Q177.246 993.563 171.436 993.563 Q165.626 993.563 162.547 988.979 Q159.491 984.373 159.491 975.646 Q159.491 966.896 162.547 962.313 Q165.626 957.706 171.436 957.706 Z" fill="#000000" fill-rule="nonzero" fill-opacity="1"></path><path clip-path="url(#clip990)" d="M201.598 961.41 Q197.987 961.41 196.158 964.975 Q194.352 968.517 194.352 975.646 Q194.352 982.753 196.158 986.317 Q197.987 989.859 201.598 989.859 Q205.232 989.859 207.037 986.317 Q208.866 982.753 208.866 975.646 Q208.866 968.517 207.037 964.975 Q205.232 961.41 201.598 961.41 M201.598 957.706 Q207.408 957.706 210.463 962.313 Q213.542 966.896 213.542 975.646 Q213.542 984.373 210.463 988.979 Q207.408 993.563 201.598 993.563 Q195.787 993.563 192.709 988.979 Q189.653 984.373 189.653 975.646 Q189.653 966.896 192.709 962.313 Q195.787 957.706 201.598 957.706 Z" fill="#000000" fill-rule="nonzero" fill-opacity="1"></path><path clip-path="url(#clip990)" d="M234.607 962.405 L222.801 980.854 L234.607 980.854 L234.607 962.405 M233.38 958.331 L239.259 958.331 L239.259 980.854 L244.19 980.854 L244.19 984.743 L239.259 984.743 L239.259 992.891 L234.607 992.891 L234.607 984.743 L219.005 984.743 L219.005 980.229 L233.38 958.331 Z" fill="#000000" fill-rule="nonzero" fill-opacity="1"></path><path clip-path="url(#clip990)" d="M126.529 757.097 Q122.918 757.097 121.089 760.661 Q119.283 764.203 119.283 771.333 Q119.283 778.439 121.089 782.004 Q122.918 785.546 126.529 785.546 Q130.163 785.546 131.968 782.004 Q133.797 778.439 133.797 771.333 Q133.797 764.203 131.968 760.661 Q130.163 757.097 126.529 757.097 M126.529 753.393 Q132.339 753.393 135.394 757.999 Q138.473 762.583 138.473 771.333 Q138.473 780.059 135.394 784.666 Q132.339 789.249 126.529 789.249 Q120.718 789.249 117.64 784.666 Q114.584 780.059 114.584 771.333 Q114.584 762.583 117.64 757.999 Q120.718 753.393 126.529 753.393 Z" fill="#000000" fill-rule="nonzero" fill-opacity="1"></path><path clip-path="url(#clip990)" d="M146.691 782.698 L151.575 782.698 L151.575 788.578 L146.691 788.578 L146.691 782.698 Z" fill="#000000" fill-rule="nonzero" fill-opacity="1"></path><path clip-path="url(#clip990)" d="M171.76 757.097 Q168.149 757.097 166.32 760.661 Q164.515 764.203 164.515 771.333 Q164.515 778.439 166.32 782.004 Q168.149 785.546 171.76 785.546 Q175.394 785.546 177.2 782.004 Q179.028 778.439 179.028 771.333 Q179.028 764.203 177.2 760.661 Q175.394 757.097 171.76 757.097 M171.76 753.393 Q177.57 753.393 180.626 757.999 Q183.704 762.583 183.704 771.333 Q183.704 780.059 180.626 784.666 Q177.57 789.249 171.76 789.249 Q165.95 789.249 162.871 784.666 Q159.815 780.059 159.815 771.333 Q159.815 762.583 162.871 757.999 Q165.95 753.393 171.76 753.393 Z" fill="#000000" fill-rule="nonzero" fill-opacity="1"></path><path clip-path="url(#clip990)" d="M201.922 757.097 Q198.311 757.097 196.482 760.661 Q194.676 764.203 194.676 771.333 Q194.676 778.439 196.482 782.004 Q198.311 785.546 201.922 785.546 Q205.556 785.546 207.362 782.004 Q209.19 778.439 209.19 771.333 Q209.19 764.203 207.362 760.661 Q205.556 757.097 201.922 757.097 M201.922 753.393 Q207.732 753.393 210.787 757.999 Q213.866 762.583 213.866 771.333 Q213.866 780.059 210.787 784.666 Q207.732 789.249 201.922 789.249 Q196.112 789.249 193.033 784.666 Q189.977 780.059 189.977 771.333 Q189.977 762.583 193.033 757.999 Q196.112 753.393 201.922 753.393 Z" fill="#000000" fill-rule="nonzero" fill-opacity="1"></path><path clip-path="url(#clip990)" d="M232.662 769.435 Q229.514 769.435 227.662 771.587 Q225.834 773.74 225.834 777.49 Q225.834 781.217 227.662 783.393 Q229.514 785.546 232.662 785.546 Q235.81 785.546 237.639 783.393 Q239.491 781.217 239.491 777.49 Q239.491 773.74 237.639 771.587 Q235.81 769.435 232.662 769.435 M241.945 754.782 L241.945 759.041 Q240.185 758.208 238.38 757.768 Q236.597 757.328 234.838 757.328 Q230.209 757.328 227.755 760.453 Q225.324 763.578 224.977 769.897 Q226.343 767.884 228.403 766.819 Q230.463 765.731 232.94 765.731 Q238.148 765.731 241.158 768.902 Q244.19 772.05 244.19 777.49 Q244.19 782.814 241.042 786.032 Q237.894 789.249 232.662 789.249 Q226.667 789.249 223.496 784.666 Q220.324 780.059 220.324 771.333 Q220.324 763.138 224.213 758.277 Q228.102 753.393 234.653 753.393 Q236.412 753.393 238.195 753.74 Q240 754.087 241.945 754.782 Z" fill="#000000" fill-rule="nonzero" fill-opacity="1"></path><path clip-path="url(#clip990)" d="M126.783 552.783 Q123.172 552.783 121.343 556.348 Q119.538 559.89 119.538 567.019 Q119.538 574.126 121.343 577.69 Q123.172 581.232 126.783 581.232 Q130.417 581.232 132.223 577.69 Q134.052 574.126 134.052 567.019 Q134.052 559.89 132.223 556.348 Q130.417 552.783 126.783 552.783 M126.783 549.079 Q132.593 549.079 135.649 553.686 Q138.728 558.269 138.728 567.019 Q138.728 575.746 135.649 580.352 Q132.593 584.936 126.783 584.936 Q120.973 584.936 117.894 580.352 Q114.839 575.746 114.839 567.019 Q114.839 558.269 117.894 553.686 Q120.973 549.079 126.783 549.079 Z" fill="#000000" fill-rule="nonzero" fill-opacity="1"></path><path clip-path="url(#clip990)" d="M146.945 578.385 L151.829 578.385 L151.829 584.264 L146.945 584.264 L146.945 578.385 Z" fill="#000000" fill-rule="nonzero" fill-opacity="1"></path><path clip-path="url(#clip990)" d="M172.014 552.783 Q168.403 552.783 166.575 556.348 Q164.769 559.89 164.769 567.019 Q164.769 574.126 166.575 577.69 Q168.403 581.232 172.014 581.232 Q175.649 581.232 177.454 577.69 Q179.283 574.126 179.283 567.019 Q179.283 559.89 177.454 556.348 Q175.649 552.783 172.014 552.783 M172.014 549.079 Q177.825 549.079 180.88 553.686 Q183.959 558.269 183.959 567.019 Q183.959 575.746 180.88 580.352 Q177.825 584.936 172.014 584.936 Q166.204 584.936 163.126 580.352 Q160.07 575.746 160.07 567.019 Q160.07 558.269 163.126 553.686 Q166.204 549.079 172.014 549.079 Z" fill="#000000" fill-rule="nonzero" fill-opacity="1"></path><path clip-path="url(#clip990)" d="M202.176 552.783 Q198.565 552.783 196.737 556.348 Q194.931 559.89 194.931 567.019 Q194.931 574.126 196.737 577.69 Q198.565 581.232 202.176 581.232 Q205.811 581.232 207.616 577.69 Q209.445 574.126 209.445 567.019 Q209.445 559.89 207.616 556.348 Q205.811 552.783 202.176 552.783 M202.176 549.079 Q207.987 549.079 211.042 553.686 Q214.121 558.269 214.121 567.019 Q214.121 575.746 211.042 580.352 Q207.987 584.936 202.176 584.936 Q196.366 584.936 193.288 580.352 Q190.232 575.746 190.232 567.019 Q190.232 558.269 193.288 553.686 Q196.366 549.079 202.176 549.079 Z" fill="#000000" fill-rule="nonzero" fill-opacity="1"></path><path clip-path="url(#clip990)" d="M232.338 567.853 Q229.005 567.853 227.084 569.635 Q225.185 571.417 225.185 574.542 Q225.185 577.667 227.084 579.45 Q229.005 581.232 232.338 581.232 Q235.672 581.232 237.593 579.45 Q239.514 577.644 239.514 574.542 Q239.514 571.417 237.593 569.635 Q235.695 567.853 232.338 567.853 M227.662 565.862 Q224.653 565.121 222.963 563.061 Q221.297 561.001 221.297 558.038 Q221.297 553.894 224.236 551.487 Q227.199 549.079 232.338 549.079 Q237.5 549.079 240.44 551.487 Q243.38 553.894 243.38 558.038 Q243.38 561.001 241.69 563.061 Q240.023 565.121 237.037 565.862 Q240.417 566.649 242.292 568.94 Q244.19 571.232 244.19 574.542 Q244.19 579.565 241.111 582.251 Q238.056 584.936 232.338 584.936 Q226.621 584.936 223.542 582.251 Q220.486 579.565 220.486 574.542 Q220.486 571.232 222.385 568.94 Q224.283 566.649 227.662 565.862 M225.949 558.478 Q225.949 561.163 227.616 562.667 Q229.306 564.172 232.338 564.172 Q235.347 564.172 237.037 562.667 Q238.75 561.163 238.75 558.478 Q238.75 555.792 237.037 554.288 Q235.347 552.783 232.338 552.783 Q229.306 552.783 227.616 554.288 Q225.949 555.792 225.949 558.478 Z" fill="#000000" fill-rule="nonzero" fill-opacity="1"></path><path clip-path="url(#clip990)" d="M126.691 348.47 Q123.08 348.47 121.251 352.035 Q119.445 355.576 119.445 362.706 Q119.445 369.812 121.251 373.377 Q123.08 376.919 126.691 376.919 Q130.325 376.919 132.13 373.377 Q133.959 369.812 133.959 362.706 Q133.959 355.576 132.13 352.035 Q130.325 348.47 126.691 348.47 M126.691 344.766 Q132.501 344.766 135.556 349.372 Q138.635 353.956 138.635 362.706 Q138.635 371.433 135.556 376.039 Q132.501 380.622 126.691 380.622 Q120.88 380.622 117.802 376.039 Q114.746 371.433 114.746 362.706 Q114.746 353.956 117.802 349.372 Q120.88 344.766 126.691 344.766 Z" fill="#000000" fill-rule="nonzero" fill-opacity="1"></path><path clip-path="url(#clip990)" d="M146.853 374.071 L151.737 374.071 L151.737 379.951 L146.853 379.951 L146.853 374.071 Z" fill="#000000" fill-rule="nonzero" fill-opacity="1"></path><path clip-path="url(#clip990)" d="M171.922 348.47 Q168.311 348.47 166.482 352.035 Q164.677 355.576 164.677 362.706 Q164.677 369.812 166.482 373.377 Q168.311 376.919 171.922 376.919 Q175.556 376.919 177.362 373.377 Q179.19 369.812 179.19 362.706 Q179.19 355.576 177.362 352.035 Q175.556 348.47 171.922 348.47 M171.922 344.766 Q177.732 344.766 180.788 349.372 Q183.866 353.956 183.866 362.706 Q183.866 371.433 180.788 376.039 Q177.732 380.622 171.922 380.622 Q166.112 380.622 163.033 376.039 Q159.978 371.433 159.978 362.706 Q159.978 353.956 163.033 349.372 Q166.112 344.766 171.922 344.766 Z" fill="#000000" fill-rule="nonzero" fill-opacity="1"></path><path clip-path="url(#clip990)" d="M192.894 376.016 L200.533 376.016 L200.533 349.65 L192.223 351.317 L192.223 347.058 L200.487 345.391 L205.162 345.391 L205.162 376.016 L212.801 376.016 L212.801 379.951 L192.894 379.951 L192.894 376.016 Z" fill="#000000" fill-rule="nonzero" fill-opacity="1"></path><path clip-path="url(#clip990)" d="M232.246 348.47 Q228.635 348.47 226.806 352.035 Q225 355.576 225 362.706 Q225 369.812 226.806 373.377 Q228.635 376.919 232.246 376.919 Q235.88 376.919 237.685 373.377 Q239.514 369.812 239.514 362.706 Q239.514 355.576 237.685 352.035 Q235.88 348.47 232.246 348.47 M232.246 344.766 Q238.056 344.766 241.111 349.372 Q244.19 353.956 244.19 362.706 Q244.19 371.433 241.111 376.039 Q238.056 380.622 232.246 380.622 Q226.435 380.622 223.357 376.039 Q220.301 371.433 220.301 362.706 Q220.301 353.956 223.357 349.372 Q226.435 344.766 232.246 344.766 Z" fill="#000000" fill-rule="nonzero" fill-opacity="1"></path><path clip-path="url(#clip990)" d="M128.288 144.156 Q124.677 144.156 122.848 147.721 Q121.043 151.263 121.043 158.392 Q121.043 165.499 122.848 169.064 Q124.677 172.605 128.288 172.605 Q131.922 172.605 133.728 169.064 Q135.556 165.499 135.556 158.392 Q135.556 151.263 133.728 147.721 Q131.922 144.156 128.288 144.156 M128.288 140.453 Q134.098 140.453 137.154 145.059 Q140.232 149.642 140.232 158.392 Q140.232 167.119 137.154 171.726 Q134.098 176.309 128.288 176.309 Q122.478 176.309 119.399 171.726 Q116.343 167.119 116.343 158.392 Q116.343 149.642 119.399 145.059 Q122.478 140.453 128.288 140.453 Z" fill="#000000" fill-rule="nonzero" fill-opacity="1"></path><path clip-path="url(#clip990)" d="M148.45 169.758 L153.334 169.758 L153.334 175.638 L148.45 175.638 L148.45 169.758 Z" fill="#000000" fill-rule="nonzero" fill-opacity="1"></path><path clip-path="url(#clip990)" d="M173.519 144.156 Q169.908 144.156 168.079 147.721 Q166.274 151.263 166.274 158.392 Q166.274 165.499 168.079 169.064 Q169.908 172.605 173.519 172.605 Q177.153 172.605 178.959 169.064 Q180.788 165.499 180.788 158.392 Q180.788 151.263 178.959 147.721 Q177.153 144.156 173.519 144.156 M173.519 140.453 Q179.329 140.453 182.385 145.059 Q185.463 149.642 185.463 158.392 Q185.463 167.119 182.385 171.726 Q179.329 176.309 173.519 176.309 Q167.709 176.309 164.63 171.726 Q161.575 167.119 161.575 158.392 Q161.575 149.642 164.63 145.059 Q167.709 140.453 173.519 140.453 Z" fill="#000000" fill-rule="nonzero" fill-opacity="1"></path><path clip-path="url(#clip990)" d="M194.491 171.702 L202.13 171.702 L202.13 145.337 L193.82 147.003 L193.82 142.744 L202.084 141.078 L206.76 141.078 L206.76 171.702 L214.399 171.702 L214.399 175.638 L194.491 175.638 L194.491 171.702 Z" fill="#000000" fill-rule="nonzero" fill-opacity="1"></path><path clip-path="url(#clip990)" d="M227.871 171.702 L244.19 171.702 L244.19 175.638 L222.246 175.638 L222.246 171.702 Q224.908 168.948 229.491 164.318 Q234.097 159.665 235.278 158.323 Q237.523 155.8 238.403 154.064 Q239.306 152.304 239.306 150.615 Q239.306 147.86 237.361 146.124 Q235.44 144.388 232.338 144.388 Q230.139 144.388 227.685 145.152 Q225.255 145.916 222.477 147.466 L222.477 142.744 Q225.301 141.61 227.755 141.031 Q230.209 140.453 232.246 140.453 Q237.616 140.453 240.81 143.138 Q244.005 145.823 244.005 150.314 Q244.005 152.443 243.195 154.365 Q242.408 156.263 240.301 158.855 Q239.722 159.527 236.621 162.744 Q233.519 165.939 227.871 171.702 Z" fill="#000000" fill-rule="nonzero" fill-opacity="1"></path><path clip-path="url(#clip990)" d="M58.657 1029.15 L77.5631 1029.15 L77.5631 1035.04 L28.3562 1035.04 L28.3562 1029.15 L33.7671 1029.15 Q30.5842 1027.3 29.0564 1024.5 Q27.4968 1021.67 27.4968 1017.75 Q27.4968 1011.26 32.6531 1007.22 Q37.8093 1003.14 46.212 1003.14 Q54.6147 1003.14 59.771 1007.22 Q64.9272 1011.26 64.9272 1017.75 Q64.9272 1021.67 63.3994 1024.5 Q61.8398 1027.3 58.657 1029.15 M46.212 1009.22 Q39.7508 1009.22 36.0905 1011.9 Q32.3984 1014.54 32.3984 1019.19 Q32.3984 1023.83 36.0905 1026.51 Q39.7508 1029.15 46.212 1029.15 Q52.6732 1029.15 56.3653 1026.51 Q60.0256 1023.83 60.0256 1019.19 Q60.0256 1014.54 56.3653 1011.9 Q52.6732 1009.22 46.212 1009.22 Z" fill="#000000" fill-rule="nonzero" fill-opacity="1"></path><path clip-path="url(#clip990)" d="M33.8307 972.78 Q33.2578 973.767 33.0032 974.944 Q32.7167 976.09 32.7167 977.491 Q32.7167 982.456 35.9632 985.13 Q39.1779 987.771 45.2253 987.771 L64.0042 987.771 L64.0042 993.66 L28.3562 993.66 L28.3562 987.771 L33.8944 987.771 Q30.6479 985.925 29.0883 982.965 Q27.4968 980.005 27.4968 975.772 Q27.4968 975.167 27.5923 974.435 Q27.656 973.703 27.8151 972.812 L33.8307 972.78 Z" fill="#000000" fill-rule="nonzero" fill-opacity="1"></path><path clip-path="url(#clip990)" d="M32.4621 954.256 Q32.4621 958.967 36.1542 961.704 Q39.8145 964.441 46.212 964.441 Q52.6095 964.441 56.3017 961.736 Q59.9619 958.998 59.9619 954.256 Q59.9619 949.577 56.2698 946.84 Q52.5777 944.103 46.212 944.103 Q39.8781 944.103 36.186 946.84 Q32.4621 949.577 32.4621 954.256 M27.4968 954.256 Q27.4968 946.617 32.4621 942.257 Q37.4273 937.896 46.212 937.896 Q54.9649 937.896 59.9619 942.257 Q64.9272 946.617 64.9272 954.256 Q64.9272 961.927 59.9619 966.287 Q54.9649 970.616 46.212 970.616 Q37.4273 970.616 32.4621 966.287 Q27.4968 961.927 27.4968 954.256 Z" fill="#000000" fill-rule="nonzero" fill-opacity="1"></path><path clip-path="url(#clip990)" d="M46.212 902.598 Q39.7508 902.598 36.0905 905.272 Q32.3984 907.914 32.3984 912.561 Q32.3984 917.208 36.0905 919.881 Q39.7508 922.523 46.212 922.523 Q52.6732 922.523 56.3653 919.881 Q60.0256 917.208 60.0256 912.561 Q60.0256 907.914 56.3653 905.272 Q52.6732 902.598 46.212 902.598 M33.7671 922.523 Q30.5842 920.677 29.0564 917.876 Q27.4968 915.043 27.4968 911.128 Q27.4968 904.635 32.6531 900.593 Q37.8093 896.519 46.212 896.519 Q54.6147 896.519 59.771 900.593 Q64.9272 904.635 64.9272 911.128 Q64.9272 915.043 63.3994 917.876 Q61.8398 920.677 58.657 922.523 L64.0042 922.523 L64.0042 928.411 L14.479 928.411 L14.479 922.523 L33.7671 922.523 Z" fill="#000000" fill-rule="nonzero" fill-opacity="1"></path><path clip-path="url(#clip990)" d="M46.0847 870.611 Q46.0847 877.708 47.7079 880.446 Q49.3312 883.183 53.2461 883.183 Q56.3653 883.183 58.2114 881.146 Q60.0256 879.077 60.0256 875.544 Q60.0256 870.674 56.5881 867.746 Q53.1188 864.786 47.3897 864.786 L46.0847 864.786 L46.0847 870.611 M43.6657 858.929 L64.0042 858.929 L64.0042 864.786 L58.5933 864.786 Q61.8398 866.791 63.3994 869.783 Q64.9272 872.775 64.9272 877.104 Q64.9272 882.578 61.8716 885.825 Q58.7843 889.039 53.6281 889.039 Q47.6125 889.039 44.5569 885.029 Q41.5014 880.987 41.5014 872.998 L41.5014 864.786 L40.9285 864.786 Q36.8862 864.786 34.6901 867.46 Q32.4621 870.101 32.4621 874.907 Q32.4621 877.963 33.1941 880.859 Q33.9262 883.756 35.3903 886.429 L29.9795 886.429 Q28.7381 883.215 28.1334 880.191 Q27.4968 877.167 27.4968 874.303 Q27.4968 866.568 31.5072 862.749 Q35.5176 858.929 43.6657 858.929 Z" fill="#000000" fill-rule="nonzero" fill-opacity="1"></path><path clip-path="url(#clip990)" d="M46.212 821.276 Q39.7508 821.276 36.0905 823.95 Q32.3984 826.592 32.3984 831.239 Q32.3984 835.886 36.0905 838.559 Q39.7508 841.201 46.212 841.201 Q52.6732 841.201 56.3653 838.559 Q60.0256 835.886 60.0256 831.239 Q60.0256 826.592 56.3653 823.95 Q52.6732 821.276 46.212 821.276 M33.7671 841.201 Q30.5842 839.355 29.0564 836.554 Q27.4968 833.721 27.4968 829.806 Q27.4968 823.313 32.6531 819.271 Q37.8093 815.197 46.212 815.197 Q54.6147 815.197 59.771 819.271 Q64.9272 823.313 64.9272 829.806 Q64.9272 833.721 63.3994 836.554 Q61.8398 839.355 58.657 841.201 L64.0042 841.201 L64.0042 847.089 L14.479 847.089 L14.479 841.201 L33.7671 841.201 Z" fill="#000000" fill-rule="nonzero" fill-opacity="1"></path><path clip-path="url(#clip990)" d="M28.3562 805.489 L28.3562 799.633 L64.0042 799.633 L64.0042 805.489 L28.3562 805.489 M14.479 805.489 L14.479 799.633 L21.895 799.633 L21.895 805.489 L14.479 805.489 Z" fill="#000000" fill-rule="nonzero" fill-opacity="1"></path><path clip-path="url(#clip990)" d="M14.479 787.379 L14.479 781.522 L64.0042 781.522 L64.0042 787.379 L14.479 787.379 Z" fill="#000000" fill-rule="nonzero" fill-opacity="1"></path><path clip-path="url(#clip990)" d="M28.3562 769.268 L28.3562 763.412 L64.0042 763.412 L64.0042 769.268 L28.3562 769.268 M14.479 769.268 L14.479 763.412 L21.895 763.412 L21.895 769.268 L14.479 769.268 Z" fill="#000000" fill-rule="nonzero" fill-opacity="1"></path><path clip-path="url(#clip990)" d="M18.2347 745.365 L28.3562 745.365 L28.3562 733.302 L32.9077 733.302 L32.9077 745.365 L52.2594 745.365 Q56.6199 745.365 57.8613 744.188 Q59.1026 742.978 59.1026 739.318 L59.1026 733.302 L64.0042 733.302 L64.0042 739.318 Q64.0042 746.097 61.4897 748.675 Q58.9434 751.254 52.2594 751.254 L32.9077 751.254 L32.9077 755.55 L28.3562 755.55 L28.3562 751.254 L18.2347 751.254 L18.2347 745.365 Z" fill="#000000" fill-rule="nonzero" fill-opacity="1"></path><path clip-path="url(#clip990)" d="M67.3143 710.768 Q73.68 713.25 75.6216 715.606 Q77.5631 717.961 77.5631 721.908 L77.5631 726.586 L72.6615 726.586 L72.6615 723.149 Q72.6615 720.73 71.5157 719.393 Q70.3699 718.056 66.1048 716.433 L63.4312 715.383 L28.3562 729.801 L28.3562 723.595 L56.238 712.455 L28.3562 701.315 L28.3562 695.108 L67.3143 710.768 Z" fill="#000000" fill-rule="nonzero" fill-opacity="1"></path><path clip-path="url(#clip990)" d="M33.7671 642.846 L14.479 642.846 L14.479 636.989 L64.0042 636.989 L64.0042 642.846 L58.657 642.846 Q61.8398 644.692 63.3994 647.524 Q64.9272 650.325 64.9272 654.272 Q64.9272 660.733 59.771 664.807 Q54.6147 668.849 46.212 668.849 Q37.8093 668.849 32.6531 664.807 Q27.4968 660.733 27.4968 654.272 Q27.4968 650.325 29.0564 647.524 Q30.5842 644.692 33.7671 642.846 M46.212 662.802 Q52.6732 662.802 56.3653 660.16 Q60.0256 657.487 60.0256 652.84 Q60.0256 648.193 56.3653 645.519 Q52.6732 642.846 46.212 642.846 Q39.7508 642.846 36.0905 645.519 Q32.3984 648.193 32.3984 652.84 Q32.3984 657.487 36.0905 660.16 Q39.7508 662.802 46.212 662.802 Z" fill="#000000" fill-rule="nonzero" fill-opacity="1"></path><path clip-path="url(#clip990)" d="M44.7161 594.434 L47.5806 594.434 L47.5806 621.361 Q53.6281 620.979 56.8109 617.733 Q59.9619 614.455 59.9619 608.63 Q59.9619 605.256 59.1344 602.105 Q58.3069 598.922 56.6518 595.803 L62.1899 595.803 Q63.5267 598.954 64.227 602.264 Q64.9272 605.574 64.9272 608.98 Q64.9272 617.51 59.9619 622.507 Q54.9967 627.472 46.5303 627.472 Q37.7774 627.472 32.6531 622.762 Q27.4968 618.019 27.4968 609.999 Q27.4968 602.805 32.1438 598.636 Q36.7589 594.434 44.7161 594.434 M42.9973 600.291 Q38.1912 600.354 35.3266 602.996 Q32.4621 605.606 32.4621 609.935 Q32.4621 614.836 35.2312 617.797 Q38.0002 620.725 43.0292 621.17 L42.9973 600.291 Z" fill="#000000" fill-rule="nonzero" fill-opacity="1"></path><path clip-path="url(#clip990)" d="M42.4881 555.19 L64.0042 555.19 L64.0042 561.046 L42.679 561.046 Q37.6183 561.046 35.1038 563.02 Q32.5894 564.993 32.5894 568.94 Q32.5894 573.682 35.6131 576.419 Q38.6368 579.157 43.8567 579.157 L64.0042 579.157 L64.0042 585.045 L28.3562 585.045 L28.3562 579.157 L33.8944 579.157 Q30.6797 577.056 29.0883 574.223 Q27.4968 571.359 27.4968 567.635 Q27.4968 561.492 31.3163 558.341 Q35.1038 555.19 42.4881 555.19 Z" fill="#000000" fill-rule="nonzero" fill-opacity="1"></path><path clip-path="url(#clip990)" d="M29.4065 520.783 L34.9447 520.783 Q33.6716 523.266 33.035 525.939 Q32.3984 528.613 32.3984 531.478 Q32.3984 535.838 33.7352 538.034 Q35.072 540.199 37.7456 540.199 Q39.7826 540.199 40.9603 538.639 Q42.1061 537.079 43.1565 532.369 L43.6021 530.364 Q44.9389 524.125 47.3897 521.515 Q49.8086 518.873 54.1691 518.873 Q59.1344 518.873 62.0308 522.82 Q64.9272 526.735 64.9272 533.61 Q64.9272 536.475 64.3543 539.594 Q63.8132 542.681 62.6992 546.119 L56.6518 546.119 Q58.3387 542.872 59.198 539.721 Q60.0256 536.57 60.0256 533.483 Q60.0256 529.345 58.6251 527.117 Q57.1929 524.889 54.6147 524.889 Q52.2276 524.889 50.9545 526.512 Q49.6813 528.104 48.5037 533.546 L48.0262 535.583 Q46.8804 541.026 44.5251 543.445 Q42.138 545.864 38.0002 545.864 Q32.9713 545.864 30.2341 542.299 Q27.4968 538.734 27.4968 532.178 Q27.4968 528.931 27.9743 526.067 Q28.4517 523.202 29.4065 520.783 Z" fill="#000000" fill-rule="nonzero" fill-opacity="1"></path><path clip-path="url(#clip990)" d="M28.3562 509.548 L28.3562 503.691 L64.0042 503.691 L64.0042 509.548 L28.3562 509.548 M14.479 509.548 L14.479 503.691 L21.895 503.691 L21.895 509.548 L14.479 509.548 Z" fill="#000000" fill-rule="nonzero" fill-opacity="1"></path><path clip-path="url(#clip990)" d="M18.2347 485.644 L28.3562 485.644 L28.3562 473.581 L32.9077 473.581 L32.9077 485.644 L52.2594 485.644 Q56.6199 485.644 57.8613 484.467 Q59.1026 483.257 59.1026 479.597 L59.1026 473.581 L64.0042 473.581 L64.0042 479.597 Q64.0042 486.376 61.4897 488.955 Q58.9434 491.533 52.2594 491.533 L32.9077 491.533 L32.9077 495.83 L28.3562 495.83 L28.3562 491.533 L18.2347 491.533 L18.2347 485.644 Z" fill="#000000" fill-rule="nonzero" fill-opacity="1"></path><path clip-path="url(#clip990)" d="M67.3143 451.047 Q73.68 453.529 75.6216 455.885 Q77.5631 458.24 77.5631 462.187 L77.5631 466.866 L72.6615 466.866 L72.6615 463.428 Q72.6615 461.009 71.5157 459.672 Q70.3699 458.336 66.1048 456.712 L63.4312 455.662 L28.3562 470.08 L28.3562 463.874 L56.238 452.734 L28.3562 441.594 L28.3562 435.387 L67.3143 451.047 Z" fill="#000000" fill-rule="nonzero" fill-opacity="1"></path><polyline clip-path="url(#clip992)" style="stroke:#0000ff; stroke-linecap:round; stroke-linejoin:round; stroke-width:4; stroke-opacity:1; fill:none" points="338.848,1384.24 369.883,1384.1 400.919,1383.81 431.955,1382.91 462.99,1380.41 494.026,1374.2 525.062,1360.18 556.098,1331.56 587.133,1278.71 618.169,1190.71 649.205,1058.99 680.241,882.648 711.276,673.246 742.312,456.05 773.348,265.402 804.383,134.896 835.419,86.1857 866.455,121.56 897.491,223.643 928.526,361.981 959.562,503.197 990.598,620.563 1021.63,700.049 1052.67,741.778 1083.71,757.21 1114.74,763.343 1145.78,775.907 1176.81,803.992 1207.85,848.053 1238.88,901.666 1269.92,955.622 1300.96,1002.04 1331.99,1036.75 1363.03,1059.52 1394.06,1072.79 1425.1,1079.94 1456.13,1084.13 1487.17,1088 1518.21,1094.12 1549.24,1105.35 1580.28,1124.54 1611.31,1153.25 1642.35,1190.57 1673.38,1232.85 1704.42,1274.82 1735.46,1311.57 1766.49,1340.07 1797.53,1359.75 1828.56,1371.87 1859.6,1378.56 1890.63,1381.87 1921.67,1383.34 1952.71,1383.92 1983.74,1384.12 2014.78,1384.24 2045.81,1384.24 2076.85,1384.24 2107.88,1384.24 2138.92,1384.24 2169.96,1384.24 2200.99,1384.24 2232.03,1384.24 2263.06,1384.24 2294.1,1384.24 "></polyline>
<circle clip-path="url(#clip992)" cx="338.848" cy="1384.24" r="14.4" fill="#0000ff" fill-rule="evenodd" fill-opacity="1" stroke="#000000" stroke-opacity="1" stroke-width="3.2"></circle>
<circle clip-path="url(#clip992)" cx="369.883" cy="1384.1" r="14.4" fill="#0000ff" fill-rule="evenodd" fill-opacity="1" stroke="#000000" stroke-opacity="1" stroke-width="3.2"></circle>
<circle clip-path="url(#clip992)" cx="400.919" cy="1383.81" r="14.4" fill="#0000ff" fill-rule="evenodd" fill-opacity="1" stroke="#000000" stroke-opacity="1" stroke-width="3.2"></circle>
<circle clip-path="url(#clip992)" cx="431.955" cy="1382.91" r="14.4" fill="#0000ff" fill-rule="evenodd" fill-opacity="1" stroke="#000000" stroke-opacity="1" stroke-width="3.2"></circle>
<circle clip-path="url(#clip992)" cx="462.99" cy="1380.41" r="14.4" fill="#0000ff" fill-rule="evenodd" fill-opacity="1" stroke="#000000" stroke-opacity="1" stroke-width="3.2"></circle>
<circle clip-path="url(#clip992)" cx="494.026" cy="1374.2" r="14.4" fill="#0000ff" fill-rule="evenodd" fill-opacity="1" stroke="#000000" stroke-opacity="1" stroke-width="3.2"></circle>
<circle clip-path="url(#clip992)" cx="525.062" cy="1360.18" r="14.4" fill="#0000ff" fill-rule="evenodd" fill-opacity="1" stroke="#000000" stroke-opacity="1" stroke-width="3.2"></circle>
<circle clip-path="url(#clip992)" cx="556.098" cy="1331.56" r="14.4" fill="#0000ff" fill-rule="evenodd" fill-opacity="1" stroke="#000000" stroke-opacity="1" stroke-width="3.2"></circle>
<circle clip-path="url(#clip992)" cx="587.133" cy="1278.71" r="14.4" fill="#0000ff" fill-rule="evenodd" fill-opacity="1" stroke="#000000" stroke-opacity="1" stroke-width="3.2"></circle>
<circle clip-path="url(#clip992)" cx="618.169" cy="1190.71" r="14.4" fill="#0000ff" fill-rule="evenodd" fill-opacity="1" stroke="#000000" stroke-opacity="1" stroke-width="3.2"></circle>
<circle clip-path="url(#clip992)" cx="649.205" cy="1058.99" r="14.4" fill="#0000ff" fill-rule="evenodd" fill-opacity="1" stroke="#000000" stroke-opacity="1" stroke-width="3.2"></circle>
<circle clip-path="url(#clip992)" cx="680.241" cy="882.648" r="14.4" fill="#0000ff" fill-rule="evenodd" fill-opacity="1" stroke="#000000" stroke-opacity="1" stroke-width="3.2"></circle>
<circle clip-path="url(#clip992)" cx="711.276" cy="673.246" r="14.4" fill="#0000ff" fill-rule="evenodd" fill-opacity="1" stroke="#000000" stroke-opacity="1" stroke-width="3.2"></circle>
<circle clip-path="url(#clip992)" cx="742.312" cy="456.05" r="14.4" fill="#0000ff" fill-rule="evenodd" fill-opacity="1" stroke="#000000" stroke-opacity="1" stroke-width="3.2"></circle>
<circle clip-path="url(#clip992)" cx="773.348" cy="265.402" r="14.4" fill="#0000ff" fill-rule="evenodd" fill-opacity="1" stroke="#000000" stroke-opacity="1" stroke-width="3.2"></circle>
<circle clip-path="url(#clip992)" cx="804.383" cy="134.896" r="14.4" fill="#0000ff" fill-rule="evenodd" fill-opacity="1" stroke="#000000" stroke-opacity="1" stroke-width="3.2"></circle>
<circle clip-path="url(#clip992)" cx="835.419" cy="86.1857" r="14.4" fill="#0000ff" fill-rule="evenodd" fill-opacity="1" stroke="#000000" stroke-opacity="1" stroke-width="3.2"></circle>
<circle clip-path="url(#clip992)" cx="866.455" cy="121.56" r="14.4" fill="#0000ff" fill-rule="evenodd" fill-opacity="1" stroke="#000000" stroke-opacity="1" stroke-width="3.2"></circle>
<circle clip-path="url(#clip992)" cx="897.491" cy="223.643" r="14.4" fill="#0000ff" fill-rule="evenodd" fill-opacity="1" stroke="#000000" stroke-opacity="1" stroke-width="3.2"></circle>
<circle clip-path="url(#clip992)" cx="928.526" cy="361.981" r="14.4" fill="#0000ff" fill-rule="evenodd" fill-opacity="1" stroke="#000000" stroke-opacity="1" stroke-width="3.2"></circle>
<circle clip-path="url(#clip992)" cx="959.562" cy="503.197" r="14.4" fill="#0000ff" fill-rule="evenodd" fill-opacity="1" stroke="#000000" stroke-opacity="1" stroke-width="3.2"></circle>
<circle clip-path="url(#clip992)" cx="990.598" cy="620.563" r="14.4" fill="#0000ff" fill-rule="evenodd" fill-opacity="1" stroke="#000000" stroke-opacity="1" stroke-width="3.2"></circle>
<circle clip-path="url(#clip992)" cx="1021.63" cy="700.049" r="14.4" fill="#0000ff" fill-rule="evenodd" fill-opacity="1" stroke="#000000" stroke-opacity="1" stroke-width="3.2"></circle>
<circle clip-path="url(#clip992)" cx="1052.67" cy="741.778" r="14.4" fill="#0000ff" fill-rule="evenodd" fill-opacity="1" stroke="#000000" stroke-opacity="1" stroke-width="3.2"></circle>
<circle clip-path="url(#clip992)" cx="1083.71" cy="757.21" r="14.4" fill="#0000ff" fill-rule="evenodd" fill-opacity="1" stroke="#000000" stroke-opacity="1" stroke-width="3.2"></circle>
<circle clip-path="url(#clip992)" cx="1114.74" cy="763.343" r="14.4" fill="#0000ff" fill-rule="evenodd" fill-opacity="1" stroke="#000000" stroke-opacity="1" stroke-width="3.2"></circle>
<circle clip-path="url(#clip992)" cx="1145.78" cy="775.907" r="14.4" fill="#0000ff" fill-rule="evenodd" fill-opacity="1" stroke="#000000" stroke-opacity="1" stroke-width="3.2"></circle>
<circle clip-path="url(#clip992)" cx="1176.81" cy="803.992" r="14.4" fill="#0000ff" fill-rule="evenodd" fill-opacity="1" stroke="#000000" stroke-opacity="1" stroke-width="3.2"></circle>
<circle clip-path="url(#clip992)" cx="1207.85" cy="848.053" r="14.4" fill="#0000ff" fill-rule="evenodd" fill-opacity="1" stroke="#000000" stroke-opacity="1" stroke-width="3.2"></circle>
<circle clip-path="url(#clip992)" cx="1238.88" cy="901.666" r="14.4" fill="#0000ff" fill-rule="evenodd" fill-opacity="1" stroke="#000000" stroke-opacity="1" stroke-width="3.2"></circle>
<circle clip-path="url(#clip992)" cx="1269.92" cy="955.622" r="14.4" fill="#0000ff" fill-rule="evenodd" fill-opacity="1" stroke="#000000" stroke-opacity="1" stroke-width="3.2"></circle>
<circle clip-path="url(#clip992)" cx="1300.96" cy="1002.04" r="14.4" fill="#0000ff" fill-rule="evenodd" fill-opacity="1" stroke="#000000" stroke-opacity="1" stroke-width="3.2"></circle>
<circle clip-path="url(#clip992)" cx="1331.99" cy="1036.75" r="14.4" fill="#0000ff" fill-rule="evenodd" fill-opacity="1" stroke="#000000" stroke-opacity="1" stroke-width="3.2"></circle>
<circle clip-path="url(#clip992)" cx="1363.03" cy="1059.52" r="14.4" fill="#0000ff" fill-rule="evenodd" fill-opacity="1" stroke="#000000" stroke-opacity="1" stroke-width="3.2"></circle>
<circle clip-path="url(#clip992)" cx="1394.06" cy="1072.79" r="14.4" fill="#0000ff" fill-rule="evenodd" fill-opacity="1" stroke="#000000" stroke-opacity="1" stroke-width="3.2"></circle>
<circle clip-path="url(#clip992)" cx="1425.1" cy="1079.94" r="14.4" fill="#0000ff" fill-rule="evenodd" fill-opacity="1" stroke="#000000" stroke-opacity="1" stroke-width="3.2"></circle>
<circle clip-path="url(#clip992)" cx="1456.13" cy="1084.13" r="14.4" fill="#0000ff" fill-rule="evenodd" fill-opacity="1" stroke="#000000" stroke-opacity="1" stroke-width="3.2"></circle>
<circle clip-path="url(#clip992)" cx="1487.17" cy="1088" r="14.4" fill="#0000ff" fill-rule="evenodd" fill-opacity="1" stroke="#000000" stroke-opacity="1" stroke-width="3.2"></circle>
<circle clip-path="url(#clip992)" cx="1518.21" cy="1094.12" r="14.4" fill="#0000ff" fill-rule="evenodd" fill-opacity="1" stroke="#000000" stroke-opacity="1" stroke-width="3.2"></circle>
<circle clip-path="url(#clip992)" cx="1549.24" cy="1105.35" r="14.4" fill="#0000ff" fill-rule="evenodd" fill-opacity="1" stroke="#000000" stroke-opacity="1" stroke-width="3.2"></circle>
<circle clip-path="url(#clip992)" cx="1580.28" cy="1124.54" r="14.4" fill="#0000ff" fill-rule="evenodd" fill-opacity="1" stroke="#000000" stroke-opacity="1" stroke-width="3.2"></circle>
<circle clip-path="url(#clip992)" cx="1611.31" cy="1153.25" r="14.4" fill="#0000ff" fill-rule="evenodd" fill-opacity="1" stroke="#000000" stroke-opacity="1" stroke-width="3.2"></circle>
<circle clip-path="url(#clip992)" cx="1642.35" cy="1190.57" r="14.4" fill="#0000ff" fill-rule="evenodd" fill-opacity="1" stroke="#000000" stroke-opacity="1" stroke-width="3.2"></circle>
<circle clip-path="url(#clip992)" cx="1673.38" cy="1232.85" r="14.4" fill="#0000ff" fill-rule="evenodd" fill-opacity="1" stroke="#000000" stroke-opacity="1" stroke-width="3.2"></circle>
<circle clip-path="url(#clip992)" cx="1704.42" cy="1274.82" r="14.4" fill="#0000ff" fill-rule="evenodd" fill-opacity="1" stroke="#000000" stroke-opacity="1" stroke-width="3.2"></circle>
<circle clip-path="url(#clip992)" cx="1735.46" cy="1311.57" r="14.4" fill="#0000ff" fill-rule="evenodd" fill-opacity="1" stroke="#000000" stroke-opacity="1" stroke-width="3.2"></circle>
<circle clip-path="url(#clip992)" cx="1766.49" cy="1340.07" r="14.4" fill="#0000ff" fill-rule="evenodd" fill-opacity="1" stroke="#000000" stroke-opacity="1" stroke-width="3.2"></circle>
<circle clip-path="url(#clip992)" cx="1797.53" cy="1359.75" r="14.4" fill="#0000ff" fill-rule="evenodd" fill-opacity="1" stroke="#000000" stroke-opacity="1" stroke-width="3.2"></circle>
<circle clip-path="url(#clip992)" cx="1828.56" cy="1371.87" r="14.4" fill="#0000ff" fill-rule="evenodd" fill-opacity="1" stroke="#000000" stroke-opacity="1" stroke-width="3.2"></circle>
<circle clip-path="url(#clip992)" cx="1859.6" cy="1378.56" r="14.4" fill="#0000ff" fill-rule="evenodd" fill-opacity="1" stroke="#000000" stroke-opacity="1" stroke-width="3.2"></circle>
<circle clip-path="url(#clip992)" cx="1890.63" cy="1381.87" r="14.4" fill="#0000ff" fill-rule="evenodd" fill-opacity="1" stroke="#000000" stroke-opacity="1" stroke-width="3.2"></circle>
<circle clip-path="url(#clip992)" cx="1921.67" cy="1383.34" r="14.4" fill="#0000ff" fill-rule="evenodd" fill-opacity="1" stroke="#000000" stroke-opacity="1" stroke-width="3.2"></circle>
<circle clip-path="url(#clip992)" cx="1952.71" cy="1383.92" r="14.4" fill="#0000ff" fill-rule="evenodd" fill-opacity="1" stroke="#000000" stroke-opacity="1" stroke-width="3.2"></circle>
<circle clip-path="url(#clip992)" cx="1983.74" cy="1384.12" r="14.4" fill="#0000ff" fill-rule="evenodd" fill-opacity="1" stroke="#000000" stroke-opacity="1" stroke-width="3.2"></circle>
<circle clip-path="url(#clip992)" cx="2014.78" cy="1384.24" r="14.4" fill="#0000ff" fill-rule="evenodd" fill-opacity="1" stroke="#000000" stroke-opacity="1" stroke-width="3.2"></circle>
<circle clip-path="url(#clip992)" cx="2045.81" cy="1384.24" r="14.4" fill="#0000ff" fill-rule="evenodd" fill-opacity="1" stroke="#000000" stroke-opacity="1" stroke-width="3.2"></circle>
<circle clip-path="url(#clip992)" cx="2076.85" cy="1384.24" r="14.4" fill="#0000ff" fill-rule="evenodd" fill-opacity="1" stroke="#000000" stroke-opacity="1" stroke-width="3.2"></circle>
<circle clip-path="url(#clip992)" cx="2107.88" cy="1384.24" r="14.4" fill="#0000ff" fill-rule="evenodd" fill-opacity="1" stroke="#000000" stroke-opacity="1" stroke-width="3.2"></circle>
<circle clip-path="url(#clip992)" cx="2138.92" cy="1384.24" r="14.4" fill="#0000ff" fill-rule="evenodd" fill-opacity="1" stroke="#000000" stroke-opacity="1" stroke-width="3.2"></circle>
<circle clip-path="url(#clip992)" cx="2169.96" cy="1384.24" r="14.4" fill="#0000ff" fill-rule="evenodd" fill-opacity="1" stroke="#000000" stroke-opacity="1" stroke-width="3.2"></circle>
<circle clip-path="url(#clip992)" cx="2200.99" cy="1384.24" r="14.4" fill="#0000ff" fill-rule="evenodd" fill-opacity="1" stroke="#000000" stroke-opacity="1" stroke-width="3.2"></circle>
<circle clip-path="url(#clip992)" cx="2232.03" cy="1384.24" r="14.4" fill="#0000ff" fill-rule="evenodd" fill-opacity="1" stroke="#000000" stroke-opacity="1" stroke-width="3.2"></circle>
<circle clip-path="url(#clip992)" cx="2263.06" cy="1384.24" r="14.4" fill="#0000ff" fill-rule="evenodd" fill-opacity="1" stroke="#000000" stroke-opacity="1" stroke-width="3.2"></circle>
<circle clip-path="url(#clip992)" cx="2294.1" cy="1384.24" r="14.4" fill="#0000ff" fill-rule="evenodd" fill-opacity="1" stroke="#000000" stroke-opacity="1" stroke-width="3.2"></circle>
<path clip-path="url(#clip990)" d="M1654.33 248.629 L2283.67 248.629 L2283.67 93.1086 L1654.33 93.1086  Z" fill="#ffffff" fill-rule="evenodd" fill-opacity="1"></path>
<polyline clip-path="url(#clip990)" style="stroke:#000000; stroke-linecap:round; stroke-linejoin:round; stroke-width:4; stroke-opacity:1; fill:none" points="1654.33,248.629 2283.67,248.629 2283.67,93.1086 1654.33,93.1086 1654.33,248.629 "></polyline>
<polyline clip-path="url(#clip990)" style="stroke:#0000ff; stroke-linecap:round; stroke-linejoin:round; stroke-width:4; stroke-opacity:1; fill:none" points="1677.36,144.949 1815.53,144.949 "></polyline>
<path clip-path="url(#clip990)" d="M1859.07 137.298 L1859.07 141.28 Q1857.26 140.284 1855.44 139.798 Q1853.63 139.289 1851.78 139.289 Q1847.63 139.289 1845.34 141.928 Q1843.05 144.544 1843.05 149.289 Q1843.05 154.034 1845.34 156.673 Q1847.63 159.289 1851.78 159.289 Q1853.63 159.289 1855.44 158.803 Q1857.26 158.293 1859.07 157.298 L1859.07 161.233 Q1857.29 162.067 1855.37 162.483 Q1853.47 162.9 1851.32 162.9 Q1845.46 162.9 1842.01 159.219 Q1838.56 155.539 1838.56 149.289 Q1838.56 142.946 1842.03 139.312 Q1845.53 135.678 1851.59 135.678 Q1853.56 135.678 1855.44 136.095 Q1857.31 136.488 1859.07 137.298 Z" fill="#000000" fill-rule="nonzero" fill-opacity="1"></path><path clip-path="url(#clip990)" d="M1876.52 139.289 Q1873.1 139.289 1871.11 141.974 Q1869.12 144.636 1869.12 149.289 Q1869.12 153.942 1871.08 156.627 Q1873.07 159.289 1876.52 159.289 Q1879.93 159.289 1881.92 156.604 Q1883.91 153.918 1883.91 149.289 Q1883.91 144.682 1881.92 141.997 Q1879.93 139.289 1876.52 139.289 M1876.52 135.678 Q1882.08 135.678 1885.25 139.289 Q1888.42 142.9 1888.42 149.289 Q1888.42 155.655 1885.25 159.289 Q1882.08 162.9 1876.52 162.9 Q1870.94 162.9 1867.77 159.289 Q1864.63 155.655 1864.63 149.289 Q1864.63 142.9 1867.77 139.289 Q1870.94 135.678 1876.52 135.678 Z" fill="#000000" fill-rule="nonzero" fill-opacity="1"></path><path clip-path="url(#clip990)" d="M1917.03 146.581 L1917.03 162.229 L1912.77 162.229 L1912.77 146.719 Q1912.77 143.039 1911.34 141.21 Q1909.9 139.382 1907.03 139.382 Q1903.58 139.382 1901.59 141.581 Q1899.6 143.78 1899.6 147.576 L1899.6 162.229 L1895.32 162.229 L1895.32 136.303 L1899.6 136.303 L1899.6 140.331 Q1901.13 137.993 1903.19 136.835 Q1905.27 135.678 1907.98 135.678 Q1912.45 135.678 1914.74 138.456 Q1917.03 141.21 1917.03 146.581 Z" fill="#000000" fill-rule="nonzero" fill-opacity="1"></path><path clip-path="url(#clip990)" d="M1929.74 128.942 L1929.74 136.303 L1938.51 136.303 L1938.51 139.613 L1929.74 139.613 L1929.74 153.687 Q1929.74 156.858 1930.6 157.761 Q1931.48 158.664 1934.14 158.664 L1938.51 158.664 L1938.51 162.229 L1934.14 162.229 Q1929.21 162.229 1927.33 160.4 Q1925.46 158.548 1925.46 153.687 L1925.46 139.613 L1922.33 139.613 L1922.33 136.303 L1925.46 136.303 L1925.46 128.942 L1929.74 128.942 Z" fill="#000000" fill-rule="nonzero" fill-opacity="1"></path><path clip-path="url(#clip990)" d="M1944.12 136.303 L1948.38 136.303 L1948.38 162.229 L1944.12 162.229 L1944.12 136.303 M1944.12 126.21 L1948.38 126.21 L1948.38 131.604 L1944.12 131.604 L1944.12 126.21 Z" fill="#000000" fill-rule="nonzero" fill-opacity="1"></path><path clip-path="url(#clip990)" d="M1978.84 146.581 L1978.84 162.229 L1974.58 162.229 L1974.58 146.719 Q1974.58 143.039 1973.14 141.21 Q1971.71 139.382 1968.84 139.382 Q1965.39 139.382 1963.4 141.581 Q1961.41 143.78 1961.41 147.576 L1961.41 162.229 L1957.12 162.229 L1957.12 136.303 L1961.41 136.303 L1961.41 140.331 Q1962.94 137.993 1965 136.835 Q1967.08 135.678 1969.79 135.678 Q1974.25 135.678 1976.55 138.456 Q1978.84 141.21 1978.84 146.581 Z" fill="#000000" fill-rule="nonzero" fill-opacity="1"></path><path clip-path="url(#clip990)" d="M1986.89 151.997 L1986.89 136.303 L1991.15 136.303 L1991.15 151.835 Q1991.15 155.516 1992.59 157.368 Q1994.02 159.196 1996.89 159.196 Q2000.34 159.196 2002.33 156.997 Q2004.35 154.798 2004.35 151.002 L2004.35 136.303 L2008.61 136.303 L2008.61 162.229 L2004.35 162.229 L2004.35 158.247 Q2002.8 160.608 2000.74 161.766 Q1998.7 162.9 1995.99 162.9 Q1991.52 162.9 1989.21 160.122 Q1986.89 157.344 1986.89 151.997 M1997.61 135.678 L1997.61 135.678 Z" fill="#000000" fill-rule="nonzero" fill-opacity="1"></path><path clip-path="url(#clip990)" d="M2027.43 139.289 Q2024 139.289 2022.01 141.974 Q2020.02 144.636 2020.02 149.289 Q2020.02 153.942 2021.99 156.627 Q2023.98 159.289 2027.43 159.289 Q2030.83 159.289 2032.82 156.604 Q2034.81 153.918 2034.81 149.289 Q2034.81 144.682 2032.82 141.997 Q2030.83 139.289 2027.43 139.289 M2027.43 135.678 Q2032.98 135.678 2036.15 139.289 Q2039.32 142.9 2039.32 149.289 Q2039.32 155.655 2036.15 159.289 Q2032.98 162.9 2027.43 162.9 Q2021.85 162.9 2018.68 159.289 Q2015.53 155.655 2015.53 149.289 Q2015.53 142.9 2018.68 139.289 Q2021.85 135.678 2027.43 135.678 Z" fill="#000000" fill-rule="nonzero" fill-opacity="1"></path><path clip-path="url(#clip990)" d="M2045.94 151.997 L2045.94 136.303 L2050.2 136.303 L2050.2 151.835 Q2050.2 155.516 2051.64 157.368 Q2053.07 159.196 2055.94 159.196 Q2059.39 159.196 2061.38 156.997 Q2063.4 154.798 2063.4 151.002 L2063.4 136.303 L2067.66 136.303 L2067.66 162.229 L2063.4 162.229 L2063.4 158.247 Q2061.85 160.608 2059.79 161.766 Q2057.75 162.9 2055.04 162.9 Q2050.57 162.9 2048.26 160.122 Q2045.94 157.344 2045.94 151.997 M2056.66 135.678 L2056.66 135.678 Z" fill="#000000" fill-rule="nonzero" fill-opacity="1"></path><path clip-path="url(#clip990)" d="M2092.96 137.067 L2092.96 141.094 Q2091.15 140.169 2089.21 139.706 Q2087.26 139.243 2085.18 139.243 Q2082.01 139.243 2080.41 140.215 Q2078.84 141.187 2078.84 143.131 Q2078.84 144.613 2079.97 145.469 Q2081.11 146.303 2084.53 147.067 L2085.99 147.391 Q2090.53 148.363 2092.43 150.145 Q2094.35 151.905 2094.35 155.076 Q2094.35 158.687 2091.48 160.793 Q2088.63 162.9 2083.63 162.9 Q2081.55 162.9 2079.28 162.483 Q2077.03 162.09 2074.53 161.28 L2074.53 156.881 Q2076.89 158.108 2079.18 158.733 Q2081.48 159.335 2083.72 159.335 Q2086.73 159.335 2088.35 158.317 Q2089.97 157.275 2089.97 155.4 Q2089.97 153.664 2088.79 152.738 Q2087.63 151.812 2083.68 150.956 L2082.19 150.608 Q2078.24 149.775 2076.48 148.062 Q2074.72 146.326 2074.72 143.317 Q2074.72 139.659 2077.31 137.669 Q2079.9 135.678 2084.67 135.678 Q2087.03 135.678 2089.12 136.025 Q2091.2 136.372 2092.96 137.067 Z" fill="#000000" fill-rule="nonzero" fill-opacity="1"></path><path clip-path="url(#clip990)" d="M2116.38 127.669 L2121.06 127.669 L2121.06 142.275 L2136.57 127.669 L2142.59 127.669 L2125.43 143.78 L2143.81 162.229 L2137.66 162.229 L2121.06 145.585 L2121.06 162.229 L2116.38 162.229 L2116.38 127.669 Z" fill="#000000" fill-rule="nonzero" fill-opacity="1"></path><path clip-path="url(#clip990)" d="M2152.15 131.511 L2152.15 158.386 L2157.8 158.386 Q2164.95 158.386 2168.26 155.145 Q2171.59 151.905 2171.59 144.914 Q2171.59 137.969 2168.26 134.752 Q2164.95 131.511 2157.8 131.511 L2152.15 131.511 M2147.47 127.669 L2157.08 127.669 Q2167.12 127.669 2171.82 131.858 Q2176.52 136.025 2176.52 144.914 Q2176.52 153.849 2171.8 158.039 Q2167.08 162.229 2157.08 162.229 L2147.47 162.229 L2147.47 127.669 Z" fill="#000000" fill-rule="nonzero" fill-opacity="1"></path><path clip-path="url(#clip990)" d="M2183.98 127.669 L2205.83 127.669 L2205.83 131.604 L2188.65 131.604 L2188.65 141.835 L2205.11 141.835 L2205.11 145.77 L2188.65 145.77 L2188.65 158.293 L2206.24 158.293 L2206.24 162.229 L2183.98 162.229 L2183.98 127.669 Z" fill="#000000" fill-rule="nonzero" fill-opacity="1"></path><circle clip-path="url(#clip990)" cx="1746.45" cy="196.789" r="20.48" fill="#0000ff" fill-rule="evenodd" fill-opacity="1" stroke="#000000" stroke-opacity="1" stroke-width="4.55111"></circle>
<path clip-path="url(#clip990)" d="M1838.56 179.509 L1843.24 179.509 L1843.24 194.115 L1858.75 179.509 L1864.76 179.509 L1847.61 195.62 L1865.99 214.069 L1859.83 214.069 L1843.24 197.425 L1843.24 214.069 L1838.56 214.069 L1838.56 179.509 Z" fill="#000000" fill-rule="nonzero" fill-opacity="1"></path><path clip-path="url(#clip990)" d="M1874.32 183.351 L1874.32 210.226 L1879.97 210.226 Q1887.13 210.226 1890.44 206.985 Q1893.77 203.745 1893.77 196.754 Q1893.77 189.809 1890.44 186.592 Q1887.13 183.351 1879.97 183.351 L1874.32 183.351 M1869.65 179.509 L1879.26 179.509 Q1889.3 179.509 1894 183.698 Q1898.7 187.865 1898.7 196.754 Q1898.7 205.689 1893.98 209.879 Q1889.25 214.069 1879.26 214.069 L1869.65 214.069 L1869.65 179.509 Z" fill="#000000" fill-rule="nonzero" fill-opacity="1"></path><path clip-path="url(#clip990)" d="M1906.15 179.509 L1928 179.509 L1928 183.444 L1910.83 183.444 L1910.83 193.675 L1927.29 193.675 L1927.29 197.61 L1910.83 197.61 L1910.83 210.133 L1928.42 210.133 L1928.42 214.069 L1906.15 214.069 L1906.15 179.509 Z" fill="#000000" fill-rule="nonzero" fill-opacity="1"></path><path clip-path="url(#clip990)" d="M1968.05 192.078 L1968.05 178.05 L1972.31 178.05 L1972.31 214.069 L1968.05 214.069 L1968.05 210.18 Q1966.71 212.495 1964.65 213.629 Q1962.61 214.74 1959.74 214.74 Q1955.04 214.74 1952.08 210.99 Q1949.14 207.24 1949.14 201.129 Q1949.14 195.018 1952.08 191.268 Q1955.04 187.518 1959.74 187.518 Q1962.61 187.518 1964.65 188.652 Q1966.71 189.763 1968.05 192.078 M1953.54 201.129 Q1953.54 205.828 1955.46 208.513 Q1957.4 211.175 1960.78 211.175 Q1964.16 211.175 1966.11 208.513 Q1968.05 205.828 1968.05 201.129 Q1968.05 196.43 1966.11 193.768 Q1964.16 191.083 1960.78 191.083 Q1957.4 191.083 1955.46 193.768 Q1953.54 196.43 1953.54 201.129 Z" fill="#000000" fill-rule="nonzero" fill-opacity="1"></path><path clip-path="url(#clip990)" d="M1981.08 188.143 L1985.34 188.143 L1985.34 214.069 L1981.08 214.069 L1981.08 188.143 M1981.08 178.05 L1985.34 178.05 L1985.34 183.444 L1981.08 183.444 L1981.08 178.05 Z" fill="#000000" fill-rule="nonzero" fill-opacity="1"></path><path clip-path="url(#clip990)" d="M2010.78 188.907 L2010.78 192.934 Q2008.98 192.009 2007.03 191.546 Q2005.09 191.083 2003 191.083 Q1999.83 191.083 1998.24 192.055 Q1996.66 193.027 1996.66 194.971 Q1996.66 196.453 1997.8 197.309 Q1998.93 198.143 2002.36 198.907 L2003.81 199.231 Q2008.35 200.203 2010.25 201.985 Q2012.17 203.745 2012.17 206.916 Q2012.17 210.527 2009.3 212.633 Q2006.45 214.74 2001.45 214.74 Q1999.37 214.74 1997.1 214.323 Q1994.86 213.93 1992.36 213.12 L1992.36 208.721 Q1994.72 209.948 1997.01 210.573 Q1999.3 211.175 2001.55 211.175 Q2004.56 211.175 2006.18 210.157 Q2007.8 209.115 2007.8 207.24 Q2007.8 205.504 2006.62 204.578 Q2005.46 203.652 2001.5 202.796 L2000.02 202.448 Q1996.06 201.615 1994.3 199.902 Q1992.54 198.166 1992.54 195.157 Q1992.54 191.499 1995.13 189.509 Q1997.73 187.518 2002.5 187.518 Q2004.86 187.518 2006.94 187.865 Q2009.02 188.212 2010.78 188.907 Z" fill="#000000" fill-rule="nonzero" fill-opacity="1"></path><path clip-path="url(#clip990)" d="M2037.61 189.138 L2037.61 193.12 Q2035.81 192.124 2033.98 191.638 Q2032.17 191.129 2030.32 191.129 Q2026.18 191.129 2023.88 193.768 Q2021.59 196.384 2021.59 201.129 Q2021.59 205.874 2023.88 208.513 Q2026.18 211.129 2030.32 211.129 Q2032.17 211.129 2033.98 210.643 Q2035.81 210.133 2037.61 209.138 L2037.61 213.073 Q2035.83 213.907 2033.91 214.323 Q2032.01 214.74 2029.86 214.74 Q2024 214.74 2020.55 211.059 Q2017.1 207.379 2017.1 201.129 Q2017.1 194.786 2020.57 191.152 Q2024.07 187.518 2030.13 187.518 Q2032.1 187.518 2033.98 187.935 Q2035.85 188.328 2037.61 189.138 Z" fill="#000000" fill-rule="nonzero" fill-opacity="1"></path><path clip-path="url(#clip990)" d="M2060.04 192.124 Q2059.32 191.708 2058.47 191.522 Q2057.63 191.314 2056.62 191.314 Q2053 191.314 2051.06 193.675 Q2049.14 196.013 2049.14 200.411 L2049.14 214.069 L2044.86 214.069 L2044.86 188.143 L2049.14 188.143 L2049.14 192.171 Q2050.48 189.809 2052.63 188.675 Q2054.79 187.518 2057.87 187.518 Q2058.3 187.518 2058.84 187.587 Q2059.37 187.634 2060.02 187.749 L2060.04 192.124 Z" fill="#000000" fill-rule="nonzero" fill-opacity="1"></path><path clip-path="url(#clip990)" d="M2085.64 200.041 L2085.64 202.124 L2066.06 202.124 Q2066.34 206.522 2068.7 208.837 Q2071.08 211.129 2075.32 211.129 Q2077.77 211.129 2080.06 210.527 Q2082.38 209.925 2084.65 208.721 L2084.65 212.749 Q2082.36 213.721 2079.95 214.231 Q2077.54 214.74 2075.06 214.74 Q2068.86 214.74 2065.23 211.129 Q2061.62 207.518 2061.62 201.36 Q2061.62 194.995 2065.04 191.268 Q2068.49 187.518 2074.32 187.518 Q2079.55 187.518 2082.59 190.897 Q2085.64 194.254 2085.64 200.041 M2081.38 198.791 Q2081.34 195.296 2079.42 193.212 Q2077.52 191.129 2074.37 191.129 Q2070.8 191.129 2068.65 193.143 Q2066.52 195.157 2066.2 198.814 L2081.38 198.791 Z" fill="#000000" fill-rule="nonzero" fill-opacity="1"></path><path clip-path="url(#clip990)" d="M2096.85 180.782 L2096.85 188.143 L2105.62 188.143 L2105.62 191.453 L2096.85 191.453 L2096.85 205.527 Q2096.85 208.698 2097.7 209.601 Q2098.58 210.504 2101.24 210.504 L2105.62 210.504 L2105.62 214.069 L2101.24 214.069 Q2096.31 214.069 2094.44 212.24 Q2092.56 210.388 2092.56 205.527 L2092.56 191.453 L2089.44 191.453 L2089.44 188.143 L2092.56 188.143 L2092.56 180.782 L2096.85 180.782 Z" fill="#000000" fill-rule="nonzero" fill-opacity="1"></path><path clip-path="url(#clip990)" d="M2111.22 188.143 L2115.48 188.143 L2115.48 214.069 L2111.22 214.069 L2111.22 188.143 M2111.22 178.05 L2115.48 178.05 L2115.48 183.444 L2111.22 183.444 L2111.22 178.05 Z" fill="#000000" fill-rule="nonzero" fill-opacity="1"></path><path clip-path="url(#clip990)" d="M2122.54 188.143 L2142.77 188.143 L2142.77 192.032 L2126.75 210.666 L2142.77 210.666 L2142.77 214.069 L2121.96 214.069 L2121.96 210.18 L2137.98 191.546 L2122.54 191.546 L2122.54 188.143 Z" fill="#000000" fill-rule="nonzero" fill-opacity="1"></path><path clip-path="url(#clip990)" d="M2161.06 201.036 Q2155.9 201.036 2153.91 202.217 Q2151.92 203.397 2151.92 206.245 Q2151.92 208.513 2153.4 209.856 Q2154.9 211.175 2157.47 211.175 Q2161.01 211.175 2163.14 208.675 Q2165.3 206.152 2165.3 201.985 L2165.3 201.036 L2161.06 201.036 M2169.55 199.277 L2169.55 214.069 L2165.3 214.069 L2165.3 210.133 Q2163.84 212.495 2161.66 213.629 Q2159.49 214.74 2156.34 214.74 Q2152.36 214.74 2149.99 212.518 Q2147.66 210.272 2147.66 206.522 Q2147.66 202.147 2150.57 199.925 Q2153.51 197.703 2159.32 197.703 L2165.3 197.703 L2165.3 197.286 Q2165.3 194.347 2163.35 192.749 Q2161.43 191.129 2157.93 191.129 Q2155.71 191.129 2153.61 191.661 Q2151.5 192.194 2149.55 193.259 L2149.55 189.323 Q2151.89 188.421 2154.09 187.981 Q2156.29 187.518 2158.37 187.518 Q2164 187.518 2166.78 190.434 Q2169.55 193.351 2169.55 199.277 Z" fill="#000000" fill-rule="nonzero" fill-opacity="1"></path><path clip-path="url(#clip990)" d="M2182.54 180.782 L2182.54 188.143 L2191.31 188.143 L2191.31 191.453 L2182.54 191.453 L2182.54 205.527 Q2182.54 208.698 2183.4 209.601 Q2184.28 210.504 2186.94 210.504 L2191.31 210.504 L2191.31 214.069 L2186.94 214.069 Q2182.01 214.069 2180.13 212.24 Q2178.26 210.388 2178.26 205.527 L2178.26 191.453 L2175.13 191.453 L2175.13 188.143 L2178.26 188.143 L2178.26 180.782 L2182.54 180.782 Z" fill="#000000" fill-rule="nonzero" fill-opacity="1"></path><path clip-path="url(#clip990)" d="M2196.92 188.143 L2201.17 188.143 L2201.17 214.069 L2196.92 214.069 L2196.92 188.143 M2196.92 178.05 L2201.17 178.05 L2201.17 183.444 L2196.92 183.444 L2196.92 178.05 Z" fill="#000000" fill-rule="nonzero" fill-opacity="1"></path><path clip-path="url(#clip990)" d="M2220.13 191.129 Q2216.71 191.129 2214.72 193.814 Q2212.73 196.476 2212.73 201.129 Q2212.73 205.782 2214.69 208.467 Q2216.68 211.129 2220.13 211.129 Q2223.54 211.129 2225.53 208.444 Q2227.52 205.758 2227.52 201.129 Q2227.52 196.522 2225.53 193.837 Q2223.54 191.129 2220.13 191.129 M2220.13 187.518 Q2225.69 187.518 2228.86 191.129 Q2232.03 194.74 2232.03 201.129 Q2232.03 207.495 2228.86 211.129 Q2225.69 214.74 2220.13 214.74 Q2214.55 214.74 2211.38 211.129 Q2208.23 207.495 2208.23 201.129 Q2208.23 194.74 2211.38 191.129 Q2214.55 187.518 2220.13 187.518 Z" fill="#000000" fill-rule="nonzero" fill-opacity="1"></path><path clip-path="url(#clip990)" d="M2260.64 198.421 L2260.64 214.069 L2256.38 214.069 L2256.38 198.559 Q2256.38 194.879 2254.95 193.05 Q2253.51 191.222 2250.64 191.222 Q2247.19 191.222 2245.2 193.421 Q2243.21 195.62 2243.21 199.416 L2243.21 214.069 L2238.93 214.069 L2238.93 188.143 L2243.21 188.143 L2243.21 192.171 Q2244.74 189.833 2246.8 188.675 Q2248.88 187.518 2251.59 187.518 Q2256.06 187.518 2258.35 190.296 Q2260.64 193.05 2260.64 198.421 Z" fill="#000000" fill-rule="nonzero" fill-opacity="1"></path></svg>