<svg xmlns="http://www.w3.org/2000/svg" xmlns:xlink="http://www.w3.org/1999/xlink" width="600" height="400" viewBox="0 0 2400 1600">
<defs>
  <clipPath id="clip640">
    <rect x="0" y="0" width="2400" height="1600"></rect>
  </clipPath>
</defs>
<path clip-path="url(#clip640)" d="M0 1600 L2400 1600 L2400 0 L0 0  Z" fill="#ffffff" fill-rule="evenodd" fill-opacity="1"></path>
<defs>
  <clipPath id="clip641">
    <rect x="480" y="0" width="1681" height="1600"></rect>
  </clipPath>
</defs>
<path clip-path="url(#clip640)" d="M338.719 1384.3 L2352.76 1384.3 L2352.76 47.2441 L338.719 47.2441  Z" fill="#ffffff" fill-rule="evenodd" fill-opacity="1"></path>
<defs>
  <clipPath id="clip642">
    <rect x="338" y="47" width="2015" height="1338"></rect>
  </clipPath>
</defs>
<polyline clip-path="url(#clip642)" style="stroke:#000000; stroke-linecap:round; stroke-linejoin:round; stroke-width:2; stroke-opacity:0.1; fill:none" points="385.808,1384.3 385.808,47.2441 "></polyline>
<polyline clip-path="url(#clip642)" style="stroke:#000000; stroke-linecap:round; stroke-linejoin:round; stroke-width:2; stroke-opacity:0.1; fill:none" points="722.247,1384.3 722.247,47.2441 "></polyline>
<polyline clip-path="url(#clip642)" style="stroke:#000000; stroke-linecap:round; stroke-linejoin:round; stroke-width:2; stroke-opacity:0.1; fill:none" points="1058.69,1384.3 1058.69,47.2441 "></polyline>
<polyline clip-path="url(#clip642)" style="stroke:#000000; stroke-linecap:round; stroke-linejoin:round; stroke-width:2; stroke-opacity:0.1; fill:none" points="1395.13,1384.3 1395.13,47.2441 "></polyline>
<polyline clip-path="url(#clip642)" style="stroke:#000000; stroke-linecap:round; stroke-linejoin:round; stroke-width:2; stroke-opacity:0.1; fill:none" points="1731.57,1384.3 1731.57,47.2441 "></polyline>
<polyline clip-path="url(#clip642)" style="stroke:#000000; stroke-linecap:round; stroke-linejoin:round; stroke-width:2; stroke-opacity:0.1; fill:none" points="2068.01,1384.3 2068.01,47.2441 "></polyline>
<polyline clip-path="url(#clip640)" style="stroke:#000000; stroke-linecap:round; stroke-linejoin:round; stroke-width:4; stroke-opacity:1; fill:none" points="338.719,1384.3 2352.76,1384.3 "></polyline>
<polyline clip-path="url(#clip640)" style="stroke:#000000; stroke-linecap:round; stroke-linejoin:round; stroke-width:4; stroke-opacity:1; fill:none" points="385.808,1384.3 385.808,1365.4 "></polyline>
<polyline clip-path="url(#clip640)" style="stroke:#000000; stroke-linecap:round; stroke-linejoin:round; stroke-width:4; stroke-opacity:1; fill:none" points="722.247,1384.3 722.247,1365.4 "></polyline>
<polyline clip-path="url(#clip640)" style="stroke:#000000; stroke-linecap:round; stroke-linejoin:round; stroke-width:4; stroke-opacity:1; fill:none" points="1058.69,1384.3 1058.69,1365.4 "></polyline>
<polyline clip-path="url(#clip640)" style="stroke:#000000; stroke-linecap:round; stroke-linejoin:round; stroke-width:4; stroke-opacity:1; fill:none" points="1395.13,1384.3 1395.13,1365.4 "></polyline>
<polyline clip-path="url(#clip640)" style="stroke:#000000; stroke-linecap:round; stroke-linejoin:round; stroke-width:4; stroke-opacity:1; fill:none" points="1731.57,1384.3 1731.57,1365.4 "></polyline>
<polyline clip-path="url(#clip640)" style="stroke:#000000; stroke-linecap:round; stroke-linejoin:round; stroke-width:4; stroke-opacity:1; fill:none" points="2068.01,1384.3 2068.01,1365.4 "></polyline>
<path clip-path="url(#clip640)" d="M372.097 1448.25 Q372.542 1448.7 372.542 1449.33 Q372.542 1449.96 372.097 1450.4 Q371.653 1450.85 371.023 1450.85 L323.518 1450.85 Q322.888 1450.85 322.444 1450.4 Q321.999 1449.96 321.999 1449.33 Q321.999 1448.7 322.444 1448.25 Q322.888 1447.81 323.518 1447.81 L371.023 1447.81 Q371.653 1447.81 372.097 1448.25 Z" fill="#000000" fill-rule="nonzero" fill-opacity="1"></path><path clip-path="url(#clip640)" d="M380.546 1456.07 Q380.546 1453.81 381.769 1452.96 Q382.992 1452.07 384.288 1452.07 Q386.03 1452.07 387.031 1453.18 Q388.068 1454.26 388.068 1455.78 Q388.068 1457.29 387.031 1458.41 Q386.03 1459.48 384.288 1459.48 Q383.436 1459.48 382.992 1459.33 Q383.992 1462.82 387.031 1465.34 Q390.106 1467.86 394.145 1467.86 Q399.222 1467.86 402.26 1462.93 Q404.076 1459.74 404.076 1452.51 Q404.076 1446.14 402.705 1442.95 Q400.593 1438.1 396.257 1438.1 Q390.106 1438.1 386.475 1443.4 Q386.03 1444.07 385.511 1444.1 Q384.77 1444.1 384.585 1443.7 Q384.437 1443.25 384.437 1442.1 L384.437 1419.65 Q384.437 1417.83 385.178 1417.83 Q385.474 1417.83 386.104 1418.05 Q390.884 1420.17 396.183 1420.2 Q401.63 1420.2 406.521 1417.98 Q406.892 1417.76 407.114 1417.76 Q407.855 1417.76 407.893 1418.61 Q407.893 1418.91 407.263 1419.79 Q406.67 1420.65 405.373 1421.8 Q404.076 1422.91 402.408 1423.98 Q400.741 1425.06 398.295 1425.8 Q395.887 1426.5 393.219 1426.5 Q390.032 1426.5 386.771 1425.5 L386.771 1440.29 Q390.699 1436.43 396.405 1436.43 Q402.482 1436.43 406.67 1441.32 Q410.857 1446.22 410.857 1453.03 Q410.857 1460.18 405.892 1465.08 Q400.963 1469.97 394.293 1469.97 Q388.216 1469.97 384.363 1465.63 Q380.546 1461.3 380.546 1456.07 Z" fill="#000000" fill-rule="nonzero" fill-opacity="1"></path><path clip-path="url(#clip640)" d="M417.675 1444.03 Q417.675 1432.88 420.491 1426.8 Q424.419 1417.76 433.683 1417.76 Q435.647 1417.76 437.685 1418.31 Q439.76 1418.83 442.354 1420.87 Q444.985 1422.91 446.578 1426.24 Q449.616 1432.69 449.616 1444.03 Q449.616 1455.11 446.8 1461.15 Q442.687 1469.97 433.609 1469.97 Q430.2 1469.97 426.716 1468.23 Q423.27 1466.48 421.084 1462.3 Q417.675 1456.03 417.675 1444.03 M423.974 1443.1 Q423.974 1454.55 424.79 1459.11 Q425.716 1464.04 428.236 1466.19 Q430.793 1468.3 433.609 1468.3 Q436.647 1468.3 439.167 1466.04 Q441.724 1463.74 442.502 1458.81 Q443.354 1453.96 443.317 1443.1 Q443.317 1432.54 442.576 1428.32 Q441.576 1423.39 438.908 1421.43 Q436.277 1419.42 433.609 1419.42 Q432.608 1419.42 431.534 1419.72 Q430.496 1420.02 428.977 1420.87 Q427.458 1421.72 426.272 1423.83 Q425.123 1425.95 424.567 1429.13 Q423.974 1433.25 423.974 1443.1 Z" fill="#000000" fill-rule="nonzero" fill-opacity="1"></path><path clip-path="url(#clip640)" d="M706.277 1444.03 Q706.277 1432.88 709.093 1426.8 Q713.021 1417.76 722.284 1417.76 Q724.248 1417.76 726.286 1418.31 Q728.361 1418.83 730.955 1420.87 Q733.586 1422.91 735.18 1426.24 Q738.218 1432.69 738.218 1444.03 Q738.218 1455.11 735.402 1461.15 Q731.289 1469.97 722.21 1469.97 Q718.801 1469.97 715.318 1468.23 Q711.872 1466.48 709.686 1462.3 Q706.277 1456.03 706.277 1444.03 M712.576 1443.1 Q712.576 1454.55 713.391 1459.11 Q714.318 1464.04 716.837 1466.19 Q719.394 1468.3 722.21 1468.3 Q725.249 1468.3 727.769 1466.04 Q730.325 1463.74 731.104 1458.81 Q731.956 1453.96 731.919 1443.1 Q731.919 1432.54 731.178 1428.32 Q730.177 1423.39 727.509 1421.43 Q724.878 1419.42 722.21 1419.42 Q721.21 1419.42 720.135 1419.72 Q719.098 1420.02 717.578 1420.87 Q716.059 1421.72 714.873 1423.83 Q713.725 1425.95 713.169 1429.13 Q712.576 1433.25 712.576 1443.1 Z" fill="#000000" fill-rule="nonzero" fill-opacity="1"></path><path clip-path="url(#clip640)" d="M1024.15 1456.07 Q1024.15 1453.81 1025.37 1452.96 Q1026.6 1452.07 1027.89 1452.07 Q1029.64 1452.07 1030.64 1453.18 Q1031.67 1454.26 1031.67 1455.78 Q1031.67 1457.29 1030.64 1458.41 Q1029.64 1459.48 1027.89 1459.48 Q1027.04 1459.48 1026.6 1459.33 Q1027.6 1462.82 1030.64 1465.34 Q1033.71 1467.86 1037.75 1467.86 Q1042.83 1467.86 1045.87 1462.93 Q1047.68 1459.74 1047.68 1452.51 Q1047.68 1446.14 1046.31 1442.95 Q1044.2 1438.1 1039.86 1438.1 Q1033.71 1438.1 1030.08 1443.4 Q1029.64 1444.07 1029.12 1444.1 Q1028.38 1444.1 1028.19 1443.7 Q1028.04 1443.25 1028.04 1442.1 L1028.04 1419.65 Q1028.04 1417.83 1028.78 1417.83 Q1029.08 1417.83 1029.71 1418.05 Q1034.49 1420.17 1039.79 1420.2 Q1045.24 1420.2 1050.13 1417.98 Q1050.5 1417.76 1050.72 1417.76 Q1051.46 1417.76 1051.5 1418.61 Q1051.5 1418.91 1050.87 1419.79 Q1050.28 1420.65 1048.98 1421.8 Q1047.68 1422.91 1046.01 1423.98 Q1044.35 1425.06 1041.9 1425.8 Q1039.49 1426.5 1036.82 1426.5 Q1033.64 1426.5 1030.38 1425.5 L1030.38 1440.29 Q1034.3 1436.43 1040.01 1436.43 Q1046.09 1436.43 1050.28 1441.32 Q1054.46 1446.22 1054.46 1453.03 Q1054.46 1460.18 1049.5 1465.08 Q1044.57 1469.97 1037.9 1469.97 Q1031.82 1469.97 1027.97 1465.63 Q1024.15 1461.3 1024.15 1456.07 Z" fill="#000000" fill-rule="nonzero" fill-opacity="1"></path><path clip-path="url(#clip640)" d="M1061.28 1444.03 Q1061.28 1432.88 1064.1 1426.8 Q1068.02 1417.76 1077.29 1417.76 Q1079.25 1417.76 1081.29 1418.31 Q1083.37 1418.83 1085.96 1420.87 Q1088.59 1422.91 1090.18 1426.24 Q1093.22 1432.69 1093.22 1444.03 Q1093.22 1455.11 1090.41 1461.15 Q1086.29 1469.97 1077.21 1469.97 Q1073.81 1469.97 1070.32 1468.23 Q1066.88 1466.48 1064.69 1462.3 Q1061.28 1456.03 1061.28 1444.03 M1067.58 1443.1 Q1067.58 1454.55 1068.4 1459.11 Q1069.32 1464.04 1071.84 1466.19 Q1074.4 1468.3 1077.21 1468.3 Q1080.25 1468.3 1082.77 1466.04 Q1085.33 1463.74 1086.11 1458.81 Q1086.96 1453.96 1086.92 1443.1 Q1086.92 1432.54 1086.18 1428.32 Q1085.18 1423.39 1082.51 1421.43 Q1079.88 1419.42 1077.21 1419.42 Q1076.21 1419.42 1075.14 1419.72 Q1074.1 1420.02 1072.58 1420.87 Q1071.06 1421.72 1069.88 1423.83 Q1068.73 1425.95 1068.17 1429.13 Q1067.58 1433.25 1067.58 1443.1 Z" fill="#000000" fill-rule="nonzero" fill-opacity="1"></path><path clip-path="url(#clip640)" d="M1343.1 1424.98 L1343.1 1422.61 Q1352.22 1422.61 1356.92 1417.76 Q1358.22 1417.76 1358.44 1418.05 Q1358.66 1418.35 1358.66 1419.72 L1358.66 1462.3 Q1358.66 1464.56 1359.78 1465.26 Q1360.89 1465.97 1365.74 1465.97 L1368.15 1465.97 L1368.15 1468.3 Q1365.48 1468.08 1355.85 1468.08 Q1346.21 1468.08 1343.58 1468.3 L1343.58 1465.97 L1345.99 1465.97 Q1350.77 1465.97 1351.92 1465.3 Q1353.07 1464.59 1353.07 1462.3 L1353.07 1422.98 Q1349.1 1424.98 1343.1 1424.98 Z" fill="#000000" fill-rule="nonzero" fill-opacity="1"></path><path clip-path="url(#clip640)" d="M1377.27 1444.03 Q1377.27 1432.88 1380.08 1426.8 Q1384.01 1417.76 1393.27 1417.76 Q1395.24 1417.76 1397.28 1418.31 Q1399.35 1418.83 1401.94 1420.87 Q1404.58 1422.91 1406.17 1426.24 Q1409.21 1432.69 1409.21 1444.03 Q1409.21 1455.11 1406.39 1461.15 Q1402.28 1469.97 1393.2 1469.97 Q1389.79 1469.97 1386.31 1468.23 Q1382.86 1466.48 1380.68 1462.3 Q1377.27 1456.03 1377.27 1444.03 M1383.57 1443.1 Q1383.57 1454.55 1384.38 1459.11 Q1385.31 1464.04 1387.83 1466.19 Q1390.38 1468.3 1393.2 1468.3 Q1396.24 1468.3 1398.76 1466.04 Q1401.31 1463.74 1402.09 1458.81 Q1402.95 1453.96 1402.91 1443.1 Q1402.91 1432.54 1402.17 1428.32 Q1401.17 1423.39 1398.5 1421.43 Q1395.87 1419.42 1393.2 1419.42 Q1392.2 1419.42 1391.12 1419.72 Q1390.09 1420.02 1388.57 1420.87 Q1387.05 1421.72 1385.86 1423.83 Q1384.71 1425.95 1384.16 1429.13 Q1383.57 1433.25 1383.57 1443.1 Z" fill="#000000" fill-rule="nonzero" fill-opacity="1"></path><path clip-path="url(#clip640)" d="M1415.21 1444.03 Q1415.21 1432.88 1418.03 1426.8 Q1421.95 1417.76 1431.22 1417.76 Q1433.18 1417.76 1435.22 1418.31 Q1437.3 1418.83 1439.89 1420.87 Q1442.52 1422.91 1444.11 1426.24 Q1447.15 1432.69 1447.15 1444.03 Q1447.15 1455.11 1444.34 1461.15 Q1440.22 1469.97 1431.14 1469.97 Q1427.74 1469.97 1424.25 1468.23 Q1420.81 1466.48 1418.62 1462.3 Q1415.21 1456.03 1415.21 1444.03 M1421.51 1443.1 Q1421.51 1454.55 1422.33 1459.11 Q1423.25 1464.04 1425.77 1466.19 Q1428.33 1468.3 1431.14 1468.3 Q1434.18 1468.3 1436.7 1466.04 Q1439.26 1463.74 1440.04 1458.81 Q1440.89 1453.96 1440.85 1443.1 Q1440.85 1432.54 1440.11 1428.32 Q1439.11 1423.39 1436.44 1421.43 Q1433.81 1419.42 1431.14 1419.42 Q1430.14 1419.42 1429.07 1419.72 Q1428.03 1420.02 1426.51 1420.87 Q1424.99 1421.72 1423.81 1423.83 Q1422.66 1425.95 1422.1 1429.13 Q1421.51 1433.25 1421.51 1443.1 Z" fill="#000000" fill-rule="nonzero" fill-opacity="1"></path><path clip-path="url(#clip640)" d="M1679.54 1424.98 L1679.54 1422.61 Q1688.66 1422.61 1693.36 1417.76 Q1694.66 1417.76 1694.88 1418.05 Q1695.1 1418.35 1695.1 1419.72 L1695.1 1462.3 Q1695.1 1464.56 1696.22 1465.26 Q1697.33 1465.97 1702.18 1465.97 L1704.59 1465.97 L1704.59 1468.3 Q1701.92 1468.08 1692.29 1468.08 Q1682.65 1468.08 1680.02 1468.3 L1680.02 1465.97 L1682.43 1465.97 Q1687.21 1465.97 1688.36 1465.3 Q1689.51 1464.59 1689.51 1462.3 L1689.51 1422.98 Q1685.54 1424.98 1679.54 1424.98 Z" fill="#000000" fill-rule="nonzero" fill-opacity="1"></path><path clip-path="url(#clip640)" d="M1714.52 1456.07 Q1714.52 1453.81 1715.74 1452.96 Q1716.97 1452.07 1718.26 1452.07 Q1720.01 1452.07 1721.01 1453.18 Q1722.04 1454.26 1722.04 1455.78 Q1722.04 1457.29 1721.01 1458.41 Q1720.01 1459.48 1718.26 1459.48 Q1717.41 1459.48 1716.97 1459.33 Q1717.97 1462.82 1721.01 1465.34 Q1724.08 1467.86 1728.12 1467.86 Q1733.2 1467.86 1736.24 1462.93 Q1738.05 1459.74 1738.05 1452.51 Q1738.05 1446.14 1736.68 1442.95 Q1734.57 1438.1 1730.23 1438.1 Q1724.08 1438.1 1720.45 1443.4 Q1720.01 1444.07 1719.49 1444.1 Q1718.75 1444.1 1718.56 1443.7 Q1718.41 1443.25 1718.41 1442.1 L1718.41 1419.65 Q1718.41 1417.83 1719.15 1417.83 Q1719.45 1417.83 1720.08 1418.05 Q1724.86 1420.17 1730.16 1420.2 Q1735.61 1420.2 1740.5 1417.98 Q1740.87 1417.76 1741.09 1417.76 Q1741.83 1417.76 1741.87 1418.61 Q1741.87 1418.91 1741.24 1419.79 Q1740.64 1420.65 1739.35 1421.8 Q1738.05 1422.91 1736.38 1423.98 Q1734.72 1425.06 1732.27 1425.8 Q1729.86 1426.5 1727.19 1426.5 Q1724.01 1426.5 1720.75 1425.5 L1720.75 1440.29 Q1724.67 1436.43 1730.38 1436.43 Q1736.46 1436.43 1740.64 1441.32 Q1744.83 1446.22 1744.83 1453.03 Q1744.83 1460.18 1739.87 1465.08 Q1734.94 1469.97 1728.27 1469.97 Q1722.19 1469.97 1718.34 1465.63 Q1714.52 1461.3 1714.52 1456.07 Z" fill="#000000" fill-rule="nonzero" fill-opacity="1"></path><path clip-path="url(#clip640)" d="M1751.65 1444.03 Q1751.65 1432.88 1754.47 1426.8 Q1758.39 1417.76 1767.66 1417.76 Q1769.62 1417.76 1771.66 1418.31 Q1773.74 1418.83 1776.33 1420.87 Q1778.96 1422.91 1780.55 1426.24 Q1783.59 1432.69 1783.59 1444.03 Q1783.59 1455.11 1780.78 1461.15 Q1776.66 1469.97 1767.58 1469.97 Q1764.17 1469.97 1760.69 1468.23 Q1757.25 1466.48 1755.06 1462.3 Q1751.65 1456.03 1751.65 1444.03 M1757.95 1443.1 Q1757.95 1454.55 1758.76 1459.11 Q1759.69 1464.04 1762.21 1466.19 Q1764.77 1468.3 1767.58 1468.3 Q1770.62 1468.3 1773.14 1466.04 Q1775.7 1463.74 1776.48 1458.81 Q1777.33 1453.96 1777.29 1443.1 Q1777.29 1432.54 1776.55 1428.32 Q1775.55 1423.39 1772.88 1421.43 Q1770.25 1419.42 1767.58 1419.42 Q1766.58 1419.42 1765.51 1419.72 Q1764.47 1420.02 1762.95 1420.87 Q1761.43 1421.72 1760.25 1423.83 Q1759.1 1425.95 1758.54 1429.13 Q1757.95 1433.25 1757.95 1443.1 Z" fill="#000000" fill-rule="nonzero" fill-opacity="1"></path><path clip-path="url(#clip640)" d="M2014.5 1468.3 Q2014.5 1466.93 2014.61 1466.52 Q2014.76 1466.11 2015.35 1465.48 L2029.91 1449.25 Q2037.88 1440.29 2037.88 1432.47 Q2037.88 1427.39 2035.21 1423.76 Q2032.58 1420.13 2027.73 1420.13 Q2024.39 1420.13 2021.58 1422.17 Q2018.76 1424.2 2017.46 1427.84 Q2017.69 1427.76 2018.46 1427.76 Q2020.35 1427.76 2021.39 1428.95 Q2022.47 1430.13 2022.47 1431.73 Q2022.47 1433.76 2021.13 1434.77 Q2019.83 1435.73 2018.54 1435.73 Q2018.02 1435.73 2017.31 1435.62 Q2016.65 1435.51 2015.57 1434.47 Q2014.5 1433.39 2014.5 1431.5 Q2014.5 1426.21 2018.5 1421.98 Q2022.54 1417.76 2028.69 1417.76 Q2035.66 1417.76 2040.21 1421.91 Q2044.81 1426.02 2044.81 1432.47 Q2044.81 1434.73 2044.11 1436.8 Q2043.44 1438.84 2042.51 1440.43 Q2041.62 1442.03 2039.18 1444.58 Q2036.73 1447.14 2034.77 1448.96 Q2032.8 1450.77 2028.39 1454.63 L2020.35 1462.45 L2034.03 1462.45 Q2040.7 1462.45 2041.22 1461.85 Q2041.96 1460.78 2042.88 1455.11 L2044.81 1455.11 L2042.66 1468.3 L2014.5 1468.3 Z" fill="#000000" fill-rule="nonzero" fill-opacity="1"></path><path clip-path="url(#clip640)" d="M2051.63 1444.03 Q2051.63 1432.88 2054.44 1426.8 Q2058.37 1417.76 2067.64 1417.76 Q2069.6 1417.76 2071.64 1418.31 Q2073.71 1418.83 2076.31 1420.87 Q2078.94 1422.91 2080.53 1426.24 Q2083.57 1432.69 2083.57 1444.03 Q2083.57 1455.11 2080.75 1461.15 Q2076.64 1469.97 2067.56 1469.97 Q2064.15 1469.97 2060.67 1468.23 Q2057.22 1466.48 2055.04 1462.3 Q2051.63 1456.03 2051.63 1444.03 M2057.93 1443.1 Q2057.93 1454.55 2058.74 1459.11 Q2059.67 1464.04 2062.19 1466.19 Q2064.75 1468.3 2067.56 1468.3 Q2070.6 1468.3 2073.12 1466.04 Q2075.68 1463.74 2076.45 1458.81 Q2077.31 1453.96 2077.27 1443.1 Q2077.27 1432.54 2076.53 1428.32 Q2075.53 1423.39 2072.86 1421.43 Q2070.23 1419.42 2067.56 1419.42 Q2066.56 1419.42 2065.49 1419.72 Q2064.45 1420.02 2062.93 1420.87 Q2061.41 1421.72 2060.22 1423.83 Q2059.08 1425.95 2058.52 1429.13 Q2057.93 1433.25 2057.93 1443.1 Z" fill="#000000" fill-rule="nonzero" fill-opacity="1"></path><path clip-path="url(#clip640)" d="M2089.57 1444.03 Q2089.57 1432.88 2092.39 1426.8 Q2096.32 1417.76 2105.58 1417.76 Q2107.54 1417.76 2109.58 1418.31 Q2111.66 1418.83 2114.25 1420.87 Q2116.88 1422.91 2118.48 1426.24 Q2121.51 1432.69 2121.51 1444.03 Q2121.51 1455.11 2118.7 1461.15 Q2114.58 1469.97 2105.51 1469.97 Q2102.1 1469.97 2098.61 1468.23 Q2095.17 1466.48 2092.98 1462.3 Q2089.57 1456.03 2089.57 1444.03 M2095.87 1443.1 Q2095.87 1454.55 2096.69 1459.11 Q2097.61 1464.04 2100.13 1466.19 Q2102.69 1468.3 2105.51 1468.3 Q2108.54 1468.3 2111.06 1466.04 Q2113.62 1463.74 2114.4 1458.81 Q2115.25 1453.96 2115.21 1443.1 Q2115.21 1432.54 2114.47 1428.32 Q2113.47 1423.39 2110.8 1421.43 Q2108.17 1419.42 2105.51 1419.42 Q2104.51 1419.42 2103.43 1419.72 Q2102.39 1420.02 2100.87 1420.87 Q2099.35 1421.72 2098.17 1423.83 Q2097.02 1425.95 2096.46 1429.13 Q2095.87 1433.25 2095.87 1443.1 Z" fill="#000000" fill-rule="nonzero" fill-opacity="1"></path><path clip-path="url(#clip640)" d="M865.307 1571.37 Q865.307 1562.77 875.435 1558.23 Q881.512 1555.31 894.061 1554.57 L894.061 1550.87 Q894.061 1544.59 890.751 1541.28 Q887.49 1537.92 883.34 1537.92 Q875.929 1537.92 872.372 1542.57 Q875.385 1542.66 876.472 1544.2 Q877.559 1545.68 877.559 1547.21 Q877.559 1549.24 876.275 1550.57 Q875.04 1551.85 872.915 1551.85 Q870.889 1551.85 869.555 1550.62 Q868.222 1549.33 868.222 1547.11 Q868.222 1542.17 872.668 1538.91 Q877.164 1535.65 883.538 1535.65 Q891.838 1535.65 897.371 1541.23 Q899.101 1542.96 899.941 1545.18 Q900.83 1547.41 900.929 1548.89 Q901.028 1550.32 901.028 1553.19 L901.028 1573.4 Q901.028 1573.99 901.225 1574.98 Q901.423 1575.96 902.312 1577.25 Q903.251 1578.48 904.782 1578.48 Q908.439 1578.48 908.389 1572.01 L908.389 1566.33 L910.958 1566.33 L910.958 1572.01 Q910.958 1577.4 908.093 1579.52 Q905.277 1581.6 902.658 1581.6 Q899.298 1581.6 897.174 1579.13 Q895.049 1576.66 894.753 1573.3 Q893.221 1577.15 889.713 1579.67 Q886.255 1582.14 881.512 1582.14 Q877.856 1582.14 874.397 1581.2 Q870.988 1580.31 868.123 1577.79 Q865.307 1575.22 865.307 1571.37 M873.113 1571.27 Q873.113 1575.03 875.781 1577.45 Q878.449 1579.87 882.204 1579.87 Q886.453 1579.87 890.257 1576.61 Q894.061 1573.3 894.061 1566.82 L894.061 1556.7 Q882.846 1557.09 877.955 1561.59 Q873.113 1566.03 873.113 1571.27 Z" fill="#000000" fill-rule="nonzero" fill-opacity="1"></path><path clip-path="url(#clip640)" d="M914.466 1589.01 Q914.466 1585.75 916.937 1582.93 Q919.456 1580.11 923.804 1578.88 Q919.357 1576.06 919.357 1569.89 Q919.357 1565.14 922.47 1561.49 Q917.727 1557.54 917.727 1551.06 Q917.727 1545.09 922.47 1540.69 Q927.213 1536.29 934.13 1536.29 Q940.207 1536.29 944.851 1539.95 Q949.693 1535.2 955.573 1535.15 Q958.191 1535.15 959.426 1536.78 Q960.711 1538.42 960.711 1540.14 Q960.711 1541.68 959.723 1542.42 Q958.784 1543.16 957.796 1543.16 Q956.561 1543.16 955.671 1542.37 Q954.831 1541.53 954.831 1540.24 Q954.831 1538.12 956.462 1537.48 Q956.165 1537.38 955.474 1537.38 Q950.533 1537.38 946.334 1541.33 Q950.484 1545.18 950.484 1551.16 Q950.484 1557.14 945.741 1561.54 Q940.998 1565.93 934.13 1565.93 Q928.448 1565.93 924.101 1562.77 Q922.371 1564.8 922.371 1567.57 Q922.371 1570.08 923.903 1572.06 Q925.434 1574.04 927.757 1574.33 Q928.448 1574.43 935.316 1574.43 Q939.367 1574.43 941.59 1574.53 Q943.814 1574.63 946.976 1575.32 Q950.187 1575.96 952.707 1577.25 Q959.278 1580.91 959.328 1588.81 Q959.328 1594.59 952.658 1598.2 Q946.037 1601.85 936.847 1601.85 Q927.559 1601.85 920.988 1598.15 Q914.466 1594.49 914.466 1589.01 M919.753 1589.01 Q919.753 1593.16 924.644 1596.32 Q929.535 1599.53 936.946 1599.53 Q944.209 1599.53 949.1 1596.37 Q954.041 1593.26 954.041 1589.01 Q954.041 1585.99 952.312 1584.07 Q950.583 1582.14 947.025 1581.35 Q943.517 1580.61 941.047 1580.46 Q938.577 1580.31 934.031 1580.31 L928.053 1580.31 Q924.595 1580.51 922.174 1583.03 Q919.753 1585.55 919.753 1589.01 M925.286 1551.16 Q925.286 1563.61 934.13 1563.61 Q938.577 1563.61 941.294 1559.56 Q942.924 1556.84 942.924 1551.06 Q942.924 1538.61 934.13 1538.61 Q929.683 1538.61 926.917 1542.66 Q925.286 1545.38 925.286 1551.16 Z" fill="#000000" fill-rule="nonzero" fill-opacity="1"></path><path clip-path="url(#clip640)" d="M965.059 1558.72 Q965.059 1549.19 971.185 1542.42 Q977.312 1535.65 986.106 1535.65 Q994.999 1535.65 999.594 1541.43 Q1004.24 1547.21 1004.24 1555.51 Q1004.24 1557.04 1003.84 1557.34 Q1003.45 1557.63 1001.72 1557.63 L973.458 1557.63 Q973.458 1567.96 976.521 1572.8 Q980.77 1579.57 987.934 1579.57 Q988.922 1579.57 990.108 1579.37 Q991.294 1579.18 993.715 1578.34 Q996.136 1577.45 998.26 1575.12 Q1000.38 1572.8 1001.62 1569.15 Q1001.92 1567.71 1002.9 1567.76 Q1004.24 1567.76 1004.24 1568.95 Q1004.24 1569.84 1003.25 1571.86 Q1002.31 1573.84 1000.48 1576.21 Q998.655 1578.58 995.098 1580.36 Q991.59 1582.14 987.341 1582.14 Q978.448 1582.14 971.729 1575.42 Q965.059 1568.65 965.059 1558.72 M973.557 1555.51 L997.568 1555.51 Q997.568 1553.39 997.173 1551.01 Q996.827 1548.64 995.74 1545.38 Q994.703 1542.07 992.232 1540 Q989.762 1537.92 986.106 1537.92 Q984.476 1537.92 982.697 1538.61 Q980.968 1539.3 978.843 1540.98 Q976.719 1542.66 975.236 1546.47 Q973.754 1550.27 973.557 1555.51 Z" fill="#000000" fill-rule="nonzero" fill-opacity="1"></path><path clip-path="url(#clip640)" d="M1050.83 1555.71 Q1050.83 1538.61 1057.2 1524.83 Q1059.92 1519.05 1063.72 1514.21 Q1067.53 1509.36 1070.05 1507.24 Q1072.57 1505.12 1073.26 1505.12 Q1074.25 1505.12 1074.3 1506.1 Q1074.3 1506.6 1072.96 1507.83 Q1056.66 1524.43 1056.71 1555.71 Q1056.71 1587.08 1072.57 1603.04 Q1074.3 1604.77 1074.3 1605.31 Q1074.3 1606.3 1073.26 1606.3 Q1072.57 1606.3 1070.15 1604.27 Q1067.73 1602.25 1063.97 1597.6 Q1060.22 1592.96 1057.5 1587.28 Q1050.83 1573.49 1050.83 1555.71 Z" fill="#000000" fill-rule="nonzero" fill-opacity="1"></path><path clip-path="url(#clip640)" d="M1083.29 1581 L1083.29 1577.89 Q1088.67 1577.89 1089.91 1577.25 Q1091.14 1576.56 1091.14 1573.3 L1091.14 1546.17 Q1091.14 1542.42 1089.81 1541.48 Q1088.53 1540.54 1083.29 1540.54 L1083.29 1537.38 L1097.52 1536.29 L1097.52 1546.91 Q1102.26 1536.29 1112.49 1536.29 Q1124.35 1536.29 1125.98 1546.17 Q1127.71 1542.32 1131.31 1539.3 Q1134.97 1536.29 1140.65 1536.29 Q1148.26 1536.29 1151.27 1540.05 Q1153.5 1542.57 1153.94 1545.38 Q1154.39 1548.2 1154.39 1555.51 L1154.39 1574.83 Q1154.48 1576.95 1156.11 1577.45 Q1157.74 1577.89 1162.29 1577.89 L1162.29 1581 Q1151.96 1580.71 1150.98 1580.71 Q1150.19 1580.71 1139.51 1581 L1139.51 1577.89 Q1144.9 1577.89 1146.13 1577.25 Q1147.42 1576.56 1147.42 1573.3 L1147.42 1549.73 Q1147.42 1544.59 1145.84 1541.58 Q1144.26 1538.51 1139.91 1538.51 Q1134.67 1538.51 1130.47 1542.91 Q1126.27 1547.31 1126.27 1554.72 L1126.27 1573.3 Q1126.27 1576.56 1127.51 1577.25 Q1128.79 1577.89 1134.18 1577.89 L1134.18 1581 Q1123.85 1580.71 1122.81 1580.71 Q1122.02 1580.71 1111.4 1581 L1111.4 1577.89 Q1116.79 1577.89 1118.02 1577.25 Q1119.31 1576.56 1119.31 1573.3 L1119.31 1549.73 Q1119.31 1544.59 1117.73 1541.58 Q1116.14 1538.51 1111.8 1538.51 Q1106.56 1538.51 1102.36 1542.91 Q1098.16 1547.31 1098.16 1554.72 L1098.16 1573.3 Q1098.16 1576.56 1099.4 1577.25 Q1100.68 1577.89 1106.02 1577.89 L1106.02 1581 Q1095.69 1580.71 1094.7 1580.71 Q1093.91 1580.71 1083.29 1581 Z" fill="#000000" fill-rule="nonzero" fill-opacity="1"></path><path clip-path="url(#clip640)" d="M1167.63 1581 L1167.63 1577.89 Q1173.01 1577.89 1174.25 1577.25 Q1175.48 1576.56 1175.48 1573.3 L1175.48 1546.07 Q1175.48 1542.32 1174.2 1541.43 Q1172.96 1540.54 1168.02 1540.54 L1168.02 1537.38 L1182.15 1536.29 L1182.15 1573.4 Q1182.15 1576.41 1183.24 1577.15 Q1184.33 1577.89 1189.27 1577.89 L1189.27 1581 Q1178.94 1580.71 1178.74 1580.71 Q1177.36 1580.71 1167.63 1581 M1171.88 1518.65 Q1171.88 1516.63 1173.41 1515 Q1174.99 1513.32 1177.21 1513.32 Q1179.43 1513.32 1181.02 1514.85 Q1182.6 1516.33 1182.6 1518.7 Q1182.6 1521.02 1181.02 1522.56 Q1179.43 1524.04 1177.21 1524.04 Q1174.89 1524.04 1173.36 1522.41 Q1171.88 1520.78 1171.88 1518.65 Z" fill="#000000" fill-rule="nonzero" fill-opacity="1"></path><path clip-path="url(#clip640)" d="M1195.64 1581 L1195.64 1577.89 Q1201.03 1577.89 1202.26 1577.25 Q1203.5 1576.56 1203.5 1573.3 L1203.5 1520.68 Q1203.5 1516.92 1202.16 1515.98 Q1200.88 1515.05 1195.64 1515.05 L1195.64 1511.88 L1210.17 1510.8 L1210.17 1573.3 Q1210.17 1576.56 1211.45 1577.25 Q1212.73 1577.89 1218.07 1577.89 L1218.07 1581 Q1216.84 1581 1214.27 1580.91 Q1211.7 1580.81 1209.82 1580.76 Q1207.94 1580.71 1206.86 1580.71 Q1205.67 1580.71 1195.64 1581 Z" fill="#000000" fill-rule="nonzero" fill-opacity="1"></path><path clip-path="url(#clip640)" d="M1223.65 1581 L1223.65 1577.89 Q1229.04 1577.89 1230.27 1577.25 Q1231.51 1576.56 1231.51 1573.3 L1231.51 1520.68 Q1231.51 1516.92 1230.18 1515.98 Q1228.89 1515.05 1223.65 1515.05 L1223.65 1511.88 L1238.18 1510.8 L1238.18 1573.3 Q1238.18 1576.56 1239.46 1577.25 Q1240.75 1577.89 1246.08 1577.89 L1246.08 1581 Q1244.85 1581 1242.28 1580.91 Q1239.71 1580.81 1237.83 1580.76 Q1235.96 1580.71 1234.87 1580.71 Q1233.68 1580.71 1223.65 1581 Z" fill="#000000" fill-rule="nonzero" fill-opacity="1"></path><path clip-path="url(#clip640)" d="M1251.67 1581 L1251.67 1577.89 Q1257.05 1577.89 1258.29 1577.25 Q1259.52 1576.56 1259.52 1573.3 L1259.52 1546.07 Q1259.52 1542.32 1258.24 1541.43 Q1257 1540.54 1252.06 1540.54 L1252.06 1537.38 L1266.19 1536.29 L1266.19 1573.4 Q1266.19 1576.41 1267.28 1577.15 Q1268.37 1577.89 1273.31 1577.89 L1273.31 1581 Q1262.98 1580.71 1262.78 1580.71 Q1261.4 1580.71 1251.67 1581 M1255.92 1518.65 Q1255.92 1516.63 1257.45 1515 Q1259.03 1513.32 1261.25 1513.32 Q1263.48 1513.32 1265.06 1514.85 Q1266.64 1516.33 1266.64 1518.7 Q1266.64 1521.02 1265.06 1522.56 Q1263.48 1524.04 1261.25 1524.04 Q1258.93 1524.04 1257.4 1522.41 Q1255.92 1520.78 1255.92 1518.65 Z" fill="#000000" fill-rule="nonzero" fill-opacity="1"></path><path clip-path="url(#clip640)" d="M1285.81 1575.57 Q1279.14 1568.95 1279.14 1559.36 Q1279.14 1549.73 1285.66 1542.71 Q1292.23 1535.65 1301.62 1535.65 Q1310.81 1535.65 1317.38 1542.66 Q1324 1549.63 1324 1559.36 Q1324 1568.9 1317.33 1575.52 Q1310.71 1582.14 1301.52 1582.14 Q1292.53 1582.14 1285.81 1575.57 M1287.54 1558.52 Q1287.54 1568.36 1290.11 1572.8 Q1294.06 1579.57 1301.62 1579.57 Q1305.37 1579.57 1308.48 1577.55 Q1311.65 1575.52 1313.38 1572.11 Q1315.6 1567.66 1315.6 1558.52 Q1315.6 1548.79 1312.93 1544.49 Q1308.98 1537.92 1301.52 1537.92 Q1298.26 1537.92 1295.05 1539.65 Q1291.88 1541.33 1289.96 1544.69 Q1287.54 1549.14 1287.54 1558.52 Z" fill="#000000" fill-rule="nonzero" fill-opacity="1"></path><path clip-path="url(#clip640)" d="M1330.17 1581 L1330.17 1577.89 Q1335.56 1577.89 1336.79 1577.25 Q1338.03 1576.56 1338.03 1573.3 L1338.03 1546.17 Q1338.03 1542.42 1336.7 1541.48 Q1335.41 1540.54 1330.17 1540.54 L1330.17 1537.38 L1344.4 1536.29 L1344.4 1546.91 Q1349.15 1536.29 1359.37 1536.29 Q1366.98 1536.29 1370 1540.05 Q1372.22 1542.57 1372.66 1545.38 Q1373.16 1548.2 1373.16 1555.51 L1373.16 1574.83 Q1373.26 1576.95 1374.89 1577.45 Q1376.52 1577.89 1381.06 1577.89 L1381.06 1581 Q1370.74 1580.71 1369.7 1580.71 Q1368.91 1580.71 1358.29 1581 L1358.29 1577.89 Q1363.67 1577.89 1364.91 1577.25 Q1366.19 1576.56 1366.19 1573.3 L1366.19 1549.73 Q1366.19 1544.59 1364.61 1541.58 Q1363.03 1538.51 1358.68 1538.51 Q1353.44 1538.51 1349.25 1542.91 Q1345.05 1547.31 1345.05 1554.72 L1345.05 1573.3 Q1345.05 1576.56 1346.28 1577.25 Q1347.57 1577.89 1352.9 1577.89 L1352.9 1581 Q1342.58 1580.71 1341.59 1580.71 Q1340.8 1580.71 1330.17 1581 Z" fill="#000000" fill-rule="nonzero" fill-opacity="1"></path><path clip-path="url(#clip640)" d="M1386.4 1579.67 L1386.4 1566.33 Q1386.4 1565.19 1386.45 1564.8 Q1386.5 1564.4 1386.79 1564.11 Q1387.09 1563.81 1387.68 1563.81 Q1388.38 1563.81 1388.62 1564.11 Q1388.92 1564.4 1389.12 1565.54 Q1390.65 1572.51 1393.91 1576.21 Q1397.22 1579.87 1403.2 1579.87 Q1408.88 1579.87 1411.74 1577.35 Q1414.61 1574.83 1414.61 1570.68 Q1414.61 1563.27 1404.09 1561.39 Q1398.01 1560.15 1395.49 1559.36 Q1392.97 1558.52 1390.75 1556.7 Q1386.4 1553.14 1386.4 1548.1 Q1386.4 1543.06 1390.2 1539.35 Q1394.06 1535.65 1402.56 1535.65 Q1408.24 1535.65 1412.09 1538.51 Q1413.23 1537.62 1413.82 1536.88 Q1415.15 1535.65 1415.85 1535.65 Q1416.64 1535.65 1416.78 1536.19 Q1416.93 1536.69 1416.93 1538.12 L1416.93 1548.3 Q1416.93 1549.43 1416.88 1549.83 Q1416.83 1550.22 1416.54 1550.52 Q1416.24 1550.77 1415.6 1550.77 Q1414.46 1550.77 1414.41 1549.83 Q1413.62 1537.58 1402.56 1537.58 Q1396.58 1537.58 1393.91 1539.9 Q1391.24 1542.17 1391.24 1545.28 Q1391.24 1547.01 1392.03 1548.35 Q1392.87 1549.63 1393.91 1550.42 Q1395 1551.16 1396.97 1551.9 Q1398.95 1552.59 1400.13 1552.84 Q1401.37 1553.09 1403.69 1553.58 Q1411.79 1555.11 1415.2 1558.42 Q1419.45 1562.67 1419.45 1568.06 Q1419.45 1574.04 1415.4 1578.09 Q1411.35 1582.14 1403.2 1582.14 Q1396.63 1582.14 1392.03 1577.74 Q1391.44 1578.34 1390.99 1578.88 Q1390.55 1579.37 1390.35 1579.57 Q1390.2 1579.77 1390.15 1579.92 Q1390.1 1580.02 1390.01 1580.11 Q1387.98 1582.14 1387.49 1582.14 Q1386.7 1582.14 1386.55 1581.6 Q1386.4 1581.1 1386.4 1579.67 Z" fill="#000000" fill-rule="nonzero" fill-opacity="1"></path><path clip-path="url(#clip640)" d="M1465.99 1575.57 Q1459.32 1568.95 1459.32 1559.36 Q1459.32 1549.73 1465.85 1542.71 Q1472.42 1535.65 1481.8 1535.65 Q1490.99 1535.65 1497.56 1542.66 Q1504.18 1549.63 1504.18 1559.36 Q1504.18 1568.9 1497.51 1575.52 Q1490.89 1582.14 1481.7 1582.14 Q1472.71 1582.14 1465.99 1575.57 M1467.72 1558.52 Q1467.72 1568.36 1470.29 1572.8 Q1474.24 1579.57 1481.8 1579.57 Q1485.56 1579.57 1488.67 1577.55 Q1491.83 1575.52 1493.56 1572.11 Q1495.79 1567.66 1495.79 1558.52 Q1495.79 1548.79 1493.12 1544.49 Q1489.17 1537.92 1481.7 1537.92 Q1478.44 1537.92 1475.23 1539.65 Q1472.07 1541.33 1470.14 1544.69 Q1467.72 1549.14 1467.72 1558.52 Z" fill="#000000" fill-rule="nonzero" fill-opacity="1"></path><path clip-path="url(#clip640)" d="M1510.46 1540.54 L1510.46 1537.38 L1518.41 1537.38 L1518.41 1525.77 Q1518.41 1518.26 1523.26 1513.96 Q1528.15 1509.66 1534.13 1509.66 Q1538.08 1509.66 1540.65 1511.79 Q1543.22 1513.91 1543.22 1516.78 Q1543.22 1518.7 1542.03 1519.99 Q1540.89 1521.22 1538.77 1521.22 Q1536.74 1521.22 1535.56 1519.94 Q1534.42 1518.65 1534.42 1516.87 Q1534.42 1513.61 1537.44 1512.62 Q1535.9 1511.93 1534.13 1511.88 Q1530.47 1511.88 1527.6 1515.64 Q1524.79 1519.39 1524.79 1525.67 L1524.79 1537.38 L1536.65 1537.38 L1536.65 1540.54 L1525.13 1540.54 L1525.13 1573.1 Q1525.13 1576.01 1526.32 1576.95 Q1527.55 1577.89 1532.79 1577.89 L1534.92 1577.89 L1534.92 1581 Q1530.86 1580.71 1522.07 1580.71 Q1520.83 1580.71 1518.91 1580.76 Q1517.03 1580.81 1514.46 1580.91 Q1511.94 1581 1510.56 1581 L1510.56 1577.89 Q1515.94 1577.89 1517.18 1577.25 Q1518.41 1576.56 1518.41 1573.3 L1518.41 1540.54 L1510.46 1540.54 Z" fill="#000000" fill-rule="nonzero" fill-opacity="1"></path><path clip-path="url(#clip640)" d="M1573.5 1593.55 Q1573.5 1591.43 1574.74 1590.29 Q1576.02 1589.21 1577.75 1589.21 Q1579.58 1589.21 1580.77 1590.34 Q1582 1591.53 1582 1593.45 Q1582 1597.21 1578.05 1597.7 Q1579.97 1599.53 1582.79 1599.53 Q1585.8 1599.53 1588.23 1597.31 Q1590.7 1595.08 1591.73 1592.96 Q1592.82 1590.84 1594.35 1586.98 Q1595.78 1583.97 1596.87 1581 L1581.7 1544.05 Q1580.72 1541.63 1579.18 1541.08 Q1577.65 1540.54 1573.5 1540.54 L1573.5 1537.38 Q1578.05 1537.67 1583.33 1537.67 Q1586.45 1537.67 1594.35 1537.38 L1594.35 1540.54 Q1588.67 1540.54 1588.67 1543.16 Q1588.67 1543.45 1589.26 1544.99 L1600.53 1572.21 L1610.76 1547.31 Q1611.35 1545.88 1611.35 1544.89 Q1611.35 1540.74 1606.6 1540.54 L1606.6 1537.38 Q1613.27 1537.67 1615.4 1537.67 Q1619.55 1537.67 1622.96 1537.38 L1622.96 1540.54 Q1616.19 1540.54 1613.57 1547.01 L1595.74 1590.19 Q1590.89 1601.71 1582.79 1601.75 Q1578.94 1601.75 1576.22 1599.38 Q1573.5 1597.01 1573.5 1593.55 Z" fill="#000000" fill-rule="nonzero" fill-opacity="1"></path><path clip-path="url(#clip640)" d="M1624.89 1558.72 Q1624.89 1549.19 1631.01 1542.42 Q1637.14 1535.65 1645.93 1535.65 Q1654.83 1535.65 1659.42 1541.43 Q1664.06 1547.21 1664.06 1555.51 Q1664.06 1557.04 1663.67 1557.34 Q1663.27 1557.63 1661.55 1557.63 L1633.28 1557.63 Q1633.28 1567.96 1636.35 1572.8 Q1640.6 1579.57 1647.76 1579.57 Q1648.75 1579.57 1649.93 1579.37 Q1651.12 1579.18 1653.54 1578.34 Q1655.96 1577.45 1658.09 1575.12 Q1660.21 1572.8 1661.45 1569.15 Q1661.74 1567.71 1662.73 1567.76 Q1664.06 1567.76 1664.06 1568.95 Q1664.06 1569.84 1663.08 1571.86 Q1662.14 1573.84 1660.31 1576.21 Q1658.48 1578.58 1654.92 1580.36 Q1651.42 1582.14 1647.17 1582.14 Q1638.27 1582.14 1631.56 1575.42 Q1624.89 1568.65 1624.89 1558.72 M1633.38 1555.51 L1657.4 1555.51 Q1657.4 1553.39 1657 1551.01 Q1656.65 1548.64 1655.57 1545.38 Q1654.53 1542.07 1652.06 1540 Q1649.59 1537.92 1645.93 1537.92 Q1644.3 1537.92 1642.52 1538.61 Q1640.79 1539.3 1638.67 1540.98 Q1636.55 1542.66 1635.06 1546.47 Q1633.58 1550.27 1633.38 1555.51 Z" fill="#000000" fill-rule="nonzero" fill-opacity="1"></path><path clip-path="url(#clip640)" d="M1671.23 1571.37 Q1671.23 1562.77 1681.36 1558.23 Q1687.43 1555.31 1699.98 1554.57 L1699.98 1550.87 Q1699.98 1544.59 1696.67 1541.28 Q1693.41 1537.92 1689.26 1537.92 Q1681.85 1537.92 1678.29 1542.57 Q1681.31 1542.66 1682.39 1544.2 Q1683.48 1545.68 1683.48 1547.21 Q1683.48 1549.24 1682.2 1550.57 Q1680.96 1551.85 1678.84 1551.85 Q1676.81 1551.85 1675.48 1550.62 Q1674.14 1549.33 1674.14 1547.11 Q1674.14 1542.17 1678.59 1538.91 Q1683.09 1535.65 1689.46 1535.65 Q1697.76 1535.65 1703.29 1541.23 Q1705.02 1542.96 1705.86 1545.18 Q1706.75 1547.41 1706.85 1548.89 Q1706.95 1550.32 1706.95 1553.19 L1706.95 1573.4 Q1706.95 1573.99 1707.15 1574.98 Q1707.35 1575.96 1708.23 1577.25 Q1709.17 1578.48 1710.7 1578.48 Q1714.36 1578.48 1714.31 1572.01 L1714.31 1566.33 L1716.88 1566.33 L1716.88 1572.01 Q1716.88 1577.4 1714.02 1579.52 Q1711.2 1581.6 1708.58 1581.6 Q1705.22 1581.6 1703.1 1579.13 Q1700.97 1576.66 1700.68 1573.3 Q1699.14 1577.15 1695.64 1579.67 Q1692.18 1582.14 1687.43 1582.14 Q1683.78 1582.14 1680.32 1581.2 Q1676.91 1580.31 1674.05 1577.79 Q1671.23 1575.22 1671.23 1571.37 M1679.04 1571.27 Q1679.04 1575.03 1681.7 1577.45 Q1684.37 1579.87 1688.13 1579.87 Q1692.37 1579.87 1696.18 1576.61 Q1699.98 1573.3 1699.98 1566.82 L1699.98 1556.7 Q1688.77 1557.09 1683.88 1561.59 Q1679.04 1566.03 1679.04 1571.27 Z" fill="#000000" fill-rule="nonzero" fill-opacity="1"></path><path clip-path="url(#clip640)" d="M1720.39 1581 L1720.39 1577.89 Q1725.77 1577.89 1727.01 1577.25 Q1728.29 1576.56 1728.29 1573.3 L1728.29 1546.17 Q1728.29 1542.42 1726.96 1541.48 Q1725.68 1540.54 1720.39 1540.54 L1720.39 1537.38 L1734.47 1536.29 L1734.47 1547.41 Q1735.9 1543.06 1738.92 1539.7 Q1741.98 1536.29 1746.92 1536.29 Q1750.18 1536.29 1752.26 1538.12 Q1754.38 1539.95 1754.38 1542.47 Q1754.38 1544.69 1753 1545.83 Q1751.66 1546.91 1750.03 1546.91 Q1748.2 1546.91 1746.92 1545.78 Q1745.68 1544.59 1745.68 1542.57 Q1745.68 1541.33 1746.23 1540.39 Q1746.82 1539.4 1747.27 1539.06 Q1747.71 1538.71 1748.01 1538.61 Q1747.81 1538.51 1746.92 1538.51 Q1741.34 1538.51 1738.13 1544.1 Q1734.96 1549.63 1734.96 1557.54 L1734.96 1573.1 Q1734.96 1576.01 1736.15 1576.95 Q1737.38 1577.89 1742.67 1577.89 L1744.8 1577.89 L1744.8 1581 Q1740.74 1580.71 1731.95 1580.71 Q1730.71 1580.71 1728.79 1580.76 Q1726.86 1580.81 1724.34 1580.91 Q1721.82 1581 1720.39 1581 Z" fill="#000000" fill-rule="nonzero" fill-opacity="1"></path><path clip-path="url(#clip640)" d="M1760.46 1579.67 L1760.46 1566.33 Q1760.46 1565.19 1760.51 1564.8 Q1760.56 1564.4 1760.85 1564.11 Q1761.15 1563.81 1761.74 1563.81 Q1762.43 1563.81 1762.68 1564.11 Q1762.98 1564.4 1763.17 1565.54 Q1764.71 1572.51 1767.97 1576.21 Q1771.28 1579.87 1777.26 1579.87 Q1782.94 1579.87 1785.8 1577.35 Q1788.67 1574.83 1788.67 1570.68 Q1788.67 1563.27 1778.15 1561.39 Q1772.07 1560.15 1769.55 1559.36 Q1767.03 1558.52 1764.81 1556.7 Q1760.46 1553.14 1760.46 1548.1 Q1760.46 1543.06 1764.26 1539.35 Q1768.12 1535.65 1776.61 1535.65 Q1782.3 1535.65 1786.15 1538.51 Q1787.29 1537.62 1787.88 1536.88 Q1789.21 1535.65 1789.9 1535.65 Q1790.69 1535.65 1790.84 1536.19 Q1790.99 1536.69 1790.99 1538.12 L1790.99 1548.3 Q1790.99 1549.43 1790.94 1549.83 Q1790.89 1550.22 1790.6 1550.52 Q1790.3 1550.77 1789.66 1550.77 Q1788.52 1550.77 1788.47 1549.83 Q1787.68 1537.58 1776.61 1537.58 Q1770.64 1537.58 1767.97 1539.9 Q1765.3 1542.17 1765.3 1545.28 Q1765.3 1547.01 1766.09 1548.35 Q1766.93 1549.63 1767.97 1550.42 Q1769.05 1551.16 1771.03 1551.9 Q1773.01 1552.59 1774.19 1552.84 Q1775.43 1553.09 1777.75 1553.58 Q1785.85 1555.11 1789.26 1558.42 Q1793.51 1562.67 1793.51 1568.06 Q1793.51 1574.04 1789.46 1578.09 Q1785.41 1582.14 1777.26 1582.14 Q1770.68 1582.14 1766.09 1577.74 Q1765.5 1578.34 1765.05 1578.88 Q1764.61 1579.37 1764.41 1579.57 Q1764.26 1579.77 1764.21 1579.92 Q1764.16 1580.02 1764.06 1580.11 Q1762.04 1582.14 1761.54 1582.14 Q1760.75 1582.14 1760.61 1581.6 Q1760.46 1581.1 1760.46 1579.67 Z" fill="#000000" fill-rule="nonzero" fill-opacity="1"></path><path clip-path="url(#clip640)" d="M1802.7 1605.31 Q1802.7 1604.82 1803.98 1603.58 Q1820.29 1586.98 1820.29 1555.71 Q1820.29 1524.33 1804.63 1508.47 Q1802.7 1506.65 1802.7 1506.1 Q1802.7 1505.12 1803.69 1505.12 Q1804.38 1505.12 1806.8 1507.14 Q1809.27 1509.17 1812.98 1513.81 Q1816.73 1518.45 1819.5 1524.14 Q1826.17 1537.92 1826.17 1555.71 Q1826.17 1572.8 1819.79 1586.59 Q1817.08 1592.37 1813.27 1597.21 Q1809.47 1602.05 1806.95 1604.18 Q1804.43 1606.3 1803.69 1606.3 Q1802.7 1606.3 1802.7 1605.31 Z" fill="#000000" fill-rule="nonzero" fill-opacity="1"></path><polyline clip-path="url(#clip642)" style="stroke:#000000; stroke-linecap:round; stroke-linejoin:round; stroke-width:2; stroke-opacity:0.1; fill:none" points="338.719,1346.46 2352.76,1346.46 "></polyline>
<polyline clip-path="url(#clip642)" style="stroke:#000000; stroke-linecap:round; stroke-linejoin:round; stroke-width:2; stroke-opacity:0.1; fill:none" points="338.719,922.022 2352.76,922.022 "></polyline>
<polyline clip-path="url(#clip642)" style="stroke:#000000; stroke-linecap:round; stroke-linejoin:round; stroke-width:2; stroke-opacity:0.1; fill:none" points="338.719,497.586 2352.76,497.586 "></polyline>
<polyline clip-path="url(#clip642)" style="stroke:#000000; stroke-linecap:round; stroke-linejoin:round; stroke-width:2; stroke-opacity:0.1; fill:none" points="338.719,73.1491 2352.76,73.1491 "></polyline>
<polyline clip-path="url(#clip640)" style="stroke:#000000; stroke-linecap:round; stroke-linejoin:round; stroke-width:4; stroke-opacity:1; fill:none" points="338.719,1384.3 338.719,47.2441 "></polyline>
<polyline clip-path="url(#clip640)" style="stroke:#000000; stroke-linecap:round; stroke-linejoin:round; stroke-width:4; stroke-opacity:1; fill:none" points="338.719,1346.46 357.617,1346.46 "></polyline>
<polyline clip-path="url(#clip640)" style="stroke:#000000; stroke-linecap:round; stroke-linejoin:round; stroke-width:4; stroke-opacity:1; fill:none" points="338.719,922.022 357.617,922.022 "></polyline>
<polyline clip-path="url(#clip640)" style="stroke:#000000; stroke-linecap:round; stroke-linejoin:round; stroke-width:4; stroke-opacity:1; fill:none" points="338.719,497.586 357.617,497.586 "></polyline>
<polyline clip-path="url(#clip640)" style="stroke:#000000; stroke-linecap:round; stroke-linejoin:round; stroke-width:4; stroke-opacity:1; fill:none" points="338.719,73.1491 357.617,73.1491 "></polyline>
<path clip-path="url(#clip640)" d="M135.86 1348.11 Q135.86 1336.95 138.676 1330.88 Q142.604 1321.84 151.868 1321.84 Q153.832 1321.84 155.87 1322.39 Q157.945 1322.91 160.539 1324.95 Q163.17 1326.99 164.763 1330.32 Q167.802 1336.77 167.802 1348.11 Q167.802 1359.19 164.985 1365.23 Q160.872 1374.05 151.794 1374.05 Q148.385 1374.05 144.902 1372.3 Q141.455 1370.56 139.269 1366.38 Q135.86 1360.11 135.86 1348.11 M142.16 1347.18 Q142.16 1358.63 142.975 1363.19 Q143.901 1368.12 146.421 1370.27 Q148.978 1372.38 151.794 1372.38 Q154.832 1372.38 157.352 1370.12 Q159.909 1367.82 160.687 1362.89 Q161.539 1358.04 161.502 1347.18 Q161.502 1336.62 160.761 1332.4 Q159.761 1327.47 157.093 1325.5 Q154.462 1323.5 151.794 1323.5 Q150.793 1323.5 149.719 1323.8 Q148.681 1324.1 147.162 1324.95 Q145.643 1325.8 144.457 1327.91 Q143.308 1330.02 142.752 1333.21 Q142.16 1337.32 142.16 1347.18 Z" fill="#000000" fill-rule="nonzero" fill-opacity="1"></path><path clip-path="url(#clip640)" d="M178.436 1371.16 Q177.288 1369.93 177.288 1368.34 Q177.288 1366.75 178.436 1365.6 Q179.585 1364.41 181.327 1364.41 Q182.994 1364.41 184.106 1365.52 Q185.255 1366.6 185.255 1368.38 Q185.255 1370.12 184.032 1371.27 Q182.846 1372.38 181.327 1372.38 Q179.585 1372.38 178.436 1371.16 Z" fill="#000000" fill-rule="nonzero" fill-opacity="1"></path><path clip-path="url(#clip640)" d="M194.889 1348.11 Q194.889 1336.95 197.705 1330.88 Q201.633 1321.84 210.897 1321.84 Q212.861 1321.84 214.899 1322.39 Q216.974 1322.91 219.567 1324.95 Q222.198 1326.99 223.792 1330.32 Q226.83 1336.77 226.83 1348.11 Q226.83 1359.19 224.014 1365.23 Q219.901 1374.05 210.823 1374.05 Q207.413 1374.05 203.93 1372.3 Q200.484 1370.56 198.298 1366.38 Q194.889 1360.11 194.889 1348.11 M201.188 1347.18 Q201.188 1358.63 202.003 1363.19 Q202.93 1368.12 205.45 1370.27 Q208.006 1372.38 210.823 1372.38 Q213.861 1372.38 216.381 1370.12 Q218.938 1367.82 219.716 1362.89 Q220.568 1358.04 220.531 1347.18 Q220.531 1336.62 219.79 1332.4 Q218.789 1327.47 216.121 1325.5 Q213.49 1323.5 210.823 1323.5 Q209.822 1323.5 208.747 1323.8 Q207.71 1324.1 206.191 1324.95 Q204.671 1325.8 203.486 1327.91 Q202.337 1330.02 201.781 1333.21 Q201.188 1337.32 201.188 1347.18 Z" fill="#000000" fill-rule="nonzero" fill-opacity="1"></path><path clip-path="url(#clip640)" d="M232.833 1348.11 Q232.833 1336.95 235.649 1330.88 Q239.577 1321.84 248.841 1321.84 Q250.805 1321.84 252.843 1322.39 Q254.918 1322.91 257.512 1324.95 Q260.143 1326.99 261.736 1330.32 Q264.775 1336.77 264.775 1348.11 Q264.775 1359.19 261.958 1365.23 Q257.845 1374.05 248.767 1374.05 Q245.358 1374.05 241.875 1372.3 Q238.429 1370.56 236.242 1366.38 Q232.833 1360.11 232.833 1348.11 M239.133 1347.18 Q239.133 1358.63 239.948 1363.19 Q240.874 1368.12 243.394 1370.27 Q245.951 1372.38 248.767 1372.38 Q251.805 1372.38 254.325 1370.12 Q256.882 1367.82 257.66 1362.89 Q258.512 1358.04 258.475 1347.18 Q258.475 1336.62 257.734 1332.4 Q256.734 1327.47 254.066 1325.5 Q251.435 1323.5 248.767 1323.5 Q247.766 1323.5 246.692 1323.8 Q245.654 1324.1 244.135 1324.95 Q242.616 1325.8 241.43 1327.91 Q240.281 1330.02 239.725 1333.21 Q239.133 1337.32 239.133 1347.18 Z" fill="#000000" fill-rule="nonzero" fill-opacity="1"></path><path clip-path="url(#clip640)" d="M270.778 1348.11 Q270.778 1336.95 273.594 1330.88 Q277.522 1321.84 286.785 1321.84 Q288.749 1321.84 290.787 1322.39 Q292.862 1322.91 295.456 1324.95 Q298.087 1326.99 299.68 1330.32 Q302.719 1336.77 302.719 1348.11 Q302.719 1359.19 299.903 1365.23 Q295.79 1374.05 286.711 1374.05 Q283.302 1374.05 279.819 1372.3 Q276.373 1370.56 274.187 1366.38 Q270.778 1360.11 270.778 1348.11 M277.077 1347.18 Q277.077 1358.63 277.892 1363.19 Q278.818 1368.12 281.338 1370.27 Q283.895 1372.38 286.711 1372.38 Q289.75 1372.38 292.269 1370.12 Q294.826 1367.82 295.604 1362.89 Q296.457 1358.04 296.42 1347.18 Q296.42 1336.62 295.679 1332.4 Q294.678 1327.47 292.01 1325.5 Q289.379 1323.5 286.711 1323.5 Q285.711 1323.5 284.636 1323.8 Q283.599 1324.1 282.079 1324.95 Q280.56 1325.8 279.374 1327.91 Q278.226 1330.02 277.67 1333.21 Q277.077 1337.32 277.077 1347.18 Z" fill="#000000" fill-rule="nonzero" fill-opacity="1"></path><path clip-path="url(#clip640)" d="M136.675 923.671 Q136.675 912.518 139.492 906.44 Q143.419 897.399 152.683 897.399 Q154.647 897.399 156.685 897.955 Q158.76 898.474 161.354 900.512 Q163.985 902.55 165.578 905.885 Q168.617 912.332 168.617 923.671 Q168.617 934.751 165.801 940.791 Q161.688 949.61 152.609 949.61 Q149.2 949.61 145.717 947.868 Q142.271 946.126 140.084 941.939 Q136.675 935.677 136.675 923.671 M142.975 922.745 Q142.975 934.195 143.79 938.752 Q144.716 943.681 147.236 945.83 Q149.793 947.942 152.609 947.942 Q155.648 947.942 158.167 945.682 Q160.724 943.384 161.502 938.456 Q162.355 933.602 162.317 922.745 Q162.317 912.184 161.576 907.96 Q160.576 903.031 157.908 901.068 Q155.277 899.067 152.609 899.067 Q151.609 899.067 150.534 899.363 Q149.496 899.659 147.977 900.512 Q146.458 901.364 145.272 903.476 Q144.123 905.588 143.568 908.775 Q142.975 912.888 142.975 922.745 Z" fill="#000000" fill-rule="nonzero" fill-opacity="1"></path><path clip-path="url(#clip640)" d="M179.252 946.719 Q178.103 945.497 178.103 943.903 Q178.103 942.31 179.252 941.161 Q180.4 939.975 182.142 939.975 Q183.809 939.975 184.921 941.087 Q186.07 942.162 186.07 943.94 Q186.07 945.682 184.847 946.83 Q183.661 947.942 182.142 947.942 Q180.4 947.942 179.252 946.719 Z" fill="#000000" fill-rule="nonzero" fill-opacity="1"></path><path clip-path="url(#clip640)" d="M195.704 923.671 Q195.704 912.518 198.52 906.44 Q202.448 897.399 211.712 897.399 Q213.676 897.399 215.714 897.955 Q217.789 898.474 220.383 900.512 Q223.014 902.55 224.607 905.885 Q227.645 912.332 227.645 923.671 Q227.645 934.751 224.829 940.791 Q220.716 949.61 211.638 949.61 Q208.229 949.61 204.745 947.868 Q201.299 946.126 199.113 941.939 Q195.704 935.677 195.704 923.671 M202.003 922.745 Q202.003 934.195 202.819 938.752 Q203.745 943.681 206.265 945.83 Q208.822 947.942 211.638 947.942 Q214.676 947.942 217.196 945.682 Q219.753 943.384 220.531 938.456 Q221.383 933.602 221.346 922.745 Q221.346 912.184 220.605 907.96 Q219.605 903.031 216.937 901.068 Q214.306 899.067 211.638 899.067 Q210.637 899.067 209.563 899.363 Q208.525 899.659 207.006 900.512 Q205.487 901.364 204.301 903.476 Q203.152 905.588 202.596 908.775 Q202.003 912.888 202.003 922.745 Z" fill="#000000" fill-rule="nonzero" fill-opacity="1"></path><path clip-path="url(#clip640)" d="M233.648 923.671 Q233.648 912.518 236.465 906.44 Q240.392 897.399 249.656 897.399 Q251.62 897.399 253.658 897.955 Q255.733 898.474 258.327 900.512 Q260.958 902.55 262.551 905.885 Q265.59 912.332 265.59 923.671 Q265.59 934.751 262.774 940.791 Q258.661 949.61 249.582 949.61 Q246.173 949.61 242.69 947.868 Q239.244 946.126 237.057 941.939 Q233.648 935.677 233.648 923.671 M239.948 922.745 Q239.948 934.195 240.763 938.752 Q241.689 943.681 244.209 945.83 Q246.766 947.942 249.582 947.942 Q252.621 947.942 255.14 945.682 Q257.697 943.384 258.475 938.456 Q259.328 933.602 259.29 922.745 Q259.29 912.184 258.549 907.96 Q257.549 903.031 254.881 901.068 Q252.25 899.067 249.582 899.067 Q248.582 899.067 247.507 899.363 Q246.469 899.659 244.95 900.512 Q243.431 901.364 242.245 903.476 Q241.096 905.588 240.541 908.775 Q239.948 912.888 239.948 922.745 Z" fill="#000000" fill-rule="nonzero" fill-opacity="1"></path><path clip-path="url(#clip640)" d="M272.408 935.714 Q272.408 933.454 273.631 932.601 Q274.854 931.712 276.151 931.712 Q277.892 931.712 278.893 932.824 Q279.93 933.898 279.93 935.418 Q279.93 936.937 278.893 938.048 Q277.892 939.123 276.151 939.123 Q275.298 939.123 274.854 938.975 Q275.854 942.458 278.893 944.978 Q281.968 947.497 286.007 947.497 Q291.084 947.497 294.122 942.569 Q295.938 939.382 295.938 932.157 Q295.938 925.783 294.567 922.596 Q292.455 917.742 288.119 917.742 Q281.968 917.742 278.337 923.041 Q277.892 923.708 277.373 923.745 Q276.632 923.745 276.447 923.338 Q276.299 922.893 276.299 921.744 L276.299 899.289 Q276.299 897.473 277.04 897.473 Q277.336 897.473 277.966 897.696 Q282.746 899.808 288.045 899.845 Q293.492 899.845 298.384 897.621 Q298.754 897.399 298.976 897.399 Q299.718 897.399 299.755 898.251 Q299.755 898.548 299.125 899.437 Q298.532 900.289 297.235 901.438 Q295.938 902.55 294.27 903.624 Q292.603 904.699 290.157 905.44 Q287.749 906.144 285.081 906.144 Q281.894 906.144 278.633 905.144 L278.633 919.929 Q282.561 916.075 288.268 916.075 Q294.345 916.075 298.532 920.966 Q302.719 925.857 302.719 932.675 Q302.719 939.827 297.754 944.718 Q292.825 949.61 286.155 949.61 Q280.078 949.61 276.225 945.274 Q272.408 940.939 272.408 935.714 Z" fill="#000000" fill-rule="nonzero" fill-opacity="1"></path><path clip-path="url(#clip640)" d="M135.86 499.235 Q135.86 488.081 138.676 482.004 Q142.604 472.963 151.868 472.963 Q153.832 472.963 155.87 473.518 Q157.945 474.037 160.539 476.075 Q163.17 478.113 164.763 481.448 Q167.802 487.896 167.802 499.235 Q167.802 510.314 164.985 516.354 Q160.872 525.173 151.794 525.173 Q148.385 525.173 144.902 523.432 Q141.455 521.69 139.269 517.503 Q135.86 511.24 135.86 499.235 M142.16 498.308 Q142.16 509.758 142.975 514.316 Q143.901 519.244 146.421 521.393 Q148.978 523.506 151.794 523.506 Q154.832 523.506 157.352 521.245 Q159.909 518.948 160.687 514.02 Q161.539 509.165 161.502 498.308 Q161.502 487.748 160.761 483.523 Q159.761 478.595 157.093 476.631 Q154.462 474.63 151.794 474.63 Q150.793 474.63 149.719 474.926 Q148.681 475.223 147.162 476.075 Q145.643 476.927 144.457 479.04 Q143.308 481.152 142.752 484.338 Q142.16 488.452 142.16 498.308 Z" fill="#000000" fill-rule="nonzero" fill-opacity="1"></path><path clip-path="url(#clip640)" d="M178.436 522.283 Q177.288 521.06 177.288 519.467 Q177.288 517.873 178.436 516.725 Q179.585 515.539 181.327 515.539 Q182.994 515.539 184.106 516.65 Q185.255 517.725 185.255 519.504 Q185.255 521.245 184.032 522.394 Q182.846 523.506 181.327 523.506 Q179.585 523.506 178.436 522.283 Z" fill="#000000" fill-rule="nonzero" fill-opacity="1"></path><path clip-path="url(#clip640)" d="M194.889 499.235 Q194.889 488.081 197.705 482.004 Q201.633 472.963 210.897 472.963 Q212.861 472.963 214.899 473.518 Q216.974 474.037 219.567 476.075 Q222.198 478.113 223.792 481.448 Q226.83 487.896 226.83 499.235 Q226.83 510.314 224.014 516.354 Q219.901 525.173 210.823 525.173 Q207.413 525.173 203.93 523.432 Q200.484 521.69 198.298 517.503 Q194.889 511.24 194.889 499.235 M201.188 498.308 Q201.188 509.758 202.003 514.316 Q202.93 519.244 205.45 521.393 Q208.006 523.506 210.823 523.506 Q213.861 523.506 216.381 521.245 Q218.938 518.948 219.716 514.02 Q220.568 509.165 220.531 498.308 Q220.531 487.748 219.79 483.523 Q218.789 478.595 216.121 476.631 Q213.49 474.63 210.823 474.63 Q209.822 474.63 208.747 474.926 Q207.71 475.223 206.191 476.075 Q204.671 476.927 203.486 479.04 Q202.337 481.152 201.781 484.338 Q201.188 488.452 201.188 498.308 Z" fill="#000000" fill-rule="nonzero" fill-opacity="1"></path><path clip-path="url(#clip640)" d="M236.613 480.188 L236.613 477.817 Q245.728 477.817 250.434 472.963 Q251.731 472.963 251.954 473.259 Q252.176 473.555 252.176 474.926 L252.176 517.503 Q252.176 519.763 253.288 520.467 Q254.399 521.171 259.253 521.171 L261.662 521.171 L261.662 523.506 Q258.994 523.283 249.36 523.283 Q239.725 523.283 237.095 523.506 L237.095 521.171 L239.503 521.171 Q244.283 521.171 245.432 520.504 Q246.581 519.8 246.581 517.503 L246.581 478.187 Q242.616 480.188 236.613 480.188 Z" fill="#000000" fill-rule="nonzero" fill-opacity="1"></path><path clip-path="url(#clip640)" d="M270.778 499.235 Q270.778 488.081 273.594 482.004 Q277.522 472.963 286.785 472.963 Q288.749 472.963 290.787 473.518 Q292.862 474.037 295.456 476.075 Q298.087 478.113 299.68 481.448 Q302.719 487.896 302.719 499.235 Q302.719 510.314 299.903 516.354 Q295.79 525.173 286.711 525.173 Q283.302 525.173 279.819 523.432 Q276.373 521.69 274.187 517.503 Q270.778 511.24 270.778 499.235 M277.077 498.308 Q277.077 509.758 277.892 514.316 Q278.818 519.244 281.338 521.393 Q283.895 523.506 286.711 523.506 Q289.75 523.506 292.269 521.245 Q294.826 518.948 295.604 514.02 Q296.457 509.165 296.42 498.308 Q296.42 487.748 295.679 483.523 Q294.678 478.595 292.01 476.631 Q289.379 474.63 286.711 474.63 Q285.711 474.63 284.636 474.926 Q283.599 475.223 282.079 476.075 Q280.56 476.927 279.374 479.04 Q278.226 481.152 277.67 484.338 Q277.077 488.452 277.077 498.308 Z" fill="#000000" fill-rule="nonzero" fill-opacity="1"></path><path clip-path="url(#clip640)" d="M136.675 74.7981 Q136.675 63.6445 139.492 57.5675 Q143.419 48.526 152.683 48.526 Q154.647 48.526 156.685 49.0819 Q158.76 49.6006 161.354 51.6387 Q163.985 53.6767 165.578 57.0116 Q168.617 63.4592 168.617 74.7981 Q168.617 85.8775 165.801 91.9175 Q161.688 100.737 152.609 100.737 Q149.2 100.737 145.717 98.995 Q142.271 97.2534 140.084 93.0662 Q136.675 86.8039 136.675 74.7981 M142.975 73.8717 Q142.975 85.3217 143.79 89.8795 Q144.716 94.8078 147.236 96.957 Q149.793 99.0691 152.609 99.0691 Q155.648 99.0691 158.167 96.8088 Q160.724 94.5113 161.502 89.583 Q162.355 84.7288 162.317 73.8717 Q162.317 63.311 161.576 59.0867 Q160.576 54.1584 157.908 52.1945 Q155.277 50.1935 152.609 50.1935 Q151.609 50.1935 150.534 50.49 Q149.496 50.7864 147.977 51.6387 Q146.458 52.4909 145.272 54.6031 Q144.123 56.7152 143.568 59.9019 Q142.975 64.0151 142.975 73.8717 Z" fill="#000000" fill-rule="nonzero" fill-opacity="1"></path><path clip-path="url(#clip640)" d="M179.252 97.8463 Q178.103 96.6235 178.103 95.0301 Q178.103 93.4368 179.252 92.288 Q180.4 91.1023 182.142 91.1023 Q183.809 91.1023 184.921 92.2139 Q186.07 93.2885 186.07 95.0672 Q186.07 96.8088 184.847 97.9575 Q183.661 99.0691 182.142 99.0691 Q180.4 99.0691 179.252 97.8463 Z" fill="#000000" fill-rule="nonzero" fill-opacity="1"></path><path clip-path="url(#clip640)" d="M195.704 74.7981 Q195.704 63.6445 198.52 57.5675 Q202.448 48.526 211.712 48.526 Q213.676 48.526 215.714 49.0819 Q217.789 49.6006 220.383 51.6387 Q223.014 53.6767 224.607 57.0116 Q227.645 63.4592 227.645 74.7981 Q227.645 85.8775 224.829 91.9175 Q220.716 100.737 211.638 100.737 Q208.229 100.737 204.745 98.995 Q201.299 97.2534 199.113 93.0662 Q195.704 86.8039 195.704 74.7981 M202.003 73.8717 Q202.003 85.3217 202.819 89.8795 Q203.745 94.8078 206.265 96.957 Q208.822 99.0691 211.638 99.0691 Q214.676 99.0691 217.196 96.8088 Q219.753 94.5113 220.531 89.583 Q221.383 84.7288 221.346 73.8717 Q221.346 63.311 220.605 59.0867 Q219.605 54.1584 216.937 52.1945 Q214.306 50.1935 211.638 50.1935 Q210.637 50.1935 209.563 50.49 Q208.525 50.7864 207.006 51.6387 Q205.487 52.4909 204.301 54.6031 Q203.152 56.7152 202.596 59.9019 Q202.003 64.0151 202.003 73.8717 Z" fill="#000000" fill-rule="nonzero" fill-opacity="1"></path><path clip-path="url(#clip640)" d="M237.428 55.7518 L237.428 53.3803 Q246.544 53.3803 251.25 48.526 Q252.546 48.526 252.769 48.8225 Q252.991 49.1189 252.991 50.49 L252.991 93.0662 Q252.991 95.3266 254.103 96.0306 Q255.214 96.7347 260.069 96.7347 L262.477 96.7347 L262.477 99.0691 Q259.809 98.8468 250.175 98.8468 Q240.541 98.8468 237.91 99.0691 L237.91 96.7347 L240.318 96.7347 Q245.098 96.7347 246.247 96.0677 Q247.396 95.3636 247.396 93.0662 L247.396 53.7508 Q243.431 55.7518 237.428 55.7518 Z" fill="#000000" fill-rule="nonzero" fill-opacity="1"></path><path clip-path="url(#clip640)" d="M272.408 86.841 Q272.408 84.5806 273.631 83.7283 Q274.854 82.839 276.151 82.839 Q277.892 82.839 278.893 83.9507 Q279.93 85.0253 279.93 86.5445 Q279.93 88.0638 278.893 89.1754 Q277.892 90.25 276.151 90.25 Q275.298 90.25 274.854 90.1018 Q275.854 93.585 278.893 96.1047 Q281.968 98.6245 286.007 98.6245 Q291.084 98.6245 294.122 93.6961 Q295.938 90.5094 295.938 83.2837 Q295.938 76.9102 294.567 73.7235 Q292.455 68.8693 288.119 68.8693 Q281.968 68.8693 278.337 74.1681 Q277.892 74.8351 277.373 74.8722 Q276.632 74.8722 276.447 74.4646 Q276.299 74.0199 276.299 72.8712 L276.299 50.4159 Q276.299 48.6002 277.04 48.6002 Q277.336 48.6002 277.966 48.8225 Q282.746 50.9346 288.045 50.9717 Q293.492 50.9717 298.384 48.7484 Q298.754 48.526 298.976 48.526 Q299.718 48.526 299.755 49.3783 Q299.755 49.6748 299.125 50.5641 Q298.532 51.4163 297.235 52.565 Q295.938 53.6767 294.27 54.7513 Q292.603 55.8259 290.157 56.567 Q287.749 57.271 285.081 57.271 Q281.894 57.271 278.633 56.2705 L278.633 71.0555 Q282.561 67.2018 288.268 67.2018 Q294.345 67.2018 298.532 72.0931 Q302.719 76.9843 302.719 83.8024 Q302.719 90.9541 297.754 95.8453 Q292.825 100.737 286.155 100.737 Q280.078 100.737 276.225 96.4012 Q272.408 92.0657 272.408 86.841 Z" fill="#000000" fill-rule="nonzero" fill-opacity="1"></path><path clip-path="url(#clip640)" d="M95.626 1129.01 Q95.626 1123.62 94.9343 1122.39 Q94.292 1121.1 91.0806 1121.1 L43.6995 1121.1 Q40.3399 1121.1 39.5 1122.39 Q38.6601 1123.62 38.6601 1129.01 L35.498 1129.01 L34.4111 1114.43 L41.081 1114.43 Q34.4111 1108.36 34.4111 1100.26 Q34.4111 1091.66 41.081 1085.38 Q47.7509 1079.11 57.2864 1079.11 Q66.9207 1079.11 73.5906 1085.78 Q80.2605 1092.45 80.2605 1101.69 Q80.2605 1106.73 77.6914 1110.14 Q75.0728 1113.5 73.1459 1114.14 L74.0847 1114.14 L91.0806 1114.14 Q94.3414 1114.14 94.9837 1112.85 Q95.626 1111.57 95.626 1106.23 L98.7386 1106.23 Q98.4422 1116.86 98.4422 1117.65 Q98.4422 1118.63 98.7386 1129.01 L95.626 1129.01 M67.6124 1114.14 Q69.144 1114.14 69.6875 1113.94 Q70.2309 1113.69 71.8614 1112.71 Q77.9878 1108.7 77.9878 1102.18 Q77.9878 1102.13 77.9878 1102.08 Q77.9878 1096.3 72.1084 1091.91 Q66.1796 1087.51 57.2864 1087.51 Q48.7884 1087.51 42.8596 1091.51 Q36.9308 1095.51 36.9308 1101.05 Q36.9308 1105 39.0553 1108.46 Q41.1798 1111.92 45.0335 1114.14 L67.6124 1114.14 Z" fill="#000000" fill-rule="nonzero" fill-opacity="1"></path><path clip-path="url(#clip640)" d="M79.1242 1072.88 L76.0115 1072.88 Q76.0115 1067.5 75.3692 1066.26 Q74.6776 1064.98 71.4167 1064.98 L44.2924 1064.98 Q40.5375 1064.98 39.5988 1066.31 Q38.6601 1067.6 38.6601 1072.88 L35.498 1072.88 L34.4111 1058.8 L45.5276 1058.8 Q41.1798 1057.37 37.8201 1054.36 Q34.4111 1051.29 34.4111 1046.35 Q34.4111 1043.09 36.2391 1041.02 Q38.0672 1038.89 40.5869 1038.89 Q42.8102 1038.89 43.9466 1040.28 Q45.0335 1041.61 45.0335 1043.24 Q45.0335 1045.07 43.8972 1046.35 Q42.7114 1047.59 40.6857 1047.59 Q39.4506 1047.59 38.5118 1047.04 Q37.5237 1046.45 37.1779 1046.01 Q36.832 1045.56 36.7332 1045.27 Q36.6344 1045.46 36.6344 1046.35 Q36.6344 1051.94 42.2173 1055.15 Q47.7509 1058.31 55.656 1058.31 L71.2191 1058.31 Q74.1341 1058.31 75.0728 1057.12 Q76.0115 1055.89 76.0115 1050.6 L76.0115 1048.48 L79.1242 1048.48 Q78.8277 1052.53 78.8277 1061.32 Q78.8277 1062.56 78.8771 1064.48 Q78.9265 1066.41 79.0253 1068.93 Q79.1242 1071.45 79.1242 1072.88 Z" fill="#000000" fill-rule="nonzero" fill-opacity="1"></path><path clip-path="url(#clip640)" d="M73.6894 1026.69 Q67.0689 1033.36 57.484 1033.36 Q47.8497 1033.36 40.834 1026.84 Q33.7688 1020.27 33.7688 1010.88 Q33.7688 1001.69 40.7845 995.118 Q47.7509 988.497 57.484 988.497 Q67.0195 988.497 73.64 995.167 Q80.2605 1001.79 80.2605 1010.98 Q80.2605 1019.97 73.6894 1026.69 M56.6441 1024.96 Q66.476 1024.96 70.9226 1022.39 Q77.6914 1018.44 77.6914 1010.88 Q77.6914 1007.12 75.6657 1004.01 Q73.64 1000.85 70.2309 999.12 Q65.7843 996.896 56.6441 996.896 Q46.911 996.896 42.6126 999.564 Q36.0415 1003.52 36.0415 1010.98 Q36.0415 1014.24 37.7707 1017.45 Q39.4506 1020.61 42.8102 1022.54 Q47.2568 1024.96 56.6441 1024.96 Z" fill="#000000" fill-rule="nonzero" fill-opacity="1"></path><path clip-path="url(#clip640)" d="M13.1662 982.766 L10.0042 982.766 L8.91721 968.191 L40.9822 968.191 Q34.4111 962.311 34.4111 954.308 Q34.4111 945.612 41.081 939.239 Q47.7509 932.865 57.2864 932.865 Q66.9207 932.865 73.5906 939.535 Q80.2605 946.205 80.2605 955.444 Q80.2605 963.843 72.8495 968.685 Q79.0253 972.242 79.1242 972.341 L79.1242 974.861 L18.7986 974.861 Q15.0436 974.861 14.1049 976.195 Q13.1662 977.529 13.1662 982.766 M67.6124 967.894 Q69.7369 967.894 71.8614 966.462 Q77.9878 962.46 77.9878 955.938 Q77.9878 955.889 77.9878 955.839 Q77.9878 948.774 71.5155 944.377 Q66.6737 941.264 57.1876 941.264 Q47.8003 941.264 43.1067 944.179 Q36.6344 948.231 36.6344 954.802 Q36.6344 962.213 43.1067 966.758 Q44.7371 967.894 46.7628 967.894 L67.6124 967.894 Z" fill="#000000" fill-rule="nonzero" fill-opacity="1"></path><path clip-path="url(#clip640)" d="M69.4898 925.207 Q60.8931 925.207 56.3477 915.079 Q53.4327 909.002 52.6916 896.452 L48.9861 896.452 Q42.7114 896.452 39.4012 899.763 Q36.0415 903.023 36.0415 907.174 Q36.0415 914.585 40.6857 918.142 Q40.7845 915.128 42.3162 914.041 Q43.7984 912.954 45.33 912.954 Q47.3556 912.954 48.6896 914.239 Q49.9742 915.474 49.9742 917.598 Q49.9742 919.624 48.739 920.958 Q47.4545 922.292 45.2311 922.292 Q40.2905 922.292 37.0296 917.845 Q33.7688 913.349 33.7688 906.976 Q33.7688 898.676 39.3517 893.142 Q41.081 891.413 43.3043 890.573 Q45.5276 889.684 47.0098 889.585 Q48.4426 889.486 51.3082 889.486 L71.5155 889.486 Q72.1084 889.486 73.0965 889.288 Q74.0847 889.091 75.3692 888.201 Q76.6044 887.263 76.6044 885.731 Q76.6044 882.075 70.1321 882.124 L64.4504 882.124 L64.4504 879.555 L70.1321 879.555 Q75.5175 879.555 77.642 882.421 Q79.717 885.237 79.717 887.856 Q79.717 891.215 77.2467 893.34 Q74.7764 895.464 71.4167 895.761 Q75.2704 897.292 77.7902 900.8 Q80.2605 904.259 80.2605 909.002 Q80.2605 912.658 79.3218 916.116 Q78.4325 919.525 75.9127 922.391 Q73.3436 925.207 69.4898 925.207 M69.391 917.401 Q73.1459 917.401 75.5669 914.733 Q77.9878 912.065 77.9878 908.31 Q77.9878 904.061 74.727 900.257 Q71.4167 896.452 64.9444 896.452 L54.8161 896.452 Q55.2113 907.668 59.7073 912.559 Q64.1539 917.401 69.391 917.401 Z" fill="#000000" fill-rule="nonzero" fill-opacity="1"></path><path clip-path="url(#clip640)" d="M13.1662 876.047 L10.0042 876.047 L8.91721 861.472 L40.9822 861.472 Q34.4111 855.593 34.4111 847.589 Q34.4111 838.894 41.081 832.52 Q47.7509 826.147 57.2864 826.147 Q66.9207 826.147 73.5906 832.816 Q80.2605 839.486 80.2605 848.725 Q80.2605 857.125 72.8495 861.966 Q79.0253 865.524 79.1242 865.623 L79.1242 868.142 L18.7986 868.142 Q15.0436 868.142 14.1049 869.476 Q13.1662 870.81 13.1662 876.047 M67.6124 861.176 Q69.7369 861.176 71.8614 859.743 Q77.9878 855.741 77.9878 849.22 Q77.9878 849.17 77.9878 849.121 Q77.9878 842.056 71.5155 837.658 Q66.6737 834.546 57.1876 834.546 Q47.8003 834.546 43.1067 837.461 Q36.6344 841.512 36.6344 848.083 Q36.6344 855.494 43.1067 860.04 Q44.7371 861.176 46.7628 861.176 L67.6124 861.176 Z" fill="#000000" fill-rule="nonzero" fill-opacity="1"></path><path clip-path="url(#clip640)" d="M79.1242 819.378 L76.0115 819.378 Q76.0115 813.993 75.3692 812.757 Q74.6776 811.522 71.4167 811.522 L44.1936 811.522 Q40.4387 811.522 39.5494 812.807 Q38.6601 814.042 38.6601 818.983 L35.498 818.983 L34.4111 804.852 L71.5155 804.852 Q74.5293 804.852 75.2704 803.765 Q76.0115 802.678 76.0115 797.738 L79.1242 797.738 Q78.8277 808.064 78.8277 808.261 Q78.8277 809.645 79.1242 819.378 M16.7729 815.129 Q14.7472 815.129 13.1168 813.597 Q11.437 812.016 11.437 809.793 Q11.437 807.57 12.9686 805.989 Q14.4508 804.408 16.8223 804.408 Q19.1444 804.408 20.676 805.989 Q22.1582 807.57 22.1582 809.793 Q22.1582 812.115 20.5278 813.647 Q18.8974 815.129 16.7729 815.129 Z" fill="#000000" fill-rule="nonzero" fill-opacity="1"></path><path clip-path="url(#clip640)" d="M79.1242 791.364 L76.0115 791.364 Q76.0115 785.979 75.3692 784.744 Q74.6776 783.509 71.4167 783.509 L18.7986 783.509 Q15.0436 783.509 14.1049 784.843 Q13.1662 786.127 13.1662 791.364 L10.0042 791.364 L8.91721 776.839 L71.4167 776.839 Q74.6776 776.839 75.3692 775.554 Q76.0115 774.27 76.0115 768.934 L79.1242 768.934 Q79.1242 770.169 79.0253 772.738 Q78.9265 775.307 78.8771 777.185 Q78.8277 779.062 78.8277 780.149 Q78.8277 781.335 79.1242 791.364 Z" fill="#000000" fill-rule="nonzero" fill-opacity="1"></path><path clip-path="url(#clip640)" d="M79.1242 763.351 L76.0115 763.351 Q76.0115 757.965 75.3692 756.73 Q74.6776 755.495 71.4167 755.495 L44.1936 755.495 Q40.4387 755.495 39.5494 756.78 Q38.6601 758.015 38.6601 762.955 L35.498 762.955 L34.4111 748.825 L71.5155 748.825 Q74.5293 748.825 75.2704 747.738 Q76.0115 746.651 76.0115 741.71 L79.1242 741.71 Q78.8277 752.037 78.8277 752.234 Q78.8277 753.618 79.1242 763.351 M16.7729 759.102 Q14.7472 759.102 13.1168 757.57 Q11.437 755.989 11.437 753.766 Q11.437 751.542 12.9686 749.961 Q14.4508 748.38 16.8223 748.38 Q19.1444 748.38 20.676 749.961 Q22.1582 751.542 22.1582 753.766 Q22.1582 756.088 20.5278 757.619 Q18.8974 759.102 16.7729 759.102 Z" fill="#000000" fill-rule="nonzero" fill-opacity="1"></path><path clip-path="url(#clip640)" d="M38.6601 736.77 L36.4368 736.77 Q36.2391 732.126 32.9783 729.062 Q29.668 725.95 25.6167 724.912 Q21.5653 723.825 16.8717 723.726 L16.8717 721.207 L35.498 721.207 L35.498 706.731 L38.6601 706.731 L38.6601 721.207 L66.7725 721.207 Q77.6914 721.207 77.6914 714.389 Q77.6914 711.474 74.727 709.547 Q71.7131 707.62 66.3772 707.62 L60.7943 707.62 L60.7943 705.1 L66.5749 705.1 Q72.059 705.1 76.1598 707.62 Q80.2605 710.14 80.2605 715.13 Q80.2605 716.958 79.7664 718.786 Q79.3218 720.564 78.136 722.936 Q76.9009 725.258 73.9365 726.74 Q70.9226 728.173 66.5749 728.173 L38.6601 728.173 L38.6601 736.77 Z" fill="#000000" fill-rule="nonzero" fill-opacity="1"></path><path clip-path="url(#clip640)" d="M91.6735 700.357 Q89.549 700.357 88.4126 699.122 Q87.3257 697.837 87.3257 696.108 Q87.3257 694.28 88.462 693.094 Q89.6478 691.859 91.5747 691.859 Q95.3296 691.859 95.8236 695.812 Q97.6517 693.885 97.6517 691.069 Q97.6517 688.055 95.4284 685.634 Q93.2051 683.164 91.0806 682.126 Q88.9561 681.039 85.1024 679.507 Q82.0886 678.075 79.1242 676.988 L42.1679 692.156 Q39.747 693.144 39.2035 694.675 Q38.6601 696.207 38.6601 700.357 L35.498 700.357 Q35.7945 695.812 35.7945 690.525 Q35.7945 687.413 35.498 679.507 L38.6601 679.507 Q38.6601 685.189 41.2786 685.189 Q41.5751 685.189 43.1067 684.596 L70.3298 673.332 L45.4288 663.104 Q43.996 662.512 43.0078 662.512 Q38.8577 662.512 38.6601 667.255 L35.498 667.255 Q35.7945 660.585 35.7945 658.46 Q35.7945 654.31 35.498 650.901 L38.6601 650.901 Q38.6601 657.67 45.1323 660.288 L88.3138 678.124 Q99.8256 682.966 99.875 691.069 Q99.875 694.922 97.5035 697.64 Q95.1319 700.357 91.6735 700.357 Z" fill="#000000" fill-rule="nonzero" fill-opacity="1"></path><path clip-path="url(#clip640)" d="M57.3852 611.87 Q47.7509 611.87 41.081 605.15 Q34.4111 598.431 34.4111 589.34 Q34.4111 581.633 40.6857 576.593 L18.7986 576.593 Q15.0436 576.593 14.1049 577.927 Q13.1662 579.212 13.1662 584.449 L10.0042 584.449 L8.91721 569.874 L70.3298 569.874 Q74.0847 569.874 75.0728 568.589 Q76.0115 567.255 76.0115 562.018 L79.1242 562.018 L80.2605 576.89 L73.5412 576.89 Q80.2111 582.127 80.2605 590.427 Q80.2605 599.123 73.5906 605.496 Q66.9207 611.87 57.3852 611.87 M57.484 603.47 Q66.8713 603.47 71.5155 600.555 Q77.9878 596.504 77.9878 589.933 Q77.9878 582.423 70.9226 577.977 Q69.1934 576.84 67.1677 576.89 L46.4169 576.89 Q44.3912 576.89 42.7114 577.977 Q36.6344 582.127 36.6344 588.896 Q36.6344 595.961 43.1067 600.358 Q47.9485 603.47 57.484 603.47 Z" fill="#000000" fill-rule="nonzero" fill-opacity="1"></path><path clip-path="url(#clip640)" d="M56.8417 556.386 Q47.3062 556.386 40.5375 550.259 Q33.7688 544.133 33.7688 535.339 Q33.7688 526.445 39.5494 521.851 Q45.33 517.206 53.6303 517.206 Q55.1619 517.206 55.4583 517.602 Q55.7548 517.997 55.7548 519.726 L55.7548 547.987 Q66.0808 547.987 70.9226 544.924 Q77.6914 540.675 77.6914 533.511 Q77.6914 532.522 77.4937 531.337 Q77.2961 530.151 76.4562 527.73 Q75.5669 525.309 73.2448 523.185 Q70.9226 521.06 67.2665 519.825 Q65.8338 519.528 65.8832 518.54 Q65.8832 517.206 67.0689 517.206 Q67.9582 517.206 69.9839 518.194 Q71.9602 519.133 74.3317 520.961 Q76.7032 522.789 78.4819 526.347 Q80.2605 529.854 80.2605 534.103 Q80.2605 542.997 73.5412 549.716 Q66.7725 556.386 56.8417 556.386 M53.6303 547.888 L53.6303 523.876 Q51.5058 523.876 49.1343 524.272 Q46.7628 524.617 43.5019 525.704 Q40.1917 526.742 38.1166 529.212 Q36.0415 531.683 36.0415 535.339 Q36.0415 536.969 36.7332 538.748 Q37.4249 540.477 39.1047 542.601 Q40.7845 544.726 44.5889 546.208 Q48.3932 547.69 53.6303 547.888 Z" fill="#000000" fill-rule="nonzero" fill-opacity="1"></path><path clip-path="url(#clip640)" d="M79.1242 511.031 L76.0115 511.031 Q76.0115 505.645 75.3692 504.41 Q74.6776 503.175 71.4167 503.175 L44.2924 503.175 Q40.5375 503.175 39.5988 504.509 Q38.6601 505.793 38.6601 511.031 L35.498 511.031 L34.4111 496.801 L45.0335 496.801 Q34.4111 492.058 34.4111 481.831 Q34.4111 474.223 38.166 471.209 Q40.6857 468.985 43.5019 468.541 Q46.3181 468.047 53.6303 468.047 L72.9483 468.047 Q75.0728 467.948 75.5669 466.317 Q76.0115 464.687 76.0115 460.142 L79.1242 460.142 Q78.8277 470.468 78.8277 471.505 Q78.8277 472.296 79.1242 482.918 L76.0115 482.918 Q76.0115 477.533 75.3692 476.298 Q74.6776 475.013 71.4167 475.013 L47.8497 475.013 Q42.7114 475.013 39.6976 476.594 Q36.6344 478.175 36.6344 482.523 Q36.6344 487.76 41.0316 491.96 Q45.4288 496.159 52.8398 496.159 L71.4167 496.159 Q74.6776 496.159 75.3692 494.924 Q76.0115 493.639 76.0115 488.303 L79.1242 488.303 Q78.8277 498.629 78.8277 499.618 Q78.8277 500.408 79.1242 511.031 Z" fill="#000000" fill-rule="nonzero" fill-opacity="1"></path><path clip-path="url(#clip640)" d="M77.7902 454.806 L64.4504 454.806 Q63.314 454.806 62.9188 454.756 Q62.5235 454.707 62.2271 454.41 Q61.9306 454.114 61.9306 453.521 Q61.9306 452.829 62.2271 452.582 Q62.5235 452.286 63.6599 452.088 Q70.6262 450.557 74.3317 447.296 Q77.9878 443.986 77.9878 438.007 Q77.9878 432.326 75.4681 429.46 Q72.9483 426.594 68.7982 426.594 Q61.3871 426.594 59.5097 437.118 Q58.2745 443.195 57.484 445.715 Q56.6441 448.235 54.8161 450.458 Q51.2588 454.806 46.2193 454.806 Q41.1798 454.806 37.4743 451.001 Q33.7688 447.148 33.7688 438.65 Q33.7688 432.968 36.6344 429.114 Q35.7451 427.978 35.004 427.385 Q33.7688 426.051 33.7688 425.359 Q33.7688 424.569 34.3123 424.421 Q34.8063 424.272 36.2391 424.272 L46.4169 424.272 Q47.5533 424.272 47.9485 424.322 Q48.3438 424.371 48.6402 424.668 Q48.8872 424.964 48.8872 425.606 Q48.8872 426.743 47.9485 426.792 Q35.6957 427.583 35.6957 438.65 Q35.6957 444.628 38.0178 447.296 Q40.2905 449.964 43.4031 449.964 Q45.1323 449.964 46.4663 449.173 Q47.7509 448.333 48.5414 447.296 Q49.2825 446.209 50.0236 444.233 Q50.7153 442.256 50.9623 441.071 Q51.2094 439.835 51.7034 437.513 Q53.235 429.411 56.5453 426.002 Q60.7943 421.753 66.1796 421.753 Q72.1578 421.753 76.2092 425.804 Q80.2605 429.855 80.2605 438.007 Q80.2605 444.578 75.8633 449.173 Q76.4562 449.766 76.9997 450.211 Q77.4937 450.656 77.6914 450.853 Q77.889 451.001 78.0372 451.051 Q78.136 451.1 78.2348 451.199 Q80.2605 453.225 80.2605 453.719 Q80.2605 454.509 79.717 454.657 Q79.223 454.806 77.7902 454.806 Z" fill="#000000" fill-rule="nonzero" fill-opacity="1"></path><path clip-path="url(#clip640)" d="M79.1242 414.984 L76.0115 414.984 Q76.0115 409.599 75.3692 408.363 Q74.6776 407.128 71.4167 407.128 L44.1936 407.128 Q40.4387 407.128 39.5494 408.413 Q38.6601 409.648 38.6601 414.589 L35.498 414.589 L34.4111 400.458 L71.5155 400.458 Q74.5293 400.458 75.2704 399.371 Q76.0115 398.284 76.0115 393.344 L79.1242 393.344 Q78.8277 403.67 78.8277 403.867 Q78.8277 405.251 79.1242 414.984 M16.7729 410.735 Q14.7472 410.735 13.1168 409.203 Q11.437 407.622 11.437 405.399 Q11.437 403.176 12.9686 401.595 Q14.4508 400.014 16.8223 400.014 Q19.1444 400.014 20.676 401.595 Q22.1582 403.176 22.1582 405.399 Q22.1582 407.721 20.5278 409.253 Q18.8974 410.735 16.7729 410.735 Z" fill="#000000" fill-rule="nonzero" fill-opacity="1"></path><path clip-path="url(#clip640)" d="M38.6601 388.403 L36.4368 388.403 Q36.2391 383.759 32.9783 380.696 Q29.668 377.583 25.6167 376.545 Q21.5653 375.458 16.8717 375.36 L16.8717 372.84 L35.498 372.84 L35.498 358.364 L38.6601 358.364 L38.6601 372.84 L66.7725 372.84 Q77.6914 372.84 77.6914 366.022 Q77.6914 363.107 74.727 361.18 Q71.7131 359.253 66.3772 359.253 L60.7943 359.253 L60.7943 356.733 L66.5749 356.733 Q72.059 356.733 76.1598 359.253 Q80.2605 361.773 80.2605 366.763 Q80.2605 368.591 79.7664 370.419 Q79.3218 372.198 78.136 374.569 Q76.9009 376.891 73.9365 378.373 Q70.9226 379.806 66.5749 379.806 L38.6601 379.806 L38.6601 388.403 Z" fill="#000000" fill-rule="nonzero" fill-opacity="1"></path><path clip-path="url(#clip640)" d="M91.6735 351.99 Q89.549 351.99 88.4126 350.755 Q87.3257 349.471 87.3257 347.741 Q87.3257 345.913 88.462 344.728 Q89.6478 343.492 91.5747 343.492 Q95.3296 343.492 95.8236 347.445 Q97.6517 345.518 97.6517 342.702 Q97.6517 339.688 95.4284 337.267 Q93.2051 334.797 91.0806 333.759 Q88.9561 332.672 85.1024 331.141 Q82.0886 329.708 79.1242 328.621 L42.1679 343.789 Q39.747 344.777 39.2035 346.309 Q38.6601 347.84 38.6601 351.99 L35.498 351.99 Q35.7945 347.445 35.7945 342.158 Q35.7945 339.046 35.498 331.141 L38.6601 331.141 Q38.6601 336.822 41.2786 336.822 Q41.5751 336.822 43.1067 336.23 L70.3298 324.965 L45.4288 314.738 Q43.996 314.145 43.0078 314.145 Q38.8577 314.145 38.6601 318.888 L35.498 318.888 Q35.7945 312.218 35.7945 310.093 Q35.7945 305.943 35.498 302.534 L38.6601 302.534 Q38.6601 309.303 45.1323 311.921 L88.3138 329.757 Q99.8256 334.599 99.875 342.702 Q99.875 346.556 97.5035 349.273 Q95.1319 351.99 91.6735 351.99 Z" fill="#000000" fill-rule="nonzero" fill-opacity="1"></path><polyline clip-path="url(#clip642)" style="stroke:#0000ff; stroke-linecap:round; stroke-linejoin:round; stroke-width:4; stroke-opacity:1; fill:none" points="395.72,1346.46 425.879,1346.34 456.039,1346.02 486.198,1344.85 516.357,1341.21 546.516,1331.28 576.676,1307.48 606.835,1257.55 636.994,1166.01 667.154,1019.98 697.313,818.685 727.472,581.807 757.631,349.604 787.791,171.116 817.95,85.0853 848.109,104.412 878.269,212.888 908.428,374.48 938.587,548.05 968.746,699.423 998.906,807.057 1029.06,862.717 1059.22,870.533 1089.38,845.791 1119.54,811.657 1149.7,791.965 1179.86,802.013 1210.02,842.847 1240.18,903.037 1270.34,966.456 1300.5,1020.29 1330.66,1058.64 1360.82,1081.49 1390.98,1092.15 1421.14,1095.28 1451.29,1095.64 1481.45,1096.48 1511.61,1098.28 1541.77,1099.47 1571.93,1099.35 1602.09,1100.97 1632.25,1110.75 1662.41,1134.29 1692.57,1171.87 1722.73,1217.33 1752.89,1261.54 1783.05,1297.1 1813.21,1321.21 1843.37,1335.11 1873.52,1341.98 1903.68,1344.91 1933.84,1345.99 1964,1346.32 1994.16,1346.46 2024.32,1346.46 2054.48,1346.46 2084.64,1346.46 2114.8,1346.46 2144.96,1346.46 2175.12,1346.46 2205.28,1346.46 2235.44,1346.46 2265.6,1346.46 2295.75,1346.46 "></polyline>
<path clip-path="url(#clip640)" d="M1496 260.293 L2285.62 260.293 L2285.62 91.8126 L1496 91.8126  Z" fill="#ffffff" fill-rule="evenodd" fill-opacity="1"></path>
<polyline clip-path="url(#clip640)" style="stroke:#000000; stroke-linecap:round; stroke-linejoin:round; stroke-width:4; stroke-opacity:1; fill:none" points="1496,260.293 2285.62,260.293 2285.62,91.8126 1496,91.8126 1496,260.293 "></polyline>
<polyline clip-path="url(#clip640)" style="stroke:#0000ff; stroke-linecap:round; stroke-linejoin:round; stroke-width:6.5; stroke-opacity:1; fill:none" points="1518.38,176.053 1652.65,176.053 "></polyline>
<path clip-path="url(#clip640)" d="M1680.25 199.637 Q1675.03 194.177 1675.03 186.389 Q1675.03 178.562 1680.17 172.942 Q1685.3 167.281 1692.85 167.281 Q1697.87 167.281 1701.64 169.69 Q1705.42 172.058 1705.42 176.113 Q1705.42 177.919 1704.33 178.963 Q1703.29 179.967 1701.64 179.967 Q1699.92 179.967 1698.87 178.923 Q1697.87 177.839 1697.87 176.193 Q1697.87 175.471 1698.11 174.748 Q1698.35 174.025 1699.23 173.263 Q1700.16 172.5 1701.72 172.38 Q1698.79 169.369 1693.09 169.369 Q1693.01 169.369 1692.93 169.369 Q1688.76 169.369 1685.3 173.303 Q1681.85 177.237 1681.85 186.229 Q1681.85 190.926 1682.98 194.378 Q1684.14 197.79 1686.03 199.556 Q1687.91 201.323 1689.76 202.166 Q1691.61 202.968 1693.41 202.968 Q1701.48 202.968 1704.21 194.338 Q1704.45 193.535 1705.26 193.535 Q1706.34 193.535 1706.34 194.338 Q1706.34 194.739 1706.02 195.783 Q1705.7 196.827 1704.69 198.472 Q1703.69 200.118 1702.25 201.563 Q1700.84 202.968 1698.31 204.012 Q1695.82 205.056 1692.69 205.056 Q1685.47 205.056 1680.25 199.637 Z" fill="#000000" fill-rule="nonzero" fill-opacity="1"></path><path clip-path="url(#clip640)" d="M1716.42 199.717 Q1711 194.338 1711 186.55 Q1711 178.722 1716.3 173.022 Q1721.63 167.281 1729.26 167.281 Q1736.73 167.281 1742.07 172.982 Q1747.45 178.642 1747.45 186.55 Q1747.45 194.298 1742.03 199.677 Q1736.65 205.056 1729.18 205.056 Q1721.88 205.056 1716.42 199.717 M1717.82 185.868 Q1717.82 193.856 1719.91 197.469 Q1723.12 202.968 1729.26 202.968 Q1732.31 202.968 1734.84 201.323 Q1737.41 199.677 1738.82 196.907 Q1740.62 193.294 1740.62 185.868 Q1740.62 177.959 1738.45 174.467 Q1735.24 169.128 1729.18 169.128 Q1726.53 169.128 1723.92 170.533 Q1721.35 171.898 1719.79 174.628 Q1717.82 178.24 1717.82 185.868 Z" fill="#000000" fill-rule="nonzero" fill-opacity="1"></path><path clip-path="url(#clip640)" d="M1752.46 204.133 L1752.46 201.604 Q1756.84 201.604 1757.84 201.082 Q1758.85 200.52 1758.85 197.87 L1758.85 175.832 Q1758.85 172.781 1757.76 172.018 Q1756.72 171.256 1752.46 171.256 L1752.46 168.686 L1764.03 167.803 L1764.03 176.434 Q1767.88 167.803 1776.19 167.803 Q1782.37 167.803 1784.82 170.854 Q1786.63 172.901 1786.99 175.19 Q1787.39 177.478 1787.39 183.419 L1787.39 199.115 Q1787.47 200.841 1788.79 201.242 Q1790.12 201.604 1793.81 201.604 L1793.81 204.133 Q1785.42 203.892 1784.58 203.892 Q1783.94 203.892 1775.31 204.133 L1775.31 201.604 Q1779.68 201.604 1780.68 201.082 Q1781.73 200.52 1781.73 197.87 L1781.73 178.722 Q1781.73 174.547 1780.44 172.099 Q1779.16 169.61 1775.63 169.61 Q1771.37 169.61 1767.96 173.182 Q1764.55 176.755 1764.55 182.777 L1764.55 197.87 Q1764.55 200.52 1765.55 201.082 Q1766.59 201.604 1770.93 201.604 L1770.93 204.133 Q1762.54 203.892 1761.74 203.892 Q1761.09 203.892 1752.46 204.133 Z" fill="#000000" fill-rule="nonzero" fill-opacity="1"></path><path clip-path="url(#clip640)" d="M1794.69 171.256 L1794.69 169.449 Q1798.47 169.289 1800.96 166.639 Q1803.49 163.95 1804.33 160.658 Q1805.21 157.366 1805.29 153.552 L1807.34 153.552 L1807.34 168.686 L1819.1 168.686 L1819.1 171.256 L1807.34 171.256 L1807.34 194.097 Q1807.34 202.968 1812.88 202.968 Q1815.25 202.968 1816.81 200.56 Q1818.38 198.111 1818.38 193.776 L1818.38 189.24 L1820.43 189.24 L1820.43 193.936 Q1820.43 198.392 1818.38 201.724 Q1816.33 205.056 1812.28 205.056 Q1810.79 205.056 1809.31 204.654 Q1807.86 204.293 1805.93 203.33 Q1804.05 202.326 1802.84 199.918 Q1801.68 197.469 1801.68 193.936 L1801.68 171.256 L1794.69 171.256 Z" fill="#000000" fill-rule="nonzero" fill-opacity="1"></path><path clip-path="url(#clip640)" d="M1827.73 204.133 L1827.73 201.604 Q1832.11 201.604 1833.11 201.082 Q1834.11 200.52 1834.11 197.87 L1834.11 175.752 Q1834.11 172.701 1833.07 171.978 Q1832.07 171.256 1828.05 171.256 L1828.05 168.686 L1839.53 167.803 L1839.53 197.951 Q1839.53 200.399 1840.42 201.001 Q1841.3 201.604 1845.31 201.604 L1845.31 204.133 Q1836.92 203.892 1836.76 203.892 Q1835.64 203.892 1827.73 204.133 M1831.18 153.472 Q1831.18 151.826 1832.43 150.502 Q1833.71 149.137 1835.52 149.137 Q1837.33 149.137 1838.61 150.381 Q1839.9 151.585 1839.9 153.512 Q1839.9 155.399 1838.61 156.643 Q1837.33 157.848 1835.52 157.848 Q1833.63 157.848 1832.39 156.523 Q1831.18 155.198 1831.18 153.472 Z" fill="#000000" fill-rule="nonzero" fill-opacity="1"></path><path clip-path="url(#clip640)" d="M1850.41 204.133 L1850.41 201.604 Q1854.79 201.604 1855.79 201.082 Q1856.8 200.52 1856.8 197.87 L1856.8 175.832 Q1856.8 172.781 1855.71 172.018 Q1854.67 171.256 1850.41 171.256 L1850.41 168.686 L1861.97 167.803 L1861.97 176.434 Q1865.83 167.803 1874.14 167.803 Q1880.32 167.803 1882.77 170.854 Q1884.57 172.901 1884.94 175.19 Q1885.34 177.478 1885.34 183.419 L1885.34 199.115 Q1885.42 200.841 1886.74 201.242 Q1888.07 201.604 1891.76 201.604 L1891.76 204.133 Q1883.37 203.892 1882.53 203.892 Q1881.89 203.892 1873.25 204.133 L1873.25 201.604 Q1877.63 201.604 1878.63 201.082 Q1879.68 200.52 1879.68 197.87 L1879.68 178.722 Q1879.68 174.547 1878.39 172.099 Q1877.11 169.61 1873.58 169.61 Q1869.32 169.61 1865.91 173.182 Q1862.5 176.755 1862.5 182.777 L1862.5 197.87 Q1862.5 200.52 1863.5 201.082 Q1864.54 201.604 1868.88 201.604 L1868.88 204.133 Q1860.49 203.892 1859.69 203.892 Q1859.04 203.892 1850.41 204.133 Z" fill="#000000" fill-rule="nonzero" fill-opacity="1"></path><path clip-path="url(#clip640)" d="M1893.73 171.256 L1893.73 168.686 L1905.81 167.803 L1905.81 195.1 Q1905.81 197.067 1905.97 198.232 Q1906.13 199.356 1906.77 200.68 Q1907.46 202.005 1908.98 202.607 Q1910.55 203.209 1913.04 203.209 Q1917.49 203.209 1920.22 199.556 Q1922.99 195.903 1922.99 190.484 L1922.99 175.832 Q1922.99 172.781 1921.91 172.018 Q1920.82 171.256 1916.57 171.256 L1916.57 168.686 L1928.65 167.803 L1928.65 196.987 Q1928.65 200.038 1929.7 200.841 Q1930.78 201.604 1935.07 201.604 L1935.07 204.133 L1923.23 205.056 L1923.23 197.629 Q1919.78 205.016 1912.63 205.056 Q1909.02 205.056 1906.53 204.133 Q1904.08 203.209 1902.84 202.085 Q1901.6 200.921 1900.91 198.713 Q1900.27 196.505 1900.19 195.141 Q1900.11 193.776 1900.11 191.126 L1900.11 178.802 Q1900.11 173.223 1899.31 172.259 Q1898.5 171.256 1893.73 171.256 Z" fill="#000000" fill-rule="nonzero" fill-opacity="1"></path><path clip-path="url(#clip640)" d="M1944.39 199.717 Q1938.97 194.338 1938.97 186.55 Q1938.97 178.722 1944.27 173.022 Q1949.61 167.281 1957.23 167.281 Q1964.7 167.281 1970.04 172.982 Q1975.42 178.642 1975.42 186.55 Q1975.42 194.298 1970 199.677 Q1964.62 205.056 1957.15 205.056 Q1949.85 205.056 1944.39 199.717 M1945.79 185.868 Q1945.79 193.856 1947.88 197.469 Q1951.09 202.968 1957.23 202.968 Q1960.28 202.968 1962.81 201.323 Q1965.38 199.677 1966.79 196.907 Q1968.59 193.294 1968.59 185.868 Q1968.59 177.959 1966.43 174.467 Q1963.21 169.128 1957.15 169.128 Q1954.5 169.128 1951.89 170.533 Q1949.33 171.898 1947.76 174.628 Q1945.79 178.24 1945.79 185.868 Z" fill="#000000" fill-rule="nonzero" fill-opacity="1"></path><path clip-path="url(#clip640)" d="M1980.44 171.256 L1980.44 168.686 L1992.52 167.803 L1992.52 195.1 Q1992.52 197.067 1992.68 198.232 Q1992.84 199.356 1993.48 200.68 Q1994.16 202.005 1995.69 202.607 Q1997.26 203.209 1999.74 203.209 Q2004.2 203.209 2006.93 199.556 Q2009.7 195.903 2009.7 190.484 L2009.7 175.832 Q2009.7 172.781 2008.62 172.018 Q2007.53 171.256 2003.28 171.256 L2003.28 168.686 L2015.36 167.803 L2015.36 196.987 Q2015.36 200.038 2016.4 200.841 Q2017.49 201.604 2021.78 201.604 L2021.78 204.133 L2009.94 205.056 L2009.94 197.629 Q2006.49 205.016 1999.34 205.056 Q1995.73 205.056 1993.24 204.133 Q1990.79 203.209 1989.55 202.085 Q1988.3 200.921 1987.62 198.713 Q1986.98 196.505 1986.9 195.141 Q1986.82 193.776 1986.82 191.126 L1986.82 178.802 Q1986.82 173.223 1986.02 172.259 Q1985.21 171.256 1980.44 171.256 Z" fill="#000000" fill-rule="nonzero" fill-opacity="1"></path><path clip-path="url(#clip640)" d="M2026.12 203.049 L2026.12 192.21 Q2026.12 191.287 2026.16 190.966 Q2026.2 190.645 2026.44 190.404 Q2026.68 190.163 2027.16 190.163 Q2027.72 190.163 2027.93 190.404 Q2028.17 190.645 2028.33 191.568 Q2029.57 197.228 2032.22 200.239 Q2034.91 203.209 2039.77 203.209 Q2044.38 203.209 2046.71 201.162 Q2049.04 199.115 2049.04 195.743 Q2049.04 189.721 2040.49 188.196 Q2035.55 187.192 2033.5 186.55 Q2031.46 185.868 2029.65 184.382 Q2026.12 181.492 2026.12 177.397 Q2026.12 173.303 2029.21 170.292 Q2032.34 167.281 2039.25 167.281 Q2043.86 167.281 2046.99 169.61 Q2047.92 168.887 2048.4 168.285 Q2049.48 167.281 2050.04 167.281 Q2050.69 167.281 2050.81 167.723 Q2050.93 168.124 2050.93 169.289 L2050.93 177.558 Q2050.93 178.481 2050.89 178.802 Q2050.85 179.124 2050.61 179.364 Q2050.37 179.565 2049.84 179.565 Q2048.92 179.565 2048.88 178.802 Q2048.24 168.847 2039.25 168.847 Q2034.39 168.847 2032.22 170.734 Q2030.05 172.58 2030.05 175.109 Q2030.05 176.514 2030.69 177.598 Q2031.38 178.642 2032.22 179.284 Q2033.1 179.886 2034.71 180.488 Q2036.32 181.05 2037.28 181.251 Q2038.28 181.452 2040.17 181.853 Q2046.75 183.098 2049.52 185.787 Q2052.97 189.24 2052.97 193.615 Q2052.97 198.472 2049.68 201.764 Q2046.39 205.056 2039.77 205.056 Q2034.43 205.056 2030.69 201.483 Q2030.21 201.965 2029.85 202.406 Q2029.49 202.808 2029.33 202.968 Q2029.21 203.129 2029.17 203.249 Q2029.13 203.33 2029.05 203.41 Q2027.4 205.056 2027 205.056 Q2026.36 205.056 2026.24 204.614 Q2026.12 204.213 2026.12 203.049 Z" fill="#000000" fill-rule="nonzero" fill-opacity="1"></path><path clip-path="url(#clip640)" d="M2085.81 204.133 L2085.81 201.604 L2087.78 201.604 Q2092.23 201.604 2093.24 200.881 Q2094.28 200.118 2094.28 197.71 L2094.28 154.395 Q2094.28 152.027 2093.24 151.304 Q2092.19 150.542 2087.78 150.542 L2085.81 150.542 L2085.81 147.973 Q2088.7 148.213 2097.97 148.213 Q2107.17 148.213 2110.06 147.973 L2110.06 150.542 L2108.09 150.542 Q2103.63 150.542 2102.59 151.304 Q2101.59 152.027 2101.59 154.395 L2101.59 180.529 L2127.32 155.961 Q2128.8 154.636 2128.8 153.231 Q2128.8 152.75 2128.56 152.228 Q2128.36 151.666 2127.4 151.104 Q2126.48 150.542 2124.99 150.542 L2124.99 147.973 Q2127.8 148.213 2135.47 148.213 Q2140.33 148.213 2142.45 147.973 L2142.45 150.542 Q2135.63 150.622 2130.77 155.479 L2115.96 169.69 L2134.95 197.629 Q2136.67 200.158 2138.36 200.881 Q2140.04 201.604 2143.58 201.604 L2143.58 204.133 Q2138.4 203.892 2134.14 203.892 Q2125.27 203.892 2122.38 204.133 L2122.38 201.604 Q2127.24 201.604 2127.24 199.115 Q2127.24 198.191 2125.99 196.305 L2111.1 174.306 L2101.59 183.339 L2101.59 197.71 Q2101.59 200.078 2102.59 200.841 Q2103.63 201.604 2108.09 201.604 L2110.06 201.604 L2110.06 204.133 Q2107.17 203.892 2097.89 203.892 Q2088.7 203.892 2085.81 204.133 Z" fill="#000000" fill-rule="nonzero" fill-opacity="1"></path><path clip-path="url(#clip640)" d="M2149.84 204.133 L2149.84 201.604 L2151.81 201.604 Q2156.26 201.604 2157.27 200.881 Q2158.31 200.118 2158.31 197.71 L2158.31 154.395 Q2158.31 152.027 2157.27 151.304 Q2156.22 150.542 2151.81 150.542 L2149.84 150.542 L2149.84 147.973 L2179.91 147.973 Q2190.42 147.973 2197.73 156.362 Q2205.08 164.752 2205.08 176.514 Q2205.08 188.035 2197.69 196.104 Q2190.34 204.133 2179.91 204.133 L2149.84 204.133 M2165.37 198.312 Q2165.37 200.439 2165.98 201.042 Q2166.58 201.604 2169.39 201.604 L2177.7 201.604 Q2183.12 201.604 2186.77 199.396 Q2190.42 197.148 2192.31 194.579 Q2196.85 188.397 2196.85 176.514 Q2196.85 164.03 2192.59 158.169 Q2187.09 150.542 2177.62 150.542 L2169.39 150.542 Q2166.58 150.542 2165.98 151.104 Q2165.37 151.666 2165.37 153.833 L2165.37 198.312 Z" fill="#000000" fill-rule="nonzero" fill-opacity="1"></path><path clip-path="url(#clip640)" d="M2212.38 204.133 L2212.38 201.604 L2214.35 201.604 Q2218.8 201.604 2219.81 200.881 Q2220.85 200.118 2220.85 197.71 L2220.85 154.636 Q2220.85 152.268 2219.81 151.545 Q2218.76 150.783 2214.35 150.783 L2212.38 150.783 L2212.38 148.213 L2258.67 148.213 L2260.96 166.719 L2258.91 166.719 Q2258.35 162.023 2257.58 159.333 Q2256.86 156.603 2255.05 154.516 Q2253.29 152.428 2250.36 151.626 Q2247.47 150.783 2242.77 150.783 L2232.17 150.783 Q2229.36 150.783 2228.76 151.385 Q2228.16 151.947 2228.16 154.074 L2228.16 173.785 L2235.54 173.785 Q2241.2 173.785 2242.81 171.818 Q2244.42 169.851 2244.42 164.19 L2246.5 164.19 L2246.5 185.948 L2244.42 185.948 Q2244.42 180.368 2242.81 178.361 Q2241.2 176.354 2235.54 176.354 L2228.16 176.354 L2228.16 198.312 Q2228.16 200.439 2228.76 201.042 Q2229.4 201.604 2232.17 201.604 L2243.13 201.604 Q2246.66 201.604 2249.23 201.162 Q2251.84 200.68 2253.65 199.556 Q2255.46 198.392 2256.66 197.067 Q2257.9 195.743 2258.75 193.374 Q2259.63 190.966 2260.11 188.758 Q2260.63 186.55 2261.2 182.937 L2263.24 182.937 L2259.79 204.133 L2212.38 204.133 Z" fill="#000000" fill-rule="nonzero" fill-opacity="1"></path></svg>